ISO-10303-21;
HEADER;
FILE_DESCRIPTION (( 'STEP AP203' ),
    '1' );
FILE_NAME ('98689A224_General Purpose 18-8 Stainless Steel Washer.STEP',
    '2024-03-01T20:11:48',
    ( 'Administrator' ),
    ( 'Managed by Terraform' ),
    'SwSTEP 2.0',
    'SolidWorks 2017',
    '' );
FILE_SCHEMA (( 'CONFIG_CONTROL_DESIGN' ));
ENDSEC;

DATA;
#1 = ORIENTED_EDGE ( 'NONE', *, *, #114, .F. ) ;
#2 = CC_DESIGN_DATE_AND_TIME_ASSIGNMENT ( #387, #87, ( #155 ) ) ;
#3 = FACE_OUTER_BOUND ( 'NONE', #45, .T. ) ;
#4 = PRODUCT ( '98689A224_General Purpose 18-8 Stainless Steel Washer', '98689A224_General Purpose 18-8 Stainless Steel Washer', '', ( #126 ) ) ;
#5 = EDGE_LOOP ( 'NONE', ( #367, #310, #428, #394 ) ) ;
#6 = AXIS2_PLACEMENT_3D ( 'NONE', #157, #203, #132 ) ;
#7 = CARTESIAN_POINT ( 'NONE',  ( -19.10999999999999900, 2.364180645753965200E-015, 1.649999999999999900 ) ) ;
#8 = CARTESIAN_POINT ( 'NONE',  ( 0.0000000000000000000, 0.0000000000000000000, 1.260000000000000200 ) ) ;
#9 = DIRECTION ( 'NONE',  ( 1.000000000000000000, 0.0000000000000000000, 0.0000000000000000000 ) ) ;
#10 = CIRCLE ( 'NONE', #50, 11.88999999999999900 ) ;
#11 = ORIENTED_EDGE ( 'NONE', *, *, #104, .F. ) ;
#12 = CARTESIAN_POINT ( 'NONE',  ( 0.0000000000000000000, 0.0000000000000000000, -1.649999999999999900 ) ) ;
#13 = APPLICATION_PROTOCOL_DEFINITION ( 'international standard', 'config_control_design', 1994, #248 ) ;
#14 = APPROVAL ( #27, 'UNSPECIFIED' ) ;
#15 = CARTESIAN_POINT ( 'NONE',  ( 11.50000000000000000, 0.0000000000000000000, -1.260000000000000000 ) ) ;
#16 = CARTESIAN_POINT ( 'NONE',  ( 0.0000000000000000000, 0.0000000000000000000, -1.649999999999999900 ) ) ;
#17 = CIRCLE ( 'NONE', #83, 11.50000000000000000 ) ;
#18 = EDGE_CURVE ( 'NONE', #434, #77, #247, .T. ) ;
#19 = ORIENTED_EDGE ( 'NONE', *, *, #276, .F. ) ;
#20 = CARTESIAN_POINT ( 'NONE',  ( 11.88999999999999900, 0.0000000000000000000, -1.649999999999999900 ) ) ;
#21 = DIRECTION ( 'NONE',  ( 0.0000000000000000000, -1.000000000000000000, 0.0000000000000000000 ) ) ;
#22 = CARTESIAN_POINT ( 'NONE',  ( -19.10999999999999900, 2.340300033170591500E-015, -1.260000000000000000 ) ) ;
#23 = DIRECTION ( 'NONE',  ( 0.0000000000000000000, 0.0000000000000000000, 1.000000000000000000 ) ) ;
#24 = LOCAL_TIME ( 14, 11, 48.00000000000000000, #279 ) ;
#25 = ORIENTED_EDGE ( 'NONE', *, *, #359, .T. ) ;
#26 = LOCAL_TIME ( 14, 11, 48.00000000000000000, #219 ) ;
#27 = APPROVAL_STATUS ( 'not_yet_approved' ) ;
#28 = ORIENTED_EDGE ( 'NONE', *, *, #359, .F. ) ;
#29 = EDGE_CURVE ( 'NONE', #357, #201, #430, .T. ) ;
#30 = DIRECTION ( 'NONE',  ( 0.0000000000000000000, 0.0000000000000000000, 1.000000000000000000 ) ) ;
#31 = CALENDAR_DATE ( 2024, 1, 3 ) ;
#32 = CIRCLE ( 'NONE', #371, 0.3900000000000014600 ) ;
#33 = CC_DESIGN_PERSON_AND_ORGANIZATION_ASSIGNMENT ( #302, #262, ( #379 ) ) ;
#34 = DIRECTION ( 'NONE',  ( 1.224646799147353200E-016, 1.000000000000000000, -0.0000000000000000000 ) ) ;
#35 = EDGE_CURVE ( 'NONE', #77, #434, #389, .T. ) ;
#36 = VERTEX_POINT ( 'NONE', #189 ) ;
#37 = PERSON_AND_ORGANIZATION ( #412, #229 ) ;
#38 = EDGE_LOOP ( 'NONE', ( #330, #349 ) ) ;
#39 = ADVANCED_FACE ( 'NONE', ( #225 ), #46, .T. ) ;
#40 = ADVANCED_FACE ( 'NONE', ( #339 ), #145, .T. ) ;
#41 = DIRECTION ( 'NONE',  ( 1.000000000000000000, 0.0000000000000000000, 0.0000000000000000000 ) ) ;
#42 = ORIENTED_EDGE ( 'NONE', *, *, #322, .T. ) ;
#43 = APPLICATION_PROTOCOL_DEFINITION ( 'international standard', 'config_control_design', 1994, #431 ) ;
#44 = AXIS2_PLACEMENT_3D ( 'NONE', #8, #236, #370 ) ;
#45 = EDGE_LOOP ( 'NONE', ( #1, #382, #175, #60 ) ) ;
#46 = TOROIDAL_SURFACE ( 'NONE', #44, 19.10999999999999900, 0.3900000000000000100 ) ;
#47 = DIRECTION ( 'NONE',  ( 0.0000000000000000000, 0.0000000000000000000, 1.000000000000000000 ) ) ;
#48 = DIRECTION ( 'NONE',  ( 1.000000000000000000, 0.0000000000000000000, 0.0000000000000000000 ) ) ;
#49 = DIRECTION ( 'NONE',  ( 0.0000000000000000000, 0.0000000000000000000, 1.000000000000000000 ) ) ;
#50 = AXIS2_PLACEMENT_3D ( 'NONE', #176, #423, #216 ) ;
#51 = CARTESIAN_POINT ( 'NONE',  ( -11.88999999999999900, 1.456105044186203000E-015, 1.649999999999999900 ) ) ;
#52 = VERTEX_POINT ( 'NONE', #7 ) ;
#53 = CARTESIAN_POINT ( 'NONE',  ( 0.0000000000000000000, 0.0000000000000000000, -1.260000000000000000 ) ) ;
#54 = CARTESIAN_POINT ( 'NONE',  ( 19.50000000000000000, 0.0000000000000000000, -1.260000000000000000 ) ) ;
#55 = CARTESIAN_POINT ( 'NONE',  ( -19.10999999999999900, 2.340300033170591500E-015, 1.260000000000000200 ) ) ;
#56 = CARTESIAN_POINT ( 'NONE',  ( -19.50000000000000000, 2.388061258337338900E-015, -1.260000000000000000 ) ) ;
#57 = CARTESIAN_POINT ( 'NONE',  ( 0.0000000000000000000, 0.0000000000000000000, 1.649999999999999900 ) ) ;
#58 = VERTEX_POINT ( 'NONE', #120 ) ;
#59 = FACE_OUTER_BOUND ( 'NONE', #65, .T. ) ;
#60 = ORIENTED_EDGE ( 'NONE', *, *, #253, .T. ) ;
#61 = DIRECTION ( 'NONE',  ( 0.0000000000000000000, 0.0000000000000000000, 1.000000000000000000 ) ) ;
#62 = PERSON_AND_ORGANIZATION_ROLE ( 'creator' ) ;
#63 = CARTESIAN_POINT ( 'NONE',  ( 0.0000000000000000000, 0.0000000000000000000, 1.649999999999999900 ) ) ;
#64 = CALENDAR_DATE ( 2024, 1, 3 ) ;
#65 = EDGE_LOOP ( 'NONE', ( #152, #198, #220, #139 ) ) ;
#66 = AXIS2_PLACEMENT_3D ( 'NONE', #53, #89, #378 ) ;
#67 = EDGE_CURVE ( 'NONE', #58, #374, #263, .T. ) ;
#68 = PERSON_AND_ORGANIZATION ( #412, #229 ) ;
#69 = ORIENTED_EDGE ( 'NONE', *, *, #276, .T. ) ;
#70 = CYLINDRICAL_SURFACE ( 'NONE', #284, 19.50000000000000000 ) ;
#71 = ADVANCED_BREP_SHAPE_REPRESENTATION ( '98689A224_General Purpose 18-8 Stainless Steel Washer', ( #205, #425 ), #404 ) ;
#72 = ORIENTED_EDGE ( 'NONE', *, *, #224, .T. ) ;
#73 = DIRECTION ( 'NONE',  ( 1.000000000000000000, 0.0000000000000000000, 0.0000000000000000000 ) ) ;
#74 = APPROVAL_ROLE ( '' ) ;
#75 = AXIS2_PLACEMENT_3D ( 'NONE', #171, #350, #418 ) ;
#76 = VECTOR ( 'NONE', #343, 1000.000000000000000 ) ;
#77 = VERTEX_POINT ( 'NONE', #269 ) ;
#78 = EDGE_CURVE ( 'NONE', #36, #77, #287, .T. ) ;
#79 = ADVANCED_FACE ( 'NONE', ( #416, #116 ), #98, .F. ) ;
#80 = ORIENTED_EDGE ( 'NONE', *, *, #78, .F. ) ;
#81 = CIRCLE ( 'NONE', #193, 11.88999999999999900 ) ;
#82 = ORIENTED_EDGE ( 'NONE', *, *, #100, .F. ) ;
#83 = AXIS2_PLACEMENT_3D ( 'NONE', #94, #385, #137 ) ;
#84 = DIRECTION ( 'NONE',  ( 0.0000000000000000000, 0.0000000000000000000, 1.000000000000000000 ) ) ;
#85 = APPROVAL_STATUS ( 'not_yet_approved' ) ;
#86 = CIRCLE ( 'NONE', #75, 19.10999999999999900 ) ;
#87 = DATE_TIME_ROLE ( 'creation_date' ) ;
#88 = CARTESIAN_POINT ( 'NONE',  ( 0.0000000000000000000, 0.0000000000000000000, 1.260000000000000200 ) ) ;
#89 = DIRECTION ( 'NONE',  ( 0.0000000000000000000, 0.0000000000000000000, 1.000000000000000000 ) ) ;
#90 = DIRECTION ( 'NONE',  ( 1.224646799147353200E-016, 1.000000000000000000, -0.0000000000000000000 ) ) ;
#91 = AXIS2_PLACEMENT_3D ( 'NONE', #295, #323, #395 ) ;
#92 = EDGE_LOOP ( 'NONE', ( #305, #209, #237, #393 ) ) ;
#93 = LINE ( 'NONE', #309, #166 ) ;
#94 = CARTESIAN_POINT ( 'NONE',  ( 0.0000000000000000000, 0.0000000000000000000, -1.260000000000000000 ) ) ;
#95 = EDGE_LOOP ( 'NONE', ( #451, #69, #185, #28 ) ) ;
#96 = DIRECTION ( 'NONE',  ( 1.224646799147353200E-016, 1.000000000000000000, -0.0000000000000000000 ) ) ;
#97 = SECURITY_CLASSIFICATION ( '', '', #148 ) ;
#98 = PLANE ( 'NONE',  #300 ) ;
#99 = COORDINATED_UNIVERSAL_TIME_OFFSET ( 6, 0, .BEHIND. ) ;
#100 = EDGE_CURVE ( 'NONE', #58, #347, #298, .T. ) ;
#101 = ORIENTED_EDGE ( 'NONE', *, *, #140, .T. ) ;
#102 = UNCERTAINTY_MEASURE_WITH_UNIT (LENGTH_MEASURE( 1.000000000000000100E-005 ), #118, 'distance_accuracy_value', 'NONE');
#103 = DIRECTION ( 'NONE',  ( 0.0000000000000000000, 0.0000000000000000000, 1.000000000000000000 ) ) ;
#104 = EDGE_CURVE ( 'NONE', #52, #154, #192, .T. ) ;
#105 = ORIENTED_EDGE ( 'NONE', *, *, #364, .F. ) ;
#106 = FACE_OUTER_BOUND ( 'NONE', #207, .T. ) ;
#107 = CARTESIAN_POINT ( 'NONE',  ( 0.0000000000000000000, 0.0000000000000000000, 1.260000000000000200 ) ) ;
#108 = CC_DESIGN_PERSON_AND_ORGANIZATION_ASSIGNMENT ( #136, #445, ( #4 ) ) ;
#109 = PERSON_AND_ORGANIZATION ( #412, #229 ) ;
#110 = ADVANCED_FACE ( 'NONE', ( #251 ), #138, .T. ) ;
#111 = ORIENTED_EDGE ( 'NONE', *, *, #312, .F. ) ;
#112 = CIRCLE ( 'NONE', #340, 0.3899999999999999600 ) ;
#113 = ORIENTED_EDGE ( 'NONE', *, *, #432, .T. ) ;
#114 = EDGE_CURVE ( 'NONE', #347, #325, #129, .T. ) ;
#115 = ADVANCED_FACE ( 'NONE', ( #179, #150 ), #240, .T. ) ;
#116 = FACE_BOUND ( 'NONE', #38, .T. ) ;
#117 = AXIS2_PLACEMENT_3D ( 'NONE', #234, #47, #377 ) ;
#118 =( LENGTH_UNIT ( ) NAMED_UNIT ( * ) SI_UNIT ( .MILLI., .METRE. ) );
#119 = DIRECTION ( 'NONE',  ( 0.0000000000000000000, 0.0000000000000000000, -1.000000000000000000 ) ) ;
#120 = CARTESIAN_POINT ( 'NONE',  ( -19.10999999999999900, 2.364180645753965200E-015, -1.649999999999999900 ) ) ;
#121 = CC_DESIGN_PERSON_AND_ORGANIZATION_ASSIGNMENT ( #450, #456, ( #97 ) ) ;
#122 = EDGE_CURVE ( 'NONE', #325, #52, #32, .T. ) ;
#123 = EDGE_LOOP ( 'NONE', ( #333, #274, #101, #11 ) ) ;
#124 = AXIS2_PLACEMENT_3D ( 'NONE', #22, #90, #204 ) ;
#125 = DIRECTION ( 'NONE',  ( 1.000000000000000000, 0.0000000000000000000, 0.0000000000000000000 ) ) ;
#126 = MECHANICAL_CONTEXT ( 'NONE', #431, 'mechanical' ) ;
#127 = AXIS2_PLACEMENT_3D ( 'NONE', #341, #21, #238 ) ;
#128 = CARTESIAN_POINT ( 'NONE',  ( 19.10999999999999900, 0.0000000000000000000, 1.260000000000000200 ) ) ;
#129 = LINE ( 'NONE', #411, #446 ) ;
#130 = DIRECTION ( 'NONE',  ( 1.000000000000000000, 0.0000000000000000000, 0.0000000000000000000 ) ) ;
#131 = DIRECTION ( 'NONE',  ( 0.0000000000000000000, 0.0000000000000000000, 1.000000000000000000 ) ) ;
#132 = DIRECTION ( 'NONE',  ( 1.000000000000000000, 0.0000000000000000000, 0.0000000000000000000 ) ) ;
#133 = CALENDAR_DATE ( 2024, 1, 3 ) ;
#134 = EDGE_CURVE ( 'NONE', #201, #357, #17, .T. ) ;
#135 = ORIENTED_EDGE ( 'NONE', *, *, #432, .F. ) ;
#136 = PERSON_AND_ORGANIZATION ( #412, #229 ) ;
#137 = DIRECTION ( 'NONE',  ( 1.000000000000000000, 0.0000000000000000000, 0.0000000000000000000 ) ) ;
#138 = TOROIDAL_SURFACE ( 'NONE', #184, 19.10999999999999900, 0.3900000000000000100 ) ;
#139 = ORIENTED_EDGE ( 'NONE', *, *, #18, .F. ) ;
#140 = EDGE_CURVE ( 'NONE', #260, #154, #112, .T. ) ;
#141 = DIRECTION ( 'NONE',  ( -1.000000000000000000, 1.224646799147354700E-016, 0.0000000000000000000 ) ) ;
#142 = CARTESIAN_POINT ( 'NONE',  ( 19.50000000000000000, 0.0000000000000000000, 1.260000000000000200 ) ) ;
#143 = EDGE_LOOP ( 'NONE', ( #292, #409 ) ) ;
#144 = CIRCLE ( 'NONE', #384, 0.3899999999999997400 ) ;
#145 = TOROIDAL_SURFACE ( 'NONE', #410, 11.88999999999999900, 0.3900000000000000100 ) ;
#146 = CC_DESIGN_SECURITY_CLASSIFICATION ( #97, ( #379 ) ) ;
#147 = AXIS2_PLACEMENT_3D ( 'NONE', #63, #318, #319 ) ;
#148 = SECURITY_CLASSIFICATION_LEVEL ( 'unclassified' ) ;
#149 = DATE_AND_TIME ( #181, #24 ) ;
#150 = FACE_OUTER_BOUND ( 'NONE', #420, .T. ) ;
#151 = ADVANCED_FACE ( 'NONE', ( #159 ), #429, .T. ) ;
#152 = ORIENTED_EDGE ( 'NONE', *, *, #417, .F. ) ;
#153 = CIRCLE ( 'NONE', #117, 19.10999999999999900 ) ;
#154 = VERTEX_POINT ( 'NONE', #442 ) ;
#155 = PRODUCT_DEFINITION ( 'UNKNOWN', '', #379, #223 ) ;
#156 = CARTESIAN_POINT ( 'NONE',  ( -19.50000000000000000, 2.388061258337338900E-015, 1.260000000000000200 ) ) ;
#157 = CARTESIAN_POINT ( 'NONE',  ( 0.0000000000000000000, 0.0000000000000000000, 1.260000000000000200 ) ) ;
#158 = DIRECTION ( 'NONE',  ( -0.0000000000000000000, -0.0000000000000000000, -1.000000000000000000 ) ) ;
#159 = FACE_OUTER_BOUND ( 'NONE', #316, .T. ) ;
#160 = VERTEX_POINT ( 'NONE', #20 ) ;
#161 = CARTESIAN_POINT ( 'NONE',  ( 0.0000000000000000000, 0.0000000000000000000, 1.260000000000000200 ) ) ;
#162 = CC_DESIGN_DATE_AND_TIME_ASSIGNMENT ( #217, #360, ( #97 ) ) ;
#163 = AXIS2_PLACEMENT_3D ( 'NONE', #271, #307, #195 ) ;
#164 = DIRECTION ( 'NONE',  ( -1.000000000000000000, 1.224646799147349500E-016, 0.0000000000000000000 ) ) ;
#165 = APPROVAL_PERSON_ORGANIZATION ( #68, #273, #74 ) ;
#166 = VECTOR ( 'NONE', #84, 1000.000000000000000 ) ;
#167 = DIRECTION ( 'NONE',  ( 0.0000000000000000000, 0.0000000000000000000, 1.000000000000000000 ) ) ;
#168 = ORIENTED_EDGE ( 'NONE', *, *, #259, .F. ) ;
#169 = DIRECTION ( 'NONE',  ( 0.0000000000000000000, 0.0000000000000000000, -1.000000000000000000 ) ) ;
#170 = AXIS2_PLACEMENT_3D ( 'NONE', #447, #252, #351 ) ;
#171 = CARTESIAN_POINT ( 'NONE',  ( 0.0000000000000000000, 0.0000000000000000000, -1.649999999999999900 ) ) ;
#172 = DIRECTION ( 'NONE',  ( 1.000000000000000000, 0.0000000000000000000, 0.0000000000000000000 ) ) ;
#173 = PRODUCT_RELATED_PRODUCT_CATEGORY ( 'detail', '', ( #4 ) ) ;
#174 = LINE ( 'NONE', #448, #76 ) ;
#175 = ORIENTED_EDGE ( 'NONE', *, *, #453, .T. ) ;
#176 = CARTESIAN_POINT ( 'NONE',  ( 0.0000000000000000000, 0.0000000000000000000, 1.649999999999999900 ) ) ;
#177 = AXIS2_PLACEMENT_3D ( 'NONE', #414, #380, #169 ) ;
#178 = CIRCLE ( 'NONE', #266, 19.50000000000000000 ) ;
#179 = FACE_BOUND ( 'NONE', #143, .T. ) ;
#180 = DIRECTION ( 'NONE',  ( 0.0000000000000000000, 0.0000000000000000000, 1.000000000000000000 ) ) ;
#181 = CALENDAR_DATE ( 2024, 1, 3 ) ;
#182 = EDGE_LOOP ( 'NONE', ( #212, #228, #111, #135 ) ) ;
#183 = CIRCLE ( 'NONE', #127, 0.3899999999999999600 ) ;
#184 = AXIS2_PLACEMENT_3D ( 'NONE', #313, #246, #311 ) ;
#185 = ORIENTED_EDGE ( 'NONE', *, *, #324, .F. ) ;
#186 = DIRECTION ( 'NONE',  ( 0.0000000000000000000, 0.0000000000000000000, 1.000000000000000000 ) ) ;
#187 = DIRECTION ( 'NONE',  ( 0.0000000000000000000, 0.0000000000000000000, 1.000000000000000000 ) ) ;
#188 = DIRECTION ( 'NONE',  ( 0.0000000000000000000, 0.0000000000000000000, 1.000000000000000000 ) ) ;
#189 = CARTESIAN_POINT ( 'NONE',  ( 11.88999999999999900, 0.0000000000000000000, 1.649999999999999900 ) ) ;
#190 = DIRECTION ( 'NONE',  ( 1.000000000000000000, 0.0000000000000000000, 0.0000000000000000000 ) ) ;
#191 = PERSON_AND_ORGANIZATION ( #412, #229 ) ;
#192 = CIRCLE ( 'NONE', #261, 19.10999999999999900 ) ;
#193 = AXIS2_PLACEMENT_3D ( 'NONE', #16, #342, #130 ) ;
#194 = CARTESIAN_POINT ( 'NONE',  ( 0.0000000000000000000, 0.0000000000000000000, -1.649999999999999900 ) ) ;
#195 = DIRECTION ( 'NONE',  ( 1.000000000000000000, 0.0000000000000000000, 0.0000000000000000000 ) ) ;
#196 = EDGE_CURVE ( 'NONE', #282, #160, #81, .T. ) ;
#197 = CARTESIAN_POINT ( 'NONE',  ( 0.0000000000000000000, 0.0000000000000000000, -1.260000000000000000 ) ) ;
#198 = ORIENTED_EDGE ( 'NONE', *, *, #202, .F. ) ;
#199 = CIRCLE ( 'NONE', #147, 11.88999999999999900 ) ;
#200 = DIRECTION ( 'NONE',  ( 0.0000000000000000000, 0.0000000000000000000, 1.000000000000000000 ) ) ;
#201 = VERTEX_POINT ( 'NONE', #15 ) ;
#202 = EDGE_CURVE ( 'NONE', #36, #335, #199, .T. ) ;
#203 = DIRECTION ( 'NONE',  ( 0.0000000000000000000, 0.0000000000000000000, 1.000000000000000000 ) ) ;
#204 = DIRECTION ( 'NONE',  ( -1.000000000000000000, 1.224646799147349500E-016, 0.0000000000000000000 ) ) ;
#205 = MANIFOLD_SOLID_BREP ( 'Fillet1', #415 ) ;
#206 = AXIS2_PLACEMENT_3D ( 'NONE', #421, #30, #213 ) ;
#207 = EDGE_LOOP ( 'NONE', ( #19, #396, #25, #267 ) ) ;
#208 = DATE_AND_TIME ( #64, #26 ) ;
#209 = ORIENTED_EDGE ( 'NONE', *, *, #328, .T. ) ;
#210 = CC_DESIGN_PERSON_AND_ORGANIZATION_ASSIGNMENT ( #344, #296, ( #379 ) ) ;
#211 = COORDINATED_UNIVERSAL_TIME_OFFSET ( 6, 0, .BEHIND. ) ;
#212 = ORIENTED_EDGE ( 'NONE', *, *, #67, .F. ) ;
#213 = DIRECTION ( 'NONE',  ( 1.000000000000000000, 0.0000000000000000000, 0.0000000000000000000 ) ) ;
#214 = AXIS2_PLACEMENT_3D ( 'NONE', #161, #232, #235 ) ;
#215 = CARTESIAN_POINT ( 'NONE',  ( -11.88999999999999900, 1.456105044186203000E-015, 1.260000000000000200 ) ) ;
#216 = DIRECTION ( 'NONE',  ( 1.000000000000000000, 0.0000000000000000000, 0.0000000000000000000 ) ) ;
#217 = DATE_AND_TIME ( #314, #353 ) ;
#218 = ORIENTED_EDGE ( 'NONE', *, *, #114, .T. ) ;
#219 = COORDINATED_UNIVERSAL_TIME_OFFSET ( 6, 0, .BEHIND. ) ;
#220 = ORIENTED_EDGE ( 'NONE', *, *, #78, .T. ) ;
#221 = ADVANCED_FACE ( 'NONE', ( #433 ), #355, .T. ) ;
#222 = AXIS2_PLACEMENT_3D ( 'NONE', #435, #233, #9 ) ;
#223 = DESIGN_CONTEXT ( 'detailed design', #248, 'design' ) ;
#224 = EDGE_CURVE ( 'NONE', #374, #58, #86, .T. ) ;
#225 = FACE_OUTER_BOUND ( 'NONE', #354, .T. ) ;
#226 = CARTESIAN_POINT ( 'NONE',  ( 0.0000000000000000000, 0.0000000000000000000, -1.260000000000000000 ) ) ;
#227 = CARTESIAN_POINT ( 'NONE',  ( 0.0000000000000000000, 0.0000000000000000000, -1.260000000000000000 ) ) ;
#228 = ORIENTED_EDGE ( 'NONE', *, *, #100, .T. ) ;
#229 = ORGANIZATION ( 'UNSPECIFIED', 'UNSPECIFIED', '' ) ;
#230 = AXIS2_PLACEMENT_3D ( 'NONE', #226, #180, #457 ) ;
#231 = ORIENTED_EDGE ( 'NONE', *, *, #312, .T. ) ;
#232 = DIRECTION ( 'NONE',  ( 0.0000000000000000000, 0.0000000000000000000, 1.000000000000000000 ) ) ;
#233 = DIRECTION ( 'NONE',  ( 0.0000000000000000000, 0.0000000000000000000, 1.000000000000000000 ) ) ;
#234 = CARTESIAN_POINT ( 'NONE',  ( 0.0000000000000000000, 0.0000000000000000000, 1.649999999999999900 ) ) ;
#235 = DIRECTION ( 'NONE',  ( 1.000000000000000000, 0.0000000000000000000, 0.0000000000000000000 ) ) ;
#236 = DIRECTION ( 'NONE',  ( 0.0000000000000000000, 0.0000000000000000000, 1.000000000000000000 ) ) ;
#237 = ORIENTED_EDGE ( 'NONE', *, *, #18, .T. ) ;
#238 = DIRECTION ( 'NONE',  ( 0.0000000000000000000, 0.0000000000000000000, -1.000000000000000000 ) ) ;
#239 = DIRECTION ( 'NONE',  ( 0.0000000000000000000, 0.0000000000000000000, 1.000000000000000000 ) ) ;
#240 = PLANE ( 'NONE',  #443 ) ;
#241 = DIRECTION ( 'NONE',  ( 0.0000000000000000000, -1.000000000000000000, 0.0000000000000000000 ) ) ;
#242 = AXIS2_PLACEMENT_3D ( 'NONE', #452, #34, #293 ) ;
#243 = DIRECTION ( 'NONE',  ( 1.000000000000000000, 0.0000000000000000000, -0.0000000000000000000 ) ) ;
#244 = CARTESIAN_POINT ( 'NONE',  ( 19.50000000000000000, 0.0000000000000000000, -1.649999999999999900 ) ) ;
#245 = CIRCLE ( 'NONE', #294, 11.88999999999999900 ) ;
#246 = DIRECTION ( 'NONE',  ( 0.0000000000000000000, 0.0000000000000000000, 1.000000000000000000 ) ) ;
#247 = CIRCLE ( 'NONE', #163, 11.50000000000000000 ) ;
#248 = APPLICATION_CONTEXT ( 'configuration controlled 3d designs of mechanical parts and assemblies' ) ;
#249 = EDGE_CURVE ( 'NONE', #325, #260, #348, .T. ) ;
#250 = CC_DESIGN_APPROVAL ( #14, ( #155 ) ) ;
#251 = FACE_OUTER_BOUND ( 'NONE', #123, .T. ) ;
#252 = DIRECTION ( 'NONE',  ( -0.0000000000000000000, -0.0000000000000000000, -1.000000000000000000 ) ) ;
#253 = EDGE_CURVE ( 'NONE', #260, #325, #315, .T. ) ;
#254 = CARTESIAN_POINT ( 'NONE',  ( -11.88999999999999900, 1.456105044186203000E-015, -1.649999999999999900 ) ) ;
#255 = CC_DESIGN_APPROVAL ( #299, ( #97 ) ) ;
#256 = DIRECTION ( 'NONE',  ( -0.0000000000000000000, -0.0000000000000000000, -1.000000000000000000 ) ) ;
#257 = ORIENTED_EDGE ( 'NONE', *, *, #224, .F. ) ;
#258 = CIRCLE ( 'NONE', #242, 0.3899999999999997400 ) ;
#259 = EDGE_CURVE ( 'NONE', #335, #36, #10, .T. ) ;
#260 = VERTEX_POINT ( 'NONE', #142 ) ;
#261 = AXIS2_PLACEMENT_3D ( 'NONE', #57, #23, #277 ) ;
#262 = PERSON_AND_ORGANIZATION_ROLE ( 'design_supplier' ) ;
#263 = CIRCLE ( 'NONE', #449, 19.10999999999999900 ) ;
#264 = CARTESIAN_POINT ( 'NONE',  ( 0.0000000000000000000, 0.0000000000000000000, -1.649999999999999900 ) ) ;
#265 = LOCAL_TIME ( 14, 11, 48.00000000000000000, #211 ) ;
#266 = AXIS2_PLACEMENT_3D ( 'NONE', #227, #413, #172 ) ;
#267 = ORIENTED_EDGE ( 'NONE', *, *, #196, .F. ) ;
#268 = FACE_OUTER_BOUND ( 'NONE', #92, .T. ) ;
#269 = CARTESIAN_POINT ( 'NONE',  ( 11.50000000000000000, 0.0000000000000000000, 1.260000000000000200 ) ) ;
#270 = CARTESIAN_POINT ( 'NONE',  ( 0.0000000000000000000, 0.0000000000000000000, 0.0000000000000000000 ) ) ;
#271 = CARTESIAN_POINT ( 'NONE',  ( 0.0000000000000000000, 0.0000000000000000000, 1.260000000000000200 ) ) ;
#272 = TOROIDAL_SURFACE ( 'NONE', #332, 11.88999999999999900, 0.3900000000000000100 ) ;
#273 = APPROVAL ( #376, 'UNSPECIFIED' ) ;
#274 = ORIENTED_EDGE ( 'NONE', *, *, #253, .F. ) ;
#275 = APPROVAL_ROLE ( '' ) ;
#276 = EDGE_CURVE ( 'NONE', #357, #282, #258, .T. ) ;
#277 = DIRECTION ( 'NONE',  ( 1.000000000000000000, 0.0000000000000000000, 0.0000000000000000000 ) ) ;
#278 = DIRECTION ( 'NONE',  ( 0.0000000000000000000, 0.0000000000000000000, -1.000000000000000000 ) ) ;
#279 = COORDINATED_UNIVERSAL_TIME_OFFSET ( 6, 0, .BEHIND. ) ;
#280 = EDGE_LOOP ( 'NONE', ( #72, #362 ) ) ;
#281 = TOROIDAL_SURFACE ( 'NONE', #222, 11.88999999999999900, 0.3900000000000000100 ) ;
#282 = VERTEX_POINT ( 'NONE', #254 ) ;
#283 = CARTESIAN_POINT ( 'NONE',  ( 0.0000000000000000000, 0.0000000000000000000, 1.649999999999999900 ) ) ;
#284 = AXIS2_PLACEMENT_3D ( 'NONE', #194, #239, #190 ) ;
#285 = APPROVAL_ROLE ( '' ) ;
#286 = CIRCLE ( 'NONE', #356, 0.3899999999999999600 ) ;
#287 = CIRCLE ( 'NONE', #177, 0.3899999999999999600 ) ;
#288 = PRODUCT_DEFINITION_SHAPE ( 'NONE', 'NONE',  #155 ) ;
#289 = APPROVAL_DATE_TIME ( #320, #273 ) ;
#290 = ORIENTED_EDGE ( 'NONE', *, *, #35, .F. ) ;
#291 = CIRCLE ( 'NONE', #230, 19.50000000000000000 ) ;
#292 = ORIENTED_EDGE ( 'NONE', *, *, #202, .T. ) ;
#293 = DIRECTION ( 'NONE',  ( -1.000000000000000000, 1.224646799147354700E-016, 0.0000000000000000000 ) ) ;
#294 = AXIS2_PLACEMENT_3D ( 'NONE', #12, #440, #48 ) ;
#295 = CARTESIAN_POINT ( 'NONE',  ( 0.0000000000000000000, 0.0000000000000000000, -1.649999999999999900 ) ) ;
#296 = PERSON_AND_ORGANIZATION_ROLE ( 'creator' ) ;
#297 = APPROVAL_DATE_TIME ( #208, #14 ) ;
#298 = CIRCLE ( 'NONE', #124, 0.3900000000000014600 ) ;
#299 = APPROVAL ( #85, 'UNSPECIFIED' ) ;
#300 = AXIS2_PLACEMENT_3D ( 'NONE', #346, #61, #243 ) ;
#301 = ADVANCED_FACE ( 'NONE', ( #268 ), #388, .F. ) ;
#302 = PERSON_AND_ORGANIZATION ( #412, #229 ) ;
#303 = AXIS2_PLACEMENT_3D ( 'NONE', #264, #186, #41 ) ;
#304 = ORIENTED_EDGE ( 'NONE', *, *, #417, .T. ) ;
#305 = ORIENTED_EDGE ( 'NONE', *, *, #134, .T. ) ;
#306 = DIRECTION ( 'NONE',  ( 1.000000000000000000, 0.0000000000000000000, 0.0000000000000000000 ) ) ;
#307 = DIRECTION ( 'NONE',  ( 0.0000000000000000000, 0.0000000000000000000, 1.000000000000000000 ) ) ;
#308 = CARTESIAN_POINT ( 'NONE',  ( 0.0000000000000000000, 0.0000000000000000000, -1.649999999999999900 ) ) ;
#309 = CARTESIAN_POINT ( 'NONE',  ( -11.50000000000000000, 1.408343819019456200E-015, -1.649999999999999900 ) ) ;
#310 = ORIENTED_EDGE ( 'NONE', *, *, #29, .T. ) ;
#311 = DIRECTION ( 'NONE',  ( 1.000000000000000000, 0.0000000000000000000, 0.0000000000000000000 ) ) ;
#312 = EDGE_CURVE ( 'NONE', #326, #347, #178, .T. ) ;
#313 = CARTESIAN_POINT ( 'NONE',  ( 0.0000000000000000000, 0.0000000000000000000, 1.260000000000000200 ) ) ;
#314 = CALENDAR_DATE ( 2024, 1, 3 ) ;
#315 = CIRCLE ( 'NONE', #391, 19.50000000000000000 ) ;
#316 = EDGE_LOOP ( 'NONE', ( #82, #257, #113, #105 ) ) ;
#317 = CC_DESIGN_PERSON_AND_ORGANIZATION_ASSIGNMENT ( #191, #62, ( #155 ) ) ;
#318 = DIRECTION ( 'NONE',  ( -0.0000000000000000000, -0.0000000000000000000, -1.000000000000000000 ) ) ;
#319 = DIRECTION ( 'NONE',  ( 1.000000000000000000, 0.0000000000000000000, 0.0000000000000000000 ) ) ;
#320 = DATE_AND_TIME ( #133, #265 ) ;
#321 = ORIENTED_EDGE ( 'NONE', *, *, #104, .T. ) ;
#322 = EDGE_CURVE ( 'NONE', #154, #52, #153, .T. ) ;
#323 = DIRECTION ( 'NONE',  ( 0.0000000000000000000, 0.0000000000000000000, 1.000000000000000000 ) ) ;
#324 = EDGE_CURVE ( 'NONE', #160, #282, #245, .T. ) ;
#325 = VERTEX_POINT ( 'NONE', #156 ) ;
#326 = VERTEX_POINT ( 'NONE', #54 ) ;
#327 = ADVANCED_FACE ( 'NONE', ( #368 ), #272, .T. ) ;
#328 = EDGE_CURVE ( 'NONE', #357, #434, #93, .T. ) ;
#329 = ADVANCED_FACE ( 'NONE', ( #454 ), #70, .T. ) ;
#330 = ORIENTED_EDGE ( 'NONE', *, *, #324, .T. ) ;
#331 = ADVANCED_FACE ( 'NONE', ( #106 ), #281, .T. ) ;
#332 = AXIS2_PLACEMENT_3D ( 'NONE', #438, #188, #336 ) ;
#333 = ORIENTED_EDGE ( 'NONE', *, *, #122, .F. ) ;
#334 = VECTOR ( 'NONE', #167, 1000.000000000000000 ) ;
#335 = VERTEX_POINT ( 'NONE', #51 ) ;
#336 = DIRECTION ( 'NONE',  ( 1.000000000000000000, 0.0000000000000000000, 0.0000000000000000000 ) ) ;
#337 = CARTESIAN_POINT ( 'NONE',  ( 19.10999999999999900, 0.0000000000000000000, -1.649999999999999900 ) ) ;
#338 = TOROIDAL_SURFACE ( 'NONE', #6, 11.88999999999999900, 0.3900000000000000100 ) ;
#339 = FACE_OUTER_BOUND ( 'NONE', #437, .T. ) ;
#340 = AXIS2_PLACEMENT_3D ( 'NONE', #128, #241, #278 ) ;
#341 = CARTESIAN_POINT ( 'NONE',  ( 19.10999999999999900, 0.0000000000000000000, -1.260000000000000000 ) ) ;
#342 = DIRECTION ( 'NONE',  ( 0.0000000000000000000, 0.0000000000000000000, 1.000000000000000000 ) ) ;
#343 = DIRECTION ( 'NONE',  ( 0.0000000000000000000, 0.0000000000000000000, 1.000000000000000000 ) ) ;
#344 = PERSON_AND_ORGANIZATION ( #412, #229 ) ;
#345 = ORIENTED_EDGE ( 'NONE', *, *, #140, .F. ) ;
#346 = CARTESIAN_POINT ( 'NONE',  ( 0.0000000000000000000, 0.0000000000000000000, -1.649999999999999900 ) ) ;
#347 = VERTEX_POINT ( 'NONE', #56 ) ;
#348 = CIRCLE ( 'NONE', #170, 19.50000000000000000 ) ;
#349 = ORIENTED_EDGE ( 'NONE', *, *, #196, .T. ) ;
#350 = DIRECTION ( 'NONE',  ( -0.0000000000000000000, -0.0000000000000000000, -1.000000000000000000 ) ) ;
#351 = DIRECTION ( 'NONE',  ( 1.000000000000000000, 0.0000000000000000000, 0.0000000000000000000 ) ) ;
#352 = DIRECTION ( 'NONE',  ( 1.224646799147353200E-016, 1.000000000000000000, -0.0000000000000000000 ) ) ;
#353 = LOCAL_TIME ( 14, 11, 48.00000000000000000, #424 ) ;
#354 = EDGE_LOOP ( 'NONE', ( #399, #392, #406, #345 ) ) ;
#355 = TOROIDAL_SURFACE ( 'NONE', #436, 19.10999999999999900, 0.3900000000000000100 ) ;
#356 = AXIS2_PLACEMENT_3D ( 'NONE', #365, #363, #119 ) ;
#357 = VERTEX_POINT ( 'NONE', #372 ) ;
#358 = ADVANCED_FACE ( 'NONE', ( #59 ), #338, .T. ) ;
#359 = EDGE_CURVE ( 'NONE', #201, #160, #286, .T. ) ;
#360 = DATE_TIME_ROLE ( 'classification_date' ) ;
#361 = SHAPE_DEFINITION_REPRESENTATION ( #288, #71 ) ;
#362 = ORIENTED_EDGE ( 'NONE', *, *, #67, .T. ) ;
#363 = DIRECTION ( 'NONE',  ( 0.0000000000000000000, -1.000000000000000000, 0.0000000000000000000 ) ) ;
#364 = EDGE_CURVE ( 'NONE', #347, #326, #291, .T. ) ;
#365 = CARTESIAN_POINT ( 'NONE',  ( 11.88999999999999900, 0.0000000000000000000, -1.260000000000000000 ) ) ;
#366 = APPROVAL_PERSON_ORGANIZATION ( #109, #299, #275 ) ;
#367 = ORIENTED_EDGE ( 'NONE', *, *, #328, .F. ) ;
#368 = FACE_OUTER_BOUND ( 'NONE', #95, .T. ) ;
#369 =( NAMED_UNIT ( * ) SI_UNIT ( $, .STERADIAN. ) SOLID_ANGLE_UNIT ( ) );
#370 = DIRECTION ( 'NONE',  ( 1.000000000000000000, 0.0000000000000000000, 0.0000000000000000000 ) ) ;
#371 = AXIS2_PLACEMENT_3D ( 'NONE', #55, #96, #164 ) ;
#372 = CARTESIAN_POINT ( 'NONE',  ( -11.50000000000000000, 1.408343819019456200E-015, -1.260000000000000000 ) ) ;
#373 = LOCAL_TIME ( 14, 11, 48.00000000000000000, #99 ) ;
#374 = VERTEX_POINT ( 'NONE', #337 ) ;
#375 = CARTESIAN_POINT ( 'NONE',  ( 0.0000000000000000000, 0.0000000000000000000, -1.260000000000000000 ) ) ;
#376 = APPROVAL_STATUS ( 'not_yet_approved' ) ;
#377 = DIRECTION ( 'NONE',  ( 1.000000000000000000, 0.0000000000000000000, 0.0000000000000000000 ) ) ;
#378 = DIRECTION ( 'NONE',  ( 1.000000000000000000, 0.0000000000000000000, 0.0000000000000000000 ) ) ;
#379 = PRODUCT_DEFINITION_FORMATION_WITH_SPECIFIED_SOURCE ( 'ANY', '', #4, .NOT_KNOWN. ) ;
#380 = DIRECTION ( 'NONE',  ( 0.0000000000000000000, -1.000000000000000000, 0.0000000000000000000 ) ) ;
#381 = CYLINDRICAL_SURFACE ( 'NONE', #206, 11.50000000000000000 ) ;
#382 = ORIENTED_EDGE ( 'NONE', *, *, #364, .T. ) ;
#383 = DIRECTION ( 'NONE',  ( 1.000000000000000000, 0.0000000000000000000, -0.0000000000000000000 ) ) ;
#384 = AXIS2_PLACEMENT_3D ( 'NONE', #215, #352, #141 ) ;
#385 = DIRECTION ( 'NONE',  ( -0.0000000000000000000, -0.0000000000000000000, -1.000000000000000000 ) ) ;
#386 = DIRECTION ( 'NONE',  ( -0.0000000000000000000, -0.0000000000000000000, -1.000000000000000000 ) ) ;
#387 = DATE_AND_TIME ( #31, #373 ) ;
#388 = CYLINDRICAL_SURFACE ( 'NONE', #91, 11.50000000000000000 ) ;
#389 = CIRCLE ( 'NONE', #214, 11.50000000000000000 ) ;
#390 = APPROVAL_DATE_TIME ( #149, #299 ) ;
#391 = AXIS2_PLACEMENT_3D ( 'NONE', #107, #256, #73 ) ;
#392 = ORIENTED_EDGE ( 'NONE', *, *, #122, .T. ) ;
#393 = ORIENTED_EDGE ( 'NONE', *, *, #439, .F. ) ;
#394 = ORIENTED_EDGE ( 'NONE', *, *, #35, .T. ) ;
#395 = DIRECTION ( 'NONE',  ( 1.000000000000000000, 0.0000000000000000000, 0.0000000000000000000 ) ) ;
#396 = ORIENTED_EDGE ( 'NONE', *, *, #134, .F. ) ;
#397 = CYLINDRICAL_SURFACE ( 'NONE', #303, 19.50000000000000000 ) ;
#398 = AXIS2_PLACEMENT_3D ( 'NONE', #375, #158, #408 ) ;
#399 = ORIENTED_EDGE ( 'NONE', *, *, #249, .F. ) ;
#400 = ADVANCED_FACE ( 'NONE', ( #3 ), #397, .T. ) ;
#401 = ADVANCED_FACE ( 'NONE', ( #427 ), #381, .F. ) ;
#402 = EDGE_LOOP ( 'NONE', ( #231, #218, #426, #455 ) ) ;
#403 = CC_DESIGN_APPROVAL ( #273, ( #379 ) ) ;
#404 =( GEOMETRIC_REPRESENTATION_CONTEXT ( 3 ) GLOBAL_UNCERTAINTY_ASSIGNED_CONTEXT ( ( #102 ) ) GLOBAL_UNIT_ASSIGNED_CONTEXT ( ( #118, #407, #369 ) ) REPRESENTATION_CONTEXT ( 'NONE', 'WORKASPACE' ) );
#405 = APPROVAL_PERSON_ORGANIZATION ( #37, #14, #285 ) ;
#406 = ORIENTED_EDGE ( 'NONE', *, *, #322, .F. ) ;
#407 =( NAMED_UNIT ( * ) PLANE_ANGLE_UNIT ( ) SI_UNIT ( $, .RADIAN. ) );
#408 = DIRECTION ( 'NONE',  ( 1.000000000000000000, 0.0000000000000000000, 0.0000000000000000000 ) ) ;
#409 = ORIENTED_EDGE ( 'NONE', *, *, #259, .T. ) ;
#410 = AXIS2_PLACEMENT_3D ( 'NONE', #88, #187, #125 ) ;
#411 = CARTESIAN_POINT ( 'NONE',  ( -19.50000000000000000, 2.388061258337338900E-015, -1.649999999999999900 ) ) ;
#412 = PERSON ( 'UNSPECIFIED', 'UNSPECIFIED', 'UNSPECIFIED', ('UNSPECIFIED'), ('UNSPECIFIED'), ('UNSPECIFIED') ) ;
#413 = DIRECTION ( 'NONE',  ( 0.0000000000000000000, 0.0000000000000000000, 1.000000000000000000 ) ) ;
#414 = CARTESIAN_POINT ( 'NONE',  ( 11.88999999999999900, 0.0000000000000000000, 1.260000000000000200 ) ) ;
#415 = CLOSED_SHELL ( 'NONE', ( #39, #40, #327, #221, #301, #329, #400, #79, #401, #115, #151, #331, #358, #110 ) ) ;
#416 = FACE_OUTER_BOUND ( 'NONE', #280, .T. ) ;
#417 = EDGE_CURVE ( 'NONE', #335, #434, #144, .T. ) ;
#418 = DIRECTION ( 'NONE',  ( 1.000000000000000000, 0.0000000000000000000, 0.0000000000000000000 ) ) ;
#419 = DIRECTION ( 'NONE',  ( 1.000000000000000000, 0.0000000000000000000, 0.0000000000000000000 ) ) ;
#420 = EDGE_LOOP ( 'NONE', ( #42, #321 ) ) ;
#421 = CARTESIAN_POINT ( 'NONE',  ( 0.0000000000000000000, 0.0000000000000000000, -1.649999999999999900 ) ) ;
#422 = CARTESIAN_POINT ( 'NONE',  ( -11.50000000000000000, 1.408343819019456200E-015, 1.260000000000000200 ) ) ;
#423 = DIRECTION ( 'NONE',  ( -0.0000000000000000000, -0.0000000000000000000, -1.000000000000000000 ) ) ;
#424 = COORDINATED_UNIVERSAL_TIME_OFFSET ( 6, 0, .BEHIND. ) ;
#425 = AXIS2_PLACEMENT_3D ( 'NONE', #270, #49, #306 ) ;
#426 = ORIENTED_EDGE ( 'NONE', *, *, #249, .T. ) ;
#427 = FACE_OUTER_BOUND ( 'NONE', #5, .T. ) ;
#428 = ORIENTED_EDGE ( 'NONE', *, *, #439, .T. ) ;
#429 = TOROIDAL_SURFACE ( 'NONE', #66, 19.10999999999999900, 0.3900000000000000100 ) ;
#430 = CIRCLE ( 'NONE', #398, 11.50000000000000000 ) ;
#431 = APPLICATION_CONTEXT ( 'configuration controlled 3d designs of mechanical parts and assemblies' ) ;
#432 = EDGE_CURVE ( 'NONE', #374, #326, #183, .T. ) ;
#433 = FACE_OUTER_BOUND ( 'NONE', #182, .T. ) ;
#434 = VERTEX_POINT ( 'NONE', #422 ) ;
#435 = CARTESIAN_POINT ( 'NONE',  ( 0.0000000000000000000, 0.0000000000000000000, -1.260000000000000000 ) ) ;
#436 = AXIS2_PLACEMENT_3D ( 'NONE', #197, #103, #419 ) ;
#437 = EDGE_LOOP ( 'NONE', ( #168, #304, #290, #80 ) ) ;
#438 = CARTESIAN_POINT ( 'NONE',  ( 0.0000000000000000000, 0.0000000000000000000, -1.260000000000000000 ) ) ;
#439 = EDGE_CURVE ( 'NONE', #201, #77, #174, .T. ) ;
#440 = DIRECTION ( 'NONE',  ( 0.0000000000000000000, 0.0000000000000000000, 1.000000000000000000 ) ) ;
#441 = LINE ( 'NONE', #244, #334 ) ;
#442 = CARTESIAN_POINT ( 'NONE',  ( 19.10999999999999900, 0.0000000000000000000, 1.649999999999999900 ) ) ;
#443 = AXIS2_PLACEMENT_3D ( 'NONE', #283, #131, #383 ) ;
#444 = DIRECTION ( 'NONE',  ( 1.000000000000000000, 0.0000000000000000000, 0.0000000000000000000 ) ) ;
#445 = PERSON_AND_ORGANIZATION_ROLE ( 'design_owner' ) ;
#446 = VECTOR ( 'NONE', #200, 1000.000000000000000 ) ;
#447 = CARTESIAN_POINT ( 'NONE',  ( 0.0000000000000000000, 0.0000000000000000000, 1.260000000000000200 ) ) ;
#448 = CARTESIAN_POINT ( 'NONE',  ( 11.50000000000000000, 0.0000000000000000000, -1.649999999999999900 ) ) ;
#449 = AXIS2_PLACEMENT_3D ( 'NONE', #308, #386, #444 ) ;
#450 = PERSON_AND_ORGANIZATION ( #412, #229 ) ;
#451 = ORIENTED_EDGE ( 'NONE', *, *, #29, .F. ) ;
#452 = CARTESIAN_POINT ( 'NONE',  ( -11.88999999999999900, 1.456105044186203000E-015, -1.260000000000000000 ) ) ;
#453 = EDGE_CURVE ( 'NONE', #326, #260, #441, .T. ) ;
#454 = FACE_OUTER_BOUND ( 'NONE', #402, .T. ) ;
#455 = ORIENTED_EDGE ( 'NONE', *, *, #453, .F. ) ;
#456 = PERSON_AND_ORGANIZATION_ROLE ( 'classification_officer' ) ;
#457 = DIRECTION ( 'NONE',  ( 1.000000000000000000, 0.0000000000000000000, 0.0000000000000000000 ) ) ;
ENDSEC;
END-ISO-10303-21;
