ISO-10303-21;
HEADER;
FILE_DESCRIPTION (( 'STEP AP203' ),
    '1' );
FILE_NAME ('91290A326_NO THREADS_Alloy Steel Socket Head Screw.STEP',
    '2023-01-11T17:13:42',
    ( 'Administrator' ),
    ( 'Managed by Terraform' ),
    'SwSTEP 2.0',
    'SolidWorks 2017',
    '' );
FILE_SCHEMA (( 'CONFIG_CONTROL_DESIGN' ));
ENDSEC;

DATA;
#1 = DIRECTION ( 'NONE',  ( 0.0000000000000000000, -1.000000000000000000, -4.985965658352847400E-057 ) ) ;
#2 = CIRCLE ( 'NONE', #632, 5.000000000000000000 ) ;
#3 = DIRECTION ( 'NONE',  ( -0.0000000000000000000, 4.985965658352847400E-057, -1.000000000000000000 ) ) ;
#4 = EDGE_LOOP ( 'NONE', ( #108, #526, #72, #35, #217 ) ) ;
#5 = DIRECTION ( 'NONE',  ( -0.0000000000000000000, 4.985965658352847400E-057, -1.000000000000000000 ) ) ;
#6 = ORIENTED_EDGE ( 'NONE', *, *, #764, .F. ) ;
#7 = ORIENTED_EDGE ( 'NONE', *, *, #207, .F. ) ;
#8 = CARTESIAN_POINT ( 'NONE',  ( -2.500000000000000000, 1.443375672974063900, 12.78349364905387000 ) ) ;
#9 = VECTOR ( 'NONE', #585, 1000.000000000000000 ) ;
#10 = EDGE_CURVE ( 'NONE', #195, #445, #347, .T. ) ;
#11 = CARTESIAN_POINT ( 'NONE',  ( -2.500000000000000000, -1.443375672974065200, -0.6376261582597530000 ) ) ;
#12 = CARTESIAN_POINT ( 'NONE',  ( 0.0000000000000000000, 1.263966274252762400E-055, -12.35048094716169100 ) ) ;
#13 = VERTEX_POINT ( 'NONE', #162 ) ;
#14 = CARTESIAN_POINT ( 'NONE',  ( 2.500000000000000000, -1.443375672974064800, 12.78349364905387000 ) ) ;
#15 = CARTESIAN_POINT ( 'NONE',  ( 0.0000000000000000000, 5.842065583374376100E-113, 12.99999999999997900 ) ) ;
#16 = CARTESIAN_POINT ( 'NONE',  ( -2.500000000000000000, -0.9839169155414040400, 12.57346674265850700 ) ) ;
#17 = CONICAL_SURFACE ( 'NONE', #567, 5.000000000000000000, 0.7853981633974453900 ) ;
#18 = CARTESIAN_POINT ( 'NONE',  ( 0.0000000000000000000, 1.296351071171740300E-055, -13.00000000000002100 ) ) ;
#19 = ORIENTED_EDGE ( 'NONE', *, *, #493, .T. ) ;
#20 = DIRECTION ( 'NONE',  ( 0.8660254037844386000, -0.5000000000000001100, 0.0000000000000000000 ) ) ;
#21 = ORIENTED_EDGE ( 'NONE', *, *, #693, .T. ) ;
#22 = VERTEX_POINT ( 'NONE', #225 ) ;
#23 = CARTESIAN_POINT ( 'NONE',  ( 0.0000000000000000000, 5.000000000000000000, 12.69999999999997800 ) ) ;
#24 = CARTESIAN_POINT ( 'NONE',  ( 6.875397087013434300E-016, -2.886751345948130400, 12.78349364905387200 ) ) ;
#25 = CARTESIAN_POINT ( 'NONE',  ( -8.673617379884035500E-016, 2.886751345948128700, 7.999999999999979600 ) ) ;
#26 = CALENDAR_DATE ( 2023, 11, 1 ) ;
#27 = EDGE_CURVE ( 'NONE', #84, #658, #298, .T. ) ;
#28 = LINE ( 'NONE', #337, #147 ) ;
#29 = CARTESIAN_POINT ( 'NONE',  ( 0.0000000000000000000, 4.700000000000000200, 7.999999999999979600 ) ) ;
#30 = DIRECTION ( 'NONE',  ( -0.0000000000000000000, 4.985965658352847400E-057, -1.000000000000000000 ) ) ;
#31 = CARTESIAN_POINT ( 'NONE',  ( -2.500000000000000000, 3.061069118652548300E-016, 12.39674230310574300 ) ) ;
#32 = DIRECTION ( 'NONE',  ( 0.0000000000000000000, 1.000000000000000000, 0.0000000000000000000 ) ) ;
#33 = DIRECTION ( 'NONE',  ( 0.7071067811865487900, 0.0000000000000000000, 0.7071067811865463500 ) ) ;
#34 = EDGE_CURVE ( 'NONE', #475, #127, #359, .T. ) ;
#35 = ORIENTED_EDGE ( 'NONE', *, *, #737, .F. ) ;
#36 = DIRECTION ( 'NONE',  ( 0.0000000000000000000, 1.000000000000000000, 0.0000000000000000000 ) ) ;
#37 = CARTESIAN_POINT ( 'NONE',  ( -2.500000000000000000, 1.443375672974063900, 12.78349364905387000 ) ) ;
#38 = ORIENTED_EDGE ( 'NONE', *, *, #53, .T. ) ;
#39 = CARTESIAN_POINT ( 'NONE',  ( 0.0000000000000000000, 1.296351071171740300E-055, -13.00000000000002100 ) ) ;
#40 = COORDINATED_UNIVERSAL_TIME_OFFSET ( 6, 0, .BEHIND. ) ;
#41 = DIRECTION ( 'NONE',  ( 0.0000000000000000000, -4.985965658352847400E-057, 1.000000000000000000 ) ) ;
#42 = LINE ( 'NONE', #23, #129 ) ;
#43 = FACE_OUTER_BOUND ( 'NONE', #401, .T. ) ;
#44 = ADVANCED_FACE ( 'NONE', ( #496 ), #451, .T. ) ;
#45 = DIRECTION ( 'NONE',  ( -0.0000000000000000000, 4.985965658352847400E-057, -1.000000000000000000 ) ) ;
#46 = ORIENTED_EDGE ( 'NONE', *, *, #466, .F. ) ;
#47 = EDGE_LOOP ( 'NONE', ( #636, #252, #455, #251 ) ) ;
#48 = ORIENTED_EDGE ( 'NONE', *, *, #323, .T. ) ;
#49 = AXIS2_PLACEMENT_3D ( 'NONE', #516, #744, #634 ) ;
#50 = MECHANICAL_CONTEXT ( 'NONE', #711, 'mechanical' ) ;
#51 = CIRCLE ( 'NONE', #370, 3.000000000000000000 ) ;
#52 = B_SPLINE_CURVE_WITH_KNOTS ( 'NONE', 3,
 ( #104, #574, #766, #93, #514, #756, #408, #465, #213, #88, #621, #24 ),
 .UNSPECIFIED., .F., .F.,
 ( 4, 2, 2, 2, 2, 4 ),
 ( 2.544340436255830500E-007, 0.0007457281437449392100, 0.001118464998595596000, 0.001491201853446252400, 0.002236675563147565900, 0.002982149272848879300 ),
 .UNSPECIFIED. ) ;
#53 = EDGE_CURVE ( 'NONE', #423, #580, #454, .T. ) ;
#54 = DATE_TIME_ROLE ( 'classification_date' ) ;
#55 = ORIENTED_EDGE ( 'NONE', *, *, #410, .F. ) ;
#56 = AXIS2_PLACEMENT_3D ( 'NONE', #286, #640, #761 ) ;
#57 = VERTEX_POINT ( 'NONE', #623 ) ;
#58 = TOROIDAL_SURFACE ( 'NONE', #747, 3.299999999999999400, 0.2999999999999994900 ) ;
#59 = FACE_BOUND ( 'NONE', #490, .T. ) ;
#60 = CARTESIAN_POINT ( 'NONE',  ( -2.303518737899374000, 1.556814182538577700, 12.67005513948900800 ) ) ;
#61 = EDGE_CURVE ( 'NONE', #57, #703, #604, .T. ) ;
#62 = CARTESIAN_POINT ( 'NONE',  ( 6.875397087013434300E-016, -2.886751345948130400, 12.78349364905387200 ) ) ;
#63 = ORIENTED_EDGE ( 'NONE', *, *, #207, .T. ) ;
#64 = ORIENTED_EDGE ( 'NONE', *, *, #27, .F. ) ;
#65 = DIRECTION ( 'NONE',  ( 0.0000000000000000000, 1.000000000000000000, 4.985965658352847400E-057 ) ) ;
#66 = PERSON_AND_ORGANIZATION ( #464, #426 ) ;
#67 = CARTESIAN_POINT ( 'NONE',  ( -0.8106343009612316800, 2.418731414073817600, 12.44474999950265100 ) ) ;
#68 = VECTOR ( 'NONE', #350, 1000.000000000000000 ) ;
#69 = AXIS2_PLACEMENT_3D ( 'NONE', #746, #89, #627 ) ;
#70 = DIRECTION ( 'NONE',  ( 1.000000000000000000, 1.224646799147353200E-016, 6.106046884160440300E-073 ) ) ;
#71 = DIRECTION ( 'NONE',  ( -0.0000000000000000000, 4.985965658352847400E-057, -1.000000000000000000 ) ) ;
#72 = ORIENTED_EDGE ( 'NONE', *, *, #283, .T. ) ;
#73 = CC_DESIGN_PERSON_AND_ORGANIZATION_ASSIGNMENT ( #66, #303, ( #381 ) ) ;
#74 = AXIS2_PLACEMENT_3D ( 'NONE', #686, #158, #530 ) ;
#75 = EDGE_CURVE ( 'NONE', #564, #307, #683, .T. ) ;
#76 = DIRECTION ( 'NONE',  ( -0.0000000000000000000, 4.985965658352847400E-057, -1.000000000000000000 ) ) ;
#77 = FACE_OUTER_BOUND ( 'NONE', #241, .T. ) ;
#78 = FACE_OUTER_BOUND ( 'NONE', #591, .T. ) ;
#79 = CARTESIAN_POINT ( 'NONE',  ( 0.0000000000000000000, -4.700000000000000200, 6.999999999999978700 ) ) ;
#80 = CARTESIAN_POINT ( 'NONE',  ( 0.0000000000000000000, -6.481755355858690400E-056, 12.99999999999997900 ) ) ;
#81 = ORIENTED_EDGE ( 'NONE', *, *, #61, .F. ) ;
#82 = ORIENTED_EDGE ( 'NONE', *, *, #135, .T. ) ;
#83 = CARTESIAN_POINT ( 'NONE',  ( 0.1953301412284926500, -2.773977436329013700, 12.67071973943475700 ) ) ;
#84 = VERTEX_POINT ( 'NONE', #25 ) ;
#85 = CARTESIAN_POINT ( 'NONE',  ( -2.500000000000000000, -1.443375672974065200, -0.6376261582597530000 ) ) ;
#86 = DIRECTION ( 'NONE',  ( -0.8660254037844387100, 0.4999999999999997800, 0.0000000000000000000 ) ) ;
#87 = FACE_OUTER_BOUND ( 'NONE', #765, .T. ) ;
#88 = CARTESIAN_POINT ( 'NONE',  ( -0.3987867435387255600, -2.656511712216792700, 12.57278725590571100 ) ) ;
#89 = DIRECTION ( 'NONE',  ( 0.0000000000000000000, -4.985965658352847400E-057, 1.000000000000000000 ) ) ;
#90 = AXIS2_PLACEMENT_3D ( 'NONE', #346, #91, #86 ) ;
#91 = DIRECTION ( 'NONE',  ( 0.4999999999999998300, 0.8660254037844388200, 0.0000000000000000000 ) ) ;
#92 = CARTESIAN_POINT ( 'NONE',  ( 0.0000000000000000000, 2.991579395011708100E-056, 6.999999999999978700 ) ) ;
#93 = CARTESIAN_POINT ( 'NONE',  ( -1.794611453598834400, -1.850631940122057000, 12.47208214815057500 ) ) ;
#94 = ORIENTED_EDGE ( 'NONE', *, *, #364, .F. ) ;
#95 = PLANE ( 'NONE',  #49 ) ;
#96 = AXIS2_PLACEMENT_3D ( 'NONE', #696, #687, #98 ) ;
#97 = LINE ( 'NONE', #402, #777 ) ;
#98 = DIRECTION ( 'NONE',  ( 0.8660254037844383700, 0.5000000000000004400, 0.0000000000000000000 ) ) ;
#99 = DIRECTION ( 'NONE',  ( -0.0000000000000000000, 4.985965658352847400E-057, -1.000000000000000000 ) ) ;
#100 = FACE_BOUND ( 'NONE', #476, .T. ) ;
#101 = CARTESIAN_POINT ( 'NONE',  ( -2.500000000000000000, 0.5008555483124550500, 12.43584149784074500 ) ) ;
#102 = PLANE ( 'NONE',  #56 ) ;
#103 = CARTESIAN_POINT ( 'NONE',  ( 0.0000000000000000000, 1.263966274252762400E-055, -12.35048094716169100 ) ) ;
#104 = CARTESIAN_POINT ( 'NONE',  ( -2.500000000000000000, -1.443375672974065200, 12.78349364905387000 ) ) ;
#105 = ADVANCED_FACE ( 'NONE', ( #521 ), #639, .T. ) ;
#106 = DIRECTION ( 'NONE',  ( 0.0000000000000000000, -1.000000000000000000, 0.0000000000000000000 ) ) ;
#107 = EDGE_LOOP ( 'NONE', ( #360, #335, #168, #250 ) ) ;
#108 = ORIENTED_EDGE ( 'NONE', *, *, #264, .T. ) ;
#109 = AXIS2_PLACEMENT_3D ( 'NONE', #679, #509, #36 ) ;
#110 = DIRECTION ( 'NONE',  ( -0.0000000000000000000, 4.985965658352847400E-057, -1.000000000000000000 ) ) ;
#111 = FACE_OUTER_BOUND ( 'NONE', #206, .T. ) ;
#112 = ADVANCED_FACE ( 'NONE', ( #111 ), #566, .F. ) ;
#113 = CARTESIAN_POINT ( 'NONE',  ( 1.689365699038768400, 1.911395604848374900, 12.44474999950264900 ) ) ;
#114 = AXIS2_PLACEMENT_3D ( 'NONE', #390, #649, #338 ) ;
#115 = ORIENTED_EDGE ( 'NONE', *, *, #244, .F. ) ;
#116 = ORIENTED_EDGE ( 'NONE', *, *, #666, .F. ) ;
#117 = ADVANCED_FACE ( 'NONE', ( #532, #59 ), #102, .T. ) ;
#118 = CC_DESIGN_APPROVAL ( #300, ( #523 ) ) ;
#119 = APPROVAL_STATUS ( 'not_yet_approved' ) ;
#120 = VECTOR ( 'NONE', #568, 1000.000000000000000 ) ;
#121 = AXIS2_PLACEMENT_3D ( 'NONE', #311, #70, #380 ) ;
#122 = FACE_OUTER_BOUND ( 'NONE', #527, .T. ) ;
#123 = ADVANCED_FACE ( 'NONE', ( #420 ), #165, .F. ) ;
#124 = DATE_TIME_ROLE ( 'creation_date' ) ;
#125 = ORIENTED_EDGE ( 'NONE', *, *, #322, .F. ) ;
#126 = CARTESIAN_POINT ( 'NONE',  ( 0.0000000000000000000, 5.000000000000000000, -13.00000000000002100 ) ) ;
#127 = VERTEX_POINT ( 'NONE', #232 ) ;
#128 = CARTESIAN_POINT ( 'NONE',  ( -2.101213256461272200, 1.673615306705403400, 12.57278725590571600 ) ) ;
#129 = VECTOR ( 'NONE', #345, 1000.000000000000000 ) ;
#130 = LINE ( 'NONE', #248, #246 ) ;
#131 = CARTESIAN_POINT ( 'NONE',  ( -2.500000000000000000, 1.443375672974063900, 12.78349364905387000 ) ) ;
#132 = VECTOR ( 'NONE', #398, 1000.000000000000000 ) ;
#133 = AXIS2_PLACEMENT_3D ( 'NONE', #518, #99, #341 ) ;
#134 = ORIENTED_EDGE ( 'NONE', *, *, #135, .F. ) ;
#135 = EDGE_CURVE ( 'NONE', #517, #660, #486, .T. ) ;
#136 = ORIENTED_EDGE ( 'NONE', *, *, #617, .F. ) ;
#137 = PLANE ( 'NONE',  #605 ) ;
#138 = VECTOR ( 'NONE', #588, 1000.000000000000000 ) ;
#139 = AXIS2_PLACEMENT_3D ( 'NONE', #579, #353, #106 ) ;
#140 = CARTESIAN_POINT ( 'NONE',  ( 0.0000000000000000000, 2.350480947161670600, -13.00000000000002100 ) ) ;
#141 = ORIENTED_EDGE ( 'NONE', *, *, #266, .T. ) ;
#142 = DIRECTION ( 'NONE',  ( 1.000000000000000000, 0.0000000000000000000, 0.0000000000000000000 ) ) ;
#143 = CARTESIAN_POINT ( 'NONE',  ( 2.499999999999999600, -1.219481799861999600, 12.67154671249782900 ) ) ;
#144 = VERTEX_POINT ( 'NONE', #157 ) ;
#145 = CARTESIAN_POINT ( 'NONE',  ( 2.101213256461272700, -1.673615306705404300, 12.57278725590571400 ) ) ;
#146 = CARTESIAN_POINT ( 'NONE',  ( 2.500000000000000000, -0.5024865834171834400, 12.43628044913246100 ) ) ;
#147 = VECTOR ( 'NONE', #166, 1000.000000000000000 ) ;
#148 = FACE_OUTER_BOUND ( 'NONE', #107, .T. ) ;
#149 = CARTESIAN_POINT ( 'NONE',  ( 0.3950665264161212800, -2.658659580573973000, 12.57483382634056600 ) ) ;
#150 = CARTESIAN_POINT ( 'NONE',  ( -3.103257696894238900, 3.800394605430916900E-016, 12.99999999999997900 ) ) ;
#151 = VERTEX_POINT ( 'NONE', #629 ) ;
#152 = ORIENTED_EDGE ( 'NONE', *, *, #424, .T. ) ;
#153 = DIRECTION ( 'NONE',  ( -0.0000000000000000000, 4.985965658352847400E-057, -1.000000000000000000 ) ) ;
#154 = DIRECTION ( 'NONE',  ( 0.0000000000000000000, -1.000000000000000000, 0.0000000000000000000 ) ) ;
#155 = EDGE_LOOP ( 'NONE', ( #562, #224, #715, #6 ) ) ;
#156 = AXIS2_PLACEMENT_3D ( 'NONE', #495, #733, #384 ) ;
#157 = CARTESIAN_POINT ( 'NONE',  ( 3.673940397442059900E-016, -3.000000000000000000, 6.699999999999980600 ) ) ;
#158 = DIRECTION ( 'NONE',  ( -0.0000000000000000000, 4.985965658352847400E-057, -1.000000000000000000 ) ) ;
#159 = TOROIDAL_SURFACE ( 'NONE', #572, 3.299999999999999400, 0.2999999999999994900 ) ;
#160 = CARTESIAN_POINT ( 'NONE',  ( 0.0000000000000000000, -2.350480947161670600, -13.00000000000002100 ) ) ;
#161 = CARTESIAN_POINT ( 'NONE',  ( 0.0000000000000000000, -6.481755355858690400E-056, 12.99999999999997900 ) ) ;
#162 = CARTESIAN_POINT ( 'NONE',  ( 0.0000000000000000000, -3.000000000000000000, -12.35048094716169100 ) ) ;
#163 = B_SPLINE_CURVE_WITH_KNOTS ( 'NONE', 3,
 ( #214, #637, #762, #702, #113, #474, #292, #644, #297, #174, #635, #529 ),
 .UNSPECIFIED., .F., .F.,
 ( 4, 2, 2, 2, 2, 4 ),
 ( 2.544340436251196200E-007, 0.0007457281437449388800, 0.001118464998595595800, 0.001491201853446252200, 0.002236675563147565500, 0.002982149272848879300 ),
 .UNSPECIFIED. ) ;
#164 = AXIS2_PLACEMENT_3D ( 'NONE', #261, #76, #607 ) ;
#165 = PLANE ( 'NONE',  #96 ) ;
#166 = DIRECTION ( 'NONE',  ( 0.0000000000000000000, -0.7071067811865495700, 0.7071067811865454600 ) ) ;
#167 = ORIENTED_EDGE ( 'NONE', *, *, #648, .F. ) ;
#168 = ORIENTED_EDGE ( 'NONE', *, *, #182, .T. ) ;
#169 = CARTESIAN_POINT ( 'NONE',  ( 0.0000000000000000000, 0.0000000000000000000, 6.699999999999978900 ) ) ;
#170 = ADVANCED_FACE ( 'NONE', ( #148 ), #355, .T. ) ;
#171 = VECTOR ( 'NONE', #470, 1000.000000000000100 ) ;
#172 = DIRECTION ( 'NONE',  ( 0.0000000000000000000, 1.000000000000000000, 0.0000000000000000000 ) ) ;
#173 = FACE_OUTER_BOUND ( 'NONE', #467, .T. ) ;
#174 = CARTESIAN_POINT ( 'NONE',  ( 0.3987867435387264500, 2.656511712216789600, 12.57278725590571100 ) ) ;
#175 = EDGE_LOOP ( 'NONE', ( #46, #488, #780, #394 ) ) ;
#176 =( NAMED_UNIT ( * ) PLANE_ANGLE_UNIT ( ) SI_UNIT ( $, .RADIAN. ) );
#177 = ADVANCED_FACE ( 'NONE', ( #379 ), #542, .T. ) ;
#178 = VERTEX_POINT ( 'NONE', #522 ) ;
#179 = ORIENTED_EDGE ( 'NONE', *, *, #322, .T. ) ;
#180 = AXIS2_PLACEMENT_3D ( 'NONE', #103, #237, #172 ) ;
#181 = COORDINATED_UNIVERSAL_TIME_OFFSET ( 6, 0, .BEHIND. ) ;
#182 = EDGE_CURVE ( 'NONE', #314, #13, #719, .T. ) ;
#183 = CYLINDRICAL_SURFACE ( 'NONE', #192, 5.000000000000000000 ) ;
#184 = APPROVAL_STATUS ( 'not_yet_approved' ) ;
#185 = AXIS2_PLACEMENT_3D ( 'NONE', #270, #400, #32 ) ;
#186 = VECTOR ( 'NONE', #406, 1000.000000000000000 ) ;
#187 = EDGE_LOOP ( 'NONE', ( #196, #152, #267, #64 ) ) ;
#188 = VECTOR ( 'NONE', #452, 1000.000000000000000 ) ;
#189 = CARTESIAN_POINT ( 'NONE',  ( 0.0000000000000000000, 2.991579395011708100E-056, 6.999999999999978700 ) ) ;
#190 = CIRCLE ( 'NONE', #114, 5.000000000000000000 ) ;
#191 = CARTESIAN_POINT ( 'NONE',  ( 2.500000000000000000, -1.443375672974064800, -0.6376261582597530000 ) ) ;
#192 = AXIS2_PLACEMENT_3D ( 'NONE', #18, #153, #760 ) ;
#193 = ORIENTED_EDGE ( 'NONE', *, *, #774, .F. ) ;
#194 = CARTESIAN_POINT ( 'NONE',  ( -2.500000000000000000, 1.443375672974063700, -0.6376261582597530000 ) ) ;
#195 = VERTEX_POINT ( 'NONE', #767 ) ;
#196 = ORIENTED_EDGE ( 'NONE', *, *, #732, .T. ) ;
#197 = CARTESIAN_POINT ( 'NONE',  ( 3.673940397442059900E-016, -3.000000000000000000, -13.00000000000002100 ) ) ;
#198 = DIRECTION ( 'NONE',  ( 8.659560562354957500E-017, 0.7071067811865495700, 0.7071067811865454600 ) ) ;
#199 = CARTESIAN_POINT ( 'NONE',  ( 0.0000000000000000000, -2.350480947161670600, -13.00000000000002100 ) ) ;
#200 = CYLINDRICAL_SURFACE ( 'NONE', #684, 5.000000000000000000 ) ;
#201 = AXIS2_PLACEMENT_3D ( 'NONE', #701, #276, #633 ) ;
#202 = DIRECTION ( 'NONE',  ( 0.0000000000000000000, 1.000000000000000000, 0.0000000000000000000 ) ) ;
#203 = DIRECTION ( 'NONE',  ( 0.0000000000000000000, 1.000000000000000000, 0.0000000000000000000 ) ) ;
#204 = AXIS2_PLACEMENT_3D ( 'NONE', #29, #457, #351 ) ;
#205 = AXIS2_PLACEMENT_3D ( 'NONE', #140, #505, #386 ) ;
#206 = EDGE_LOOP ( 'NONE', ( #167, #508, #651, #553, #287, #21, #19 ) ) ;
#207 = EDGE_CURVE ( 'NONE', #626, #144, #769, .T. ) ;
#208 = CARTESIAN_POINT ( 'NONE',  ( 2.500000000000000000, -1.443375672974064800, 12.78349364905387000 ) ) ;
#209 = CIRCLE ( 'NONE', #624, 5.000000000000000000 ) ;
#210 = DIRECTION ( 'NONE',  ( 0.0000000000000000000, 1.000000000000000000, 0.0000000000000000000 ) ) ;
#211 = VECTOR ( 'NONE', #443, 1000.000000000000000 ) ;
#212 = DIRECTION ( 'NONE',  ( -1.000000000000000000, 0.0000000000000000000, -0.0000000000000000000 ) ) ;
#213 = CARTESIAN_POINT ( 'NONE',  ( -0.8218418864751618800, -2.412260711560385100, 12.43437054072090900 ) ) ;
#214 = CARTESIAN_POINT ( 'NONE',  ( 2.500000000000000000, 1.443375672974064300, 12.78349364905387000 ) ) ;
#215 = EDGE_LOOP ( 'NONE', ( #545, #308, #429, #383 ) ) ;
#216 = ORIENTED_EDGE ( 'NONE', *, *, #504, .T. ) ;
#217 = ORIENTED_EDGE ( 'NONE', *, *, #323, .F. ) ;
#218 = DIRECTION ( 'NONE',  ( 1.000000000000000000, 0.0000000000000000000, 0.0000000000000000000 ) ) ;
#219 = CARTESIAN_POINT ( 'NONE',  ( 2.878508968398378800E-016, 2.350480947161670600, -13.00000000000002100 ) ) ;
#220 = UNCERTAINTY_MEASURE_WITH_UNIT (LENGTH_MEASURE( 1.000000000000000100E-005 ), #413, 'distance_accuracy_value', 'NONE');
#221 = LINE ( 'NONE', #689, #310 ) ;
#222 = CARTESIAN_POINT ( 'NONE',  ( -2.500000000000000000, -1.443375672974065200, 12.78349364905387000 ) ) ;
#223 = EDGE_CURVE ( 'NONE', #127, #260, #414, .T. ) ;
#224 = ORIENTED_EDGE ( 'NONE', *, *, #531, .T. ) ;
#225 = CARTESIAN_POINT ( 'NONE',  ( 0.0000000000000000000, 5.000000000000000000, 12.69999999999997800 ) ) ;
#226 = AXIS2_PLACEMENT_3D ( 'NONE', #339, #748, #745 ) ;
#227 = APPLICATION_PROTOCOL_DEFINITION ( 'international standard', 'config_control_design', 1994, #577 ) ;
#228 = CARTESIAN_POINT ( 'NONE',  ( -2.500000000000000000, 0.2537459923902230000, 12.39674230310574100 ) ) ;
#229 = FACE_OUTER_BOUND ( 'NONE', #525, .T. ) ;
#230 = CIRCLE ( 'NONE', #498, 3.000000000000000000 ) ;
#231 = B_SPLINE_CURVE_WITH_KNOTS ( 'NONE', 3,
 ( #714, #366, #597, #376, #539, #713 ),
 .UNSPECIFIED., .F., .F.,
 ( 4, 2, 4 ),
 ( 0.003406104987383606800, 0.004154793285369429900, 0.004903481583355253300 ),
 .UNSPECIFIED. ) ;
#232 = CARTESIAN_POINT ( 'NONE',  ( -2.500000000000000000, 3.061069118652548300E-016, 12.39674230310574300 ) ) ;
#233 = ADVANCED_FACE ( 'NONE', ( #122 ), #682, .F. ) ;
#234 = ORIENTED_EDGE ( 'NONE', *, *, #480, .T. ) ;
#235 = ORIENTED_EDGE ( 'NONE', *, *, #34, .T. ) ;
#236 = ORIENTED_EDGE ( 'NONE', *, *, #75, .T. ) ;
#237 = DIRECTION ( 'NONE',  ( -0.0000000000000000000, 4.985965658352847400E-057, -1.000000000000000000 ) ) ;
#238 = CYLINDRICAL_SURFACE ( 'NONE', #611, 3.000000000000000000 ) ;
#239 = SECURITY_CLASSIFICATION_LEVEL ( 'unclassified' ) ;
#240 = APPROVAL_ROLE ( '' ) ;
#241 = EDGE_LOOP ( 'NONE', ( #291, #48, #752, #643, #728, #367 ) ) ;
#242 = EDGE_LOOP ( 'NONE', ( #625, #38, #548, #570 ) ) ;
#243 = EDGE_CURVE ( 'NONE', #703, #57, #552, .T. ) ;
#244 = EDGE_CURVE ( 'NONE', #549, #357, #631, .T. ) ;
#245 = CIRCLE ( 'NONE', #109, 4.700000000000000200 ) ;
#246 = VECTOR ( 'NONE', #1, 1000.000000000000000 ) ;
#247 = ADVANCED_FACE ( 'NONE', ( #173 ), #17, .T. ) ;
#248 = CARTESIAN_POINT ( 'NONE',  ( -2.500000000000000000, 1.443375672974063700, 7.999999999999979600 ) ) ;
#249 = CARTESIAN_POINT ( 'NONE',  ( 2.500000000000000000, -1.443375672974064800, 7.999999999999979600 ) ) ;
#250 = ORIENTED_EDGE ( 'NONE', *, *, #317, .T. ) ;
#251 = ORIENTED_EDGE ( 'NONE', *, *, #317, .F. ) ;
#252 = ORIENTED_EDGE ( 'NONE', *, *, #466, .T. ) ;
#253 = CARTESIAN_POINT ( 'NONE',  ( -1.025576057339865100, 2.294634733168523100, 12.40714235202774800 ) ) ;
#254 = FACE_OUTER_BOUND ( 'NONE', #606, .T. ) ;
#255 = CARTESIAN_POINT ( 'NONE',  ( -1.678158113524836700, 1.917866307361808300, 12.43437054072090600 ) ) ;
#256 = CC_DESIGN_PERSON_AND_ORGANIZATION_ASSIGNMENT ( #757, #306, ( #523 ) ) ;
#257 = EDGE_CURVE ( 'NONE', #260, #445, #52, .T. ) ;
#258 = CARTESIAN_POINT ( 'NONE',  ( -2.500000000000000000, 1.443375672974063700, -0.6376261582597530000 ) ) ;
#259 = EDGE_LOOP ( 'NONE', ( #94, #141, #706, #669 ) ) ;
#260 = VERTEX_POINT ( 'NONE', #222 ) ;
#261 = CARTESIAN_POINT ( 'NONE',  ( 0.0000000000000000000, 1.296351071171740300E-055, -13.00000000000002100 ) ) ;
#262 = DATE_AND_TIME ( #278, #438 ) ;
#263 = FACE_OUTER_BOUND ( 'NONE', #47, .T. ) ;
#264 = EDGE_CURVE ( 'NONE', #430, #549, #221, .T. ) ;
#265 = ORIENTED_EDGE ( 'NONE', *, *, #759, .F. ) ;
#266 = EDGE_CURVE ( 'NONE', #307, #469, #433, .T. ) ;
#267 = ORIENTED_EDGE ( 'NONE', *, *, #547, .F. ) ;
#268 = CC_DESIGN_PERSON_AND_ORGANIZATION_ASSIGNMENT ( #479, #477, ( #296 ) ) ;
#269 = CIRCLE ( 'NONE', #578, 5.000000000000000000 ) ;
#270 = CARTESIAN_POINT ( 'NONE',  ( 0.0000000000000000000, -1.768687320083342300E-071, 12.99999999999998000 ) ) ;
#271 = DIRECTION ( 'NONE',  ( -0.0000000000000000000, 4.985965658352847400E-057, -1.000000000000000000 ) ) ;
#272 = DIRECTION ( 'NONE',  ( 0.0000000000000000000, 1.000000000000000000, 0.0000000000000000000 ) ) ;
#273 = CARTESIAN_POINT ( 'NONE',  ( -3.103257696894238900, 3.800394605430916900E-016, 12.99999999999997900 ) ) ;
#274 = ORIENTED_EDGE ( 'NONE', *, *, #223, .T. ) ;
#275 = AXIS2_PLACEMENT_3D ( 'NONE', #191, #721, #374 ) ;
#276 = DIRECTION ( 'NONE',  ( 0.0000000000000000000, -4.985965658352847400E-057, 1.000000000000000000 ) ) ;
#277 = CARTESIAN_POINT ( 'NONE',  ( -8.555810909941606700E-016, 2.886751345948128700, 7.999999999999979600 ) ) ;
#278 = CALENDAR_DATE ( 2023, 11, 1 ) ;
#279 = CARTESIAN_POINT ( 'NONE',  ( -2.500000000000000000, 3.061069118652548300E-016, 12.39674230310574300 ) ) ;
#280 = CARTESIAN_POINT ( 'NONE',  ( 6.123233995736766300E-016, -5.000000000000000000, 12.69999999999997800 ) ) ;
#281 = CIRCLE ( 'NONE', #156, 0.2999999999999999300 ) ;
#282 = EDGE_CURVE ( 'NONE', #626, #580, #698, .T. ) ;
#283 = EDGE_CURVE ( 'NONE', #357, #677, #231, .T. ) ;
#284 = APPROVAL_STATUS ( 'not_yet_approved' ) ;
#285 = CARTESIAN_POINT ( 'NONE',  ( 0.0000000000000000000, 2.991579395011708100E-056, 6.999999999999978700 ) ) ;
#286 = CARTESIAN_POINT ( 'NONE',  ( 0.0000000000000000000, 4.700000000000000200, 6.999999999999978700 ) ) ;
#287 = ORIENTED_EDGE ( 'NONE', *, *, #283, .F. ) ;
#288 = PRODUCT_DEFINITION_SHAPE ( 'NONE', 'NONE',  #523 ) ;
#289 = CARTESIAN_POINT ( 'NONE',  ( 0.0000000000000000000, -6.481755355858690400E-056, 12.99999999999997900 ) ) ;
#290 = B_SPLINE_CURVE_WITH_KNOTS ( 'NONE', 3,
 ( #449, #83, #149, #561, #494, #440, #612, #565, #446, #145, #382, #208 ),
 .UNSPECIFIED., .F., .F.,
 ( 4, 2, 2, 2, 2, 4 ),
 ( 2.544340436249185500E-007, 0.0007457281437449383400, 0.001118464998595595100, 0.001491201853446251500, 0.002236675563147564200, 0.002982149272848877100 ),
 .UNSPECIFIED. ) ;
#291 = ORIENTED_EDGE ( 'NONE', *, *, #764, .T. ) ;
#292 = CARTESIAN_POINT ( 'NONE',  ( 1.363725120039726700, 2.099404280792537500, 12.39701585421034300 ) ) ;
#293 = PERSON_AND_ORGANIZATION ( #464, #426 ) ;
#294 = FACE_OUTER_BOUND ( 'NONE', #4, .T. ) ;
#295 = CARTESIAN_POINT ( 'NONE',  ( 0.0000000000000000000, 0.0000000000000000000, 6.699999999999978900 ) ) ;
#296 = PRODUCT ( '91290A326_NO THREADS_Alloy Steel Socket Head Screw', '91290A326_NO THREADS_Alloy Steel Socket Head Screw', '', ( #50 ) ) ;
#297 = CARTESIAN_POINT ( 'NONE',  ( 0.8218418864751622100, 2.412260711560382900, 12.43437054072090400 ) ) ;
#298 = LINE ( 'NONE', #277, #132 ) ;
#299 = ORIENTED_EDGE ( 'NONE', *, *, #301, .T. ) ;
#300 = APPROVAL ( #284, 'UNSPECIFIED' ) ;
#301 = EDGE_CURVE ( 'NONE', #423, #314, #332, .T. ) ;
#302 = COORDINATED_UNIVERSAL_TIME_OFFSET ( 6, 0, .BEHIND. ) ;
#303 = PERSON_AND_ORGANIZATION_ROLE ( 'creator' ) ;
#304 = CONICAL_SURFACE ( 'NONE', #133, 5.000000000000000000, 0.7853981633974453900 ) ;
#305 = AXIS2_PLACEMENT_3D ( 'NONE', #189, #5, #657 ) ;
#306 = PERSON_AND_ORGANIZATION_ROLE ( 'creator' ) ;
#307 = VERTEX_POINT ( 'NONE', #503 ) ;
#308 = ORIENTED_EDGE ( 'NONE', *, *, #75, .F. ) ;
#309 = EDGE_CURVE ( 'NONE', #415, #517, #726, .T. ) ;
#310 = VECTOR ( 'NONE', #510, 1000.000000000000000 ) ;
#311 = CARTESIAN_POINT ( 'NONE',  ( 4.041334437186265000E-016, -3.299999999999999400, 6.699999999999978900 ) ) ;
#312 = DIRECTION ( 'NONE',  ( 0.0000000000000000000, 1.000000000000000000, 0.0000000000000000000 ) ) ;
#313 = ORIENTED_EDGE ( 'NONE', *, *, #515, .F. ) ;
#314 = VERTEX_POINT ( 'NONE', #199 ) ;
#315 = EDGE_LOOP ( 'NONE', ( #692, #299 ) ) ;
#316 = DIRECTION ( 'NONE',  ( -0.0000000000000000000, 4.985965658352847400E-057, -1.000000000000000000 ) ) ;
#317 = EDGE_CURVE ( 'NONE', #13, #580, #51, .T. ) ;
#318 = CARTESIAN_POINT ( 'NONE',  ( 0.0000000000000000000, 1.296351071171740300E-055, -13.00000000000002100 ) ) ;
#319 = COORDINATED_UNIVERSAL_TIME_OFFSET ( 6, 0, .BEHIND. ) ;
#320 = CARTESIAN_POINT ( 'NONE',  ( 0.0000000000000000000, 3.000000000000000000, -13.00000000000002100 ) ) ;
#321 = DIRECTION ( 'NONE',  ( -0.0000000000000000000, 0.0000000000000000000, 1.000000000000000000 ) ) ;
#322 = EDGE_CURVE ( 'NONE', #660, #22, #190, .T. ) ;
#323 = EDGE_CURVE ( 'NONE', #430, #555, #758, .T. ) ;
#324 = DIRECTION ( 'NONE',  ( -0.0000000000000000000, 4.985965658352847400E-057, -1.000000000000000000 ) ) ;
#325 = EDGE_LOOP ( 'NONE', ( #236, #489 ) ) ;
#326 = DIRECTION ( 'NONE',  ( -0.0000000000000000000, -0.0000000000000000000, 1.000000000000000000 ) ) ;
#327 = CARTESIAN_POINT ( 'NONE',  ( 2.500000000000000000, -0.2534697143641935800, 12.39674230310573900 ) ) ;
#328 = ORIENTED_EDGE ( 'NONE', *, *, #223, .F. ) ;
#329 = DIRECTION ( 'NONE',  ( -0.0000000000000000000, 4.985965658352847400E-057, -1.000000000000000000 ) ) ;
#330 = CARTESIAN_POINT ( 'NONE',  ( -2.500000000000000400, -0.5024865834171836600, 12.43628044913246100 ) ) ;
#331 = FACE_OUTER_BOUND ( 'NONE', #724, .T. ) ;
#332 = CIRCLE ( 'NONE', #436, 2.350480947161670600 ) ;
#333 = CARTESIAN_POINT ( 'NONE',  ( -2.500000000000000000, -1.443375672974065200, 12.78349364905387000 ) ) ;
#334 = DIRECTION ( 'NONE',  ( 0.0000000000000000000, 0.0000000000000000000, 1.000000000000000000 ) ) ;
#335 = ORIENTED_EDGE ( 'NONE', *, *, #749, .F. ) ;
#336 = ORIENTED_EDGE ( 'NONE', *, *, #547, .T. ) ;
#337 = CARTESIAN_POINT ( 'NONE',  ( 0.0000000000000000000, -4.700000000000000200, 6.999999999999978700 ) ) ;
#338 = DIRECTION ( 'NONE',  ( 0.0000000000000000000, 1.000000000000000000, 0.0000000000000000000 ) ) ;
#339 = CARTESIAN_POINT ( 'NONE',  ( 0.0000000000000000000, 2.991579395011708100E-056, 6.999999999999978700 ) ) ;
#340 = DIRECTION ( 'NONE',  ( 0.0000000000000000000, 1.000000000000000000, 0.0000000000000000000 ) ) ;
#341 = DIRECTION ( 'NONE',  ( 0.0000000000000000000, 1.000000000000000000, 0.0000000000000000000 ) ) ;
#342 = PERSON_AND_ORGANIZATION ( #464, #426 ) ;
#343 = AXIS2_PLACEMENT_3D ( 'NONE', #39, #770, #411 ) ;
#344 = FACE_OUTER_BOUND ( 'NONE', #349, .T. ) ;
#345 = DIRECTION ( 'NONE',  ( 0.0000000000000000000, 0.7071067811865454600, -0.7071067811865495700 ) ) ;
#346 = CARTESIAN_POINT ( 'NONE',  ( 2.500000000000000000, 1.443375672974064300, -0.6376261582597530000 ) ) ;
#347 = LINE ( 'NONE', #630, #186 ) ;
#348 = EDGE_CURVE ( 'NONE', #469, #178, #2, .T. ) ;
#349 = EDGE_LOOP ( 'NONE', ( #716, #179, #740, #313 ) ) ;
#350 = DIRECTION ( 'NONE',  ( 8.659560562354908200E-017, -0.7071067811865454600, -0.7071067811865495700 ) ) ;
#351 = DIRECTION ( 'NONE',  ( 0.0000000000000000000, 1.000000000000000000, 4.985965658352847400E-057 ) ) ;
#352 = LINE ( 'NONE', #273, #120 ) ;
#353 = DIRECTION ( 'NONE',  ( 0.0000000000000000000, -4.985965658352847400E-057, 1.000000000000000000 ) ) ;
#354 = DIRECTION ( 'NONE',  ( 0.0000000000000000000, 1.000000000000000000, 4.985965658352847400E-057 ) ) ;
#355 = CONICAL_SURFACE ( 'NONE', #139, 2.350480947161670600, 0.7853981633974463900 ) ;
#356 = EDGE_CURVE ( 'NONE', #144, #703, #472, .T. ) ;
#357 = VERTEX_POINT ( 'NONE', #544 ) ;
#358 = AXIS2_PLACEMENT_3D ( 'NONE', #161, #334, #218 ) ;
#359 = B_SPLINE_CURVE_WITH_KNOTS ( 'NONE', 3,
 ( #37, #690, #458, #101, #228, #31 ),
 .UNSPECIFIED., .F., .F.,
 ( 4, 2, 4 ),
 ( 0.001529540333915060800, 0.002277691456973199400, 0.003025842580031338000 ),
 .UNSPECIFIED. ) ;
#360 = ORIENTED_EDGE ( 'NONE', *, *, #53, .F. ) ;
#361 = CARTESIAN_POINT ( 'NONE',  ( -2.500000000000000000, -0.2534697143641935800, 12.39674230310574100 ) ) ;
#362 = APPLICATION_PROTOCOL_DEFINITION ( 'international standard', 'config_control_design', 1994, #711 ) ;
#363 = APPROVAL_PERSON_ORGANIZATION ( #293, #300, #240 ) ;
#364 = EDGE_CURVE ( 'NONE', #307, #564, #735, .T. ) ;
#365 = ADVANCED_FACE ( 'NONE', ( #294 ), #723, .F. ) ;
#366 = CARTESIAN_POINT ( 'NONE',  ( 2.499999999999999600, 0.2537459923902235000, 12.39674230310573600 ) ) ;
#367 = ORIENTED_EDGE ( 'NONE', *, *, #742, .T. ) ;
#368 = ORIENTED_EDGE ( 'NONE', *, *, #10, .F. ) ;
#369 = CC_DESIGN_APPROVAL ( #422, ( #381 ) ) ;
#370 = AXIS2_PLACEMENT_3D ( 'NONE', #12, #563, #272 ) ;
#371 = PERSON_AND_ORGANIZATION_ROLE ( 'design_supplier' ) ;
#372 = CARTESIAN_POINT ( 'NONE',  ( -2.500000000000000000, -1.443375672974065000, 7.999999999999979600 ) ) ;
#373 = LINE ( 'NONE', #258, #211 ) ;
#374 = DIRECTION ( 'NONE',  ( 0.0000000000000000000, 0.0000000000000000000, -1.000000000000000000 ) ) ;
#375 = VERTEX_POINT ( 'NONE', #372 ) ;
#376 = CARTESIAN_POINT ( 'NONE',  ( 2.500000000000000000, 0.9849427056166839600, 12.57373325822234200 ) ) ;
#377 = ORIENTED_EDGE ( 'NONE', *, *, #662, .F. ) ;
#378 = CARTESIAN_POINT ( 'NONE',  ( 0.0000000000000000000, 4.700000000000000200, 12.99999999999998000 ) ) ;
#379 = FACE_OUTER_BOUND ( 'NONE', #215, .T. ) ;
#380 = DIRECTION ( 'NONE',  ( -1.224646799147353700E-016, 1.000000000000000000, 0.0000000000000000000 ) ) ;
#381 = PRODUCT_DEFINITION_FORMATION_WITH_SPECIFIED_SOURCE ( 'ANY', '', #296, .NOT_KNOWN. ) ;
#382 = CARTESIAN_POINT ( 'NONE',  ( 2.303518737899372200, -1.556814182538579100, 12.67005513948900300 ) ) ;
#383 = ORIENTED_EDGE ( 'NONE', *, *, #515, .T. ) ;
#384 = DIRECTION ( 'NONE',  ( 0.0000000000000000000, 0.0000000000000000000, 1.000000000000000000 ) ) ;
#385 = APPROVAL_DATE_TIME ( #776, #422 ) ;
#386 = DIRECTION ( 'NONE',  ( 0.0000000000000000000, 1.000000000000000000, 4.985965658352847400E-057 ) ) ;
#387 = VECTOR ( 'NONE', #768, 1000.000000000000100 ) ;
#388 = CARTESIAN_POINT ( 'NONE',  ( 2.500000000000000000, -5.478779088456694200E-020, 12.39674230310574300 ) ) ;
#389 = VECTOR ( 'NONE', #663, 1000.000000000000000 ) ;
#390 = CARTESIAN_POINT ( 'NONE',  ( 0.0000000000000000000, 1.495789697505856000E-057, 12.69999999999997800 ) ) ;
#391 = CARTESIAN_POINT ( 'NONE',  ( 5.939536975864663000E-016, -4.700000000000000200, 12.99999999999998000 ) ) ;
#392 = ORIENTED_EDGE ( 'NONE', *, *, #648, .T. ) ;
#393 = ORIENTED_EDGE ( 'NONE', *, *, #243, .F. ) ;
#394 = ORIENTED_EDGE ( 'NONE', *, *, #480, .F. ) ;
#395 = CARTESIAN_POINT ( 'NONE',  ( 4.041334437186265000E-016, -3.299999999999999400, 6.999999999999978700 ) ) ;
#396 = FACE_OUTER_BOUND ( 'NONE', #659, .T. ) ;
#397 = PLANE ( 'NONE',  #204 ) ;
#398 = DIRECTION ( 'NONE',  ( -0.8660254037844384900, -0.5000000000000002200, -2.492982829176424800E-057 ) ) ;
#399 = AXIS2_PLACEMENT_3D ( 'NONE', #560, #501, #673 ) ;
#400 = DIRECTION ( 'NONE',  ( -0.0000000000000000000, 4.985965658352847400E-057, -1.000000000000000000 ) ) ;
#401 = EDGE_LOOP ( 'NONE', ( #328, #392, #536, #763, #115, #678, #722 ) ) ;
#402 = CARTESIAN_POINT ( 'NONE',  ( 3.103257696894238900, -6.481755355858690400E-056, 12.99999999999997900 ) ) ;
#403 = DIRECTION ( 'NONE',  ( -0.0000000000000000000, 4.985965658352847400E-057, -1.000000000000000000 ) ) ;
#404 = ORIENTED_EDGE ( 'NONE', *, *, #432, .F. ) ;
#405 = LOCAL_TIME ( 11, 13, 42.00000000000000000, #302 ) ;
#406 = DIRECTION ( 'NONE',  ( -0.0000000000000000000, -0.0000000000000000000, 1.000000000000000000 ) ) ;
#407 = PRODUCT_RELATED_PRODUCT_CATEGORY ( 'detail', '', ( #296 ) ) ;
#408 = CARTESIAN_POINT ( 'NONE',  ( -1.363725120039726700, -2.099404280792539300, 12.39701585421034300 ) ) ;
#409 = CIRCLE ( 'NONE', #343, 2.350480947161670600 ) ;
#410 = EDGE_CURVE ( 'NONE', #658, #375, #130, .T. ) ;
#411 = DIRECTION ( 'NONE',  ( 0.0000000000000000000, 1.000000000000000000, 0.0000000000000000000 ) ) ;
#412 = AXIS2_PLACEMENT_3D ( 'NONE', #641, #772, #421 ) ;
#413 =( LENGTH_UNIT ( ) NAMED_UNIT ( * ) SI_UNIT ( .MILLI., .METRE. ) );
#414 = B_SPLINE_CURVE_WITH_KNOTS ( 'NONE', 3,
 ( #279, #361, #330, #16, #619, #333 ),
 .UNSPECIFIED., .F., .F.,
 ( 4, 2, 4 ),
 ( 0.003025842580031338000, 0.003773179117946663500, 0.004520515655861989000 ),
 .UNSPECIFIED. ) ;
#415 = VERTEX_POINT ( 'NONE', #378 ) ;
#416 = ORIENTED_EDGE ( 'NONE', *, *, #712, .T. ) ;
#417 = DIRECTION ( 'NONE',  ( -0.8660254037844387100, 0.4999999999999997800, 2.492982829176422600E-057 ) ) ;
#418 = ADVANCED_BREP_SHAPE_REPRESENTATION ( '91290A326_NO THREADS_Alloy Steel Socket Head Screw', ( #771, #412 ), #609 ) ;
#419 = CARTESIAN_POINT ( 'NONE',  ( 2.500000000000000000, 1.443375672974064300, 7.999999999999979600 ) ) ;
#420 = FACE_OUTER_BOUND ( 'NONE', #155, .T. ) ;
#421 = DIRECTION ( 'NONE',  ( 1.000000000000000000, 0.0000000000000000000, 0.0000000000000000000 ) ) ;
#422 = APPROVAL ( #119, 'UNSPECIFIED' ) ;
#423 = VERTEX_POINT ( 'NONE', #603 ) ;
#424 = EDGE_CURVE ( 'NONE', #151, #475, #513, .T. ) ;
#425 = ORIENTED_EDGE ( 'NONE', *, *, #309, .F. ) ;
#426 = ORGANIZATION ( 'UNSPECIFIED', 'UNSPECIFIED', '' ) ;
#427 = VECTOR ( 'NONE', #30, 1000.000000000000000 ) ;
#428 = EDGE_CURVE ( 'NONE', #144, #13, #575, .T. ) ;
#429 = ORIENTED_EDGE ( 'NONE', *, *, #707, .T. ) ;
#430 = VERTEX_POINT ( 'NONE', #725 ) ;
#431 = CARTESIAN_POINT ( 'NONE',  ( -1.463640510288723300, 2.041718103336092500, 12.39621215275621900 ) ) ;
#432 = EDGE_CURVE ( 'NONE', #22, #469, #439, .T. ) ;
#433 = LINE ( 'NONE', #453, #616 ) ;
#434 = CARTESIAN_POINT ( 'NONE',  ( -6.717598212430812200E-016, 2.886751345948128700, 12.78349364905387000 ) ) ;
#435 = ORIENTED_EDGE ( 'NONE', *, *, #504, .F. ) ;
#436 = AXIS2_PLACEMENT_3D ( 'NONE', #596, #537, #340 ) ;
#437 = DIRECTION ( 'NONE',  ( 0.0000000000000000000, -4.985965658352847400E-057, 1.000000000000000000 ) ) ;
#438 = LOCAL_TIME ( 11, 13, 42.00000000000000000, #594 ) ;
#439 = LINE ( 'NONE', #126, #389 ) ;
#440 = CARTESIAN_POINT ( 'NONE',  ( 1.025576057339864500, -2.294634733168525300, 12.40714235202775000 ) ) ;
#441 = CC_DESIGN_PERSON_AND_ORGANIZATION_ASSIGNMENT ( #608, #781, ( #459 ) ) ;
#442 = AXIS2_PLACEMENT_3D ( 'NONE', #85, #671, #20 ) ;
#443 = DIRECTION ( 'NONE',  ( -0.0000000000000000000, -0.0000000000000000000, 1.000000000000000000 ) ) ;
#444 = ORIENTED_EDGE ( 'NONE', *, *, #742, .F. ) ;
#445 = VERTEX_POINT ( 'NONE', #62 ) ;
#446 = CARTESIAN_POINT ( 'NONE',  ( 1.678158113524836900, -1.917866307361811000, 12.43437054072090900 ) ) ;
#447 = CC_DESIGN_APPROVAL ( #647, ( #459 ) ) ;
#448 = DIRECTION ( 'NONE',  ( -0.0000000000000000000, 4.985965658352847400E-057, -1.000000000000000000 ) ) ;
#449 = CARTESIAN_POINT ( 'NONE',  ( 6.875397087013434300E-016, -2.886751345948130400, 12.78349364905387200 ) ) ;
#450 = FACE_OUTER_BOUND ( 'NONE', #175, .T. ) ;
#451 = CONICAL_SURFACE ( 'NONE', #554, 4.700000000000000200, 0.7853981633974511700 ) ;
#452 = DIRECTION ( 'NONE',  ( -0.0000000000000000000, 4.985965658352847400E-057, -1.000000000000000000 ) ) ;
#453 = CARTESIAN_POINT ( 'NONE',  ( 5.755839955992559700E-016, 4.700000000000000200, 6.999999999999978700 ) ) ;
#454 = LINE ( 'NONE', #219, #590 ) ;
#455 = ORIENTED_EDGE ( 'NONE', *, *, #282, .T. ) ;
#456 = ORIENTED_EDGE ( 'NONE', *, *, #662, .T. ) ;
#457 = DIRECTION ( 'NONE',  ( -0.0000000000000000000, 4.985965658352847400E-057, -1.000000000000000000 ) ) ;
#458 = CARTESIAN_POINT ( 'NONE',  ( -2.500000000000000400, 0.9849427056166824000, 12.57373325822234200 ) ) ;
#459 = SECURITY_CLASSIFICATION ( '', '', #239 ) ;
#460 = APPROVAL_PERSON_ORGANIZATION ( #652, #647, #540 ) ;
#461 = APPROVAL_DATE_TIME ( #646, #300 ) ;
#462 = CARTESIAN_POINT ( 'NONE',  ( 6.123233995736766300E-016, -5.000000000000000000, -13.00000000000002100 ) ) ;
#463 = CARTESIAN_POINT ( 'NONE',  ( 0.0000000000000000000, 3.000000000000000000, 6.699999999999980600 ) ) ;
#464 = PERSON ( 'UNSPECIFIED', 'UNSPECIFIED', 'UNSPECIFIED', ('UNSPECIFIED'), ('UNSPECIFIED'), ('UNSPECIFIED') ) ;
#465 = CARTESIAN_POINT ( 'NONE',  ( -1.036359489711275800, -2.288408915586101200, 12.39621215275622200 ) ) ;
#466 = EDGE_CURVE ( 'NONE', #144, #626, #230, .T. ) ;
#467 = EDGE_LOOP ( 'NONE', ( #134, #581, #507, #125 ) ) ;
#468 = CARTESIAN_POINT ( 'NONE',  ( -8.555810909941606700E-016, 2.886751345948128700, -0.6376261582597530000 ) ) ;
#469 = VERTEX_POINT ( 'NONE', #546 ) ;
#470 = DIRECTION ( 'NONE',  ( 0.8660254037844383700, 0.5000000000000004400, 2.492982829176425700E-057 ) ) ;
#471 = CIRCLE ( 'NONE', #180, 3.000000000000000000 ) ;
#472 = CIRCLE ( 'NONE', #121, 0.2999999999999994900 ) ;
#473 = CARTESIAN_POINT ( 'NONE',  ( 2.500000000000000000, 1.443375672974064300, -0.6376261582597530000 ) ) ;
#474 = CARTESIAN_POINT ( 'NONE',  ( 1.474423942660134700, 2.035492285753670100, 12.40714235202774800 ) ) ;
#475 = VERTEX_POINT ( 'NONE', #131 ) ;
#476 = EDGE_LOOP ( 'NONE', ( #482, #614 ) ) ;
#477 = PERSON_AND_ORGANIZATION_ROLE ( 'design_owner' ) ;
#478 = APPROVAL_PERSON_ORGANIZATION ( #342, #422, #720 ) ;
#479 = PERSON_AND_ORGANIZATION ( #464, #426 ) ;
#480 = EDGE_CURVE ( 'NONE', #626, #57, #281, .T. ) ;
#481 = ADVANCED_FACE ( 'NONE', ( #396 ), #484, .F. ) ;
#482 = ORIENTED_EDGE ( 'NONE', *, *, #493, .F. ) ;
#483 = ORIENTED_EDGE ( 'NONE', *, *, #737, .T. ) ;
#484 = PLANE ( 'NONE',  #543 ) ;
#485 = CONICAL_SURFACE ( 'NONE', #675, 3.103257696894238900, 0.7853981633974500600 ) ;
#486 = LINE ( 'NONE', #576, #68 ) ;
#487 = CARTESIAN_POINT ( 'NONE',  ( -0.3950665264161210000, 2.658659580573970800, 12.57483382634056200 ) ) ;
#488 = ORIENTED_EDGE ( 'NONE', *, *, #356, .T. ) ;
#489 = ORIENTED_EDGE ( 'NONE', *, *, #364, .T. ) ;
#490 = EDGE_LOOP ( 'NONE', ( #81, #393 ) ) ;
#491 = DIRECTION ( 'NONE',  ( -0.0000000000000000000, 4.985965658352847400E-057, -1.000000000000000000 ) ) ;
#492 = CC_DESIGN_DATE_AND_TIME_ASSIGNMENT ( #708, #54, ( #459 ) ) ;
#493 = EDGE_CURVE ( 'NONE', #668, #622, #743, .T. ) ;
#494 = CARTESIAN_POINT ( 'NONE',  ( 0.8106343009612311200, -2.418731414073819400, 12.44474999950265100 ) ) ;
#495 = CARTESIAN_POINT ( 'NONE',  ( 0.0000000000000000000, 3.299999999999999400, 6.699999999999978900 ) ) ;
#496 = FACE_OUTER_BOUND ( 'NONE', #259, .T. ) ;
#497 = CARTESIAN_POINT ( 'NONE',  ( 0.0000000000000000000, 1.495789697505856000E-057, 12.69999999999997800 ) ) ;
#498 = AXIS2_PLACEMENT_3D ( 'NONE', #600, #491, #202 ) ;
#499 = FACE_OUTER_BOUND ( 'NONE', #187, .T. ) ;
#500 = VECTOR ( 'NONE', #753, 1000.000000000000000 ) ;
#501 = DIRECTION ( 'NONE',  ( -0.0000000000000000000, 4.985965658352847400E-057, -1.000000000000000000 ) ) ;
#502 = DIRECTION ( 'NONE',  ( 0.0000000000000000000, 1.000000000000000000, 0.0000000000000000000 ) ) ;
#503 = CARTESIAN_POINT ( 'NONE',  ( 5.939536975864663000E-016, 4.700000000000000200, 6.999999999999978700 ) ) ;
#504 = EDGE_CURVE ( 'NONE', #375, #260, #587, .T. ) ;
#505 = DIRECTION ( 'NONE',  ( -0.0000000000000000000, 4.985965658352847400E-057, -1.000000000000000000 ) ) ;
#506 = CARTESIAN_POINT ( 'NONE',  ( 2.500000000000000000, -1.443375672974064800, 12.78349364905387000 ) ) ;
#507 = ORIENTED_EDGE ( 'NONE', *, *, #666, .T. ) ;
#508 = ORIENTED_EDGE ( 'NONE', *, *, #34, .F. ) ;
#509 = DIRECTION ( 'NONE',  ( -0.0000000000000000000, 4.985965658352847400E-057, -1.000000000000000000 ) ) ;
#510 = DIRECTION ( 'NONE',  ( -0.0000000000000000000, -0.0000000000000000000, 1.000000000000000000 ) ) ;
#511 = CALENDAR_DATE ( 2023, 11, 1 ) ;
#512 = DIRECTION ( 'NONE',  ( 1.000000000000000000, 0.0000000000000000000, 0.0000000000000000000 ) ) ;
#513 = B_SPLINE_CURVE_WITH_KNOTS ( 'NONE', 3,
 ( #434, #550, #487, #601, #67, #253, #661, #431, #255, #128, #60, #8 ),
 .UNSPECIFIED., .F., .F.,
 ( 4, 2, 2, 2, 2, 4 ),
 ( 2.544340436249185500E-007, 0.0007457281437449389900, 0.001118464998595595800, 0.001491201853446252400, 0.002236675563147565100, 0.002982149272848877500 ),
 .UNSPECIFIED. ) ;
#514 = CARTESIAN_POINT ( 'NONE',  ( -1.689365699038768400, -1.911395604848376500, 12.44474999950265100 ) ) ;
#515 = EDGE_CURVE ( 'NONE', #178, #469, #269, .T. ) ;
#516 = CARTESIAN_POINT ( 'NONE',  ( -8.555810909941606700E-016, 2.886751345948128700, -0.6376261582597530000 ) ) ;
#517 = VERTEX_POINT ( 'NONE', #391 ) ;
#518 = CARTESIAN_POINT ( 'NONE',  ( 0.0000000000000000000, 1.495789697505856000E-057, 12.69999999999997800 ) ) ;
#519 = VECTOR ( 'NONE', #417, 1000.000000000000100 ) ;
#520 = DIRECTION ( 'NONE',  ( 0.0000000000000000000, 1.000000000000000000, 4.985965658352847400E-057 ) ) ;
#521 = FACE_OUTER_BOUND ( 'NONE', #242, .T. ) ;
#522 = CARTESIAN_POINT ( 'NONE',  ( 0.0000000000000000000, -5.000000000000000000, 7.299999999999976700 ) ) ;
#523 = PRODUCT_DEFINITION ( 'UNKNOWN', '', #381, #583 ) ;
#524 = ADVANCED_FACE ( 'NONE', ( #254 ), #238, .T. ) ;
#525 = EDGE_LOOP ( 'NONE', ( #642, #7, #234, #599 ) ) ;
#526 = ORIENTED_EDGE ( 'NONE', *, *, #244, .T. ) ;
#527 = EDGE_LOOP ( 'NONE', ( #216, #779, #368, #444 ) ) ;
#528 = ADVANCED_FACE ( 'NONE', ( #100, #87 ), #137, .T. ) ;
#529 = CARTESIAN_POINT ( 'NONE',  ( -6.717598212430812200E-016, 2.886751345948128700, 12.78349364905387000 ) ) ;
#530 = DIRECTION ( 'NONE',  ( 0.0000000000000000000, 1.000000000000000000, 0.0000000000000000000 ) ) ;
#531 = EDGE_CURVE ( 'NONE', #445, #549, #290, .T. ) ;
#532 = FACE_OUTER_BOUND ( 'NONE', #325, .T. ) ;
#533 = ADVANCED_FACE ( 'NONE', ( #263 ), #709, .T. ) ;
#534 = CC_DESIGN_SECURITY_CLASSIFICATION ( #459, ( #381 ) ) ;
#535 = ADVANCED_FACE ( 'NONE', ( #559 ), #667, .T. ) ;
#536 = ORIENTED_EDGE ( 'NONE', *, *, #653, .T. ) ;
#537 = DIRECTION ( 'NONE',  ( -0.0000000000000000000, 4.985965658352847400E-057, -1.000000000000000000 ) ) ;
#538 = ORIENTED_EDGE ( 'NONE', *, *, #428, .T. ) ;
#539 = CARTESIAN_POINT ( 'NONE',  ( 2.500000000000000000, 1.219935688843696300, 12.67177365698868600 ) ) ;
#540 = APPROVAL_ROLE ( '' ) ;
#541 = LINE ( 'NONE', #473, #9 ) ;
#542 = CONICAL_SURFACE ( 'NONE', #201, 4.700000000000000200, 0.7853981633974511700 ) ;
#543 = AXIS2_PLACEMENT_3D ( 'NONE', #194, #212, #321 ) ;
#544 = CARTESIAN_POINT ( 'NONE',  ( 2.500000000000000000, -5.478779088456694200E-020, 12.39674230310574300 ) ) ;
#545 = ORIENTED_EDGE ( 'NONE', *, *, #266, .F. ) ;
#546 = CARTESIAN_POINT ( 'NONE',  ( 6.123233995736766300E-016, 5.000000000000000000, 7.299999999999976700 ) ) ;
#547 = EDGE_CURVE ( 'NONE', #658, #475, #373, .T. ) ;
#548 = ORIENTED_EDGE ( 'NONE', *, *, #774, .T. ) ;
#549 = VERTEX_POINT ( 'NONE', #14 ) ;
#550 = CARTESIAN_POINT ( 'NONE',  ( -0.1953301412284926000, 2.773977436329011900, 12.67071973943475500 ) ) ;
#551 = CALENDAR_DATE ( 2023, 11, 1 ) ;
#552 = CIRCLE ( 'NONE', #226, 3.299999999999999400 ) ;
#553 = ORIENTED_EDGE ( 'NONE', *, *, #727, .F. ) ;
#554 = AXIS2_PLACEMENT_3D ( 'NONE', #285, #41, #154 ) ;
#555 = VERTEX_POINT ( 'NONE', #674 ) ;
#556 = DIRECTION ( 'NONE',  ( 0.0000000000000000000, -1.000000000000000000, -4.985965658352847400E-057 ) ) ;
#557 = DIRECTION ( 'NONE',  ( 1.000000000000000000, 0.0000000000000000000, 0.0000000000000000000 ) ) ;
#558 = LINE ( 'NONE', #704, #387 ) ;
#559 = FACE_OUTER_BOUND ( 'NONE', #315, .T. ) ;
#560 = CARTESIAN_POINT ( 'NONE',  ( 0.0000000000000000000, 3.141158364762291800E-056, 6.699999999999980600 ) ) ;
#561 = CARTESIAN_POINT ( 'NONE',  ( 0.7053885464011657700, -2.479495078800138900, 12.47208214815057800 ) ) ;
#562 = ORIENTED_EDGE ( 'NONE', *, *, #10, .T. ) ;
#563 = DIRECTION ( 'NONE',  ( -0.0000000000000000000, 4.985965658352847400E-057, -1.000000000000000000 ) ) ;
#564 = VERTEX_POINT ( 'NONE', #79 ) ;
#565 = CARTESIAN_POINT ( 'NONE',  ( 1.463640510288723800, -2.041718103336094700, 12.39621215275621900 ) ) ;
#566 = CONICAL_SURFACE ( 'NONE', #645, 3.103257696894238900, 0.7853981633974500600 ) ;
#567 = AXIS2_PLACEMENT_3D ( 'NONE', #497, #448, #210 ) ;
#568 = DIRECTION ( 'NONE',  ( -0.7071067811865487900, 8.659560562354948900E-017, 0.7071067811865463500 ) ) ;
#569 = DIRECTION ( 'NONE',  ( 0.0000000000000000000, 1.000000000000000000, 0.0000000000000000000 ) ) ;
#570 = ORIENTED_EDGE ( 'NONE', *, *, #182, .F. ) ;
#571 = CARTESIAN_POINT ( 'NONE',  ( 0.0000000000000000000, -6.481755355858690400E-056, 12.99999999999997900 ) ) ;
#572 = AXIS2_PLACEMENT_3D ( 'NONE', #295, #110, #520 ) ;
#573 = CALENDAR_DATE ( 2023, 11, 1 ) ;
#574 = CARTESIAN_POINT ( 'NONE',  ( -2.304669858771507800, -1.556149582593182800, 12.67071973943475500 ) ) ;
#575 = LINE ( 'NONE', #197, #595 ) ;
#576 = CARTESIAN_POINT ( 'NONE',  ( 6.123233995736766300E-016, -5.000000000000000000, 12.69999999999997800 ) ) ;
#577 = APPLICATION_CONTEXT ( 'configuration controlled 3d designs of mechanical parts and assemblies' ) ;
#578 = AXIS2_PLACEMENT_3D ( 'NONE', #670, #71, #665 ) ;
#579 = CARTESIAN_POINT ( 'NONE',  ( 0.0000000000000000000, 1.296351071171740300E-055, -13.00000000000002100 ) ) ;
#580 = VERTEX_POINT ( 'NONE', #730 ) ;
#581 = ORIENTED_EDGE ( 'NONE', *, *, #617, .T. ) ;
#582 =( NAMED_UNIT ( * ) SI_UNIT ( $, .STERADIAN. ) SOLID_ANGLE_UNIT ( ) );
#583 = DESIGN_CONTEXT ( 'detailed design', #577, 'design' ) ;
#584 = APPROVAL_DATE_TIME ( #755, #647 ) ;
#585 = DIRECTION ( 'NONE',  ( -0.0000000000000000000, -0.0000000000000000000, 1.000000000000000000 ) ) ;
#586 = ADVANCED_FACE ( 'NONE', ( #655 ), #200, .T. ) ;
#587 = LINE ( 'NONE', #11, #672 ) ;
#588 = DIRECTION ( 'NONE',  ( -0.0000000000000000000, -0.0000000000000000000, 1.000000000000000000 ) ) ;
#589 = ADVANCED_FACE ( 'NONE', ( #78 ), #694, .F. ) ;
#590 = VECTOR ( 'NONE', #681, 1000.000000000000000 ) ;
#591 = EDGE_LOOP ( 'NONE', ( #483, #650, #613, #265 ) ) ;
#592 = ADVANCED_FACE ( 'NONE', ( #43 ), #485, .F. ) ;
#593 = LOCAL_TIME ( 11, 13, 42.00000000000000000, #181 ) ;
#594 = COORDINATED_UNIVERSAL_TIME_OFFSET ( 6, 0, .BEHIND. ) ;
#595 = VECTOR ( 'NONE', #3, 1000.000000000000000 ) ;
#596 = CARTESIAN_POINT ( 'NONE',  ( 0.0000000000000000000, 1.296351071171740300E-055, -13.00000000000002100 ) ) ;
#597 = CARTESIAN_POINT ( 'NONE',  ( 2.500000000000000400, 0.5008555483124559300, 12.43584149784074800 ) ) ;
#598 = ORIENTED_EDGE ( 'NONE', *, *, #282, .F. ) ;
#599 = ORIENTED_EDGE ( 'NONE', *, *, #61, .T. ) ;
#600 = CARTESIAN_POINT ( 'NONE',  ( 0.0000000000000000000, 3.141158364762291800E-056, 6.699999999999980600 ) ) ;
#601 = CARTESIAN_POINT ( 'NONE',  ( -0.7053885464011655500, 2.479495078800137500, 12.47208214815057700 ) ) ;
#602 = VECTOR ( 'NONE', #65, 1000.000000000000000 ) ;
#603 = CARTESIAN_POINT ( 'NONE',  ( 3.276224682920219100E-016, 2.350480947161670600, -13.00000000000002100 ) ) ;
#604 = CIRCLE ( 'NONE', #691, 3.299999999999999400 ) ;
#605 = AXIS2_PLACEMENT_3D ( 'NONE', #15, #437, #556 ) ;
#606 = EDGE_LOOP ( 'NONE', ( #63, #538, #193, #598 ) ) ;
#607 = DIRECTION ( 'NONE',  ( 0.0000000000000000000, 1.000000000000000000, 0.0000000000000000000 ) ) ;
#608 = PERSON_AND_ORGANIZATION ( #464, #426 ) ;
#609 =( GEOMETRIC_REPRESENTATION_CONTEXT ( 3 ) GLOBAL_UNCERTAINTY_ASSIGNED_CONTEXT ( ( #220 ) ) GLOBAL_UNIT_ASSIGNED_CONTEXT ( ( #413, #176, #582 ) ) REPRESENTATION_CONTEXT ( 'NONE', 'WORKASPACE' ) );
#610 = SHAPE_DEFINITION_REPRESENTATION ( #288, #418 ) ;
#611 = AXIS2_PLACEMENT_3D ( 'NONE', #318, #324, #203 ) ;
#612 = CARTESIAN_POINT ( 'NONE',  ( 1.136274879960273300, -2.230722738129656600, 12.39701585421034300 ) ) ;
#613 = ORIENTED_EDGE ( 'NONE', *, *, #732, .F. ) ;
#614 = ORIENTED_EDGE ( 'NONE', *, *, #653, .F. ) ;
#615 = CARTESIAN_POINT ( 'NONE',  ( 0.0000000000000000000, 1.296351071171740300E-055, -13.00000000000002100 ) ) ;
#616 = VECTOR ( 'NONE', #198, 1000.000000000000000 ) ;
#617 = EDGE_CURVE ( 'NONE', #517, #415, #245, .T. ) ;
#618 = DIRECTION ( 'NONE',  ( -0.0000000000000000000, -0.0000000000000000000, 1.000000000000000000 ) ) ;
#619 = CARTESIAN_POINT ( 'NONE',  ( -2.499999999999999600, -1.219481799861999300, 12.67154671249783200 ) ) ;
#620 = CARTESIAN_POINT ( 'NONE',  ( -2.500000000000000000, 1.443375672974063900, 7.999999999999979600 ) ) ;
#621 = CARTESIAN_POINT ( 'NONE',  ( -0.1964812621006258600, -2.773312836383616400, 12.67005513948900800 ) ) ;
#622 = VERTEX_POINT ( 'NONE', #150 ) ;
#623 = CARTESIAN_POINT ( 'NONE',  ( 0.0000000000000000000, 3.299999999999999400, 6.999999999999978700 ) ) ;
#624 = AXIS2_PLACEMENT_3D ( 'NONE', #688, #271, #754 ) ;
#625 = ORIENTED_EDGE ( 'NONE', *, *, #301, .F. ) ;
#626 = VERTEX_POINT ( 'NONE', #463 ) ;
#627 = DIRECTION ( 'NONE',  ( 0.0000000000000000000, -1.000000000000000000, 0.0000000000000000000 ) ) ;
#628 = PERSON_AND_ORGANIZATION ( #464, #426 ) ;
#629 = CARTESIAN_POINT ( 'NONE',  ( -6.717598212430812200E-016, 2.886751345948128700, 12.78349364905387000 ) ) ;
#630 = CARTESIAN_POINT ( 'NONE',  ( 8.713609786167769200E-016, -2.886751345948130400, -0.6376261582597530000 ) ) ;
#631 = B_SPLINE_CURVE_WITH_KNOTS ( 'NONE', 3,
 ( #506, #143, #676, #146, #327, #388 ),
 .UNSPECIFIED., .F., .F.,
 ( 4, 2, 4 ),
 ( 0.001910358731447126400, 0.002658231859415366600, 0.003406104987383606800 ),
 .UNSPECIFIED. ) ;
#632 = AXIS2_PLACEMENT_3D ( 'NONE', #656, #316, #312 ) ;
#633 = DIRECTION ( 'NONE',  ( 0.0000000000000000000, -1.000000000000000000, 0.0000000000000000000 ) ) ;
#634 = DIRECTION ( 'NONE',  ( -0.8660254037844384900, -0.5000000000000002200, 0.0000000000000000000 ) ) ;
#635 = CARTESIAN_POINT ( 'NONE',  ( 0.1964812621006260000, 2.773312836383615000, 12.67005513948901000 ) ) ;
#636 = ORIENTED_EDGE ( 'NONE', *, *, #428, .F. ) ;
#637 = CARTESIAN_POINT ( 'NONE',  ( 2.304669858771507800, 1.556149582593181500, 12.67071973943475200 ) ) ;
#638 = ADVANCED_FACE ( 'NONE', ( #344 ), #183, .T. ) ;
#639 = CONICAL_SURFACE ( 'NONE', #69, 2.350480947161670600, 0.7853981633974463900 ) ;
#640 = DIRECTION ( 'NONE',  ( -0.0000000000000000000, 4.985965658352847400E-057, -1.000000000000000000 ) ) ;
#641 = CARTESIAN_POINT ( 'NONE',  ( 0.0000000000000000000, 0.0000000000000000000, 0.0000000000000000000 ) ) ;
#642 = ORIENTED_EDGE ( 'NONE', *, *, #356, .F. ) ;
#643 = ORIENTED_EDGE ( 'NONE', *, *, #27, .T. ) ;
#644 = CARTESIAN_POINT ( 'NONE',  ( 1.036359489711276000, 2.288408915586099800, 12.39621215275621900 ) ) ;
#645 = AXIS2_PLACEMENT_3D ( 'NONE', #289, #326, #142 ) ;
#646 = DATE_AND_TIME ( #511, #741 ) ;
#647 = APPROVAL ( #184, 'UNSPECIFIED' ) ;
#648 = EDGE_CURVE ( 'NONE', #127, #622, #352, .T. ) ;
#649 = DIRECTION ( 'NONE',  ( -0.0000000000000000000, 4.985965658352847400E-057, -1.000000000000000000 ) ) ;
#650 = ORIENTED_EDGE ( 'NONE', *, *, #727, .T. ) ;
#651 = ORIENTED_EDGE ( 'NONE', *, *, #424, .F. ) ;
#652 = PERSON_AND_ORGANIZATION ( #464, #426 ) ;
#653 = EDGE_CURVE ( 'NONE', #622, #668, #695, .T. ) ;
#654 = LINE ( 'NONE', #697, #171 ) ;
#655 = FACE_OUTER_BOUND ( 'NONE', #739, .T. ) ;
#656 = CARTESIAN_POINT ( 'NONE',  ( 0.0000000000000000000, 2.842000425261124400E-056, 7.299999999999976700 ) ) ;
#657 = DIRECTION ( 'NONE',  ( 0.0000000000000000000, 1.000000000000000000, 0.0000000000000000000 ) ) ;
#658 = VERTEX_POINT ( 'NONE', #620 ) ;
#659 = EDGE_LOOP ( 'NONE', ( #336, #235, #274, #435, #55 ) ) ;
#660 = VERTEX_POINT ( 'NONE', #280 ) ;
#661 = CARTESIAN_POINT ( 'NONE',  ( -1.136274879960272900, 2.230722738129655700, 12.39701585421034300 ) ) ;
#662 = EDGE_CURVE ( 'NONE', #22, #660, #209, .T. ) ;
#663 = DIRECTION ( 'NONE',  ( -0.0000000000000000000, 4.985965658352847400E-057, -1.000000000000000000 ) ) ;
#664 = LINE ( 'NONE', #468, #138 ) ;
#665 = DIRECTION ( 'NONE',  ( 0.0000000000000000000, 1.000000000000000000, 0.0000000000000000000 ) ) ;
#666 = EDGE_CURVE ( 'NONE', #415, #22, #42, .T. ) ;
#667 = PLANE ( 'NONE',  #205 ) ;
#668 = VERTEX_POINT ( 'NONE', #751 ) ;
#669 = ORIENTED_EDGE ( 'NONE', *, *, #707, .F. ) ;
#670 = CARTESIAN_POINT ( 'NONE',  ( 0.0000000000000000000, 2.842000425261124400E-056, 7.299999999999976700 ) ) ;
#671 = DIRECTION ( 'NONE',  ( -0.5000000000000001100, -0.8660254037844386000, 0.0000000000000000000 ) ) ;
#672 = VECTOR ( 'NONE', #738, 1000.000000000000000 ) ;
#673 = DIRECTION ( 'NONE',  ( 0.0000000000000000000, 1.000000000000000000, 0.0000000000000000000 ) ) ;
#674 = CARTESIAN_POINT ( 'NONE',  ( 2.500000000000000000, 1.443375672974064300, 7.999999999999979600 ) ) ;
#675 = AXIS2_PLACEMENT_3D ( 'NONE', #571, #618, #512 ) ;
#676 = CARTESIAN_POINT ( 'NONE',  ( 2.500000000000000400, -0.9839169155414038100, 12.57346674265850500 ) ) ;
#677 = VERTEX_POINT ( 'NONE', #685 ) ;
#678 = ORIENTED_EDGE ( 'NONE', *, *, #531, .F. ) ;
#679 = CARTESIAN_POINT ( 'NONE',  ( 0.0000000000000000000, -1.768687320083342300E-071, 12.99999999999998000 ) ) ;
#680 = LOCAL_TIME ( 11, 13, 42.00000000000000000, #40 ) ;
#681 = DIRECTION ( 'NONE',  ( 8.659560562354915600E-017, 0.7071067811865462400, 0.7071067811865489100 ) ) ;
#682 = PLANE ( 'NONE',  #442 ) ;
#683 = CIRCLE ( 'NONE', #74, 4.700000000000000200 ) ;
#684 = AXIS2_PLACEMENT_3D ( 'NONE', #615, #329, #502 ) ;
#685 = CARTESIAN_POINT ( 'NONE',  ( 2.500000000000000000, 1.443375672974064300, 12.78349364905387000 ) ) ;
#686 = CARTESIAN_POINT ( 'NONE',  ( 0.0000000000000000000, 2.991579395011708100E-056, 6.999999999999978700 ) ) ;
#687 = DIRECTION ( 'NONE',  ( 0.5000000000000004400, -0.8660254037844383700, 0.0000000000000000000 ) ) ;
#688 = CARTESIAN_POINT ( 'NONE',  ( 0.0000000000000000000, 1.495789697505856000E-057, 12.69999999999997800 ) ) ;
#689 = CARTESIAN_POINT ( 'NONE',  ( 2.500000000000000000, -1.443375672974064800, -0.6376261582597530000 ) ) ;
#690 = CARTESIAN_POINT ( 'NONE',  ( -2.499999999999999600, 1.219935688843694100, 12.67177365698868000 ) ) ;
#691 = AXIS2_PLACEMENT_3D ( 'NONE', #92, #403, #569 ) ;
#692 = ORIENTED_EDGE ( 'NONE', *, *, #749, .T. ) ;
#693 = EDGE_CURVE ( 'NONE', #357, #668, #97, .T. ) ;
#694 = PLANE ( 'NONE',  #90 ) ;
#695 = CIRCLE ( 'NONE', #358, 3.103257696894238900 ) ;
#696 = CARTESIAN_POINT ( 'NONE',  ( 8.713609786167769200E-016, -2.886751345948130400, -0.6376261582597530000 ) ) ;
#697 = CARTESIAN_POINT ( 'NONE',  ( 8.713609786167769200E-016, -2.886751345948130400, 7.999999999999979600 ) ) ;
#698 = LINE ( 'NONE', #320, #427 ) ;
#699 = ADVANCED_FACE ( 'NONE', ( #499 ), #95, .F. ) ;
#700 = AXIS2_PLACEMENT_3D ( 'NONE', #80, #736, #557 ) ;
#701 = CARTESIAN_POINT ( 'NONE',  ( 0.0000000000000000000, 2.991579395011708100E-056, 6.999999999999978700 ) ) ;
#702 = CARTESIAN_POINT ( 'NONE',  ( 1.794611453598834200, 1.850631940122055900, 12.47208214815057300 ) ) ;
#703 = VERTEX_POINT ( 'NONE', #395 ) ;
#704 = CARTESIAN_POINT ( 'NONE',  ( -2.500000000000000000, -1.443375672974065200, 7.999999999999979600 ) ) ;
#705 = ADVANCED_FACE ( 'NONE', ( #331 ), #304, .T. ) ;
#706 = ORIENTED_EDGE ( 'NONE', *, *, #348, .T. ) ;
#707 = EDGE_CURVE ( 'NONE', #564, #178, #28, .T. ) ;
#708 = DATE_AND_TIME ( #573, #593 ) ;
#709 = CYLINDRICAL_SURFACE ( 'NONE', #164, 3.000000000000000000 ) ;
#710 = CC_DESIGN_PERSON_AND_ORGANIZATION_ASSIGNMENT ( #628, #371, ( #381 ) ) ;
#711 = APPLICATION_CONTEXT ( 'configuration controlled 3d designs of mechanical parts and assemblies' ) ;
#712 = EDGE_CURVE ( 'NONE', #660, #178, #718, .T. ) ;
#713 = CARTESIAN_POINT ( 'NONE',  ( 2.500000000000000000, 1.443375672974064300, 12.78349364905387000 ) ) ;
#714 = CARTESIAN_POINT ( 'NONE',  ( 2.500000000000000000, -5.478779088456694200E-020, 12.39674230310574300 ) ) ;
#715 = ORIENTED_EDGE ( 'NONE', *, *, #264, .F. ) ;
#716 = ORIENTED_EDGE ( 'NONE', *, *, #712, .F. ) ;
#717 = ADVANCED_FACE ( 'NONE', ( #77 ), #397, .F. ) ;
#718 = LINE ( 'NONE', #462, #188 ) ;
#719 = LINE ( 'NONE', #160, #500 ) ;
#720 = APPROVAL_ROLE ( '' ) ;
#721 = DIRECTION ( 'NONE',  ( 1.000000000000000000, -0.0000000000000000000, 0.0000000000000000000 ) ) ;
#722 = ORIENTED_EDGE ( 'NONE', *, *, #257, .F. ) ;
#723 = PLANE ( 'NONE',  #275 ) ;
#724 = EDGE_LOOP ( 'NONE', ( #750, #82, #377, #116 ) ) ;
#725 = CARTESIAN_POINT ( 'NONE',  ( 2.500000000000000000, -1.443375672974064800, 7.999999999999979600 ) ) ;
#726 = CIRCLE ( 'NONE', #185, 4.700000000000000200 ) ;
#727 = EDGE_CURVE ( 'NONE', #677, #151, #163, .T. ) ;
#728 = ORIENTED_EDGE ( 'NONE', *, *, #410, .T. ) ;
#729 = ORIENTED_EDGE ( 'NONE', *, *, #348, .F. ) ;
#730 = CARTESIAN_POINT ( 'NONE',  ( 3.673940397442059900E-016, 3.000000000000000000, -12.35048094716169100 ) ) ;
#731 = CC_DESIGN_DATE_AND_TIME_ASSIGNMENT ( #262, #124, ( #523 ) ) ;
#732 = EDGE_CURVE ( 'NONE', #84, #151, #664, .T. ) ;
#733 = DIRECTION ( 'NONE',  ( -1.000000000000000000, 0.0000000000000000000, 0.0000000000000000000 ) ) ;
#734 = LINE ( 'NONE', #419, #519 ) ;
#735 = CIRCLE ( 'NONE', #305, 4.700000000000000200 ) ;
#736 = DIRECTION ( 'NONE',  ( 0.0000000000000000000, 0.0000000000000000000, 1.000000000000000000 ) ) ;
#737 = EDGE_CURVE ( 'NONE', #555, #677, #541, .T. ) ;
#738 = DIRECTION ( 'NONE',  ( -0.0000000000000000000, -0.0000000000000000000, 1.000000000000000000 ) ) ;
#739 = EDGE_LOOP ( 'NONE', ( #456, #416, #729, #404 ) ) ;
#740 = ORIENTED_EDGE ( 'NONE', *, *, #432, .T. ) ;
#741 = LOCAL_TIME ( 11, 13, 42.00000000000000000, #319 ) ;
#742 = EDGE_CURVE ( 'NONE', #375, #195, #558, .T. ) ;
#743 = CIRCLE ( 'NONE', #700, 3.103257696894238900 ) ;
#744 = DIRECTION ( 'NONE',  ( -0.5000000000000003300, 0.8660254037844386000, 0.0000000000000000000 ) ) ;
#745 = DIRECTION ( 'NONE',  ( 0.0000000000000000000, 1.000000000000000000, 0.0000000000000000000 ) ) ;
#746 = CARTESIAN_POINT ( 'NONE',  ( 0.0000000000000000000, 1.296351071171740300E-055, -13.00000000000002100 ) ) ;
#747 = AXIS2_PLACEMENT_3D ( 'NONE', #169, #45, #354 ) ;
#748 = DIRECTION ( 'NONE',  ( -0.0000000000000000000, 4.985965658352847400E-057, -1.000000000000000000 ) ) ;
#749 = EDGE_CURVE ( 'NONE', #314, #423, #409, .T. ) ;
#750 = ORIENTED_EDGE ( 'NONE', *, *, #309, .T. ) ;
#751 = CARTESIAN_POINT ( 'NONE',  ( 3.103257696894238900, -6.481755355858690400E-056, 12.99999999999997900 ) ) ;
#752 = ORIENTED_EDGE ( 'NONE', *, *, #759, .T. ) ;
#753 = DIRECTION ( 'NONE',  ( 0.0000000000000000000, -0.7071067811865462400, 0.7071067811865489100 ) ) ;
#754 = DIRECTION ( 'NONE',  ( 0.0000000000000000000, 1.000000000000000000, 0.0000000000000000000 ) ) ;
#755 = DATE_AND_TIME ( #551, #405 ) ;
#756 = CARTESIAN_POINT ( 'NONE',  ( -1.474423942660134900, -2.035492285753671500, 12.40714235202775000 ) ) ;
#757 = PERSON_AND_ORGANIZATION ( #464, #426 ) ;
#758 = LINE ( 'NONE', #249, #602 ) ;
#759 = EDGE_CURVE ( 'NONE', #555, #84, #734, .T. ) ;
#760 = DIRECTION ( 'NONE',  ( 0.0000000000000000000, 1.000000000000000000, 0.0000000000000000000 ) ) ;
#761 = DIRECTION ( 'NONE',  ( 0.0000000000000000000, 1.000000000000000000, 4.985965658352847400E-057 ) ) ;
#762 = CARTESIAN_POINT ( 'NONE',  ( 2.104933473583879200, 1.671467438348222200, 12.57483382634056200 ) ) ;
#763 = ORIENTED_EDGE ( 'NONE', *, *, #693, .F. ) ;
#764 = EDGE_CURVE ( 'NONE', #195, #430, #654, .T. ) ;
#765 = EDGE_LOOP ( 'NONE', ( #425, #136 ) ) ;
#766 = CARTESIAN_POINT ( 'NONE',  ( -2.104933473583879200, -1.671467438348222900, 12.57483382634056400 ) ) ;
#767 = CARTESIAN_POINT ( 'NONE',  ( 8.673617379884035500E-016, -2.886751345948130400, 7.999999999999979600 ) ) ;
#768 = DIRECTION ( 'NONE',  ( 0.8660254037844386000, -0.5000000000000001100, -2.492982829176424000E-057 ) ) ;
#769 = CIRCLE ( 'NONE', #399, 3.000000000000000000 ) ;
#770 = DIRECTION ( 'NONE',  ( -0.0000000000000000000, 4.985965658352847400E-057, -1.000000000000000000 ) ) ;
#771 = MANIFOLD_SOLID_BREP ( 'Cut-Extrude2', #773 ) ;
#772 = DIRECTION ( 'NONE',  ( 0.0000000000000000000, 0.0000000000000000000, 1.000000000000000000 ) ) ;
#773 = CLOSED_SHELL ( 'NONE', ( #592, #705, #586, #44, #778, #524, #105, #535, #170, #533, #775, #117, #177, #638, #247, #528, #112, #717, #123, #233, #481, #699, #589, #365 ) ) ;
#774 = EDGE_CURVE ( 'NONE', #580, #13, #471, .T. ) ;
#775 = ADVANCED_FACE ( 'NONE', ( #229 ), #159, .F. ) ;
#776 = DATE_AND_TIME ( #26, #680 ) ;
#777 = VECTOR ( 'NONE', #33, 1000.000000000000000 ) ;
#778 = ADVANCED_FACE ( 'NONE', ( #450 ), #58, .F. ) ;
#779 = ORIENTED_EDGE ( 'NONE', *, *, #257, .T. ) ;
#780 = ORIENTED_EDGE ( 'NONE', *, *, #243, .T. ) ;
#781 = PERSON_AND_ORGANIZATION_ROLE ( 'classification_officer' ) ;
ENDSEC;
END-ISO-10303-21;
