ISO-10303-21;
HEADER;
FILE_DESCRIPTION (( 'STEP AP203' ),
    '1' );
FILE_NAME ('91294A236_NO THREADS_Black-Oxide Alloy Steel Hex Drive Flat Head Screw.STEP',
    '2025-06-03T12:37:43',
    ( 'Administrator' ),
    ( 'Managed by Terraform' ),
    'SwSTEP 2.0',
    'SolidWorks 2017',
    '' );
FILE_SCHEMA (( 'CONFIG_CONTROL_DESIGN' ));
ENDSEC;

DATA;
#1 = AXIS2_PLACEMENT_3D ( 'NONE', #487, #648, #696 ) ;
#2 = DIRECTION ( 'NONE',  ( 1.000000000000000000, 0.0000000000000000000, 0.0000000000000000000 ) ) ;
#3 = PERSON_AND_ORGANIZATION ( #131, #284 ) ;
#4 = DIRECTION ( 'NONE',  ( -0.0000000000000000000, 1.224646799147353200E-016, -1.000000000000000000 ) ) ;
#5 = CARTESIAN_POINT ( 'NONE',  ( -1.179539729358138400, 1.628393496493723200, 5.698919027229107900 ) ) ;
#6 = CARTESIAN_POINT ( 'NONE',  ( 0.0000000000000000000, 8.372510169389823200E-015, 6.000000000000000000 ) ) ;
#7 = VERTEX_POINT ( 'NONE', #145 ) ;
#8 = ORIENTED_EDGE ( 'NONE', *, *, #565, .T. ) ;
#9 = CARTESIAN_POINT ( 'NONE',  ( 0.0000000000000000000, 8.372510169389823200E-015, 6.000000000000000000 ) ) ;
#10 = ORIENTED_EDGE ( 'NONE', *, *, #18, .F. ) ;
#11 = EDGE_CURVE ( 'NONE', #641, #617, #496, .T. ) ;
#12 = VECTOR ( 'NONE', #510, 1000.000000000000000 ) ;
#13 = CARTESIAN_POINT ( 'NONE',  ( 1.680970813925579500, 1.338892124838666500, 5.831434952634121600 ) ) ;
#14 = AXIS2_PLACEMENT_3D ( 'NONE', #6, #56, #2 ) ;
#15 = CARTESIAN_POINT ( 'NONE',  ( 2.000000000000000000, -1.154700538379252100, 3.689999999999999900 ) ) ;
#16 = ORIENTED_EDGE ( 'NONE', *, *, #205, .T. ) ;
#17 = CARTESIAN_POINT ( 'NONE',  ( 1.214306433183765000E-014, 2.309401076758510900, 6.000000000000000000 ) ) ;
#18 = EDGE_CURVE ( 'NONE', #181, #28, #462, .T. ) ;
#19 = EDGE_CURVE ( 'NONE', #263, #610, #435, .T. ) ;
#20 = CARTESIAN_POINT ( 'NONE',  ( 0.0000000000000000000, 8.372510169389823200E-015, 6.000000000000000000 ) ) ;
#21 = VECTOR ( 'NONE', #634, 999.9999999999998900 ) ;
#22 = LINE ( 'NONE', #132, #412 ) ;
#23 = CARTESIAN_POINT ( 'NONE',  ( 2.000000000000000000, 1.154700538379252100, 3.689999999999999900 ) ) ;
#24 = AXIS2_PLACEMENT_3D ( 'NONE', #536, #428, #368 ) ;
#25 = CONICAL_SURFACE ( 'NONE', #313, 2.309401076758502000, 0.7853981633974500600 ) ;
#26 = ORIENTED_EDGE ( 'NONE', *, *, #416, .T. ) ;
#27 = MECHANICAL_CONTEXT ( 'NONE', #680, 'mechanical' ) ;
#28 = VERTEX_POINT ( 'NONE', #244 ) ;
#29 = APPLICATION_PROTOCOL_DEFINITION ( 'international standard', 'config_control_design', 1994, #293 ) ;
#30 = VECTOR ( 'NONE', #618, 1000.000000000000000 ) ;
#31 = CYLINDRICAL_SURFACE ( 'NONE', #464, 3.000000000000000900 ) ;
#32 = CARTESIAN_POINT ( 'NONE',  ( 0.0000000000000000000, 8.372510169389823200E-015, 6.000000000000000000 ) ) ;
#33 = ORIENTED_EDGE ( 'NONE', *, *, #11, .F. ) ;
#34 = ORIENTED_EDGE ( 'NONE', *, *, #206, .F. ) ;
#35 = DIRECTION ( 'NONE',  ( 0.0000000000000000000, -1.224646799147353200E-016, 1.000000000000000000 ) ) ;
#36 = FACE_OUTER_BOUND ( 'NONE', #443, .T. ) ;
#37 = CC_DESIGN_APPROVAL ( #689, ( #507 ) ) ;
#38 = CARTESIAN_POINT ( 'NONE',  ( 0.0000000000000000000, 3.000000000000000900, -5.099999999999997000 ) ) ;
#39 = APPROVAL_ROLE ( '' ) ;
#40 = CARTESIAN_POINT ( 'NONE',  ( 0.0000000000000000000, 6.000000000000000000, -5.999999999999999100 ) ) ;
#41 = ORIENTED_EDGE ( 'NONE', *, *, #404, .F. ) ;
#42 = SECURITY_CLASSIFICATION_LEVEL ( 'unclassified' ) ;
#43 = ORIENTED_EDGE ( 'NONE', *, *, #451, .F. ) ;
#44 = DIRECTION ( 'NONE',  ( 0.0000000000000000000, -1.000000000000000000, -1.445602896647339200E-016 ) ) ;
#45 = DIRECTION ( 'NONE',  ( 0.8660254037844389300, 0.4999999999999996100, 0.0000000000000000000 ) ) ;
#46 = DIRECTION ( 'NONE',  ( 0.0000000000000000000, -1.000000000000000000, 0.0000000000000000000 ) ) ;
#47 = CARTESIAN_POINT ( 'NONE',  ( 0.0000000000000000000, -8.969091632639788200E-016, 2.700000000000001100 ) ) ;
#48 = ADVANCED_FACE ( 'NONE', ( #609 ), #25, .F. ) ;
#49 = DIRECTION ( 'NONE',  ( 0.4999999999999996100, -0.8660254037844389300, 0.0000000000000000000 ) ) ;
#50 = CARTESIAN_POINT ( 'NONE',  ( 0.0000000000000000000, 8.372510169389823200E-015, 6.000000000000000000 ) ) ;
#51 = ORIENTED_EDGE ( 'NONE', *, *, #297, .T. ) ;
#52 = ORIENTED_EDGE ( 'NONE', *, *, #136, .T. ) ;
#53 = CC_DESIGN_SECURITY_CLASSIFICATION ( #507, ( #639 ) ) ;
#54 = CARTESIAN_POINT ( 'NONE',  ( -1.843736237883323300, 1.244919463501899000, 5.909781074877350300 ) ) ;
#55 = COORDINATED_UNIVERSAL_TIME_OFFSET ( 6, 0, .BEHIND. ) ;
#56 = DIRECTION ( 'NONE',  ( -0.0000000000000000000, -0.0000000000000000000, 1.000000000000000000 ) ) ;
#57 = CARTESIAN_POINT ( 'NONE',  ( -1.090980571936513300, 1.679523149870305200, 5.690817791225384800 ) ) ;
#58 = LOCAL_TIME ( 7, 37, 43.00000000000000000, #197 ) ;
#59 = PLANE ( 'NONE',  #64 ) ;
#60 = DIRECTION ( 'NONE',  ( 0.0000000000000000000, 1.000000000000000000, 1.445602896647338900E-016 ) ) ;
#61 = CONICAL_SURFACE ( 'NONE', #273, 2.309401076758502000, 0.7853981633974500600 ) ;
#62 = DIRECTION ( 'NONE',  ( 1.000000000000000000, 0.0000000000000000000, 0.0000000000000000000 ) ) ;
#63 = ORIENTED_EDGE ( 'NONE', *, *, #185, .F. ) ;
#64 = AXIS2_PLACEMENT_3D ( 'NONE', #673, #678, #522 ) ;
#65 = CARTESIAN_POINT ( 'NONE',  ( 0.0000000000000000000, -2.100000000000000100, -6.000000000000000000 ) ) ;
#66 = FACE_OUTER_BOUND ( 'NONE', #370, .T. ) ;
#67 = CARTESIAN_POINT ( 'NONE',  ( 0.0000000000000000000, 1.685335519942185500E-016, -6.000000000000000000 ) ) ;
#68 = AXIS2_PLACEMENT_3D ( 'NONE', #50, #658, #62 ) ;
#69 = CARTESIAN_POINT ( 'NONE',  ( 0.0000000000000000000, 5.999999999999998200, 6.000000000000000900 ) ) ;
#70 = ORIENTED_EDGE ( 'NONE', *, *, #116, .T. ) ;
#71 = CARTESIAN_POINT ( 'NONE',  ( 1.842815071353933500, 1.245451299245610800, 5.909249239133199400 ) ) ;
#72 = VERTEX_POINT ( 'NONE', #411 ) ;
#73 = CALENDAR_DATE ( 2025, 3, 6 ) ;
#74 = CARTESIAN_POINT ( 'NONE',  ( 0.0000000000000000000, -8.969091632639788200E-016, 2.700000000000001100 ) ) ;
#75 = ORIENTED_EDGE ( 'NONE', *, *, #114, .F. ) ;
#76 = ORIENTED_EDGE ( 'NONE', *, *, #169, .T. ) ;
#77 = ADVANCED_FACE ( 'NONE', ( #321 ), #166, .F. ) ;
#78 = EDGE_CURVE ( 'NONE', #617, #7, #228, .T. ) ;
#79 = DIRECTION ( 'NONE',  ( 0.0000000000000000000, 0.0000000000000000000, -1.000000000000000000 ) ) ;
#80 = ADVANCED_FACE ( 'NONE', ( #280 ), #580, .F. ) ;
#81 = AXIS2_PLACEMENT_3D ( 'NONE', #111, #494, #624 ) ;
#82 = DIRECTION ( 'NONE',  ( 1.000000000000000000, 0.0000000000000000000, 0.0000000000000000000 ) ) ;
#83 = ADVANCED_FACE ( 'NONE', ( #146 ), #61, .F. ) ;
#84 = DIRECTION ( 'NONE',  ( -0.0000000000000000000, 0.0000000000000000000, 1.000000000000000000 ) ) ;
#85 = DIRECTION ( 'NONE',  ( -0.0000000000000000000, -0.0000000000000000000, 1.000000000000000000 ) ) ;
#86 = VERTEX_POINT ( 'NONE', #366 ) ;
#87 = ORIENTED_EDGE ( 'NONE', *, *, #550, .F. ) ;
#88 = COORDINATED_UNIVERSAL_TIME_OFFSET ( 6, 0, .BEHIND. ) ;
#89 = LINE ( 'NONE', #231, #647 ) ;
#90 = APPROVAL_ROLE ( '' ) ;
#91 = CARTESIAN_POINT ( 'NONE',  ( 0.0000000000000000000, 8.372510169389823200E-015, 6.000000000000000000 ) ) ;
#92 = EDGE_CURVE ( 'NONE', #159, #559, #383, .T. ) ;
#93 = VERTEX_POINT ( 'NONE', #209 ) ;
#94 = DIRECTION ( 'NONE',  ( 0.0000000000000000000, 1.000000000000000000, 1.445602896647339200E-016 ) ) ;
#95 = ORIENTED_EDGE ( 'NONE', *, *, #706, .F. ) ;
#96 = CARTESIAN_POINT ( 'NONE',  ( -1.680970813925583900, -1.338892124838662500, 5.831434952634134000 ) ) ;
#97 = CARTESIAN_POINT ( 'NONE',  ( 1.999999999999989600, -1.154700538379258100, 6.000000000000000000 ) ) ;
#98 = CIRCLE ( 'NONE', #164, 6.000000000000000000 ) ;
#99 = CC_DESIGN_APPROVAL ( #399, ( #604 ) ) ;
#100 = CARTESIAN_POINT ( 'NONE',  ( -0.5643101117206851300, -1.983596481850138100, 5.750871006163262000 ) ) ;
#101 = DIRECTION ( 'NONE',  ( -0.5000000000000003300, -0.8660254037844386000, 0.0000000000000000000 ) ) ;
#102 = CARTESIAN_POINT ( 'NONE',  ( 0.0000000000000000000, 8.372510169389823200E-015, 6.000000000000000000 ) ) ;
#103 = ORIENTED_EDGE ( 'NONE', *, *, #199, .F. ) ;
#104 = EDGE_LOOP ( 'NONE', ( #619, #479 ) ) ;
#105 = ORIENTED_EDGE ( 'NONE', *, *, #78, .F. ) ;
#106 = DIRECTION ( 'NONE',  ( 0.0000000000000000000, -1.224646799147353200E-016, 1.000000000000000000 ) ) ;
#107 = CARTESIAN_POINT ( 'NONE',  ( 3.673940397442061800E-016, -3.000000000000002200, 2.699999999999998800 ) ) ;
#108 = CALENDAR_DATE ( 2025, 3, 6 ) ;
#109 = FACE_OUTER_BOUND ( 'NONE', #302, .T. ) ;
#110 = DIRECTION ( 'NONE',  ( 0.0000000000000000000, -1.224646799147353200E-016, 1.000000000000000000 ) ) ;
#111 = CARTESIAN_POINT ( 'NONE',  ( 0.0000000000000000000, 3.000000000000000900, -6.000000000000000000 ) ) ;
#112 = CARTESIAN_POINT ( 'NONE',  ( -1.683947387850583300, 1.337173599081801900, 5.833072410079394000 ) ) ;
#113 = VECTOR ( 'NONE', #220, 1000.000000000000000 ) ;
#114 = EDGE_CURVE ( 'NONE', #641, #276, #340, .T. ) ;
#115 = EDGE_LOOP ( 'NONE', ( #139, #63, #358, #442 ) ) ;
#116 = EDGE_CURVE ( 'NONE', #544, #181, #201, .T. ) ;
#117 = CARTESIAN_POINT ( 'NONE',  ( 0.0000000000000000000, 8.372510169389823200E-015, 6.000000000000000000 ) ) ;
#118 = CARTESIAN_POINT ( 'NONE',  ( 2.000000000000000000, 0.7881141333680596900, 5.832262324725629600 ) ) ;
#119 = CONICAL_SURFACE ( 'NONE', #644, 2.309401076758502000, 0.7853981633974500600 ) ;
#120 = ORIENTED_EDGE ( 'NONE', *, *, #638, .F. ) ;
#121 = ORIENTED_EDGE ( 'NONE', *, *, #416, .F. ) ;
#122 = PLANE ( 'NONE',  #483 ) ;
#123 = CARTESIAN_POINT ( 'NONE',  ( 2.000000000000000000, 8.372510169113750300E-015, 5.690598923241499700 ) ) ;
#124 = AXIS2_PLACEMENT_3D ( 'NONE', #573, #577, #84 ) ;
#125 = ADVANCED_FACE ( 'NONE', ( #157 ), #629, .T. ) ;
#126 = CARTESIAN_POINT ( 'NONE',  ( 0.8204602706418610000, 1.835708118644032000, 5.698919027229108800 ) ) ;
#127 = CIRCLE ( 'NONE', #535, 2.309401076758502000 ) ;
#128 = EDGE_LOOP ( 'NONE', ( #87, #705, #450 ) ) ;
#129 = EDGE_CURVE ( 'NONE', #601, #641, #564, .T. ) ;
#130 = EDGE_CURVE ( 'NONE', #544, #292, #665, .T. ) ;
#131 = PERSON ( 'UNSPECIFIED', 'UNSPECIFIED', 'UNSPECIFIED', ('UNSPECIFIED'), ('UNSPECIFIED'), ('UNSPECIFIED') ) ;
#132 = CARTESIAN_POINT ( 'NONE',  ( -2.000000000000000000, 1.154700538379251900, 3.689999999999999900 ) ) ;
#133 = CARTESIAN_POINT ( 'NONE',  ( 0.0000000000000000000, -8.969091632639786200E-016, 2.699999999999999300 ) ) ;
#134 = PERSON_AND_ORGANIZATION ( #131, #284 ) ;
#135 = LINE ( 'NONE', #539, #613 ) ;
#136 = EDGE_CURVE ( 'NONE', #359, #557, #441, .T. ) ;
#137 = CC_DESIGN_DATE_AND_TIME_ASSIGNMENT ( #353, #147, ( #507 ) ) ;
#138 = VECTOR ( 'NONE', #549, 1000.000000000000000 ) ;
#139 = ORIENTED_EDGE ( 'NONE', *, *, #706, .T. ) ;
#140 = EDGE_LOOP ( 'NONE', ( #240, #576, #602, #407 ) ) ;
#141 = EDGE_CURVE ( 'NONE', #542, #86, #227, .T. ) ;
#142 = DIRECTION ( 'NONE',  ( 0.0000000000000000000, 1.000000000000000000, 1.445602896647338900E-016 ) ) ;
#143 = PERSON_AND_ORGANIZATION ( #131, #284 ) ;
#144 = CYLINDRICAL_SURFACE ( 'NONE', #586, 3.000000000000000900 ) ;
#145 = CARTESIAN_POINT ( 'NONE',  ( 1.214306433183765000E-014, 2.309401076758510900, 6.000000000000000000 ) ) ;
#146 = FACE_OUTER_BOUND ( 'NONE', #128, .T. ) ;
#147 = DATE_TIME_ROLE ( 'classification_date' ) ;
#148 = ORIENTED_EDGE ( 'NONE', *, *, #612, .T. ) ;
#149 = DIRECTION ( 'NONE',  ( 1.000000000000000000, 0.0000000000000000000, 0.0000000000000000000 ) ) ;
#150 = PERSON_AND_ORGANIZATION_ROLE ( 'classification_officer' ) ;
#151 = AXIS2_PLACEMENT_3D ( 'NONE', #600, #4, #323 ) ;
#152 = DIRECTION ( 'NONE',  ( 1.000000000000000000, 0.0000000000000000000, 0.0000000000000000000 ) ) ;
#153 = PERSON_AND_ORGANIZATION ( #131, #284 ) ;
#154 = CARTESIAN_POINT ( 'NONE',  ( -0.1562637621166966800, -2.219182151635844800, 5.909781074877352900 ) ) ;
#155 = AXIS2_PLACEMENT_3D ( 'NONE', #9, #568, #183 ) ;
#156 = APPROVAL_STATUS ( 'not_yet_approved' ) ;
#157 = FACE_OUTER_BOUND ( 'NONE', #523, .T. ) ;
#158 = CARTESIAN_POINT ( 'NONE',  ( 2.000000000000000000, 1.154700538379252100, 3.689999999999999900 ) ) ;
#159 = VERTEX_POINT ( 'NONE', #703 ) ;
#160 = ORIENTED_EDGE ( 'NONE', *, *, #205, .F. ) ;
#161 = CARTESIAN_POINT ( 'NONE',  ( 7.347880794884119700E-016, -6.000000000000000900, 5.699999999999990400 ) ) ;
#162 = PLANE ( 'NONE',  #1 ) ;
#163 = CARTESIAN_POINT ( 'NONE',  ( 2.000000000000000000, 8.372510169113750300E-015, 5.690598923241499700 ) ) ;
#164 = AXIS2_PLACEMENT_3D ( 'NONE', #269, #360, #425 ) ;
#165 = DIRECTION ( 'NONE',  ( -0.0000000000000000000, -0.0000000000000000000, 1.000000000000000000 ) ) ;
#166 = CONICAL_SURFACE ( 'NONE', #259, 2.309401076758502000, 0.7853981633974500600 ) ;
#167 = ORIENTED_EDGE ( 'NONE', *, *, #78, .T. ) ;
#168 = DIRECTION ( 'NONE',  ( 1.000000000000000000, 0.0000000000000000000, 0.0000000000000000000 ) ) ;
#169 = EDGE_CURVE ( 'NONE', #312, #468, #274, .T. ) ;
#170 = CARTESIAN_POINT ( 'NONE',  ( -2.000000000000000000, 1.154700538379251900, 3.689999999999999900 ) ) ;
#171 = DIRECTION ( 'NONE',  ( -0.0000000000000000000, 1.224646799147353200E-016, -1.000000000000000000 ) ) ;
#172 = VECTOR ( 'NONE', #651, 999.9999999999998900 ) ;
#173 = ORIENTED_EDGE ( 'NONE', *, *, #379, .F. ) ;
#174 = PRODUCT_RELATED_PRODUCT_CATEGORY ( 'detail', '', ( #579 ) ) ;
#175 = ORIENTED_EDGE ( 'NONE', *, *, #116, .F. ) ;
#176 = PERSON_AND_ORGANIZATION ( #131, #284 ) ;
#177 = EDGE_CURVE ( 'NONE', #557, #359, #575, .T. ) ;
#178 = CARTESIAN_POINT ( 'NONE',  ( 0.6485067226708508500, 1.934985545853205900, 5.729005241798620100 ) ) ;
#179 = DIRECTION ( 'NONE',  ( 0.0000000000000000000, 1.000000000000000000, 0.0000000000000000000 ) ) ;
#180 = ORIENTED_EDGE ( 'NONE', *, *, #659, .T. ) ;
#181 = VERTEX_POINT ( 'NONE', #38 ) ;
#182 = LOCAL_TIME ( 7, 37, 43.00000000000000000, #670 ) ;
#183 = DIRECTION ( 'NONE',  ( 1.000000000000000000, 0.0000000000000000000, 0.0000000000000000000 ) ) ;
#184 = FACE_OUTER_BOUND ( 'NONE', #329, .T. ) ;
#185 = EDGE_CURVE ( 'NONE', #559, #7, #265, .T. ) ;
#186 = AXIS2_PLACEMENT_3D ( 'NONE', #304, #477, #702 ) ;
#187 = VECTOR ( 'NONE', #595, 1000.000000000000100 ) ;
#188 = EDGE_LOOP ( 'NONE', ( #52, #463, #371, #202 ) ) ;
#189 = CARTESIAN_POINT ( 'NONE',  ( 3.673940397442060900E-016, -3.000000000000000900, -6.000000000000000000 ) ) ;
#190 = CARTESIAN_POINT ( 'NONE',  ( 0.0000000000000000000, -3.000000000000000900, 2.700000000000000600 ) ) ;
#191 = FACE_OUTER_BOUND ( 'NONE', #661, .T. ) ;
#192 = CARTESIAN_POINT ( 'NONE',  ( 0.0000000000000000000, 5.999999999999999100, 5.699999999999992200 ) ) ;
#193 =( NAMED_UNIT ( * ) SI_UNIT ( $, .STERADIAN. ) SOLID_ANGLE_UNIT ( ) );
#194 = ORIENTED_EDGE ( 'NONE', *, *, #603, .T. ) ;
#195 = ORIENTED_EDGE ( 'NONE', *, *, #224, .T. ) ;
#196 = AXIS2_PLACEMENT_3D ( 'NONE', #445, #326, #230 ) ;
#197 = COORDINATED_UNIVERSAL_TIME_OFFSET ( 6, 0, .BEHIND. ) ;
#198 = DIRECTION ( 'NONE',  ( 0.0000000000000000000, 1.000000000000000000, 0.0000000000000000000 ) ) ;
#199 = EDGE_CURVE ( 'NONE', #28, #181, #552, .T. ) ;
#200 = CARTESIAN_POINT ( 'NONE',  ( 1.351493277329141700, -1.529116069284553600, 5.729005241798631700 ) ) ;
#201 = LINE ( 'NONE', #369, #172 ) ;
#202 = ORIENTED_EDGE ( 'NONE', *, *, #520, .F. ) ;
#203 = DIRECTION ( 'NONE',  ( 0.0000000000000000000, -1.000000000000000000, -1.445602896647339200E-016 ) ) ;
#204 = CARTESIAN_POINT ( 'NONE',  ( 0.3190291860744138300, -2.125209490299093700, 5.831434952634136700 ) ) ;
#205 = EDGE_CURVE ( 'NONE', #93, #263, #593, .T. ) ;
#206 = EDGE_CURVE ( 'NONE', #559, #159, #414, .T. ) ;
#207 = AXIS2_PLACEMENT_3D ( 'NONE', #243, #625, #79 ) ;
#208 = PLANE ( 'NONE',  #24 ) ;
#209 = CARTESIAN_POINT ( 'NONE',  ( 0.0000000000000000000, 3.000000000000000000, 2.699999999999999700 ) ) ;
#210 = FACE_OUTER_BOUND ( 'NONE', #115, .T. ) ;
#211 = CARTESIAN_POINT ( 'NONE',  ( -1.821459649775647400E-014, -2.309401076758493600, 6.000000000000000000 ) ) ;
#212 = CARTESIAN_POINT ( 'NONE',  ( -1.821459649775647400E-014, -2.309401076758493600, 6.000000000000000000 ) ) ;
#213 = ORIENTED_EDGE ( 'NONE', *, *, #92, .T. ) ;
#214 = ORIENTED_EDGE ( 'NONE', *, *, #467, .T. ) ;
#215 = CARTESIAN_POINT ( 'NONE',  ( -0.8204602706418711000, -1.835708118644026500, 5.698919027229126600 ) ) ;
#216 = CARTESIAN_POINT ( 'NONE',  ( -0.6574737410325595100, 1.929808435388244500, 5.720701438624382200 ) ) ;
#217 = DIRECTION ( 'NONE',  ( 1.000000000000000000, 0.0000000000000000000, 0.0000000000000000000 ) ) ;
#218 = CALENDAR_DATE ( 2025, 3, 6 ) ;
#219 = COORDINATED_UNIVERSAL_TIME_OFFSET ( 6, 0, .BEHIND. ) ;
#220 = DIRECTION ( 'NONE',  ( -0.0000000000000000000, 1.224646799147353200E-016, -1.000000000000000000 ) ) ;
#221 = APPROVAL ( #361, 'UNSPECIFIED' ) ;
#222 = ORIENTED_EDGE ( 'NONE', *, *, #683, .F. ) ;
#223 = ORIENTED_EDGE ( 'NONE', *, *, #528, .T. ) ;
#224 = EDGE_CURVE ( 'NONE', #516, #617, #692, .T. ) ;
#225 = FACE_OUTER_BOUND ( 'NONE', #229, .T. ) ;
#226 = LINE ( 'NONE', #15, #30 ) ;
#227 = B_SPLINE_CURVE_WITH_KNOTS ( 'NONE', 3,
 ( #97, #478, #700, #475, #200, #589, #642, #299, #538, #204, #592, #211 ),
 .UNSPECIFIED., .F., .F.,
 ( 4, 2, 2, 2, 2, 4 ),
 ( 2.544349856372936300E-007, 0.0005966331004600645900, 0.0008948224331972778300, 0.001193011765934491100, 0.001789390431408917100, 0.002385769096883343200 ),
 .UNSPECIFIED. ) ;
#228 = CIRCLE ( 'NONE', #436, 2.309401076758502000 ) ;
#229 = EDGE_LOOP ( 'NONE', ( #214, #387, #427, #686 ) ) ;
#230 = DIRECTION ( 'NONE',  ( 0.0000000000000000000, 1.000000000000000000, 1.445602896647339200E-016 ) ) ;
#231 = CARTESIAN_POINT ( 'NONE',  ( -2.000000000000000000, -1.154700538379251200, 3.689999999999999900 ) ) ;
#232 = CARTESIAN_POINT ( 'NONE',  ( 0.0000000000000000000, 1.685335519942185500E-016, -6.000000000000000000 ) ) ;
#233 = APPROVAL_DATE_TIME ( #374, #221 ) ;
#234 = B_SPLINE_CURVE_WITH_KNOTS ( 'NONE', 3,
 ( #664, #236, #118, #621, #281, #123 ),
 .UNSPECIFIED., .F., .F.,
 ( 4, 2, 4 ),
 ( 0.001253827683751239100, 0.001851928190344655000, 0.002450028696938071000 ),
 .UNSPECIFIED. ) ;
#235 = CC_DESIGN_DATE_AND_TIME_ASSIGNMENT ( #419, #354, ( #604 ) ) ;
#236 = CARTESIAN_POINT ( 'NONE',  ( 2.000000000000000000, 0.9760416760967178800, 5.910670568858729500 ) ) ;
#237 = DIRECTION ( 'NONE',  ( 0.0000000000000000000, -1.224646799147353200E-016, 1.000000000000000000 ) ) ;
#238 = ORIENTED_EDGE ( 'NONE', *, *, #393, .T. ) ;
#239 = EDGE_CURVE ( 'NONE', #557, #610, #423, .T. ) ;
#240 = ORIENTED_EDGE ( 'NONE', *, *, #616, .F. ) ;
#241 = LINE ( 'NONE', #40, #364 ) ;
#242 = EDGE_CURVE ( 'NONE', #86, #542, #127, .T. ) ;
#243 = CARTESIAN_POINT ( 'NONE',  ( 2.000000000000000000, -1.154700538379252100, 3.689999999999999900 ) ) ;
#244 = CARTESIAN_POINT ( 'NONE',  ( 3.673940397442060900E-016, -3.000000000000000900, -5.099999999999997000 ) ) ;
#245 = PERSON_AND_ORGANIZATION_ROLE ( 'design_owner' ) ;
#246 = CARTESIAN_POINT ( 'NONE',  ( 0.0000000000000000000, 5.831534007095641600E-017, -5.099999999999997000 ) ) ;
#247 = ADVANCED_BREP_SHAPE_REPRESENTATION ( '91294A236_NO THREADS_Black-Oxide Alloy Steel Hex Drive Flat Head Screw', ( #352, #698 ), #320 ) ;
#248 = ORIENTED_EDGE ( 'NONE', *, *, #565, .F. ) ;
#249 = ORIENTED_EDGE ( 'NONE', *, *, #603, .F. ) ;
#250 = DIRECTION ( 'NONE',  ( 0.0000000000000000000, -0.7071067811865486800, 0.7071067811865464600 ) ) ;
#251 = LINE ( 'NONE', #461, #21 ) ;
#252 = FACE_OUTER_BOUND ( 'NONE', #342, .T. ) ;
#253 = DIRECTION ( 'NONE',  ( -0.0000000000000000000, 1.224646799147353200E-016, -1.000000000000000000 ) ) ;
#254 = ORIENTED_EDGE ( 'NONE', *, *, #114, .T. ) ;
#255 = PERSON_AND_ORGANIZATION_ROLE ( 'design_supplier' ) ;
#256 = CIRCLE ( 'NONE', #285, 3.000000000000000900 ) ;
#257 = CARTESIAN_POINT ( 'NONE',  ( -2.000000000000000000, -1.154700538379240800, 6.000000000000000000 ) ) ;
#258 = VECTOR ( 'NONE', #560, 1000.000000000000000 ) ;
#259 = AXIS2_PLACEMENT_3D ( 'NONE', #91, #574, #632 ) ;
#260 = DIRECTION ( 'NONE',  ( -0.8660254037844387100, -0.4999999999999997800, 0.0000000000000000000 ) ) ;
#261 = DIRECTION ( 'NONE',  ( 0.0000000000000000000, -1.224646799147353200E-016, 1.000000000000000000 ) ) ;
#262 = FACE_BOUND ( 'NONE', #514, .T. ) ;
#263 = VERTEX_POINT ( 'NONE', #107 ) ;
#264 = ORIENTED_EDGE ( 'NONE', *, *, #129, .F. ) ;
#265 = B_SPLINE_CURVE_WITH_KNOTS ( 'NONE', 3,
 ( #373, #54, #112, #656, #375, #5, #57, #495, #216, #434, #492, #660 ),
 .UNSPECIFIED., .F., .F.,
 ( 4, 2, 2, 2, 2, 4 ),
 ( 2.544349856185900800E-007, 0.0005966331004600524500, 0.0008948224331972691600, 0.001193011765934485900, 0.001789390431408919500, 0.002385769096883353200 ),
 .UNSPECIFIED. ) ;
#266 = PLANE ( 'NONE',  #631 ) ;
#267 = DIRECTION ( 'NONE',  ( 0.0000000000000000000, -1.224646799147353200E-016, 1.000000000000000000 ) ) ;
#268 = FACE_OUTER_BOUND ( 'NONE', #188, .T. ) ;
#269 = CARTESIAN_POINT ( 'NONE',  ( 0.0000000000000000000, -1.264303203008183700E-015, 5.699999999999991300 ) ) ;
#270 = CARTESIAN_POINT ( 'NONE',  ( 0.0000000000000000000, 5.831534007095641600E-017, -5.099999999999997000 ) ) ;
#271 = VECTOR ( 'NONE', #46, 1000.000000000000000 ) ;
#272 = EDGE_LOOP ( 'NONE', ( #415, #51 ) ) ;
#273 = AXIS2_PLACEMENT_3D ( 'NONE', #102, #540, #149 ) ;
#274 = LINE ( 'NONE', #646, #271 ) ;
#275 = ORIENTED_EDGE ( 'NONE', *, *, #242, .F. ) ;
#276 = VERTEX_POINT ( 'NONE', #547 ) ;
#277 = PERSON_AND_ORGANIZATION ( #131, #284 ) ;
#278 = DIRECTION ( 'NONE',  ( -0.0000000000000000000, 1.224646799147353200E-016, -1.000000000000000000 ) ) ;
#279 = ADVANCED_FACE ( 'NONE', ( #252 ), #531, .F. ) ;
#280 = FACE_OUTER_BOUND ( 'NONE', #655, .T. ) ;
#281 = CARTESIAN_POINT ( 'NONE',  ( 2.000000000000000000, 0.2033615549488403400, 5.690598923241499700 ) ) ;
#282 = ORIENTED_EDGE ( 'NONE', *, *, #11, .T. ) ;
#283 = DIRECTION ( 'NONE',  ( 0.0000000000000000000, 1.000000000000000000, 1.445602896647339200E-016 ) ) ;
#284 = ORGANIZATION ( 'UNSPECIFIED', 'UNSPECIFIED', '' ) ;
#285 = AXIS2_PLACEMENT_3D ( 'NONE', #133, #526, #142 ) ;
#286 = DIRECTION ( 'NONE',  ( -0.0000000000000000000, -0.0000000000000000000, 1.000000000000000000 ) ) ;
#287 = CARTESIAN_POINT ( 'NONE',  ( 0.0000000000000000000, 0.0000000000000000000, 0.0000000000000000000 ) ) ;
#288 = CARTESIAN_POINT ( 'NONE',  ( -3.940233688498104500E-016, -2.309401076758502900, 3.689999999999999900 ) ) ;
#289 = CIRCLE ( 'NONE', #608, 2.309401076758502000 ) ;
#290 = AXIS2_PLACEMENT_3D ( 'NONE', #472, #253, #94 ) ;
#291 = EDGE_LOOP ( 'NONE', ( #328, #566, #195 ) ) ;
#292 = VERTEX_POINT ( 'NONE', #65 ) ;
#293 = APPLICATION_CONTEXT ( 'configuration controlled 3d designs of mechanical parts and assemblies' ) ;
#294 = DIRECTION ( 'NONE',  ( -0.0000000000000000000, -0.0000000000000000000, 1.000000000000000000 ) ) ;
#295 = FACE_OUTER_BOUND ( 'NONE', #596, .T. ) ;
#296 = ORIENTED_EDGE ( 'NONE', *, *, #239, .F. ) ;
#297 = EDGE_CURVE ( 'NONE', #159, #86, #289, .T. ) ;
#298 = VECTOR ( 'NONE', #318, 1000.000000000000100 ) ;
#299 = CARTESIAN_POINT ( 'NONE',  ( 0.8290879766986462000, -1.830726910229657300, 5.690174752043266600 ) ) ;
#300 = EDGE_LOOP ( 'NONE', ( #296, #533, #688, #662 ) ) ;
#301 = CARTESIAN_POINT ( 'NONE',  ( -2.000000000000000000, 0.4011931755287802500, 5.721993068227582100 ) ) ;
#302 = EDGE_LOOP ( 'NONE', ( #282, #121, #95, #75 ) ) ;
#303 = ORIENTED_EDGE ( 'NONE', *, *, #659, .F. ) ;
#304 = CARTESIAN_POINT ( 'NONE',  ( 0.0000000000000000000, 1.685335519942187300E-016, -6.000000000000000000 ) ) ;
#305 = UNCERTAINTY_MEASURE_WITH_UNIT (LENGTH_MEASURE( 1.000000000000000100E-005 ), #684, 'distance_accuracy_value', 'NONE');
#306 = CARTESIAN_POINT ( 'NONE',  ( -2.000000000000000000, -0.7874177377144118100, 5.832047921953559900 ) ) ;
#307 = LINE ( 'NONE', #485, #298 ) ;
#308 = CARTESIAN_POINT ( 'NONE',  ( 2.309401076758502000, 8.372510169389823200E-015, 6.000000000000000000 ) ) ;
#309 = CARTESIAN_POINT ( 'NONE',  ( -2.000000000000004900, 1.154700538379250100, 6.000000000000000000 ) ) ;
#310 = DIRECTION ( 'NONE',  ( 0.0000000000000000000, 0.0000000000000000000, 1.000000000000000000 ) ) ;
#311 = EDGE_LOOP ( 'NONE', ( #469, #449 ) ) ;
#312 = VERTEX_POINT ( 'NONE', #170 ) ;
#313 = AXIS2_PLACEMENT_3D ( 'NONE', #351, #294, #525 ) ;
#314 = PLANE ( 'NONE',  #81 ) ;
#315 = CALENDAR_DATE ( 2025, 3, 6 ) ;
#316 = CONICAL_SURFACE ( 'NONE', #541, 2.100000000000000500, 0.7853981633974466100 ) ;
#317 = PRODUCT_DEFINITION_SHAPE ( 'NONE', 'NONE',  #604 ) ;
#318 = DIRECTION ( 'NONE',  ( 8.659560562354945200E-017, 0.7071067811865483500, 0.7071067811865465700 ) ) ;
#319 = DIRECTION ( 'NONE',  ( 0.0000000000000000000, 1.000000000000000000, 1.445602896647339200E-016 ) ) ;
#320 =( GEOMETRIC_REPRESENTATION_CONTEXT ( 3 ) GLOBAL_UNCERTAINTY_ASSIGNED_CONTEXT ( ( #305 ) ) GLOBAL_UNIT_ASSIGNED_CONTEXT ( ( #684, #345, #193 ) ) REPRESENTATION_CONTEXT ( 'NONE', 'WORKASPACE' ) );
#321 = FACE_OUTER_BOUND ( 'NONE', #104, .T. ) ;
#322 = ORIENTED_EDGE ( 'NONE', *, *, #18, .T. ) ;
#323 = DIRECTION ( 'NONE',  ( 0.0000000000000000000, 1.000000000000000000, 1.445602896647339200E-016 ) ) ;
#324 = CARTESIAN_POINT ( 'NONE',  ( 0.0000000000000000000, 8.372510169389823200E-015, 6.000000000000000000 ) ) ;
#325 = CONICAL_SURFACE ( 'NONE', #529, 3.000000000000000000, 0.7853981633974497200 ) ;
#326 = DIRECTION ( 'NONE',  ( -0.0000000000000000000, 1.224646799147353200E-016, -1.000000000000000000 ) ) ;
#327 = ADVANCED_FACE ( 'NONE', ( #476 ), #119, .F. ) ;
#328 = ORIENTED_EDGE ( 'NONE', *, *, #451, .T. ) ;
#329 = EDGE_LOOP ( 'NONE', ( #588, #194, #424, #367 ) ) ;
#330 = DIRECTION ( 'NONE',  ( -0.0000000000000000000, 1.224646799147353200E-016, -1.000000000000000000 ) ) ;
#331 = B_SPLINE_CURVE_WITH_KNOTS ( 'NONE', 3,
 ( #17, #615, #503, #671, #178, #126, #447, #558, #391, #13, #71, #392 ),
 .UNSPECIFIED., .F., .F.,
 ( 4, 2, 2, 2, 2, 4 ),
 ( 2.544349856280479400E-007, 0.0005966331004600555900, 0.0008948224331972691600, 0.001193011765934483100, 0.001789390431408909300, 0.002385769096883335800 ),
 .UNSPECIFIED. ) ;
#332 = EDGE_CURVE ( 'NONE', #93, #181, #395, .T. ) ;
#333 = DATE_AND_TIME ( #218, #182 ) ;
#334 = DIRECTION ( 'NONE',  ( 0.0000000000000000000, -1.000000000000000000, -1.224646799147353200E-016 ) ) ;
#335 = APPROVAL_DATE_TIME ( #493, #399 ) ;
#336 = ADVANCED_FACE ( 'NONE', ( #676 ), #314, .T. ) ;
#337 = CARTESIAN_POINT ( 'NONE',  ( -2.000000000000000000, -1.154700538379251200, 3.689999999999999900 ) ) ;
#338 = CARTESIAN_POINT ( 'NONE',  ( 2.000000000000000000, -0.7874566122254264000, 5.832064074946183400 ) ) ;
#339 = AXIS2_PLACEMENT_3D ( 'NONE', #691, #101, #695 ) ;
#340 = LINE ( 'NONE', #158, #187 ) ;
#341 = CARTESIAN_POINT ( 'NONE',  ( 0.0000000000000000000, 1.685335519942186000E-016, -6.000000000000000000 ) ) ;
#342 = EDGE_LOOP ( 'NONE', ( #213, #437 ) ) ;
#343 = ADVANCED_FACE ( 'NONE', ( #262, #386 ), #122, .T. ) ;
#344 = APPLICATION_PROTOCOL_DEFINITION ( 'international standard', 'config_control_design', 1994, #680 ) ;
#345 =( NAMED_UNIT ( * ) PLANE_ANGLE_UNIT ( ) SI_UNIT ( $, .RADIAN. ) );
#346 = EDGE_CURVE ( 'NONE', #7, #559, #406, .T. ) ;
#347 = PLANE ( 'NONE',  #207 ) ;
#348 = ADVANCED_FACE ( 'NONE', ( #701 ), #31, .T. ) ;
#349 = ORIENTED_EDGE ( 'NONE', *, *, #404, .T. ) ;
#350 = EDGE_LOOP ( 'NONE', ( #120, #160, #594, #322 ) ) ;
#351 = CARTESIAN_POINT ( 'NONE',  ( 0.0000000000000000000, 8.372510169389823200E-015, 6.000000000000000000 ) ) ;
#352 = MANIFOLD_SOLID_BREP ( 'Cut-Extrude2', #378 ) ;
#353 = DATE_AND_TIME ( #108, #657 ) ;
#354 = DATE_TIME_ROLE ( 'creation_date' ) ;
#355 = PERSON_AND_ORGANIZATION ( #131, #284 ) ;
#356 = CARTESIAN_POINT ( 'NONE',  ( 2.000000000000000000, 1.154700538379252100, 3.689999999999999900 ) ) ;
#357 = CARTESIAN_POINT ( 'NONE',  ( 2.000000000000000000, -1.154700538379252100, 3.689999999999999900 ) ) ;
#358 = ORIENTED_EDGE ( 'NONE', *, *, #467, .F. ) ;
#359 = VERTEX_POINT ( 'NONE', #69 ) ;
#360 = DIRECTION ( 'NONE',  ( -0.0000000000000000000, 1.224646799147353200E-016, -1.000000000000000000 ) ) ;
#361 = APPROVAL_STATUS ( 'not_yet_approved' ) ;
#362 = CARTESIAN_POINT ( 'NONE',  ( 0.0000000000000000000, 1.685335519942186000E-016, -6.000000000000000000 ) ) ;
#363 = CARTESIAN_POINT ( 'NONE',  ( -2.000000000000000000, -0.9757941217863871400, 5.910546791703574800 ) ) ;
#364 = VECTOR ( 'NONE', #707, 1000.000000000000000 ) ;
#365 = CARTESIAN_POINT ( 'NONE',  ( -3.940233688498104500E-016, -2.309401076758502900, 3.689999999999999900 ) ) ;
#366 = CARTESIAN_POINT ( 'NONE',  ( -1.821459649775647400E-014, -2.309401076758493600, 6.000000000000000000 ) ) ;
#367 = ORIENTED_EDGE ( 'NONE', *, *, #19, .F. ) ;
#368 = DIRECTION ( 'NONE',  ( -0.8660254037844386000, 0.5000000000000000000, 0.0000000000000000000 ) ) ;
#369 = CARTESIAN_POINT ( 'NONE',  ( 2.571758278209442900E-016, 2.100000000000000500, -6.000000000000000000 ) ) ;
#370 = EDGE_LOOP ( 'NONE', ( #254, #223, #76, #148, #630, #636 ) ) ;
#371 = ORIENTED_EDGE ( 'NONE', *, *, #584, .F. ) ;
#372 = DIRECTION ( 'NONE',  ( 0.0000000000000000000, -1.224646799147353200E-016, 1.000000000000000000 ) ) ;
#373 = CARTESIAN_POINT ( 'NONE',  ( -2.000000000000004900, 1.154700538379250100, 6.000000000000000000 ) ) ;
#374 = DATE_AND_TIME ( #315, #509 ) ;
#375 = CARTESIAN_POINT ( 'NONE',  ( -1.351493277329150600, 1.529116069284548500, 5.729005241798620100 ) ) ;
#376 = DIRECTION ( 'NONE',  ( 1.000000000000000000, 0.0000000000000000000, 0.0000000000000000000 ) ) ;
#377 = VECTOR ( 'NONE', #250, 1000.000000000000000 ) ;
#378 = CLOSED_SHELL ( 'NONE', ( #48, #521, #410, #572, #348, #456, #336, #480, #466, #125, #343, #532, #679, #583, #80, #666, #537, #627, #77, #611, #83, #474, #279, #327 ) ) ;
#379 = EDGE_CURVE ( 'NONE', #542, #516, #457, .T. ) ;
#380 = AXIS2_PLACEMENT_3D ( 'NONE', #488, #171, #319 ) ;
#381 = APPROVAL_PERSON_ORGANIZATION ( #153, #399, #39 ) ;
#382 = DIRECTION ( 'NONE',  ( 1.000000000000000000, 0.0000000000000000000, 0.0000000000000000000 ) ) ;
#383 = B_SPLINE_CURVE_WITH_KNOTS ( 'NONE', 3,
 ( #421, #363, #306, #534, #597, #530, #301, #708, #429, #309 ),
 .UNSPECIFIED., .F., .F.,
 ( 4, 2, 2, 2, 4 ),
 ( 0.001365665145285313800, 0.001964037490152220100, 0.002562409835019126600, 0.003160782179886033200, 0.003759154524752939700 ),
 .UNSPECIFIED. ) ;
#384 = CC_DESIGN_PERSON_AND_ORGANIZATION_ASSIGNMENT ( #277, #150, ( #507 ) ) ;
#385 = DIRECTION ( 'NONE',  ( 1.000000000000000000, 0.0000000000000000000, 0.0000000000000000000 ) ) ;
#386 = FACE_OUTER_BOUND ( 'NONE', #311, .T. ) ;
#387 = ORIENTED_EDGE ( 'NONE', *, *, #92, .F. ) ;
#388 = CARTESIAN_POINT ( 'NONE',  ( -3.940233688498104500E-016, -2.309401076758502900, 3.689999999999999900 ) ) ;
#389 = ORIENTED_EDGE ( 'NONE', *, *, #561, .F. ) ;
#390 = AXIS2_PLACEMENT_3D ( 'NONE', #246, #35, #519 ) ;
#391 = CARTESIAN_POINT ( 'NONE',  ( 1.342526258967434900, 1.534293179749514100, 5.720701438624383100 ) ) ;
#392 = CARTESIAN_POINT ( 'NONE',  ( 2.000000000000000000, 1.154700538379257700, 6.000000000000000000 ) ) ;
#393 = EDGE_CURVE ( 'NONE', #468, #159, #413, .T. ) ;
#394 = CARTESIAN_POINT ( 'NONE',  ( 0.0000000000000000000, 8.372510169389823200E-015, 6.000000000000000000 ) ) ;
#395 = LINE ( 'NONE', #548, #113 ) ;
#396 = ORIENTED_EDGE ( 'NONE', *, *, #130, .F. ) ;
#397 = DIRECTION ( 'NONE',  ( 1.000000000000000000, 0.0000000000000000000, 0.0000000000000000000 ) ) ;
#398 = CARTESIAN_POINT ( 'NONE',  ( 2.000000000000000000, -0.4015140368782346100, 5.722100486528683300 ) ) ;
#399 = APPROVAL ( #481, 'UNSPECIFIED' ) ;
#400 = DIRECTION ( 'NONE',  ( 0.0000000000000000000, -1.000000000000000000, 0.0000000000000000000 ) ) ;
#401 = LINE ( 'NONE', #189, #454 ) ;
#402 = CARTESIAN_POINT ( 'NONE',  ( 2.000000000000000000, 8.372510169113750300E-015, 5.690598923241499700 ) ) ;
#403 = DIRECTION ( 'NONE',  ( 0.0000000000000000000, 0.0000000000000000000, 1.000000000000000000 ) ) ;
#404 = EDGE_CURVE ( 'NONE', #601, #542, #226, .T. ) ;
#405 = B_SPLINE_CURVE_WITH_KNOTS ( 'NONE', 3,
 ( #212, #154, #420, #100, #490, #215, #653, #599, #482, #96, #591, #257 ),
 .UNSPECIFIED., .F., .F.,
 ( 4, 2, 2, 2, 2, 4 ),
 ( 2.544349856462887500E-007, 0.0005966331004600689300, 0.0008948224331972804300, 0.001193011765934492200, 0.001789390431408915200, 0.002385769096883338400 ),
 .UNSPECIFIED. ) ;
#406 = CIRCLE ( 'NONE', #155, 2.309401076758502000 ) ;
#407 = ORIENTED_EDGE ( 'NONE', *, *, #332, .F. ) ;
#408 = DIRECTION ( 'NONE',  ( -0.0000000000000000000, 1.224646799147353200E-016, -1.000000000000000000 ) ) ;
#409 = ORIENTED_EDGE ( 'NONE', *, *, #130, .T. ) ;
#410 = ADVANCED_FACE ( 'NONE', ( #268 ), #711, .T. ) ;
#411 = CARTESIAN_POINT ( 'NONE',  ( -3.940233688498104500E-016, -2.309401076758502900, 3.689999999999999900 ) ) ;
#412 = VECTOR ( 'NONE', #626, 1000.000000000000000 ) ;
#413 = LINE ( 'NONE', #669, #12 ) ;
#414 = CIRCLE ( 'NONE', #497, 2.309401076758502000 ) ;
#415 = ORIENTED_EDGE ( 'NONE', *, *, #561, .T. ) ;
#416 = EDGE_CURVE ( 'NONE', #7, #617, #331, .T. ) ;
#417 = DIRECTION ( 'NONE',  ( 0.0000000000000000000, 0.0000000000000000000, 1.000000000000000000 ) ) ;
#418 = AXIS2_PLACEMENT_3D ( 'NONE', #270, #110, #438 ) ;
#419 = DATE_AND_TIME ( #569, #58 ) ;
#420 = CARTESIAN_POINT ( 'NONE',  ( -0.3160526121494340900, -2.126928016055942700, 5.833072410079399400 ) ) ;
#421 = CARTESIAN_POINT ( 'NONE',  ( -2.000000000000000000, -1.154700538379240800, 6.000000000000000000 ) ) ;
#422 = CARTESIAN_POINT ( 'NONE',  ( 7.347880794884119700E-016, -6.000000000000001800, 5.999999999999999100 ) ) ;
#423 = LINE ( 'NONE', #432, #138 ) ;
#424 = ORIENTED_EDGE ( 'NONE', *, *, #584, .T. ) ;
#425 = DIRECTION ( 'NONE',  ( 0.0000000000000000000, 1.000000000000000000, 1.445602896647339200E-016 ) ) ;
#426 = CARTESIAN_POINT ( 'NONE',  ( 0.0000000000000000000, 1.685335519942187300E-016, -6.000000000000000000 ) ) ;
#427 = ORIENTED_EDGE ( 'NONE', *, *, #393, .F. ) ;
#428 = DIRECTION ( 'NONE',  ( 0.5000000000000001100, 0.8660254037844387100, 0.0000000000000000000 ) ) ;
#429 = CARTESIAN_POINT ( 'NONE',  ( -2.000000000000000000, 0.9760601099266500400, 5.910679785773697700 ) ) ;
#430 = FACE_OUTER_BOUND ( 'NONE', #300, .T. ) ;
#431 = CARTESIAN_POINT ( 'NONE',  ( 2.000000000000000000, -1.154700538379252100, 3.689999999999999900 ) ) ;
#432 = CARTESIAN_POINT ( 'NONE',  ( 7.347880794884119700E-016, -6.000000000000000000, -6.000000000000000900 ) ) ;
#433 = DIRECTION ( 'NONE',  ( -0.0000000000000000000, -0.0000000000000000000, 1.000000000000000000 ) ) ;
#434 = CARTESIAN_POINT ( 'NONE',  ( -0.3190291860744111600, 2.125209490299095400, 5.831434952634119800 ) ) ;
#435 = LINE ( 'NONE', #190, #377 ) ;
#436 = AXIS2_PLACEMENT_3D ( 'NONE', #32, #417, #152 ) ;
#437 = ORIENTED_EDGE ( 'NONE', *, *, #206, .T. ) ;
#438 = DIRECTION ( 'NONE',  ( 0.0000000000000000000, 1.000000000000000000, 0.0000000000000000000 ) ) ;
#439 = SHAPE_DEFINITION_REPRESENTATION ( #317, #247 ) ;
#440 = CC_DESIGN_PERSON_AND_ORGANIZATION_ASSIGNMENT ( #3, #470, ( #604 ) ) ;
#441 = CIRCLE ( 'NONE', #290, 6.000000000000000000 ) ;
#442 = ORIENTED_EDGE ( 'NONE', *, *, #528, .F. ) ;
#443 = EDGE_LOOP ( 'NONE', ( #587, #491, #41, #524 ) ) ;
#444 = AXIS2_PLACEMENT_3D ( 'NONE', #47, #261, #44 ) ;
#445 = CARTESIAN_POINT ( 'NONE',  ( 0.0000000000000000000, 1.685335519942185500E-016, -6.000000000000000000 ) ) ;
#446 = CYLINDRICAL_SURFACE ( 'NONE', #196, 6.000000000000000000 ) ;
#447 = CARTESIAN_POINT ( 'NONE',  ( 0.9090194280634855700, 1.784578465267450100, 5.690817791225384800 ) ) ;
#448 = DIRECTION ( 'NONE',  ( 0.8660254037844384900, -0.5000000000000001100, 0.0000000000000000000 ) ) ;
#449 = ORIENTED_EDGE ( 'NONE', *, *, #177, .F. ) ;
#450 = ORIENTED_EDGE ( 'NONE', *, *, #379, .T. ) ;
#451 = EDGE_CURVE ( 'NONE', #617, #553, #234, .T. ) ;
#452 = DESIGN_CONTEXT ( 'detailed design', #293, 'design' ) ;
#453 = PERSON_AND_ORGANIZATION ( #131, #284 ) ;
#454 = VECTOR ( 'NONE', #408, 1000.000000000000000 ) ;
#455 = CARTESIAN_POINT ( 'NONE',  ( 2.309401076758502000, 8.372510169389823200E-015, 6.000000000000000000 ) ) ;
#456 = ADVANCED_FACE ( 'NONE', ( #598 ), #144, .T. ) ;
#457 = CIRCLE ( 'NONE', #546, 2.309401076758502000 ) ;
#458 = EDGE_CURVE ( 'NONE', #72, #86, #555, .T. ) ;
#459 = CARTESIAN_POINT ( 'NONE',  ( 1.999999999999989600, -1.154700538379258100, 6.000000000000000000 ) ) ;
#460 = AXIS2_PLACEMENT_3D ( 'NONE', #606, #267, #60 ) ;
#461 = CARTESIAN_POINT ( 'NONE',  ( 0.0000000000000000000, -2.100000000000000500, -6.000000000000000000 ) ) ;
#462 = CIRCLE ( 'NONE', #390, 3.000000000000000900 ) ;
#463 = ORIENTED_EDGE ( 'NONE', *, *, #239, .T. ) ;
#464 = AXIS2_PLACEMENT_3D ( 'NONE', #232, #330, #563 ) ;
#465 = CIRCLE ( 'NONE', #186, 2.100000000000000100 ) ;
#466 = ADVANCED_FACE ( 'NONE', ( #430 ), #446, .T. ) ;
#467 = EDGE_CURVE ( 'NONE', #312, #559, #22, .T. ) ;
#468 = VERTEX_POINT ( 'NONE', #337 ) ;
#469 = ORIENTED_EDGE ( 'NONE', *, *, #136, .F. ) ;
#470 = PERSON_AND_ORGANIZATION_ROLE ( 'creator' ) ;
#471 = CARTESIAN_POINT ( 'NONE',  ( 0.0000000000000000000, 8.372510169389823200E-015, 6.000000000000000000 ) ) ;
#472 = CARTESIAN_POINT ( 'NONE',  ( 0.0000000000000000000, -1.301042606982605300E-015, 6.000000000000000000 ) ) ;
#473 = VECTOR ( 'NONE', #628, 1000.000000000000000 ) ;
#474 = ADVANCED_FACE ( 'NONE', ( #191 ), #633, .F. ) ;
#475 = CARTESIAN_POINT ( 'NONE',  ( 1.435689888279319200, -1.480505133287615100, 5.750871006163262900 ) ) ;
#476 = FACE_OUTER_BOUND ( 'NONE', #543, .T. ) ;
#477 = DIRECTION ( 'NONE',  ( -0.0000000000000000000, 1.224646799147353200E-016, -1.000000000000000000 ) ) ;
#478 = CARTESIAN_POINT ( 'NONE',  ( 1.843736237883309800, -1.244919463501907200, 5.909781074877351200 ) ) ;
#479 = ORIENTED_EDGE ( 'NONE', *, *, #346, .T. ) ;
#480 = ADVANCED_FACE ( 'NONE', ( #295 ), #316, .T. ) ;
#481 = APPROVAL_STATUS ( 'not_yet_approved' ) ;
#482 = CARTESIAN_POINT ( 'NONE',  ( -1.342526258967441200, -1.534293179749509200, 5.720701438624397300 ) ) ;
#483 = AXIS2_PLACEMENT_3D ( 'NONE', #513, #237, #334 ) ;
#484 = CIRCLE ( 'NONE', #151, 6.000000000000000000 ) ;
#485 = CARTESIAN_POINT ( 'NONE',  ( 3.673940397442059900E-016, 2.999999999999999100, 2.700000000000001500 ) ) ;
#486 = DIRECTION ( 'NONE',  ( -0.0000000000000000000, 1.224646799147353200E-016, -1.000000000000000000 ) ) ;
#487 = CARTESIAN_POINT ( 'NONE',  ( 6.737380564357136700E-016, 2.309401076758503400, 3.689999999999999900 ) ) ;
#488 = CARTESIAN_POINT ( 'NONE',  ( 0.0000000000000000000, -1.301042606982605300E-015, 6.000000000000000000 ) ) ;
#489 = ORIENTED_EDGE ( 'NONE', *, *, #346, .F. ) ;
#490 = CARTESIAN_POINT ( 'NONE',  ( -0.6485067226708617300, -1.934985545853199500, 5.729005241798631700 ) ) ;
#491 = ORIENTED_EDGE ( 'NONE', *, *, #141, .F. ) ;
#492 = CARTESIAN_POINT ( 'NONE',  ( -0.1571849286460552700, 2.218650315892150900, 5.909249239133203000 ) ) ;
#493 = DATE_AND_TIME ( #73, #681 ) ;
#494 = DIRECTION ( 'NONE',  ( -0.0000000000000000000, 1.224646799147353200E-016, -1.000000000000000000 ) ) ;
#495 = CARTESIAN_POINT ( 'NONE',  ( -0.8290879766986495300, 1.830726910229655700, 5.690174752043250600 ) ) ;
#496 = LINE ( 'NONE', #356, #712 ) ;
#497 = AXIS2_PLACEMENT_3D ( 'NONE', #654, #310, #710 ) ;
#498 = ORIENTED_EDGE ( 'NONE', *, *, #501, .T. ) ;
#499 = DIRECTION ( 'NONE',  ( 0.0000000000000000000, 0.0000000000000000000, 1.000000000000000000 ) ) ;
#500 = CONICAL_SURFACE ( 'NONE', #502, 2.100000000000000500, 0.7853981633974466100 ) ;
#501 = EDGE_CURVE ( 'NONE', #610, #667, #98, .T. ) ;
#502 = AXIS2_PLACEMENT_3D ( 'NONE', #362, #372, #699 ) ;
#503 = CARTESIAN_POINT ( 'NONE',  ( 0.3160526121494216000, 2.126928016055950700, 5.833072410079389600 ) ) ;
#504 = DIRECTION ( 'NONE',  ( 0.0000000000000000000, 0.0000000000000000000, 1.000000000000000000 ) ) ;
#505 = EDGE_LOOP ( 'NONE', ( #396, #70, #103, #303 ) ) ;
#506 = ORIENTED_EDGE ( 'NONE', *, *, #297, .F. ) ;
#507 = SECURITY_CLASSIFICATION ( '', '', #42 ) ;
#508 = CARTESIAN_POINT ( 'NONE',  ( 0.0000000000000000000, 1.685335519942185500E-016, -6.000000000000000000 ) ) ;
#509 = LOCAL_TIME ( 7, 37, 43.00000000000000000, #55 ) ;
#510 = DIRECTION ( 'NONE',  ( -0.0000000000000000000, -0.0000000000000000000, 1.000000000000000000 ) ) ;
#511 = LINE ( 'NONE', #308, #623 ) ;
#512 = B_SPLINE_CURVE_WITH_KNOTS ( 'NONE', 3,
 ( #402, #581, #398, #338, #517, #459 ),
 .UNSPECIFIED., .F., .F.,
 ( 4, 2, 4 ),
 ( 0.002450028696938071000, 0.003048005780792949700, 0.003645982864647828000 ),
 .UNSPECIFIED. ) ;
#513 = CARTESIAN_POINT ( 'NONE',  ( 0.0000000000000000000, -1.301042606982605300E-015, 6.000000000000000000 ) ) ;
#514 = EDGE_LOOP ( 'NONE', ( #105, #704, #173, #275, #506, #34, #489 ) ) ;
#515 = DIRECTION ( 'NONE',  ( 0.0000000000000000000, -1.224646799147353200E-016, 1.000000000000000000 ) ) ;
#516 = VERTEX_POINT ( 'NONE', #455 ) ;
#517 = CARTESIAN_POINT ( 'NONE',  ( 2.000000000000000000, -0.9758125830635393500, 5.910556022342148300 ) ) ;
#518 = FACE_OUTER_BOUND ( 'NONE', #652, .T. ) ;
#519 = DIRECTION ( 'NONE',  ( 0.0000000000000000000, 1.000000000000000000, 0.0000000000000000000 ) ) ;
#520 = EDGE_CURVE ( 'NONE', #359, #667, #241, .T. ) ;
#521 = ADVANCED_FACE ( 'NONE', ( #184 ), #325, .T. ) ;
#522 = DIRECTION ( 'NONE',  ( 1.000000000000000000, 0.0000000000000000000, -0.0000000000000000000 ) ) ;
#523 = EDGE_LOOP ( 'NONE', ( #249, #16, #677, #498 ) ) ;
#524 = ORIENTED_EDGE ( 'NONE', *, *, #693, .F. ) ;
#525 = DIRECTION ( 'NONE',  ( 1.000000000000000000, 0.0000000000000000000, 0.0000000000000000000 ) ) ;
#526 = DIRECTION ( 'NONE',  ( 0.0000000000000000000, -1.224646799147353200E-016, 1.000000000000000000 ) ) ;
#527 = LINE ( 'NONE', #570, #473 ) ;
#528 = EDGE_CURVE ( 'NONE', #276, #312, #135, .T. ) ;
#529 = AXIS2_PLACEMENT_3D ( 'NONE', #74, #106, #203 ) ;
#530 = CARTESIAN_POINT ( 'NONE',  ( -2.000000000000000400, 0.2034641785594617200, 5.690611726846077200 ) ) ;
#531 = CONICAL_SURFACE ( 'NONE', #571, 2.309401076758502000, 0.7853981633974500600 ) ;
#532 = ADVANCED_FACE ( 'NONE', ( #109 ), #208, .F. ) ;
#533 = ORIENTED_EDGE ( 'NONE', *, *, #177, .T. ) ;
#534 = CARTESIAN_POINT ( 'NONE',  ( -1.999999999999999600, -0.4014334230123955400, 5.722082596207896700 ) ) ;
#535 = AXIS2_PLACEMENT_3D ( 'NONE', #471, #605, #376 ) ;
#536 = CARTESIAN_POINT ( 'NONE',  ( 2.000000000000000000, 1.154700538379252100, 3.689999999999999900 ) ) ;
#537 = ADVANCED_FACE ( 'NONE', ( #210 ), #162, .F. ) ;
#538 = CARTESIAN_POINT ( 'NONE',  ( 0.6574737410325579600, -1.929808435388245400, 5.720701438624398200 ) ) ;
#539 = CARTESIAN_POINT ( 'NONE',  ( 6.737380564357136700E-016, 2.309401076758503400, 3.689999999999999900 ) ) ;
#540 = DIRECTION ( 'NONE',  ( -0.0000000000000000000, -0.0000000000000000000, 1.000000000000000000 ) ) ;
#541 = AXIS2_PLACEMENT_3D ( 'NONE', #341, #515, #400 ) ;
#542 = VERTEX_POINT ( 'NONE', #709 ) ;
#543 = EDGE_LOOP ( 'NONE', ( #26, #167 ) ) ;
#544 = VERTEX_POINT ( 'NONE', #650 ) ;
#545 = DIRECTION ( 'NONE',  ( 0.7071067811865487900, 0.0000000000000000000, 0.7071067811865463500 ) ) ;
#546 = AXIS2_PLACEMENT_3D ( 'NONE', #394, #504, #385 ) ;
#547 = CARTESIAN_POINT ( 'NONE',  ( 6.737380564357136700E-016, 2.309401076758503400, 3.689999999999999900 ) ) ;
#548 = CARTESIAN_POINT ( 'NONE',  ( 0.0000000000000000000, 3.000000000000000900, -6.000000000000000000 ) ) ;
#549 = DIRECTION ( 'NONE',  ( -0.0000000000000000000, 1.224646799147353200E-016, -1.000000000000000000 ) ) ;
#550 = EDGE_CURVE ( 'NONE', #553, #516, #511, .T. ) ;
#551 = CARTESIAN_POINT ( 'NONE',  ( 0.0000000000000000000, 8.372510169389823200E-015, 6.000000000000000000 ) ) ;
#552 = CIRCLE ( 'NONE', #418, 3.000000000000000900 ) ;
#553 = VERTEX_POINT ( 'NONE', #163 ) ;
#554 = AXIS2_PLACEMENT_3D ( 'NONE', #67, #278, #283 ) ;
#555 = LINE ( 'NONE', #388, #258 ) ;
#556 = AXIS2_PLACEMENT_3D ( 'NONE', #426, #486, #198 ) ;
#557 = VERTEX_POINT ( 'NONE', #422 ) ;
#558 = CARTESIAN_POINT ( 'NONE',  ( 1.170912023301346800, 1.633374704908101800, 5.690174752043252400 ) ) ;
#559 = VERTEX_POINT ( 'NONE', #645 ) ;
#560 = DIRECTION ( 'NONE',  ( -0.0000000000000000000, -0.0000000000000000000, 1.000000000000000000 ) ) ;
#561 = EDGE_CURVE ( 'NONE', #86, #159, #405, .T. ) ;
#562 = APPROVAL_PERSON_ORGANIZATION ( #134, #689, #90 ) ;
#563 = DIRECTION ( 'NONE',  ( 0.0000000000000000000, 1.000000000000000000, 0.0000000000000000000 ) ) ;
#564 = LINE ( 'NONE', #357, #685 ) ;
#565 = EDGE_CURVE ( 'NONE', #292, #544, #465, .T. ) ;
#566 = ORIENTED_EDGE ( 'NONE', *, *, #550, .T. ) ;
#567 = CC_DESIGN_PERSON_AND_ORGANIZATION_ASSIGNMENT ( #355, #245, ( #579 ) ) ;
#568 = DIRECTION ( 'NONE',  ( 0.0000000000000000000, 0.0000000000000000000, 1.000000000000000000 ) ) ;
#569 = CALENDAR_DATE ( 2025, 3, 6 ) ;
#570 = CARTESIAN_POINT ( 'NONE',  ( 6.737380564357136700E-016, 2.309401076758503400, 3.689999999999999900 ) ) ;
#571 = AXIS2_PLACEMENT_3D ( 'NONE', #324, #433, #168 ) ;
#572 = ADVANCED_FACE ( 'NONE', ( #697 ), #500, .T. ) ;
#573 = CARTESIAN_POINT ( 'NONE',  ( -2.000000000000000000, 1.154700538379251900, 3.689999999999999900 ) ) ;
#574 = DIRECTION ( 'NONE',  ( -0.0000000000000000000, -0.0000000000000000000, 1.000000000000000000 ) ) ;
#575 = CIRCLE ( 'NONE', #380, 6.000000000000000000 ) ;
#576 = ORIENTED_EDGE ( 'NONE', *, *, #638, .T. ) ;
#577 = DIRECTION ( 'NONE',  ( -1.000000000000000000, 0.0000000000000000000, -0.0000000000000000000 ) ) ;
#578 = ORIENTED_EDGE ( 'NONE', *, *, #612, .F. ) ;
#579 = PRODUCT ( '91294A236_NO THREADS_Black-Oxide Alloy Steel Hex Drive Flat Head Screw', '91294A236_NO THREADS_Black-Oxide Alloy Steel Hex Drive Flat Head Screw', '', ( #27 ) ) ;
#580 = PLANE ( 'NONE',  #339 ) ;
#581 = CARTESIAN_POINT ( 'NONE',  ( 2.000000000000000000, -0.2033195896942413000, 5.690598923241500600 ) ) ;
#582 = APPROVAL_PERSON_ORGANIZATION ( #453, #221, #640 ) ;
#583 = ADVANCED_FACE ( 'NONE', ( #36 ), #266, .F. ) ;
#584 = EDGE_CURVE ( 'NONE', #667, #610, #484, .T. ) ;
#585 = PLANE ( 'NONE',  #124 ) ;
#586 = AXIS2_PLACEMENT_3D ( 'NONE', #508, #674, #179 ) ;
#587 = ORIENTED_EDGE ( 'NONE', *, *, #458, .T. ) ;
#588 = ORIENTED_EDGE ( 'NONE', *, *, #616, .T. ) ;
#589 = CARTESIAN_POINT ( 'NONE',  ( 1.179539729358131600, -1.628393496493727700, 5.698919027229123000 ) ) ;
#590 = AXIS2_PLACEMENT_3D ( 'NONE', #20, #286, #397 ) ;
#591 = CARTESIAN_POINT ( 'NONE',  ( -1.842815071353937700, -1.245451299245607900, 5.909249239133212800 ) ) ;
#592 = CARTESIAN_POINT ( 'NONE',  ( 0.1571849286460599800, -2.218650315892147300, 5.909249239133216300 ) ) ;
#593 = CIRCLE ( 'NONE', #460, 3.000000000000000900 ) ;
#594 = ORIENTED_EDGE ( 'NONE', *, *, #332, .T. ) ;
#595 = DIRECTION ( 'NONE',  ( -0.8660254037844386000, 0.5000000000000001100, 0.0000000000000000000 ) ) ;
#596 = EDGE_LOOP ( 'NONE', ( #175, #248, #180, #10 ) ) ;
#597 = CARTESIAN_POINT ( 'NONE',  ( -2.000000000000000000, -0.2032123884490439600, 5.690586127561703100 ) ) ;
#598 = FACE_OUTER_BOUND ( 'NONE', #350, .T. ) ;
#599 = CARTESIAN_POINT ( 'NONE',  ( -1.170912023301353700, -1.633374704908096400, 5.690174752043264800 ) ) ;
#600 = CARTESIAN_POINT ( 'NONE',  ( 0.0000000000000000000, -1.264303203008183700E-015, 5.699999999999991300 ) ) ;
#601 = VERTEX_POINT ( 'NONE', #431 ) ;
#602 = ORIENTED_EDGE ( 'NONE', *, *, #199, .T. ) ;
#603 = EDGE_CURVE ( 'NONE', #93, #667, #307, .T. ) ;
#604 = PRODUCT_DEFINITION ( 'UNKNOWN', '', #639, #452 ) ;
#605 = DIRECTION ( 'NONE',  ( 0.0000000000000000000, 0.0000000000000000000, 1.000000000000000000 ) ) ;
#606 = CARTESIAN_POINT ( 'NONE',  ( 0.0000000000000000000, -8.969091632639786200E-016, 2.699999999999999300 ) ) ;
#607 = LINE ( 'NONE', #288, #663 ) ;
#608 = AXIS2_PLACEMENT_3D ( 'NONE', #117, #499, #217 ) ;
#609 = FACE_OUTER_BOUND ( 'NONE', #291, .T. ) ;
#610 = VERTEX_POINT ( 'NONE', #161 ) ;
#611 = ADVANCED_FACE ( 'NONE', ( #637 ), #672, .F. ) ;
#612 = EDGE_CURVE ( 'NONE', #468, #72, #89, .T. ) ;
#613 = VECTOR ( 'NONE', #260, 1000.000000000000100 ) ;
#614 = CC_DESIGN_PERSON_AND_ORGANIZATION_ASSIGNMENT ( #143, #255, ( #639 ) ) ;
#615 = CARTESIAN_POINT ( 'NONE',  ( 0.1562637621166834700, 2.219182151635853600, 5.909781074877345800 ) ) ;
#616 = EDGE_CURVE ( 'NONE', #263, #93, #256, .T. ) ;
#617 = VERTEX_POINT ( 'NONE', #620 ) ;
#618 = DIRECTION ( 'NONE',  ( -0.0000000000000000000, -0.0000000000000000000, 1.000000000000000000 ) ) ;
#619 = ORIENTED_EDGE ( 'NONE', *, *, #185, .T. ) ;
#620 = CARTESIAN_POINT ( 'NONE',  ( 2.000000000000000000, 1.154700538379257700, 6.000000000000000000 ) ) ;
#621 = CARTESIAN_POINT ( 'NONE',  ( 2.000000000000000000, 0.4011124465748354700, 5.721975164325197500 ) ) ;
#622 = APPROVAL_DATE_TIME ( #333, #689 ) ;
#623 = VECTOR ( 'NONE', #545, 1000.000000000000000 ) ;
#624 = DIRECTION ( 'NONE',  ( 0.0000000000000000000, 1.000000000000000000, 1.224646799147353200E-016 ) ) ;
#625 = DIRECTION ( 'NONE',  ( 1.000000000000000000, -0.0000000000000000000, 0.0000000000000000000 ) ) ;
#626 = DIRECTION ( 'NONE',  ( -0.0000000000000000000, -0.0000000000000000000, 1.000000000000000000 ) ) ;
#627 = ADVANCED_FACE ( 'NONE', ( #66 ), #59, .T. ) ;
#628 = DIRECTION ( 'NONE',  ( -0.0000000000000000000, -0.0000000000000000000, 1.000000000000000000 ) ) ;
#629 = CONICAL_SURFACE ( 'NONE', #444, 3.000000000000000000, 0.7853981633974497200 ) ;
#630 = ORIENTED_EDGE ( 'NONE', *, *, #693, .T. ) ;
#631 = AXIS2_PLACEMENT_3D ( 'NONE', #365, #49, #45 ) ;
#632 = DIRECTION ( 'NONE',  ( 1.000000000000000000, 0.0000000000000000000, 0.0000000000000000000 ) ) ;
#633 = CONICAL_SURFACE ( 'NONE', #590, 2.309401076758502000, 0.7853981633974500600 ) ;
#634 = DIRECTION ( 'NONE',  ( 0.0000000000000000000, -0.7071067811865464600, 0.7071067811865486800 ) ) ;
#635 = ORIENTED_EDGE ( 'NONE', *, *, #242, .T. ) ;
#636 = ORIENTED_EDGE ( 'NONE', *, *, #129, .T. ) ;
#637 = FACE_OUTER_BOUND ( 'NONE', #272, .T. ) ;
#638 = EDGE_CURVE ( 'NONE', #263, #28, #401, .T. ) ;
#639 = PRODUCT_DEFINITION_FORMATION_WITH_SPECIFIED_SOURCE ( 'ANY', '', #579, .NOT_KNOWN. ) ;
#640 = APPROVAL_ROLE ( '' ) ;
#641 = VERTEX_POINT ( 'NONE', #23 ) ;
#642 = CARTESIAN_POINT ( 'NONE',  ( 1.090980571936507100, -1.679523149870308900, 5.690817791225399000 ) ) ;
#643 = EDGE_LOOP ( 'NONE', ( #8, #409 ) ) ;
#644 = AXIS2_PLACEMENT_3D ( 'NONE', #551, #165, #382 ) ;
#645 = CARTESIAN_POINT ( 'NONE',  ( -2.000000000000004900, 1.154700538379250100, 6.000000000000000000 ) ) ;
#646 = CARTESIAN_POINT ( 'NONE',  ( -2.000000000000000000, 1.154700538379251900, 3.689999999999999900 ) ) ;
#647 = VECTOR ( 'NONE', #448, 1000.000000000000200 ) ;
#648 = DIRECTION ( 'NONE',  ( -0.4999999999999998300, 0.8660254037844388200, 0.0000000000000000000 ) ) ;
#649 = DIRECTION ( 'NONE',  ( 0.0000000000000000000, 1.000000000000000000, 0.0000000000000000000 ) ) ;
#650 = CARTESIAN_POINT ( 'NONE',  ( 3.122849337825751400E-016, 2.100000000000000100, -6.000000000000000000 ) ) ;
#651 = DIRECTION ( 'NONE',  ( 8.659560562354919300E-017, 0.7071067811865462400, 0.7071067811865489100 ) ) ;
#652 = EDGE_LOOP ( 'NONE', ( #349, #222, #43, #33, #264 ) ) ;
#653 = CARTESIAN_POINT ( 'NONE',  ( -0.9090194280634950100, -1.784578465267445000, 5.690817791225399900 ) ) ;
#654 = CARTESIAN_POINT ( 'NONE',  ( 0.0000000000000000000, 8.372510169389823200E-015, 6.000000000000000000 ) ) ;
#655 = EDGE_LOOP ( 'NONE', ( #238, #389, #694, #578 ) ) ;
#656 = CARTESIAN_POINT ( 'NONE',  ( -1.435689888279328500, 1.480505133287608900, 5.750871006163251300 ) ) ;
#657 = LOCAL_TIME ( 7, 37, 43.00000000000000000, #88 ) ;
#658 = DIRECTION ( 'NONE',  ( 0.0000000000000000000, 0.0000000000000000000, 1.000000000000000000 ) ) ;
#659 = EDGE_CURVE ( 'NONE', #292, #28, #251, .T. ) ;
#660 = CARTESIAN_POINT ( 'NONE',  ( 1.214306433183765000E-014, 2.309401076758510900, 6.000000000000000000 ) ) ;
#661 = EDGE_LOOP ( 'NONE', ( #668, #635 ) ) ;
#662 = ORIENTED_EDGE ( 'NONE', *, *, #501, .F. ) ;
#663 = VECTOR ( 'NONE', #682, 1000.000000000000100 ) ;
#664 = CARTESIAN_POINT ( 'NONE',  ( 2.000000000000000000, 1.154700538379257700, 6.000000000000000000 ) ) ;
#665 = CIRCLE ( 'NONE', #556, 2.100000000000000100 ) ;
#666 = ADVANCED_FACE ( 'NONE', ( #225 ), #585, .F. ) ;
#667 = VERTEX_POINT ( 'NONE', #192 ) ;
#668 = ORIENTED_EDGE ( 'NONE', *, *, #141, .T. ) ;
#669 = CARTESIAN_POINT ( 'NONE',  ( -2.000000000000000000, -1.154700538379251200, 3.689999999999999900 ) ) ;
#670 = COORDINATED_UNIVERSAL_TIME_OFFSET ( 6, 0, .BEHIND. ) ;
#671 = CARTESIAN_POINT ( 'NONE',  ( 0.5643101117206736900, 1.983596481850145000, 5.750871006163250400 ) ) ;
#672 = CONICAL_SURFACE ( 'NONE', #14, 2.309401076758502000, 0.7853981633974500600 ) ;
#673 = CARTESIAN_POINT ( 'NONE',  ( 0.0000000000000000000, 0.0000000000000000000, 3.689999999999999900 ) ) ;
#674 = DIRECTION ( 'NONE',  ( -0.0000000000000000000, 1.224646799147353200E-016, -1.000000000000000000 ) ) ;
#675 = CC_DESIGN_APPROVAL ( #221, ( #639 ) ) ;
#676 = FACE_OUTER_BOUND ( 'NONE', #643, .T. ) ;
#677 = ORIENTED_EDGE ( 'NONE', *, *, #19, .T. ) ;
#678 = DIRECTION ( 'NONE',  ( 0.0000000000000000000, 0.0000000000000000000, 1.000000000000000000 ) ) ;
#679 = ADVANCED_FACE ( 'NONE', ( #518 ), #347, .F. ) ;
#680 = APPLICATION_CONTEXT ( 'configuration controlled 3d designs of mechanical parts and assemblies' ) ;
#681 = LOCAL_TIME ( 7, 37, 43.00000000000000000, #219 ) ;
#682 = DIRECTION ( 'NONE',  ( 0.8660254037844388200, 0.4999999999999996100, 0.0000000000000000000 ) ) ;
#683 = EDGE_CURVE ( 'NONE', #553, #542, #512, .T. ) ;
#684 =( LENGTH_UNIT ( ) NAMED_UNIT ( * ) SI_UNIT ( .MILLI., .METRE. ) );
#685 = VECTOR ( 'NONE', #649, 1000.000000000000000 ) ;
#686 = ORIENTED_EDGE ( 'NONE', *, *, #169, .F. ) ;
#687 = CC_DESIGN_PERSON_AND_ORGANIZATION_ASSIGNMENT ( #176, #690, ( #639 ) ) ;
#688 = ORIENTED_EDGE ( 'NONE', *, *, #520, .T. ) ;
#689 = APPROVAL ( #156, 'UNSPECIFIED' ) ;
#690 = PERSON_AND_ORGANIZATION_ROLE ( 'creator' ) ;
#691 = CARTESIAN_POINT ( 'NONE',  ( -2.000000000000000000, -1.154700538379251200, 3.689999999999999900 ) ) ;
#692 = CIRCLE ( 'NONE', #68, 2.309401076758502000 ) ;
#693 = EDGE_CURVE ( 'NONE', #72, #601, #607, .T. ) ;
#694 = ORIENTED_EDGE ( 'NONE', *, *, #458, .F. ) ;
#695 = DIRECTION ( 'NONE',  ( 0.8660254037844384900, -0.5000000000000002200, 0.0000000000000000000 ) ) ;
#696 = DIRECTION ( 'NONE',  ( -0.8660254037844387100, -0.4999999999999997800, 0.0000000000000000000 ) ) ;
#697 = FACE_OUTER_BOUND ( 'NONE', #505, .T. ) ;
#698 = AXIS2_PLACEMENT_3D ( 'NONE', #287, #403, #82 ) ;
#699 = DIRECTION ( 'NONE',  ( 0.0000000000000000000, -1.000000000000000000, 0.0000000000000000000 ) ) ;
#700 = CARTESIAN_POINT ( 'NONE',  ( 1.683947387850571500, -1.337173599081809700, 5.833072410079398500 ) ) ;
#701 = FACE_OUTER_BOUND ( 'NONE', #140, .T. ) ;
#702 = DIRECTION ( 'NONE',  ( 0.0000000000000000000, 1.000000000000000000, 0.0000000000000000000 ) ) ;
#703 = CARTESIAN_POINT ( 'NONE',  ( -2.000000000000000000, -1.154700538379240800, 6.000000000000000000 ) ) ;
#704 = ORIENTED_EDGE ( 'NONE', *, *, #224, .F. ) ;
#705 = ORIENTED_EDGE ( 'NONE', *, *, #683, .T. ) ;
#706 = EDGE_CURVE ( 'NONE', #276, #7, #527, .T. ) ;
#707 = DIRECTION ( 'NONE',  ( -0.0000000000000000000, 1.224646799147353200E-016, -1.000000000000000000 ) ) ;
#708 = CARTESIAN_POINT ( 'NONE',  ( -2.000000000000000400, 0.7881531954031750800, 5.832278560259393200 ) ) ;
#709 = CARTESIAN_POINT ( 'NONE',  ( 1.999999999999989600, -1.154700538379258100, 6.000000000000000000 ) ) ;
#710 = DIRECTION ( 'NONE',  ( 1.000000000000000000, 0.0000000000000000000, 0.0000000000000000000 ) ) ;
#711 = CYLINDRICAL_SURFACE ( 'NONE', #554, 6.000000000000000000 ) ;
#712 = VECTOR ( 'NONE', #85, 1000.000000000000000 ) ;
ENDSEC;
END-ISO-10303-21;
