ISO-10303-21;
HEADER;
FILE_DESCRIPTION (( 'STEP AP203' ),
    '1' );
FILE_NAME ('91294A287_NO THREADS_Black-Oxide Alloy Steel Hex Drive Flat Head Screw.STEP',
    '2025-06-03T12:38:53',
    ( 'Administrator' ),
    ( 'Managed by Terraform' ),
    'SwSTEP 2.0',
    'SolidWorks 2017',
    '' );
FILE_SCHEMA (( 'CONFIG_CONTROL_DESIGN' ));
ENDSEC;

DATA;
#1 = EDGE_CURVE ( 'NONE', #200, #292, #649, .T. ) ;
#2 = ORIENTED_EDGE ( 'NONE', *, *, #219, .F. ) ;
#3 = DIRECTION ( 'NONE',  ( -0.0000000000000000000, 1.224646799147353200E-016, -1.000000000000000000 ) ) ;
#4 = EDGE_CURVE ( 'NONE', #604, #280, #503, .T. ) ;
#5 = ORIENTED_EDGE ( 'NONE', *, *, #124, .T. ) ;
#6 = CYLINDRICAL_SURFACE ( 'NONE', #697, 4.000000000000000000 ) ;
#7 = CARTESIAN_POINT ( 'NONE',  ( -2.500000000000000000, -1.443375672974054800, 15.00000000000000000 ) ) ;
#8 = ADVANCED_FACE ( 'NONE', ( #488 ), #455, .F. ) ;
#9 = LINE ( 'NONE', #502, #460 ) ;
#10 = ORIENTED_EDGE ( 'NONE', *, *, #320, .T. ) ;
#11 = PRODUCT_RELATED_PRODUCT_CATEGORY ( 'detail', '', ( #252 ) ) ;
#12 = CARTESIAN_POINT ( 'NONE',  ( -2.500000000000000900, 0.9851914942539681300, 14.79034820032424200 ) ) ;
#13 = APPROVAL_DATE_TIME ( #405, #322 ) ;
#14 = CARTESIAN_POINT ( 'NONE',  ( -2.500000000000000000, -1.443375672974064800, 11.91999999999999800 ) ) ;
#15 = ORIENTED_EDGE ( 'NONE', *, *, #328, .T. ) ;
#16 = AXIS2_PLACEMENT_3D ( 'NONE', #632, #263, #310 ) ;
#17 = FACE_OUTER_BOUND ( 'NONE', #645, .T. ) ;
#18 = CARTESIAN_POINT ( 'NONE',  ( 0.0000000000000000000, -2.800000000000008300, -15.00000000000000000 ) ) ;
#19 = B_SPLINE_CURVE_WITH_KNOTS ( 'NONE', 3,
 ( #613, #519, #463, #406, #69, #671 ),
 .UNSPECIFIED., .F., .F.,
 ( 4, 2, 4 ),
 ( 0.001567284604689051000, 0.002314910237930821600, 0.003062535871172592700 ),
 .UNSPECIFIED. ) ;
#20 = DIRECTION ( 'NONE',  ( -0.0000000000000000000, 1.224646799147353200E-016, -1.000000000000000000 ) ) ;
#21 = CARTESIAN_POINT ( 'NONE',  ( 0.0000000000000000000, -4.000000000000001800, 10.59999999999999800 ) ) ;
#22 = CARTESIAN_POINT ( 'NONE',  ( -2.101213256461276700, -1.673615306705401200, 14.78929360685184900 ) ) ;
#23 = VECTOR ( 'NONE', #413, 1000.000000000000000 ) ;
#24 = CARTESIAN_POINT ( 'NONE',  ( 2.499999999999999600, 1.443375672974070500, 15.00000000000000000 ) ) ;
#25 = DIRECTION ( 'NONE',  ( -0.0000000000000000000, 1.224646799147353200E-016, -1.000000000000000000 ) ) ;
#26 = VERTEX_POINT ( 'NONE', #496 ) ;
#27 = CARTESIAN_POINT ( 'NONE',  ( 1.105886215935214500E-014, 2.886751345948135300, 15.00000000000000000 ) ) ;
#28 = ORIENTED_EDGE ( 'NONE', *, *, #636, .F. ) ;
#29 = CARTESIAN_POINT ( 'NONE',  ( 0.0000000000000000000, -2.469511555465218800E-015, 15.00000000000000000 ) ) ;
#30 = EDGE_CURVE ( 'NONE', #298, #292, #317, .T. ) ;
#31 = CARTESIAN_POINT ( 'NONE',  ( 2.304669858771498900, -1.556149582593187700, 14.88722609038088200 ) ) ;
#32 = PERSON_AND_ORGANIZATION ( #305, #549 ) ;
#33 = ORIENTED_EDGE ( 'NONE', *, *, #30, .T. ) ;
#34 = CARTESIAN_POINT ( 'NONE',  ( 0.0000000000000000000, 7.270328050157205300E-015, 15.00000000000000000 ) ) ;
#35 = PLANE ( 'NONE',  #510 ) ;
#36 = DIRECTION ( 'NONE',  ( -0.0000000000000000000, 1.224646799147353200E-016, -1.000000000000000000 ) ) ;
#37 = VECTOR ( 'NONE', #229, 999.9999999999998900 ) ;
#38 = CC_DESIGN_PERSON_AND_ORGANIZATION_ASSIGNMENT ( #221, #440, ( #386 ) ) ;
#39 = DIRECTION ( 'NONE',  ( 1.000000000000000000, 0.0000000000000000000, 0.0000000000000000000 ) ) ;
#40 = APPROVAL_ROLE ( '' ) ;
#41 = CARTESIAN_POINT ( 'NONE',  ( 0.0000000000000000000, -1.930666963840383600E-015, 10.59999999999999800 ) ) ;
#42 = EDGE_CURVE ( 'NONE', #86, #96, #9, .T. ) ;
#43 = ORIENTED_EDGE ( 'NONE', *, *, #68, .T. ) ;
#44 = DATE_TIME_ROLE ( 'classification_date' ) ;
#45 = EDGE_CURVE ( 'NONE', #528, #214, #160, .T. ) ;
#46 = CONICAL_SURFACE ( 'NONE', #619, 2.886751345948127800, 0.7853981633974500600 ) ;
#47 = APPROVAL_DATE_TIME ( #709, #631 ) ;
#48 = CC_DESIGN_PERSON_AND_ORGANIZATION_ASSIGNMENT ( #591, #691, ( #252 ) ) ;
#49 = ADVANCED_FACE ( 'NONE', ( #291 ), #127, .F. ) ;
#50 = EDGE_LOOP ( 'NONE', ( #693, #465, #343 ) ) ;
#51 = CIRCLE ( 'NONE', #167, 2.800000000000009600 ) ;
#52 = ORIENTED_EDGE ( 'NONE', *, *, #1, .T. ) ;
#53 = ORIENTED_EDGE ( 'NONE', *, *, #608, .T. ) ;
#54 = CARTESIAN_POINT ( 'NONE',  ( -2.304669858771510900, 1.556149582593181700, 14.88722609038088500 ) ) ;
#55 = DIRECTION ( 'NONE',  ( -0.0000000000000000000, 1.224646799147353200E-016, -1.000000000000000000 ) ) ;
#56 = VECTOR ( 'NONE', #234, 1000.000000000000000 ) ;
#57 = DIRECTION ( 'NONE',  ( -0.0000000000000000000, 0.0000000000000000000, 1.000000000000000000 ) ) ;
#58 = CARTESIAN_POINT ( 'NONE',  ( 4.568976219386127800E-016, 2.886751345948129500, 11.91999999999999800 ) ) ;
#59 = DATE_AND_TIME ( #375, #72 ) ;
#60 = AXIS2_PLACEMENT_3D ( 'NONE', #232, #3, #618 ) ;
#61 = DIRECTION ( 'NONE',  ( -0.0000000000000000000, -0.0000000000000000000, 1.000000000000000000 ) ) ;
#62 = ORIENTED_EDGE ( 'NONE', *, *, #392, .F. ) ;
#63 = EDGE_LOOP ( 'NONE', ( #274, #354, #132, #535 ) ) ;
#64 = DIRECTION ( 'NONE',  ( -0.0000000000000000000, 1.224646799147353200E-016, -1.000000000000000000 ) ) ;
#65 = VECTOR ( 'NONE', #525, 1000.000000000000100 ) ;
#66 = ADVANCED_FACE ( 'NONE', ( #174 ), #46, .F. ) ;
#67 = DIRECTION ( 'NONE',  ( 1.000000000000000000, 0.0000000000000000000, 0.0000000000000000000 ) ) ;
#68 = EDGE_CURVE ( 'NONE', #26, #366, #626, .T. ) ;
#69 = CARTESIAN_POINT ( 'NONE',  ( 2.499999999999998700, 0.2542019436860471500, 14.61324865405187100 ) ) ;
#70 = EDGE_LOOP ( 'NONE', ( #486, #213, #52, #587 ) ) ;
#71 = DIRECTION ( 'NONE',  ( -0.0000000000000000000, 1.224646799147353200E-016, -1.000000000000000000 ) ) ;
#72 = LOCAL_TIME ( 7, 38, 53.00000000000000000, #395 ) ;
#73 = DIRECTION ( 'NONE',  ( 0.0000000000000000000, 1.000000000000000000, 0.0000000000000000000 ) ) ;
#74 = ORIENTED_EDGE ( 'NONE', *, *, #624, .T. ) ;
#75 = B_SPLINE_CURVE_WITH_KNOTS ( 'NONE', 3,
 ( #118, #54, #609, #504, #560, #668, #398, #342, #407, #80, #473, #27 ),
 .UNSPECIFIED., .F., .F.,
 ( 4, 2, 2, 2, 2, 4 ),
 ( 2.544340436198811400E-007, 0.0007457281437449369300, 0.001118464998595596000, 0.001491201853446254800, 0.002236675563147572900, 0.002982149272848891000 ),
 .UNSPECIFIED. ) ;
#76 = CARTESIAN_POINT ( 'NONE',  ( 0.0000000000000000000, 7.270328050157205300E-015, 15.00000000000000000 ) ) ;
#77 = DIRECTION ( 'NONE',  ( -0.0000000000000000000, 1.224646799147353200E-016, -1.000000000000000000 ) ) ;
#78 = LINE ( 'NONE', #534, #521 ) ;
#79 = DIRECTION ( 'NONE',  ( 0.0000000000000000000, 1.000000000000000000, 0.0000000000000000000 ) ) ;
#80 = CARTESIAN_POINT ( 'NONE',  ( -0.3987867435387187400, 2.656511712216795800, 14.78929360685184100 ) ) ;
#81 = ORIENTED_EDGE ( 'NONE', *, *, #301, .F. ) ;
#82 = CARTESIAN_POINT ( 'NONE',  ( 4.163799117101006500E-016, 2.800000000000010900, -15.00000000000000000 ) ) ;
#83 = CARTESIAN_POINT ( 'NONE',  ( -2.500000000000000000, -1.443375672974064800, 11.91999999999999800 ) ) ;
#84 = CARTESIAN_POINT ( 'NONE',  ( 9.797174393178825700E-016, -8.000000000000001800, 14.59999999999998500 ) ) ;
#85 = EDGE_LOOP ( 'NONE', ( #650, #506, #28, #120, #371, #429, #148 ) ) ;
#86 = VERTEX_POINT ( 'NONE', #389 ) ;
#87 = PLANE ( 'NONE',  #293 ) ;
#88 = CARTESIAN_POINT ( 'NONE',  ( 1.474423942660126900, -2.035492285753675000, 14.62364870297387900 ) ) ;
#89 = VECTOR ( 'NONE', #579, 999.9999999999998900 ) ;
#90 = APPLICATION_PROTOCOL_DEFINITION ( 'international standard', 'config_control_design', 1994, #327 ) ;
#91 = VERTEX_POINT ( 'NONE', #114 ) ;
#92 = CARTESIAN_POINT ( 'NONE',  ( 1.105886215935214500E-014, 2.886751345948135300, 15.00000000000000000 ) ) ;
#93 = AXIS2_PLACEMENT_3D ( 'NONE', #258, #20, #79 ) ;
#94 = CARTESIAN_POINT ( 'NONE',  ( -6.108638033469113400E-016, -2.886751345948129100, 11.91999999999999800 ) ) ;
#95 = DIRECTION ( 'NONE',  ( 0.0000000000000000000, 1.000000000000000000, 0.0000000000000000000 ) ) ;
#96 = VERTEX_POINT ( 'NONE', #129 ) ;
#97 = DIRECTION ( 'NONE',  ( 0.0000000000000000000, 0.0000000000000000000, 1.000000000000000000 ) ) ;
#98 = CIRCLE ( 'NONE', #652, 2.886751345948127800 ) ;
#99 = APPROVAL_ROLE ( '' ) ;
#100 = LOCAL_TIME ( 7, 38, 53.00000000000000000, #110 ) ;
#101 = PERSON_AND_ORGANIZATION_ROLE ( 'creator' ) ;
#102 = ORIENTED_EDGE ( 'NONE', *, *, #351, .F. ) ;
#103 = ORIENTED_EDGE ( 'NONE', *, *, #183, .F. ) ;
#104 = AXIS2_PLACEMENT_3D ( 'NONE', #472, #360, #141 ) ;
#105 = LINE ( 'NONE', #245, #37 ) ;
#106 = CONICAL_SURFACE ( 'NONE', #282, 2.886751345948127800, 0.7853981633974500600 ) ;
#107 = ORIENTED_EDGE ( 'NONE', *, *, #306, .T. ) ;
#108 = ADVANCED_FACE ( 'NONE', ( #692 ), #362, .T. ) ;
#109 = EDGE_CURVE ( 'NONE', #257, #366, #196, .T. ) ;
#110 = COORDINATED_UNIVERSAL_TIME_OFFSET ( 6, 0, .BEHIND. ) ;
#111 = AXIS2_PLACEMENT_3D ( 'NONE', #29, #150, #261 ) ;
#112 = CARTESIAN_POINT ( 'NONE',  ( 0.0000000000000000000, 7.270328050157205300E-015, 15.00000000000000000 ) ) ;
#113 = CIRCLE ( 'NONE', #368, 2.886751345948127800 ) ;
#114 = CARTESIAN_POINT ( 'NONE',  ( -2.500000000000000000, 1.443375672974065700, 11.91999999999999800 ) ) ;
#115 = AXIS2_PLACEMENT_3D ( 'NONE', #616, #294, #414 ) ;
#116 = CARTESIAN_POINT ( 'NONE',  ( 0.0000000000000000000, 4.000000000000000900, -15.00000000000000000 ) ) ;
#117 = CARTESIAN_POINT ( 'NONE',  ( 0.0000000000000000000, 7.270328050157205300E-015, 15.00000000000000000 ) ) ;
#118 = CARTESIAN_POINT ( 'NONE',  ( -2.500000000000004000, 1.443375672974063200, 15.00000000000000000 ) ) ;
#119 = EDGE_LOOP ( 'NONE', ( #367, #165, #209, #559 ) ) ;
#120 = ORIENTED_EDGE ( 'NONE', *, *, #683, .F. ) ;
#121 = CARTESIAN_POINT ( 'NONE',  ( -6.108638033469113400E-016, -2.886751345948129100, 11.91999999999999800 ) ) ;
#122 = CARTESIAN_POINT ( 'NONE',  ( 0.0000000000000000000, -2.420525683499323400E-015, 14.59999999999998700 ) ) ;
#123 = LINE ( 'NONE', #533, #23 ) ;
#124 = EDGE_CURVE ( 'NONE', #96, #309, #612, .T. ) ;
#125 = CARTESIAN_POINT ( 'NONE',  ( -2.500000000000000400, 0.5014914694109736700, 14.65249133528447900 ) ) ;
#126 = ADVANCED_FACE ( 'NONE', ( #339 ), #106, .F. ) ;
#127 = CONICAL_SURFACE ( 'NONE', #481, 2.886751345948127800, 0.7853981633974500600 ) ;
#128 = ORIENTED_EDGE ( 'NONE', *, *, #320, .F. ) ;
#129 = CARTESIAN_POINT ( 'NONE',  ( -6.108638033469113400E-016, -2.886751345948129100, 11.91999999999999800 ) ) ;
#130 = DIRECTION ( 'NONE',  ( -0.0000000000000000000, -0.0000000000000000000, 1.000000000000000000 ) ) ;
#131 = APPROVAL_PERSON_ORGANIZATION ( #431, #346, #381 ) ;
#132 = ORIENTED_EDGE ( 'NONE', *, *, #239, .F. ) ;
#133 = AXIS2_PLACEMENT_3D ( 'NONE', #83, #582, #260 ) ;
#134 = PLANE ( 'NONE',  #337 ) ;
#135 = DIRECTION ( 'NONE',  ( 0.0000000000000000000, 1.000000000000000000, 2.168404344971008900E-016 ) ) ;
#136 = VECTOR ( 'NONE', #456, 1000.000000000000000 ) ;
#137 = B_SPLINE_CURVE_WITH_KNOTS ( 'NONE', 3,
 ( #637, #31, #138, #314, #422, #88, #479, #589, #416, #520, #426, #576 ),
 .UNSPECIFIED., .F., .F.,
 ( 4, 2, 2, 2, 2, 4 ),
 ( 2.544340436361638100E-007, 0.0007457281437449471200, 0.001118464998595603300, 0.001491201853446259600, 0.002236675563147571100, 0.002982149272848883600 ),
 .UNSPECIFIED. ) ;
#138 = CARTESIAN_POINT ( 'NONE',  ( 2.104933473583870700, -1.671467438348227100, 14.79134017728669500 ) ) ;
#139 = ADVANCED_FACE ( 'NONE', ( #443 ), #134, .F. ) ;
#140 = DIRECTION ( 'NONE',  ( -0.0000000000000000000, -0.0000000000000000000, 1.000000000000000000 ) ) ;
#141 = DIRECTION ( 'NONE',  ( 1.000000000000000000, 0.0000000000000000000, 0.0000000000000000000 ) ) ;
#142 = PLANE ( 'NONE',  #133 ) ;
#143 = ORIENTED_EDGE ( 'NONE', *, *, #408, .F. ) ;
#144 = LINE ( 'NONE', #21, #89 ) ;
#145 = CARTESIAN_POINT ( 'NONE',  ( 0.0000000000000000000, 3.999999999999998200, 10.59999999999999800 ) ) ;
#146 = CARTESIAN_POINT ( 'NONE',  ( -1.678158113524843300, -1.917866307361806700, 14.65087689166704600 ) ) ;
#147 = LINE ( 'NONE', #674, #566 ) ;
#148 = ORIENTED_EDGE ( 'NONE', *, *, #4, .F. ) ;
#149 = DIRECTION ( 'NONE',  ( -0.0000000000000000000, 1.224646799147353200E-016, -1.000000000000000000 ) ) ;
#150 = DIRECTION ( 'NONE',  ( 0.0000000000000000000, -1.224646799147353200E-016, 1.000000000000000000 ) ) ;
#151 = PERSON_AND_ORGANIZATION ( #305, #549 ) ;
#152 = CARTESIAN_POINT ( 'NONE',  ( 0.0000000000000000000, 0.0000000000000000000, 11.91999999999999800 ) ) ;
#153 = EDGE_LOOP ( 'NONE', ( #404, #391, #103, #634 ) ) ;
#154 = PLANE ( 'NONE',  #401 ) ;
#155 = CONICAL_SURFACE ( 'NONE', #115, 2.886751345948127800, 0.7853981633974500600 ) ;
#156 = DIRECTION ( 'NONE',  ( 0.0000000000000000000, 0.0000000000000000000, 1.000000000000000000 ) ) ;
#157 = EDGE_CURVE ( 'NONE', #517, #214, #147, .T. ) ;
#158 = ORIENTED_EDGE ( 'NONE', *, *, #344, .T. ) ;
#159 = LINE ( 'NONE', #482, #468 ) ;
#160 = LINE ( 'NONE', #663, #278 ) ;
#161 = ORIENTED_EDGE ( 'NONE', *, *, #374, .T. ) ;
#162 = EDGE_CURVE ( 'NONE', #214, #292, #427, .T. ) ;
#163 = EDGE_LOOP ( 'NONE', ( #617, #279 ) ) ;
#164 = APPROVAL_PERSON_ORGANIZATION ( #418, #322, #99 ) ;
#165 = ORIENTED_EDGE ( 'NONE', *, *, #667, .T. ) ;
#166 = CARTESIAN_POINT ( 'NONE',  ( 0.0000000000000000000, 7.270328050157205300E-015, 15.00000000000000000 ) ) ;
#167 = AXIS2_PLACEMENT_3D ( 'NONE', #622, #349, #300 ) ;
#168 = CYLINDRICAL_SURFACE ( 'NONE', #458, 8.000000000000000000 ) ;
#169 = CARTESIAN_POINT ( 'NONE',  ( 4.898587196589412800E-016, -3.999999999999999100, -15.00000000000000000 ) ) ;
#170 = DIRECTION ( 'NONE',  ( 0.0000000000000000000, -1.224646799147353200E-016, 1.000000000000000000 ) ) ;
#171 = DIRECTION ( 'NONE',  ( 0.8660254037844387100, -0.5000000000000001100, 0.0000000000000000000 ) ) ;
#172 = CARTESIAN_POINT ( 'NONE',  ( -2.500000000000000000, -0.2540154855613069300, 14.61323265945212700 ) ) ;
#173 = CARTESIAN_POINT ( 'NONE',  ( 0.0000000000000000000, -1.930666963840383600E-015, 10.59999999999999800 ) ) ;
#174 = FACE_OUTER_BOUND ( 'NONE', #163, .T. ) ;
#175 = DIRECTION ( 'NONE',  ( -0.0000000000000000000, 1.224646799147353200E-016, -1.000000000000000000 ) ) ;
#176 = AXIS2_PLACEMENT_3D ( 'NONE', #166, #281, #223 ) ;
#177 = ADVANCED_FACE ( 'NONE', ( #330 ), #543, .T. ) ;
#178 = ORIENTED_EDGE ( 'NONE', *, *, #636, .T. ) ;
#179 = DIRECTION ( 'NONE',  ( 0.0000000000000000000, 0.0000000000000000000, 1.000000000000000000 ) ) ;
#180 = DIRECTION ( 'NONE',  ( 0.0000000000000000000, -1.000000000000000000, 0.0000000000000000000 ) ) ;
#181 = CARTESIAN_POINT ( 'NONE',  ( -2.500000000000000000, -0.9842721721430177700, 14.79005990244194600 ) ) ;
#182 = CIRCLE ( 'NONE', #60, 8.000000000000000000 ) ;
#183 = EDGE_CURVE ( 'NONE', #86, #447, #448, .T. ) ;
#184 = CARTESIAN_POINT ( 'NONE',  ( 0.0000000000000000000, 4.000000000000000900, -13.80000000000000100 ) ) ;
#185 = DIRECTION ( 'NONE',  ( 0.0000000000000000000, 1.000000000000000000, 0.0000000000000000000 ) ) ;
#186 = CARTESIAN_POINT ( 'NONE',  ( 4.568976219386127800E-016, 2.886751345948129500, 11.91999999999999800 ) ) ;
#187 = ORIENTED_EDGE ( 'NONE', *, *, #430, .F. ) ;
#188 = B_SPLINE_CURVE_WITH_KNOTS ( 'NONE', 3,
 ( #92, #538, #526, #198, #695, #437, #197, #584, #480, #202, #484, #365 ),
 .UNSPECIFIED., .F., .F.,
 ( 4, 2, 2, 2, 2, 4 ),
 ( 2.544340436291266700E-007, 0.0007457281437449421400, 0.001118464998595598100, 0.001491201853446254100, 0.002236675563147565100, 0.002982149272848875800 ),
 .UNSPECIFIED. ) ;
#189 = AXIS2_PLACEMENT_3D ( 'NONE', #564, #179, #67 ) ;
#190 = CARTESIAN_POINT ( 'NONE',  ( 2.499999999999999600, 1.443375672974065700, 11.91999999999999800 ) ) ;
#191 = CARTESIAN_POINT ( 'NONE',  ( 0.0000000000000000000, 7.270328050157205300E-015, 15.00000000000000000 ) ) ;
#192 = CARTESIAN_POINT ( 'NONE',  ( 0.0000000000000000000, 1.204428841976840200E-015, -15.00000000000000000 ) ) ;
#193 = CARTESIAN_POINT ( 'NONE',  ( -0.8106343009612431100, -2.418731414073810500, 14.66125635044878100 ) ) ;
#194 = DIRECTION ( 'NONE',  ( 0.0000000000000000000, 0.0000000000000000000, 1.000000000000000000 ) ) ;
#195 = CARTESIAN_POINT ( 'NONE',  ( -1.025576057339875300, -2.294634733168516800, 14.62364870297387800 ) ) ;
#196 = LINE ( 'NONE', #469, #56 ) ;
#197 = CARTESIAN_POINT ( 'NONE',  ( 1.136274879960275100, 2.230722738129655700, 14.61352220515647100 ) ) ;
#198 = CARTESIAN_POINT ( 'NONE',  ( 0.7053885464011681000, 2.479495078800137100, 14.68858849909669600 ) ) ;
#199 = EDGE_CURVE ( 'NONE', #505, #26, #19, .T. ) ;
#200 = VERTEX_POINT ( 'NONE', #18 ) ;
#201 = DIRECTION ( 'NONE',  ( 0.0000000000000000000, 1.000000000000000000, 2.168404344971008900E-016 ) ) ;
#202 = CARTESIAN_POINT ( 'NONE',  ( 2.101213256461272700, 1.673615306705403400, 14.78929360685183300 ) ) ;
#203 = CIRCLE ( 'NONE', #435, 8.000000000000000000 ) ;
#204 = CARTESIAN_POINT ( 'NONE',  ( 0.0000000000000000000, 7.270328050157205300E-015, 15.00000000000000000 ) ) ;
#205 = AXIS2_PLACEMENT_3D ( 'NONE', #450, #500, #57 ) ;
#206 = ORIENTED_EDGE ( 'NONE', *, *, #301, .T. ) ;
#207 = DIRECTION ( 'NONE',  ( 1.000000000000000000, 0.0000000000000000000, -0.0000000000000000000 ) ) ;
#208 =( NAMED_UNIT ( * ) PLANE_ANGLE_UNIT ( ) SI_UNIT ( $, .RADIAN. ) );
#209 = ORIENTED_EDGE ( 'NONE', *, *, #374, .F. ) ;
#210 = APPROVAL_STATUS ( 'not_yet_approved' ) ;
#211 = CONICAL_SURFACE ( 'NONE', #262, 2.800000000000010000, 0.7853981633974450600 ) ;
#212 = LOCAL_TIME ( 7, 38, 53.00000000000000000, #285 ) ;
#213 = ORIENTED_EDGE ( 'NONE', *, *, #306, .F. ) ;
#214 = VERTEX_POINT ( 'NONE', #184 ) ;
#215 = AXIS2_PLACEMENT_3D ( 'NONE', #173, #563, #180 ) ;
#216 = ADVANCED_FACE ( 'NONE', ( #276 ), #240, .T. ) ;
#217 = LINE ( 'NONE', #577, #712 ) ;
#218 = ORIENTED_EDGE ( 'NONE', *, *, #655, .T. ) ;
#219 = EDGE_CURVE ( 'NONE', #292, #214, #457, .T. ) ;
#220 = ADVANCED_FACE ( 'NONE', ( #302 ), #565, .F. ) ;
#221 = PERSON_AND_ORGANIZATION ( #305, #549 ) ;
#222 = ORIENTED_EDGE ( 'NONE', *, *, #489, .T. ) ;
#223 = DIRECTION ( 'NONE',  ( 1.000000000000000000, 0.0000000000000000000, 0.0000000000000000000 ) ) ;
#224 = AXIS2_PLACEMENT_3D ( 'NONE', #508, #170, #467 ) ;
#225 = FACE_OUTER_BOUND ( 'NONE', #513, .T. ) ;
#226 = ORIENTED_EDGE ( 'NONE', *, *, #199, .F. ) ;
#227 = DIRECTION ( 'NONE',  ( 1.000000000000000000, 0.0000000000000000000, 0.0000000000000000000 ) ) ;
#228 = DIRECTION ( 'NONE',  ( 0.0000000000000000000, -0.7071067811865453500, 0.7071067811865497900 ) ) ;
#229 = DIRECTION ( 'NONE',  ( -0.8660254037844387100, 0.4999999999999999400, 0.0000000000000000000 ) ) ;
#230 = DESIGN_CONTEXT ( 'detailed design', #327, 'design' ) ;
#231 = EDGE_CURVE ( 'NONE', #309, #447, #518, .T. ) ;
#232 = CARTESIAN_POINT ( 'NONE',  ( 0.0000000000000000000, -2.469511555465218800E-015, 15.00000000000000000 ) ) ;
#233 = DATE_AND_TIME ( #662, #495 ) ;
#234 = DIRECTION ( 'NONE',  ( -0.0000000000000000000, -0.0000000000000000000, 1.000000000000000000 ) ) ;
#235 = EDGE_LOOP ( 'NONE', ( #206, #666, #161, #548 ) ) ;
#236 = ORIENTED_EDGE ( 'NONE', *, *, #552, .F. ) ;
#237 = CARTESIAN_POINT ( 'NONE',  ( 2.499999999999991600, -1.443375672974070100, 15.00000000000000000 ) ) ;
#238 = ADVANCED_FACE ( 'NONE', ( #483 ), #155, .F. ) ;
#239 = EDGE_CURVE ( 'NONE', #91, #280, #313, .T. ) ;
#240 = CYLINDRICAL_SURFACE ( 'NONE', #542, 8.000000000000000000 ) ;
#241 = DIRECTION ( 'NONE',  ( -0.4999999999999997800, 0.8660254037844388200, 0.0000000000000000000 ) ) ;
#242 = DIRECTION ( 'NONE',  ( -1.502314598737158300E-016, 1.000000000000000000, 0.0000000000000000000 ) ) ;
#243 = CARTESIAN_POINT ( 'NONE',  ( 2.499999999999999600, 1.443375672974065700, 11.91999999999999800 ) ) ;
#244 = EDGE_LOOP ( 'NONE', ( #530, #383, #226, #384, #62 ) ) ;
#245 = CARTESIAN_POINT ( 'NONE',  ( 2.499999999999999600, 1.443375672974065700, 11.91999999999999800 ) ) ;
#246 = AXIS2_PLACEMENT_3D ( 'NONE', #299, #575, #249 ) ;
#247 = CARTESIAN_POINT ( 'NONE',  ( 0.0000000000000000000, 7.270328050157205300E-015, 15.00000000000000000 ) ) ;
#248 = VERTEX_POINT ( 'NONE', #311 ) ;
#249 = DIRECTION ( 'NONE',  ( 0.0000000000000000000, 1.000000000000000000, 0.0000000000000000000 ) ) ;
#250 = VECTOR ( 'NONE', #175, 1000.000000000000000 ) ;
#251 = ORIENTED_EDGE ( 'NONE', *, *, #219, .T. ) ;
#252 = PRODUCT ( '91294A287_NO THREADS_Black-Oxide Alloy Steel Hex Drive Flat Head Screw', '91294A287_NO THREADS_Black-Oxide Alloy Steel Hex Drive Flat Head Screw', '', ( #643 ) ) ;
#253 = DIRECTION ( 'NONE',  ( 0.0000000000000000000, 1.000000000000000000, 0.0000000000000000000 ) ) ;
#254 = CARTESIAN_POINT ( 'NONE',  ( 0.0000000000000000000, 1.204428841976840200E-015, -15.00000000000000000 ) ) ;
#255 = CARTESIAN_POINT ( 'NONE',  ( 2.500000000000000000, -1.443375672974065200, 11.91999999999999800 ) ) ;
#256 = ORIENTED_EDGE ( 'NONE', *, *, #271, .T. ) ;
#257 = VERTEX_POINT ( 'NONE', #255 ) ;
#258 = CARTESIAN_POINT ( 'NONE',  ( 0.0000000000000000000, 1.204428841976840200E-015, -15.00000000000000000 ) ) ;
#259 = CYLINDRICAL_SURFACE ( 'NONE', #646, 4.000000000000000000 ) ;
#260 = DIRECTION ( 'NONE',  ( 0.8660254037844386000, -0.5000000000000000000, 0.0000000000000000000 ) ) ;
#261 = DIRECTION ( 'NONE',  ( 0.0000000000000000000, -1.000000000000000000, -1.224646799147353200E-016 ) ) ;
#262 = AXIS2_PLACEMENT_3D ( 'NONE', #531, #593, #700 ) ;
#263 = DIRECTION ( 'NONE',  ( 0.0000000000000000000, 0.0000000000000000000, 1.000000000000000000 ) ) ;
#264 = EDGE_LOOP ( 'NONE', ( #592, #567, #102, #654 ) ) ;
#265 = ORIENTED_EDGE ( 'NONE', *, *, #655, .F. ) ;
#266 =( LENGTH_UNIT ( ) NAMED_UNIT ( * ) SI_UNIT ( .MILLI., .METRE. ) );
#267 = DIRECTION ( 'NONE',  ( -0.0000000000000000000, -0.0000000000000000000, 1.000000000000000000 ) ) ;
#268 = EDGE_CURVE ( 'NONE', #603, #505, #113, .T. ) ;
#269 = PERSON_AND_ORGANIZATION_ROLE ( 'creator' ) ;
#270 = FACE_OUTER_BOUND ( 'NONE', #295, .T. ) ;
#271 = EDGE_CURVE ( 'NONE', #248, #651, #436, .T. ) ;
#272 = PERSON_AND_ORGANIZATION_ROLE ( 'design_supplier' ) ;
#273 = EDGE_CURVE ( 'NONE', #605, #505, #217, .T. ) ;
#274 = ORIENTED_EDGE ( 'NONE', *, *, #351, .T. ) ;
#275 = EDGE_LOOP ( 'NONE', ( #598, #288, #2, #478 ) ) ;
#276 = FACE_OUTER_BOUND ( 'NONE', #119, .T. ) ;
#277 = EDGE_CURVE ( 'NONE', #298, #545, #144, .T. ) ;
#278 = VECTOR ( 'NONE', #607, 1000.000000000000100 ) ;
#279 = ORIENTED_EDGE ( 'NONE', *, *, #4, .T. ) ;
#280 = VERTEX_POINT ( 'NONE', #689 ) ;
#281 = DIRECTION ( 'NONE',  ( 0.0000000000000000000, 0.0000000000000000000, 1.000000000000000000 ) ) ;
#282 = AXIS2_PLACEMENT_3D ( 'NONE', #247, #61, #514 ) ;
#283 = FACE_OUTER_BOUND ( 'NONE', #321, .T. ) ;
#284 = DIRECTION ( 'NONE',  ( -0.0000000000000000000, -0.0000000000000000000, 1.000000000000000000 ) ) ;
#285 = COORDINATED_UNIVERSAL_TIME_OFFSET ( 6, 0, .BEHIND. ) ;
#286 = CARTESIAN_POINT ( 'NONE',  ( 2.500000000000000000, -0.9843207652817826900, 14.79008009368273100 ) ) ;
#287 = CARTESIAN_POINT ( 'NONE',  ( -2.500000000000000000, -1.219742652232988200, 14.88818348962946600 ) ) ;
#288 = ORIENTED_EDGE ( 'NONE', *, *, #45, .T. ) ;
#289 = CARTESIAN_POINT ( 'NONE',  ( 2.499999999999999600, -0.2541494871178046100, 14.61324865405187400 ) ) ;
#290 = FACE_OUTER_BOUND ( 'NONE', #350, .T. ) ;
#291 = FACE_OUTER_BOUND ( 'NONE', #707, .T. ) ;
#292 = VERTEX_POINT ( 'NONE', #633 ) ;
#293 = AXIS2_PLACEMENT_3D ( 'NONE', #434, #325, #378 ) ;
#294 = DIRECTION ( 'NONE',  ( -0.0000000000000000000, -0.0000000000000000000, 1.000000000000000000 ) ) ;
#295 = EDGE_LOOP ( 'NONE', ( #628, #265, #432, #580 ) ) ;
#296 = CARTESIAN_POINT ( 'NONE',  ( -2.500000000000000000, -1.443375672974054800, 15.00000000000000000 ) ) ;
#297 = ADVANCED_FACE ( 'NONE', ( #17 ), #142, .F. ) ;
#298 = VERTEX_POINT ( 'NONE', #428 ) ;
#299 = CARTESIAN_POINT ( 'NONE',  ( 0.0000000000000000000, 1.057471226079158300E-015, -13.80000000000000100 ) ) ;
#300 = DIRECTION ( 'NONE',  ( 0.0000000000000000000, 1.000000000000000000, 0.0000000000000000000 ) ) ;
#301 = EDGE_CURVE ( 'NONE', #298, #517, #509, .T. ) ;
#302 = FACE_OUTER_BOUND ( 'NONE', #63, .T. ) ;
#303 = CARTESIAN_POINT ( 'NONE',  ( 2.499999999999991600, -1.443375672974070100, 15.00000000000000000 ) ) ;
#304 = DIRECTION ( 'NONE',  ( 0.0000000000000000000, -1.224646799147353200E-016, 1.000000000000000000 ) ) ;
#305 = PERSON ( 'UNSPECIFIED', 'UNSPECIFIED', 'UNSPECIFIED', ('UNSPECIFIED'), ('UNSPECIFIED'), ('UNSPECIFIED') ) ;
#306 = EDGE_CURVE ( 'NONE', #200, #528, #51, .T. ) ;
#307 = CARTESIAN_POINT ( 'NONE',  ( 0.0000000000000000000, 7.999999999999998200, 14.59999999999998900 ) ) ;
#308 = DIRECTION ( 'NONE',  ( -0.0000000000000000000, -0.0000000000000000000, 1.000000000000000000 ) ) ;
#309 = VERTEX_POINT ( 'NONE', #623 ) ;
#310 = DIRECTION ( 'NONE',  ( 1.000000000000000000, 0.0000000000000000000, 0.0000000000000000000 ) ) ;
#311 = CARTESIAN_POINT ( 'NONE',  ( 9.797174393178825700E-016, -8.000000000000001800, 14.99999999999999800 ) ) ;
#312 = AXIS2_PLACEMENT_3D ( 'NONE', #76, #194, #581 ) ;
#313 = LINE ( 'NONE', #685, #424 ) ;
#314 = CARTESIAN_POINT ( 'NONE',  ( 1.794611453598826000, -1.850631940122061000, 14.68858849909670600 ) ) ;
#315 = DIRECTION ( 'NONE',  ( 1.000000000000000000, 0.0000000000000000000, 0.0000000000000000000 ) ) ;
#316 = DIRECTION ( 'NONE',  ( 0.0000000000000000000, -1.000000000000000000, 0.0000000000000000000 ) ) ;
#317 = LINE ( 'NONE', #169, #706 ) ;
#318 = ORIENTED_EDGE ( 'NONE', *, *, #392, .T. ) ;
#319 = APPLICATION_PROTOCOL_DEFINITION ( 'international standard', 'config_control_design', 1994, #433 ) ;
#320 = EDGE_CURVE ( 'NONE', #545, #602, #596, .T. ) ;
#321 = EDGE_LOOP ( 'NONE', ( #107, #53 ) ) ;
#322 = APPROVAL ( #210, 'UNSPECIFIED' ) ;
#323 = CARTESIAN_POINT ( 'NONE',  ( 0.0000000000000000000, 7.999999999999998200, 15.00000000000000200 ) ) ;
#324 = EDGE_LOOP ( 'NONE', ( #143, #43, #178 ) ) ;
#325 = DIRECTION ( 'NONE',  ( 1.000000000000000000, 1.502314598737158300E-016, 0.0000000000000000000 ) ) ;
#326 = FACE_OUTER_BOUND ( 'NONE', #708, .T. ) ;
#327 = APPLICATION_CONTEXT ( 'configuration controlled 3d designs of mechanical parts and assemblies' ) ;
#328 = EDGE_CURVE ( 'NONE', #447, #309, #583, .T. ) ;
#329 = DATE_TIME_ROLE ( 'creation_date' ) ;
#330 = FACE_OUTER_BOUND ( 'NONE', #235, .T. ) ;
#331 = ORIENTED_EDGE ( 'NONE', *, *, #271, .F. ) ;
#332 = AXIS2_PLACEMENT_3D ( 'NONE', #34, #97, #541 ) ;
#333 = VECTOR ( 'NONE', #501, 1000.000000000000000 ) ;
#334 = PRODUCT_DEFINITION ( 'UNKNOWN', '', #597, #230 ) ;
#335 = CARTESIAN_POINT ( 'NONE',  ( 2.499999999999999600, -0.5018925460977945500, 14.65262560816085400 ) ) ;
#336 = ORIENTED_EDGE ( 'NONE', *, *, #124, .F. ) ;
#337 = AXIS2_PLACEMENT_3D ( 'NONE', #243, #341, #676 ) ;
#338 = AXIS2_PLACEMENT_3D ( 'NONE', #41, #370, #95 ) ;
#339 = FACE_OUTER_BOUND ( 'NONE', #324, .T. ) ;
#340 = CARTESIAN_POINT ( 'NONE',  ( 0.0000000000000000000, 7.270328050157205300E-015, 15.00000000000000000 ) ) ;
#341 = DIRECTION ( 'NONE',  ( 0.4999999999999999400, 0.8660254037844387100, 0.0000000000000000000 ) ) ;
#342 = CARTESIAN_POINT ( 'NONE',  ( -1.036359489711272200, 2.288408915586103400, 14.61271850370234500 ) ) ;
#343 = ORIENTED_EDGE ( 'NONE', *, *, #268, .T. ) ;
#344 = EDGE_CURVE ( 'NONE', #605, #673, #105, .T. ) ;
#345 = ADVANCED_FACE ( 'NONE', ( #283 ), #664, .T. ) ;
#346 = APPROVAL ( #703, 'UNSPECIFIED' ) ;
#347 = CIRCLE ( 'NONE', #338, 4.000000000000000000 ) ;
#348 = DIRECTION ( 'NONE',  ( -0.0000000000000000000, -0.0000000000000000000, 1.000000000000000000 ) ) ;
#349 = DIRECTION ( 'NONE',  ( -0.0000000000000000000, 1.224646799147353200E-016, -1.000000000000000000 ) ) ;
#350 = EDGE_LOOP ( 'NONE', ( #688, #702 ) ) ;
#351 = EDGE_CURVE ( 'NONE', #673, #604, #679, .T. ) ;
#352 = DIRECTION ( 'NONE',  ( 0.0000000000000000000, -1.224646799147352000E-016, 1.000000000000000000 ) ) ;
#353 = PERSON_AND_ORGANIZATION ( #305, #549 ) ;
#354 = ORIENTED_EDGE ( 'NONE', *, *, #449, .F. ) ;
#355 = DIRECTION ( 'NONE',  ( -0.8660254037844387100, -0.4999999999999997200, 0.0000000000000000000 ) ) ;
#356 = ADVANCED_FACE ( 'NONE', ( #606 ), #390, .T. ) ;
#357 = DIRECTION ( 'NONE',  ( -0.0000000000000000000, 1.224646799147353200E-016, -1.000000000000000000 ) ) ;
#358 = LINE ( 'NONE', #588, #385 ) ;
#359 = DIRECTION ( 'NONE',  ( 0.0000000000000000000, 1.000000000000000000, 2.168404344971008900E-016 ) ) ;
#360 = DIRECTION ( 'NONE',  ( -0.0000000000000000000, -0.0000000000000000000, 1.000000000000000000 ) ) ;
#361 = CARTESIAN_POINT ( 'NONE',  ( -1.136274879960283300, -2.230722738129651300, 14.61352220515648200 ) ) ;
#362 = CONICAL_SURFACE ( 'NONE', #452, 2.800000000000010000, 0.7853981633974450600 ) ;
#363 = CC_DESIGN_APPROVAL ( #631, ( #334 ) ) ;
#364 = DIRECTION ( 'NONE',  ( 1.000000000000000000, 0.0000000000000000000, 0.0000000000000000000 ) ) ;
#365 = CARTESIAN_POINT ( 'NONE',  ( 2.499999999999999600, 1.443375672974070500, 15.00000000000000000 ) ) ;
#366 = VERTEX_POINT ( 'NONE', #237 ) ;
#367 = ORIENTED_EDGE ( 'NONE', *, *, #430, .T. ) ;
#368 = AXIS2_PLACEMENT_3D ( 'NONE', #191, #630, #315 ) ;
#369 = LINE ( 'NONE', #684, #65 ) ;
#370 = DIRECTION ( 'NONE',  ( 0.0000000000000000000, -1.224646799147353200E-016, 1.000000000000000000 ) ) ;
#371 = ORIENTED_EDGE ( 'NONE', *, *, #328, .F. ) ;
#372 = DIRECTION ( 'NONE',  ( 0.8660254037844387100, 0.4999999999999997200, 0.0000000000000000000 ) ) ;
#373 = APPROVAL_STATUS ( 'not_yet_approved' ) ;
#374 = EDGE_CURVE ( 'NONE', #602, #545, #203, .T. ) ;
#375 = CALENDAR_DATE ( 2025, 3, 6 ) ;
#376 = CC_DESIGN_PERSON_AND_ORGANIZATION_ASSIGNMENT ( #32, #101, ( #597 ) ) ;
#377 = ORIENTED_EDGE ( 'NONE', *, *, #516, .F. ) ;
#378 = DIRECTION ( 'NONE',  ( -1.502314598737158300E-016, 1.000000000000000000, 0.0000000000000000000 ) ) ;
#379 = FACE_OUTER_BOUND ( 'NONE', #244, .T. ) ;
#380 = AXIS2_PLACEMENT_3D ( 'NONE', #116, #64, #611 ) ;
#381 = APPROVAL_ROLE ( '' ) ;
#382 = CALENDAR_DATE ( 2025, 3, 6 ) ;
#383 = ORIENTED_EDGE ( 'NONE', *, *, #68, .F. ) ;
#384 = ORIENTED_EDGE ( 'NONE', *, *, #273, .F. ) ;
#385 = VECTOR ( 'NONE', #316, 1000.000000000000000 ) ;
#386 = SECURITY_CLASSIFICATION ( '', '', #438 ) ;
#387 = ORIENTED_EDGE ( 'NONE', *, *, #489, .F. ) ;
#388 = AXIS2_PLACEMENT_3D ( 'NONE', #470, #71, #135 ) ;
#389 = CARTESIAN_POINT ( 'NONE',  ( -2.500000000000000000, -1.443375672974064800, 11.91999999999999800 ) ) ;
#390 = CONICAL_SURFACE ( 'NONE', #224, 4.000000000000000000, 0.7853981633974496100 ) ;
#391 = ORIENTED_EDGE ( 'NONE', *, *, #446, .F. ) ;
#392 = EDGE_CURVE ( 'NONE', #257, #605, #699, .T. ) ;
#393 = DIRECTION ( 'NONE',  ( -0.0000000000000000000, -0.0000000000000000000, 1.000000000000000000 ) ) ;
#394 = CARTESIAN_POINT ( 'NONE',  ( -2.500000000000000900, -0.5017917787654966300, 14.65260324525987000 ) ) ;
#395 = COORDINATED_UNIVERSAL_TIME_OFFSET ( 6, 0, .BEHIND. ) ;
#396 = EDGE_LOOP ( 'NONE', ( #490, #74 ) ) ;
#397 = EDGE_LOOP ( 'NONE', ( #642, #555 ) ) ;
#398 = CARTESIAN_POINT ( 'NONE',  ( -1.363725120039724700, 2.099404280792539700, 14.61352220515647100 ) ) ;
#399 = CONICAL_SURFACE ( 'NONE', #487, 2.886751345948127800, 0.7853981633974500600 ) ;
#400 = ADVANCED_FACE ( 'NONE', ( #640 ), #690, .F. ) ;
#401 = AXIS2_PLACEMENT_3D ( 'NONE', #152, #540, #207 ) ;
#402 = DIRECTION ( 'NONE',  ( 0.0000000000000000000, 1.000000000000000000, 2.168404344971008900E-016 ) ) ;
#403 = ORIENTED_EDGE ( 'NONE', *, *, #42, .T. ) ;
#404 = ORIENTED_EDGE ( 'NONE', *, *, #239, .T. ) ;
#405 = DATE_AND_TIME ( #696, #212 ) ;
#406 = CARTESIAN_POINT ( 'NONE',  ( 2.499999999999998200, 0.5013905582185411700, 14.65246895540649100 ) ) ;
#407 = CARTESIAN_POINT ( 'NONE',  ( -0.8218418864751572100, 2.412260711560387800, 14.65087689166703400 ) ) ;
#408 = EDGE_CURVE ( 'NONE', #26, #603, #411, .T. ) ;
#409 = DIRECTION ( 'NONE',  ( -0.0000000000000000000, 1.224646799147353200E-016, -1.000000000000000000 ) ) ;
#410 = CC_DESIGN_PERSON_AND_ORGANIZATION_ASSIGNMENT ( #353, #272, ( #597 ) ) ;
#411 = LINE ( 'NONE', #459, #136 ) ;
#412 = ADVANCED_BREP_SHAPE_REPRESENTATION ( '91294A287_NO THREADS_Black-Oxide Alloy Steel Hex Drive Flat Head Screw', ( #682, #599 ), #497 ) ;
#413 = DIRECTION ( 'NONE',  ( 8.659560562354944000E-017, 0.7071067811865483500, 0.7071067811865466800 ) ) ;
#414 = DIRECTION ( 'NONE',  ( 1.000000000000000000, 0.0000000000000000000, 0.0000000000000000000 ) ) ;
#415 = AXIS2_PLACEMENT_3D ( 'NONE', #186, #241, #355 ) ;
#416 = CARTESIAN_POINT ( 'NONE',  ( 0.8218418864751559900, -2.412260711560388200, 14.65087689166704800 ) ) ;
#417 = CARTESIAN_POINT ( 'NONE',  ( -1.463640510288732000, -2.041718103336088500, 14.61271850370235900 ) ) ;
#418 = PERSON_AND_ORGANIZATION ( #305, #549 ) ;
#419 = CARTESIAN_POINT ( 'NONE',  ( -2.303518737899376700, -1.556814182538577500, 14.88656149043514200 ) ) ;
#420 = EDGE_LOOP ( 'NONE', ( #498, #256, #590, #128 ) ) ;
#421 = AXIS2_PLACEMENT_3D ( 'NONE', #340, #130, #227 ) ;
#422 = CARTESIAN_POINT ( 'NONE',  ( 1.689365699038759500, -1.911395604848380700, 14.66125635044878100 ) ) ;
#423 = CARTESIAN_POINT ( 'NONE',  ( -1.604619215278546600E-014, -2.886751345948120700, 15.00000000000000000 ) ) ;
#424 = VECTOR ( 'NONE', #140, 1000.000000000000000 ) ;
#425 =( NAMED_UNIT ( * ) SI_UNIT ( $, .STERADIAN. ) SOLID_ANGLE_UNIT ( ) );
#426 = CARTESIAN_POINT ( 'NONE',  ( 0.1964812621006207200, -2.773312836383618600, 14.88656149043515200 ) ) ;
#427 = CIRCLE ( 'NONE', #527, 4.000000000000000000 ) ;
#428 = CARTESIAN_POINT ( 'NONE',  ( 4.898587196589414800E-016, -4.000000000000001800, 10.59999999999999800 ) ) ;
#429 = ORIENTED_EDGE ( 'NONE', *, *, #624, .F. ) ;
#430 = EDGE_CURVE ( 'NONE', #651, #248, #182, .T. ) ;
#431 = PERSON_AND_ORGANIZATION ( #305, #549 ) ;
#432 = ORIENTED_EDGE ( 'NONE', *, *, #157, .T. ) ;
#433 = APPLICATION_CONTEXT ( 'configuration controlled 3d designs of mechanical parts and assemblies' ) ;
#434 = CARTESIAN_POINT ( 'NONE',  ( 2.500000000000000000, -1.443375672974065200, 11.91999999999999800 ) ) ;
#435 = AXIS2_PLACEMENT_3D ( 'NONE', #122, #55, #464 ) ;
#436 = CIRCLE ( 'NONE', #601, 8.000000000000000000 ) ;
#437 = CARTESIAN_POINT ( 'NONE',  ( 1.025576057339866500, 2.294634733168522600, 14.62364870297387200 ) ) ;
#438 = SECURITY_CLASSIFICATION_LEVEL ( 'unclassified' ) ;
#439 = EDGE_CURVE ( 'NONE', #651, #602, #532, .T. ) ;
#440 = PERSON_AND_ORGANIZATION_ROLE ( 'classification_officer' ) ;
#441 = ORIENTED_EDGE ( 'NONE', *, *, #157, .F. ) ;
#442 = CIRCLE ( 'NONE', #93, 2.800000000000009600 ) ;
#443 = FACE_OUTER_BOUND ( 'NONE', #264, .T. ) ;
#444 = CLOSED_SHELL ( 'NONE', ( #400, #177, #216, #108, #568, #615, #345, #678, #629, #356, #711, #139, #670, #492, #297, #8, #220, #462, #66, #49, #126, #550, #238, #511 ) ) ;
#445 = COORDINATED_UNIVERSAL_TIME_OFFSET ( 6, 0, .BEHIND. ) ;
#446 = EDGE_CURVE ( 'NONE', #447, #280, #574, .T. ) ;
#447 = VERTEX_POINT ( 'NONE', #7 ) ;
#448 = LINE ( 'NONE', #14, #573 ) ;
#449 = EDGE_CURVE ( 'NONE', #280, #604, #75, .T. ) ;
#450 = CARTESIAN_POINT ( 'NONE',  ( -2.500000000000000000, 1.443375672974065700, 11.91999999999999800 ) ) ;
#451 = CARTESIAN_POINT ( 'NONE',  ( 0.0000000000000000000, -2.800000000000008700, -15.00000000000000000 ) ) ;
#452 = AXIS2_PLACEMENT_3D ( 'NONE', #557, #352, #572 ) ;
#453 = CARTESIAN_POINT ( 'NONE',  ( -2.500000000000004000, 1.443375672974063200, 15.00000000000000000 ) ) ;
#454 = ORIENTED_EDGE ( 'NONE', *, *, #277, .T. ) ;
#455 = PLANE ( 'NONE',  #205 ) ;
#456 = DIRECTION ( 'NONE',  ( 0.7071067811865487900, 0.0000000000000000000, 0.7071067811865463500 ) ) ;
#457 = CIRCLE ( 'NONE', #246, 4.000000000000000000 ) ;
#458 = AXIS2_PLACEMENT_3D ( 'NONE', #254, #149, #201 ) ;
#459 = CARTESIAN_POINT ( 'NONE',  ( 2.886751345948127800, 7.270328050157205300E-015, 15.00000000000000000 ) ) ;
#460 = VECTOR ( 'NONE', #171, 999.9999999999998900 ) ;
#461 = ORIENTED_EDGE ( 'NONE', *, *, #648, .T. ) ;
#462 = ADVANCED_FACE ( 'NONE', ( #620 ), #154, .T. ) ;
#463 = CARTESIAN_POINT ( 'NONE',  ( 2.500000000000000000, 0.9851426667100722200, 14.79032790590704000 ) ) ;
#464 = DIRECTION ( 'NONE',  ( 0.0000000000000000000, 1.000000000000000000, 2.168404344971008900E-016 ) ) ;
#465 = ORIENTED_EDGE ( 'NONE', *, *, #408, .T. ) ;
#466 = EDGE_CURVE ( 'NONE', #505, #604, #98, .T. ) ;
#467 = DIRECTION ( 'NONE',  ( 0.0000000000000000000, -1.000000000000000000, 0.0000000000000000000 ) ) ;
#468 = VECTOR ( 'NONE', #698, 1000.000000000000100 ) ;
#469 = CARTESIAN_POINT ( 'NONE',  ( 2.500000000000000000, -1.443375672974065200, 11.91999999999999800 ) ) ;
#470 = CARTESIAN_POINT ( 'NONE',  ( 0.0000000000000000000, -2.420525683499323400E-015, 14.59999999999998700 ) ) ;
#471 = CARTESIAN_POINT ( 'NONE',  ( 0.0000000000000000000, 1.057471226079158300E-015, -13.80000000000000100 ) ) ;
#472 = CARTESIAN_POINT ( 'NONE',  ( 0.0000000000000000000, 7.270328050157205300E-015, 15.00000000000000000 ) ) ;
#473 = CARTESIAN_POINT ( 'NONE',  ( -0.1964812621006167500, 2.773312836383620400, 14.88656149043513100 ) ) ;
#474 = VECTOR ( 'NONE', #348, 1000.000000000000000 ) ;
#475 = DIRECTION ( 'NONE',  ( 0.0000000000000000000, 1.000000000000000000, 0.0000000000000000000 ) ) ;
#476 = CARTESIAN_POINT ( 'NONE',  ( 0.0000000000000000000, -2.469511555465218800E-015, 15.00000000000000000 ) ) ;
#477 = PLANE ( 'NONE',  #111 ) ;
#478 = ORIENTED_EDGE ( 'NONE', *, *, #1, .F. ) ;
#479 = CARTESIAN_POINT ( 'NONE',  ( 1.363725120039718200, -2.099404280792542800, 14.61352220515647600 ) ) ;
#480 = CARTESIAN_POINT ( 'NONE',  ( 1.678158113524837600, 1.917866307361810100, 14.65087689166703400 ) ) ;
#481 = AXIS2_PLACEMENT_3D ( 'NONE', #117, #393, #610 ) ;
#482 = CARTESIAN_POINT ( 'NONE',  ( -6.108638033469113400E-016, -2.886751345948129100, 11.91999999999999800 ) ) ;
#483 = FACE_OUTER_BOUND ( 'NONE', #396, .T. ) ;
#484 = CARTESIAN_POINT ( 'NONE',  ( 2.303518737899372200, 1.556814182538580200, 14.88656149043513300 ) ) ;
#485 = DIRECTION ( 'NONE',  ( 0.4999999999999997800, -0.8660254037844388200, 0.0000000000000000000 ) ) ;
#486 = ORIENTED_EDGE ( 'NONE', *, *, #45, .F. ) ;
#487 = AXIS2_PLACEMENT_3D ( 'NONE', #204, #267, #364 ) ;
#488 = FACE_OUTER_BOUND ( 'NONE', #153, .T. ) ;
#489 = EDGE_CURVE ( 'NONE', #96, #257, #159, .T. ) ;
#490 = ORIENTED_EDGE ( 'NONE', *, *, #446, .T. ) ;
#491 = FACE_OUTER_BOUND ( 'NONE', #420, .T. ) ;
#492 = ADVANCED_FACE ( 'NONE', ( #326 ), #35, .F. ) ;
#493 = DIRECTION ( 'NONE',  ( 1.000000000000000000, 0.0000000000000000000, 0.0000000000000000000 ) ) ;
#494 = ORIENTED_EDGE ( 'NONE', *, *, #109, .F. ) ;
#495 = LOCAL_TIME ( 7, 38, 53.00000000000000000, #445 ) ;
#496 = CARTESIAN_POINT ( 'NONE',  ( 2.499999999999999600, 7.270328049818062900E-015, 14.61324865405187300 ) ) ;
#497 =( GEOMETRIC_REPRESENTATION_CONTEXT ( 3 ) GLOBAL_UNCERTAINTY_ASSIGNED_CONTEXT ( ( #656 ) ) GLOBAL_UNIT_ASSIGNED_CONTEXT ( ( #266, #208, #425 ) ) REPRESENTATION_CONTEXT ( 'NONE', 'WORKASPACE' ) );
#498 = ORIENTED_EDGE ( 'NONE', *, *, #667, .F. ) ;
#499 = FACE_BOUND ( 'NONE', #85, .T. ) ;
#500 = DIRECTION ( 'NONE',  ( -1.000000000000000000, 0.0000000000000000000, -0.0000000000000000000 ) ) ;
#501 = DIRECTION ( 'NONE',  ( -0.0000000000000000000, -0.0000000000000000000, 1.000000000000000000 ) ) ;
#502 = CARTESIAN_POINT ( 'NONE',  ( -2.500000000000000000, -1.443375672974064800, 11.91999999999999800 ) ) ;
#503 = CIRCLE ( 'NONE', #176, 2.886751345948127800 ) ;
#504 = CARTESIAN_POINT ( 'NONE',  ( -1.794611453598835100, 1.850631940122056800, 14.68858849909670100 ) ) ;
#505 = VERTEX_POINT ( 'NONE', #24 ) ;
#506 = ORIENTED_EDGE ( 'NONE', *, *, #268, .F. ) ;
#507 = CARTESIAN_POINT ( 'NONE',  ( 0.0000000000000000000, 1.204428841976840200E-015, -15.00000000000000000 ) ) ;
#508 = CARTESIAN_POINT ( 'NONE',  ( 0.0000000000000000000, -1.930666963840383600E-015, 10.59999999999999800 ) ) ;
#509 = CIRCLE ( 'NONE', #561, 4.000000000000000000 ) ;
#510 = AXIS2_PLACEMENT_3D ( 'NONE', #94, #485, #372 ) ;
#511 = ADVANCED_FACE ( 'NONE', ( #290 ), #399, .F. ) ;
#512 = DIRECTION ( 'NONE',  ( 0.0000000000000000000, -1.224646799147352000E-016, 1.000000000000000000 ) ) ;
#513 = EDGE_LOOP ( 'NONE', ( #187, #331 ) ) ;
#514 = DIRECTION ( 'NONE',  ( 1.000000000000000000, 0.0000000000000000000, 0.0000000000000000000 ) ) ;
#515 = PERSON_AND_ORGANIZATION ( #305, #549 ) ;
#516 = EDGE_CURVE ( 'NONE', #517, #602, #123, .T. ) ;
#517 = VERTEX_POINT ( 'NONE', #145 ) ;
#518 = B_SPLINE_CURVE_WITH_KNOTS ( 'NONE', 3,
 ( #423, #524, #681, #635, #193, #195, #361, #417, #146, #22, #419, #522 ),
 .UNSPECIFIED., .F., .F.,
 ( 4, 2, 2, 2, 2, 4 ),
 ( 2.544340436439753600E-007, 0.0007457281437449518900, 0.001118464998595606600, 0.001491201853446261500, 0.002236675563147569800, 0.002982149272848878800 ),
 .UNSPECIFIED. ) ;
#519 = CARTESIAN_POINT ( 'NONE',  ( 2.500000000000000000, 1.220052095120895300, 14.88833821107341600 ) ) ;
#520 = CARTESIAN_POINT ( 'NONE',  ( 0.3987867435387212900, -2.656511712216793600, 14.78929360685185100 ) ) ;
#521 = VECTOR ( 'NONE', #36, 1000.000000000000000 ) ;
#522 = CARTESIAN_POINT ( 'NONE',  ( -2.500000000000000000, -1.443375672974054800, 15.00000000000000000 ) ) ;
#523 = CARTESIAN_POINT ( 'NONE',  ( 0.0000000000000000000, 1.204428841976840200E-015, -15.00000000000000000 ) ) ;
#524 = CARTESIAN_POINT ( 'NONE',  ( -0.1953301412285067000, -2.773977436329003500, 14.88722609038088300 ) ) ;
#525 = DIRECTION ( 'NONE',  ( -0.8660254037844387100, -0.4999999999999997200, 0.0000000000000000000 ) ) ;
#526 = CARTESIAN_POINT ( 'NONE',  ( 0.3950665264161238300, 2.658659580573969900, 14.79134017728668800 ) ) ;
#527 = AXIS2_PLACEMENT_3D ( 'NONE', #471, #512, #73 ) ;
#528 = VERTEX_POINT ( 'NONE', #82 ) ;
#529 = CARTESIAN_POINT ( 'NONE',  ( 1.105886215935214500E-014, 2.886751345948135300, 15.00000000000000000 ) ) ;
#530 = ORIENTED_EDGE ( 'NONE', *, *, #109, .T. ) ;
#531 = CARTESIAN_POINT ( 'NONE',  ( 0.0000000000000000000, 1.204428841976840200E-015, -15.00000000000000000 ) ) ;
#532 = LINE ( 'NONE', #659, #250 ) ;
#533 = CARTESIAN_POINT ( 'NONE',  ( 4.898587196589412800E-016, 3.999999999999998200, 10.59999999999999800 ) ) ;
#534 = CARTESIAN_POINT ( 'NONE',  ( 9.797174393178825700E-016, -7.999999999999998200, -15.00000000000000200 ) ) ;
#535 = ORIENTED_EDGE ( 'NONE', *, *, #648, .F. ) ;
#536 = CC_DESIGN_PERSON_AND_ORGANIZATION_ASSIGNMENT ( #515, #269, ( #334 ) ) ;
#537 = CARTESIAN_POINT ( 'NONE',  ( 0.0000000000000000000, 7.270328050157205300E-015, 15.00000000000000000 ) ) ;
#538 = CARTESIAN_POINT ( 'NONE',  ( 0.1953301412284956200, 2.773977436329010600, 14.88722609038088000 ) ) ;
#539 = APPROVAL_DATE_TIME ( #675, #346 ) ;
#540 = DIRECTION ( 'NONE',  ( 0.0000000000000000000, 0.0000000000000000000, 1.000000000000000000 ) ) ;
#541 = DIRECTION ( 'NONE',  ( 1.000000000000000000, 0.0000000000000000000, 0.0000000000000000000 ) ) ;
#542 = AXIS2_PLACEMENT_3D ( 'NONE', #507, #409, #402 ) ;
#543 = CONICAL_SURFACE ( 'NONE', #215, 4.000000000000000000, 0.7853981633974496100 ) ;
#544 = ORIENTED_EDGE ( 'NONE', *, *, #231, .F. ) ;
#545 = VERTEX_POINT ( 'NONE', #84 ) ;
#546 = ORIENTED_EDGE ( 'NONE', *, *, #42, .F. ) ;
#547 = CIRCLE ( 'NONE', #312, 2.886751345948127800 ) ;
#548 = ORIENTED_EDGE ( 'NONE', *, *, #277, .F. ) ;
#549 = ORGANIZATION ( 'UNSPECIFIED', 'UNSPECIFIED', '' ) ;
#550 = ADVANCED_FACE ( 'NONE', ( #562 ), #704, .F. ) ;
#551 = PRODUCT_DEFINITION_SHAPE ( 'NONE', 'NONE',  #334 ) ;
#552 = EDGE_CURVE ( 'NONE', #366, #309, #137, .T. ) ;
#553 = CARTESIAN_POINT ( 'NONE',  ( 2.499999999999999600, 7.270328049818062900E-015, 14.61324865405187300 ) ) ;
#554 = VECTOR ( 'NONE', #242, 1000.000000000000000 ) ;
#555 = ORIENTED_EDGE ( 'NONE', *, *, #683, .T. ) ;
#556 = CC_DESIGN_DATE_AND_TIME_ASSIGNMENT ( #59, #329, ( #334 ) ) ;
#557 = CARTESIAN_POINT ( 'NONE',  ( 0.0000000000000000000, 1.204428841976840200E-015, -15.00000000000000000 ) ) ;
#558 = LOCAL_TIME ( 7, 38, 53.00000000000000000, #686 ) ;
#559 = ORIENTED_EDGE ( 'NONE', *, *, #439, .F. ) ;
#560 = CARTESIAN_POINT ( 'NONE',  ( -1.689365699038768200, 1.911395604848377300, 14.66125635044878100 ) ) ;
#561 = AXIS2_PLACEMENT_3D ( 'NONE', #571, #304, #185 ) ;
#562 = FACE_OUTER_BOUND ( 'NONE', #397, .T. ) ;
#563 = DIRECTION ( 'NONE',  ( 0.0000000000000000000, -1.224646799147353200E-016, 1.000000000000000000 ) ) ;
#564 = CARTESIAN_POINT ( 'NONE',  ( 0.0000000000000000000, 7.270328050157205300E-015, 15.00000000000000000 ) ) ;
#565 = PLANE ( 'NONE',  #415 ) ;
#566 = VECTOR ( 'NONE', #77, 1000.000000000000000 ) ;
#567 = ORIENTED_EDGE ( 'NONE', *, *, #677, .F. ) ;
#568 = ADVANCED_FACE ( 'NONE', ( #600 ), #6, .T. ) ;
#569 = APPROVAL_PERSON_ORGANIZATION ( #151, #631, #40 ) ;
#570 = EDGE_LOOP ( 'NONE', ( #81, #33, #251, #441 ) ) ;
#571 = CARTESIAN_POINT ( 'NONE',  ( 0.0000000000000000000, -1.930666963840383600E-015, 10.59999999999999800 ) ) ;
#572 = DIRECTION ( 'NONE',  ( 0.0000000000000000000, -1.000000000000000000, 0.0000000000000000000 ) ) ;
#573 = VECTOR ( 'NONE', #621, 1000.000000000000000 ) ;
#574 = B_SPLINE_CURVE_WITH_KNOTS ( 'NONE', 3,
 ( #296, #287, #181, #394, #172, #661, #125, #12, #672, #453 ),
 .UNSPECIFIED., .F., .F.,
 ( 4, 2, 2, 2, 4 ),
 ( 0.001707081431606635900, 0.002455046862690270600, 0.003203012293773904800, 0.003950977724857539900, 0.004698943155941172900 ),
 .UNSPECIFIED. ) ;
#575 = DIRECTION ( 'NONE',  ( 0.0000000000000000000, -1.224646799147352000E-016, 1.000000000000000000 ) ) ;
#576 = CARTESIAN_POINT ( 'NONE',  ( -1.604619215278546600E-014, -2.886751345948120700, 15.00000000000000000 ) ) ;
#577 = CARTESIAN_POINT ( 'NONE',  ( 2.499999999999999600, 1.443375672974065700, 11.91999999999999800 ) ) ;
#578 = CARTESIAN_POINT ( 'NONE',  ( 2.886751345948127800, 7.270328050157205300E-015, 15.00000000000000000 ) ) ;
#579 = DIRECTION ( 'NONE',  ( 0.0000000000000000000, -0.7071067811865486800, 0.7071067811865464600 ) ) ;
#580 = ORIENTED_EDGE ( 'NONE', *, *, #162, .T. ) ;
#581 = DIRECTION ( 'NONE',  ( 1.000000000000000000, 0.0000000000000000000, 0.0000000000000000000 ) ) ;
#582 = DIRECTION ( 'NONE',  ( -0.5000000000000001100, -0.8660254037844387100, 0.0000000000000000000 ) ) ;
#583 = CIRCLE ( 'NONE', #189, 2.886751345948127800 ) ;
#584 = CARTESIAN_POINT ( 'NONE',  ( 1.463640510288724900, 2.041718103336094700, 14.61271850370234800 ) ) ;
#585 = CC_DESIGN_APPROVAL ( #346, ( #597 ) ) ;
#586 = VECTOR ( 'NONE', #228, 1000.000000000000100 ) ;
#587 = ORIENTED_EDGE ( 'NONE', *, *, #162, .F. ) ;
#588 = CARTESIAN_POINT ( 'NONE',  ( -2.500000000000000000, 1.443375672974065700, 11.91999999999999800 ) ) ;
#589 = CARTESIAN_POINT ( 'NONE',  ( 1.036359489711268500, -2.288408915586104700, 14.61271850370235500 ) ) ;
#590 = ORIENTED_EDGE ( 'NONE', *, *, #439, .T. ) ;
#591 = PERSON_AND_ORGANIZATION ( #305, #549 ) ;
#592 = ORIENTED_EDGE ( 'NONE', *, *, #273, .T. ) ;
#593 = DIRECTION ( 'NONE',  ( 0.0000000000000000000, -1.224646799147352000E-016, 1.000000000000000000 ) ) ;
#594 = DIRECTION ( 'NONE',  ( 0.0000000000000000000, 0.0000000000000000000, 1.000000000000000000 ) ) ;
#595 = CARTESIAN_POINT ( 'NONE',  ( 0.0000000000000000000, 0.0000000000000000000, 0.0000000000000000000 ) ) ;
#596 = CIRCLE ( 'NONE', #388, 8.000000000000000000 ) ;
#597 = PRODUCT_DEFINITION_FORMATION_WITH_SPECIFIED_SOURCE ( 'ANY', '', #252, .NOT_KNOWN. ) ;
#598 = ORIENTED_EDGE ( 'NONE', *, *, #608, .F. ) ;
#599 = AXIS2_PLACEMENT_3D ( 'NONE', #595, #156, #639 ) ;
#600 = FACE_OUTER_BOUND ( 'NONE', #570, .T. ) ;
#601 = AXIS2_PLACEMENT_3D ( 'NONE', #476, #25, #359 ) ;
#602 = VERTEX_POINT ( 'NONE', #307 ) ;
#603 = VERTEX_POINT ( 'NONE', #578 ) ;
#604 = VERTEX_POINT ( 'NONE', #529 ) ;
#605 = VERTEX_POINT ( 'NONE', #190 ) ;
#606 = FACE_OUTER_BOUND ( 'NONE', #687, .T. ) ;
#607 = DIRECTION ( 'NONE',  ( 8.659560562354905700E-017, 0.7071067811865451300, 0.7071067811865500200 ) ) ;
#608 = EDGE_CURVE ( 'NONE', #528, #200, #442, .T. ) ;
#609 = CARTESIAN_POINT ( 'NONE',  ( -2.104933473583880900, 1.671467438348222400, 14.79134017728669500 ) ) ;
#610 = DIRECTION ( 'NONE',  ( 1.000000000000000000, 0.0000000000000000000, 0.0000000000000000000 ) ) ;
#611 = DIRECTION ( 'NONE',  ( 0.0000000000000000000, 1.000000000000000000, 1.224646799147353200E-016 ) ) ;
#612 = LINE ( 'NONE', #121, #474 ) ;
#613 = CARTESIAN_POINT ( 'NONE',  ( 2.499999999999999600, 1.443375672974070500, 15.00000000000000000 ) ) ;
#614 = CARTESIAN_POINT ( 'NONE',  ( 2.500000000000000000, -1.443375672974065200, 11.91999999999999800 ) ) ;
#615 = ADVANCED_FACE ( 'NONE', ( #270 ), #259, .T. ) ;
#616 = CARTESIAN_POINT ( 'NONE',  ( 0.0000000000000000000, 7.270328050157205300E-015, 15.00000000000000000 ) ) ;
#617 = ORIENTED_EDGE ( 'NONE', *, *, #449, .T. ) ;
#618 = DIRECTION ( 'NONE',  ( 0.0000000000000000000, 1.000000000000000000, 2.168404344971008900E-016 ) ) ;
#619 = AXIS2_PLACEMENT_3D ( 'NONE', #112, #284, #493 ) ;
#620 = FACE_OUTER_BOUND ( 'NONE', #653, .T. ) ;
#621 = DIRECTION ( 'NONE',  ( -0.0000000000000000000, -0.0000000000000000000, 1.000000000000000000 ) ) ;
#622 = CARTESIAN_POINT ( 'NONE',  ( 0.0000000000000000000, 1.204428841976840200E-015, -15.00000000000000000 ) ) ;
#623 = CARTESIAN_POINT ( 'NONE',  ( -1.604619215278546600E-014, -2.886751345948120700, 15.00000000000000000 ) ) ;
#624 = EDGE_CURVE ( 'NONE', #280, #447, #669, .T. ) ;
#625 = SHAPE_DEFINITION_REPRESENTATION ( #551, #412 ) ;
#626 = B_SPLINE_CURVE_WITH_KNOTS ( 'NONE', 3,
 ( #553, #289, #335, #286, #680, #303 ),
 .UNSPECIFIED., .F., .F.,
 ( 4, 2, 4 ),
 ( 0.003062535871172592700, 0.003810007225991188200, 0.004557478580809784200 ),
 .UNSPECIFIED. ) ;
#627 = CC_DESIGN_SECURITY_CLASSIFICATION ( #386, ( #597 ) ) ;
#628 = ORIENTED_EDGE ( 'NONE', *, *, #30, .F. ) ;
#629 = ADVANCED_FACE ( 'NONE', ( #491 ), #168, .T. ) ;
#630 = DIRECTION ( 'NONE',  ( 0.0000000000000000000, 0.0000000000000000000, 1.000000000000000000 ) ) ;
#631 = APPROVAL ( #373, 'UNSPECIFIED' ) ;
#632 = CARTESIAN_POINT ( 'NONE',  ( 0.0000000000000000000, 7.270328050157205300E-015, 15.00000000000000000 ) ) ;
#633 = CARTESIAN_POINT ( 'NONE',  ( 4.898587196589412800E-016, -3.999999999999999100, -13.80000000000000100 ) ) ;
#634 = ORIENTED_EDGE ( 'NONE', *, *, #705, .F. ) ;
#635 = CARTESIAN_POINT ( 'NONE',  ( -0.7053885464011778700, -2.479495078800130900, 14.68858849909670500 ) ) ;
#636 = EDGE_CURVE ( 'NONE', #366, #603, #547, .T. ) ;
#637 = CARTESIAN_POINT ( 'NONE',  ( 2.499999999999991600, -1.443375672974070100, 15.00000000000000000 ) ) ;
#638 = ORIENTED_EDGE ( 'NONE', *, *, #231, .T. ) ;
#639 = DIRECTION ( 'NONE',  ( 1.000000000000000000, 0.0000000000000000000, 0.0000000000000000000 ) ) ;
#640 = FACE_OUTER_BOUND ( 'NONE', #50, .T. ) ;
#641 = CARTESIAN_POINT ( 'NONE',  ( 4.568976219386127800E-016, 2.886751345948129500, 11.91999999999999800 ) ) ;
#642 = ORIENTED_EDGE ( 'NONE', *, *, #552, .T. ) ;
#643 = MECHANICAL_CONTEXT ( 'NONE', #433, 'mechanical' ) ;
#644 = CALENDAR_DATE ( 2025, 3, 6 ) ;
#645 = EDGE_LOOP ( 'NONE', ( #665, #544, #336, #546 ) ) ;
#646 = AXIS2_PLACEMENT_3D ( 'NONE', #192, #357, #253 ) ;
#647 = CIRCLE ( 'NONE', #332, 2.886751345948127800 ) ;
#648 = EDGE_CURVE ( 'NONE', #673, #91, #369, .T. ) ;
#649 = LINE ( 'NONE', #451, #586 ) ;
#650 = ORIENTED_EDGE ( 'NONE', *, *, #466, .F. ) ;
#651 = VERTEX_POINT ( 'NONE', #323 ) ;
#652 = AXIS2_PLACEMENT_3D ( 'NONE', #537, #594, #39 ) ;
#653 = EDGE_LOOP ( 'NONE', ( #158, #461, #710, #403, #222, #318 ) ) ;
#654 = ORIENTED_EDGE ( 'NONE', *, *, #344, .F. ) ;
#655 = EDGE_CURVE ( 'NONE', #517, #298, #347, .T. ) ;
#656 = UNCERTAINTY_MEASURE_WITH_UNIT (LENGTH_MEASURE( 1.000000000000000100E-005 ), #266, 'distance_accuracy_value', 'NONE');
#657 = FACE_OUTER_BOUND ( 'NONE', #70, .T. ) ;
#658 = DIRECTION ( 'NONE',  ( -0.0000000000000000000, 1.224646799147353200E-016, -1.000000000000000000 ) ) ;
#659 = CARTESIAN_POINT ( 'NONE',  ( 0.0000000000000000000, 8.000000000000001800, -14.99999999999999800 ) ) ;
#660 = CC_DESIGN_DATE_AND_TIME_ASSIGNMENT ( #233, #44, ( #386 ) ) ;
#661 = CARTESIAN_POINT ( 'NONE',  ( -2.500000000000000900, 0.2543302231993261900, 14.61326465855760000 ) ) ;
#662 = CALENDAR_DATE ( 2025, 3, 6 ) ;
#663 = CARTESIAN_POINT ( 'NONE',  ( 3.429011037612601100E-016, 2.800000000000011400, -15.00000000000000000 ) ) ;
#664 = PLANE ( 'NONE',  #380 ) ;
#665 = ORIENTED_EDGE ( 'NONE', *, *, #183, .T. ) ;
#666 = ORIENTED_EDGE ( 'NONE', *, *, #516, .T. ) ;
#667 = EDGE_CURVE ( 'NONE', #248, #545, #78, .T. ) ;
#668 = CARTESIAN_POINT ( 'NONE',  ( -1.474423942660132900, 2.035492285753671900, 14.62364870297386900 ) ) ;
#669 = CIRCLE ( 'NONE', #16, 2.886751345948127800 ) ;
#670 = ADVANCED_FACE ( 'NONE', ( #379 ), #87, .F. ) ;
#671 = CARTESIAN_POINT ( 'NONE',  ( 2.499999999999999600, 7.270328049818062900E-015, 14.61324865405187300 ) ) ;
#672 = CARTESIAN_POINT ( 'NONE',  ( -2.499999999999999600, 1.220075137408311900, 14.88834973221712100 ) ) ;
#673 = VERTEX_POINT ( 'NONE', #641 ) ;
#674 = CARTESIAN_POINT ( 'NONE',  ( 0.0000000000000000000, 4.000000000000000900, -15.00000000000000000 ) ) ;
#675 = DATE_AND_TIME ( #644, #558 ) ;
#676 = DIRECTION ( 'NONE',  ( -0.8660254037844386000, 0.4999999999999998900, 0.0000000000000000000 ) ) ;
#677 = EDGE_CURVE ( 'NONE', #604, #505, #188, .T. ) ;
#678 = ADVANCED_FACE ( 'NONE', ( #657 ), #211, .T. ) ;
#679 = LINE ( 'NONE', #58, #333 ) ;
#680 = CARTESIAN_POINT ( 'NONE',  ( 2.500000000000000000, -1.219765728829423500, 14.88819502792768300 ) ) ;
#681 = CARTESIAN_POINT ( 'NONE',  ( -0.3950665264161346600, -2.658659580573963200, 14.79134017728669700 ) ) ;
#682 = MANIFOLD_SOLID_BREP ( 'Cut-Extrude2', #444 ) ;
#683 = EDGE_CURVE ( 'NONE', #309, #366, #647, .T. ) ;
#684 = CARTESIAN_POINT ( 'NONE',  ( 4.568976219386127800E-016, 2.886751345948129500, 11.91999999999999800 ) ) ;
#685 = CARTESIAN_POINT ( 'NONE',  ( -2.500000000000000000, 1.443375672974065700, 11.91999999999999800 ) ) ;
#686 = COORDINATED_UNIVERSAL_TIME_OFFSET ( 6, 0, .BEHIND. ) ;
#687 = EDGE_LOOP ( 'NONE', ( #377, #218, #454, #10 ) ) ;
#688 = ORIENTED_EDGE ( 'NONE', *, *, #677, .T. ) ;
#689 = CARTESIAN_POINT ( 'NONE',  ( -2.500000000000004000, 1.443375672974063200, 15.00000000000000000 ) ) ;
#690 = CONICAL_SURFACE ( 'NONE', #421, 2.886751345948127800, 0.7853981633974500600 ) ;
#691 = PERSON_AND_ORGANIZATION_ROLE ( 'design_owner' ) ;
#692 = FACE_OUTER_BOUND ( 'NONE', #275, .T. ) ;
#693 = ORIENTED_EDGE ( 'NONE', *, *, #199, .T. ) ;
#694 = DIRECTION ( 'NONE',  ( -0.0000000000000000000, 1.224646799147353200E-016, -1.000000000000000000 ) ) ;
#695 = CARTESIAN_POINT ( 'NONE',  ( 0.8106343009612337900, 2.418731414073817200, 14.66125635044877400 ) ) ;
#696 = CALENDAR_DATE ( 2025, 3, 6 ) ;
#697 = AXIS2_PLACEMENT_3D ( 'NONE', #523, #694, #475 ) ;
#698 = DIRECTION ( 'NONE',  ( 0.8660254037844387100, 0.4999999999999997200, 0.0000000000000000000 ) ) ;
#699 = LINE ( 'NONE', #614, #554 ) ;
#700 = DIRECTION ( 'NONE',  ( 0.0000000000000000000, -1.000000000000000000, 0.0000000000000000000 ) ) ;
#701 = CC_DESIGN_APPROVAL ( #322, ( #386 ) ) ;
#702 = ORIENTED_EDGE ( 'NONE', *, *, #466, .T. ) ;
#703 = APPROVAL_STATUS ( 'not_yet_approved' ) ;
#704 = CONICAL_SURFACE ( 'NONE', #104, 2.886751345948127800, 0.7853981633974500600 ) ;
#705 = EDGE_CURVE ( 'NONE', #91, #86, #358, .T. ) ;
#706 = VECTOR ( 'NONE', #658, 1000.000000000000000 ) ;
#707 = EDGE_LOOP ( 'NONE', ( #638, #15 ) ) ;
#708 = EDGE_LOOP ( 'NONE', ( #5, #236, #494, #387 ) ) ;
#709 = DATE_AND_TIME ( #382, #100 ) ;
#710 = ORIENTED_EDGE ( 'NONE', *, *, #705, .T. ) ;
#711 = ADVANCED_FACE ( 'NONE', ( #499, #225 ), #477, .T. ) ;
#712 = VECTOR ( 'NONE', #308, 1000.000000000000000 ) ;
ENDSEC;
END-ISO-10303-21;
