SolidWorks IGES file using analytic representation for surfaces         S      1
1H,,1H;,53H98689A224_General Purpose 18-8 Stainless Steel Washer,111HF:\G      1
CAD_Workflows\Generated_Files\98689A224_1709302301\98689A224_General PurG      2
pose 18-8 Stainless Steel Washer.IGS,15HSolidWorks 2017,15HSolidWorks 20G      3
17,32,308,15,308,15,53H98689A224_General Purpose 18-8 Stainless Steel WaG      4
sher,1.,2,2HMM,50,0.125,13H240301.141149,1E-008,499990.,9Hintuser33,,   G      5
11,0,13H240301.141149;                                                  G      6
     314       1       0       0       0                        00000200D      1
     314       0       8       1       0                               0D      2
     128       2       0       0       0                        01010000D      3
     128       0       0      15       0                               0D      4
     126      17       0       0       0                        01010500D      5
     126       0       0       2       0                               0D      6
     100      19       0       0       0                        01010000D      7
     100       0       0       1       0                               0D      8
     126      20       0       0       0                        01010500D      9
     126       0       0       2       0                               0D     10
     124      22       0       0       0                        00000000D     11
     124       0       0       3       0                               0D     12
     100      25       0       0       0              11        01010000D     13
     100       0       0       1       0                               0D     14
     126      26       0       0       0                        01010500D     15
     126       0       0       2       0                               0D     16
     124      28       0       0       0                        00000000D     17
     124       0       0       4       0                               0D     18
     100      32       0       0       0              17        01010000D     19
     100       0       0       1       0                               0D     20
     126      33       0       0       0                        01010500D     21
     126       0       0       2       0                               0D     22
     124      35       0       0       0                        00000000D     23
     124       0       0       3       0                               0D     24
     100      38       0       0       0              23        01010000D     25
     100       0       0       1       0                               0D     26
     102      39       0       0       0                        01010500D     27
     102       0       0       1       0                               0D     28
     102      40       0       0       0                        01010000D     29
     102       0       0       1       0                               0D     30
     142      41       0       0       0                        00010500D     31
     142       0       0       1       0                               0D     32
     144      42       0       0       0                        00000000D     33
     144       0      -1       1       0                               0D     34
     128      43       0       0       0                        01010000D     35
     128       0       0      15       0                               0D     36
     126      58       0       0       0                        01010500D     37
     126       0       0       2       0                               0D     38
     100      60       0       0       0                        01010000D     39
     100       0       0       1       0                               0D     40
     126      61       0       0       0                        01010500D     41
     126       0       0       2       0                               0D     42
     124      63       0       0       0                        00000000D     43
     124       0       0       4       0                               0D     44
     100      67       0       0       0              43        01010000D     45
     100       0       0       1       0                               0D     46
     126      68       0       0       0                        01010500D     47
     126       0       0       2       0                               0D     48
     124      70       0       0       0                        00000000D     49
     124       0       0       3       0                               0D     50
     100      73       0       0       0              49        01010000D     51
     100       0       0       1       0                               0D     52
     126      74       0       0       0                        01010500D     53
     126       0       0       2       0                               0D     54
     124      76       0       0       0                        00000000D     55
     124       0       0       3       0                               0D     56
     100      79       0       0       0              55        01010000D     57
     100       0       0       1       0                               0D     58
     102      80       0       0       0                        01010500D     59
     102       0       0       1       0                               0D     60
     102      81       0       0       0                        01010000D     61
     102       0       0       1       0                               0D     62
     142      82       0       0       0                        00010500D     63
     142       0       0       1       0                               0D     64
     144      83       0       0       0                        00000000D     65
     144       0      -1       1       0                               0D     66
     128      84       0       0       0                        01010000D     67
     128       0       0      16       0                               0D     68
     126     100       0       0       0                        01010500D     69
     126       0       0       2       0                               0D     70
     100     102       0       0       0                        01010000D     71
     100       0       0       1       0                               0D     72
     126     103       0       0       0                        01010500D     73
     126       0       0       2       0                               0D     74
     124     105       0       0       0                        00000000D     75
     124       0       0       4       0                               0D     76
     100     109       0       0       0              75        01010000D     77
     100       0       0       1       0                               0D     78
     126     110       0       0       0                        01010500D     79
     126       0       0       2       0                               0D     80
     124     112       0       0       0                        00000000D     81
     124       0       0       4       0                               0D     82
     100     116       0       0       0              81        01010000D     83
     100       0       0       1       0                               0D     84
     126     117       0       0       0                        01010500D     85
     126       0       0       2       0                               0D     86
     124     119       0       0       0                        00000000D     87
     124       0       0       3       0                               0D     88
     100     122       0       0       0              87        01010000D     89
     100       0       0       1       0                               0D     90
     102     123       0       0       0                        01010500D     91
     102       0       0       1       0                               0D     92
     102     124       0       0       0                        01010000D     93
     102       0       0       1       0                               0D     94
     142     125       0       0       0                        00010500D     95
     142       0       0       1       0                               0D     96
     144     126       0       0       0                        00000000D     97
     144       0      -1       1       0                               0D     98
     128     127       0       0       0                        01010000D     99
     128       0       0      16       0                               0D    100
     126     143       0       0       0                        01010500D    101
     126       0       0       2       0                               0D    102
     100     145       0       0       0                        01010000D    103
     100       0       0       1       0                               0D    104
     126     146       0       0       0                        01010500D    105
     126       0       0       2       0                               0D    106
     124     148       0       0       0                        00000000D    107
     124       0       0       3       0                               0D    108
     100     151       0       0       0             107        01010000D    109
     100       0       0       1       0                               0D    110
     126     152       0       0       0                        01010500D    111
     126       0       0       2       0                               0D    112
     124     154       0       0       0                        00000000D    113
     124       0       0       3       0                               0D    114
     100     157       0       0       0             113        01010000D    115
     100       0       0       1       0                               0D    116
     126     158       0       0       0                        01010500D    117
     126       0       0       2       0                               0D    118
     124     160       0       0       0                        00000000D    119
     124       0       0       2       0                               0D    120
     100     162       0       0       0             119        01010000D    121
     100       0       0       1       0                               0D    122
     102     163       0       0       0                        01010500D    123
     102       0       0       1       0                               0D    124
     102     164       0       0       0                        01010000D    125
     102       0       0       1       0                               0D    126
     142     165       0       0       0                        00010500D    127
     142       0       0       1       0                               0D    128
     144     166       0       0       0                        00000000D    129
     144       0      -1       1       0                               0D    130
     110     167       0       0       0                        01010000D    131
     110       0       0       1       0                               0D    132
     110     168       0       0       0                        01010000D    133
     110       0       0       1       0                               0D    134
     120     169       0       0       0                        01010000D    135
     120       0       0       1       0                               0D    136
     126     170       0       0       0                        01010500D    137
     126       0       0       2       0                               0D    138
     110     172       0       0       0                        01010000D    139
     110       0       0       1       0                               0D    140
     126     173       0       0       0                        01010500D    141
     126       0       0       2       0                               0D    142
     124     175       0       0       0                        00000000D    143
     124       0       0       4       0                               0D    144
     100     179       0       0       0             143        01010000D    145
     100       0       0       1       0                               0D    146
     126     180       0       0       0                        01010500D    147
     126       0       0       2       0                               0D    148
     110     182       0       0       0                        01010000D    149
     110       0       0       1       0                               0D    150
     126     183       0       0       0                        01010500D    151
     126       0       0       2       0                               0D    152
     100     185       0       0       0                        01010000D    153
     100       0       0       1       0                               0D    154
     102     186       0       0       0                        01010500D    155
     102       0       0       1       0                               0D    156
     102     187       0       0       0                        01010000D    157
     102       0       0       1       0                               0D    158
     142     188       0       0       0                        00010500D    159
     142       0       0       1       0                               0D    160
     144     189       0       0       0                        00000000D    161
     144       0      -1       1       0                               0D    162
     110     190       0       0       0                        01010000D    163
     110       0       0       1       0                               0D    164
     110     191       0       0       0                        01010000D    165
     110       0       0       1       0                               0D    166
     120     192       0       0       0                        01010000D    167
     120       0       0       1       0                               0D    168
     126     193       0       0       0                        01010500D    169
     126       0       0       2       0                               0D    170
     100     195       0       0       0                        01010000D    171
     100       0       0       1       0                               0D    172
     126     196       0       0       0                        01010500D    173
     126       0       0       2       0                               0D    174
     110     198       0       0       0                        01010000D    175
     110       0       0       1       0                               0D    176
     126     199       0       0       0                        01010500D    177
     126       0       0       2       0                               0D    178
     124     201       0       0       0                        00000000D    179
     124       0       0       3       0                               0D    180
     100     204       0       0       0             179        01010000D    181
     100       0       0       1       0                               0D    182
     126     205       0       0       0                        01010500D    183
     126       0       0       2       0                               0D    184
     110     207       0       0       0                        01010000D    185
     110       0       0       1       0                               0D    186
     102     208       0       0       0                        01010500D    187
     102       0       0       1       0                               0D    188
     102     209       0       0       0                        01010000D    189
     102       0       0       1       0                               0D    190
     142     210       0       0       0                        00010500D    191
     142       0       0       1       0                               0D    192
     144     211       0       0       0                        00000000D    193
     144       0      -1       1       0                               0D    194
     110     212       0       0       0                        01010000D    195
     110       0       0       1       0                               0D    196
     110     213       0       0       0                        01010000D    197
     110       0       0       1       0                               0D    198
     120     214       0       0       0                        01010000D    199
     120       0       0       1       0                               0D    200
     126     215       0       0       0                        01010500D    201
     126       0       0       2       0                               0D    202
     110     217       0       0       0                        01010000D    203
     110       0       0       1       0                               0D    204
     126     218       0       0       0                        01010500D    205
     126       0       0       2       0                               0D    206
     100     220       0       0       0                        01010000D    207
     100       0       0       1       0                               0D    208
     126     221       0       0       0                        01010500D    209
     126       0       0       2       0                               0D    210
     110     223       0       0       0                        01010000D    211
     110       0       0       1       0                               0D    212
     126     224       0       0       0                        01010500D    213
     126       0       0       2       0                               0D    214
     124     226       0       0       0                        00000000D    215
     124       0       0       4       0                               0D    216
     100     230       0       0       0             215        01010000D    217
     100       0       0       1       0                               0D    218
     102     231       0       0       0                        01010500D    219
     102       0       0       1       0                               0D    220
     102     232       0       0       0                        01010000D    221
     102       0       0       1       0                               0D    222
     142     233       0       0       0                        00010500D    223
     142       0       0       1       0                               0D    224
     144     234       0       0       0                        00000000D    225
     144       0      -1       1       0                               0D    226
     128     235       0       0       0                        01010000D    227
     128       0       0       3       0                               0D    228
     126     238       0       0       0                        01010500D    229
     126       0       0      44       0                               0D    230
     100     282       0       0       0                        01010000D    231
     100       0       0       1       0                               0D    232
     126     283       0       0       0                        01010500D    233
     126       0       0      44       0                               0D    234
     100     327       0       0       0                        01010000D    235
     100       0       0       1       0                               0D    236
     102     328       0       0       0                        01010500D    237
     102       0       0       1       0                               0D    238
     102     329       0       0       0                        01010000D    239
     102       0       0       1       0                               0D    240
     142     330       0       0       0                        00010500D    241
     142       0       0       1       0                               0D    242
     126     331       0       0       0                        01010500D    243
     126       0       0      22       0                               0D    244
     124     353       0       0       0                        00000000D    245
     124       0       0       4       0                               0D    246
     100     357       0       0       0             245        01010000D    247
     100       0       0       1       0                               0D    248
     126     358       0       0       0                        01010500D    249
     126       0       0      22       0                               0D    250
     124     380       0       0       0                        00000000D    251
     124       0       0       4       0                               0D    252
     100     384       0       0       0             251        01010000D    253
     100       0       0       1       0                               0D    254
     102     385       0       0       0                        01010500D    255
     102       0       0       1       0                               0D    256
     102     386       0       0       0                        01010000D    257
     102       0       0       1       0                               0D    258
     142     387       0       0       0                        00010500D    259
     142       0       0       1       0                               0D    260
     144     388       0       0       0                        00000000D    261
     144       0      -1       1       0                               0D    262
     110     389       0       0       0                        01010000D    263
     110       0       0       1       0                               0D    264
     110     390       0       0       0                        01010000D    265
     110       0       0       1       0                               0D    266
     120     391       0       0       0                        01010000D    267
     120       0       0       1       0                               0D    268
     126     392       0       0       0                        01010500D    269
     126       0       0       2       0                               0D    270
     124     394       0       0       0                        00000000D    271
     124       0       0       3       0                               0D    272
     100     397       0       0       0             271        01010000D    273
     100       0       0       1       0                               0D    274
     126     398       0       0       0                        01010500D    275
     126       0       0       2       0                               0D    276
     110     400       0       0       0                        01010000D    277
     110       0       0       1       0                               0D    278
     126     401       0       0       0                        01010500D    279
     126       0       0       2       0                               0D    280
     100     403       0       0       0                        01010000D    281
     100       0       0       1       0                               0D    282
     126     404       0       0       0                        01010500D    283
     126       0       0       2       0                               0D    284
     110     406       0       0       0                        01010000D    285
     110       0       0       1       0                               0D    286
     102     407       0       0       0                        01010500D    287
     102       0       0       1       0                               0D    288
     102     408       0       0       0                        01010000D    289
     102       0       0       1       0                               0D    290
     142     409       0       0       0                        00010500D    291
     142       0       0       1       0                               0D    292
     144     410       0       0       0                        00000000D    293
     144       0      -1       1       0                               0D    294
     128     411       0       0       0                        01010000D    295
     128       0       0       3       0                               0D    296
     126     414       0       0       0                        01010500D    297
     126       0       0      44       0                               0D    298
     100     458       0       0       0                        01010000D    299
     100       0       0       1       0                               0D    300
     126     459       0       0       0                        01010500D    301
     126       0       0      44       0                               0D    302
     100     503       0       0       0                        01010000D    303
     100       0       0       1       0                               0D    304
     102     504       0       0       0                        01010500D    305
     102       0       0       1       0                               0D    306
     102     505       0       0       0                        01010000D    307
     102       0       0       1       0                               0D    308
     142     506       0       0       0                        00010500D    309
     142       0       0       1       0                               0D    310
     126     507       0       0       0                        01010500D    311
     126       0       0      22       0                               0D    312
     124     529       0       0       0                        00000000D    313
     124       0       0       4       0                               0D    314
     100     533       0       0       0             313        01010000D    315
     100       0       0       1       0                               0D    316
     126     534       0       0       0                        01010500D    317
     126       0       0      22       0                               0D    318
     124     556       0       0       0                        00000000D    319
     124       0       0       4       0                               0D    320
     100     560       0       0       0             319        01010000D    321
     100       0       0       1       0                               0D    322
     102     561       0       0       0                        01010500D    323
     102       0       0       1       0                               0D    324
     102     562       0       0       0                        01010000D    325
     102       0       0       1       0                               0D    326
     142     563       0       0       0                        00010500D    327
     142       0       0       1       0                               0D    328
     144     564       0       0       0                        00000000D    329
     144       0      -1       1       0                               0D    330
     128     565       0       0       0                        01010000D    331
     128       0       0      16       0                               0D    332
     126     581       0       0       0                        01010500D    333
     126       0       0       2       0                               0D    334
     124     583       0       0       0                        00000000D    335
     124       0       0       4       0                               0D    336
     100     587       0       0       0             335        01010000D    337
     100       0       0       1       0                               0D    338
     126     588       0       0       0                        01010500D    339
     126       0       0       2       0                               0D    340
     100     590       0       0       0                        01010000D    341
     100       0       0       1       0                               0D    342
     126     591       0       0       0                        01010500D    343
     126       0       0       2       0                               0D    344
     124     593       0       0       0                        00000000D    345
     124       0       0       3       0                               0D    346
     100     596       0       0       0             345        01010000D    347
     100       0       0       1       0                               0D    348
     126     597       0       0       0                        01010500D    349
     126       0       0       2       0                               0D    350
     124     599       0       0       0                        00000000D    351
     124       0       0       4       0                               0D    352
     100     603       0       0       0             351        01010000D    353
     100       0       0       1       0                               0D    354
     102     604       0       0       0                        01010500D    355
     102       0       0       1       0                               0D    356
     102     605       0       0       0                        01010000D    357
     102       0       0       1       0                               0D    358
     142     606       0       0       0                        00010500D    359
     142       0       0       1       0                               0D    360
     144     607       0       0       0                        00000000D    361
     144       0      -1       1       0                               0D    362
     128     608       0       0       0                        01010000D    363
     128       0       0      16       0                               0D    364
     126     624       0       0       0                        01010500D    365
     126       0       0       2       0                               0D    366
     124     626       0       0       0                        00000000D    367
     124       0       0       4       0                               0D    368
     100     630       0       0       0             367        01010000D    369
     100       0       0       1       0                               0D    370
     126     631       0       0       0                        01010500D    371
     126       0       0       2       0                               0D    372
     100     633       0       0       0                        01010000D    373
     100       0       0       1       0                               0D    374
     126     634       0       0       0                        01010500D    375
     126       0       0       2       0                               0D    376
     124     636       0       0       0                        00000000D    377
     124       0       0       3       0                               0D    378
     100     639       0       0       0             377        01010000D    379
     100       0       0       1       0                               0D    380
     126     640       0       0       0                        01010500D    381
     126       0       0       2       0                               0D    382
     124     642       0       0       0                        00000000D    383
     124       0       0       4       0                               0D    384
     100     646       0       0       0             383        01010000D    385
     100       0       0       1       0                               0D    386
     102     647       0       0       0                        01010500D    387
     102       0       0       1       0                               0D    388
     102     648       0       0       0                        01010000D    389
     102       0       0       1       0                               0D    390
     142     649       0       0       0                        00010500D    391
     142       0       0       1       0                               0D    392
     144     650       0       0       0                        00000000D    393
     144       0      -1       1       0                               0D    394
     128     651       0       0       0                        01010000D    395
     128       0       0      16       0                               0D    396
     126     667       0       0       0                        01010500D    397
     126       0       0       2       0                               0D    398
     124     669       0       0       0                        00000000D    399
     124       0       0       4       0                               0D    400
     100     673       0       0       0             399        01010000D    401
     100       0       0       1       0                               0D    402
     126     674       0       0       0                        01010500D    403
     126       0       0       2       0                               0D    404
     100     676       0       0       0                        01010000D    405
     100       0       0       1       0                               0D    406
     126     677       0       0       0                        01010500D    407
     126       0       0       2       0                               0D    408
     124     679       0       0       0                        00000000D    409
     124       0       0       3       0                               0D    410
     100     682       0       0       0             409        01010000D    411
     100       0       0       1       0                               0D    412
     126     683       0       0       0                        01010500D    413
     126       0       0       2       0                               0D    414
     124     685       0       0       0                        00000000D    415
     124       0       0       4       0                               0D    416
     100     689       0       0       0             415        01010000D    417
     100       0       0       1       0                               0D    418
     102     690       0       0       0                        01010500D    419
     102       0       0       1       0                               0D    420
     102     691       0       0       0                        01010000D    421
     102       0       0       1       0                               0D    422
     142     692       0       0       0                        00010500D    423
     142       0       0       1       0                               0D    424
     144     693       0       0       0                        00000000D    425
     144       0      -1       1       0                               0D    426
     128     694       0       0       0                        01010000D    427
     128       0       0      16       0                               0D    428
     126     710       0       0       0                        01010500D    429
     126       0       0       2       0                               0D    430
     124     712       0       0       0                        00000000D    431
     124       0       0       3       0                               0D    432
     100     715       0       0       0             431        01010000D    433
     100       0       0       1       0                               0D    434
     126     716       0       0       0                        01010500D    435
     126       0       0       2       0                               0D    436
     100     718       0       0       0                        01010000D    437
     100       0       0       1       0                               0D    438
     126     719       0       0       0                        01010500D    439
     126       0       0       2       0                               0D    440
     124     721       0       0       0                        00000000D    441
     124       0       0       2       0                               0D    442
     100     723       0       0       0             441        01010000D    443
     100       0       0       1       0                               0D    444
     126     724       0       0       0                        01010500D    445
     126       0       0       2       0                               0D    446
     124     726       0       0       0                        00000000D    447
     124       0       0       4       0                               0D    448
     100     730       0       0       0             447        01010000D    449
     100       0       0       1       0                               0D    450
     102     731       0       0       0                        01010500D    451
     102       0       0       1       0                               0D    452
     102     732       0       0       0                        01010000D    453
     102       0       0       1       0                               0D    454
     142     733       0       0       0                        00010500D    455
     142       0       0       1       0                               0D    456
     144     734       0       0       0                        00000000D    457
     144       0      -1       1       0                               0D    458
314,75.2941176470588,75.2941176470588,75.2941176470588,;               1P      1
128,3,3,3,3,0,0,0,0,0,0.,0.,0.,0.,1.,1.,1.,1.,0.,0.,0.,0.,1.,          3P      2
1.,1.,1.,1.,0.755320871117972,0.755320871117972,1.,                    3P      3
0.333333333333333,0.251773623705991,0.251773623705991,                 3P      4
0.333333333333333,0.333333333333333,0.251773623705991,                 3P      5
0.251773623705991,0.333333333333333,1.,0.755320871117972,              3P      6
0.755320871117972,1.,19.071064968,0.,1.648051624,19.336220968,         3P      7
0.,1.674655965,19.524655965,0.,1.486220968,19.498051624,0.,            3P      8
1.221064968,19.071064968,38.142129935,1.648051624,19.336220968,        3P      9
38.672441937,1.674655965,19.524655965,39.04931193,1.486220968,         3P     10
19.498051624,38.996103249,1.221064968,-19.071064968,                   3P     11
38.142129935,1.648051624,-19.336220968,38.672441937,                   3P     12
1.674655965,-19.524655965,39.04931193,1.486220968,                     3P     13
-19.498051624,38.996103249,1.221064968,-19.071064968,0.,               3P     14
1.648051624,-19.336220968,0.,1.674655965,-19.524655965,0.,             3P     15
1.486220968,-19.498051624,0.,1.221064968,0.,1.,0.,1.;                  3P     16
126,1,1,1,0,1,0,0.,0.,1.,1.,1.,1.,0.936858543,0.,0.,                   5P     17
0.936858543,1.,0.,0.,1.,0.,0.,1.;                                      5P     18
100,1.26,0.,0.,19.5,0.,-19.5,0.;                                       7P     19
126,1,1,1,0,1,0,0.,0.,1.,1.,1.,1.,0.936858543,1.,0.,                   9P     20
0.063141457,1.,0.,0.,1.,0.,0.,1.;                                      9P     21
124,-1.,7.105427357601E-015,1.22464679914735E-016,-38.22,             11P     22
1.22464679914735E-016,-6.12323399573685E-017,1.,-1.26,                11P     23
7.105427357601E-015,1.,6.12323399573677E-017,1.26000000000013;        11P     24
100,1.26,-19.11,0.,-18.72,0.,-19.11,0.39;                             13P     25
126,1,1,1,0,1,0,0.,0.,1.,1.,1.,1.,0.063141457,1.,0.,                  15P     26
0.063141457,0.,0.,0.,1.,0.,0.,1.;                                     15P     27
124,-1.,-6.98296267768627E-015,0.,-1.09476442525376E-044,             17P     28
-6.98296267768627E-015,1.,-6.98296267768627E-015,                     17P     29
1.15218884181823E-014,4.87617677579594E-029,                          17P     30
-6.98296267768627E-015,-1.,3.3;                                       17P     31
100,1.65,0.,0.,19.11,0.,-19.11,0.;                                    19P     32
126,1,1,1,0,1,0,0.,0.,1.,1.,1.,1.,0.063141457,0.,0.,                  21P     33
0.936858543,0.,0.,0.,1.,0.,0.,1.;                                     21P     34
124,1.40271576953299E-014,1.,0.,19.1099999999997,                     23P     35
-6.12323399573677E-017,8.58915688636046E-031,1.,-1.26,1.,             23P     36
-1.40271576953299E-014,6.12323399573677E-017,-17.85;                  23P     37
100,1.26,19.11,0.,19.5,0.,19.11,0.39;                                 25P     38
102,4,5,9,15,21;                                                      27P     39
102,4,7,13,19,25;                                                     29P     40
142,1,3,27,29,1;                                                      31P     41
144,3,1,0,31;                                                         33P     42
128,3,3,3,3,0,0,0,0,0,0.,0.,0.,0.,1.,1.,1.,1.,0.,0.,0.,0.,1.,         35P     43
1.,1.,1.,1.,0.755320871117972,0.755320871117972,1.,                   35P     44
0.333333333333333,0.251773623705991,0.251773623705991,                35P     45
0.333333333333333,0.333333333333333,0.251773623705991,                35P     46
0.251773623705991,0.333333333333333,1.,0.755320871117972,             35P     47
0.755320871117972,1.,11.501948376,0.,1.221064968,11.475344035,        35P     48
0.,1.486220968,11.663779032,0.,1.674655965,11.928935032,0.,           35P     49
1.648051624,11.501948376,23.003896751,1.221064968,11.475344035,       35P     50
22.95068807,1.486220968,11.663779032,23.327558063,1.674655965,        35P     51
11.928935032,23.857870065,1.648051624,-11.501948376,                  35P     52
23.003896751,1.221064968,-11.475344035,22.95068807,1.486220968,       35P     53
-11.663779032,23.327558063,1.674655965,-11.928935032,                 35P     54
23.857870065,1.648051624,-11.501948376,0.,1.221064968,                35P     55
-11.475344035,0.,1.486220968,-11.663779032,0.,1.674655965,            35P     56
-11.928935032,0.,1.648051624,0.,1.,0.,1.;                             35P     57
126,1,1,1,0,1,0,0.,0.,1.,1.,1.,1.,0.936858543,0.,0.,                  37P     58
0.936858543,1.,0.,0.,1.,0.,0.,1.;                                     37P     59
100,1.65,0.,0.,11.89,0.,-11.89,0.;                                    39P     60
126,1,1,1,0,1,0,0.,0.,1.,1.,1.,1.,0.936858543,1.,0.,                  41P     61
0.063141457,1.,0.,0.,1.,0.,0.,1.;                                     41P     62
124,1.41496223752446E-014,1.,1.22464679914735E-016,                   43P     63
-11.8899999999998,-6.12323399573694E-017,                             43P     64
-1.22464679914734E-016,1.,-1.26,1.,-1.41496223752446E-014,            43P     65
6.12323399573677E-017,13.15;                                          43P     66
100,1.26,-11.89,0.,-11.5,0.,-11.89,0.39;                              45P     67
126,1,1,1,0,1,0,0.,0.,1.,1.,1.,1.,0.063141457,1.,0.,                  47P     68
0.063141457,0.,0.,0.,1.,0.,0.,1.;                                     47P     69
124,-1.,-6.98296267768627E-015,0.,0.,-6.98296267768627E-015,1.,       49P     70
-6.98296267768627E-015,8.7985329738847E-015,                          49P     71
4.87617677579594E-029,-6.98296267768627E-015,-1.,2.52;                49P     72
100,1.26,0.,0.,11.5,0.,-11.5,0.;                                      51P     73
126,1,1,1,0,1,0,0.,0.,1.,1.,1.,1.,0.063141457,0.,0.,                  53P     74
0.936858543,0.,0.,0.,1.,0.,0.,1.;                                     53P     75
124,-1.,6.98296267768627E-015,0.,23.78,-4.27583144589696E-031,        55P     76
-6.12323399573677E-017,1.,-1.26,6.98296267768627E-015,1.,             55P     77
6.12323399573677E-017,1.25999999999992;                               55P     78
100,1.26,11.89,0.,12.28,0.,11.89,0.39;                                57P     79
102,4,37,41,47,53;                                                    59P     80
102,4,39,45,51,57;                                                    61P     81
142,1,35,59,61,1;                                                     63P     82
144,35,1,0,63;                                                        65P     83
128,3,3,3,3,0,0,0,0,0,0.,0.,0.,0.,1.,1.,1.,1.,0.,0.,0.,0.,1.,         67P     84
1.,1.,1.,1.,0.755320871117972,0.755320871117972,1.,                   67P     85
0.333333333333333,0.251773623705991,0.251773623705991,                67P     86
0.333333333333333,0.333333333333333,0.251773623705991,                67P     87
0.251773623705991,0.333333333333333,1.,0.755320871117972,             67P     88
0.755320871117972,1.,11.928935032,0.,-1.648051624,11.663779032,       67P     89
0.,-1.674655965,11.475344035,0.,-1.486220968,11.501948376,0.,         67P     90
-1.221064968,11.928935032,23.857870065,-1.648051624,                  67P     91
11.663779032,23.327558063,-1.674655965,11.475344035,                  67P     92
22.95068807,-1.486220968,11.501948376,23.003896751,                   67P     93
-1.221064968,-11.928935032,23.857870065,-1.648051624,                 67P     94
-11.663779032,23.327558063,-1.674655965,-11.475344035,                67P     95
22.95068807,-1.486220968,-11.501948376,23.003896751,                  67P     96
-1.221064968,-11.928935032,0.,-1.648051624,-11.663779032,0.,          67P     97
-1.674655965,-11.475344035,0.,-1.486220968,-11.501948376,0.,          67P     98
-1.221064968,0.,1.,0.,1.;                                             67P     99
126,1,1,1,0,1,0,0.,0.,1.,1.,1.,1.,0.936858543,0.,0.,                  69P    100
0.936858543,1.,0.,0.,1.,0.,0.,1.;                                     69P    101
100,-1.26,0.,0.,11.5,0.,-11.5,0.;                                     71P    102
126,1,1,1,0,1,0,0.,0.,1.,1.,1.,1.,0.936858543,1.,0.,                  73P    103
0.063141457,1.,0.,0.,1.,0.,0.,1.;                                     73P    104
124,1.,-1.40883900352873E-014,1.22464679914735E-016,                  75P    105
-2.49831188003663E-016,-1.22464679914734E-016,                        75P    106
6.12323399573694E-017,1.,1.26,-1.40883900352873E-014,-1.,             75P    107
6.12323399573677E-017,-1.26000000000017;                              75P    108
100,-1.26,-11.89,0.,-11.5,0.,-11.89,0.39;                             77P    109
126,1,1,1,0,1,0,0.,0.,1.,1.,1.,1.,0.063141457,1.,0.,                  79P    110
0.063141457,0.,0.,0.,1.,0.,0.,1.;                                     79P    111
124,-1.,-6.98296267768627E-015,0.,1.09476442525376E-044,              81P    112
-6.98296267768627E-015,1.,-6.98296267768627E-015,                     81P    113
-1.15218884181823E-014,4.87617677579594E-029,                         81P    114
-6.98296267768627E-015,-1.,-3.3;                                      81P    115
100,-1.65,0.,0.,11.89,0.,-11.89,0.;                                   83P    116
126,1,1,1,0,1,0,0.,0.,1.,1.,1.,1.,0.063141457,0.,0.,                  85P    117
0.936858543,0.,0.,0.,1.,0.,0.,1.;                                     85P    118
124,6.12323399573677E-017,-1.,0.,11.89,6.12323399573677E-017,         87P    119
3.74939945665464E-033,1.,1.26,-1.,-6.12323399573677E-017,             87P    120
6.12323399573677E-017,10.63;                                          87P    121
100,-1.26,11.89,0.,12.28,0.,11.89,0.39;                               89P    122
102,4,69,73,79,85;                                                    91P    123
102,4,71,77,83,89;                                                    93P    124
142,1,67,91,93,1;                                                     95P    125
144,67,1,0,95;                                                        97P    126
128,3,3,3,3,0,0,0,0,0,0.,0.,0.,0.,1.,1.,1.,1.,0.,0.,0.,0.,1.,         99P    127
1.,1.,1.,1.,0.755320871117972,0.755320871117972,1.,                   99P    128
0.333333333333333,0.251773623705991,0.251773623705991,                99P    129
0.333333333333333,0.333333333333333,0.251773623705991,                99P    130
0.251773623705991,0.333333333333333,1.,0.755320871117972,             99P    131
0.755320871117972,1.,19.498051624,0.,-1.221064968,19.524655965,       99P    132
0.,-1.486220968,19.336220968,0.,-1.674655965,19.071064968,0.,         99P    133
-1.648051624,19.498051624,38.996103249,-1.221064968,                  99P    134
19.524655965,39.04931193,-1.486220968,19.336220968,                   99P    135
38.672441937,-1.674655965,19.071064968,38.142129935,                  99P    136
-1.648051624,-19.498051624,38.996103249,-1.221064968,                 99P    137
-19.524655965,39.04931193,-1.486220968,-19.336220968,                 99P    138
38.672441937,-1.674655965,-19.071064968,38.142129935,                 99P    139
-1.648051624,-19.498051624,0.,-1.221064968,-19.524655965,0.,          99P    140
-1.486220968,-19.336220968,0.,-1.674655965,-19.071064968,0.,          99P    141
-1.648051624,0.,1.,0.,1.;                                             99P    142
126,1,1,1,0,1,0,0.,0.,1.,1.,1.,1.,0.936858543,0.,0.,                 101P    143
0.936858543,1.,0.,0.,1.,0.,0.,1.;                                    101P    144
100,-1.65,0.,0.,19.11,0.,-19.11,0.;                                  103P    145
126,1,1,1,0,1,0,0.,0.,1.,1.,1.,1.,0.936858543,1.,0.,                 105P    146
0.063141457,1.,0.,0.,1.,0.,0.,1.;                                    105P    147
124,-6.12323399573676E-017,-1.,1.22464679914735E-016,-19.11,         107P    148
6.12323399573677E-017,1.22464679914735E-016,1.,1.26,-1.,             107P    149
6.12323399573677E-017,6.12323399573677E-017,-20.37;                  107P    150
100,-1.26,-19.11,0.,-18.72,0.,-19.11,0.39;                           109P    151
126,1,1,1,0,1,0,0.,0.,1.,1.,1.,1.,0.063141457,1.,0.,                 111P    152
0.063141457,0.,0.,0.,1.,0.,0.,1.;                                    111P    153
124,-1.,-6.98296267768627E-015,0.,0.,-6.98296267768627E-015,1.,      113P    154
-6.98296267768627E-015,-8.7985329738847E-015,                        113P    155
4.87617677579594E-029,-6.98296267768627E-015,-1.,-2.52;              113P    156
100,-1.26,0.,0.,19.5,0.,-19.5,0.;                                    115P    157
126,1,1,1,0,1,0,0.,0.,1.,1.,1.,1.,0.063141457,0.,0.,                 117P    158
0.936858543,0.,0.,0.,1.,0.,0.,1.;                                    117P    159
124,1.,0.,0.,0.,0.,6.12323399573677E-017,1.,1.26,0.,-1.,             119P    160
6.12323399573677E-017,-1.26;                                         119P    161
100,-1.26,19.11,0.,19.5,0.,19.11,0.39;                               121P    162
102,4,101,105,111,117;                                               123P    163
102,4,103,109,115,121;                                               125P    164
142,1,99,123,125,1;                                                  127P    165
144,99,1,0,127;                                                      129P    166
110,0.,0.,-1.65,0.,0.,998.35;                                        131P    167
110,11.5,0.,-1.26,11.5,0.,1.26;                                      133P    168
120,131,133,0.,6.28318530717959;                                     135P    169
126,1,1,1,0,1,0,0.,0.,1.,1.,1.,1.,0.,6.283185307,0.,1.,              137P    170
6.283185307,0.,0.,1.,0.,0.,1.;                                       137P    171
110,11.5,0.,-1.26,11.5,0.,1.26;                                      139P    172
126,1,1,1,0,1,0,0.,0.,1.,1.,1.,1.,1.,6.283185307,0.,1.,              141P    173
3.141592654,0.,0.,1.,0.,0.,1.;                                       141P    174
124,1.,-7.35035671743047E-015,8.55166289179392E-031,                 143P    175
-1.07750952436604E-030,-7.35035671743047E-015,-1.,                   143P    176
6.98296267768627E-015,-8.7985329738847E-015,                         143P    177
-5.04721003363181E-029,-6.98296267768627E-015,-1.,2.52;              143P    178
100,1.26,0.,0.,11.5,0.,-11.5,0.;                                     145P    179
126,1,1,1,0,1,0,0.,0.,1.,1.,1.,1.,1.,3.141592654,0.,0.,              147P    180
3.141592654,0.,0.,1.,0.,0.,1.;                                       147P    181
110,-11.5,0.,1.26,-11.5,0.,-1.26;                                    149P    182
126,1,1,1,0,1,0,0.,0.,1.,1.,1.,1.,0.,3.141592654,0.,0.,              151P    183
6.283185307,0.,0.,1.,0.,0.,1.;                                       151P    184
100,-1.26,0.,0.,-11.5,0.,11.5,0.;                                    153P    185
102,4,137,141,147,151;                                               155P    186
102,4,139,145,149,153;                                               157P    187
142,1,135,155,157,1;                                                 159P    188
144,135,1,0,159;                                                     161P    189
110,0.,0.,-1.65,0.,0.,998.35;                                        163P    190
110,19.5,0.,-1.26,19.5,0.,1.26;                                      165P    191
120,163,165,0.,6.28318530717959;                                     167P    192
126,1,1,1,0,1,0,0.,0.,1.,1.,1.,1.,0.,0.,0.,0.,3.141592654,0.,        169P    193
0.,1.,0.,0.,1.;                                                      169P    194
100,-1.26,0.,0.,19.5,0.,-19.5,0.;                                    171P    195
126,1,1,1,0,1,0,0.,0.,1.,1.,1.,1.,0.,3.141592654,0.,1.,              173P    196
3.141592654,0.,0.,1.,0.,0.,1.;                                       173P    197
110,-19.5,0.,-1.26,-19.5,0.,1.26;                                    175P    198
126,1,1,1,0,1,0,0.,0.,1.,1.,1.,1.,1.,3.141592654,0.,1.,0.,0.,        177P    199
0.,1.,0.,0.,1.;                                                      177P    200
124,-1.,-6.98296267768627E-015,0.,0.,-6.98296267768627E-015,1.,      179P    201
-6.98296267768627E-015,8.7985329738847E-015,                         179P    202
4.87617677579594E-029,-6.98296267768627E-015,-1.,2.52;               179P    203
100,1.26,0.,0.,19.5,0.,-19.5,0.;                                     181P    204
126,1,1,1,0,1,0,0.,0.,1.,1.,1.,1.,1.,0.,0.,0.,0.,0.,0.,1.,0.,        183P    205
0.,1.;                                                               183P    206
110,19.5,0.,1.26,19.5,0.,-1.26;                                      185P    207
102,4,169,173,177,183;                                               187P    208
102,4,171,175,181,185;                                               189P    209
142,1,167,187,189,1;                                                 191P    210
144,167,1,0,191;                                                     193P    211
110,0.,0.,-1.65,0.,0.,998.35;                                        195P    212
110,19.5,0.,-1.26,19.5,0.,1.26;                                      197P    213
120,195,197,0.,6.28318530717959;                                     199P    214
126,1,1,1,0,1,0,0.,0.,1.,1.,1.,1.,1.,3.141592654,0.,0.,              201P    215
3.141592654,0.,0.,1.,0.,0.,1.;                                       201P    216
110,-19.5,0.,1.26,-19.5,0.,-1.26;                                    203P    217
126,1,1,1,0,1,0,0.,0.,1.,1.,1.,1.,0.,3.141592654,0.,0.,              205P    218
6.283185307,0.,0.,1.,0.,0.,1.;                                       205P    219
100,-1.26,0.,0.,-19.5,0.,19.5,0.;                                    207P    220
126,1,1,1,0,1,0,0.,0.,1.,1.,1.,1.,0.,6.283185307,0.,1.,              209P    221
6.283185307,0.,0.,1.,0.,0.,1.;                                       209P    222
110,19.5,0.,-1.26,19.5,0.,1.26;                                      211P    223
126,1,1,1,0,1,0,0.,0.,1.,1.,1.,1.,1.,6.283185307,0.,1.,              213P    224
3.141592654,0.,0.,1.,0.,0.,1.;                                       213P    225
124,1.,-7.35035671743047E-015,8.55166289179392E-031,                 215P    226
-1.07750952436604E-030,-7.35035671743047E-015,-1.,                   215P    227
6.98296267768627E-015,-8.7985329738847E-015,                         215P    228
-5.04721003363181E-029,-6.98296267768627E-015,-1.,2.52;              215P    229
100,1.26,0.,0.,19.5,0.,-19.5,0.;                                     217P    230
102,4,201,205,209,213;                                               219P    231
102,4,203,207,211,217;                                               221P    232
142,1,199,219,221,1;                                                 223P    233
144,199,1,0,223;                                                     225P    234
128,1,1,1,1,0,0,1,0,0,0.,0.,1.,1.,0.,0.,1.,1.,1.,1.,1.,1.,           227P    235
-19.33932,-19.33932,-1.65,19.33932,-19.33932,-1.65,-19.33932,        227P    236
19.33932,-1.65,19.33932,19.33932,-1.65,0.,1.,0.,1.;                  227P    237
126,64,2,1,0,1,0,0.,0.,0.,0.03125,0.03125,0.0625,0.0625,             229P    238
0.09375,0.09375,0.125,0.125,0.15625,0.15625,0.1875,0.1875,           229P    239
0.21875,0.21875,0.25,0.25,0.28125,0.28125,0.3125,0.3125,             229P    240
0.34375,0.34375,0.375,0.375,0.40625,0.40625,0.4375,0.4375,           229P    241
0.46875,0.46875,0.5,0.5,0.53125,0.53125,0.5625,0.5625,0.59375,       229P    242
0.59375,0.625,0.625,0.65625,0.65625,0.6875,0.6875,0.71875,           229P    243
0.71875,0.75,0.75,0.78125,0.78125,0.8125,0.8125,0.84375,             229P    244
0.84375,0.875,0.875,0.90625,0.90625,0.9375,0.9375,0.96875,           229P    245
0.96875,1.,1.,1.,1.,1.,1.,1.,1.,1.,1.,1.,1.,1.,1.,1.,1.,1.,1.,       229P    246
1.,1.,1.,1.,1.,1.,1.,1.,1.,1.,1.,1.,1.,1.,1.,1.,1.,1.,1.,1.,1.,      229P    247
1.,1.,1.,1.,1.,1.,1.,1.,1.,1.,1.,1.,1.,1.,1.,1.,1.,1.,1.,1.,1.,      229P    248
1.,1.,1.,1.,1.,1.,1.,1.,0.994071146,0.5,0.,0.994071146,              229P    249
0.524272159,0.,0.991692059,0.548427441,0.,0.989312971,               229P    250
0.572582723,0.,0.984577708,0.596388499,0.,0.979842444,               229P    251
0.620194275,0.,0.972796609,0.643421283,0.,0.965750773,               229P    252
0.666648291,0.,0.95646222,0.689072842,0.,0.947173667,                229P    253
0.711497393,0.,0.93573185,0.732903526,0.,0.924290033,                229P    254
0.754309659,0.,0.910805144,0.774491222,0.,0.897320255,               229P    255
0.794672784,0.,0.881922161,0.813435417,0.,0.866524066,               229P    256
0.83219805,0.,0.849361058,0.849361058,0.,0.83219805,                 229P    257
0.866524066,0.,0.813435417,0.881922161,0.,0.794672784,               229P    258
0.897320255,0.,0.774491222,0.910805144,0.,0.754309659,               229P    259
0.924290033,0.,0.732903526,0.93573185,0.,0.711497393,                229P    260
0.947173667,0.,0.689072842,0.95646222,0.,0.666648291,                229P    261
0.965750773,0.,0.643421283,0.972796609,0.,0.620194275,               229P    262
0.979842444,0.,0.596388499,0.984577708,0.,0.572582723,               229P    263
0.989312971,0.,0.548427441,0.991692059,0.,0.524272159,               229P    264
0.994071146,0.,0.5,0.994071146,0.,0.475727841,0.994071146,0.,        229P    265
0.451572559,0.991692059,0.,0.427417277,0.989312971,0.,               229P    266
0.403611501,0.984577708,0.,0.379805725,0.979842444,0.,               229P    267
0.356578717,0.972796609,0.,0.333351709,0.965750773,0.,               229P    268
0.310927158,0.95646222,0.,0.288502607,0.947173667,0.,                229P    269
0.267096474,0.93573185,0.,0.245690341,0.924290033,0.,                229P    270
0.225508778,0.910805144,0.,0.205327216,0.897320255,0.,               229P    271
0.186564583,0.881922161,0.,0.16780195,0.866524066,0.,                229P    272
0.150638942,0.849361058,0.,0.133475934,0.83219805,0.,                229P    273
0.118077839,0.813435417,0.,0.102679745,0.794672784,0.,               229P    274
0.089194856,0.774491222,0.,0.075709967,0.754309659,0.,               229P    275
0.06426815,0.732903526,0.,0.052826333,0.711497393,0.,                229P    276
0.04353778,0.689072842,0.,0.034249227,0.666648291,0.,                229P    277
0.027203391,0.643421283,0.,0.020157556,0.620194275,0.,               229P    278
0.015422292,0.596388499,0.,0.010687029,0.572582723,0.,               229P    279
0.008307941,0.548427441,0.,0.005928854,0.524272159,0.,               229P    280
0.005928854,0.5,0.,0.,1.,0.,0.,-1.;                                  229P    281
100,-1.65,0.,0.,19.11,0.,-19.11,0.;                                  231P    282
126,64,2,1,0,1,0,0.,0.,0.,0.03125,0.03125,0.0625,0.0625,             233P    283
0.09375,0.09375,0.125,0.125,0.15625,0.15625,0.1875,0.1875,           233P    284
0.21875,0.21875,0.25,0.25,0.28125,0.28125,0.3125,0.3125,             233P    285
0.34375,0.34375,0.375,0.375,0.40625,0.40625,0.4375,0.4375,           233P    286
0.46875,0.46875,0.5,0.5,0.53125,0.53125,0.5625,0.5625,0.59375,       233P    287
0.59375,0.625,0.625,0.65625,0.65625,0.6875,0.6875,0.71875,           233P    288
0.71875,0.75,0.75,0.78125,0.78125,0.8125,0.8125,0.84375,             233P    289
0.84375,0.875,0.875,0.90625,0.90625,0.9375,0.9375,0.96875,           233P    290
0.96875,1.,1.,1.,1.,1.,1.,1.,1.,1.,1.,1.,1.,1.,1.,1.,1.,1.,1.,       233P    291
1.,1.,1.,1.,1.,1.,1.,1.,1.,1.,1.,1.,1.,1.,1.,1.,1.,1.,1.,1.,1.,      233P    292
1.,1.,1.,1.,1.,1.,1.,1.,1.,1.,1.,1.,1.,1.,1.,1.,1.,1.,1.,1.,1.,      233P    293
1.,1.,1.,1.,1.,1.,1.,1.,0.005928854,0.5,0.,0.005928854,              233P    294
0.475727841,0.,0.008307941,0.451572559,0.,0.010687029,               233P    295
0.427417277,0.,0.015422292,0.403611501,0.,0.020157556,               233P    296
0.379805725,0.,0.027203391,0.356578717,0.,0.034249227,               233P    297
0.333351709,0.,0.04353778,0.310927158,0.,0.052826333,                233P    298
0.288502607,0.,0.06426815,0.267096474,0.,0.075709967,                233P    299
0.245690341,0.,0.089194856,0.225508778,0.,0.102679745,               233P    300
0.205327216,0.,0.118077839,0.186564583,0.,0.133475934,               233P    301
0.16780195,0.,0.150638942,0.150638942,0.,0.16780195,                 233P    302
0.133475934,0.,0.186564583,0.118077839,0.,0.205327216,               233P    303
0.102679745,0.,0.225508778,0.089194856,0.,0.245690341,               233P    304
0.075709967,0.,0.267096474,0.06426815,0.,0.288502607,                233P    305
0.052826333,0.,0.310927158,0.04353778,0.,0.333351709,                233P    306
0.034249227,0.,0.356578717,0.027203391,0.,0.379805725,               233P    307
0.020157556,0.,0.403611501,0.015422292,0.,0.427417277,               233P    308
0.010687029,0.,0.451572559,0.008307941,0.,0.475727841,               233P    309
0.005928854,0.,0.5,0.005928854,0.,0.524272159,0.005928854,0.,        233P    310
0.548427441,0.008307941,0.,0.572582723,0.010687029,0.,               233P    311
0.596388499,0.015422292,0.,0.620194275,0.020157556,0.,               233P    312
0.643421283,0.027203391,0.,0.666648291,0.034249227,0.,               233P    313
0.689072842,0.04353778,0.,0.711497393,0.052826333,0.,                233P    314
0.732903526,0.06426815,0.,0.754309659,0.075709967,0.,                233P    315
0.774491222,0.089194856,0.,0.794672784,0.102679745,0.,               233P    316
0.813435417,0.118077839,0.,0.83219805,0.133475934,0.,                233P    317
0.849361058,0.150638942,0.,0.866524066,0.16780195,0.,                233P    318
0.881922161,0.186564583,0.,0.897320255,0.205327216,0.,               233P    319
0.910805144,0.225508778,0.,0.924290033,0.245690341,0.,               233P    320
0.93573185,0.267096474,0.,0.947173667,0.288502607,0.,                233P    321
0.95646222,0.310927158,0.,0.965750773,0.333351709,0.,                233P    322
0.972796609,0.356578717,0.,0.979842444,0.379805725,0.,               233P    323
0.984577708,0.403611501,0.,0.989312971,0.427417277,0.,               233P    324
0.991692059,0.451572559,0.,0.994071146,0.475727841,0.,               233P    325
0.994071146,0.5,0.,0.,1.,0.,0.,-1.;                                  233P    326
100,-1.65,0.,0.,-19.11,0.,19.11,0.;                                  235P    327
102,2,229,233;                                                       237P    328
102,2,231,235;                                                       239P    329
142,1,227,237,239,1;                                                 241P    330
126,32,2,1,0,1,0,0.,0.,0.,0.0625,0.0625,0.125,0.125,0.1875,          243P    331
0.1875,0.25,0.25,0.3125,0.3125,0.375,0.375,0.4375,0.4375,0.5,        243P    332
0.5,0.5625,0.5625,0.625,0.625,0.6875,0.6875,0.75,0.75,0.8125,        243P    333
0.8125,0.875,0.875,0.9375,0.9375,1.,1.,1.,1.,1.,1.,1.,1.,1.,1.,      243P    334
1.,1.,1.,1.,1.,1.,1.,1.,1.,1.,1.,1.,1.,1.,1.,1.,1.,1.,1.,1.,1.,      243P    335
1.,1.,1.,1.,1.,0.807404811,0.5,0.,0.807404811,0.469723269,0.,        243P    336
0.801498113,0.440028297,0.,0.795591416,0.410333324,0.,               243P    337
0.784005013,0.382361272,0.,0.772418609,0.35438922,0.,                243P    338
0.755597759,0.329215038,0.,0.738776908,0.304040856,0.,               243P    339
0.717368026,0.282631974,0.,0.695959144,0.261223092,0.,               243P    340
0.670784962,0.244402241,0.,0.64561078,0.227581391,0.,                243P    341
0.617638728,0.215994987,0.,0.589666676,0.204408584,0.,               243P    342
0.559971703,0.198501887,0.,0.530276731,0.192595189,0.,0.5,           243P    343
0.192595189,0.,0.469723269,0.192595189,0.,0.440028297,               243P    344
0.198501887,0.,0.410333324,0.204408584,0.,0.382361272,               243P    345
0.215994987,0.,0.35438922,0.227581391,0.,0.329215038,                243P    346
0.244402241,0.,0.304040856,0.261223092,0.,0.282631974,               243P    347
0.282631974,0.,0.261223092,0.304040856,0.,0.244402241,               243P    348
0.329215038,0.,0.227581391,0.35438922,0.,0.215994987,                243P    349
0.382361272,0.,0.204408584,0.410333324,0.,0.198501887,               243P    350
0.440028297,0.,0.192595189,0.469723269,0.,0.192595189,0.5,0.,        243P    351
0.,1.,0.,0.,1.;                                                      243P    352
124,1.,-7.35035671743047E-015,8.55166289179392E-031,                 245P    353
1.41102437714601E-030,-7.35035671743047E-015,-1.,                    245P    354
6.98296267768627E-015,1.15218884181823E-014,                         245P    355
-5.04721003363181E-029,-6.98296267768627E-015,-1.,-3.3;              245P    356
100,-1.65,0.,0.,11.89,0.,-11.89,0.;                                  247P    357
126,32,2,1,0,1,0,0.,0.,0.,0.0625,0.0625,0.125,0.125,0.1875,          249P    358
0.1875,0.25,0.25,0.3125,0.3125,0.375,0.375,0.4375,0.4375,0.5,        249P    359
0.5,0.5625,0.5625,0.625,0.625,0.6875,0.6875,0.75,0.75,0.8125,        249P    360
0.8125,0.875,0.875,0.9375,0.9375,1.,1.,1.,1.,1.,1.,1.,1.,1.,1.,      249P    361
1.,1.,1.,1.,1.,1.,1.,1.,1.,1.,1.,1.,1.,1.,1.,1.,1.,1.,1.,1.,1.,      249P    362
1.,1.,1.,1.,1.,0.192595189,0.5,0.,0.192595189,0.530276731,0.,        249P    363
0.198501887,0.559971703,0.,0.204408584,0.589666676,0.,               249P    364
0.215994987,0.617638728,0.,0.227581391,0.64561078,0.,                249P    365
0.244402241,0.670784962,0.,0.261223092,0.695959144,0.,               249P    366
0.282631974,0.717368026,0.,0.304040856,0.738776908,0.,               249P    367
0.329215038,0.755597759,0.,0.35438922,0.772418609,0.,                249P    368
0.382361272,0.784005013,0.,0.410333324,0.795591416,0.,               249P    369
0.440028297,0.801498113,0.,0.469723269,0.807404811,0.,0.5,           249P    370
0.807404811,0.,0.530276731,0.807404811,0.,0.559971703,               249P    371
0.801498113,0.,0.589666676,0.795591416,0.,0.617638728,               249P    372
0.784005013,0.,0.64561078,0.772418609,0.,0.670784962,                249P    373
0.755597759,0.,0.695959144,0.738776908,0.,0.717368026,               249P    374
0.717368026,0.,0.738776908,0.695959144,0.,0.755597759,               249P    375
0.670784962,0.,0.772418609,0.64561078,0.,0.784005013,                249P    376
0.617638728,0.,0.795591416,0.589666676,0.,0.801498113,               249P    377
0.559971703,0.,0.807404811,0.530276731,0.,0.807404811,0.5,0.,        249P    378
0.,1.,0.,0.,1.;                                                      249P    379
124,-1.,-6.98296267768627E-015,0.,1.09476442525376E-044,             251P    380
-6.98296267768627E-015,1.,-6.98296267768627E-015,                    251P    381
-1.15218884181823E-014,4.87617677579594E-029,                        251P    382
-6.98296267768627E-015,-1.,-3.3;                                     251P    383
100,-1.65,0.,0.,11.89,0.,-11.89,0.;                                  253P    384
102,2,243,249;                                                       255P    385
102,2,247,253;                                                       257P    386
142,1,227,255,257,1;                                                 259P    387
144,227,1,1,241,259;                                                 261P    388
110,0.,0.,-1.65,0.,0.,998.35;                                        263P    389
110,11.5,0.,-1.26,11.5,0.,1.26;                                      265P    390
120,263,265,0.,6.28318530717959;                                     267P    391
126,1,1,1,0,1,0,0.,0.,1.,1.,1.,1.,1.,3.141592654,0.,1.,0.,0.,        269P    392
0.,1.,0.,0.,1.;                                                      269P    393
124,-1.,-6.98296267768627E-015,0.,0.,-6.98296267768627E-015,1.,      271P    394
-6.98296267768627E-015,8.7985329738847E-015,                         271P    395
4.87617677579594E-029,-6.98296267768627E-015,-1.,2.52;               271P    396
100,1.26,0.,0.,11.5,0.,-11.5,0.;                                     273P    397
126,1,1,1,0,1,0,0.,0.,1.,1.,1.,1.,1.,0.,0.,0.,0.,0.,0.,1.,0.,        275P    398
0.,1.;                                                               275P    399
110,11.5,0.,1.26,11.5,0.,-1.26;                                      277P    400
126,1,1,1,0,1,0,0.,0.,1.,1.,1.,1.,0.,0.,0.,0.,3.141592654,0.,        279P    401
0.,1.,0.,0.,1.;                                                      279P    402
100,-1.26,0.,0.,11.5,0.,-11.5,0.;                                    281P    403
126,1,1,1,0,1,0,0.,0.,1.,1.,1.,1.,0.,3.141592654,0.,1.,              283P    404
3.141592654,0.,0.,1.,0.,0.,1.;                                       283P    405
110,-11.5,0.,-1.26,-11.5,0.,1.26;                                    285P    406
102,4,269,275,279,283;                                               287P    407
102,4,273,277,281,285;                                               289P    408
142,1,267,287,289,1;                                                 291P    409
144,267,1,0,291;                                                     293P    410
128,1,1,1,1,0,0,1,0,0,0.,0.,1.,1.,0.,0.,1.,1.,1.,1.,1.,1.,           295P    411
-19.33932,-19.33932,1.65,19.33932,-19.33932,1.65,-19.33932,          295P    412
19.33932,1.65,19.33932,19.33932,1.65,0.,1.,0.,1.;                    295P    413
126,64,2,1,0,1,0,0.,0.,0.,0.03125,0.03125,0.0625,0.0625,             297P    414
0.09375,0.09375,0.125,0.125,0.15625,0.15625,0.1875,0.1875,           297P    415
0.21875,0.21875,0.25,0.25,0.28125,0.28125,0.3125,0.3125,             297P    416
0.34375,0.34375,0.375,0.375,0.40625,0.40625,0.4375,0.4375,           297P    417
0.46875,0.46875,0.5,0.5,0.53125,0.53125,0.5625,0.5625,0.59375,       297P    418
0.59375,0.625,0.625,0.65625,0.65625,0.6875,0.6875,0.71875,           297P    419
0.71875,0.75,0.75,0.78125,0.78125,0.8125,0.8125,0.84375,             297P    420
0.84375,0.875,0.875,0.90625,0.90625,0.9375,0.9375,0.96875,           297P    421
0.96875,1.,1.,1.,1.,1.,1.,1.,1.,1.,1.,1.,1.,1.,1.,1.,1.,1.,1.,       297P    422
1.,1.,1.,1.,1.,1.,1.,1.,1.,1.,1.,1.,1.,1.,1.,1.,1.,1.,1.,1.,1.,      297P    423
1.,1.,1.,1.,1.,1.,1.,1.,1.,1.,1.,1.,1.,1.,1.,1.,1.,1.,1.,1.,1.,      297P    424
1.,1.,1.,1.,1.,1.,1.,1.,0.994071146,0.5,0.,0.994071146,              297P    425
0.524272159,0.,0.991692059,0.548427441,0.,0.989312971,               297P    426
0.572582723,0.,0.984577708,0.596388499,0.,0.979842444,               297P    427
0.620194275,0.,0.972796609,0.643421283,0.,0.965750773,               297P    428
0.666648291,0.,0.95646222,0.689072842,0.,0.947173667,                297P    429
0.711497393,0.,0.93573185,0.732903526,0.,0.924290033,                297P    430
0.754309659,0.,0.910805144,0.774491222,0.,0.897320255,               297P    431
0.794672784,0.,0.881922161,0.813435417,0.,0.866524066,               297P    432
0.83219805,0.,0.849361058,0.849361058,0.,0.83219805,                 297P    433
0.866524066,0.,0.813435417,0.881922161,0.,0.794672784,               297P    434
0.897320255,0.,0.774491222,0.910805144,0.,0.754309659,               297P    435
0.924290033,0.,0.732903526,0.93573185,0.,0.711497393,                297P    436
0.947173667,0.,0.689072842,0.95646222,0.,0.666648291,                297P    437
0.965750773,0.,0.643421283,0.972796609,0.,0.620194275,               297P    438
0.979842444,0.,0.596388499,0.984577708,0.,0.572582723,               297P    439
0.989312971,0.,0.548427441,0.991692059,0.,0.524272159,               297P    440
0.994071146,0.,0.5,0.994071146,0.,0.475727841,0.994071146,0.,        297P    441
0.451572559,0.991692059,0.,0.427417277,0.989312971,0.,               297P    442
0.403611501,0.984577708,0.,0.379805725,0.979842444,0.,               297P    443
0.356578717,0.972796609,0.,0.333351709,0.965750773,0.,               297P    444
0.310927158,0.95646222,0.,0.288502607,0.947173667,0.,                297P    445
0.267096474,0.93573185,0.,0.245690341,0.924290033,0.,                297P    446
0.225508778,0.910805144,0.,0.205327216,0.897320255,0.,               297P    447
0.186564583,0.881922161,0.,0.16780195,0.866524066,0.,                297P    448
0.150638942,0.849361058,0.,0.133475934,0.83219805,0.,                297P    449
0.118077839,0.813435417,0.,0.102679745,0.794672784,0.,               297P    450
0.089194856,0.774491222,0.,0.075709967,0.754309659,0.,               297P    451
0.06426815,0.732903526,0.,0.052826333,0.711497393,0.,                297P    452
0.04353778,0.689072842,0.,0.034249227,0.666648291,0.,                297P    453
0.027203391,0.643421283,0.,0.020157556,0.620194275,0.,               297P    454
0.015422292,0.596388499,0.,0.010687029,0.572582723,0.,               297P    455
0.008307941,0.548427441,0.,0.005928854,0.524272159,0.,               297P    456
0.005928854,0.5,0.,0.,1.,0.,0.,-1.;                                  297P    457
100,1.65,0.,0.,19.11,0.,-19.11,0.;                                   299P    458
126,64,2,1,0,1,0,0.,0.,0.,0.03125,0.03125,0.0625,0.0625,             301P    459
0.09375,0.09375,0.125,0.125,0.15625,0.15625,0.1875,0.1875,           301P    460
0.21875,0.21875,0.25,0.25,0.28125,0.28125,0.3125,0.3125,             301P    461
0.34375,0.34375,0.375,0.375,0.40625,0.40625,0.4375,0.4375,           301P    462
0.46875,0.46875,0.5,0.5,0.53125,0.53125,0.5625,0.5625,0.59375,       301P    463
0.59375,0.625,0.625,0.65625,0.65625,0.6875,0.6875,0.71875,           301P    464
0.71875,0.75,0.75,0.78125,0.78125,0.8125,0.8125,0.84375,             301P    465
0.84375,0.875,0.875,0.90625,0.90625,0.9375,0.9375,0.96875,           301P    466
0.96875,1.,1.,1.,1.,1.,1.,1.,1.,1.,1.,1.,1.,1.,1.,1.,1.,1.,1.,       301P    467
1.,1.,1.,1.,1.,1.,1.,1.,1.,1.,1.,1.,1.,1.,1.,1.,1.,1.,1.,1.,1.,      301P    468
1.,1.,1.,1.,1.,1.,1.,1.,1.,1.,1.,1.,1.,1.,1.,1.,1.,1.,1.,1.,1.,      301P    469
1.,1.,1.,1.,1.,1.,1.,1.,0.005928854,0.5,0.,0.005928854,              301P    470
0.475727841,0.,0.008307941,0.451572559,0.,0.010687029,               301P    471
0.427417277,0.,0.015422292,0.403611501,0.,0.020157556,               301P    472
0.379805725,0.,0.027203391,0.356578717,0.,0.034249227,               301P    473
0.333351709,0.,0.04353778,0.310927158,0.,0.052826333,                301P    474
0.288502607,0.,0.06426815,0.267096474,0.,0.075709967,                301P    475
0.245690341,0.,0.089194856,0.225508778,0.,0.102679745,               301P    476
0.205327216,0.,0.118077839,0.186564583,0.,0.133475934,               301P    477
0.16780195,0.,0.150638942,0.150638942,0.,0.16780195,                 301P    478
0.133475934,0.,0.186564583,0.118077839,0.,0.205327216,               301P    479
0.102679745,0.,0.225508778,0.089194856,0.,0.245690341,               301P    480
0.075709967,0.,0.267096474,0.06426815,0.,0.288502607,                301P    481
0.052826333,0.,0.310927158,0.04353778,0.,0.333351709,                301P    482
0.034249227,0.,0.356578717,0.027203391,0.,0.379805725,               301P    483
0.020157556,0.,0.403611501,0.015422292,0.,0.427417277,               301P    484
0.010687029,0.,0.451572559,0.008307941,0.,0.475727841,               301P    485
0.005928854,0.,0.5,0.005928854,0.,0.524272159,0.005928854,0.,        301P    486
0.548427441,0.008307941,0.,0.572582723,0.010687029,0.,               301P    487
0.596388499,0.015422292,0.,0.620194275,0.020157556,0.,               301P    488
0.643421283,0.027203391,0.,0.666648291,0.034249227,0.,               301P    489
0.689072842,0.04353778,0.,0.711497393,0.052826333,0.,                301P    490
0.732903526,0.06426815,0.,0.754309659,0.075709967,0.,                301P    491
0.774491222,0.089194856,0.,0.794672784,0.102679745,0.,               301P    492
0.813435417,0.118077839,0.,0.83219805,0.133475934,0.,                301P    493
0.849361058,0.150638942,0.,0.866524066,0.16780195,0.,                301P    494
0.881922161,0.186564583,0.,0.897320255,0.205327216,0.,               301P    495
0.910805144,0.225508778,0.,0.924290033,0.245690341,0.,               301P    496
0.93573185,0.267096474,0.,0.947173667,0.288502607,0.,                301P    497
0.95646222,0.310927158,0.,0.965750773,0.333351709,0.,                301P    498
0.972796609,0.356578717,0.,0.979842444,0.379805725,0.,               301P    499
0.984577708,0.403611501,0.,0.989312971,0.427417277,0.,               301P    500
0.991692059,0.451572559,0.,0.994071146,0.475727841,0.,               301P    501
0.994071146,0.5,0.,0.,1.,0.,0.,-1.;                                  301P    502
100,1.65,0.,0.,-19.11,0.,19.11,0.;                                   303P    503
102,2,297,301;                                                       305P    504
102,2,299,303;                                                       307P    505
142,1,295,305,307,1;                                                 309P    506
126,32,2,1,0,1,0,0.,0.,0.,0.0625,0.0625,0.125,0.125,0.1875,          311P    507
0.1875,0.25,0.25,0.3125,0.3125,0.375,0.375,0.4375,0.4375,0.5,        311P    508
0.5,0.5625,0.5625,0.625,0.625,0.6875,0.6875,0.75,0.75,0.8125,        311P    509
0.8125,0.875,0.875,0.9375,0.9375,1.,1.,1.,1.,1.,1.,1.,1.,1.,1.,      311P    510
1.,1.,1.,1.,1.,1.,1.,1.,1.,1.,1.,1.,1.,1.,1.,1.,1.,1.,1.,1.,1.,      311P    511
1.,1.,1.,1.,1.,0.807404811,0.5,0.,0.807404811,0.469723269,0.,        311P    512
0.801498113,0.440028297,0.,0.795591416,0.410333324,0.,               311P    513
0.784005013,0.382361272,0.,0.772418609,0.35438922,0.,                311P    514
0.755597759,0.329215038,0.,0.738776908,0.304040856,0.,               311P    515
0.717368026,0.282631974,0.,0.695959144,0.261223092,0.,               311P    516
0.670784962,0.244402241,0.,0.64561078,0.227581391,0.,                311P    517
0.617638728,0.215994987,0.,0.589666676,0.204408584,0.,               311P    518
0.559971703,0.198501887,0.,0.530276731,0.192595189,0.,0.5,           311P    519
0.192595189,0.,0.469723269,0.192595189,0.,0.440028297,               311P    520
0.198501887,0.,0.410333324,0.204408584,0.,0.382361272,               311P    521
0.215994987,0.,0.35438922,0.227581391,0.,0.329215038,                311P    522
0.244402241,0.,0.304040856,0.261223092,0.,0.282631974,               311P    523
0.282631974,0.,0.261223092,0.304040856,0.,0.244402241,               311P    524
0.329215038,0.,0.227581391,0.35438922,0.,0.215994987,                311P    525
0.382361272,0.,0.204408584,0.410333324,0.,0.198501887,               311P    526
0.440028297,0.,0.192595189,0.469723269,0.,0.192595189,0.5,0.,        311P    527
0.,1.,0.,0.,1.;                                                      311P    528
124,1.,-7.35035671743047E-015,8.55166289179392E-031,                 313P    529
-1.41102437714601E-030,-7.35035671743047E-015,-1.,                   313P    530
6.98296267768627E-015,-1.15218884181823E-014,                        313P    531
-5.04721003363181E-029,-6.98296267768627E-015,-1.,3.3;               313P    532
100,1.65,0.,0.,11.89,0.,-11.89,0.;                                   315P    533
126,32,2,1,0,1,0,0.,0.,0.,0.0625,0.0625,0.125,0.125,0.1875,          317P    534
0.1875,0.25,0.25,0.3125,0.3125,0.375,0.375,0.4375,0.4375,0.5,        317P    535
0.5,0.5625,0.5625,0.625,0.625,0.6875,0.6875,0.75,0.75,0.8125,        317P    536
0.8125,0.875,0.875,0.9375,0.9375,1.,1.,1.,1.,1.,1.,1.,1.,1.,1.,      317P    537
1.,1.,1.,1.,1.,1.,1.,1.,1.,1.,1.,1.,1.,1.,1.,1.,1.,1.,1.,1.,1.,      317P    538
1.,1.,1.,1.,1.,0.192595189,0.5,0.,0.192595189,0.530276731,0.,        317P    539
0.198501887,0.559971703,0.,0.204408584,0.589666676,0.,               317P    540
0.215994987,0.617638728,0.,0.227581391,0.64561078,0.,                317P    541
0.244402241,0.670784962,0.,0.261223092,0.695959144,0.,               317P    542
0.282631974,0.717368026,0.,0.304040856,0.738776908,0.,               317P    543
0.329215038,0.755597759,0.,0.35438922,0.772418609,0.,                317P    544
0.382361272,0.784005013,0.,0.410333324,0.795591416,0.,               317P    545
0.440028297,0.801498113,0.,0.469723269,0.807404811,0.,0.5,           317P    546
0.807404811,0.,0.530276731,0.807404811,0.,0.559971703,               317P    547
0.801498113,0.,0.589666676,0.795591416,0.,0.617638728,               317P    548
0.784005013,0.,0.64561078,0.772418609,0.,0.670784962,                317P    549
0.755597759,0.,0.695959144,0.738776908,0.,0.717368026,               317P    550
0.717368026,0.,0.738776908,0.695959144,0.,0.755597759,               317P    551
0.670784962,0.,0.772418609,0.64561078,0.,0.784005013,                317P    552
0.617638728,0.,0.795591416,0.589666676,0.,0.801498113,               317P    553
0.559971703,0.,0.807404811,0.530276731,0.,0.807404811,0.5,0.,        317P    554
0.,1.,0.,0.,1.;                                                      317P    555
124,-1.,-6.98296267768627E-015,0.,-1.09476442525376E-044,            319P    556
-6.98296267768627E-015,1.,-6.98296267768627E-015,                    319P    557
1.15218884181823E-014,4.87617677579594E-029,                         319P    558
-6.98296267768627E-015,-1.,3.3;                                      319P    559
100,1.65,0.,0.,11.89,0.,-11.89,0.;                                   321P    560
102,2,311,317;                                                       323P    561
102,2,315,321;                                                       325P    562
142,1,295,323,325,1;                                                 327P    563
144,295,1,1,309,327;                                                 329P    564
128,3,3,3,3,0,0,0,0,0,0.,0.,0.,0.,1.,1.,1.,1.,0.,0.,0.,0.,1.,        331P    565
1.,1.,1.,1.,0.755320871117972,0.755320871117972,1.,                  331P    566
0.333333333333333,0.251773623705991,0.251773623705991,               331P    567
0.333333333333333,0.333333333333333,0.251773623705991,               331P    568
0.251773623705991,0.333333333333333,1.,0.755320871117972,            331P    569
0.755320871117972,1.,-19.498051624,0.,-1.221064968,                  331P    570
-19.524655965,0.,-1.486220968,-19.336220968,0.,-1.674655965,         331P    571
-19.071064968,0.,-1.648051624,-19.498051624,-38.996103249,           331P    572
-1.221064968,-19.524655965,-39.04931193,-1.486220968,                331P    573
-19.336220968,-38.672441937,-1.674655965,-19.071064968,              331P    574
-38.142129935,-1.648051624,19.498051624,-38.996103249,               331P    575
-1.221064968,19.524655965,-39.04931193,-1.486220968,                 331P    576
19.336220968,-38.672441937,-1.674655965,19.071064968,                331P    577
-38.142129935,-1.648051624,19.498051624,0.,-1.221064968,             331P    578
19.524655965,0.,-1.486220968,19.336220968,0.,-1.674655965,           331P    579
19.071064968,0.,-1.648051624,0.,1.,0.,1.;                            331P    580
126,1,1,1,0,1,0,0.,0.,1.,1.,1.,1.,0.063141457,0.,0.,                 333P    581
0.936858543,0.,0.,0.,1.,0.,0.,1.;                                    333P    582
124,-1.,7.105427357601E-015,-1.22464679914735E-016,-38.22,           335P    583
1.22464679914735E-016,-6.12323399573685E-017,-1.,-1.26,              335P    584
-7.105427357601E-015,-1.,6.12323399573677E-017,                      335P    585
-1.26000000000013;                                                   335P    586
100,-1.26,-19.11,0.,-18.72,0.,-19.11,0.39;                           337P    587
126,1,1,1,0,1,0,0.,0.,1.,1.,1.,1.,0.936858543,0.,0.,                 339P    588
0.936858543,1.,0.,0.,1.,0.,0.,1.;                                    339P    589
100,-1.65,0.,0.,-19.11,0.,19.11,0.;                                  341P    590
126,1,1,1,0,1,0,0.,0.,1.,1.,1.,1.,0.936858543,1.,0.,                 343P    591
0.063141457,1.,0.,0.,1.,0.,0.,1.;                                    343P    592
124,1.40271576953299E-014,1.,0.,19.1099999999997,                    345P    593
-6.12323399573677E-017,8.58915688636046E-031,-1.,-1.26,-1.,          345P    594
1.40271576953299E-014,6.12323399573677E-017,17.85;                   345P    595
100,-1.26,19.11,0.,19.5,0.,19.11,0.39;                               347P    596
126,1,1,1,0,1,0,0.,0.,1.,1.,1.,1.,0.063141457,1.,0.,                 349P    597
0.063141457,0.,0.,0.,1.,0.,0.,1.;                                    349P    598
124,1.,-7.35035671743047E-015,8.55166289179392E-031,                 351P    599
1.07750952436604E-030,-7.35035671743047E-015,-1.,                    351P    600
6.98296267768627E-015,8.7985329738847E-015,                          351P    601
-5.04721003363181E-029,-6.98296267768627E-015,-1.,-2.52;             351P    602
100,-1.26,0.,0.,19.5,0.,-19.5,0.;                                    353P    603
102,4,333,339,343,349;                                               355P    604
102,4,337,341,347,353;                                               357P    605
142,1,331,355,357,1;                                                 359P    606
144,331,1,0,359;                                                     361P    607
128,3,3,3,3,0,0,0,0,0,0.,0.,0.,0.,1.,1.,1.,1.,0.,0.,0.,0.,1.,        363P    608
1.,1.,1.,1.,0.755320871117972,0.755320871117972,1.,                  363P    609
0.333333333333333,0.251773623705991,0.251773623705991,               363P    610
0.333333333333333,0.333333333333333,0.251773623705991,               363P    611
0.251773623705991,0.333333333333333,1.,0.755320871117972,            363P    612
0.755320871117972,1.,-11.928935032,0.,-1.648051624,                  363P    613
-11.663779032,0.,-1.674655965,-11.475344035,0.,-1.486220968,         363P    614
-11.501948376,0.,-1.221064968,-11.928935032,-23.857870065,           363P    615
-1.648051624,-11.663779032,-23.327558063,-1.674655965,               363P    616
-11.475344035,-22.95068807,-1.486220968,-11.501948376,               363P    617
-23.003896751,-1.221064968,11.928935032,-23.857870065,               363P    618
-1.648051624,11.663779032,-23.327558063,-1.674655965,                363P    619
11.475344035,-22.95068807,-1.486220968,11.501948376,                 363P    620
-23.003896751,-1.221064968,11.928935032,0.,-1.648051624,             363P    621
11.663779032,0.,-1.674655965,11.475344035,0.,-1.486220968,           363P    622
11.501948376,0.,-1.221064968,0.,1.,0.,1.;                            363P    623
126,1,1,1,0,1,0,0.,0.,1.,1.,1.,1.,0.063141457,0.,0.,                 365P    624
0.936858543,0.,0.,0.,1.,0.,0.,1.;                                    365P    625
124,1.41496223752446E-014,1.,-1.22464679914735E-016,                 367P    626
-11.8899999999998,-6.12323399573694E-017,                            367P    627
-1.22464679914734E-016,-1.,-1.26,-1.,1.41496223752446E-014,          367P    628
6.12323399573677E-017,-13.15;                                        367P    629
100,-1.26,-11.89,0.,-11.5,0.,-11.89,0.39;                            369P    630
126,1,1,1,0,1,0,0.,0.,1.,1.,1.,1.,0.936858543,0.,0.,                 371P    631
0.936858543,1.,0.,0.,1.,0.,0.,1.;                                    371P    632
100,-1.26,0.,0.,-11.5,0.,11.5,0.;                                    373P    633
126,1,1,1,0,1,0,0.,0.,1.,1.,1.,1.,0.936858543,1.,0.,                 375P    634
0.063141457,1.,0.,0.,1.,0.,0.,1.;                                    375P    635
124,-1.,6.98296267768627E-015,0.,23.78,-4.27583144589696E-031,       377P    636
-6.12323399573677E-017,-1.,-1.26,-6.98296267768627E-015,-1.,         377P    637
6.12323399573677E-017,-1.25999999999992;                             377P    638
100,-1.26,11.89,0.,12.28,0.,11.89,0.39;                              379P    639
126,1,1,1,0,1,0,0.,0.,1.,1.,1.,1.,0.063141457,1.,0.,                 381P    640
0.063141457,0.,0.,0.,1.,0.,0.,1.;                                    381P    641
124,1.,-7.35035671743047E-015,8.55166289179392E-031,                 383P    642
1.41102437714601E-030,-7.35035671743047E-015,-1.,                    383P    643
6.98296267768627E-015,1.15218884181823E-014,                         383P    644
-5.04721003363181E-029,-6.98296267768627E-015,-1.,-3.3;              383P    645
100,-1.65,0.,0.,11.89,0.,-11.89,0.;                                  385P    646
102,4,365,371,375,381;                                               387P    647
102,4,369,373,379,385;                                               389P    648
142,1,363,387,389,1;                                                 391P    649
144,363,1,0,391;                                                     393P    650
128,3,3,3,3,0,0,0,0,0,0.,0.,0.,0.,1.,1.,1.,1.,0.,0.,0.,0.,1.,        395P    651
1.,1.,1.,1.,0.755320871117972,0.755320871117972,1.,                  395P    652
0.333333333333333,0.251773623705991,0.251773623705991,               395P    653
0.333333333333333,0.333333333333333,0.251773623705991,               395P    654
0.251773623705991,0.333333333333333,1.,0.755320871117972,            395P    655
0.755320871117972,1.,-11.501948376,0.,1.221064968,                   395P    656
-11.475344035,0.,1.486220968,-11.663779032,0.,1.674655965,           395P    657
-11.928935032,0.,1.648051624,-11.501948376,-23.003896751,            395P    658
1.221064968,-11.475344035,-22.95068807,1.486220968,                  395P    659
-11.663779032,-23.327558063,1.674655965,-11.928935032,               395P    660
-23.857870065,1.648051624,11.501948376,-23.003896751,                395P    661
1.221064968,11.475344035,-22.95068807,1.486220968,11.663779032,      395P    662
-23.327558063,1.674655965,11.928935032,-23.857870065,                395P    663
1.648051624,11.501948376,0.,1.221064968,11.475344035,0.,             395P    664
1.486220968,11.663779032,0.,1.674655965,11.928935032,0.,             395P    665
1.648051624,0.,1.,0.,1.;                                             395P    666
126,1,1,1,0,1,0,0.,0.,1.,1.,1.,1.,0.063141457,0.,0.,                 397P    667
0.936858543,0.,0.,0.,1.,0.,0.,1.;                                    397P    668
124,1.,-1.40883900352873E-014,-1.22464679914735E-016,                399P    669
-2.49831188003666E-016,-1.22464679914734E-016,                       399P    670
6.12323399573694E-017,-1.,1.26,1.40883900352873E-014,1.,             399P    671
6.12323399573677E-017,1.26000000000017;                              399P    672
100,1.26,-11.89,0.,-11.5,0.,-11.89,0.39;                             401P    673
126,1,1,1,0,1,0,0.,0.,1.,1.,1.,1.,0.936858543,0.,0.,                 403P    674
0.936858543,1.,0.,0.,1.,0.,0.,1.;                                    403P    675
100,1.65,0.,0.,-11.89,0.,11.89,0.;                                   405P    676
126,1,1,1,0,1,0,0.,0.,1.,1.,1.,1.,0.936858543,1.,0.,                 407P    677
0.063141457,1.,0.,0.,1.,0.,0.,1.;                                    407P    678
124,6.12323399573677E-017,-1.,0.,11.89,6.12323399573677E-017,        409P    679
3.74939945665464E-033,-1.,1.26,1.,6.12323399573677E-017,             409P    680
6.12323399573677E-017,-10.63;                                        409P    681
100,1.26,11.89,0.,12.28,0.,11.89,0.39;                               411P    682
126,1,1,1,0,1,0,0.,0.,1.,1.,1.,1.,0.063141457,1.,0.,                 413P    683
0.063141457,0.,0.,0.,1.,0.,0.,1.;                                    413P    684
124,1.,-7.35035671743047E-015,8.55166289179392E-031,                 415P    685
-1.07750952436604E-030,-7.35035671743047E-015,-1.,                   415P    686
6.98296267768627E-015,-8.7985329738847E-015,                         415P    687
-5.04721003363181E-029,-6.98296267768627E-015,-1.,2.52;              415P    688
100,1.26,0.,0.,11.5,0.,-11.5,0.;                                     417P    689
102,4,397,403,407,413;                                               419P    690
102,4,401,405,411,417;                                               421P    691
142,1,395,419,421,1;                                                 423P    692
144,395,1,0,423;                                                     425P    693
128,3,3,3,3,0,0,0,0,0,0.,0.,0.,0.,1.,1.,1.,1.,0.,0.,0.,0.,1.,        427P    694
1.,1.,1.,1.,0.755320871117972,0.755320871117972,1.,                  427P    695
0.333333333333333,0.251773623705991,0.251773623705991,               427P    696
0.333333333333333,0.333333333333333,0.251773623705991,               427P    697
0.251773623705991,0.333333333333333,1.,0.755320871117972,            427P    698
0.755320871117972,1.,-19.071064968,0.,1.648051624,                   427P    699
-19.336220968,0.,1.674655965,-19.524655965,0.,1.486220968,           427P    700
-19.498051624,0.,1.221064968,-19.071064968,-38.142129935,            427P    701
1.648051624,-19.336220968,-38.672441937,1.674655965,                 427P    702
-19.524655965,-39.04931193,1.486220968,-19.498051624,                427P    703
-38.996103249,1.221064968,19.071064968,-38.142129935,                427P    704
1.648051624,19.336220968,-38.672441937,1.674655965,                  427P    705
19.524655965,-39.04931193,1.486220968,19.498051624,                  427P    706
-38.996103249,1.221064968,19.071064968,0.,1.648051624,               427P    707
19.336220968,0.,1.674655965,19.524655965,0.,1.486220968,             427P    708
19.498051624,0.,1.221064968,0.,1.,0.,1.;                             427P    709
126,1,1,1,0,1,0,0.,0.,1.,1.,1.,1.,0.063141457,0.,0.,                 429P    710
0.936858543,0.,0.,0.,1.,0.,0.,1.;                                    429P    711
124,-6.12323399573676E-017,-1.,-1.22464679914735E-016,-19.11,        431P    712
6.12323399573677E-017,1.22464679914735E-016,-1.,1.26,1.,             431P    713
-6.12323399573677E-017,6.12323399573677E-017,20.37;                  431P    714
100,1.26,-19.11,0.,-18.72,0.,-19.11,0.39;                            433P    715
126,1,1,1,0,1,0,0.,0.,1.,1.,1.,1.,0.936858543,0.,0.,                 435P    716
0.936858543,1.,0.,0.,1.,0.,0.,1.;                                    435P    717
100,1.26,0.,0.,-19.5,0.,19.5,0.;                                     437P    718
126,1,1,1,0,1,0,0.,0.,1.,1.,1.,1.,0.936858543,1.,0.,                 439P    719
0.063141457,1.,0.,0.,1.,0.,0.,1.;                                    439P    720
124,1.,0.,0.,0.,0.,6.12323399573677E-017,-1.,1.26,0.,1.,             441P    721
6.12323399573677E-017,1.26;                                          441P    722
100,1.26,19.11,0.,19.5,0.,19.11,0.39;                                443P    723
126,1,1,1,0,1,0,0.,0.,1.,1.,1.,1.,0.063141457,1.,0.,                 445P    724
0.063141457,0.,0.,0.,1.,0.,0.,1.;                                    445P    725
124,1.,-7.35285599661241E-015,8.63892475803671E-031,                 447P    726
-1.42542258507607E-030,-7.35285599661241E-015,-1.,                   447P    727
6.98296267768627E-015,-1.15218884181823E-014,                        447P    728
-5.04808265229424E-029,-6.98296267768627E-015,-1.,3.3;               447P    729
100,1.65,0.,0.,19.11,0.,-19.11,0.;                                   449P    730
102,4,429,435,439,445;                                               451P    731
102,4,433,437,443,449;                                               453P    732
142,1,427,451,453,1;                                                 455P    733
144,427,1,0,455;                                                     457P    734
S      1G      6D    458P    734                                        T      1
