ISO-10303-21;
HEADER;
FILE_DESCRIPTION (( 'STEP AP203' ),
    '1' );
FILE_NAME ('91290A176_NO THREADS_Alloy Steel Socket Head Screw.STEP',
    '2023-01-11T17:08:34',
    ( 'Administrator' ),
    ( 'Managed by Terraform' ),
    'SwSTEP 2.0',
    'SolidWorks 2017',
    '' );
FILE_SCHEMA (( 'CONFIG_CONTROL_DESIGN' ));
ENDSEC;

DATA;
#1 = DIRECTION ( 'NONE',  ( 0.0000000000000000000, 0.0000000000000000000, 1.000000000000000000 ) ) ;
#2 = FACE_OUTER_BOUND ( 'NONE', #514, .T. ) ;
#3 = ORIENTED_EDGE ( 'NONE', *, *, #386, .F. ) ;
#4 = ADVANCED_FACE ( 'NONE', ( #112, #12 ), #30, .T. ) ;
#5 = EDGE_CURVE ( 'NONE', #128, #694, #701, .T. ) ;
#6 = CARTESIAN_POINT ( 'NONE',  ( 0.0000000000000000000, -2.000000000000000000, -14.04533666301317000 ) ) ;
#7 = CARTESIAN_POINT ( 'NONE',  ( -4.336808689942017700E-016, 1.732050807568877600, 11.50000000000000400 ) ) ;
#8 = COORDINATED_UNIVERSAL_TIME_OFFSET ( 6, 0, .BEHIND. ) ;
#9 = DIRECTION ( 'NONE',  ( 0.0000000000000000000, 1.000000000000000000, 0.0000000000000000000 ) ) ;
#10 = ORIENTED_EDGE ( 'NONE', *, *, #748, .F. ) ;
#11 = LINE ( 'NONE', #757, #686 ) ;
#12 = FACE_OUTER_BOUND ( 'NONE', #287, .T. ) ;
#13 = CARTESIAN_POINT ( 'NONE',  ( 0.0000000000000000000, 3.500000000000000000, -14.50000000000000200 ) ) ;
#14 = PLANE ( 'NONE',  #172 ) ;
#15 = ORIENTED_EDGE ( 'NONE', *, *, #702, .T. ) ;
#16 = EDGE_CURVE ( 'NONE', #59, #476, #531, .T. ) ;
#17 = DIRECTION ( 'NONE',  ( 0.0000000000000000000, 0.0000000000000000000, -1.000000000000000000 ) ) ;
#18 = DIRECTION ( 'NONE',  ( 8.659560562354961200E-017, 0.7071067811865499000, 0.7071067811865452400 ) ) ;
#19 = FACE_OUTER_BOUND ( 'NONE', #71, .T. ) ;
#20 = CARTESIAN_POINT ( 'NONE',  ( 1.500000000000000000, 0.8660254037844389300, 5.917424305044161100 ) ) ;
#21 = DIRECTION ( 'NONE',  ( 8.659560562354925500E-017, 0.7071067811865469100, 0.7071067811865482400 ) ) ;
#22 = AXIS2_PLACEMENT_3D ( 'NONE', #689, #518, #342 ) ;
#23 = LINE ( 'NONE', #564, #583 ) ;
#24 = ORIENTED_EDGE ( 'NONE', *, *, #695, .T. ) ;
#25 = CARTESIAN_POINT ( 'NONE',  ( 0.0000000000000000000, -3.299999999999999800, 10.50000000000000200 ) ) ;
#26 = AXIS2_PLACEMENT_3D ( 'NONE', #137, #720, #84 ) ;
#27 = DIRECTION ( 'NONE',  ( -1.000000000000000000, 0.0000000000000000000, 0.0000000000000000000 ) ) ;
#28 = LOCAL_TIME ( 11, 8, 34.00000000000000000, #184 ) ;
#29 = CARTESIAN_POINT ( 'NONE',  ( 0.0000000000000000000, -6.481755355858702200E-056, 14.50000000000000200 ) ) ;
#30 = PLANE ( 'NONE',  #42 ) ;
#31 = EDGE_LOOP ( 'NONE', ( #393, #167, #603, #693 ) ) ;
#32 = CIRCLE ( 'NONE', #380, 3.299999999999999800 ) ;
#33 = CARTESIAN_POINT ( 'NONE',  ( 1.500000000000000000, -2.095578071372133200E-020, 14.13804538186346200 ) ) ;
#34 = VECTOR ( 'NONE', #669, 1000.000000000000000 ) ;
#35 = VERTEX_POINT ( 'NONE', #204 ) ;
#36 = DIRECTION ( 'NONE',  ( 0.0000000000000000000, 1.000000000000000000, 0.0000000000000000000 ) ) ;
#37 = CC_DESIGN_SECURITY_CLASSIFICATION ( #351, ( #308 ) ) ;
#38 = DIRECTION ( 'NONE',  ( 0.0000000000000000000, 0.0000000000000000000, 1.000000000000000000 ) ) ;
#39 = DIRECTION ( 'NONE',  ( 0.0000000000000000000, 1.000000000000000000, 0.0000000000000000000 ) ) ;
#40 = COORDINATED_UNIVERSAL_TIME_OFFSET ( 6, 0, .BEHIND. ) ;
#41 = CIRCLE ( 'NONE', #742, 3.500000000000000000 ) ;
#42 = AXIS2_PLACEMENT_3D ( 'NONE', #145, #149, #435 ) ;
#43 = PERSON_AND_ORGANIZATION_ROLE ( 'classification_officer' ) ;
#44 = EDGE_LOOP ( 'NONE', ( #273, #421, #651, #150 ) ) ;
#45 = DIRECTION ( 'NONE',  ( -0.0000000000000000000, -0.0000000000000000000, 1.000000000000000000 ) ) ;
#46 = DESIGN_CONTEXT ( 'detailed design', #629, 'design' ) ;
#47 = ADVANCED_FACE ( 'NONE', ( #107 ), #186, .T. ) ;
#48 = APPROVAL_DATE_TIME ( #233, #567 ) ;
#49 = APPROVAL_ROLE ( '' ) ;
#50 = VERTEX_POINT ( 'NONE', #664 ) ;
#51 = CIRCLE ( 'NONE', #330, 3.299999999999999800 ) ;
#52 = ORIENTED_EDGE ( 'NONE', *, *, #732, .T. ) ;
#53 = ORIENTED_EDGE ( 'NONE', *, *, #371, .T. ) ;
#54 = APPROVAL_PERSON_ORGANIZATION ( #606, #479, #688 ) ;
#55 = CARTESIAN_POINT ( 'NONE',  ( 2.961208946853466600E-016, -1.732050807568877900, 14.37009618943233800 ) ) ;
#56 = DIRECTION ( 'NONE',  ( -0.0000000000000000000, -0.0000000000000000000, 1.000000000000000000 ) ) ;
#57 = ORIENTED_EDGE ( 'NONE', *, *, #627, .F. ) ;
#58 = CIRCLE ( 'NONE', #221, 1.545336663013169100 ) ;
#59 = VERTEX_POINT ( 'NONE', #677 ) ;
#60 = CARTESIAN_POINT ( 'NONE',  ( 1.500000000000000000, -2.095578071372133200E-020, 14.13804538186346200 ) ) ;
#61 = EDGE_CURVE ( 'NONE', #476, #641, #187, .T. ) ;
#62 = CARTESIAN_POINT ( 'NONE',  ( -3.134800047514084500E-016, 1.732050807568877600, 5.917424305044161100 ) ) ;
#63 = EDGE_CURVE ( 'NONE', #476, #350, #445, .T. ) ;
#64 = ADVANCED_FACE ( 'NONE', ( #540 ), #452, .F. ) ;
#65 = CARTESIAN_POINT ( 'NONE',  ( 1.262961302073743400, 1.002879759840521500, 14.24490083228727000 ) ) ;
#66 = CALENDAR_DATE ( 2023, 11, 1 ) ;
#67 = CONICAL_SURFACE ( 'NONE', #26, 3.299999999999999800, 0.7853981633974516100 ) ;
#68 = CARTESIAN_POINT ( 'NONE',  ( 0.4908700901641188100, 1.448646828875487500, 14.13740560520547400 ) ) ;
#69 = CIRCLE ( 'NONE', #398, 2.000000000000000000 ) ;
#70 = VERTEX_POINT ( 'NONE', #724 ) ;
#71 = EDGE_LOOP ( 'NONE', ( #185, #190, #24, #337 ) ) ;
#72 = EDGE_CURVE ( 'NONE', #430, #613, #168, .T. ) ;
#73 = DIRECTION ( 'NONE',  ( 0.0000000000000000000, 1.000000000000000000, 0.0000000000000000000 ) ) ;
#74 = VECTOR ( 'NONE', #673, 1000.000000000000000 ) ;
#75 = DIRECTION ( 'NONE',  ( 1.000000000000000000, 0.0000000000000000000, 0.0000000000000000000 ) ) ;
#76 = DIRECTION ( 'NONE',  ( 1.000000000000000000, -0.0000000000000000000, 0.0000000000000000000 ) ) ;
#77 = ORIENTED_EDGE ( 'NONE', *, *, #451, .T. ) ;
#78 = ORIENTED_EDGE ( 'NONE', *, *, #718, .F. ) ;
#79 = CARTESIAN_POINT ( 'NONE',  ( 0.0000000000000000000, 0.0000000000000000000, 10.30000000000000200 ) ) ;
#80 = ORIENTED_EDGE ( 'NONE', *, *, #507, .F. ) ;
#81 = CARTESIAN_POINT ( 'NONE',  ( -1.500000000000000000, -0.8660254037844391500, 5.917424305044161100 ) ) ;
#82 = DIRECTION ( 'NONE',  ( -0.0000000000000000000, 4.470176107488759400E-057, -1.000000000000000000 ) ) ;
#83 = ORIENTED_EDGE ( 'NONE', *, *, #525, .F. ) ;
#84 = DIRECTION ( 'NONE',  ( 0.0000000000000000000, -1.000000000000000000, 0.0000000000000000000 ) ) ;
#85 = EDGE_CURVE ( 'NONE', #225, #350, #639, .T. ) ;
#86 = DIRECTION ( 'NONE',  ( -0.0000000000000000000, 4.470176107488759400E-057, -1.000000000000000000 ) ) ;
#87 = PRODUCT_DEFINITION_SHAPE ( 'NONE', 'NONE',  #111 ) ;
#88 = CARTESIAN_POINT ( 'NONE',  ( -0.6162907893786163700, 1.376235154422046100, 14.13837035903266100 ) ) ;
#89 = CARTESIAN_POINT ( 'NONE',  ( 1.500000000000000000, -0.8660254037844387100, 5.917424305044161100 ) ) ;
#90 = EDGE_CURVE ( 'NONE', #478, #670, #23, .T. ) ;
#91 = DIRECTION ( 'NONE',  ( 0.0000000000000000000, 1.000000000000000000, 0.0000000000000000000 ) ) ;
#92 = LINE ( 'NONE', #746, #348 ) ;
#93 = VERTEX_POINT ( 'NONE', #277 ) ;
#94 = ADVANCED_FACE ( 'NONE', ( #339 ), #508, .T. ) ;
#95 = ORIENTED_EDGE ( 'NONE', *, *, #425, .F. ) ;
#96 = AXIS2_PLACEMENT_3D ( 'NONE', #494, #263, #316 ) ;
#97 = CLOSED_SHELL ( 'NONE', ( #64, #622, #510, #594, #471, #181, #47, #212, #94, #678, #449, #553, #727, #581, #617, #4, #587, #625, #524, #610, #208, #242, #391, #383 ) ) ;
#98 = CARTESIAN_POINT ( 'NONE',  ( 1.500000000000000000, 0.8660254037844389300, 11.50000000000000400 ) ) ;
#99 = ORIENTED_EDGE ( 'NONE', *, *, #573, .T. ) ;
#100 = CARTESIAN_POINT ( 'NONE',  ( 2.961208946853466600E-016, -1.732050807568877900, 14.37009618943233800 ) ) ;
#101 = ORIENTED_EDGE ( 'NONE', *, *, #85, .F. ) ;
#102 = LINE ( 'NONE', #13, #739 ) ;
#103 = EDGE_CURVE ( 'NONE', #286, #93, #136, .T. ) ;
#104 = APPLICATION_CONTEXT ( 'configuration controlled 3d designs of mechanical parts and assemblies' ) ;
#105 = CYLINDRICAL_SURFACE ( 'NONE', #143, 1.999999999999999600 ) ;
#106 = AXIS2_PLACEMENT_3D ( 'NONE', #580, #294, #523 ) ;
#107 = FACE_OUTER_BOUND ( 'NONE', #334, .T. ) ;
#108 = EDGE_CURVE ( 'NONE', #50, #264, #58, .T. ) ;
#109 = CARTESIAN_POINT ( 'NONE',  ( 0.0000000000000000000, -1.768687320083342300E-071, 14.50000000000000200 ) ) ;
#110 = VERTEX_POINT ( 'NONE', #578 ) ;
#111 = PRODUCT_DEFINITION ( 'UNKNOWN', '', #308, #46 ) ;
#112 = FACE_BOUND ( 'NONE', #575, .T. ) ;
#113 = DIRECTION ( 'NONE',  ( -0.0000000000000000000, 4.470176107488759400E-057, -1.000000000000000000 ) ) ;
#114 = ORIENTED_EDGE ( 'NONE', *, *, #507, .T. ) ;
#115 = ORIENTED_EDGE ( 'NONE', *, *, #402, .T. ) ;
#116 = CARTESIAN_POINT ( 'NONE',  ( -1.500000000000000000, 1.836760642956976600E-016, 14.13804538186346200 ) ) ;
#117 = DIRECTION ( 'NONE',  ( -0.8660254037844384900, -0.5000000000000002200, -2.235088053744380800E-057 ) ) ;
#118 = CARTESIAN_POINT ( 'NONE',  ( -9.888788076574955100E-017, 1.732050807568877900, 14.37009618943233800 ) ) ;
#119 = AXIS2_PLACEMENT_3D ( 'NONE', #310, #198, #656 ) ;
#120 = VECTOR ( 'NONE', #140, 1000.000000000000000 ) ;
#121 = ORIENTED_EDGE ( 'NONE', *, *, #122, .F. ) ;
#122 = EDGE_CURVE ( 'NONE', #411, #193, #32, .T. ) ;
#123 = DIRECTION ( 'NONE',  ( -0.8660254037844384900, -0.5000000000000002200, 0.0000000000000000000 ) ) ;
#124 = DIRECTION ( 'NONE',  ( -0.0000000000000000000, 4.470176107488759400E-057, -1.000000000000000000 ) ) ;
#125 = DATE_AND_TIME ( #363, #28 ) ;
#126 = EDGE_LOOP ( 'NONE', ( #160, #52, #754, #593 ) ) ;
#127 = VERTEX_POINT ( 'NONE', #281 ) ;
#128 = VERTEX_POINT ( 'NONE', #338 ) ;
#129 = DIRECTION ( 'NONE',  ( -0.0000000000000000000, 4.470176107488759400E-057, -1.000000000000000000 ) ) ;
#130 = AXIS2_PLACEMENT_3D ( 'NONE', #324, #27, #38 ) ;
#131 = CARTESIAN_POINT ( 'NONE',  ( -1.500000000000000000, 0.8660254037844382600, 14.37009618943233700 ) ) ;
#132 = B_SPLINE_CURVE_WITH_KNOTS ( 'NONE', 3,
 ( #582, #588, #646, #665 ),
 .UNSPECIFIED., .F., .F.,
 ( 4, 4 ),
 ( 0.001816563801401242000, 0.002713371407729960000 ),
 .UNSPECIFIED. ) ;
#133 = EDGE_CURVE ( 'NONE', #238, #271, #11, .T. ) ;
#134 = DIRECTION ( 'NONE',  ( -0.4999999999999998300, -0.8660254037844388200, 0.0000000000000000000 ) ) ;
#135 = DIRECTION ( 'NONE',  ( 0.4999999999999999400, 0.8660254037844387100, 0.0000000000000000000 ) ) ;
#136 = CIRCLE ( 'NONE', #623, 2.000000000000000000 ) ;
#137 = CARTESIAN_POINT ( 'NONE',  ( 0.0000000000000000000, 1.788070442995501700E-056, 10.50000000000000200 ) ) ;
#138 = DIRECTION ( 'NONE',  ( 0.8660254037844388200, -0.4999999999999998300, -2.235088053744378900E-057 ) ) ;
#139 = ORIENTED_EDGE ( 'NONE', *, *, #451, .F. ) ;
#140 = DIRECTION ( 'NONE',  ( -0.0000000000000000000, 4.470176107488759400E-057, -1.000000000000000000 ) ) ;
#141 = PRODUCT ( '91290A176_NO THREADS_Alloy Steel Socket Head Screw', '91290A176_NO THREADS_Alloy Steel Socket Head Screw', '', ( #562 ) ) ;
#142 = DIRECTION ( 'NONE',  ( 0.8660254037844387100, -0.4999999999999997800, 0.0000000000000000000 ) ) ;
#143 = AXIS2_PLACEMENT_3D ( 'NONE', #282, #113, #73 ) ;
#144 = LINE ( 'NONE', #25, #355 ) ;
#145 = CARTESIAN_POINT ( 'NONE',  ( 0.0000000000000000000, 3.297108281273953800E-113, 14.50000000000000200 ) ) ;
#146 = DIRECTION ( 'NONE',  ( -0.0000000000000000000, 4.470176107488759400E-057, -1.000000000000000000 ) ) ;
#147 = EDGE_LOOP ( 'NONE', ( #408, #300, #505, #175 ) ) ;
#148 = CIRCLE ( 'NONE', #197, 3.500000000000000000 ) ;
#149 = DIRECTION ( 'NONE',  ( 0.0000000000000000000, -4.470176107488759400E-057, 1.000000000000000000 ) ) ;
#150 = ORIENTED_EDGE ( 'NONE', *, *, #103, .T. ) ;
#151 = ORIENTED_EDGE ( 'NONE', *, *, #133, .T. ) ;
#152 =( GEOMETRIC_REPRESENTATION_CONTEXT ( 3 ) GLOBAL_UNCERTAINTY_ASSIGNED_CONTEXT ( ( #468 ) ) GLOBAL_UNIT_ASSIGNED_CONTEXT ( ( #206, #384, #552 ) ) REPRESENTATION_CONTEXT ( 'NONE', 'WORKASPACE' ) );
#153 = DIRECTION ( 'NONE',  ( 0.0000000000000000000, 1.000000000000000000, 0.0000000000000000000 ) ) ;
#154 = DIRECTION ( 'NONE',  ( 0.0000000000000000000, -4.470176107488759400E-057, 1.000000000000000000 ) ) ;
#155 = PERSON_AND_ORGANIZATION ( #501, #202 ) ;
#156 = CARTESIAN_POINT ( 'NONE',  ( 2.694222958124176000E-016, -2.199999999999999300, 10.30000000000000200 ) ) ;
#157 = AXIS2_PLACEMENT_3D ( 'NONE', #156, #442, #217 ) ;
#158 = APPROVAL_STATUS ( 'not_yet_approved' ) ;
#159 = FACE_OUTER_BOUND ( 'NONE', #647, .T. ) ;
#160 = ORIENTED_EDGE ( 'NONE', *, *, #737, .F. ) ;
#161 = CARTESIAN_POINT ( 'NONE',  ( 0.6162907893786164800, -1.376235154422047000, 14.13837035903266100 ) ) ;
#162 = EDGE_CURVE ( 'NONE', #367, #427, #92, .T. ) ;
#163 = APPLICATION_PROTOCOL_DEFINITION ( 'international standard', 'config_control_design', 1994, #629 ) ;
#164 = DIRECTION ( 'NONE',  ( -0.0000000000000000000, 4.470176107488759400E-057, -1.000000000000000000 ) ) ;
#165 = PERSON_AND_ORGANIZATION ( #501, #202 ) ;
#166 = CARTESIAN_POINT ( 'NONE',  ( 1.500000000000000000, -0.8660254037844387100, 11.50000000000000400 ) ) ;
#167 = ORIENTED_EDGE ( 'NONE', *, *, #386, .T. ) ;
#168 = LINE ( 'NONE', #266, #357 ) ;
#169 = ORIENTED_EDGE ( 'NONE', *, *, #90, .F. ) ;
#170 = ORIENTED_EDGE ( 'NONE', *, *, #231, .F. ) ;
#171 = CARTESIAN_POINT ( 'NONE',  ( -0.8837092106213829700, -1.221841056931270300, 14.13837035903266000 ) ) ;
#172 = AXIS2_PLACEMENT_3D ( 'NONE', #352, #359, #296 ) ;
#173 = PERSON_AND_ORGANIZATION ( #501, #202 ) ;
#174 = DIRECTION ( 'NONE',  ( -0.0000000000000000000, 4.470176107488759400E-057, -1.000000000000000000 ) ) ;
#175 = ORIENTED_EDGE ( 'NONE', *, *, #438, .T. ) ;
#176 = PLANE ( 'NONE',  #353 ) ;
#177 = EDGE_CURVE ( 'NONE', #687, #35, #457, .T. ) ;
#178 = CARTESIAN_POINT ( 'NONE',  ( 4.163799117101000600E-016, 3.299999999999999800, 10.50000000000000200 ) ) ;
#179 = CIRCLE ( 'NONE', #106, 1.999999999999999100 ) ;
#180 = ORIENTED_EDGE ( 'NONE', *, *, #317, .T. ) ;
#181 = ADVANCED_FACE ( 'NONE', ( #159 ), #105, .T. ) ;
#182 = CARTESIAN_POINT ( 'NONE',  ( -9.888788076574955100E-017, 1.732050807568877900, 14.37009618943233800 ) ) ;
#183 = AXIS2_PLACEMENT_3D ( 'NONE', #377, #154, #624 ) ;
#184 = COORDINATED_UNIVERSAL_TIME_OFFSET ( 6, 0, .BEHIND. ) ;
#185 = ORIENTED_EDGE ( 'NONE', *, *, #402, .F. ) ;
#186 = CONICAL_SURFACE ( 'NONE', #584, 1.545336663013169100, 0.7853981633974473900 ) ;
#187 = LINE ( 'NONE', #201, #34 ) ;
#188 = EDGE_CURVE ( 'NONE', #35, #613, #148, .T. ) ;
#189 = CARTESIAN_POINT ( 'NONE',  ( 0.0000000000000000000, -1.545336663013169100, -14.50000000000000200 ) ) ;
#190 = ORIENTED_EDGE ( 'NONE', *, *, #737, .T. ) ;
#191 = DIRECTION ( 'NONE',  ( -0.0000000000000000000, 4.470176107488759400E-057, -1.000000000000000000 ) ) ;
#192 = DATE_AND_TIME ( #345, #653 ) ;
#193 = VERTEX_POINT ( 'NONE', #178 ) ;
#194 = CIRCLE ( 'NONE', #215, 2.199999999999998800 ) ;
#195 = ORIENTED_EDGE ( 'NONE', *, *, #748, .T. ) ;
#196 = CARTESIAN_POINT ( 'NONE',  ( 0.0000000000000000000, 1.296351071171740300E-055, -14.50000000000000200 ) ) ;
#197 = AXIS2_PLACEMENT_3D ( 'NONE', #590, #124, #291 ) ;
#198 = DIRECTION ( 'NONE',  ( -0.0000000000000000000, 4.470176107488759400E-057, -1.000000000000000000 ) ) ;
#199 = DIRECTION ( 'NONE',  ( -0.0000000000000000000, 4.470176107488759400E-057, -1.000000000000000000 ) ) ;
#200 = DIRECTION ( 'NONE',  ( -0.0000000000000000000, 4.470176107488759400E-057, -1.000000000000000000 ) ) ;
#201 = CARTESIAN_POINT ( 'NONE',  ( 1.500000000000000000, -0.8660254037844387100, 11.50000000000000400 ) ) ;
#202 = ORGANIZATION ( 'UNSPECIFIED', 'UNSPECIFIED', '' ) ;
#203 = CARTESIAN_POINT ( 'NONE',  ( -1.500000000000000200, 0.1522638590145227500, 14.13804538186346000 ) ) ;
#204 = CARTESIAN_POINT ( 'NONE',  ( 4.286263797015736600E-016, -3.500000000000000000, 14.30000000000000400 ) ) ;
#205 = VECTOR ( 'NONE', #526, 1000.000000000000000 ) ;
#206 =( LENGTH_UNIT ( ) NAMED_UNIT ( * ) SI_UNIT ( .MILLI., .METRE. ) );
#207 = ORIENTED_EDGE ( 'NONE', *, *, #671, .T. ) ;
#208 = ADVANCED_FACE ( 'NONE', ( #602 ), #14, .F. ) ;
#209 = ORIENTED_EDGE ( 'NONE', *, *, #671, .F. ) ;
#210 = CARTESIAN_POINT ( 'NONE',  ( 4.163799117101000600E-016, -3.299999999999999800, 14.50000000000000200 ) ) ;
#211 = DIRECTION ( 'NONE',  ( 0.0000000000000000000, -4.470176107488759400E-057, 1.000000000000000000 ) ) ;
#212 = ADVANCED_FACE ( 'NONE', ( #530 ), #354, .T. ) ;
#213 = DIRECTION ( 'NONE',  ( 0.0000000000000000000, 1.000000000000000000, 0.0000000000000000000 ) ) ;
#214 = COORDINATED_UNIVERSAL_TIME_OFFSET ( 6, 0, .BEHIND. ) ;
#215 = AXIS2_PLACEMENT_3D ( 'NONE', #240, #249, #642 ) ;
#216 = FACE_OUTER_BOUND ( 'NONE', #126, .T. ) ;
#217 = DIRECTION ( 'NONE',  ( -1.224646799147355700E-016, 1.000000000000000000, 0.0000000000000000000 ) ) ;
#218 = ORIENTED_EDGE ( 'NONE', *, *, #298, .T. ) ;
#219 = CARTESIAN_POINT ( 'NONE',  ( 0.4852960034456629300, -1.451865029342874800, 14.16269932611187000 ) ) ;
#220 = EDGE_CURVE ( 'NONE', #128, #433, #179, .T. ) ;
#221 = AXIS2_PLACEMENT_3D ( 'NONE', #415, #174, #637 ) ;
#222 = DIRECTION ( 'NONE',  ( -0.0000000000000000000, 4.470176107488759400E-057, -1.000000000000000000 ) ) ;
#223 = PERSON_AND_ORGANIZATION_ROLE ( 'creator' ) ;
#224 = CIRCLE ( 'NONE', #423, 1.861954618136542700 ) ;
#225 = VERTEX_POINT ( 'NONE', #705 ) ;
#226 = EDGE_LOOP ( 'NONE', ( #556, #521, #681, #321, #446 ) ) ;
#227 = DIRECTION ( 'NONE',  ( 1.000000000000000000, 0.0000000000000000000, 0.0000000000000000000 ) ) ;
#228 = CARTESIAN_POINT ( 'NONE',  ( -0.4908700901641188100, -1.448646828875487500, 14.13740560520547400 ) ) ;
#229 = CARTESIAN_POINT ( 'NONE',  ( 4.286263797015736600E-016, -3.500000000000000000, 14.30000000000000400 ) ) ;
#230 = FACE_OUTER_BOUND ( 'NONE', #236, .T. ) ;
#231 = EDGE_CURVE ( 'NONE', #193, #411, #719, .T. ) ;
#232 = B_SPLINE_CURVE_WITH_KNOTS ( 'NONE', 3,
 ( #534, #528, #65, #698, #419, #68, #473, #182 ),
 .UNSPECIFIED., .F., .F.,
 ( 4, 2, 2, 4 ),
 ( 2.544365555414433600E-007, 0.0004475380576734569200, 0.0008948216787913724700, 0.001789388921027204200 ),
 .UNSPECIFIED. ) ;
#233 = DATE_AND_TIME ( #66, #389 ) ;
#234 = CARTESIAN_POINT ( 'NONE',  ( -1.499999999999999800, 0.8660254037844387100, 11.50000000000000400 ) ) ;
#235 = VECTOR ( 'NONE', #498, 1000.000000000000000 ) ;
#236 = EDGE_LOOP ( 'NONE', ( #557, #114, #480, #576 ) ) ;
#237 = EDGE_LOOP ( 'NONE', ( #436, #551, #341, #78 ) ) ;
#238 = VERTEX_POINT ( 'NONE', #7 ) ;
#239 = CARTESIAN_POINT ( 'NONE',  ( 0.0000000000000000000, 1.296351071171740300E-055, -14.50000000000000200 ) ) ;
#240 = CARTESIAN_POINT ( 'NONE',  ( 0.0000000000000000000, 1.788070442995501700E-056, 10.50000000000000200 ) ) ;
#241 = AXIS2_PLACEMENT_3D ( 'NONE', #555, #618, #213 ) ;
#242 = ADVANCED_FACE ( 'NONE', ( #378 ), #652, .F. ) ;
#243 = DIRECTION ( 'NONE',  ( -0.0000000000000000000, 4.470176107488759400E-057, -1.000000000000000000 ) ) ;
#244 = B_SPLINE_CURVE_WITH_KNOTS ( 'NONE', 3,
 ( #522, #756, #407, #60 ),
 .UNSPECIFIED., .F., .F.,
 ( 4, 4 ),
 ( 0.001138295382465146000, 0.002035738683355168900 ),
 .UNSPECIFIED. ) ;
#245 = EDGE_CURVE ( 'NONE', #59, #225, #563, .T. ) ;
#246 = LINE ( 'NONE', #307, #477 ) ;
#247 = ORIENTED_EDGE ( 'NONE', *, *, #475, .T. ) ;
#248 = DIRECTION ( 'NONE',  ( 1.000000000000000000, 0.0000000000000000000, 0.0000000000000000000 ) ) ;
#249 = DIRECTION ( 'NONE',  ( -0.0000000000000000000, 4.470176107488759400E-057, -1.000000000000000000 ) ) ;
#250 = CARTESIAN_POINT ( 'NONE',  ( 2.449293598294705900E-016, -1.999999999999999600, -14.50000000000000200 ) ) ;
#251 = ORIENTED_EDGE ( 'NONE', *, *, #702, .F. ) ;
#252 = ORIENTED_EDGE ( 'NONE', *, *, #438, .F. ) ;
#253 = CARTESIAN_POINT ( 'NONE',  ( 0.0000000000000000000, 3.299999999999999800, 11.50000000000000400 ) ) ;
#254 = EDGE_CURVE ( 'NONE', #428, #694, #194, .T. ) ;
#255 = DIRECTION ( 'NONE',  ( 0.0000000000000000000, 1.000000000000000000, 0.0000000000000000000 ) ) ;
#256 = ORIENTED_EDGE ( 'NONE', *, *, #499, .F. ) ;
#257 = PLANE ( 'NONE',  #289 ) ;
#258 = EDGE_CURVE ( 'NONE', #127, #469, #224, .T. ) ;
#259 = DIRECTION ( 'NONE',  ( 0.0000000000000000000, 1.000000000000000000, 4.470176107488759400E-057 ) ) ;
#260 = DIRECTION ( 'NONE',  ( 0.0000000000000000000, 1.000000000000000000, 4.470176107488759400E-057 ) ) ;
#261 = CC_DESIGN_APPROVAL ( #479, ( #111 ) ) ;
#262 = VECTOR ( 'NONE', #761, 1000.000000000000000 ) ;
#263 = DIRECTION ( 'NONE',  ( -0.0000000000000000000, -0.0000000000000000000, 1.000000000000000000 ) ) ;
#264 = VERTEX_POINT ( 'NONE', #189 ) ;
#265 = AXIS2_PLACEMENT_3D ( 'NONE', #648, #243, #356 ) ;
#266 = CARTESIAN_POINT ( 'NONE',  ( 0.0000000000000000000, 3.500000000000000000, 14.30000000000000400 ) ) ;
#267 = DATE_AND_TIME ( #329, #424 ) ;
#268 = B_SPLINE_CURVE_WITH_KNOTS ( 'NONE', 3,
 ( #431, #495, #484, #550, #203, #666 ),
 .UNSPECIFIED., .F., .F.,
 ( 4, 2, 4 ),
 ( 0.0009188203661060453200, 0.001367692083753643800, 0.001816563801401242000 ),
 .UNSPECIFIED. ) ;
#269 = DIRECTION ( 'NONE',  ( -0.0000000000000000000, -0.0000000000000000000, 1.000000000000000000 ) ) ;
#270 = DIRECTION ( 'NONE',  ( 0.0000000000000000000, -1.000000000000000000, 0.0000000000000000000 ) ) ;
#271 = VERTEX_POINT ( 'NONE', #118 ) ;
#272 = DIRECTION ( 'NONE',  ( -0.0000000000000000000, 4.470176107488759400E-057, -1.000000000000000000 ) ) ;
#273 = ORIENTED_EDGE ( 'NONE', *, *, #344, .F. ) ;
#274 = ORIENTED_EDGE ( 'NONE', *, *, #643, .T. ) ;
#275 = DIRECTION ( 'NONE',  ( 0.0000000000000000000, -4.470176107488759400E-057, 1.000000000000000000 ) ) ;
#276 = COORDINATED_UNIVERSAL_TIME_OFFSET ( 6, 0, .BEHIND. ) ;
#277 = CARTESIAN_POINT ( 'NONE',  ( 2.449293598294706900E-016, 2.000000000000000000, -14.04533666301317000 ) ) ;
#278 = FACE_BOUND ( 'NONE', #456, .T. ) ;
#279 = ORIENTED_EDGE ( 'NONE', *, *, #231, .T. ) ;
#280 = EDGE_CURVE ( 'NONE', #110, #271, #232, .T. ) ;
#281 = CARTESIAN_POINT ( 'NONE',  ( -1.861954618136542700, 2.280236763258549300E-016, 14.50000000000000200 ) ) ;
#282 = CARTESIAN_POINT ( 'NONE',  ( 0.0000000000000000000, 1.296351071171740300E-055, -14.50000000000000200 ) ) ;
#283 = ORIENTED_EDGE ( 'NONE', *, *, #718, .T. ) ;
#284 = PERSON_AND_ORGANIZATION_ROLE ( 'creator' ) ;
#285 = LINE ( 'NONE', #517, #262 ) ;
#286 = VERTEX_POINT ( 'NONE', #6 ) ;
#287 = EDGE_LOOP ( 'NONE', ( #381, #3 ) ) ;
#288 = CARTESIAN_POINT ( 'NONE',  ( 0.0000000000000000000, -1.545336663013169100, -14.50000000000000200 ) ) ;
#289 = AXIS2_PLACEMENT_3D ( 'NONE', #543, #76, #17 ) ;
#290 = DATE_AND_TIME ( #455, #306 ) ;
#291 = DIRECTION ( 'NONE',  ( 0.0000000000000000000, 1.000000000000000000, 0.0000000000000000000 ) ) ;
#292 = VECTOR ( 'NONE', #343, 1000.000000000000100 ) ;
#293 = ORIENTED_EDGE ( 'NONE', *, *, #108, .F. ) ;
#294 = DIRECTION ( 'NONE',  ( -0.0000000000000000000, 4.470176107488759400E-057, -1.000000000000000000 ) ) ;
#295 = CIRCLE ( 'NONE', #638, 3.500000000000000000 ) ;
#296 = DIRECTION ( 'NONE',  ( -0.0000000000000000000, 0.0000000000000000000, 1.000000000000000000 ) ) ;
#297 = ORIENTED_EDGE ( 'NONE', *, *, #280, .F. ) ;
#298 = EDGE_CURVE ( 'NONE', #490, #427, #132, .T. ) ;
#299 = FACE_OUTER_BOUND ( 'NONE', #226, .T. ) ;
#300 = ORIENTED_EDGE ( 'NONE', *, *, #220, .F. ) ;
#301 = ORIENTED_EDGE ( 'NONE', *, *, #643, .F. ) ;
#302 = CYLINDRICAL_SURFACE ( 'NONE', #450, 3.500000000000000000 ) ;
#303 = CARTESIAN_POINT ( 'NONE',  ( 0.0000000000000000000, -6.481755355858702200E-056, 14.50000000000000200 ) ) ;
#304 = CARTESIAN_POINT ( 'NONE',  ( 4.286263797015736600E-016, -3.500000000000000000, -14.50000000000000200 ) ) ;
#305 = DIRECTION ( 'NONE',  ( -0.0000000000000000000, 4.470176107488759400E-057, -1.000000000000000000 ) ) ;
#306 = LOCAL_TIME ( 11, 8, 34.00000000000000000, #8 ) ;
#307 = CARTESIAN_POINT ( 'NONE',  ( 1.892491597964129700E-016, 1.545336663013169100, -14.50000000000000200 ) ) ;
#308 = PRODUCT_DEFINITION_FORMATION_WITH_SPECIFIED_SOURCE ( 'ANY', '', #141, .NOT_KNOWN. ) ;
#309 = ORIENTED_EDGE ( 'NONE', *, *, #258, .T. ) ;
#310 = CARTESIAN_POINT ( 'NONE',  ( 0.0000000000000000000, 1.788070442995501700E-056, 10.50000000000000200 ) ) ;
#311 = FACE_OUTER_BOUND ( 'NONE', #519, .T. ) ;
#312 = AXIS2_PLACEMENT_3D ( 'NONE', #62, #532, #123 ) ;
#313 = ORIENTED_EDGE ( 'NONE', *, *, #85, .T. ) ;
#314 = CARTESIAN_POINT ( 'NONE',  ( 1.861954618136542700, -6.481755355858702200E-056, 14.50000000000000200 ) ) ;
#315 = CARTESIAN_POINT ( 'NONE',  ( 0.0000000000000000000, 1.276026819312243900E-055, -14.04533666301317000 ) ) ;
#316 = DIRECTION ( 'NONE',  ( 1.000000000000000000, 0.0000000000000000000, 0.0000000000000000000 ) ) ;
#317 = EDGE_CURVE ( 'NONE', #478, #367, #502, .T. ) ;
#318 = PLANE ( 'NONE',  #520 ) ;
#319 = APPROVAL_DATE_TIME ( #267, #497 ) ;
#320 = CARTESIAN_POINT ( 'NONE',  ( 0.0000000000000000000, -3.500000000000000000, 10.70000000000000100 ) ) ;
#321 = ORIENTED_EDGE ( 'NONE', *, *, #691, .F. ) ;
#322 = CC_DESIGN_PERSON_AND_ORGANIZATION_ASSIGNMENT ( #173, #223, ( #308 ) ) ;
#323 = LINE ( 'NONE', #304, #120 ) ;
#324 = CARTESIAN_POINT ( 'NONE',  ( 0.0000000000000000000, 2.199999999999999300, 10.30000000000000200 ) ) ;
#325 = EDGE_LOOP ( 'NONE', ( #139, #707, #614, #674 ) ) ;
#326 = CARTESIAN_POINT ( 'NONE',  ( 0.0000000000000000000, 2.199999999999998800, 10.50000000000000200 ) ) ;
#327 = ORIENTED_EDGE ( 'NONE', *, *, #298, .F. ) ;
#328 = CARTESIAN_POINT ( 'NONE',  ( 1.500000000000000000, 0.8660254037844389300, 5.917424305044161100 ) ) ;
#329 = CALENDAR_DATE ( 2023, 11, 1 ) ;
#330 = AXIS2_PLACEMENT_3D ( 'NONE', #370, #200, #493 ) ;
#331 = FACE_OUTER_BOUND ( 'NONE', #31, .T. ) ;
#332 = TOROIDAL_SURFACE ( 'NONE', #660, 2.199999999999999300, 0.2000000000000003200 ) ;
#333 = CARTESIAN_POINT ( 'NONE',  ( 1.500000000000000000, -0.8660254037844387100, 14.37009618943233700 ) ) ;
#334 = EDGE_LOOP ( 'NONE', ( #293, #360, #596, #632 ) ) ;
#335 = EDGE_CURVE ( 'NONE', #93, #286, #69, .T. ) ;
#336 = FACE_OUTER_BOUND ( 'NONE', #509, .T. ) ;
#337 = ORIENTED_EDGE ( 'NONE', *, *, #103, .F. ) ;
#338 = CARTESIAN_POINT ( 'NONE',  ( 0.0000000000000000000, 1.999999999999999100, 10.30000000000000100 ) ) ;
#339 = FACE_OUTER_BOUND ( 'NONE', #44, .T. ) ;
#340 = FACE_OUTER_BOUND ( 'NONE', #741, .T. ) ;
#341 = ORIENTED_EDGE ( 'NONE', *, *, #133, .F. ) ;
#342 = DIRECTION ( 'NONE',  ( 0.8660254037844383700, 0.5000000000000003300, 0.0000000000000000000 ) ) ;
#343 = DIRECTION ( 'NONE',  ( 8.659560562354961200E-017, -0.7071067811865499000, -0.7071067811865452400 ) ) ;
#344 = EDGE_CURVE ( 'NONE', #50, #93, #246, .T. ) ;
#345 = CALENDAR_DATE ( 2023, 11, 1 ) ;
#346 = CARTESIAN_POINT ( 'NONE',  ( -1.014703996554336500, -1.146211182010441500, 14.16269932611187200 ) ) ;
#347 = DIRECTION ( 'NONE',  ( 0.0000000000000000000, 1.000000000000000000, 0.0000000000000000000 ) ) ;
#348 = VECTOR ( 'NONE', #403, 1000.000000000000000 ) ;
#349 = FACE_OUTER_BOUND ( 'NONE', #368, .T. ) ;
#350 = VERTEX_POINT ( 'NONE', #482 ) ;
#351 = SECURITY_CLASSIFICATION ( '', '', #404 ) ;
#352 = CARTESIAN_POINT ( 'NONE',  ( -1.500000000000000000, 0.8660254037844384900, 5.917424305044161100 ) ) ;
#353 = AXIS2_PLACEMENT_3D ( 'NONE', #461, #579, #472 ) ;
#354 = PLANE ( 'NONE',  #265 ) ;
#355 = VECTOR ( 'NONE', #437, 1000.000000000000100 ) ;
#356 = DIRECTION ( 'NONE',  ( 0.0000000000000000000, 1.000000000000000000, 4.470176107488759400E-057 ) ) ;
#357 = VECTOR ( 'NONE', #730, 1000.000000000000100 ) ;
#358 = EDGE_LOOP ( 'NONE', ( #247, #444, #10, #394 ) ) ;
#359 = DIRECTION ( 'NONE',  ( -1.000000000000000000, 0.0000000000000000000, -0.0000000000000000000 ) ) ;
#360 = ORIENTED_EDGE ( 'NONE', *, *, #344, .T. ) ;
#361 = CC_DESIGN_PERSON_AND_ORGANIZATION_ASSIGNMENT ( #155, #284, ( #111 ) ) ;
#362 = B_SPLINE_CURVE_WITH_KNOTS ( 'NONE', 3,
 ( #654, #658, #712, #372, #88, #369, #723, #597 ),
 .UNSPECIFIED., .F., .F.,
 ( 4, 2, 2, 4 ),
 ( 2.544365555412752700E-007, 0.0004475380576734566500, 0.0008948216787913720300, 0.001789388921027203800 ),
 .UNSPECIFIED. ) ;
#363 = CALENDAR_DATE ( 2023, 11, 1 ) ;
#364 = ADVANCED_BREP_SHAPE_REPRESENTATION ( '91290A176_NO THREADS_Alloy Steel Socket Head Screw', ( #440, #443 ), #152 ) ;
#365 = AXIS2_PLACEMENT_3D ( 'NONE', #109, #414, #347 ) ;
#366 = DIRECTION ( 'NONE',  ( 0.0000000000000000000, -1.000000000000000000, -4.470176107488759400E-057 ) ) ;
#367 = VERTEX_POINT ( 'NONE', #714 ) ;
#368 = EDGE_LOOP ( 'NONE', ( #609, #301, #633, #297, #722, #621, #541 ) ) ;
#369 = CARTESIAN_POINT ( 'NONE',  ( -1.009129909835880800, 1.149429382477828800, 14.13740560520547400 ) ) ;
#370 = CARTESIAN_POINT ( 'NONE',  ( 0.0000000000000000000, -1.768687320083342300E-071, 14.50000000000000200 ) ) ;
#371 = EDGE_CURVE ( 'NONE', #731, #558, #41, .T. ) ;
#372 = CARTESIAN_POINT ( 'NONE',  ( -0.4852960034456630400, 1.451865029342874100, 14.16269932611187200 ) ) ;
#373 = CARTESIAN_POINT ( 'NONE',  ( 0.0000000000000000000, 3.299999999999999800, 14.50000000000000200 ) ) ;
#374 = CARTESIAN_POINT ( 'NONE',  ( 0.0000000000000000000, 8.940352214977260700E-058, 14.30000000000000400 ) ) ;
#375 = CARTESIAN_POINT ( 'NONE',  ( -1.500000000000000200, -0.8660254037844390400, 14.37009618943233800 ) ) ;
#376 = CC_DESIGN_PERSON_AND_ORGANIZATION_ASSIGNMENT ( #165, #749, ( #308 ) ) ;
#377 = CARTESIAN_POINT ( 'NONE',  ( 0.0000000000000000000, 1.296351071171740300E-055, -14.50000000000000200 ) ) ;
#378 = FACE_OUTER_BOUND ( 'NONE', #751, .T. ) ;
#379 = CARTESIAN_POINT ( 'NONE',  ( 0.0000000000000000000, 3.500000000000000000, 14.30000000000000400 ) ) ;
#380 = AXIS2_PLACEMENT_3D ( 'NONE', #454, #164, #409 ) ;
#381 = ORIENTED_EDGE ( 'NONE', *, *, #475, .F. ) ;
#382 = ORIENTED_EDGE ( 'NONE', *, *, #16, .F. ) ;
#383 = ADVANCED_FACE ( 'NONE', ( #299 ), #257, .F. ) ;
#384 =( NAMED_UNIT ( * ) PLANE_ANGLE_UNIT ( ) SI_UNIT ( $, .RADIAN. ) );
#385 = CARTESIAN_POINT ( 'NONE',  ( 4.376801096225752400E-016, -1.732050807568877900, 11.50000000000000400 ) ) ;
#386 = EDGE_CURVE ( 'NONE', #687, #430, #51, .T. ) ;
#387 = B_SPLINE_CURVE_WITH_KNOTS ( 'NONE', 3,
 ( #33, #392, #615, #725, #607, #676 ),
 .UNSPECIFIED., .F., .F.,
 ( 4, 2, 4 ),
 ( 0.002035738683355168900, 0.002484928579960684000, 0.002934118476566199100 ),
 .UNSPECIFIED. ) ;
#388 = DIRECTION ( 'NONE',  ( 0.0000000000000000000, -1.000000000000000000, 0.0000000000000000000 ) ) ;
#389 = LOCAL_TIME ( 11, 8, 34.00000000000000000, #276 ) ;
#390 = LINE ( 'NONE', #612, #235 ) ;
#391 = ADVANCED_FACE ( 'NONE', ( #467 ), #489, .F. ) ;
#392 = CARTESIAN_POINT ( 'NONE',  ( 1.499999999999999800, 0.1522638590145229100, 14.13804538186346000 ) ) ;
#393 = ORIENTED_EDGE ( 'NONE', *, *, #177, .F. ) ;
#394 = ORIENTED_EDGE ( 'NONE', *, *, #72, .F. ) ;
#395 = ORIENTED_EDGE ( 'NONE', *, *, #122, .T. ) ;
#396 = CC_DESIGN_DATE_AND_TIME_ASSIGNMENT ( #290, #620, ( #351 ) ) ;
#397 = CARTESIAN_POINT ( 'NONE',  ( 0.2370386979262568400, -1.595196451512795700, 14.24490083228727700 ) ) ;
#398 = AXIS2_PLACEMENT_3D ( 'NONE', #315, #82, #547 ) ;
#399 = FACE_OUTER_BOUND ( 'NONE', #325, .T. ) ;
#400 = CARTESIAN_POINT ( 'NONE',  ( 0.1171973830342286900, -1.664386866925746000, 14.30243224878920600 ) ) ;
#401 = ORIENTED_EDGE ( 'NONE', *, *, #417, .T. ) ;
#402 = EDGE_CURVE ( 'NONE', #433, #286, #752, .T. ) ;
#403 = DIRECTION ( 'NONE',  ( -0.0000000000000000000, -0.0000000000000000000, 1.000000000000000000 ) ) ;
#404 = SECURITY_CLASSIFICATION_LEVEL ( 'unclassified' ) ;
#405 = PRODUCT_RELATED_PRODUCT_CATEGORY ( 'detail', '', ( #141 ) ) ;
#406 = CIRCLE ( 'NONE', #157, 0.2000000000000000900 ) ;
#407 = CARTESIAN_POINT ( 'NONE',  ( 1.500000000000000000, -0.3042102711411895900, 14.13804538186346000 ) ) ;
#408 = ORIENTED_EDGE ( 'NONE', *, *, #732, .F. ) ;
#409 = DIRECTION ( 'NONE',  ( 0.0000000000000000000, 1.000000000000000000, 0.0000000000000000000 ) ) ;
#410 = EDGE_LOOP ( 'NONE', ( #327, #710, #309, #256, #709, #101, #80 ) ) ;
#411 = VERTEX_POINT ( 'NONE', #429 ) ;
#412 = CARTESIAN_POINT ( 'NONE',  ( -1.500000000000000200, -0.8660254037844390400, 14.37009618943233800 ) ) ;
#413 = AXIS2_PLACEMENT_3D ( 'NONE', #29, #716, #75 ) ;
#414 = DIRECTION ( 'NONE',  ( -0.0000000000000000000, 4.470176107488759400E-057, -1.000000000000000000 ) ) ;
#415 = CARTESIAN_POINT ( 'NONE',  ( 0.0000000000000000000, 1.296351071171740300E-055, -14.50000000000000200 ) ) ;
#416 = DIRECTION ( 'NONE',  ( 0.0000000000000000000, 1.000000000000000000, 0.0000000000000000000 ) ) ;
#417 = EDGE_CURVE ( 'NONE', #367, #59, #649, .T. ) ;
#418 = DIRECTION ( 'NONE',  ( -0.0000000000000000000, 4.470176107488759400E-057, -1.000000000000000000 ) ) ;
#419 = CARTESIAN_POINT ( 'NONE',  ( 0.8837092106213835200, 1.221841056931270100, 14.13837035903266000 ) ) ;
#420 = CIRCLE ( 'NONE', #533, 1.861954618136542700 ) ;
#421 = ORIENTED_EDGE ( 'NONE', *, *, #459, .F. ) ;
#422 = CC_DESIGN_PERSON_AND_ORGANIZATION_ASSIGNMENT ( #616, #43, ( #351 ) ) ;
#423 = AXIS2_PLACEMENT_3D ( 'NONE', #644, #1, #248 ) ;
#424 = LOCAL_TIME ( 11, 8, 34.00000000000000000, #40 ) ;
#425 = EDGE_CURVE ( 'NONE', #469, #127, #420, .T. ) ;
#426 = CARTESIAN_POINT ( 'NONE',  ( 2.449293598294705900E-016, -1.999999999999999100, 10.30000000000000100 ) ) ;
#427 = VERTEX_POINT ( 'NONE', #375 ) ;
#428 = VERTEX_POINT ( 'NONE', #717 ) ;
#429 = CARTESIAN_POINT ( 'NONE',  ( 0.0000000000000000000, -3.299999999999999800, 10.50000000000000200 ) ) ;
#430 = VERTEX_POINT ( 'NONE', #373 ) ;
#431 = CARTESIAN_POINT ( 'NONE',  ( -1.500000000000000000, 0.8660254037844382600, 14.37009618943233700 ) ) ;
#432 = CARTESIAN_POINT ( 'NONE',  ( 4.041334437186265500E-016, 3.299999999999999800, 10.50000000000000200 ) ) ;
#433 = VERTEX_POINT ( 'NONE', #426 ) ;
#434 = FACE_OUTER_BOUND ( 'NONE', #466, .T. ) ;
#435 = DIRECTION ( 'NONE',  ( 0.0000000000000000000, -1.000000000000000000, -4.470176107488759400E-057 ) ) ;
#436 = ORIENTED_EDGE ( 'NONE', *, *, #691, .T. ) ;
#437 = DIRECTION ( 'NONE',  ( 0.0000000000000000000, -0.7071067811865499000, 0.7071067811865452400 ) ) ;
#438 = EDGE_CURVE ( 'NONE', #694, #428, #619, .T. ) ;
#439 = DIRECTION ( 'NONE',  ( -0.8660254037844387100, 0.4999999999999999400, 2.235088053744379400E-057 ) ) ;
#440 = MANIFOLD_SOLID_BREP ( 'Cut-Extrude2', #97 ) ;
#441 = CIRCLE ( 'NONE', #546, 3.500000000000000000 ) ;
#442 = DIRECTION ( 'NONE',  ( 1.000000000000000000, 1.224646799147353200E-016, 5.474386861661084100E-073 ) ) ;
#443 = AXIS2_PLACEMENT_3D ( 'NONE', #560, #506, #227 ) ;
#444 = ORIENTED_EDGE ( 'NONE', *, *, #177, .T. ) ;
#445 = LINE ( 'NONE', #89, #611 ) ;
#446 = ORIENTED_EDGE ( 'NONE', *, *, #61, .F. ) ;
#447 = ORIENTED_EDGE ( 'NONE', *, *, #220, .T. ) ;
#448 = DIRECTION ( 'NONE',  ( 0.0000000000000000000, 1.000000000000000000, 0.0000000000000000000 ) ) ;
#449 = ADVANCED_FACE ( 'NONE', ( #640 ), #332, .F. ) ;
#450 = AXIS2_PLACEMENT_3D ( 'NONE', #196, #129, #661 ) ;
#451 = EDGE_CURVE ( 'NONE', #35, #731, #323, .T. ) ;
#452 = CONICAL_SURFACE ( 'NONE', #96, 1.861954618136542700, 0.7853981633974500600 ) ;
#453 = EDGE_LOOP ( 'NONE', ( #565, #274, #218, #460, #572 ) ) ;
#454 = CARTESIAN_POINT ( 'NONE',  ( 0.0000000000000000000, 1.788070442995501700E-056, 10.50000000000000200 ) ) ;
#455 = CALENDAR_DATE ( 2023, 11, 1 ) ;
#456 = EDGE_LOOP ( 'NONE', ( #252, #735 ) ) ;
#457 = LINE ( 'NONE', #229, #292 ) ;
#458 = ORIENTED_EDGE ( 'NONE', *, *, #16, .T. ) ;
#459 = EDGE_CURVE ( 'NONE', #264, #50, #592, .T. ) ;
#460 = ORIENTED_EDGE ( 'NONE', *, *, #162, .F. ) ;
#461 = CARTESIAN_POINT ( 'NONE',  ( 0.0000000000000000000, 3.299999999999999800, 10.50000000000000200 ) ) ;
#462 = DIRECTION ( 'NONE',  ( -0.0000000000000000000, 4.470176107488759400E-057, -1.000000000000000000 ) ) ;
#463 = LINE ( 'NONE', #736, #74 ) ;
#464 = PLANE ( 'NONE',  #22 ) ;
#465 = CARTESIAN_POINT ( 'NONE',  ( 4.376801096225752400E-016, -1.732050807568877900, 5.917424305044161100 ) ) ;
#466 = EDGE_LOOP ( 'NONE', ( #195, #77, #251, #628 ) ) ;
#467 = FACE_OUTER_BOUND ( 'NONE', #237, .T. ) ;
#468 = UNCERTAINTY_MEASURE_WITH_UNIT (LENGTH_MEASURE( 1.000000000000000100E-005 ), #206, 'distance_accuracy_value', 'NONE');
#469 = VERTEX_POINT ( 'NONE', #314 ) ;
#470 = AXIS2_PLACEMENT_3D ( 'NONE', #672, #733, #153 ) ;
#471 = ADVANCED_FACE ( 'NONE', ( #216 ), #668, .F. ) ;
#472 = DIRECTION ( 'NONE',  ( 0.0000000000000000000, 1.000000000000000000, 4.470176107488759400E-057 ) ) ;
#473 = CARTESIAN_POINT ( 'NONE',  ( 0.2357771903914941700, 1.595924783227574900, 14.23397016509044400 ) ) ;
#474 = APPROVAL_PERSON_ORGANIZATION ( #483, #497, #49 ) ;
#475 = EDGE_CURVE ( 'NONE', #430, #687, #657, .T. ) ;
#476 = VERTEX_POINT ( 'NONE', #166 ) ;
#477 = VECTOR ( 'NONE', #21, 1000.000000000000000 ) ;
#478 = VERTEX_POINT ( 'NONE', #234 ) ;
#479 = APPROVAL ( #158, 'UNSPECIFIED' ) ;
#480 = ORIENTED_EDGE ( 'NONE', *, *, #245, .F. ) ;
#481 = CARTESIAN_POINT ( 'NONE',  ( 4.286263797015736600E-016, 3.500000000000000000, 10.70000000000000100 ) ) ;
#482 = CARTESIAN_POINT ( 'NONE',  ( 1.500000000000000000, -0.8660254037844387100, 14.37009618943233700 ) ) ;
#483 = PERSON_AND_ORGANIZATION ( #501, #202 ) ;
#484 = CARTESIAN_POINT ( 'NONE',  ( -1.500000000000000200, 0.5909740868883559500, 14.24424355473336400 ) ) ;
#485 = AXIS2_PLACEMENT_3D ( 'NONE', #239, #635, #416 ) ;
#486 = ORIENTED_EDGE ( 'NONE', *, *, #695, .F. ) ;
#487 = VECTOR ( 'NONE', #117, 1000.000000000000000 ) ;
#488 = DIRECTION ( 'NONE',  ( 0.0000000000000000000, 1.000000000000000000, 0.0000000000000000000 ) ) ;
#489 = PLANE ( 'NONE',  #699 ) ;
#490 = VERTEX_POINT ( 'NONE', #116 ) ;
#491 = B_SPLINE_CURVE_WITH_KNOTS ( 'NONE', 3,
 ( #412, #634, #631, #346, #171, #228, #577, #55 ),
 .UNSPECIFIED., .F., .F.,
 ( 4, 2, 2, 4 ),
 ( 2.544365555414433600E-007, 0.0004475380576734567600, 0.0008948216787913721400, 0.001789388921027203600 ),
 .UNSPECIFIED. ) ;
#492 = EDGE_CURVE ( 'NONE', #350, #70, #244, .T. ) ;
#493 = DIRECTION ( 'NONE',  ( 0.0000000000000000000, 1.000000000000000000, 0.0000000000000000000 ) ) ;
#494 = CARTESIAN_POINT ( 'NONE',  ( 0.0000000000000000000, -6.481755355858702200E-056, 14.50000000000000200 ) ) ;
#495 = CARTESIAN_POINT ( 'NONE',  ( -1.500000000000000000, 0.7319659167298765400, 14.30306644590505400 ) ) ;
#496 = VECTOR ( 'NONE', #269, 1000.000000000000000 ) ;
#497 = APPROVAL ( #744, 'UNSPECIFIED' ) ;
#498 = DIRECTION ( 'NONE',  ( -0.0000000000000000000, 4.470176107488759400E-057, -1.000000000000000000 ) ) ;
#499 = EDGE_CURVE ( 'NONE', #70, #469, #285, .T. ) ;
#500 = ORIENTED_EDGE ( 'NONE', *, *, #108, .T. ) ;
#501 = PERSON ( 'UNSPECIFIED', 'UNSPECIFIED', 'UNSPECIFIED', ('UNSPECIFIED'), ('UNSPECIFIED'), ('UNSPECIFIED') ) ;
#502 = LINE ( 'NONE', #537, #513 ) ;
#503 = CONICAL_SURFACE ( 'NONE', #413, 1.861954618136542700, 0.7853981633974500600 ) ;
#504 = CARTESIAN_POINT ( 'NONE',  ( 0.0000000000000000000, 8.940352214977260700E-058, 14.30000000000000400 ) ) ;
#505 = ORIENTED_EDGE ( 'NONE', *, *, #5, .T. ) ;
#506 = DIRECTION ( 'NONE',  ( 0.0000000000000000000, 0.0000000000000000000, 1.000000000000000000 ) ) ;
#507 = EDGE_CURVE ( 'NONE', #427, #225, #491, .T. ) ;
#508 = CONICAL_SURFACE ( 'NONE', #183, 1.545336663013169100, 0.7853981633974473900 ) ;
#509 = EDGE_LOOP ( 'NONE', ( #57, #121, #207, #53 ) ) ;
#510 = ADVANCED_FACE ( 'NONE', ( #434 ), #700, .T. ) ;
#511 = SHAPE_DEFINITION_REPRESENTATION ( #87, #364 ) ;
#512 = DIRECTION ( 'NONE',  ( 0.0000000000000000000, 1.000000000000000000, 0.0000000000000000000 ) ) ;
#513 = VECTOR ( 'NONE', #366, 1000.000000000000000 ) ;
#514 = EDGE_LOOP ( 'NONE', ( #395, #279 ) ) ;
#515 = ORIENTED_EDGE ( 'NONE', *, *, #459, .T. ) ;
#516 = CC_DESIGN_APPROVAL ( #567, ( #351 ) ) ;
#517 = CARTESIAN_POINT ( 'NONE',  ( 1.861954618136542700, -6.481755355858702200E-056, 14.50000000000000200 ) ) ;
#518 = DIRECTION ( 'NONE',  ( 0.5000000000000004400, -0.8660254037844384900, 0.0000000000000000000 ) ) ;
#519 = EDGE_LOOP ( 'NONE', ( #585, #313, #591, #382 ) ) ;
#520 = AXIS2_PLACEMENT_3D ( 'NONE', #81, #134, #142 ) ;
#521 = ORIENTED_EDGE ( 'NONE', *, *, #492, .T. ) ;
#522 = CARTESIAN_POINT ( 'NONE',  ( 1.500000000000000000, -0.8660254037844387100, 14.37009618943233700 ) ) ;
#523 = DIRECTION ( 'NONE',  ( 0.0000000000000000000, 1.000000000000000000, 0.0000000000000000000 ) ) ;
#524 = ADVANCED_FACE ( 'NONE', ( #311 ), #464, .F. ) ;
#525 = EDGE_CURVE ( 'NONE', #238, #478, #549, .T. ) ;
#526 = DIRECTION ( 'NONE',  ( -0.0000000000000000000, -0.0000000000000000000, 1.000000000000000000 ) ) ;
#527 = CONICAL_SURFACE ( 'NONE', #760, 3.299999999999999800, 0.7853981633974516100 ) ;
#528 = CARTESIAN_POINT ( 'NONE',  ( 1.382802616965771900, 0.9336893444275702300, 14.30243224878920900 ) ) ;
#529 = CC_DESIGN_APPROVAL ( #497, ( #308 ) ) ;
#530 = FACE_OUTER_BOUND ( 'NONE', #729, .T. ) ;
#531 = LINE ( 'NONE', #385, #650 ) ;
#532 = DIRECTION ( 'NONE',  ( -0.5000000000000003300, 0.8660254037844386000, 0.0000000000000000000 ) ) ;
#533 = AXIS2_PLACEMENT_3D ( 'NONE', #303, #708, #600 ) ;
#534 = CARTESIAN_POINT ( 'NONE',  ( 1.500000000000000200, 0.8660254037844388200, 14.37009618943233800 ) ) ;
#535 = PERSON_AND_ORGANIZATION ( #501, #202 ) ;
#536 = FACE_OUTER_BOUND ( 'NONE', #755, .T. ) ;
#537 = CARTESIAN_POINT ( 'NONE',  ( -1.500000000000000000, 0.8660254037844384900, 11.50000000000000400 ) ) ;
#538 = ORIENTED_EDGE ( 'NONE', *, *, #525, .T. ) ;
#539 = PLANE ( 'NONE',  #682 ) ;
#540 = FACE_OUTER_BOUND ( 'NONE', #410, .T. ) ;
#541 = ORIENTED_EDGE ( 'NONE', *, *, #425, .T. ) ;
#542 = CARTESIAN_POINT ( 'NONE',  ( 0.0000000000000000000, 1.296351071171740300E-055, -14.50000000000000200 ) ) ;
#543 = CARTESIAN_POINT ( 'NONE',  ( 1.500000000000000000, -0.8660254037844387100, 5.917424305044161100 ) ) ;
#544 = DIRECTION ( 'NONE',  ( -0.0000000000000000000, 4.470176107488759400E-057, -1.000000000000000000 ) ) ;
#545 = CARTESIAN_POINT ( 'NONE',  ( 0.0000000000000000000, 8.940352214977260700E-058, 14.30000000000000400 ) ) ;
#546 = AXIS2_PLACEMENT_3D ( 'NONE', #504, #146, #36 ) ;
#547 = DIRECTION ( 'NONE',  ( 0.0000000000000000000, 1.000000000000000000, 0.0000000000000000000 ) ) ;
#548 = DIRECTION ( 'NONE',  ( 0.8660254037844383700, 0.5000000000000003300, 2.235088053744380800E-057 ) ) ;
#549 = LINE ( 'NONE', #759, #487 ) ;
#550 = CARTESIAN_POINT ( 'NONE',  ( -1.500000000000000200, 0.3005327505313505900, 14.16150924205150500 ) ) ;
#551 = ORIENTED_EDGE ( 'NONE', *, *, #280, .T. ) ;
#552 =( NAMED_UNIT ( * ) SI_UNIT ( $, .STERADIAN. ) SOLID_ANGLE_UNIT ( ) );
#553 = ADVANCED_FACE ( 'NONE', ( #2, #278 ), #176, .T. ) ;
#554 = VECTOR ( 'NONE', #439, 1000.000000000000000 ) ;
#555 = CARTESIAN_POINT ( 'NONE',  ( 0.0000000000000000000, 1.877473965145277800E-056, 10.30000000000000100 ) ) ;
#556 = ORIENTED_EDGE ( 'NONE', *, *, #63, .T. ) ;
#557 = ORIENTED_EDGE ( 'NONE', *, *, #162, .T. ) ;
#558 = VERTEX_POINT ( 'NONE', #481 ) ;
#559 = AXIS2_PLACEMENT_3D ( 'NONE', #545, #305, #488 ) ;
#560 = CARTESIAN_POINT ( 'NONE',  ( 0.0000000000000000000, 0.0000000000000000000, 0.0000000000000000000 ) ) ;
#561 = EDGE_CURVE ( 'NONE', #613, #558, #102, .T. ) ;
#562 = MECHANICAL_CONTEXT ( 'NONE', #104, 'mechanical' ) ;
#563 = LINE ( 'NONE', #465, #205 ) ;
#564 = CARTESIAN_POINT ( 'NONE',  ( -1.500000000000000000, 0.8660254037844384900, 5.917424305044161100 ) ) ;
#565 = ORIENTED_EDGE ( 'NONE', *, *, #90, .T. ) ;
#566 = APPLICATION_PROTOCOL_DEFINITION ( 'international standard', 'config_control_design', 1994, #104 ) ;
#567 = APPROVAL ( #586, 'UNSPECIFIED' ) ;
#568 = EDGE_CURVE ( 'NONE', #264, #286, #679, .T. ) ;
#569 = PERSON_AND_ORGANIZATION_ROLE ( 'design_owner' ) ;
#570 = CARTESIAN_POINT ( 'NONE',  ( 0.0000000000000000000, 1.276026819312243900E-055, -14.04533666301317000 ) ) ;
#571 = CONICAL_SURFACE ( 'NONE', #599, 3.500000000000000000, 0.7853981633974516100 ) ;
#572 = ORIENTED_EDGE ( 'NONE', *, *, #317, .F. ) ;
#573 = EDGE_CURVE ( 'NONE', #271, #670, #362, .T. ) ;
#574 = APPROVAL_ROLE ( '' ) ;
#575 = EDGE_LOOP ( 'NONE', ( #95, #692 ) ) ;
#576 = ORIENTED_EDGE ( 'NONE', *, *, #417, .F. ) ;
#577 = CARTESIAN_POINT ( 'NONE',  ( -0.2357771903914940800, -1.595924783227575400, 14.23397016509044400 ) ) ;
#578 = CARTESIAN_POINT ( 'NONE',  ( 1.500000000000000200, 0.8660254037844388200, 14.37009618943233800 ) ) ;
#579 = DIRECTION ( 'NONE',  ( -0.0000000000000000000, 4.470176107488759400E-057, -1.000000000000000000 ) ) ;
#580 = CARTESIAN_POINT ( 'NONE',  ( 0.0000000000000000000, 1.877473965145277800E-056, 10.30000000000000100 ) ) ;
#581 = ADVANCED_FACE ( 'NONE', ( #399 ), #302, .T. ) ;
#582 = CARTESIAN_POINT ( 'NONE',  ( -1.500000000000000000, 1.836760642956976600E-016, 14.13804538186346200 ) ) ;
#583 = VECTOR ( 'NONE', #45, 1000.000000000000000 ) ;
#584 = AXIS2_PLACEMENT_3D ( 'NONE', #675, #211, #270 ) ;
#585 = ORIENTED_EDGE ( 'NONE', *, *, #245, .T. ) ;
#586 = APPROVAL_STATUS ( 'not_yet_approved' ) ;
#587 = ADVANCED_FACE ( 'NONE', ( #349 ), #503, .F. ) ;
#588 = CARTESIAN_POINT ( 'NONE',  ( -1.500000000000000000, -0.3042102711411898700, 14.13804538186346000 ) ) ;
#589 = CIRCLE ( 'NONE', #241, 1.999999999999999100 ) ;
#590 = CARTESIAN_POINT ( 'NONE',  ( 0.0000000000000000000, 8.940352214977260700E-058, 14.30000000000000400 ) ) ;
#591 = ORIENTED_EDGE ( 'NONE', *, *, #63, .F. ) ;
#592 = CIRCLE ( 'NONE', #470, 1.545336663013169100 ) ;
#593 = ORIENTED_EDGE ( 'NONE', *, *, #5, .F. ) ;
#594 = ADVANCED_FACE ( 'NONE', ( #340 ), #67, .T. ) ;
#595 = DIRECTION ( 'NONE',  ( -0.0000000000000000000, 4.470176107488759400E-057, -1.000000000000000000 ) ) ;
#596 = ORIENTED_EDGE ( 'NONE', *, *, #335, .T. ) ;
#597 = CARTESIAN_POINT ( 'NONE',  ( -1.500000000000000000, 0.8660254037844382600, 14.37009618943233700 ) ) ;
#598 = CYLINDRICAL_SURFACE ( 'NONE', #713, 1.999999999999999600 ) ;
#599 = AXIS2_PLACEMENT_3D ( 'NONE', #374, #604, #91 ) ;
#600 = DIRECTION ( 'NONE',  ( 1.000000000000000000, 0.0000000000000000000, 0.0000000000000000000 ) ) ;
#601 = DIRECTION ( 'NONE',  ( -0.8660254037844387100, 0.4999999999999999400, 0.0000000000000000000 ) ) ;
#602 = FACE_OUTER_BOUND ( 'NONE', #453, .T. ) ;
#603 = ORIENTED_EDGE ( 'NONE', *, *, #72, .T. ) ;
#604 = DIRECTION ( 'NONE',  ( -0.0000000000000000000, 4.470176107488759400E-057, -1.000000000000000000 ) ) ;
#605 = DIRECTION ( 'NONE',  ( -0.0000000000000000000, -0.0000000000000000000, 1.000000000000000000 ) ) ;
#606 = PERSON_AND_ORGANIZATION ( #501, #202 ) ;
#607 = CARTESIAN_POINT ( 'NONE',  ( 1.500000000000000200, 0.7319659167298785400, 14.30306644590506200 ) ) ;
#608 = AXIS2_PLACEMENT_3D ( 'NONE', #703, #418, #9 ) ;
#609 = ORIENTED_EDGE ( 'NONE', *, *, #696, .F. ) ;
#610 = ADVANCED_FACE ( 'NONE', ( #230 ), #318, .F. ) ;
#611 = VECTOR ( 'NONE', #605, 1000.000000000000000 ) ;
#612 = CARTESIAN_POINT ( 'NONE',  ( 0.0000000000000000000, 1.999999999999999600, -14.50000000000000200 ) ) ;
#613 = VERTEX_POINT ( 'NONE', #379 ) ;
#614 = ORIENTED_EDGE ( 'NONE', *, *, #561, .T. ) ;
#615 = CARTESIAN_POINT ( 'NONE',  ( 1.500000000000000200, 0.3005327505313511400, 14.16150924205150700 ) ) ;
#616 = PERSON_AND_ORGANIZATION ( #501, #202 ) ;
#617 = ADVANCED_FACE ( 'NONE', ( #331 ), #747, .T. ) ;
#618 = DIRECTION ( 'NONE',  ( -0.0000000000000000000, 4.470176107488759400E-057, -1.000000000000000000 ) ) ;
#619 = CIRCLE ( 'NONE', #119, 2.199999999999998800 ) ;
#620 = DATE_TIME_ROLE ( 'classification_date' ) ;
#621 = ORIENTED_EDGE ( 'NONE', *, *, #499, .T. ) ;
#622 = ADVANCED_FACE ( 'NONE', ( #726 ), #571, .T. ) ;
#623 = AXIS2_PLACEMENT_3D ( 'NONE', #570, #462, #512 ) ;
#624 = DIRECTION ( 'NONE',  ( 0.0000000000000000000, -1.000000000000000000, 0.0000000000000000000 ) ) ;
#625 = ADVANCED_FACE ( 'NONE', ( #536 ), #539, .F. ) ;
#626 = APPROVAL_DATE_TIME ( #125, #479 ) ;
#627 = EDGE_CURVE ( 'NONE', #193, #558, #758, .T. ) ;
#628 = ORIENTED_EDGE ( 'NONE', *, *, #561, .F. ) ;
#629 = APPLICATION_CONTEXT ( 'configuration controlled 3d designs of mechanical parts and assemblies' ) ;
#630 = VECTOR ( 'NONE', #138, 999.9999999999998900 ) ;
#631 = CARTESIAN_POINT ( 'NONE',  ( -1.262961302073743800, -1.002879759840521900, 14.24490083228727000 ) ) ;
#632 = ORIENTED_EDGE ( 'NONE', *, *, #568, .F. ) ;
#633 = ORIENTED_EDGE ( 'NONE', *, *, #573, .F. ) ;
#634 = CARTESIAN_POINT ( 'NONE',  ( -1.382802616965771700, -0.9336893444275705700, 14.30243224878920900 ) ) ;
#635 = DIRECTION ( 'NONE',  ( -0.0000000000000000000, 4.470176107488759400E-057, -1.000000000000000000 ) ) ;
#636 = VECTOR ( 'NONE', #18, 1000.000000000000100 ) ;
#637 = DIRECTION ( 'NONE',  ( 0.0000000000000000000, 1.000000000000000000, 0.0000000000000000000 ) ) ;
#638 = AXIS2_PLACEMENT_3D ( 'NONE', #683, #728, #39 ) ;
#639 = B_SPLINE_CURVE_WITH_KNOTS ( 'NONE', 3,
 ( #100, #400, #397, #219, #161, #684, #745, #333 ),
 .UNSPECIFIED., .F., .F.,
 ( 4, 2, 2, 4 ),
 ( 2.544365555414467400E-007, 0.0004475380576734567100, 0.0008948216787913720300, 0.001789388921027202500 ),
 .UNSPECIFIED. ) ;
#640 = FACE_OUTER_BOUND ( 'NONE', #147, .T. ) ;
#641 = VERTEX_POINT ( 'NONE', #711 ) ;
#642 = DIRECTION ( 'NONE',  ( 0.0000000000000000000, 1.000000000000000000, 0.0000000000000000000 ) ) ;
#643 = EDGE_CURVE ( 'NONE', #670, #490, #268, .T. ) ;
#644 = CARTESIAN_POINT ( 'NONE',  ( 0.0000000000000000000, -6.481755355858702200E-056, 14.50000000000000200 ) ) ;
#645 = PERSON_AND_ORGANIZATION ( #501, #202 ) ;
#646 = CARTESIAN_POINT ( 'NONE',  ( -1.500000000000000000, -0.5973773716075516700, 14.23577217334389100 ) ) ;
#647 = EDGE_LOOP ( 'NONE', ( #447, #115, #680, #486 ) ) ;
#648 = CARTESIAN_POINT ( 'NONE',  ( 0.0000000000000000000, 1.545336663013169100, -14.50000000000000200 ) ) ;
#649 = LINE ( 'NONE', #662, #630 ) ;
#650 = VECTOR ( 'NONE', #548, 1000.000000000000100 ) ;
#651 = ORIENTED_EDGE ( 'NONE', *, *, #568, .T. ) ;
#652 = PLANE ( 'NONE',  #312 ) ;
#653 = LOCAL_TIME ( 11, 8, 34.00000000000000000, #214 ) ;
#654 = CARTESIAN_POINT ( 'NONE',  ( -9.888788076574955100E-017, 1.732050807568877900, 14.37009618943233800 ) ) ;
#655 = ORIENTED_EDGE ( 'NONE', *, *, #627, .T. ) ;
#656 = DIRECTION ( 'NONE',  ( 0.0000000000000000000, 1.000000000000000000, 0.0000000000000000000 ) ) ;
#657 = CIRCLE ( 'NONE', #365, 3.299999999999999800 ) ;
#658 = CARTESIAN_POINT ( 'NONE',  ( -0.1171973830342284000, 1.664386866925746200, 14.30243224878920900 ) ) ;
#659 = ORIENTED_EDGE ( 'NONE', *, *, #61, .T. ) ;
#660 = AXIS2_PLACEMENT_3D ( 'NONE', #667, #544, #259 ) ;
#661 = DIRECTION ( 'NONE',  ( 0.0000000000000000000, 1.000000000000000000, 0.0000000000000000000 ) ) ;
#662 = CARTESIAN_POINT ( 'NONE',  ( -1.500000000000000000, -0.8660254037844391500, 11.50000000000000400 ) ) ;
#663 = CC_DESIGN_DATE_AND_TIME_ASSIGNMENT ( #192, #753, ( #111 ) ) ;
#664 = CARTESIAN_POINT ( 'NONE',  ( 2.170892598129418100E-016, 1.545336663013169100, -14.50000000000000200 ) ) ;
#665 = CARTESIAN_POINT ( 'NONE',  ( -1.500000000000000200, -0.8660254037844390400, 14.37009618943233800 ) ) ;
#666 = CARTESIAN_POINT ( 'NONE',  ( -1.500000000000000000, 1.836760642956976600E-016, 14.13804538186346200 ) ) ;
#667 = CARTESIAN_POINT ( 'NONE',  ( 0.0000000000000000000, 0.0000000000000000000, 10.30000000000000200 ) ) ;
#668 = TOROIDAL_SURFACE ( 'NONE', #738, 2.199999999999999300, 0.2000000000000003200 ) ;
#669 = DIRECTION ( 'NONE',  ( 0.0000000000000000000, 1.000000000000000000, 4.470176107488759400E-057 ) ) ;
#670 = VERTEX_POINT ( 'NONE', #131 ) ;
#671 = EDGE_CURVE ( 'NONE', #411, #731, #144, .T. ) ;
#672 = CARTESIAN_POINT ( 'NONE',  ( 0.0000000000000000000, 1.296351071171740300E-055, -14.50000000000000200 ) ) ;
#673 = DIRECTION ( 'NONE',  ( -0.7071067811865487900, 8.659560562354948900E-017, 0.7071067811865463500 ) ) ;
#674 = ORIENTED_EDGE ( 'NONE', *, *, #371, .F. ) ;
#675 = CARTESIAN_POINT ( 'NONE',  ( 0.0000000000000000000, 1.296351071171740300E-055, -14.50000000000000200 ) ) ;
#676 = CARTESIAN_POINT ( 'NONE',  ( 1.500000000000000200, 0.8660254037844388200, 14.37009618943233800 ) ) ;
#677 = CARTESIAN_POINT ( 'NONE',  ( 4.336808689942017700E-016, -1.732050807568877400, 11.50000000000000400 ) ) ;
#678 = ADVANCED_FACE ( 'NONE', ( #19 ), #598, .T. ) ;
#679 = LINE ( 'NONE', #288, #715 ) ;
#680 = ORIENTED_EDGE ( 'NONE', *, *, #335, .F. ) ;
#681 = ORIENTED_EDGE ( 'NONE', *, *, #685, .T. ) ;
#682 = AXIS2_PLACEMENT_3D ( 'NONE', #253, #199, #260 ) ;
#683 = CARTESIAN_POINT ( 'NONE',  ( 0.0000000000000000000, 1.698666920845727200E-056, 10.70000000000000100 ) ) ;
#684 = CARTESIAN_POINT ( 'NONE',  ( 1.009129909835880100, -1.149429382477829200, 14.13740560520547400 ) ) ;
#685 = EDGE_CURVE ( 'NONE', #70, #110, #387, .T. ) ;
#686 = VECTOR ( 'NONE', #56, 1000.000000000000000 ) ;
#687 = VERTEX_POINT ( 'NONE', #210 ) ;
#688 = APPROVAL_ROLE ( '' ) ;
#689 = CARTESIAN_POINT ( 'NONE',  ( 4.376801096225752400E-016, -1.732050807568877900, 5.917424305044161100 ) ) ;
#690 = LINE ( 'NONE', #328, #496 ) ;
#691 = EDGE_CURVE ( 'NONE', #641, #110, #690, .T. ) ;
#692 = ORIENTED_EDGE ( 'NONE', *, *, #258, .F. ) ;
#693 = ORIENTED_EDGE ( 'NONE', *, *, #188, .F. ) ;
#694 = VERTEX_POINT ( 'NONE', #326 ) ;
#695 = EDGE_CURVE ( 'NONE', #128, #93, #390, .T. ) ;
#696 = EDGE_CURVE ( 'NONE', #490, #127, #463, .T. ) ;
#697 = APPROVAL_PERSON_ORGANIZATION ( #535, #567, #574 ) ;
#698 = CARTESIAN_POINT ( 'NONE',  ( 1.014703996554336500, 1.146211182010441500, 14.16269932611187200 ) ) ;
#699 = AXIS2_PLACEMENT_3D ( 'NONE', #20, #135, #601 ) ;
#700 = CYLINDRICAL_SURFACE ( 'NONE', #485, 3.500000000000000000 ) ;
#701 = CIRCLE ( 'NONE', #130, 0.2000000000000005100 ) ;
#702 = EDGE_CURVE ( 'NONE', #558, #731, #295, .T. ) ;
#703 = CARTESIAN_POINT ( 'NONE',  ( 0.0000000000000000000, 1.788070442995501700E-056, 10.50000000000000200 ) ) ;
#704 = LINE ( 'NONE', #98, #554 ) ;
#705 = CARTESIAN_POINT ( 'NONE',  ( 2.961208946853466600E-016, -1.732050807568877900, 14.37009618943233800 ) ) ;
#706 = CC_DESIGN_PERSON_AND_ORGANIZATION_ASSIGNMENT ( #645, #569, ( #141 ) ) ;
#707 = ORIENTED_EDGE ( 'NONE', *, *, #188, .T. ) ;
#708 = DIRECTION ( 'NONE',  ( 0.0000000000000000000, 0.0000000000000000000, 1.000000000000000000 ) ) ;
#709 = ORIENTED_EDGE ( 'NONE', *, *, #492, .F. ) ;
#710 = ORIENTED_EDGE ( 'NONE', *, *, #696, .T. ) ;
#711 = CARTESIAN_POINT ( 'NONE',  ( 1.500000000000000000, 0.8660254037844389300, 11.50000000000000400 ) ) ;
#712 = CARTESIAN_POINT ( 'NONE',  ( -0.2370386979262565400, 1.595196451512795200, 14.24490083228727000 ) ) ;
#713 = AXIS2_PLACEMENT_3D ( 'NONE', #542, #272, #448 ) ;
#714 = CARTESIAN_POINT ( 'NONE',  ( -1.500000000000000000, -0.8660254037844391500, 11.50000000000000400 ) ) ;
#715 = VECTOR ( 'NONE', #750, 1000.000000000000000 ) ;
#716 = DIRECTION ( 'NONE',  ( -0.0000000000000000000, -0.0000000000000000000, 1.000000000000000000 ) ) ;
#717 = CARTESIAN_POINT ( 'NONE',  ( 2.694222958124176000E-016, -2.199999999999998800, 10.50000000000000200 ) ) ;
#718 = EDGE_CURVE ( 'NONE', #641, #238, #704, .T. ) ;
#719 = CIRCLE ( 'NONE', #608, 3.299999999999999800 ) ;
#720 = DIRECTION ( 'NONE',  ( 0.0000000000000000000, -4.470176107488759400E-057, 1.000000000000000000 ) ) ;
#721 = CARTESIAN_POINT ( 'NONE',  ( 0.0000000000000000000, 1.698666920845727200E-056, 10.70000000000000100 ) ) ;
#722 = ORIENTED_EDGE ( 'NONE', *, *, #685, .F. ) ;
#723 = CARTESIAN_POINT ( 'NONE',  ( -1.264222809608505700, 1.002151428125742000, 14.23397016509044600 ) ) ;
#724 = CARTESIAN_POINT ( 'NONE',  ( 1.500000000000000000, -2.095578071372133200E-020, 14.13804538186346200 ) ) ;
#725 = CARTESIAN_POINT ( 'NONE',  ( 1.500000000000000200, 0.5909740868883568400, 14.24424355473336100 ) ) ;
#726 = FACE_OUTER_BOUND ( 'NONE', #358, .T. ) ;
#727 = ADVANCED_FACE ( 'NONE', ( #336 ), #527, .T. ) ;
#728 = DIRECTION ( 'NONE',  ( -0.0000000000000000000, 4.470176107488759400E-057, -1.000000000000000000 ) ) ;
#729 = EDGE_LOOP ( 'NONE', ( #515, #500 ) ) ;
#730 = DIRECTION ( 'NONE',  ( 0.0000000000000000000, 0.7071067811865499000, -0.7071067811865452400 ) ) ;
#731 = VERTEX_POINT ( 'NONE', #320 ) ;
#732 = EDGE_CURVE ( 'NONE', #433, #428, #406, .T. ) ;
#733 = DIRECTION ( 'NONE',  ( -0.0000000000000000000, 4.470176107488759400E-057, -1.000000000000000000 ) ) ;
#734 = CARTESIAN_POINT ( 'NONE',  ( 0.0000000000000000000, 1.788070442995501700E-056, 10.50000000000000200 ) ) ;
#735 = ORIENTED_EDGE ( 'NONE', *, *, #254, .F. ) ;
#736 = CARTESIAN_POINT ( 'NONE',  ( -1.861954618136542700, 2.280236763258549300E-016, 14.50000000000000200 ) ) ;
#737 = EDGE_CURVE ( 'NONE', #433, #128, #589, .T. ) ;
#738 = AXIS2_PLACEMENT_3D ( 'NONE', #79, #222, #743 ) ;
#739 = VECTOR ( 'NONE', #191, 1000.000000000000000 ) ;
#740 = VECTOR ( 'NONE', #595, 1000.000000000000000 ) ;
#741 = EDGE_LOOP ( 'NONE', ( #170, #655, #15, #209 ) ) ;
#742 = AXIS2_PLACEMENT_3D ( 'NONE', #721, #86, #255 ) ;
#743 = DIRECTION ( 'NONE',  ( 0.0000000000000000000, 1.000000000000000000, 4.470176107488759400E-057 ) ) ;
#744 = APPROVAL_STATUS ( 'not_yet_approved' ) ;
#745 = CARTESIAN_POINT ( 'NONE',  ( 1.264222809608505700, -1.002151428125741800, 14.23397016509044000 ) ) ;
#746 = CARTESIAN_POINT ( 'NONE',  ( -1.500000000000000000, -0.8660254037844391500, 5.917424305044161100 ) ) ;
#747 = CONICAL_SURFACE ( 'NONE', #559, 3.500000000000000000, 0.7853981633974516100 ) ;
#748 = EDGE_CURVE ( 'NONE', #613, #35, #441, .T. ) ;
#749 = PERSON_AND_ORGANIZATION_ROLE ( 'design_supplier' ) ;
#750 = DIRECTION ( 'NONE',  ( 0.0000000000000000000, -0.7071067811865469100, 0.7071067811865482400 ) ) ;
#751 = EDGE_LOOP ( 'NONE', ( #151, #99, #169, #83 ) ) ;
#752 = LINE ( 'NONE', #250, #740 ) ;
#753 = DATE_TIME_ROLE ( 'creation_date' ) ;
#754 = ORIENTED_EDGE ( 'NONE', *, *, #254, .T. ) ;
#755 = EDGE_LOOP ( 'NONE', ( #458, #659, #283, #538, #180, #401 ) ) ;
#756 = CARTESIAN_POINT ( 'NONE',  ( 1.500000000000000000, -0.5973773716075514400, 14.23577217334389100 ) ) ;
#757 = CARTESIAN_POINT ( 'NONE',  ( -3.134800047514084500E-016, 1.732050807568877600, 5.917424305044161100 ) ) ;
#758 = LINE ( 'NONE', #432, #636 ) ;
#759 = CARTESIAN_POINT ( 'NONE',  ( -3.134800047514084500E-016, 1.732050807568877600, 11.50000000000000400 ) ) ;
#760 = AXIS2_PLACEMENT_3D ( 'NONE', #734, #275, #388 ) ;
#761 = DIRECTION ( 'NONE',  ( 0.7071067811865487900, 0.0000000000000000000, 0.7071067811865463500 ) ) ;
ENDSEC;
END-ISO-10303-21;
