ISO-10303-21;
HEADER;
FILE_DESCRIPTION (( 'STEP AP203' ),
    '1' );
FILE_NAME ('91294A190_NO THREADS_Black-Oxide Alloy Steel Hex Drive Flat Head Screw.STEP',
    '2025-06-03T12:36:54',
    ( 'Administrator' ),
    ( 'Managed by Terraform' ),
    'SwSTEP 2.0',
    'SolidWorks 2017',
    '' );
FILE_SCHEMA (( 'CONFIG_CONTROL_DESIGN' ));
ENDSEC;

DATA;
#1 = CARTESIAN_POINT ( 'NONE',  ( 0.0000000000000000000, 8.494974849304558300E-015, 5.000000000000000000 ) ) ;
#2 = CARTESIAN_POINT ( 'NONE',  ( 0.0000000000000000000, 8.494974849304558300E-015, 5.000000000000000000 ) ) ;
#3 = VECTOR ( 'NONE', #147, 1000.000000000000100 ) ;
#4 = ORIENTED_EDGE ( 'NONE', *, *, #201, .T. ) ;
#5 = DIRECTION ( 'NONE',  ( -0.4999999999999998300, 0.8660254037844387100, 0.0000000000000000000 ) ) ;
#6 = DIRECTION ( 'NONE',  ( 0.0000000000000000000, -1.224646799147353000E-016, 1.000000000000000000 ) ) ;
#7 = CC_DESIGN_PERSON_AND_ORGANIZATION_ASSIGNMENT ( #549, #621, ( #662 ) ) ;
#8 = CARTESIAN_POINT ( 'NONE',  ( 0.0000000000000000000, 8.494974849304558300E-015, 5.000000000000000000 ) ) ;
#9 = AXIS2_PLACEMENT_3D ( 'NONE', #297, #407, #517 ) ;
#10 = CARTESIAN_POINT ( 'NONE',  ( -0.8409413214249679100, -0.9578579746766797700, 4.806091094028873000 ) ) ;
#11 = CIRCLE ( 'NONE', #66, 1.400000000000003000 ) ;
#12 = LINE ( 'NONE', #335, #22 ) ;
#13 = LINE ( 'NONE', #526, #608 ) ;
#14 = CARTESIAN_POINT ( 'NONE',  ( 2.449293598294708400E-016, 2.000000000000000000, 2.700000000000000600 ) ) ;
#15 = ORIENTED_EDGE ( 'NONE', *, *, #324, .T. ) ;
#16 = CARTESIAN_POINT ( 'NONE',  ( 0.0000000000000000000, 0.0000000000000000000, 0.0000000000000000000 ) ) ;
#17 = CARTESIAN_POINT ( 'NONE',  ( 0.0000000000000000000, 8.494974849304558300E-015, 5.000000000000000000 ) ) ;
#18 = CARTESIAN_POINT ( 'NONE',  ( -1.250000000000000200, -0.7216878364870320500, 3.389999999999999700 ) ) ;
#19 = EDGE_CURVE ( 'NONE', #116, #213, #114, .T. ) ;
#20 = AXIS2_PLACEMENT_3D ( 'NONE', #312, #148, #640 ) ;
#21 = DIRECTION ( 'NONE',  ( 0.0000000000000000000, 1.000000000000000000, 2.168404344971009400E-016 ) ) ;
#22 = VECTOR ( 'NONE', #226, 1000.000000000000100 ) ;
#23 = CARTESIAN_POINT ( 'NONE',  ( 1.387778780781445700E-014, 1.443375672974072500, 5.000000000000000000 ) ) ;
#24 = ORIENTED_EDGE ( 'NONE', *, *, #42, .T. ) ;
#25 = CARTESIAN_POINT ( 'NONE',  ( 1.249999999999999800, 0.7216878364870401600, 5.000000000000000000 ) ) ;
#26 = CARTESIAN_POINT ( 'NONE',  ( 0.0000000000000000000, -1.606625838323613000E-016, -5.000000000000000000 ) ) ;
#27 = CARTESIAN_POINT ( 'NONE',  ( 0.0000000000000000000, 8.494974849304558300E-015, 5.000000000000000000 ) ) ;
#28 = PERSON_AND_ORGANIZATION_ROLE ( 'design_supplier' ) ;
#29 = DIRECTION ( 'NONE',  ( -1.000000000000000000, 0.0000000000000000000, -0.0000000000000000000 ) ) ;
#30 = CARTESIAN_POINT ( 'NONE',  ( 0.0000000000000000000, 8.494974849304558300E-015, 5.000000000000000000 ) ) ;
#31 = FACE_OUTER_BOUND ( 'NONE', #158, .T. ) ;
#32 = EDGE_LOOP ( 'NONE', ( #15, #309, #243, #132 ) ) ;
#33 = LINE ( 'NONE', #578, #218 ) ;
#34 = ORIENTED_EDGE ( 'NONE', *, *, #324, .F. ) ;
#35 = DIRECTION ( 'NONE',  ( 0.0000000000000000000, -1.224646799147353000E-016, 1.000000000000000000 ) ) ;
#36 = CALENDAR_DATE ( 2025, 3, 6 ) ;
#37 = LINE ( 'NONE', #18, #594 ) ;
#38 = B_SPLINE_CURVE_WITH_KNOTS ( 'NONE', 3,
 ( #413, #469, #304, #639, #523, #364, #685, #693 ),
 .UNSPECIFIED., .F., .F.,
 ( 4, 2, 2, 4 ),
 ( 2.544378114130074900E-007, 0.0003729905366538374900, 0.0007457266354962618900, 0.001491198833181111600 ),
 .UNSPECIFIED. ) ;
#39 = EDGE_LOOP ( 'NONE', ( #396, #497, #266, #136 ) ) ;
#40 = VERTEX_POINT ( 'NONE', #377 ) ;
#41 = ADVANCED_FACE ( 'NONE', ( #567 ), #265, .F. ) ;
#42 = EDGE_CURVE ( 'NONE', #381, #206, #668, .T. ) ;
#43 = PLANE ( 'NONE',  #514 ) ;
#44 = DIRECTION ( 'NONE',  ( 1.000000000000000000, 0.0000000000000000000, 0.0000000000000000000 ) ) ;
#45 = SECURITY_CLASSIFICATION ( '', '', #85 ) ;
#46 = CARTESIAN_POINT ( 'NONE',  ( -1.250000000000000200, -0.7216878364870225000, 5.000000000000000000 ) ) ;
#47 = FACE_OUTER_BOUND ( 'NONE', #62, .T. ) ;
#48 = FACE_OUTER_BOUND ( 'NONE', #644, .T. ) ;
#49 = VERTEX_POINT ( 'NONE', #111 ) ;
#50 = ADVANCED_FACE ( 'NONE', ( #84 ), #655, .F. ) ;
#51 = CARTESIAN_POINT ( 'NONE',  ( 0.0000000000000000000, -1.606625838323613000E-016, -5.000000000000000000 ) ) ;
#52 = DIRECTION ( 'NONE',  ( 1.000000000000000000, 0.0000000000000000000, 0.0000000000000000000 ) ) ;
#53 = AXIS2_PLACEMENT_3D ( 'NONE', #51, #322, #261 ) ;
#54 = EDGE_CURVE ( 'NONE', #482, #49, #329, .T. ) ;
#55 = EDGE_LOOP ( 'NONE', ( #141, #448 ) ) ;
#56 = ORIENTED_EDGE ( 'NONE', *, *, #133, .T. ) ;
#57 = LOCAL_TIME ( 7, 36, 54.00000000000000000, #310 ) ;
#58 = DIRECTION ( 'NONE',  ( 0.0000000000000000000, -1.224646799147353200E-016, 1.000000000000000000 ) ) ;
#59 = LINE ( 'NONE', #181, #434 ) ;
#60 = ORIENTED_EDGE ( 'NONE', *, *, #534, .T. ) ;
#61 = DIRECTION ( 'NONE',  ( 0.0000000000000000000, 1.000000000000000000, 0.0000000000000000000 ) ) ;
#62 = EDGE_LOOP ( 'NONE', ( #465, #379, #109, #677 ) ) ;
#63 = CARTESIAN_POINT ( 'NONE',  ( 0.0000000000000000000, -1.103640619175823200E-015, 2.700000000000000200 ) ) ;
#64 = COORDINATED_UNIVERSAL_TIME_OFFSET ( 6, 0, .BEHIND. ) ;
#65 = CARTESIAN_POINT ( 'NONE',  ( -0.5135752358548976200, -1.146862872304113400, 4.806895185592702900 ) ) ;
#66 = AXIS2_PLACEMENT_3D ( 'NONE', #416, #319, #99 ) ;
#67 = CARTESIAN_POINT ( 'NONE',  ( 0.0000000000000000000, 3.999999999999997300, 4.699999999999994000 ) ) ;
#68 = EDGE_CURVE ( 'NONE', #178, #321, #359, .T. ) ;
#69 = UNCERTAINTY_MEASURE_WITH_UNIT (LENGTH_MEASURE( 1.000000000000000100E-005 ), #71, 'distance_accuracy_value', 'NONE');
#70 = CARTESIAN_POINT ( 'NONE',  ( 0.4044126993943285000, 1.209887892115046200, 4.827169435921567800 ) ) ;
#71 =( LENGTH_UNIT ( ) NAMED_UNIT ( * ) SI_UNIT ( .MILLI., .METRE. ) );
#72 = DIRECTION ( 'NONE',  ( 0.0000000000000000000, -1.000000000000000000, 0.0000000000000000000 ) ) ;
#73 = FACE_OUTER_BOUND ( 'NONE', #528, .T. ) ;
#74 = DIRECTION ( 'NONE',  ( 0.0000000000000000000, 0.0000000000000000000, 1.000000000000000000 ) ) ;
#75 = ORIENTED_EDGE ( 'NONE', *, *, #654, .F. ) ;
#76 = DIRECTION ( 'NONE',  ( -0.0000000000000000000, -0.0000000000000000000, 1.000000000000000000 ) ) ;
#77 = ORIENTED_EDGE ( 'NONE', *, *, #486, .F. ) ;
#78 = APPROVAL_DATE_TIME ( #259, #276 ) ;
#79 = CARTESIAN_POINT ( 'NONE',  ( -1.250000000000006200, 0.7216878364870288300, 5.000000000000000000 ) ) ;
#80 = PERSON ( 'UNSPECIFIED', 'UNSPECIFIED', 'UNSPECIFIED', ('UNSPECIFIED'), ('UNSPECIFIED'), ('UNSPECIFIED') ) ;
#81 = CARTESIAN_POINT ( 'NONE',  ( -1.250000000000000200, 0.7216878364870326100, 3.389999999999999700 ) ) ;
#82 = CIRCLE ( 'NONE', #175, 1.443375672974064100 ) ;
#83 = CARTESIAN_POINT ( 'NONE',  ( 1.249999999999999600, -0.4921603826408905100, 4.895040046841363500 ) ) ;
#84 = FACE_OUTER_BOUND ( 'NONE', #373, .T. ) ;
#85 = SECURITY_CLASSIFICATION_LEVEL ( 'unclassified' ) ;
#86 = AXIS2_PLACEMENT_3D ( 'NONE', #581, #58, #591 ) ;
#87 = COORDINATED_UNIVERSAL_TIME_OFFSET ( 6, 0, .BEHIND. ) ;
#88 = CARTESIAN_POINT ( 'NONE',  ( 1.249999999999999800, -0.1270747435588982200, 4.806624327025936300 ) ) ;
#89 = ORIENTED_EDGE ( 'NONE', *, *, #92, .F. ) ;
#90 = ORIENTED_EDGE ( 'NONE', *, *, #543, .T. ) ;
#91 = APPROVAL ( #511, 'UNSPECIFIED' ) ;
#92 = EDGE_CURVE ( 'NONE', #361, #221, #676, .T. ) ;
#93 = DIRECTION ( 'NONE',  ( -0.0000000000000000000, -0.0000000000000000000, 1.000000000000000000 ) ) ;
#94 = ADVANCED_FACE ( 'NONE', ( #692 ), #194, .F. ) ;
#95 = VECTOR ( 'NONE', #258, 999.9999999999998900 ) ;
#96 = ORIENTED_EDGE ( 'NONE', *, *, #149, .T. ) ;
#97 = PERSON_AND_ORGANIZATION ( #80, #278 ) ;
#98 = DIRECTION ( 'NONE',  ( 0.8660254037844386000, -0.5000000000000001100, 0.0000000000000000000 ) ) ;
#99 = DIRECTION ( 'NONE',  ( 0.0000000000000000000, 1.000000000000000000, 0.0000000000000000000 ) ) ;
#100 = EDGE_CURVE ( 'NONE', #530, #284, #546, .T. ) ;
#101 = VECTOR ( 'NONE', #670, 1000.000000000000000 ) ;
#102 = ORIENTED_EDGE ( 'NONE', *, *, #298, .T. ) ;
#103 = EDGE_LOOP ( 'NONE', ( #533, #102 ) ) ;
#104 = EDGE_LOOP ( 'NONE', ( #427, #374 ) ) ;
#105 = PERSON_AND_ORGANIZATION ( #80, #278 ) ;
#106 = DIRECTION ( 'NONE',  ( 0.0000000000000000000, 1.000000000000000000, 2.168404344971009400E-016 ) ) ;
#107 = LINE ( 'NONE', #369, #320 ) ;
#108 = VERTEX_POINT ( 'NONE', #541 ) ;
#109 = ORIENTED_EDGE ( 'NONE', *, *, #19, .F. ) ;
#110 = DIRECTION ( 'NONE',  ( -0.8660254037844387100, -0.4999999999999998300, 0.0000000000000000000 ) ) ;
#111 = CARTESIAN_POINT ( 'NONE',  ( 1.249999999999999800, 0.7216878364870328300, 3.389999999999999700 ) ) ;
#112 = DIRECTION ( 'NONE',  ( -0.0000000000000000000, 1.224646799147353200E-016, -1.000000000000000000 ) ) ;
#113 = CIRCLE ( 'NONE', #315, 2.000000000000000400 ) ;
#114 = CIRCLE ( 'NONE', #331, 2.000000000000000400 ) ;
#115 = CARTESIAN_POINT ( 'NONE',  ( 0.1975317408473136500, 1.329330669222373000, 4.895670759229832700 ) ) ;
#116 = VERTEX_POINT ( 'NONE', #491 ) ;
#117 = ORIENTED_EDGE ( 'NONE', *, *, #690, .T. ) ;
#118 = PERSON_AND_ORGANIZATION ( #80, #278 ) ;
#119 = CC_DESIGN_APPROVAL ( #679, ( #45 ) ) ;
#120 = CARTESIAN_POINT ( 'NONE',  ( 0.0000000000000000000, -1.606625838323613000E-016, -5.000000000000000000 ) ) ;
#121 = AXIS2_PLACEMENT_3D ( 'NONE', #430, #334, #443 ) ;
#122 = CARTESIAN_POINT ( 'NONE',  ( -1.152335806484992700, 0.7780742849031097000, 4.943613551583918100 ) ) ;
#123 = CARTESIAN_POINT ( 'NONE',  ( 4.898587196589411800E-016, -4.000000000000000900, 5.000000000000000900 ) ) ;
#124 = DIRECTION ( 'NONE',  ( -0.0000000000000000000, -0.0000000000000000000, 1.000000000000000000 ) ) ;
#125 = VECTOR ( 'NONE', #227, 1000.000000000000100 ) ;
#126 = ORIENTED_EDGE ( 'NONE', *, *, #643, .T. ) ;
#127 = MECHANICAL_CONTEXT ( 'NONE', #656, 'mechanical' ) ;
#128 = CARTESIAN_POINT ( 'NONE',  ( 0.0000000000000000000, 8.494974849304558300E-015, 5.000000000000000000 ) ) ;
#129 = DIRECTION ( 'NONE',  ( 0.0000000000000000000, 1.000000000000000000, 2.168404344971009400E-016 ) ) ;
#130 = APPLICATION_PROTOCOL_DEFINITION ( 'international standard', 'config_control_design', 1994, #559 ) ;
#131 = LINE ( 'NONE', #421, #3 ) ;
#132 = ORIENTED_EDGE ( 'NONE', *, *, #343, .F. ) ;
#133 = EDGE_CURVE ( 'NONE', #285, #108, #507, .T. ) ;
#134 = ORIENTED_EDGE ( 'NONE', *, *, #54, .T. ) ;
#135 = AXIS2_PLACEMENT_3D ( 'NONE', #380, #325, #167 ) ;
#136 = ORIENTED_EDGE ( 'NONE', *, *, #397, .F. ) ;
#137 = DIRECTION ( 'NONE',  ( -0.0000000000000000000, 1.224646799147353200E-016, -1.000000000000000000 ) ) ;
#138 = FACE_OUTER_BOUND ( 'NONE', #257, .T. ) ;
#139 = EDGE_LOOP ( 'NONE', ( #595, #582, #641, #548 ) ) ;
#140 = PRODUCT_DEFINITION_SHAPE ( 'NONE', 'NONE',  #542 ) ;
#141 = ORIENTED_EDGE ( 'NONE', *, *, #92, .T. ) ;
#142 = ADVANCED_FACE ( 'NONE', ( #48 ), #602, .T. ) ;
#143 = AXIS2_PLACEMENT_3D ( 'NONE', #192, #471, #579 ) ;
#144 = FACE_OUTER_BOUND ( 'NONE', #539, .T. ) ;
#145 = CARTESIAN_POINT ( 'NONE',  ( 1.249999999999999300, 0.1271009718430287600, 4.806624327025935500 ) ) ;
#146 = ORIENTED_EDGE ( 'NONE', *, *, #100, .T. ) ;
#147 = DIRECTION ( 'NONE',  ( 8.659560562354913100E-017, 0.7071067811865459100, 0.7071067811865491300 ) ) ;
#148 = DIRECTION ( 'NONE',  ( 0.0000000000000000000, -1.224646799147353200E-016, 1.000000000000000000 ) ) ;
#149 = EDGE_CURVE ( 'NONE', #244, #284, #294, .T. ) ;
#150 = DIRECTION ( 'NONE',  ( -0.0000000000000000000, 1.224646799147353200E-016, -1.000000000000000000 ) ) ;
#151 = FACE_OUTER_BOUND ( 'NONE', #32, .T. ) ;
#152 = ORIENTED_EDGE ( 'NONE', *, *, #680, .F. ) ;
#153 = VERTEX_POINT ( 'NONE', #270 ) ;
#154 = DIRECTION ( 'NONE',  ( 1.000000000000000000, 0.0000000000000000000, 0.0000000000000000000 ) ) ;
#155 = CARTESIAN_POINT ( 'NONE',  ( -5.024435860983609000E-016, -1.443375672974064300, 3.389999999999999700 ) ) ;
#156 = CIRCLE ( 'NONE', #348, 3.999999999999999100 ) ;
#157 = DIRECTION ( 'NONE',  ( 0.0000000000000000000, -0.7071067811865486800, 0.7071067811865464600 ) ) ;
#158 = EDGE_LOOP ( 'NONE', ( #417, #89, #459, #547 ) ) ;
#159 = CONICAL_SURFACE ( 'NONE', #302, 2.000000000000001300, 0.7853981633974497200 ) ;
#160 = ORIENTED_EDGE ( 'NONE', *, *, #201, .F. ) ;
#161 = DATE_AND_TIME ( #36, #605 ) ;
#162 = CARTESIAN_POINT ( 'NONE',  ( 1.249999999999999600, -0.7216878364870326100, 3.389999999999999700 ) ) ;
#163 = DIRECTION ( 'NONE',  ( 0.0000000000000000000, 0.0000000000000000000, 1.000000000000000000 ) ) ;
#164 = EDGE_CURVE ( 'NONE', #381, #116, #12, .T. ) ;
#165 = AXIS2_PLACEMENT_3D ( 'NONE', #564, #281, #346 ) ;
#166 = PLANE ( 'NONE',  #185 ) ;
#167 = DIRECTION ( 'NONE',  ( 1.000000000000000000, 0.0000000000000000000, 0.0000000000000000000 ) ) ;
#168 = FACE_OUTER_BOUND ( 'NONE', #39, .T. ) ;
#169 = FACE_OUTER_BOUND ( 'NONE', #495, .T. ) ;
#170 = DIRECTION ( 'NONE',  ( -0.8660254037844387100, 0.4999999999999999400, 0.0000000000000000000 ) ) ;
#171 = ORIENTED_EDGE ( 'NONE', *, *, #554, .F. ) ;
#172 = EDGE_CURVE ( 'NONE', #244, #530, #502, .T. ) ;
#173 = DIRECTION ( 'NONE',  ( 0.0000000000000000000, 1.000000000000000000, 0.0000000000000000000 ) ) ;
#174 = DATE_TIME_ROLE ( 'creation_date' ) ;
#175 = AXIS2_PLACEMENT_3D ( 'NONE', #487, #490, #215 ) ;
#176 = CIRCLE ( 'NONE', #402, 1.443375672974064100 ) ;
#177 = PERSON_AND_ORGANIZATION_ROLE ( 'creator' ) ;
#178 = VERTEX_POINT ( 'NONE', #438 ) ;
#179 = AXIS2_PLACEMENT_3D ( 'NONE', #155, #217, #540 ) ;
#180 = ORIENTED_EDGE ( 'NONE', *, *, #291, .T. ) ;
#181 = CARTESIAN_POINT ( 'NONE',  ( 2.400571874415118400E-016, 1.443375672974064800, 3.389999999999999700 ) ) ;
#182 = DATE_AND_TIME ( #303, #428 ) ;
#183 = DIRECTION ( 'NONE',  ( 0.0000000000000000000, 0.0000000000000000000, 1.000000000000000000 ) ) ;
#184 = ORIENTED_EDGE ( 'NONE', *, *, #357, .F. ) ;
#185 = AXIS2_PLACEMENT_3D ( 'NONE', #558, #29, #345 ) ;
#186 = ORIENTED_EDGE ( 'NONE', *, *, #210, .F. ) ;
#187 = ORIENTED_EDGE ( 'NONE', *, *, #433, .F. ) ;
#188 = PERSON_AND_ORGANIZATION ( #80, #278 ) ;
#189 = DIRECTION ( 'NONE',  ( 0.8660254037844386000, -0.5000000000000001100, 0.0000000000000000000 ) ) ;
#190 = SHAPE_DEFINITION_REPRESENTATION ( #140, #437 ) ;
#191 = AXIS2_PLACEMENT_3D ( 'NONE', #615, #457, #129 ) ;
#192 = CARTESIAN_POINT ( 'NONE',  ( 0.0000000000000000000, 0.0000000000000000000, 3.389999999999999700 ) ) ;
#193 = FACE_OUTER_BOUND ( 'NONE', #55, .T. ) ;
#194 = CONICAL_SURFACE ( 'NONE', #135, 1.443375672974064100, 0.7853981633974500600 ) ;
#195 = ORIENTED_EDGE ( 'NONE', *, *, #654, .T. ) ;
#196 = CARTESIAN_POINT ( 'NONE',  ( -1.250000000000000000, -0.1270077427806512400, 4.806616329726064200 ) ) ;
#197 = DIRECTION ( 'NONE',  ( 1.000000000000000000, 0.0000000000000000000, 0.0000000000000000000 ) ) ;
#198 = CARTESIAN_POINT ( 'NONE',  ( -1.250000000000000200, -0.4921360860715049400, 4.895029951220975000 ) ) ;
#199 = CARTESIAN_POINT ( 'NONE',  ( 0.0000000000000000000, -1.400000000000003200, -5.000000000000000000 ) ) ;
#200 = AXIS2_PLACEMENT_3D ( 'NONE', #16, #618, #442 ) ;
#201 = EDGE_CURVE ( 'NONE', #361, #530, #299, .T. ) ;
#202 = ADVANCED_FACE ( 'NONE', ( #151 ), #508, .F. ) ;
#203 = DIRECTION ( 'NONE',  ( 0.0000000000000000000, -1.000000000000000000, 0.0000000000000000000 ) ) ;
#204 = LINE ( 'NONE', #634, #295 ) ;
#205 = EDGE_LOOP ( 'NONE', ( #385, #405, #332, #34, #684 ) ) ;
#206 = VERTEX_POINT ( 'NONE', #553 ) ;
#207 = ORIENTED_EDGE ( 'NONE', *, *, #401, .F. ) ;
#208 = CALENDAR_DATE ( 2025, 3, 6 ) ;
#209 = CARTESIAN_POINT ( 'NONE',  ( 1.249999999999999800, 0.7216878364870328300, 3.389999999999999700 ) ) ;
#210 = EDGE_CURVE ( 'NONE', #153, #481, #156, .T. ) ;
#211 = DIRECTION ( 'NONE',  ( 1.000000000000000000, 0.0000000000000000000, 0.0000000000000000000 ) ) ;
#212 = CYLINDRICAL_SURFACE ( 'NONE', #262, 4.000000000000000000 ) ;
#213 = VERTEX_POINT ( 'NONE', #444 ) ;
#214 = CARTESIAN_POINT ( 'NONE',  ( 0.8409413214249612500, 0.9578579746766836500, 4.806091094028859700 ) ) ;
#215 = DIRECTION ( 'NONE',  ( 1.000000000000000000, 0.0000000000000000000, 0.0000000000000000000 ) ) ;
#216 = CARTESIAN_POINT ( 'NONE',  ( 1.443375672974064100, 8.494974849304558300E-015, 5.000000000000000000 ) ) ;
#217 = DIRECTION ( 'NONE',  ( 0.4999999999999997200, -0.8660254037844388200, 0.0000000000000000000 ) ) ;
#218 = VECTOR ( 'NONE', #137, 1000.000000000000000 ) ;
#219 = DIRECTION ( 'NONE',  ( -0.0000000000000000000, 1.224646799147353200E-016, -1.000000000000000000 ) ) ;
#220 = ORIENTED_EDGE ( 'NONE', *, *, #277, .F. ) ;
#221 = VERTEX_POINT ( 'NONE', #344 ) ;
#222 = DIRECTION ( 'NONE',  ( 0.7071067811865487900, 0.0000000000000000000, 0.7071067811865463500 ) ) ;
#223 = CC_DESIGN_APPROVAL ( #91, ( #542 ) ) ;
#224 = DIRECTION ( 'NONE',  ( -0.0000000000000000000, 1.224646799147353200E-016, -1.000000000000000000 ) ) ;
#225 = EDGE_CURVE ( 'NONE', #387, #178, #510, .T. ) ;
#226 = DIRECTION ( 'NONE',  ( 0.0000000000000000000, -0.7071067811865461300, 0.7071067811865489100 ) ) ;
#227 = DIRECTION ( 'NONE',  ( -0.8660254037844387100, -0.4999999999999997800, 0.0000000000000000000 ) ) ;
#228 = DIRECTION ( 'NONE',  ( 1.000000000000000000, 0.0000000000000000000, 0.0000000000000000000 ) ) ;
#229 = CARTESIAN_POINT ( 'NONE',  ( 0.0000000000000000000, 4.000000000000000000, -4.999999999999999100 ) ) ;
#230 = AXIS2_PLACEMENT_3D ( 'NONE', #562, #124, #228 ) ;
#231 = FACE_OUTER_BOUND ( 'NONE', #473, .T. ) ;
#232 = CARTESIAN_POINT ( 'NONE',  ( 1.443375672974064100, 8.494974849304558300E-015, 5.000000000000000000 ) ) ;
#233 = ORIENTED_EDGE ( 'NONE', *, *, #486, .T. ) ;
#234 =( NAMED_UNIT ( * ) SI_UNIT ( $, .STERADIAN. ) SOLID_ANGLE_UNIT ( ) );
#235 = CARTESIAN_POINT ( 'NONE',  ( -5.024435860983609000E-016, -1.443375672974064300, 3.389999999999999700 ) ) ;
#236 = CARTESIAN_POINT ( 'NONE',  ( -0.1964808569473745500, 1.329937397324889600, 4.886561724350098500 ) ) ;
#237 = APPROVAL_ROLE ( '' ) ;
#238 = CARTESIAN_POINT ( 'NONE',  ( 0.0000000000000000000, -2.341413917812024600E-016, -4.400000000000000400 ) ) ;
#239 = CARTESIAN_POINT ( 'NONE',  ( 4.898587196589412800E-016, -4.000000000000000000, -5.000000000000000900 ) ) ;
#240 = CC_DESIGN_PERSON_AND_ORGANIZATION_ASSIGNMENT ( #188, #505, ( #542 ) ) ;
#241 = CONICAL_SURFACE ( 'NONE', #477, 1.443375672974064100, 0.7853981633974500600 ) ;
#242 = ORIENTED_EDGE ( 'NONE', *, *, #133, .F. ) ;
#243 = ORIENTED_EDGE ( 'NONE', *, *, #251, .F. ) ;
#244 = VERTEX_POINT ( 'NONE', #556 ) ;
#245 = CARTESIAN_POINT ( 'NONE',  ( 1.249999999999999600, -0.7216878364870326100, 3.389999999999999700 ) ) ;
#246 = FACE_OUTER_BOUND ( 'NONE', #661, .T. ) ;
#247 = EDGE_CURVE ( 'NONE', #108, #475, #555, .T. ) ;
#248 = ORIENTED_EDGE ( 'NONE', *, *, #314, .F. ) ;
#249 = ORIENTED_EDGE ( 'NONE', *, *, #42, .F. ) ;
#250 = ADVANCED_FACE ( 'NONE', ( #393 ), #682, .F. ) ;
#251 = EDGE_CURVE ( 'NONE', #40, #178, #59, .T. ) ;
#252 = ADVANCED_FACE ( 'NONE', ( #537 ), #472, .F. ) ;
#253 = CARTESIAN_POINT ( 'NONE',  ( 1.249999999999999100, 0.2506952791092978400, 4.826234477703123600 ) ) ;
#254 = LINE ( 'NONE', #451, #635 ) ;
#255 = ADVANCED_FACE ( 'NONE', ( #138 ), #327, .T. ) ;
#256 = ORIENTED_EDGE ( 'NONE', *, *, #429, .F. ) ;
#257 = EDGE_LOOP ( 'NONE', ( #256, #301, #601, #75 ) ) ;
#258 = DIRECTION ( 'NONE',  ( -0.8660254037844387100, 0.4999999999999999400, 0.0000000000000000000 ) ) ;
#259 = DATE_AND_TIME ( #408, #420 ) ;
#260 = CARTESIAN_POINT ( 'NONE',  ( 0.0000000000000000000, -1.385309382979714700E-015, 5.000000000000001800 ) ) ;
#261 = DIRECTION ( 'NONE',  ( 0.0000000000000000000, 1.000000000000000000, 0.0000000000000000000 ) ) ;
#262 = AXIS2_PLACEMENT_3D ( 'NONE', #120, #498, #663 ) ;
#263 = CARTESIAN_POINT ( 'NONE',  ( -1.250000000000000200, 0.4925957471270053200, 4.895174100161998600 ) ) ;
#264 = CIRCLE ( 'NONE', #583, 1.443375672974064100 ) ;
#265 = PLANE ( 'NONE',  #627 ) ;
#266 = ORIENTED_EDGE ( 'NONE', *, *, #515, .F. ) ;
#267 = CC_DESIGN_PERSON_AND_ORGANIZATION_ASSIGNMENT ( #97, #177, ( #446 ) ) ;
#268 = DIRECTION ( 'NONE',  ( 0.0000000000000000000, 1.000000000000000000, 2.168404344971008400E-016 ) ) ;
#269 = CARTESIAN_POINT ( 'NONE',  ( 0.09766419351501565100, 1.386989224557982900, 4.943613551583910100 ) ) ;
#270 = CARTESIAN_POINT ( 'NONE',  ( 0.0000000000000000000, 3.999999999999997300, 5.000000000000002700 ) ) ;
#271 = CARTESIAN_POINT ( 'NONE',  ( 0.0000000000000000000, -1.606625838323612800E-016, -5.000000000000000000 ) ) ;
#272 = VECTOR ( 'NONE', #383, 1000.000000000000100 ) ;
#273 = ORIENTED_EDGE ( 'NONE', *, *, #314, .T. ) ;
#274 = CARTESIAN_POINT ( 'NONE',  ( 0.5135752358548892900, 1.146862872304119000, 4.806895185592689600 ) ) ;
#275 = ORIENTED_EDGE ( 'NONE', *, *, #397, .T. ) ;
#276 = APPROVAL ( #566, 'UNSPECIFIED' ) ;
#277 = EDGE_CURVE ( 'NONE', #178, #387, #176, .T. ) ;
#278 = ORGANIZATION ( 'UNSPECIFIED', 'UNSPECIFIED', '' ) ;
#279 = CARTESIAN_POINT ( 'NONE',  ( -0.09766419351502649000, -1.386989224557976000, 4.943613551583922600 ) ) ;
#280 = DIRECTION ( 'NONE',  ( -0.0000000000000000000, -0.0000000000000000000, 1.000000000000000000 ) ) ;
#281 = DIRECTION ( 'NONE',  ( -0.0000000000000000000, -0.0000000000000000000, 1.000000000000000000 ) ) ;
#282 = CIRCLE ( 'NONE', #9, 1.443375672974064100 ) ;
#283 = DIRECTION ( 'NONE',  ( 0.0000000000000000000, -1.224646799147353000E-016, 1.000000000000000000 ) ) ;
#284 = VERTEX_POINT ( 'NONE', #232 ) ;
#285 = VERTEX_POINT ( 'NONE', #617 ) ;
#286 = CARTESIAN_POINT ( 'NONE',  ( 1.249999999999999600, -0.2509462730488943300, 4.826312804080426000 ) ) ;
#287 = APPLICATION_PROTOCOL_DEFINITION ( 'international standard', 'config_control_design', 1994, #656 ) ;
#288 = CARTESIAN_POINT ( 'NONE',  ( 0.0000000000000000000, -1.348569979005293100E-015, 4.699999999999993100 ) ) ;
#289 = DIRECTION ( 'NONE',  ( -0.0000000000000000000, -0.0000000000000000000, 1.000000000000000000 ) ) ;
#290 = AXIS2_PLACEMENT_3D ( 'NONE', #599, #323, #211 ) ;
#291 = EDGE_CURVE ( 'NONE', #213, #116, #113, .T. ) ;
#292 = FACE_BOUND ( 'NONE', #574, .T. ) ;
#293 = DIRECTION ( 'NONE',  ( 1.000000000000000000, 0.0000000000000000000, 0.0000000000000000000 ) ) ;
#294 = LINE ( 'NONE', #216, #650 ) ;
#295 = VECTOR ( 'NONE', #98, 1000.000000000000000 ) ;
#296 = ORIENTED_EDGE ( 'NONE', *, *, #343, .T. ) ;
#297 = CARTESIAN_POINT ( 'NONE',  ( 0.0000000000000000000, 8.494974849304558300E-015, 5.000000000000000000 ) ) ;
#298 = EDGE_CURVE ( 'NONE', #321, #178, #282, .T. ) ;
#299 = CIRCLE ( 'NONE', #527, 1.443375672974064100 ) ;
#300 = ORIENTED_EDGE ( 'NONE', *, *, #210, .T. ) ;
#301 = ORIENTED_EDGE ( 'NONE', *, *, #632, .T. ) ;
#302 = AXIS2_PLACEMENT_3D ( 'NONE', #500, #392, #391 ) ;
#303 = CALENDAR_DATE ( 2025, 3, 6 ) ;
#304 = CARTESIAN_POINT ( 'NONE',  ( 1.052468259152681300, -0.8357328402387269600, 4.895670759229844300 ) ) ;
#305 = CARTESIAN_POINT ( 'NONE',  ( 1.249999999999999800, 0.7216878364870401600, 5.000000000000000000 ) ) ;
#306 = LINE ( 'NONE', #506, #125 ) ;
#307 = VERTEX_POINT ( 'NONE', #81 ) ;
#308 = CARTESIAN_POINT ( 'NONE',  ( -5.024435860983609000E-016, -1.443375672974064300, 3.389999999999999700 ) ) ;
#309 = ORIENTED_EDGE ( 'NONE', *, *, #68, .F. ) ;
#310 = COORDINATED_UNIVERSAL_TIME_OFFSET ( 6, 0, .BEHIND. ) ;
#311 = DIRECTION ( 'NONE',  ( 1.502314598737158500E-016, 1.000000000000000000, 0.0000000000000000000 ) ) ;
#312 = CARTESIAN_POINT ( 'NONE',  ( 0.0000000000000000000, -1.385309382979714500E-015, 5.000000000000000000 ) ) ;
#313 = CC_DESIGN_APPROVAL ( #276, ( #446 ) ) ;
#314 = EDGE_CURVE ( 'NONE', #481, #108, #365, .T. ) ;
#315 = AXIS2_PLACEMENT_3D ( 'NONE', #238, #35, #403 ) ;
#316 = DIRECTION ( 'NONE',  ( 0.0000000000000000000, 0.0000000000000000000, 1.000000000000000000 ) ) ;
#317 = ADVANCED_FACE ( 'NONE', ( #31 ), #356, .F. ) ;
#318 = CONICAL_SURFACE ( 'NONE', #375, 1.443375672974064100, 0.7853981633974500600 ) ;
#319 = DIRECTION ( 'NONE',  ( -0.0000000000000000000, 1.224646799147353200E-016, -1.000000000000000000 ) ) ;
#320 = VECTOR ( 'NONE', #203, 1000.000000000000000 ) ;
#321 = VERTEX_POINT ( 'NONE', #305 ) ;
#322 = DIRECTION ( 'NONE',  ( -0.0000000000000000000, 1.224646799147353200E-016, -1.000000000000000000 ) ) ;
#323 = DIRECTION ( 'NONE',  ( -0.0000000000000000000, -0.0000000000000000000, 1.000000000000000000 ) ) ;
#324 = EDGE_CURVE ( 'NONE', #49, #321, #673, .T. ) ;
#325 = DIRECTION ( 'NONE',  ( -0.0000000000000000000, -0.0000000000000000000, 1.000000000000000000 ) ) ;
#326 = DIRECTION ( 'NONE',  ( 0.0000000000000000000, -1.000000000000000000, -2.168404344971007400E-016 ) ) ;
#327 = CYLINDRICAL_SURFACE ( 'NONE', #561, 2.000000000000000400 ) ;
#328 = CARTESIAN_POINT ( 'NONE',  ( 1.387778780781445700E-014, 1.443375672974072500, 5.000000000000000000 ) ) ;
#329 = LINE ( 'NONE', #162, #352 ) ;
#330 = AXIS2_PLACEMENT_3D ( 'NONE', #440, #112, #492 ) ;
#331 = AXIS2_PLACEMENT_3D ( 'NONE', #431, #651, #61 ) ;
#332 = ORIENTED_EDGE ( 'NONE', *, *, #585, .F. ) ;
#333 = AXIS2_PLACEMENT_3D ( 'NONE', #672, #394, #170 ) ;
#334 = DIRECTION ( 'NONE',  ( -0.0000000000000000000, 1.224646799147353200E-016, -1.000000000000000000 ) ) ;
#335 = CARTESIAN_POINT ( 'NONE',  ( 0.0000000000000000000, -1.400000000000003500, -5.000000000000000000 ) ) ;
#336 = CARTESIAN_POINT ( 'NONE',  ( -0.4044126993943374400, -1.209887892115040200, 4.827169435921580200 ) ) ;
#337 = DESIGN_CONTEXT ( 'detailed design', #559, 'design' ) ;
#338 = CARTESIAN_POINT ( 'NONE',  ( 1.249999999999999600, -0.7216878364870326100, 3.389999999999999700 ) ) ;
#339 = ORIENTED_EDGE ( 'NONE', *, *, #172, .T. ) ;
#340 = CARTESIAN_POINT ( 'NONE',  ( 1.249999999999991800, -0.7216878364870374900, 5.000000000000000000 ) ) ;
#341 = ORIENTED_EDGE ( 'NONE', *, *, #478, .T. ) ;
#342 = AXIS2_PLACEMENT_3D ( 'NONE', #288, #224, #21 ) ;
#343 = EDGE_CURVE ( 'NONE', #49, #40, #445, .T. ) ;
#344 = CARTESIAN_POINT ( 'NONE',  ( -1.250000000000000200, -0.7216878364870225000, 5.000000000000000000 ) ) ;
#345 = DIRECTION ( 'NONE',  ( -0.0000000000000000000, 0.0000000000000000000, 1.000000000000000000 ) ) ;
#346 = DIRECTION ( 'NONE',  ( 1.000000000000000000, 0.0000000000000000000, 0.0000000000000000000 ) ) ;
#347 = CC_DESIGN_SECURITY_CLASSIFICATION ( #45, ( #446 ) ) ;
#348 = AXIS2_PLACEMENT_3D ( 'NONE', #664, #501, #452 ) ;
#349 = CIRCLE ( 'NONE', #681, 1.443375672974064100 ) ;
#350 = APPROVAL_ROLE ( '' ) ;
#351 = CARTESIAN_POINT ( 'NONE',  ( -5.024435860983609000E-016, -1.443375672974064300, 3.389999999999999700 ) ) ;
#352 = VECTOR ( 'NONE', #598, 1000.000000000000000 ) ;
#353 = ORIENTED_EDGE ( 'NONE', *, *, #298, .F. ) ;
#354 = CARTESIAN_POINT ( 'NONE',  ( -1.052468259152693000, 0.8357328402387207400, 4.895670759229839000 ) ) ;
#355 = PERSON_AND_ORGANIZATION_ROLE ( 'classification_officer' ) ;
#356 = PLANE ( 'NONE',  #479 ) ;
#357 = EDGE_CURVE ( 'NONE', #629, #285, #580, .T. ) ;
#358 = ORIENTED_EDGE ( 'NONE', *, *, #447, .F. ) ;
#359 = B_SPLINE_CURVE_WITH_KNOTS ( 'NONE', 3,
 ( #328, #269, #115, #70, #274, #214, #441, #494 ),
 .UNSPECIFIED., .F., .F.,
 ( 4, 2, 2, 4 ),
 ( 2.544378114083765000E-007, 0.0003729905366538326600, 0.0007457266354962570100, 0.001491198833181104800 ),
 .UNSPECIFIED. ) ;
#360 = ORIENTED_EDGE ( 'NONE', *, *, #571, .T. ) ;
#361 = VERTEX_POINT ( 'NONE', #485 ) ;
#362 = ADVANCED_FACE ( 'NONE', ( #292, #464 ), #590, .T. ) ;
#363 = EDGE_CURVE ( 'NONE', #221, #361, #349, .T. ) ;
#364 = CARTESIAN_POINT ( 'NONE',  ( 0.4090586785750326400, -1.207205534784416600, 4.806091094028873900 ) ) ;
#365 = LINE ( 'NONE', #239, #573 ) ;
#366 = EDGE_LOOP ( 'NONE', ( #620, #249, #675, #519 ) ) ;
#367 = CARTESIAN_POINT ( 'NONE',  ( 1.249999999999999800, 8.494974849132085000E-015, 4.806624327025936300 ) ) ;
#368 = DIRECTION ( 'NONE',  ( -0.0000000000000000000, -0.0000000000000000000, 1.000000000000000000 ) ) ;
#369 = CARTESIAN_POINT ( 'NONE',  ( -1.250000000000000200, 0.7216878364870326100, 3.389999999999999700 ) ) ;
#370 = ADVANCED_FACE ( 'NONE', ( #144 ), #411, .T. ) ;
#371 = CARTESIAN_POINT ( 'NONE',  ( -1.250000000000000000, -0.2508958893827456500, 4.826301622629936000 ) ) ;
#372 = VECTOR ( 'NONE', #552, 1000.000000000000000 ) ;
#373 = EDGE_LOOP ( 'NONE', ( #622, #152, #171, #77 ) ) ;
#374 = ORIENTED_EDGE ( 'NONE', *, *, #277, .T. ) ;
#375 = AXIS2_PLACEMENT_3D ( 'NONE', #128, #280, #575 ) ;
#376 = EDGE_CURVE ( 'NONE', #206, #381, #11, .T. ) ;
#377 = CARTESIAN_POINT ( 'NONE',  ( 2.400571874415118400E-016, 1.443375672974064800, 3.389999999999999700 ) ) ;
#378 = FACE_OUTER_BOUND ( 'NONE', #366, .T. ) ;
#379 = ORIENTED_EDGE ( 'NONE', *, *, #410, .T. ) ;
#380 = CARTESIAN_POINT ( 'NONE',  ( 0.0000000000000000000, 8.494974849304558300E-015, 5.000000000000000000 ) ) ;
#381 = VERTEX_POINT ( 'NONE', #199 ) ;
#382 = CARTESIAN_POINT ( 'NONE',  ( -1.053519143052618300, -0.8351261121362118000, 4.886561724350110000 ) ) ;
#383 = DIRECTION ( 'NONE',  ( 8.659560562354945200E-017, 0.7071067811865483500, 0.7071067811865465700 ) ) ;
#384 = DIRECTION ( 'NONE',  ( 0.0000000000000000000, 1.000000000000000000, 0.0000000000000000000 ) ) ;
#385 = ORIENTED_EDGE ( 'NONE', *, *, #554, .T. ) ;
#386 = AXIS2_PLACEMENT_3D ( 'NONE', #604, #647, #268 ) ;
#387 = VERTEX_POINT ( 'NONE', #531 ) ;
#388 = EDGE_LOOP ( 'NONE', ( #395, #339, #146 ) ) ;
#389 = DATE_AND_TIME ( #678, #535 ) ;
#390 = CARTESIAN_POINT ( 'NONE',  ( 1.249999999999999800, 8.494974849132085000E-015, 4.806624327025936300 ) ) ;
#391 = DIRECTION ( 'NONE',  ( 0.0000000000000000000, -1.000000000000000000, -2.168404344971007400E-016 ) ) ;
#392 = DIRECTION ( 'NONE',  ( 0.0000000000000000000, -1.224646799147353200E-016, 1.000000000000000000 ) ) ;
#393 = FACE_OUTER_BOUND ( 'NONE', #388, .T. ) ;
#394 = DIRECTION ( 'NONE',  ( 0.4999999999999999400, 0.8660254037844387100, 0.0000000000000000000 ) ) ;
#395 = ORIENTED_EDGE ( 'NONE', *, *, #149, .F. ) ;
#396 = ORIENTED_EDGE ( 'NONE', *, *, #521, .T. ) ;
#397 = EDGE_CURVE ( 'NONE', #307, #525, #107, .T. ) ;
#398 = DIRECTION ( 'NONE',  ( 1.000000000000000000, 0.0000000000000000000, 0.0000000000000000000 ) ) ;
#399 = DATE_TIME_ROLE ( 'classification_date' ) ;
#400 = CARTESIAN_POINT ( 'NONE',  ( 1.250000000000000000, 0.6100260475604525300, 4.944169105536707000 ) ) ;
#401 = EDGE_CURVE ( 'NONE', #481, #153, #488, .T. ) ;
#402 = AXIS2_PLACEMENT_3D ( 'NONE', #27, #183, #293 ) ;
#403 = DIRECTION ( 'NONE',  ( 0.0000000000000000000, 1.000000000000000000, 0.0000000000000000000 ) ) ;
#404 = LINE ( 'NONE', #351, #504 ) ;
#405 = ORIENTED_EDGE ( 'NONE', *, *, #172, .F. ) ;
#406 = EDGE_LOOP ( 'NONE', ( #296, #90, #275, #126, #233, #134 ) ) ;
#407 = DIRECTION ( 'NONE',  ( 0.0000000000000000000, 0.0000000000000000000, 1.000000000000000000 ) ) ;
#408 = CALENDAR_DATE ( 2025, 3, 6 ) ;
#409 = CC_DESIGN_DATE_AND_TIME_ASSIGNMENT ( #589, #174, ( #542 ) ) ;
#410 = EDGE_CURVE ( 'NONE', #206, #213, #131, .T. ) ;
#411 = CYLINDRICAL_SURFACE ( 'NONE', #53, 2.000000000000000400 ) ;
#412 = ORIENTED_EDGE ( 'NONE', *, *, #534, .F. ) ;
#413 = CARTESIAN_POINT ( 'NONE',  ( 1.249999999999991800, -0.7216878364870374900, 5.000000000000000000 ) ) ;
#414 = ADVANCED_FACE ( 'NONE', ( #193 ), #600, .F. ) ;
#415 = LINE ( 'NONE', #14, #272 ) ;
#416 = CARTESIAN_POINT ( 'NONE',  ( 0.0000000000000000000, -1.606625838323612000E-016, -5.000000000000000000 ) ) ;
#417 = ORIENTED_EDGE ( 'NONE', *, *, #515, .T. ) ;
#418 = EDGE_LOOP ( 'NONE', ( #186, #207 ) ) ;
#419 = CARTESIAN_POINT ( 'NONE',  ( -1.250000000000000000, 0.1271651115996639500, 4.806632329278797600 ) ) ;
#420 = LOCAL_TIME ( 7, 36, 54.00000000000000000, #87 ) ;
#421 = CARTESIAN_POINT ( 'NONE',  ( 1.714505518806298600E-016, 1.400000000000003000, -5.000000000000000000 ) ) ;
#422 = AXIS2_PLACEMENT_3D ( 'NONE', #63, #597, #326 ) ;
#423 = CARTESIAN_POINT ( 'NONE',  ( -1.250000000000000200, 0.2507457347055099800, 4.826245667642114200 ) ) ;
#424 = DIRECTION ( 'NONE',  ( -0.0000000000000000000, -0.0000000000000000000, 1.000000000000000000 ) ) ;
#425 = FACE_OUTER_BOUND ( 'NONE', #658, .T. ) ;
#426 = EDGE_LOOP ( 'NONE', ( #248, #683, #360, #538 ) ) ;
#427 = ORIENTED_EDGE ( 'NONE', *, *, #225, .T. ) ;
#428 = LOCAL_TIME ( 7, 36, 54.00000000000000000, #694 ) ;
#429 = EDGE_CURVE ( 'NONE', #285, #629, #648, .T. ) ;
#430 = CARTESIAN_POINT ( 'NONE',  ( 0.0000000000000000000, 2.000000000000000400, -5.000000000000000000 ) ) ;
#431 = CARTESIAN_POINT ( 'NONE',  ( 0.0000000000000000000, -2.341413917812024600E-016, -4.400000000000000400 ) ) ;
#432 = AXIS2_PLACEMENT_3D ( 'NONE', #614, #283, #665 ) ;
#433 = EDGE_CURVE ( 'NONE', #284, #321, #264, .T. ) ;
#434 = VECTOR ( 'NONE', #289, 1000.000000000000000 ) ;
#435 = ORIENTED_EDGE ( 'NONE', *, *, #357, .T. ) ;
#436 = CONICAL_SURFACE ( 'NONE', #432, 1.400000000000003200, 0.7853981633974460600 ) ;
#437 = ADVANCED_BREP_SHAPE_REPRESENTATION ( '91294A190_NO THREADS_Black-Oxide Alloy Steel Hex Drive Flat Head Screw', ( #462, #200 ), #461 ) ;
#438 = CARTESIAN_POINT ( 'NONE',  ( 1.387778780781445700E-014, 1.443375672974072500, 5.000000000000000000 ) ) ;
#439 = ORIENTED_EDGE ( 'NONE', *, *, #247, .T. ) ;
#440 = CARTESIAN_POINT ( 'NONE',  ( 0.0000000000000000000, -1.606625838323613000E-016, -5.000000000000000000 ) ) ;
#441 = CARTESIAN_POINT ( 'NONE',  ( 1.053519143052613200, 0.8351261121362143500, 4.886561724350096700 ) ) ;
#442 = DIRECTION ( 'NONE',  ( 1.000000000000000000, 0.0000000000000000000, 0.0000000000000000000 ) ) ;
#443 = DIRECTION ( 'NONE',  ( 0.0000000000000000000, 1.000000000000000000, 1.224646799147353200E-016 ) ) ;
#444 = CARTESIAN_POINT ( 'NONE',  ( 0.0000000000000000000, 2.000000000000000000, -4.400000000000000400 ) ) ;
#445 = LINE ( 'NONE', #529, #95 ) ;
#446 = PRODUCT_DEFINITION_FORMATION_WITH_SPECIFIED_SOURCE ( 'ANY', '', #662, .NOT_KNOWN. ) ;
#447 = EDGE_CURVE ( 'NONE', #387, #221, #82, .T. ) ;
#448 = ORIENTED_EDGE ( 'NONE', *, *, #363, .T. ) ;
#449 = ORIENTED_EDGE ( 'NONE', *, *, #571, .F. ) ;
#450 = CARTESIAN_POINT ( 'NONE',  ( -0.4090586785750314200, 1.207205534784417700, 4.806091094028858800 ) ) ;
#451 = CARTESIAN_POINT ( 'NONE',  ( -1.250000000000000200, 0.7216878364870326100, 3.389999999999999700 ) ) ;
#452 = DIRECTION ( 'NONE',  ( 0.0000000000000000000, 1.000000000000000000, 2.168404344971009400E-016 ) ) ;
#453 = PRODUCT_RELATED_PRODUCT_CATEGORY ( 'detail', '', ( #662 ) ) ;
#454 = CARTESIAN_POINT ( 'NONE',  ( 1.249999999999999800, -0.6098828644147116200, 4.944097513963843200 ) ) ;
#455 = APPROVAL_STATUS ( 'not_yet_approved' ) ;
#456 = CYLINDRICAL_SURFACE ( 'NONE', #330, 4.000000000000000000 ) ;
#457 = DIRECTION ( 'NONE',  ( -0.0000000000000000000, 1.224646799147353200E-016, -1.000000000000000000 ) ) ;
#458 = VECTOR ( 'NONE', #368, 1000.000000000000000 ) ;
#459 = ORIENTED_EDGE ( 'NONE', *, *, #596, .F. ) ;
#460 = APPROVAL_DATE_TIME ( #161, #91 ) ;
#461 =( GEOMETRIC_REPRESENTATION_CONTEXT ( 3 ) GLOBAL_UNCERTAINTY_ASSIGNED_CONTEXT ( ( #69 ) ) GLOBAL_UNIT_ASSIGNED_CONTEXT ( ( #71, #669, #234 ) ) REPRESENTATION_CONTEXT ( 'NONE', 'WORKASPACE' ) );
#462 = MANIFOLD_SOLID_BREP ( 'Cut-Extrude2', #483 ) ;
#463 = FACE_OUTER_BOUND ( 'NONE', #205, .T. ) ;
#464 = FACE_OUTER_BOUND ( 'NONE', #418, .T. ) ;
#465 = ORIENTED_EDGE ( 'NONE', *, *, #376, .F. ) ;
#466 = ORIENTED_EDGE ( 'NONE', *, *, #585, .T. ) ;
#467 = DIRECTION ( 'NONE',  ( -0.0000000000000000000, 1.224646799147353200E-016, -1.000000000000000000 ) ) ;
#468 = ADVANCED_FACE ( 'NONE', ( #246 ), #544, .F. ) ;
#469 = CARTESIAN_POINT ( 'NONE',  ( 1.152335806484980000, -0.7780742849031170300, 4.943613551583921700 ) ) ;
#470 = ADVANCED_FACE ( 'NONE', ( #565 ), #456, .T. ) ;
#471 = DIRECTION ( 'NONE',  ( 0.0000000000000000000, 0.0000000000000000000, 1.000000000000000000 ) ) ;
#472 = CONICAL_SURFACE ( 'NONE', #165, 1.443375672974064100, 0.7853981633974500600 ) ;
#473 = EDGE_LOOP ( 'NONE', ( #568, #341, #60, #242 ) ) ;
#474 = CARTESIAN_POINT ( 'NONE',  ( 0.0000000000000000000, 8.494974849304558300E-015, 5.000000000000000000 ) ) ;
#475 = VERTEX_POINT ( 'NONE', #67 ) ;
#476 = ADVANCED_FACE ( 'NONE', ( #47 ), #609, .T. ) ;
#477 = AXIS2_PLACEMENT_3D ( 'NONE', #474, #93, #44 ) ;
#478 = EDGE_CURVE ( 'NONE', #629, #475, #415, .T. ) ;
#479 = AXIS2_PLACEMENT_3D ( 'NONE', #569, #625, #189 ) ;
#480 = ADVANCED_FACE ( 'NONE', ( #169 ), #524, .T. ) ;
#481 = VERTEX_POINT ( 'NONE', #123 ) ;
#482 = VERTEX_POINT ( 'NONE', #338 ) ;
#483 = CLOSED_SHELL ( 'NONE', ( #94, #536, #522, #476, #255, #370, #142, #572, #470, #480, #362, #202, #638, #50, #317, #577, #41, #633, #252, #414, #250, #587, #468, #687 ) ) ;
#484 = APPROVAL_PERSON_ORGANIZATION ( #105, #679, #237 ) ;
#485 = CARTESIAN_POINT ( 'NONE',  ( -1.561251128379126400E-014, -1.443375672974055700, 5.000000000000000000 ) ) ;
#486 = EDGE_CURVE ( 'NONE', #557, #482, #404, .T. ) ;
#487 = CARTESIAN_POINT ( 'NONE',  ( 0.0000000000000000000, 8.494974849304558300E-015, 5.000000000000000000 ) ) ;
#488 = CIRCLE ( 'NONE', #652, 3.999999999999999100 ) ;
#489 = CARTESIAN_POINT ( 'NONE',  ( 0.0000000000000000000, -1.606625838323612000E-016, -5.000000000000000000 ) ) ;
#490 = DIRECTION ( 'NONE',  ( 0.0000000000000000000, 0.0000000000000000000, 1.000000000000000000 ) ) ;
#491 = CARTESIAN_POINT ( 'NONE',  ( 2.449293598294706900E-016, -2.000000000000000900, -4.400000000000000400 ) ) ;
#492 = DIRECTION ( 'NONE',  ( 0.0000000000000000000, 1.000000000000000000, 2.168404344971008900E-016 ) ) ;
#493 = DIRECTION ( 'NONE',  ( -0.0000000000000000000, -0.0000000000000000000, 1.000000000000000000 ) ) ;
#494 = CARTESIAN_POINT ( 'NONE',  ( 1.249999999999999800, 0.7216878364870401600, 5.000000000000000000 ) ) ;
#495 = EDGE_LOOP ( 'NONE', ( #695, #435, #56, #439 ) ) ;
#496 = DIRECTION ( 'NONE',  ( 1.000000000000000000, 0.0000000000000000000, 0.0000000000000000000 ) ) ;
#497 = ORIENTED_EDGE ( 'NONE', *, *, #690, .F. ) ;
#498 = DIRECTION ( 'NONE',  ( -0.0000000000000000000, 1.224646799147353200E-016, -1.000000000000000000 ) ) ;
#499 = CARTESIAN_POINT ( 'NONE',  ( -0.8455873006056741100, 0.9551756173460496100, 4.827169435921567800 ) ) ;
#500 = CARTESIAN_POINT ( 'NONE',  ( 0.0000000000000000000, -1.103640619175823200E-015, 2.700000000000000200 ) ) ;
#501 = DIRECTION ( 'NONE',  ( -0.0000000000000000000, 1.224646799147353200E-016, -1.000000000000000000 ) ) ;
#502 = B_SPLINE_CURVE_WITH_KNOTS ( 'NONE', 3,
 ( #390, #88, #286, #83, #454, #340 ),
 .UNSPECIFIED., .F., .F.,
 ( 4, 2, 4 ),
 ( 0.001531267935586292000, 0.001905003612995593300, 0.002278739290404894300 ),
 .UNSPECIFIED. ) ;
#503 = DIRECTION ( 'NONE',  ( -0.0000000000000000000, 1.224646799147353200E-016, -1.000000000000000000 ) ) ;
#504 = VECTOR ( 'NONE', #560, 1000.000000000000100 ) ;
#505 = PERSON_AND_ORGANIZATION_ROLE ( 'creator' ) ;
#506 = CARTESIAN_POINT ( 'NONE',  ( 2.400571874415118400E-016, 1.443375672974064800, 3.389999999999999700 ) ) ;
#507 = LINE ( 'NONE', #659, #636 ) ;
#508 = PLANE ( 'NONE',  #333 ) ;
#509 = PERSON_AND_ORGANIZATION ( #80, #278 ) ;
#510 = B_SPLINE_CURVE_WITH_KNOTS ( 'NONE', 3,
 ( #79, #122, #354, #499, #613, #450, #236, #23 ),
 .UNSPECIFIED., .F., .F.,
 ( 4, 2, 2, 4 ),
 ( 2.544378113951788700E-007, 0.0003729905366538276200, 0.0007457266354962603700, 0.001491198833181125400 ),
 .UNSPECIFIED. ) ;
#511 = APPROVAL_STATUS ( 'not_yet_approved' ) ;
#512 = APPROVAL_DATE_TIME ( #182, #679 ) ;
#513 = DIRECTION ( 'NONE',  ( 0.0000000000000000000, 0.0000000000000000000, 1.000000000000000000 ) ) ;
#514 = AXIS2_PLACEMENT_3D ( 'NONE', #245, #688, #311 ) ;
#515 = EDGE_CURVE ( 'NONE', #525, #221, #37, .T. ) ;
#516 = CARTESIAN_POINT ( 'NONE',  ( -1.250000000000006200, 0.7216878364870288300, 5.000000000000000000 ) ) ;
#517 = DIRECTION ( 'NONE',  ( 1.000000000000000000, 0.0000000000000000000, 0.0000000000000000000 ) ) ;
#518 = LINE ( 'NONE', #308, #458 ) ;
#519 = ORIENTED_EDGE ( 'NONE', *, *, #291, .F. ) ;
#520 = ORIENTED_EDGE ( 'NONE', *, *, #376, .T. ) ;
#521 = EDGE_CURVE ( 'NONE', #307, #387, #254, .T. ) ;
#522 = ADVANCED_FACE ( 'NONE', ( #425 ), #212, .T. ) ;
#523 = CARTESIAN_POINT ( 'NONE',  ( 0.7364247641451049400, -1.018200637156981200, 4.806895185592701100 ) ) ;
#524 = CONICAL_SURFACE ( 'NONE', #422, 2.000000000000001300, 0.7853981633974497200 ) ;
#525 = VERTEX_POINT ( 'NONE', #667 ) ;
#526 = CARTESIAN_POINT ( 'NONE',  ( 2.449293598294706900E-016, -2.000000000000000400, -5.000000000000000000 ) ) ;
#527 = AXIS2_PLACEMENT_3D ( 'NONE', #30, #513, #398 ) ;
#528 = EDGE_LOOP ( 'NONE', ( #603, #4 ) ) ;
#529 = CARTESIAN_POINT ( 'NONE',  ( 1.249999999999999800, 0.7216878364870328300, 3.389999999999999700 ) ) ;
#530 = VERTEX_POINT ( 'NONE', #611 ) ;
#531 = CARTESIAN_POINT ( 'NONE',  ( -1.250000000000006200, 0.7216878364870288300, 5.000000000000000000 ) ) ;
#532 = CC_DESIGN_PERSON_AND_ORGANIZATION_ASSIGNMENT ( #509, #28, ( #446 ) ) ;
#533 = ORIENTED_EDGE ( 'NONE', *, *, #68, .T. ) ;
#534 = EDGE_CURVE ( 'NONE', #475, #108, #666, .T. ) ;
#535 = LOCAL_TIME ( 7, 36, 54.00000000000000000, #631 ) ;
#536 = ADVANCED_FACE ( 'NONE', ( #231 ), #159, .T. ) ;
#537 = FACE_OUTER_BOUND ( 'NONE', #104, .T. ) ;
#538 = ORIENTED_EDGE ( 'NONE', *, *, #247, .F. ) ;
#539 = EDGE_LOOP ( 'NONE', ( #586, #184, #195, #180 ) ) ;
#540 = DIRECTION ( 'NONE',  ( 0.8660254037844388200, 0.4999999999999997200, 0.0000000000000000000 ) ) ;
#541 = CARTESIAN_POINT ( 'NONE',  ( 4.898587196589411800E-016, -4.000000000000000900, 4.699999999999992200 ) ) ;
#542 = PRODUCT_DEFINITION ( 'UNKNOWN', '', #446, #337 ) ;
#543 = EDGE_CURVE ( 'NONE', #40, #307, #306, .T. ) ;
#544 = CONICAL_SURFACE ( 'NONE', #290, 1.443375672974064100, 0.7853981633974500600 ) ;
#545 = APPROVAL_ROLE ( '' ) ;
#546 = CIRCLE ( 'NONE', #671, 1.443375672974064100 ) ;
#547 = ORIENTED_EDGE ( 'NONE', *, *, #643, .F. ) ;
#548 = ORIENTED_EDGE ( 'NONE', *, *, #543, .F. ) ;
#549 = PERSON_AND_ORGANIZATION ( #80, #278 ) ;
#550 = CARTESIAN_POINT ( 'NONE',  ( -0.1975317408473240000, -1.329330669222366500, 4.895670759229846100 ) ) ;
#551 = CARTESIAN_POINT ( 'NONE',  ( 1.250000000000000000, 0.4925713333550627600, 4.895163952953399000 ) ) ;
#552 = DIRECTION ( 'NONE',  ( -0.0000000000000000000, -0.0000000000000000000, 1.000000000000000000 ) ) ;
#553 = CARTESIAN_POINT ( 'NONE',  ( 2.081899558550502500E-016, 1.400000000000002800, -5.000000000000000000 ) ) ;
#554 = EDGE_CURVE ( 'NONE', #482, #530, #657, .T. ) ;
#555 = CIRCLE ( 'NONE', #191, 3.999999999999999100 ) ;
#556 = CARTESIAN_POINT ( 'NONE',  ( 1.249999999999999800, 8.494974849132085000E-015, 4.806624327025936300 ) ) ;
#557 = VERTEX_POINT ( 'NONE', #235 ) ;
#558 = CARTESIAN_POINT ( 'NONE',  ( -1.250000000000000200, 0.7216878364870326100, 3.389999999999999700 ) ) ;
#559 = APPLICATION_CONTEXT ( 'configuration controlled 3d designs of mechanical parts and assemblies' ) ;
#560 = DIRECTION ( 'NONE',  ( 0.8660254037844388200, 0.4999999999999997200, 0.0000000000000000000 ) ) ;
#561 = AXIS2_PLACEMENT_3D ( 'NONE', #26, #503, #173 ) ;
#562 = CARTESIAN_POINT ( 'NONE',  ( 0.0000000000000000000, 8.494974849304558300E-015, 5.000000000000000000 ) ) ;
#563 = B_SPLINE_CURVE_WITH_KNOTS ( 'NONE', 3,
 ( #25, #400, #551, #253, #145, #367 ),
 .UNSPECIFIED., .F., .F.,
 ( 4, 2, 4 ),
 ( 0.0007836423023445210300, 0.001157455118965406500, 0.001531267935586292000 ),
 .UNSPECIFIED. ) ;
#564 = CARTESIAN_POINT ( 'NONE',  ( 0.0000000000000000000, 8.494974849304558300E-015, 5.000000000000000000 ) ) ;
#565 = FACE_OUTER_BOUND ( 'NONE', #426, .T. ) ;
#566 = APPROVAL_STATUS ( 'not_yet_approved' ) ;
#567 = FACE_OUTER_BOUND ( 'NONE', #139, .T. ) ;
#568 = ORIENTED_EDGE ( 'NONE', *, *, #429, .T. ) ;
#569 = CARTESIAN_POINT ( 'NONE',  ( -1.250000000000000200, -0.7216878364870320500, 3.389999999999999700 ) ) ;
#570 = APPROVAL_PERSON_ORGANIZATION ( #645, #276, #350 ) ;
#571 = EDGE_CURVE ( 'NONE', #153, #475, #593, .T. ) ;
#572 = ADVANCED_FACE ( 'NONE', ( #378 ), #436, .T. ) ;
#573 = VECTOR ( 'NONE', #674, 1000.000000000000000 ) ;
#574 = EDGE_LOOP ( 'NONE', ( #353, #187, #660, #160, #612, #358, #220 ) ) ;
#575 = DIRECTION ( 'NONE',  ( 1.000000000000000000, 0.0000000000000000000, 0.0000000000000000000 ) ) ;
#576 = ORIENTED_EDGE ( 'NONE', *, *, #447, .T. ) ;
#577 = ADVANCED_FACE ( 'NONE', ( #168 ), #166, .F. ) ;
#578 = CARTESIAN_POINT ( 'NONE',  ( 0.0000000000000000000, 2.000000000000000400, -5.000000000000000000 ) ) ;
#579 = DIRECTION ( 'NONE',  ( 1.000000000000000000, 0.0000000000000000000, -0.0000000000000000000 ) ) ;
#580 = CIRCLE ( 'NONE', #86, 2.000000000000000400 ) ;
#581 = CARTESIAN_POINT ( 'NONE',  ( 0.0000000000000000000, -1.103640619175823200E-015, 2.700000000000000200 ) ) ;
#582 = ORIENTED_EDGE ( 'NONE', *, *, #225, .F. ) ;
#583 = AXIS2_PLACEMENT_3D ( 'NONE', #8, #163, #154 ) ;
#584 = FACE_OUTER_BOUND ( 'NONE', #406, .T. ) ;
#585 = EDGE_CURVE ( 'NONE', #321, #244, #563, .T. ) ;
#586 = ORIENTED_EDGE ( 'NONE', *, *, #632, .F. ) ;
#587 = ADVANCED_FACE ( 'NONE', ( #73 ), #318, .F. ) ;
#588 = CARTESIAN_POINT ( 'NONE',  ( 0.0000000000000000000, 1.999999999999999100, 2.700000000000000600 ) ) ;
#589 = DATE_AND_TIME ( #208, #57 ) ;
#590 = PLANE ( 'NONE',  #20 ) ;
#591 = DIRECTION ( 'NONE',  ( 0.0000000000000000000, 1.000000000000000000, 2.168404344971008400E-016 ) ) ;
#592 = AXIS2_PLACEMENT_3D ( 'NONE', #489, #219, #384 ) ;
#593 = LINE ( 'NONE', #229, #101 ) ;
#594 = VECTOR ( 'NONE', #76, 1000.000000000000000 ) ;
#595 = ORIENTED_EDGE ( 'NONE', *, *, #251, .T. ) ;
#596 = EDGE_CURVE ( 'NONE', #557, #361, #518, .T. ) ;
#597 = DIRECTION ( 'NONE',  ( 0.0000000000000000000, -1.224646799147353200E-016, 1.000000000000000000 ) ) ;
#598 = DIRECTION ( 'NONE',  ( 1.502314598737158300E-016, 1.000000000000000000, 0.0000000000000000000 ) ) ;
#599 = CARTESIAN_POINT ( 'NONE',  ( 0.0000000000000000000, 8.494974849304558300E-015, 5.000000000000000000 ) ) ;
#600 = CONICAL_SURFACE ( 'NONE', #689, 1.443375672974064100, 0.7853981633974500600 ) ;
#601 = ORIENTED_EDGE ( 'NONE', *, *, #19, .T. ) ;
#602 = PLANE ( 'NONE',  #121 ) ;
#603 = ORIENTED_EDGE ( 'NONE', *, *, #680, .T. ) ;
#604 = CARTESIAN_POINT ( 'NONE',  ( 0.0000000000000000000, -1.103640619175823200E-015, 2.700000000000000200 ) ) ;
#605 = LOCAL_TIME ( 7, 36, 54.00000000000000000, #64 ) ;
#606 = CARTESIAN_POINT ( 'NONE',  ( -1.250000000000000200, -0.7216878364870225000, 5.000000000000000000 ) ) ;
#607 = CC_DESIGN_PERSON_AND_ORGANIZATION_ASSIGNMENT ( #118, #355, ( #45 ) ) ;
#608 = VECTOR ( 'NONE', #467, 1000.000000000000000 ) ;
#609 = CONICAL_SURFACE ( 'NONE', #624, 1.400000000000003200, 0.7853981633974460600 ) ;
#610 = B_SPLINE_CURVE_WITH_KNOTS ( 'NONE', 3,
 ( #46, #686, #198, #371, #196, #419, #423, #263, #653, #516 ),
 .UNSPECIFIED., .F., .F.,
 ( 4, 2, 2, 2, 4 ),
 ( 0.0008535407158033293300, 0.001227523431345145000, 0.001601506146886960900, 0.001975488862428776000, 0.002349471577970591600 ),
 .UNSPECIFIED. ) ;
#611 = CARTESIAN_POINT ( 'NONE',  ( 1.249999999999991800, -0.7216878364870374900, 5.000000000000000000 ) ) ;
#612 = ORIENTED_EDGE ( 'NONE', *, *, #363, .F. ) ;
#613 = CARTESIAN_POINT ( 'NONE',  ( -0.7364247641451112700, 1.018200637156978300, 4.806895185592688700 ) ) ;
#614 = CARTESIAN_POINT ( 'NONE',  ( 0.0000000000000000000, -1.606625838323612800E-016, -5.000000000000000000 ) ) ;
#615 = CARTESIAN_POINT ( 'NONE',  ( 0.0000000000000000000, -1.348569979005293100E-015, 4.699999999999993100 ) ) ;
#616 = DIRECTION ( 'NONE',  ( -0.0000000000000000000, -0.0000000000000000000, 1.000000000000000000 ) ) ;
#617 = CARTESIAN_POINT ( 'NONE',  ( 2.449293598294707400E-016, -2.000000000000001800, 2.699999999999999700 ) ) ;
#618 = DIRECTION ( 'NONE',  ( 0.0000000000000000000, 0.0000000000000000000, 1.000000000000000000 ) ) ;
#619 = CARTESIAN_POINT ( 'NONE',  ( 1.249999999999999600, -0.7216878364870326100, 3.389999999999999700 ) ) ;
#620 = ORIENTED_EDGE ( 'NONE', *, *, #410, .F. ) ;
#621 = PERSON_AND_ORGANIZATION_ROLE ( 'design_owner' ) ;
#622 = ORIENTED_EDGE ( 'NONE', *, *, #596, .T. ) ;
#623 = PERSON_AND_ORGANIZATION ( #80, #278 ) ;
#624 = AXIS2_PLACEMENT_3D ( 'NONE', #271, #6, #72 ) ;
#625 = DIRECTION ( 'NONE',  ( -0.5000000000000001100, -0.8660254037844386000, 0.0000000000000000000 ) ) ;
#626 = FACE_OUTER_BOUND ( 'NONE', #103, .T. ) ;
#627 = AXIS2_PLACEMENT_3D ( 'NONE', #646, #5, #110 ) ;
#628 = ORIENTED_EDGE ( 'NONE', *, *, #433, .T. ) ;
#629 = VERTEX_POINT ( 'NONE', #588 ) ;
#630 = EDGE_LOOP ( 'NONE', ( #466, #96, #628 ) ) ;
#631 = COORDINATED_UNIVERSAL_TIME_OFFSET ( 6, 0, .BEHIND. ) ;
#632 = EDGE_CURVE ( 'NONE', #285, #116, #13, .T. ) ;
#633 = ADVANCED_FACE ( 'NONE', ( #584 ), #637, .T. ) ;
#634 = CARTESIAN_POINT ( 'NONE',  ( -1.250000000000000200, -0.7216878364870320500, 3.389999999999999700 ) ) ;
#635 = VECTOR ( 'NONE', #616, 1000.000000000000000 ) ;
#636 = VECTOR ( 'NONE', #157, 1000.000000000000000 ) ;
#637 = PLANE ( 'NONE',  #143 ) ;
#638 = ADVANCED_FACE ( 'NONE', ( #463 ), #43, .F. ) ;
#639 = CARTESIAN_POINT ( 'NONE',  ( 0.8455873006056660000, -0.9551756173460535000, 4.827169435921579300 ) ) ;
#640 = DIRECTION ( 'NONE',  ( 0.0000000000000000000, -1.000000000000000000, -1.224646799147353200E-016 ) ) ;
#641 = ORIENTED_EDGE ( 'NONE', *, *, #521, .F. ) ;
#642 = CC_DESIGN_DATE_AND_TIME_ASSIGNMENT ( #389, #399, ( #45 ) ) ;
#643 = EDGE_CURVE ( 'NONE', #525, #557, #204, .T. ) ;
#644 = EDGE_LOOP ( 'NONE', ( #24, #520 ) ) ;
#645 = PERSON_AND_ORGANIZATION ( #80, #278 ) ;
#646 = CARTESIAN_POINT ( 'NONE',  ( 2.400571874415118400E-016, 1.443375672974064800, 3.389999999999999700 ) ) ;
#647 = DIRECTION ( 'NONE',  ( 0.0000000000000000000, -1.224646799147353200E-016, 1.000000000000000000 ) ) ;
#648 = CIRCLE ( 'NONE', #386, 2.000000000000000400 ) ;
#649 = CARTESIAN_POINT ( 'NONE',  ( -1.561251128379126400E-014, -1.443375672974055700, 5.000000000000000000 ) ) ;
#650 = VECTOR ( 'NONE', #222, 1000.000000000000000 ) ;
#651 = DIRECTION ( 'NONE',  ( 0.0000000000000000000, -1.224646799147353000E-016, 1.000000000000000000 ) ) ;
#652 = AXIS2_PLACEMENT_3D ( 'NONE', #260, #150, #106 ) ;
#653 = CARTESIAN_POINT ( 'NONE',  ( -1.250000000000000200, 0.6100375687041554900, 4.944174866108558500 ) ) ;
#654 = EDGE_CURVE ( 'NONE', #629, #213, #33, .T. ) ;
#655 = PLANE ( 'NONE',  #179 ) ;
#656 = APPLICATION_CONTEXT ( 'configuration controlled 3d designs of mechanical parts and assemblies' ) ;
#657 = LINE ( 'NONE', #619, #372 ) ;
#658 = EDGE_LOOP ( 'NONE', ( #300, #273, #412, #449 ) ) ;
#659 = CARTESIAN_POINT ( 'NONE',  ( 0.0000000000000000000, -2.000000000000002700, 2.699999999999999700 ) ) ;
#660 = ORIENTED_EDGE ( 'NONE', *, *, #100, .F. ) ;
#661 = EDGE_LOOP ( 'NONE', ( #117, #576 ) ) ;
#662 = PRODUCT ( '91294A190_NO THREADS_Black-Oxide Alloy Steel Hex Drive Flat Head Screw', '91294A190_NO THREADS_Black-Oxide Alloy Steel Hex Drive Flat Head Screw', '', ( #127 ) ) ;
#663 = DIRECTION ( 'NONE',  ( 0.0000000000000000000, 1.000000000000000000, 2.168404344971008900E-016 ) ) ;
#664 = CARTESIAN_POINT ( 'NONE',  ( 0.0000000000000000000, -1.385309382979714700E-015, 5.000000000000001800 ) ) ;
#665 = DIRECTION ( 'NONE',  ( 0.0000000000000000000, -1.000000000000000000, 0.0000000000000000000 ) ) ;
#666 = CIRCLE ( 'NONE', #342, 3.999999999999999100 ) ;
#667 = CARTESIAN_POINT ( 'NONE',  ( -1.250000000000000200, -0.7216878364870320500, 3.389999999999999700 ) ) ;
#668 = CIRCLE ( 'NONE', #592, 1.400000000000003000 ) ;
#669 =( NAMED_UNIT ( * ) PLANE_ANGLE_UNIT ( ) SI_UNIT ( $, .RADIAN. ) );
#670 = DIRECTION ( 'NONE',  ( -0.0000000000000000000, 1.224646799147353200E-016, -1.000000000000000000 ) ) ;
#671 = AXIS2_PLACEMENT_3D ( 'NONE', #17, #74, #496 ) ;
#672 = CARTESIAN_POINT ( 'NONE',  ( 1.249999999999999800, 0.7216878364870328300, 3.389999999999999700 ) ) ;
#673 = LINE ( 'NONE', #209, #691 ) ;
#674 = DIRECTION ( 'NONE',  ( -0.0000000000000000000, 1.224646799147353200E-016, -1.000000000000000000 ) ) ;
#675 = ORIENTED_EDGE ( 'NONE', *, *, #164, .T. ) ;
#676 = B_SPLINE_CURVE_WITH_KNOTS ( 'NONE', 3,
 ( #649, #279, #550, #336, #65, #10, #382, #606 ),
 .UNSPECIFIED., .F., .F.,
 ( 4, 2, 2, 4 ),
 ( 2.544378114221827600E-007, 0.0003729905366538436700, 0.0007457266354962651400, 0.001491198833181108700 ),
 .UNSPECIFIED. ) ;
#677 = ORIENTED_EDGE ( 'NONE', *, *, #164, .F. ) ;
#678 = CALENDAR_DATE ( 2025, 3, 6 ) ;
#679 = APPROVAL ( #455, 'UNSPECIFIED' ) ;
#680 = EDGE_CURVE ( 'NONE', #530, #361, #38, .T. ) ;
#681 = AXIS2_PLACEMENT_3D ( 'NONE', #2, #316, #197 ) ;
#682 = CONICAL_SURFACE ( 'NONE', #230, 1.443375672974064100, 0.7853981633974500600 ) ;
#683 = ORIENTED_EDGE ( 'NONE', *, *, #401, .T. ) ;
#684 = ORIENTED_EDGE ( 'NONE', *, *, #54, .F. ) ;
#685 = CARTESIAN_POINT ( 'NONE',  ( 0.1964808569473807100, -1.329937397324885600, 4.886561724350113600 ) ) ;
#686 = CARTESIAN_POINT ( 'NONE',  ( -1.250000000000000400, -0.6098713261164896400, 4.944091744814735500 ) ) ;
#687 = ADVANCED_FACE ( 'NONE', ( #626 ), #241, .F. ) ;
#688 = DIRECTION ( 'NONE',  ( 1.000000000000000000, -1.502314598737158500E-016, 0.0000000000000000000 ) ) ;
#689 = AXIS2_PLACEMENT_3D ( 'NONE', #1, #424, #52 ) ;
#690 = EDGE_CURVE ( 'NONE', #221, #387, #610, .T. ) ;
#691 = VECTOR ( 'NONE', #493, 1000.000000000000000 ) ;
#692 = FACE_OUTER_BOUND ( 'NONE', #630, .T. ) ;
#693 = CARTESIAN_POINT ( 'NONE',  ( -1.561251128379126400E-014, -1.443375672974055700, 5.000000000000000000 ) ) ;
#694 = COORDINATED_UNIVERSAL_TIME_OFFSET ( 6, 0, .BEHIND. ) ;
#695 = ORIENTED_EDGE ( 'NONE', *, *, #478, .F. ) ;
#696 = APPROVAL_PERSON_ORGANIZATION ( #623, #91, #545 ) ;
ENDSEC;
END-ISO-10303-21;
