ISO-10303-21;
HEADER;
FILE_DESCRIPTION (( 'STEP AP203' ),
    '1' );
FILE_NAME ('91290A340_NO THREADS_Alloy Steel Socket Head Screw.STEP',
    '2023-01-11T16:57:00',
    ( 'Administrator' ),
    ( 'Managed by Terraform' ),
    'SwSTEP 2.0',
    'SolidWorks 2017',
    '' );
FILE_SCHEMA (( 'CONFIG_CONTROL_DESIGN' ));
ENDSEC;

DATA;
#1 = AXIS2_PLACEMENT_3D ( 'NONE', #448, #517, #915 ) ;
#2 = ORIENTED_EDGE ( 'NONE', *, *, #828, .F. ) ;
#3 = ORIENTED_EDGE ( 'NONE', *, *, #849, .T. ) ;
#4 = CARTESIAN_POINT ( 'NONE',  ( 0.0000000000000000000, 2.350480947161673200, -28.00000000000000400 ) ) ;
#5 = FACE_OUTER_BOUND ( 'NONE', #77, .T. ) ;
#6 = FACE_BOUND ( 'NONE', #318, .T. ) ;
#7 = DIRECTION ( 'NONE',  ( -0.8660254037844386000, 0.5000000000000001100, -1.695637097457107000E-064 ) ) ;
#8 = LOCAL_TIME ( 10, 57, 0.0000000000000000000, #23 ) ;
#9 = DIRECTION ( 'NONE',  ( 0.0000000000000000000, 1.000000000000000000, 0.0000000000000000000 ) ) ;
#10 = ORIENTED_EDGE ( 'NONE', *, *, #491, .T. ) ;
#11 = CARTESIAN_POINT ( 'NONE',  ( 0.0000000000000000000, 5.000000000000000000, 27.70000000000000300 ) ) ;
#12 = EDGE_CURVE ( 'NONE', #574, #787, #283, .T. ) ;
#13 = CARTESIAN_POINT ( 'NONE',  ( 1.136274879960273300, -2.230722738129656600, 27.39701585421036300 ) ) ;
#14 = AXIS2_PLACEMENT_3D ( 'NONE', #641, #951, #561 ) ;
#15 = VERTEX_POINT ( 'NONE', #465 ) ;
#16 = CARTESIAN_POINT ( 'NONE',  ( 2.303518737899374400, -1.556814182538579700, 27.67005513948903700 ) ) ;
#17 = CIRCLE ( 'NONE', #520, 5.000000000000000000 ) ;
#18 = VERTEX_POINT ( 'NONE', #557 ) ;
#19 = ORIENTED_EDGE ( 'NONE', *, *, #616, .F. ) ;
#20 = APPROVAL_PERSON_ORGANIZATION ( #213, #666, #354 ) ;
#21 = LINE ( 'NONE', #759, #114 ) ;
#22 = CARTESIAN_POINT ( 'NONE',  ( 0.0000000000000000000, -1.051529201252231400E-062, -3.006905983278382900 ) ) ;
#23 = COORDINATED_UNIVERSAL_TIME_OFFSET ( 6, 0, .BEHIND. ) ;
#24 = DIRECTION ( 'NONE',  ( -0.0000000000000000000, -3.391274194914213300E-064, -1.000000000000000000 ) ) ;
#25 = CC_DESIGN_PERSON_AND_ORGANIZATION_ASSIGNMENT ( #79, #193, ( #976 ) ) ;
#26 = CARTESIAN_POINT ( 'NONE',  ( 0.7053885464011657700, -2.479495078800137500, 27.47208214815059400 ) ) ;
#27 = ORIENTED_EDGE ( 'NONE', *, *, #111, .F. ) ;
#28 = CARTESIAN_POINT ( 'NONE',  ( 6.123233995736766300E-016, -5.000000000000000000, -28.00000000000000400 ) ) ;
#29 = ORIENTED_EDGE ( 'NONE', *, *, #595, .F. ) ;
#30 = APPLICATION_PROTOCOL_DEFINITION ( 'international standard', 'config_control_design', 1994, #391 ) ;
#31 = DIRECTION ( 'NONE',  ( -0.0000000000000000000, -3.391274194914213300E-064, -1.000000000000000000 ) ) ;
#32 = FACE_OUTER_BOUND ( 'NONE', #556, .T. ) ;
#33 = DIRECTION ( 'NONE',  ( 0.0000000000000000000, 0.0000000000000000000, 1.000000000000000000 ) ) ;
#34 = DIRECTION ( 'NONE',  ( -0.0000000000000000000, -3.391274194914213300E-064, -1.000000000000000000 ) ) ;
#35 = CARTESIAN_POINT ( 'NONE',  ( 2.888027202922160000E-016, -2.358253175473056500, -3.006905983278382000 ) ) ;
#36 = LINE ( 'NONE', #949, #509 ) ;
#37 = EDGE_CURVE ( 'NONE', #381, #15, #51, .T. ) ;
#38 = CARTESIAN_POINT ( 'NONE',  ( 0.0000000000000000000, 0.0000000000000000000, -3.006905983278382000 ) ) ;
#39 = VERTEX_POINT ( 'NONE', #628 ) ;
#40 = CARTESIAN_POINT ( 'NONE',  ( 3.276224682920221000E-016, 2.350480947161673200, -28.00000000000000400 ) ) ;
#41 = CARTESIAN_POINT ( 'NONE',  ( 0.0000000000000000000, -2.034764516948529600E-063, 22.00000000000000000 ) ) ;
#42 = MECHANICAL_CONTEXT ( 'NONE', #880, 'mechanical' ) ;
#43 =( LENGTH_UNIT ( ) NAMED_UNIT ( * ) SI_UNIT ( .MILLI., .METRE. ) );
#44 = EDGE_LOOP ( 'NONE', ( #864, #243, #802, #982 ) ) ;
#45 = FACE_OUTER_BOUND ( 'NONE', #397, .T. ) ;
#46 = VERTEX_POINT ( 'NONE', #244 ) ;
#47 = ORIENTED_EDGE ( 'NONE', *, *, #662, .F. ) ;
#48 = EDGE_CURVE ( 'NONE', #163, #280, #927, .T. ) ;
#49 = DIRECTION ( 'NONE',  ( 0.0000000000000000000, -0.7071067811865409100, 0.7071067811865541200 ) ) ;
#50 = LOCAL_TIME ( 10, 57, 0.0000000000000000000, #233 ) ;
#51 = CIRCLE ( 'NONE', #554, 0.7499999999999997800 ) ;
#52 = EDGE_CURVE ( 'NONE', #120, #197, #533, .T. ) ;
#53 = AXIS2_PLACEMENT_3D ( 'NONE', #862, #258, #786 ) ;
#54 = ORIENTED_EDGE ( 'NONE', *, *, #235, .T. ) ;
#55 = AXIS2_PLACEMENT_3D ( 'NONE', #604, #844, #691 ) ;
#56 = CONICAL_SURFACE ( 'NONE', #146, 3.103257696894238900, 0.7853981633974500600 ) ;
#57 = CARTESIAN_POINT ( 'NONE',  ( 2.104933473583878300, 1.671467438348223100, 27.57483382634058700 ) ) ;
#58 = CONICAL_SURFACE ( 'NONE', #310, 5.000000000000000000, 0.7853981633974453900 ) ;
#59 = CALENDAR_DATE ( 2023, 11, 1 ) ;
#60 = DIRECTION ( 'NONE',  ( -0.0000000000000000000, -3.391274194914213300E-064, -1.000000000000000000 ) ) ;
#61 = SECURITY_CLASSIFICATION_LEVEL ( 'unclassified' ) ;
#62 = ORIENTED_EDGE ( 'NONE', *, *, #694, .T. ) ;
#63 = CARTESIAN_POINT ( 'NONE',  ( 0.0000000000000000000, -2.136502742795955500E-063, 21.70000000000000300 ) ) ;
#64 = DIRECTION ( 'NONE',  ( -0.0000000000000000000, -3.391274194914213300E-064, -1.000000000000000000 ) ) ;
#65 = FACE_OUTER_BOUND ( 'NONE', #960, .T. ) ;
#66 = ORIENTED_EDGE ( 'NONE', *, *, #914, .F. ) ;
#67 = DIRECTION ( 'NONE',  ( -0.0000000000000000000, -3.391274194914213300E-064, -1.000000000000000000 ) ) ;
#68 = AXIS2_PLACEMENT_3D ( 'NONE', #91, #634, #534 ) ;
#69 = ADVANCED_FACE ( 'NONE', ( #730 ), #750, .F. ) ;
#70 = CIRCLE ( 'NONE', #116, 3.014411039697575000 ) ;
#71 = DIRECTION ( 'NONE',  ( 1.000000000000000000, 0.0000000000000000000, 0.0000000000000000000 ) ) ;
#72 = LINE ( 'NONE', #565, #421 ) ;
#73 = ADVANCED_FACE ( 'NONE', ( #805 ), #282, .F. ) ;
#74 = B_SPLINE_CURVE_WITH_KNOTS ( 'NONE', 3,
 ( #816, #822, #57, #663, #577, #899, #345, #970, #275, #125, #499, #353 ),
 .UNSPECIFIED., .F., .F.,
 ( 4, 2, 2, 2, 2, 4 ),
 ( 2.544340436265468700E-007, 0.0007457281437449396400, 0.001118464998595596200, 0.001491201853446252600, 0.002236675563147565500, 0.002982149272848878800 ),
 .UNSPECIFIED. ) ;
#75 = CARTESIAN_POINT ( 'NONE',  ( 2.500000000000000400, -1.443375672974064800, 27.78349364905389500 ) ) ;
#76 = ORIENTED_EDGE ( 'NONE', *, *, #672, .F. ) ;
#77 = EDGE_LOOP ( 'NONE', ( #655, #359, #632, #807 ) ) ;
#78 = ADVANCED_FACE ( 'NONE', ( #89 ), #753, .F. ) ;
#79 = PERSON_AND_ORGANIZATION ( #600, #487 ) ;
#80 = PLANE ( 'NONE',  #836 ) ;
#81 = FACE_BOUND ( 'NONE', #522, .T. ) ;
#82 = DIRECTION ( 'NONE',  ( -0.0000000000000000000, -3.391274194914213300E-064, -1.000000000000000000 ) ) ;
#83 = VERTEX_POINT ( 'NONE', #974 ) ;
#84 = EDGE_CURVE ( 'NONE', #553, #810, #333, .T. ) ;
#85 = CARTESIAN_POINT ( 'NONE',  ( 0.0000000000000000000, -4.700000000000000200, 22.00000000000000000 ) ) ;
#86 = CARTESIAN_POINT ( 'NONE',  ( 9.805734498261621200E-016, -2.886751345948130000, 27.78349364905389500 ) ) ;
#87 = ORIENTED_EDGE ( 'NONE', *, *, #914, .T. ) ;
#88 = CARTESIAN_POINT ( 'NONE',  ( 0.0000000000000000000, -3.014411039697575000, -3.552550811005784800 ) ) ;
#89 = FACE_OUTER_BOUND ( 'NONE', #415, .T. ) ;
#90 = EDGE_CURVE ( 'NONE', #543, #39, #596, .T. ) ;
#91 = CARTESIAN_POINT ( 'NONE',  ( 0.0000000000000000000, -1.899113549151959700E-062, -28.00000000000000400 ) ) ;
#92 = EDGE_CURVE ( 'NONE', #394, #612, #512, .T. ) ;
#93 = DIRECTION ( 'NONE',  ( 0.0000000000000000000, 1.000000000000000000, -3.391274194914213300E-064 ) ) ;
#94 = CARTESIAN_POINT ( 'NONE',  ( 2.101213256461274400, -1.673615306705403800, 27.57278725590573700 ) ) ;
#95 = AXIS2_PLACEMENT_3D ( 'NONE', #782, #31, #107 ) ;
#96 = ORIENTED_EDGE ( 'NONE', *, *, #823, .F. ) ;
#97 = ORIENTED_EDGE ( 'NONE', *, *, #184, .F. ) ;
#98 = CARTESIAN_POINT ( 'NONE',  ( 0.0000000000000000000, 3.108253175473054700, -28.00000000000000400 ) ) ;
#99 = FACE_OUTER_BOUND ( 'NONE', #895, .T. ) ;
#100 = ORIENTED_EDGE ( 'NONE', *, *, #135, .T. ) ;
#101 = CARTESIAN_POINT ( 'NONE',  ( 4.592425496802573000E-016, -3.749999999999999100, -3.698868552517875500 ) ) ;
#102 = FACE_OUTER_BOUND ( 'NONE', #206, .T. ) ;
#103 = APPROVAL_STATUS ( 'not_yet_approved' ) ;
#104 = DIRECTION ( 'NONE',  ( 0.0000000000000000000, 1.000000000000000000, 0.0000000000000000000 ) ) ;
#105 = ORIENTED_EDGE ( 'NONE', *, *, #439, .F. ) ;
#106 = CARTESIAN_POINT ( 'NONE',  ( 0.0000000000000000000, 3.408253175473056300, 22.00000000000000700 ) ) ;
#107 = DIRECTION ( 'NONE',  ( 0.0000000000000000000, 1.000000000000000000, 0.0000000000000000000 ) ) ;
#108 = PLANE ( 'NONE',  #735 ) ;
#109 = DIRECTION ( 'NONE',  ( -0.0000000000000000000, -3.391274194914213300E-064, -1.000000000000000000 ) ) ;
#110 = ORIENTED_EDGE ( 'NONE', *, *, #84, .F. ) ;
#111 = EDGE_CURVE ( 'NONE', #964, #619, #21, .T. ) ;
#112 = DIRECTION ( 'NONE',  ( 0.0000000000000000000, 0.0000000000000000000, 1.000000000000000000 ) ) ;
#113 = FACE_OUTER_BOUND ( 'NONE', #825, .T. ) ;
#114 = VECTOR ( 'NONE', #913, 1000.000000000000000 ) ;
#115 = DIRECTION ( 'NONE',  ( 0.0000000000000000000, -1.000000000000000000, 0.0000000000000000000 ) ) ;
#116 = AXIS2_PLACEMENT_3D ( 'NONE', #647, #332, #883 ) ;
#117 = ORIENTED_EDGE ( 'NONE', *, *, #329, .T. ) ;
#118 = EDGE_LOOP ( 'NONE', ( #62, #568 ) ) ;
#119 = LINE ( 'NONE', #11, #916 ) ;
#120 = VERTEX_POINT ( 'NONE', #830 ) ;
#121 = PERSON_AND_ORGANIZATION ( #600, #487 ) ;
#122 = ADVANCED_FACE ( 'NONE', ( #130 ), #265, .T. ) ;
#123 = ORIENTED_EDGE ( 'NONE', *, *, #297, .F. ) ;
#124 = EDGE_CURVE ( 'NONE', #18, #787, #307, .T. ) ;
#125 = CARTESIAN_POINT ( 'NONE',  ( 0.3987867435387267800, 2.656511712216790900, 27.57278725590573700 ) ) ;
#126 = TOROIDAL_SURFACE ( 'NONE', #461, 3.749999999999999100, 0.7500000000000000000 ) ;
#127 = ADVANCED_FACE ( 'NONE', ( #488 ), #674, .T. ) ;
#128 = ORIENTED_EDGE ( 'NONE', *, *, #796, .T. ) ;
#129 = DIRECTION ( 'NONE',  ( 0.0000000000000000000, 1.000000000000000000, 0.0000000000000000000 ) ) ;
#130 = FACE_OUTER_BOUND ( 'NONE', #608, .T. ) ;
#131 = CARTESIAN_POINT ( 'NONE',  ( 3.806512302282672600E-016, -3.108253175473054700, -28.00000000000000400 ) ) ;
#132 = CARTESIAN_POINT ( 'NONE',  ( -8.249409542376108800E-016, 2.886751345948129500, 14.36237384174027200 ) ) ;
#133 = DIRECTION ( 'NONE',  ( 8.659560562354851500E-017, 0.7071067811865409100, 0.7071067811865541200 ) ) ;
#134 = DIRECTION ( 'NONE',  ( 0.0000000000000000000, 3.391274194914213300E-064, 1.000000000000000000 ) ) ;
#135 = EDGE_CURVE ( 'NONE', #15, #573, #153, .T. ) ;
#136 = EDGE_CURVE ( 'NONE', #500, #326, #440, .T. ) ;
#137 = ORIENTED_EDGE ( 'NONE', *, *, #930, .T. ) ;
#138 = ORIENTED_EDGE ( 'NONE', *, *, #491, .F. ) ;
#139 = ADVANCED_FACE ( 'NONE', ( #906 ), #236, .T. ) ;
#140 = CARTESIAN_POINT ( 'NONE',  ( 6.123233995736766300E-016, -5.000000000000000000, 27.70000000000000300 ) ) ;
#141 = DIRECTION ( 'NONE',  ( 0.0000000000000000000, 1.000000000000000000, 0.0000000000000000000 ) ) ;
#142 = LINE ( 'NONE', #587, #606 ) ;
#143 = ORIENTED_EDGE ( 'NONE', *, *, #135, .F. ) ;
#144 = LINE ( 'NONE', #731, #251 ) ;
#145 = ADVANCED_FACE ( 'NONE', ( #622 ), #856, .F. ) ;
#146 = AXIS2_PLACEMENT_3D ( 'NONE', #513, #585, #832 ) ;
#147 = B_SPLINE_CURVE_WITH_KNOTS ( 'NONE', 3,
 ( #620, #403, #252, #242, #943, #399 ),
 .UNSPECIFIED., .F., .F.,
 ( 4, 2, 4 ),
 ( 0.001529540333915060600, 0.002277691456973197700, 0.003025842580031335400 ),
 .UNSPECIFIED. ) ;
#148 = AXIS2_PLACEMENT_3D ( 'NONE', #909, #134, #984 ) ;
#149 = ORIENTED_EDGE ( 'NONE', *, *, #566, .T. ) ;
#150 = CC_DESIGN_PERSON_AND_ORGANIZATION_ASSIGNMENT ( #926, #797, ( #820 ) ) ;
#151 = CARTESIAN_POINT ( 'NONE',  ( 2.499999999999999600, 0.2537459920824479100, 27.39674230310576400 ) ) ;
#152 = CIRCLE ( 'NONE', #266, 5.000000000000000000 ) ;
#153 = CIRCLE ( 'NONE', #177, 3.093842135775480200 ) ;
#154 = PERSON_AND_ORGANIZATION ( #600, #487 ) ;
#155 = EDGE_CURVE ( 'NONE', #765, #163, #460, .T. ) ;
#156 = CARTESIAN_POINT ( 'NONE',  ( -0.8218418864751622100, -2.412260711560384200, 27.43437054072093800 ) ) ;
#157 = DIRECTION ( 'NONE',  ( 0.0000000000000000000, -0.1950903220161211100, 0.9807852804032317600 ) ) ;
#158 = CARTESIAN_POINT ( 'NONE',  ( 0.0000000000000000000, 2.999999999999999600, -28.00000000000000400 ) ) ;
#159 = CARTESIAN_POINT ( 'NONE',  ( 9.805734498261621200E-016, -2.886751345948130000, 27.78349364905389500 ) ) ;
#160 = ORIENTED_EDGE ( 'NONE', *, *, #979, .F. ) ;
#161 = AXIS2_PLACEMENT_3D ( 'NONE', #101, #324, #165 ) ;
#162 = FACE_OUTER_BOUND ( 'NONE', #338, .T. ) ;
#163 = VERTEX_POINT ( 'NONE', #260 ) ;
#164 = ORIENTED_EDGE ( 'NONE', *, *, #92, .T. ) ;
#165 = DIRECTION ( 'NONE',  ( -1.224646799147353500E-016, 1.000000000000000000, 0.0000000000000000000 ) ) ;
#166 = CARTESIAN_POINT ( 'NONE',  ( -2.499999999999999600, 3.061069130769451800E-016, 27.39674230310576800 ) ) ;
#167 = DIRECTION ( 'NONE',  ( 0.0000000000000000000, -3.391274194914213300E-064, -1.000000000000000000 ) ) ;
#168 = CARTESIAN_POINT ( 'NONE',  ( -1.463640510288722200, 2.041718103336094700, 27.39621215275624500 ) ) ;
#169 = CARTESIAN_POINT ( 'NONE',  ( -3.103257696894238900, 3.800394605430916900E-016, 28.00000000000000400 ) ) ;
#170 = ORIENTED_EDGE ( 'NONE', *, *, #564, .F. ) ;
#171 = CARTESIAN_POINT ( 'NONE',  ( -3.323254769572574300E-016, 2.886751345948130000, 27.78349364905389500 ) ) ;
#172 = ORIENTED_EDGE ( 'NONE', *, *, #849, .F. ) ;
#173 = CARTESIAN_POINT ( 'NONE',  ( 0.0000000000000000000, -1.933026291101101500E-063, 22.30000000000000800 ) ) ;
#174 = CARTESIAN_POINT ( 'NONE',  ( -2.104933473583878300, -1.671467438348222600, 27.57483382634058700 ) ) ;
#175 = VECTOR ( 'NONE', #67, 1000.000000000000000 ) ;
#176 = CARTESIAN_POINT ( 'NONE',  ( 0.0000000000000000000, -1.899113549151959700E-062, -28.00000000000000400 ) ) ;
#177 = AXIS2_PLACEMENT_3D ( 'NONE', #486, #888, #263 ) ;
#178 = FACE_OUTER_BOUND ( 'NONE', #571, .T. ) ;
#179 = CARTESIAN_POINT ( 'NONE',  ( -1.678158113524836200, 1.917866307361809600, 27.43437054072092700 ) ) ;
#180 = DIRECTION ( 'NONE',  ( 0.0000000000000000000, 1.000000000000000000, 0.0000000000000000000 ) ) ;
#181 =( NAMED_UNIT ( * ) SI_UNIT ( $, .STERADIAN. ) SOLID_ANGLE_UNIT ( ) );
#182 = DIRECTION ( 'NONE',  ( -0.0000000000000000000, -0.0000000000000000000, 1.000000000000000000 ) ) ;
#183 = EDGE_LOOP ( 'NONE', ( #255, #712, #149, #210 ) ) ;
#184 = EDGE_CURVE ( 'NONE', #765, #232, #72, .T. ) ;
#185 = PRODUCT_DEFINITION ( 'UNKNOWN', '', #633, #433 ) ;
#186 = DIRECTION ( 'NONE',  ( 0.0000000000000000000, 3.391274194914213300E-064, 1.000000000000000000 ) ) ;
#187 = TOROIDAL_SURFACE ( 'NONE', #572, 2.358253175473056500, 0.7499999999999997800 ) ;
#188 = ORIENTED_EDGE ( 'NONE', *, *, #975, .T. ) ;
#189 = EDGE_LOOP ( 'NONE', ( #219, #925, #110, #105 ) ) ;
#190 = VECTOR ( 'NONE', #49, 1000.000000000000000 ) ;
#191 = AXIS2_PLACEMENT_3D ( 'NONE', #35, #935, #793 ) ;
#192 = SHAPE_DEFINITION_REPRESENTATION ( #567, #489 ) ;
#193 = PERSON_AND_ORGANIZATION_ROLE ( 'classification_officer' ) ;
#194 = AXIS2_PLACEMENT_3D ( 'NONE', #689, #454, #685 ) ;
#195 = EDGE_LOOP ( 'NONE', ( #276, #570, #423, #638 ) ) ;
#196 = EDGE_CURVE ( 'NONE', #39, #543, #436, .T. ) ;
#197 = VERTEX_POINT ( 'NONE', #953 ) ;
#198 = ADVANCED_FACE ( 'NONE', ( #699 ), #402, .T. ) ;
#199 = LINE ( 'NONE', #350, #209 ) ;
#200 = ORIENTED_EDGE ( 'NONE', *, *, #566, .F. ) ;
#201 = APPROVAL_STATUS ( 'not_yet_approved' ) ;
#202 = CIRCLE ( 'NONE', #983, 2.350480947161673200 ) ;
#203 = CARTESIAN_POINT ( 'NONE',  ( 0.0000000000000000000, -2.034764516948529600E-063, 22.00000000000000000 ) ) ;
#204 = DIRECTION ( 'NONE',  ( -0.8660254037844384900, -0.5000000000000004400, 1.695637097457108000E-064 ) ) ;
#205 = EDGE_CURVE ( 'NONE', #619, #810, #74, .T. ) ;
#206 = EDGE_LOOP ( 'NONE', ( #221, #876, #293, #346 ) ) ;
#207 = CARTESIAN_POINT ( 'NONE',  ( 2.500000000000000000, -5.478779088456694200E-020, 27.39674230310576800 ) ) ;
#208 = AXIS2_PLACEMENT_3D ( 'NONE', #642, #330, #952 ) ;
#209 = VECTOR ( 'NONE', #901, 999.9999999999998900 ) ;
#210 = ORIENTED_EDGE ( 'NONE', *, *, #247, .F. ) ;
#211 = EDGE_LOOP ( 'NONE', ( #736, #362, #592, #47 ) ) ;
#212 = CARTESIAN_POINT ( 'NONE',  ( -8.249409542376108800E-016, 2.886751345948129500, 14.36237384174027200 ) ) ;
#213 = PERSON_AND_ORGANIZATION ( #600, #487 ) ;
#214 = VECTOR ( 'NONE', #441, 1000.000000000000000 ) ;
#215 = CARTESIAN_POINT ( 'NONE',  ( 0.0000000000000000000, 0.0000000000000000000, -3.698868552517875500 ) ) ;
#216 = AXIS2_PLACEMENT_3D ( 'NONE', #347, #584, #667 ) ;
#217 = DIRECTION ( 'NONE',  ( 0.0000000000000000000, 1.000000000000000000, -3.391274194914213300E-064 ) ) ;
#218 = DIRECTION ( 'NONE',  ( 0.0000000000000000000, -0.7071067811865372500, 0.7071067811865579000 ) ) ;
#219 = ORIENTED_EDGE ( 'NONE', *, *, #111, .T. ) ;
#220 = CARTESIAN_POINT ( 'NONE',  ( -3.103257696894238900, 3.800394605430916900E-016, 28.00000000000000400 ) ) ;
#221 = ORIENTED_EDGE ( 'NONE', *, *, #352, .F. ) ;
#222 = CARTESIAN_POINT ( 'NONE',  ( 2.500000000000000000, 1.219935688874938000, 27.67177365700432600 ) ) ;
#223 = LINE ( 'NONE', #316, #924 ) ;
#224 = ORIENTED_EDGE ( 'NONE', *, *, #48, .F. ) ;
#225 = LINE ( 'NONE', #724, #846 ) ;
#226 = CARTESIAN_POINT ( 'NONE',  ( 0.0000000000000000000, 0.0000000000000000000, 21.69999999999999900 ) ) ;
#227 = AXIS2_PLACEMENT_3D ( 'NONE', #336, #186, #483 ) ;
#228 = DIRECTION ( 'NONE',  ( 0.0000000000000000000, 1.000000000000000000, -3.391274194914213300E-064 ) ) ;
#229 = DIRECTION ( 'NONE',  ( 0.0000000000000000000, 3.391274194914213300E-064, 1.000000000000000000 ) ) ;
#230 = CIRCLE ( 'NONE', #422, 4.700000000000000200 ) ;
#231 = ORIENTED_EDGE ( 'NONE', *, *, #92, .F. ) ;
#232 = VERTEX_POINT ( 'NONE', #505 ) ;
#233 = COORDINATED_UNIVERSAL_TIME_OFFSET ( 6, 0, .BEHIND. ) ;
#234 = PLANE ( 'NONE',  #268 ) ;
#235 = EDGE_CURVE ( 'NONE', #803, #912, #390, .T. ) ;
#236 = CONICAL_SURFACE ( 'NONE', #227, 3.014411039697575000, 0.1963495408493548000 ) ;
#237 = CARTESIAN_POINT ( 'NONE',  ( 6.123233995736766300E-016, 5.000000000000000000, 22.30000000000000800 ) ) ;
#238 = EDGE_CURVE ( 'NONE', #384, #934, #315, .T. ) ;
#239 = CARTESIAN_POINT ( 'NONE',  ( -2.499999999999999600, -1.443375672974064800, 14.36237384174027200 ) ) ;
#240 = CARTESIAN_POINT ( 'NONE',  ( -0.1953301412284914100, 2.773977436329012800, 27.67071973943478000 ) ) ;
#241 = CARTESIAN_POINT ( 'NONE',  ( -2.499999999999999600, -0.2534697143641926900, 27.39674230310576100 ) ) ;
#242 = CARTESIAN_POINT ( 'NONE',  ( -2.499999999999998200, 0.5008555483124556000, 27.43584149784076600 ) ) ;
#243 = ORIENTED_EDGE ( 'NONE', *, *, #196, .T. ) ;
#244 = CARTESIAN_POINT ( 'NONE',  ( 0.0000000000000000000, 3.014411039697575000, -3.552550811005784800 ) ) ;
#245 = AXIS2_PLACEMENT_3D ( 'NONE', #767, #847, #680 ) ;
#246 = CONICAL_SURFACE ( 'NONE', #552, 5.000000000000000000, 0.7853981633974453900 ) ;
#247 = EDGE_CURVE ( 'NONE', #197, #843, #17, .T. ) ;
#248 = CARTESIAN_POINT ( 'NONE',  ( 0.0000000000000000000, 3.408253175473056300, 21.69999999999999900 ) ) ;
#249 = CARTESIAN_POINT ( 'NONE',  ( 1.678158113524837600, -1.917866307361810300, 27.43437054072093800 ) ) ;
#250 = ORIENTED_EDGE ( 'NONE', *, *, #205, .F. ) ;
#251 = VECTOR ( 'NONE', #484, 999.9999999999998900 ) ;
#252 = CARTESIAN_POINT ( 'NONE',  ( -2.500000000000000000, 0.9849427056166824000, 27.57373325822237200 ) ) ;
#253 = CC_DESIGN_PERSON_AND_ORGANIZATION_ASSIGNMENT ( #292, #503, ( #633 ) ) ;
#254 = CARTESIAN_POINT ( 'NONE',  ( 0.0000000000000000000, -1.017382258474281600E-064, 27.70000000000000300 ) ) ;
#255 = ORIENTED_EDGE ( 'NONE', *, *, #52, .F. ) ;
#256 = CARTESIAN_POINT ( 'NONE',  ( 3.103257696894238900, 9.495567745759798700E-063, 28.00000000000000400 ) ) ;
#257 = CARTESIAN_POINT ( 'NONE',  ( 0.0000000000000000000, -2.350480947161673200, -28.00000000000000400 ) ) ;
#258 = DIRECTION ( 'NONE',  ( 0.0000000000000000000, 0.0000000000000000000, 1.000000000000000000 ) ) ;
#259 = DIRECTION ( 'NONE',  ( -0.0000000000000000000, -0.0000000000000000000, 1.000000000000000000 ) ) ;
#260 = CARTESIAN_POINT ( 'NONE',  ( -2.499999999999999600, -1.443375672974064800, 23.00000000000000700 ) ) ;
#261 = CIRCLE ( 'NONE', #245, 0.3000000000000025400 ) ;
#262 = ORIENTED_EDGE ( 'NONE', *, *, #84, .T. ) ;
#263 = DIRECTION ( 'NONE',  ( 0.0000000000000000000, 1.000000000000000000, 0.0000000000000000000 ) ) ;
#264 = CALENDAR_DATE ( 2023, 11, 1 ) ;
#265 = CONICAL_SURFACE ( 'NONE', #148, 4.700000000000000200, 0.7853981633974337400 ) ;
#266 = AXIS2_PLACEMENT_3D ( 'NONE', #173, #702, #627 ) ;
#267 = CARTESIAN_POINT ( 'NONE',  ( 2.500000000000000000, -5.478779088456694200E-020, 27.39674230310576800 ) ) ;
#268 = AXIS2_PLACEMENT_3D ( 'NONE', #239, #945, #320 ) ;
#269 = ORIENTED_EDGE ( 'NONE', *, *, #90, .F. ) ;
#270 = ORIENTED_EDGE ( 'NONE', *, *, #676, .T. ) ;
#271 = VECTOR ( 'NONE', #24, 1000.000000000000000 ) ;
#272 = ORIENTED_EDGE ( 'NONE', *, *, #455, .T. ) ;
#273 = PERSON_AND_ORGANIZATION_ROLE ( 'creator' ) ;
#274 = VECTOR ( 'NONE', #703, 1000.000000000000000 ) ;
#275 = CARTESIAN_POINT ( 'NONE',  ( 0.8218418864751624300, 2.412260711560384200, 27.43437054072093400 ) ) ;
#276 = ORIENTED_EDGE ( 'NONE', *, *, #196, .F. ) ;
#277 = EDGE_CURVE ( 'NONE', #83, #443, #416, .T. ) ;
#278 = CARTESIAN_POINT ( 'NONE',  ( 0.0000000000000000000, -1.017382258474281600E-064, 27.70000000000000300 ) ) ;
#279 = MANIFOLD_SOLID_BREP ( 'Cut-Extrude2', #451 ) ;
#280 = VERTEX_POINT ( 'NONE', #580 ) ;
#281 = APPROVAL_PERSON_ORGANIZATION ( #688, #819, #742 ) ;
#282 = PLANE ( 'NONE',  #481 ) ;
#283 = CIRCLE ( 'NONE', #498, 3.000000000000000000 ) ;
#284 = CARTESIAN_POINT ( 'NONE',  ( 0.0000000000000000000, -1.899113549151959700E-062, -28.00000000000000400 ) ) ;
#285 = EDGE_CURVE ( 'NONE', #516, #409, #199, .T. ) ;
#286 = CC_DESIGN_DATE_AND_TIME_ASSIGNMENT ( #772, #896, ( #976 ) ) ;
#287 = DIRECTION ( 'NONE',  ( -0.5000000000000004400, 0.8660254037844384900, 0.0000000000000000000 ) ) ;
#288 = ORIENTED_EDGE ( 'NONE', *, *, #874, .T. ) ;
#289 = CARTESIAN_POINT ( 'NONE',  ( 0.0000000000000000000, -1.070033513490834600E-062, -3.552550811005784800 ) ) ;
#290 = ORIENTED_EDGE ( 'NONE', *, *, #136, .T. ) ;
#291 = ADVANCED_FACE ( 'NONE', ( #5 ), #431, .T. ) ;
#292 = PERSON_AND_ORGANIZATION ( #600, #487 ) ;
#293 = ORIENTED_EDGE ( 'NONE', *, *, #124, .T. ) ;
#294 = CARTESIAN_POINT ( 'NONE',  ( 0.0000000000000000000, 4.700000000000000200, 28.00000000000000400 ) ) ;
#295 = CIRCLE ( 'NONE', #53, 3.103257696894238900 ) ;
#296 = AXIS2_PLACEMENT_3D ( 'NONE', #452, #370, #141 ) ;
#297 = EDGE_CURVE ( 'NONE', #120, #372, #591, .T. ) ;
#298 = CALENDAR_DATE ( 2023, 11, 1 ) ;
#299 = DIRECTION ( 'NONE',  ( -0.7071067811865487900, 8.659560562354948900E-017, 0.7071067811865463500 ) ) ;
#300 = ADVANCED_FACE ( 'NONE', ( #162 ), #56, .F. ) ;
#301 = ORIENTED_EDGE ( 'NONE', *, *, #806, .F. ) ;
#302 = EDGE_LOOP ( 'NONE', ( #262, #3, #97, #495 ) ) ;
#303 = CARTESIAN_POINT ( 'NONE',  ( 0.0000000000000000000, 3.108253175473056500, -3.006905983278382900 ) ) ;
#304 = ORIENTED_EDGE ( 'NONE', *, *, #828, .T. ) ;
#305 = CYLINDRICAL_SURFACE ( 'NONE', #68, 5.000000000000000000 ) ;
#306 = CARTESIAN_POINT ( 'NONE',  ( 0.0000000000000000000, 0.0000000000000000000, 28.00000000000000400 ) ) ;
#307 = LINE ( 'NONE', #257, #190 ) ;
#308 = EDGE_CURVE ( 'NONE', #758, #466, #658, .T. ) ;
#309 = CARTESIAN_POINT ( 'NONE',  ( 0.1953301412284921300, -2.773977436329013700, 27.67071973943478700 ) ) ;
#310 = AXIS2_PLACEMENT_3D ( 'NONE', #254, #640, #792 ) ;
#311 = CARTESIAN_POINT ( 'NONE',  ( 1.463640510288723300, -2.041718103336093800, 27.39621215275624500 ) ) ;
#312 = DIRECTION ( 'NONE',  ( 0.0000000000000000000, 1.000000000000000000, 0.0000000000000000000 ) ) ;
#313 = AXIS2_PLACEMENT_3D ( 'NONE', #720, #865, #104 ) ;
#314 = EDGE_LOOP ( 'NONE', ( #755, #670, #457, #339 ) ) ;
#315 = CIRCLE ( 'NONE', #681, 3.108253175473053800 ) ;
#316 = CARTESIAN_POINT ( 'NONE',  ( 2.500000000000000400, -1.443375672974064800, 14.36237384174027200 ) ) ;
#317 = FACE_OUTER_BOUND ( 'NONE', #528, .T. ) ;
#318 = EDGE_LOOP ( 'NONE', ( #231, #651 ) ) ;
#319 = CARTESIAN_POINT ( 'NONE',  ( -2.499999999999999100, -1.443375672974065000, 27.78349364905389500 ) ) ;
#320 = DIRECTION ( 'NONE',  ( 0.8660254037844387100, -0.4999999999999999400, 0.0000000000000000000 ) ) ;
#321 = DIRECTION ( 'NONE',  ( -1.000000000000000000, 0.0000000000000000000, 0.0000000000000000000 ) ) ;
#322 = CONICAL_SURFACE ( 'NONE', #515, 2.350480947161673200, 0.7853981633974389500 ) ;
#323 = CARTESIAN_POINT ( 'NONE',  ( -2.499999999999999600, 1.443375672974064300, 14.36237384174027200 ) ) ;
#324 = DIRECTION ( 'NONE',  ( 1.000000000000000000, 1.224646799147353200E-016, -4.153113087832708300E-080 ) ) ;
#325 = CARTESIAN_POINT ( 'NONE',  ( 3.806512302282672200E-016, -3.108253175473053800, 21.70000000000000300 ) ) ;
#326 = VERTEX_POINT ( 'NONE', #207 ) ;
#327 = CARTESIAN_POINT ( 'NONE',  ( -0.7053885464011650000, 2.479495078800139300, 27.47208214815060500 ) ) ;
#328 = CIRCLE ( 'NONE', #648, 0.3000000000000016500 ) ;
#329 = EDGE_CURVE ( 'NONE', #843, #803, #542, .T. ) ;
#330 = DIRECTION ( 'NONE',  ( -0.0000000000000000000, -3.391274194914213300E-064, -1.000000000000000000 ) ) ;
#331 = DIRECTION ( 'NONE',  ( 1.000000000000000000, 0.0000000000000000000, 0.0000000000000000000 ) ) ;
#332 = DIRECTION ( 'NONE',  ( -0.0000000000000000000, -3.391274194914213300E-064, -1.000000000000000000 ) ) ;
#333 = LINE ( 'NONE', #132, #214 ) ;
#334 = CARTESIAN_POINT ( 'NONE',  ( 2.500000000000000000, -0.5024865836517551400, 27.43628044918312600 ) ) ;
#335 = APPROVAL_PERSON_ORGANIZATION ( #154, #425, #969 ) ;
#336 = CARTESIAN_POINT ( 'NONE',  ( 0.0000000000000000000, -1.070033513490834600E-062, -3.552550811005784800 ) ) ;
#337 = EDGE_CURVE ( 'NONE', #934, #891, #801, .T. ) ;
#338 = EDGE_LOOP ( 'NONE', ( #776, #10, #288, #754, #518, #96, #863 ) ) ;
#339 = ORIENTED_EDGE ( 'NONE', *, *, #308, .T. ) ;
#340 = VECTOR ( 'NONE', #675, 1000.000000000000000 ) ;
#341 = ORIENTED_EDGE ( 'NONE', *, *, #155, .F. ) ;
#342 = LOCAL_TIME ( 10, 57, 0.0000000000000000000, #919 ) ;
#343 = AXIS2_PLACEMENT_3D ( 'NONE', #458, #82, #411 ) ;
#344 = EDGE_CURVE ( 'NONE', #553, #765, #142, .T. ) ;
#345 = CARTESIAN_POINT ( 'NONE',  ( 1.363725120039725300, 2.099404280792537900, 27.39701585421036300 ) ) ;
#346 = ORIENTED_EDGE ( 'NONE', *, *, #613, .T. ) ;
#347 = CARTESIAN_POINT ( 'NONE',  ( 0.0000000000000000000, -1.933026291101101500E-063, 22.30000000000000800 ) ) ;
#348 = LINE ( 'NONE', #28, #894 ) ;
#349 = DIRECTION ( 'NONE',  ( -0.0000000000000000000, -0.0000000000000000000, 1.000000000000000000 ) ) ;
#350 = CARTESIAN_POINT ( 'NONE',  ( 1.473188927182532800E-015, -2.886751345948129500, 23.00000000000000700 ) ) ;
#351 = CIRCLE ( 'NONE', #95, 3.108253175473053800 ) ;
#352 = EDGE_CURVE ( 'NONE', #695, #574, #809, .T. ) ;
#353 = CARTESIAN_POINT ( 'NONE',  ( -3.323254769572574300E-016, 2.886751345948130000, 27.78349364905389500 ) ) ;
#354 = APPROVAL_ROLE ( '' ) ;
#355 = DIRECTION ( 'NONE',  ( 0.0000000000000000000, 0.0000000000000000000, 1.000000000000000000 ) ) ;
#356 = ADVANCED_FACE ( 'NONE', ( #768 ), #635, .T. ) ;
#357 = DIRECTION ( 'NONE',  ( -0.0000000000000000000, -3.391274194914213300E-064, -1.000000000000000000 ) ) ;
#358 = AXIS2_PLACEMENT_3D ( 'NONE', #22, #467, #456 ) ;
#359 = ORIENTED_EDGE ( 'NONE', *, *, #352, .T. ) ;
#360 = DIRECTION ( 'NONE',  ( 8.659560562354908200E-017, -0.7071067811865454600, -0.7071067811865495700 ) ) ;
#361 = CYLINDRICAL_SURFACE ( 'NONE', #296, 2.999999999999999600 ) ;
#362 = ORIENTED_EDGE ( 'NONE', *, *, #511, .T. ) ;
#363 = ORIENTED_EDGE ( 'NONE', *, *, #694, .F. ) ;
#364 = DIRECTION ( 'NONE',  ( 0.0000000000000000000, 1.000000000000000000, 0.0000000000000000000 ) ) ;
#365 = AXIS2_PLACEMENT_3D ( 'NONE', #284, #508, #827 ) ;
#366 = ADVANCED_FACE ( 'NONE', ( #711 ), #791, .F. ) ;
#367 = DIRECTION ( 'NONE',  ( -0.8660254037844386000, 0.5000000000000001100, 0.0000000000000000000 ) ) ;
#368 = PLANE ( 'NONE',  #1 ) ;
#369 = CC_DESIGN_APPROVAL ( #666, ( #633 ) ) ;
#370 = DIRECTION ( 'NONE',  ( -0.0000000000000000000, -3.391274194914213300E-064, -1.000000000000000000 ) ) ;
#371 = ADVANCED_FACE ( 'NONE', ( #382 ), #187, .T. ) ;
#372 = VERTEX_POINT ( 'NONE', #294 ) ;
#373 = EDGE_LOOP ( 'NONE', ( #471, #160, #900, #87 ) ) ;
#374 = CARTESIAN_POINT ( 'NONE',  ( 2.500000000000000000, 1.443375672974064300, 23.00000000000000700 ) ) ;
#375 = VECTOR ( 'NONE', #133, 1000.000000000000000 ) ;
#376 = DIRECTION ( 'NONE',  ( 0.0000000000000000000, -1.000000000000000000, 0.0000000000000000000 ) ) ;
#377 = CIRCLE ( 'NONE', #749, 3.093842135775480200 ) ;
#378 = EDGE_CURVE ( 'NONE', #443, #912, #937, .T. ) ;
#379 = DIRECTION ( 'NONE',  ( 0.8660254037844387100, -0.4999999999999999400, 1.695637097457106300E-064 ) ) ;
#380 = CARTESIAN_POINT ( 'NONE',  ( 0.0000000000000000000, 2.999999999999999100, -3.698868552517876400 ) ) ;
#381 = VERTEX_POINT ( 'NONE', #303 ) ;
#382 = FACE_OUTER_BOUND ( 'NONE', #947, .T. ) ;
#383 = ORIENTED_EDGE ( 'NONE', *, *, #774, .F. ) ;
#384 = VERTEX_POINT ( 'NONE', #526 ) ;
#385 = DIRECTION ( 'NONE',  ( -0.0000000000000000000, -3.391274194914213300E-064, -1.000000000000000000 ) ) ;
#386 = EDGE_CURVE ( 'NONE', #326, #619, #576, .T. ) ;
#387 = CC_DESIGN_APPROVAL ( #819, ( #185 ) ) ;
#388 = CARTESIAN_POINT ( 'NONE',  ( 0.0000000000000000000, -1.017382258474281600E-064, 27.70000000000000300 ) ) ;
#389 = PLANE ( 'NONE',  #697 ) ;
#390 = CIRCLE ( 'NONE', #216, 5.000000000000000000 ) ;
#391 = APPLICATION_CONTEXT ( 'configuration controlled 3d designs of mechanical parts and assemblies' ) ;
#392 = DIRECTION ( 'NONE',  ( -0.0000000000000000000, -3.391274194914213300E-064, -1.000000000000000000 ) ) ;
#393 = DIRECTION ( 'NONE',  ( 0.0000000000000000000, 1.000000000000000000, -3.391274194914213300E-064 ) ) ;
#394 = VERTEX_POINT ( 'NONE', #923 ) ;
#395 = CARTESIAN_POINT ( 'NONE',  ( -0.1964812621006253300, -2.773312836383613700, 27.67005513948901900 ) ) ;
#396 = CARTESIAN_POINT ( 'NONE',  ( -2.101213256461271800, 1.673615306705403600, 27.57278725590573000 ) ) ;
#397 = EDGE_LOOP ( 'NONE', ( #432, #780, #659, #383 ) ) ;
#398 = AXIS2_PLACEMENT_3D ( 'NONE', #881, #879, #9 ) ;
#399 = CARTESIAN_POINT ( 'NONE',  ( -2.499999999999999600, 3.061069130769451800E-016, 27.39674230310576800 ) ) ;
#400 = DIRECTION ( 'NONE',  ( 0.0000000000000000000, -1.000000000000000000, 3.391274194914213300E-064 ) ) ;
#401 = CIRCLE ( 'NONE', #194, 0.7499999999999997800 ) ;
#402 = CYLINDRICAL_SURFACE ( 'NONE', #398, 2.999999999999999600 ) ;
#403 = CARTESIAN_POINT ( 'NONE',  ( -2.500000000000000000, 1.219935688843694300, 27.67177365698870900 ) ) ;
#404 = DIRECTION ( 'NONE',  ( -0.0000000000000000000, -3.391274194914213300E-064, -1.000000000000000000 ) ) ;
#405 = CIRCLE ( 'NONE', #623, 5.000000000000000000 ) ;
#406 = CARTESIAN_POINT ( 'NONE',  ( -2.499999999999999600, 1.443375672974064300, 23.00000000000000700 ) ) ;
#407 = DIRECTION ( 'NONE',  ( -0.0000000000000000000, -3.391274194914213300E-064, -1.000000000000000000 ) ) ;
#408 = CARTESIAN_POINT ( 'NONE',  ( -0.8106343009612309000, 2.418731414073818500, 27.44474999950267600 ) ) ;
#409 = VERTEX_POINT ( 'NONE', #985 ) ;
#410 = EDGE_CURVE ( 'NONE', #543, #46, #401, .T. ) ;
#411 = DIRECTION ( 'NONE',  ( 0.0000000000000000000, 1.000000000000000000, 0.0000000000000000000 ) ) ;
#412 = DIRECTION ( 'NONE',  ( 1.000000000000000000, 0.0000000000000000000, 0.0000000000000000000 ) ) ;
#413 = ORIENTED_EDGE ( 'NONE', *, *, #733, .T. ) ;
#414 = DIRECTION ( 'NONE',  ( 0.0000000000000000000, -1.000000000000000000, 3.391274194914213300E-064 ) ) ;
#415 = EDGE_LOOP ( 'NONE', ( #854, #938, #848, #657, #845, #603 ) ) ;
#416 = CIRCLE ( 'NONE', #626, 4.700000000000000200 ) ;
#417 = ORIENTED_EDGE ( 'NONE', *, *, #12, .F. ) ;
#418 = ORIENTED_EDGE ( 'NONE', *, *, #285, .F. ) ;
#419 = AXIS2_PLACEMENT_3D ( 'NONE', #38, #539, #93 ) ;
#420 = PERSON_AND_ORGANIZATION ( #600, #487 ) ;
#421 = VECTOR ( 'NONE', #649, 1000.000000000000000 ) ;
#422 = AXIS2_PLACEMENT_3D ( 'NONE', #306, #696, #701 ) ;
#423 = ORIENTED_EDGE ( 'NONE', *, *, #979, .T. ) ;
#424 = ORIENTED_EDGE ( 'NONE', *, *, #52, .T. ) ;
#425 = APPROVAL ( #817, 'UNSPECIFIED' ) ;
#426 = CIRCLE ( 'NONE', #343, 3.108253175473056000 ) ;
#427 = DIRECTION ( 'NONE',  ( -0.0000000000000000000, -3.391274194914213300E-064, -1.000000000000000000 ) ) ;
#428 = PERSON_AND_ORGANIZATION_ROLE ( 'creator' ) ;
#429 = DIRECTION ( 'NONE',  ( 0.0000000000000000000, -1.000000000000000000, 0.0000000000000000000 ) ) ;
#430 = ADVANCED_FACE ( 'NONE', ( #32 ), #494, .T. ) ;
#431 = CONICAL_SURFACE ( 'NONE', #446, 2.350480947161673200, 0.7853981633974389500 ) ;
#432 = ORIENTED_EDGE ( 'NONE', *, *, #48, .T. ) ;
#433 = DESIGN_CONTEXT ( 'detailed design', #391, 'design' ) ;
#434 = DIRECTION ( 'NONE',  ( -0.0000000000000000000, -3.391274194914213300E-064, -1.000000000000000000 ) ) ;
#435 = APPROVAL_DATE_TIME ( #621, #666 ) ;
#436 = CIRCLE ( 'NONE', #464, 2.999999999999999100 ) ;
#437 = DIRECTION ( 'NONE',  ( -0.0000000000000000000, -3.391274194914213300E-064, -1.000000000000000000 ) ) ;
#438 = CARTESIAN_POINT ( 'NONE',  ( 2.500000000000000000, 1.443375672974064300, 14.36237384174027200 ) ) ;
#439 = EDGE_CURVE ( 'NONE', #964, #553, #824, .T. ) ;
#440 = B_SPLINE_CURVE_WITH_KNOTS ( 'NONE', 3,
 ( #734, #957, #646, #334, #799, #267 ),
 .UNSPECIFIED., .F., .F.,
 ( 4, 2, 4 ),
 ( 0.001910358783361019100, 0.002658231910951933300, 0.003406105038542847700 ),
 .UNSPECIFIED. ) ;
#441 = DIRECTION ( 'NONE',  ( -0.0000000000000000000, -0.0000000000000000000, 1.000000000000000000 ) ) ;
#442 = ADVANCED_FACE ( 'NONE', ( #317 ), #80, .T. ) ;
#443 = VERTEX_POINT ( 'NONE', #85 ) ;
#444 = ADVANCED_FACE ( 'NONE', ( #65 ), #368, .F. ) ;
#445 = LINE ( 'NONE', #220, #966 ) ;
#446 = AXIS2_PLACEMENT_3D ( 'NONE', #752, #668, #429 ) ;
#447 = AXIS2_PLACEMENT_3D ( 'NONE', #589, #510, #217 ) ;
#448 = CARTESIAN_POINT ( 'NONE',  ( 1.473188927182532800E-015, -2.886751345948129500, 14.36237384174027200 ) ) ;
#449 = DATE_AND_TIME ( #298, #873 ) ;
#450 = CC_DESIGN_SECURITY_CLASSIFICATION ( #976, ( #633 ) ) ;
#451 = CLOSED_SHELL ( 'NONE', ( #300, #575, #918, #127, #519, #356, #371, #430, #684, #504, #291, #442, #815, #198, #366, #139, #677, #507, #972, #821, #122, #811, #762, #751, #145, #78, #444, #599, #898, #69, #73, #838 ) ) ;
#452 = CARTESIAN_POINT ( 'NONE',  ( 0.0000000000000000000, -1.899113549151959700E-062, -28.00000000000000400 ) ) ;
#453 = DIRECTION ( 'NONE',  ( 0.0000000000000000000, 0.0000000000000000000, 1.000000000000000000 ) ) ;
#454 = DIRECTION ( 'NONE',  ( -1.000000000000000000, 0.0000000000000000000, 0.0000000000000000000 ) ) ;
#455 = EDGE_CURVE ( 'NONE', #39, #787, #578, .T. ) ;
#456 = DIRECTION ( 'NONE',  ( 0.0000000000000000000, 1.000000000000000000, 0.0000000000000000000 ) ) ;
#457 = ORIENTED_EDGE ( 'NONE', *, *, #662, .T. ) ;
#458 = CARTESIAN_POINT ( 'NONE',  ( 0.0000000000000000000, -1.051529201252231400E-062, -3.006905983278382900 ) ) ;
#459 = LOCAL_TIME ( 10, 57, 0.0000000000000000000, #884 ) ;
#460 = LINE ( 'NONE', #795, #886 ) ;
#461 = AXIS2_PLACEMENT_3D ( 'NONE', #472, #385, #393 ) ;
#462 = CARTESIAN_POINT ( 'NONE',  ( 3.691588831080080600E-016, 3.014411039697575000, -3.552550811005784800 ) ) ;
#463 = CARTESIAN_POINT ( 'NONE',  ( 9.805734498261621200E-016, -2.886751345948130000, 27.78349364905389500 ) ) ;
#464 = AXIS2_PLACEMENT_3D ( 'NONE', #669, #434, #875 ) ;
#465 = CARTESIAN_POINT ( 'NONE',  ( 3.788863868644652900E-016, 3.093842135775480200, -3.153223724790474400 ) ) ;
#466 = VERTEX_POINT ( 'NONE', #771 ) ;
#467 = DIRECTION ( 'NONE',  ( -0.0000000000000000000, -3.391274194914213300E-064, -1.000000000000000000 ) ) ;
#468 = EDGE_LOOP ( 'NONE', ( #643, #272, #417, #19 ) ) ;
#469 = DIRECTION ( 'NONE',  ( 0.0000000000000000000, 1.000000000000000000, 0.0000000000000000000 ) ) ;
#470 = VECTOR ( 'NONE', #157, 1000.000000000000100 ) ;
#471 = ORIENTED_EDGE ( 'NONE', *, *, #693, .F. ) ;
#472 = CARTESIAN_POINT ( 'NONE',  ( 0.0000000000000000000, 0.0000000000000000000, -3.698868552517875500 ) ) ;
#473 = CC_DESIGN_PERSON_AND_ORGANIZATION_ASSIGNMENT ( #121, #273, ( #185 ) ) ;
#474 = CARTESIAN_POINT ( 'NONE',  ( 0.3950665264161211700, -2.658659580573972600, 27.57483382634059100 ) ) ;
#475 = CARTESIAN_POINT ( 'NONE',  ( -2.499999999999998700, -0.9839169155414038100, 27.57346674265852100 ) ) ;
#476 = LINE ( 'NONE', #98, #274 ) ;
#477 = CARTESIAN_POINT ( 'NONE',  ( -1.794611453598833600, -1.850631940122057000, 27.47208214815060100 ) ) ;
#478 = CARTESIAN_POINT ( 'NONE',  ( 3.806512302282674600E-016, -3.108253175473056500, -3.006905983278382900 ) ) ;
#479 = EDGE_LOOP ( 'NONE', ( #138, #718, #172, #250, #808, #413, #164 ) ) ;
#480 = DIRECTION ( 'NONE',  ( 0.0000000000000000000, 1.000000000000000000, 0.0000000000000000000 ) ) ;
#481 = AXIS2_PLACEMENT_3D ( 'NONE', #438, #594, #367 ) ;
#482 = CARTESIAN_POINT ( 'NONE',  ( -1.025576057339864900, 2.294634733168524800, 27.40714235202777600 ) ) ;
#483 = DIRECTION ( 'NONE',  ( 0.0000000000000000000, -1.000000000000000000, 0.0000000000000000000 ) ) ;
#484 = DIRECTION ( 'NONE',  ( 8.659560562354807100E-017, 0.7071067811865372500, 0.7071067811865579000 ) ) ;
#485 = ORIENTED_EDGE ( 'NONE', *, *, #235, .F. ) ;
#486 = CARTESIAN_POINT ( 'NONE',  ( 0.0000000000000000000, -1.056491237062712000E-062, -3.153223724790474400 ) ) ;
#487 = ORGANIZATION ( 'UNSPECIFIED', 'UNSPECIFIED', '' ) ;
#488 = FACE_OUTER_BOUND ( 'NONE', #664, .T. ) ;
#489 = ADVANCED_BREP_SHAPE_REPRESENTATION ( '91290A340_NO THREADS_Alloy Steel Socket Head Screw', ( #279, #789 ), #908 ) ;
#490 = DIRECTION ( 'NONE',  ( 0.0000000000000000000, 3.391274194914213300E-064, 1.000000000000000000 ) ) ;
#491 = EDGE_CURVE ( 'NONE', #743, #612, #445, .T. ) ;
#492 = ORIENTED_EDGE ( 'NONE', *, *, #410, .T. ) ;
#493 = ORIENTED_EDGE ( 'NONE', *, *, #975, .F. ) ;
#494 = CONICAL_SURFACE ( 'NONE', #942, 3.014411039697575000, 0.1963495408493548000 ) ;
#495 = ORIENTED_EDGE ( 'NONE', *, *, #344, .F. ) ;
#496 = FACE_OUTER_BOUND ( 'NONE', #314, .T. ) ;
#497 = AXIS2_PLACEMENT_3D ( 'NONE', #226, #851, #228 ) ;
#498 = AXIS2_PLACEMENT_3D ( 'NONE', #637, #404, #550 ) ;
#499 = CARTESIAN_POINT ( 'NONE',  ( 0.1964812621006261900, 2.773312836383615000, 27.67005513948903000 ) ) ;
#500 = VERTEX_POINT ( 'NONE', #75 ) ;
#501 = ORIENTED_EDGE ( 'NONE', *, *, #514, .T. ) ;
#502 = DIRECTION ( 'NONE',  ( 0.0000000000000000000, 1.000000000000000000, 0.0000000000000000000 ) ) ;
#503 = PERSON_AND_ORGANIZATION_ROLE ( 'design_supplier' ) ;
#504 = ADVANCED_FACE ( 'NONE', ( #569 ), #361, .T. ) ;
#505 = CARTESIAN_POINT ( 'NONE',  ( -2.499999999999999600, 1.443375672974063900, 27.78349364905389500 ) ) ;
#506 = ORIENTED_EDGE ( 'NONE', *, *, #308, .F. ) ;
#507 = ADVANCED_FACE ( 'NONE', ( #560 ), #961, .T. ) ;
#508 = DIRECTION ( 'NONE',  ( -0.0000000000000000000, -3.391274194914213300E-064, -1.000000000000000000 ) ) ;
#509 = VECTOR ( 'NONE', #379, 1000.000000000000000 ) ;
#510 = DIRECTION ( 'NONE',  ( 0.0000000000000000000, -3.391274194914213300E-064, -1.000000000000000000 ) ) ;
#511 = EDGE_CURVE ( 'NONE', #934, #466, #261, .T. ) ;
#512 = CIRCLE ( 'NONE', #583, 3.103257696894238900 ) ;
#513 = CARTESIAN_POINT ( 'NONE',  ( 0.0000000000000000000, 9.495567745759798700E-063, 28.00000000000000400 ) ) ;
#514 = EDGE_CURVE ( 'NONE', #372, #120, #230, .T. ) ;
#515 = AXIS2_PLACEMENT_3D ( 'NONE', #536, #229, #541 ) ;
#516 = VERTEX_POINT ( 'NONE', #527 ) ;
#517 = DIRECTION ( 'NONE',  ( 0.5000000000000002200, -0.8660254037844386000, 0.0000000000000000000 ) ) ;
#518 = ORIENTED_EDGE ( 'NONE', *, *, #136, .F. ) ;
#519 = ADVANCED_FACE ( 'NONE', ( #757 ), #738, .F. ) ;
#520 = AXIS2_PLACEMENT_3D ( 'NONE', #278, #968, #502 ) ;
#521 = VECTOR ( 'NONE', #7, 1000.000000000000100 ) ;
#522 = EDGE_LOOP ( 'NONE', ( #506, #917 ) ) ;
#523 = DIRECTION ( 'NONE',  ( -0.0000000000000000000, -3.391274194914213300E-064, -1.000000000000000000 ) ) ;
#524 = LINE ( 'NONE', #256, #814 ) ;
#525 = CC_DESIGN_APPROVAL ( #425, ( #976 ) ) ;
#526 = CARTESIAN_POINT ( 'NONE',  ( 0.0000000000000000000, 3.108253175473053800, 21.70000000000000300 ) ) ;
#527 = CARTESIAN_POINT ( 'NONE',  ( 1.301042606982605300E-015, -2.886751345948129500, 23.00000000000000700 ) ) ;
#528 = EDGE_LOOP ( 'NONE', ( #690, #707 ) ) ;
#529 = DIRECTION ( 'NONE',  ( 0.0000000000000000000, 1.000000000000000000, -3.391274194914213300E-064 ) ) ;
#530 = TOROIDAL_SURFACE ( 'NONE', #419, 2.358253175473056500, 0.7499999999999997800 ) ;
#531 = FACE_OUTER_BOUND ( 'NONE', #183, .T. ) ;
#532 = CARTESIAN_POINT ( 'NONE',  ( -8.673617379884035500E-016, 2.886751345948129500, 23.00000000000000700 ) ) ;
#533 = LINE ( 'NONE', #140, #747 ) ;
#534 = DIRECTION ( 'NONE',  ( 0.0000000000000000000, 1.000000000000000000, 0.0000000000000000000 ) ) ;
#535 = CARTESIAN_POINT ( 'NONE',  ( -2.499999999999999600, 3.061069130769451800E-016, 27.39674230310576800 ) ) ;
#536 = CARTESIAN_POINT ( 'NONE',  ( 0.0000000000000000000, -1.899113549151959700E-062, -28.00000000000000400 ) ) ;
#537 = ORIENTED_EDGE ( 'NONE', *, *, #654, .F. ) ;
#538 = VERTEX_POINT ( 'NONE', #86 ) ;
#539 = DIRECTION ( 'NONE',  ( -0.0000000000000000000, -3.391274194914213300E-064, -1.000000000000000000 ) ) ;
#540 = EDGE_CURVE ( 'NONE', #962, #573, #853, .T. ) ;
#541 = DIRECTION ( 'NONE',  ( 0.0000000000000000000, -1.000000000000000000, 0.0000000000000000000 ) ) ;
#542 = LINE ( 'NONE', #978, #340 ) ;
#543 = VERTEX_POINT ( 'NONE', #380 ) ;
#544 = CARTESIAN_POINT ( 'NONE',  ( -1.136274879960272400, 2.230722738129656600, 27.39701585421037700 ) ) ;
#545 = CARTESIAN_POINT ( 'NONE',  ( 2.500000000000000400, -1.443375672974064800, 23.00000000000000700 ) ) ;
#546 = APPROVAL_DATE_TIME ( #652, #819 ) ;
#547 = CARTESIAN_POINT ( 'NONE',  ( -1.363725120039725100, -2.099404280792538400, 27.39701585421036300 ) ) ;
#548 = CARTESIAN_POINT ( 'NONE',  ( 3.691588831080080100E-016, -3.014411039697575000, -3.552550811005784800 ) ) ;
#549 = COORDINATED_UNIVERSAL_TIME_OFFSET ( 6, 0, .BEHIND. ) ;
#550 = DIRECTION ( 'NONE',  ( 0.0000000000000000000, 1.000000000000000000, 0.0000000000000000000 ) ) ;
#551 = CARTESIAN_POINT ( 'NONE',  ( 2.500000000000000400, -1.443375672974064800, 14.36237384174027200 ) ) ;
#552 = AXIS2_PLACEMENT_3D ( 'NONE', #948, #555, #939 ) ;
#553 = VERTEX_POINT ( 'NONE', #532 ) ;
#554 = AXIS2_PLACEMENT_3D ( 'NONE', #784, #321, #453 ) ;
#555 = DIRECTION ( 'NONE',  ( -0.0000000000000000000, -3.391274194914213300E-064, -1.000000000000000000 ) ) ;
#556 = EDGE_LOOP ( 'NONE', ( #615, #683, #100, #920 ) ) ;
#557 = CARTESIAN_POINT ( 'NONE',  ( 0.0000000000000000000, -2.350480947161673200, -28.00000000000000400 ) ) ;
#558 = DIRECTION ( 'NONE',  ( 0.0000000000000000000, 1.000000000000000000, 0.0000000000000000000 ) ) ;
#559 = CARTESIAN_POINT ( 'NONE',  ( 0.0000000000000000000, -1.899113549151959700E-062, -28.00000000000000400 ) ) ;
#560 = FACE_OUTER_BOUND ( 'NONE', #818, .T. ) ;
#561 = DIRECTION ( 'NONE',  ( 0.0000000000000000000, 1.000000000000000000, -3.391274194914213300E-064 ) ) ;
#562 = DIRECTION ( 'NONE',  ( 0.7071067811865487900, 0.0000000000000000000, 0.7071067811865463500 ) ) ;
#563 =( NAMED_UNIT ( * ) PLANE_ANGLE_UNIT ( ) SI_UNIT ( $, .RADIAN. ) );
#564 = EDGE_CURVE ( 'NONE', #891, #381, #426, .T. ) ;
#565 = CARTESIAN_POINT ( 'NONE',  ( -2.499999999999999600, 1.443375672974064300, 14.36237384174027200 ) ) ;
#566 = EDGE_CURVE ( 'NONE', #372, #843, #119, .T. ) ;
#567 = PRODUCT_DEFINITION_SHAPE ( 'NONE', 'NONE',  #185 ) ;
#568 = ORIENTED_EDGE ( 'NONE', *, *, #277, .T. ) ;
#569 = FACE_OUTER_BOUND ( 'NONE', #468, .T. ) ;
#570 = ORIENTED_EDGE ( 'NONE', *, *, #609, .T. ) ;
#571 = EDGE_LOOP ( 'NONE', ( #304, #739, #485, #763 ) ) ;
#572 = AXIS2_PLACEMENT_3D ( 'NONE', #744, #60, #665 ) ;
#573 = VERTEX_POINT ( 'NONE', #704 ) ;
#574 = VERTEX_POINT ( 'NONE', #783 ) ;
#575 = ADVANCED_FACE ( 'NONE', ( #99 ), #246, .T. ) ;
#576 = B_SPLINE_CURVE_WITH_KNOTS ( 'NONE', 3,
 ( #598, #151, #692, #761, #222, #835 ),
 .UNSPECIFIED., .F., .F.,
 ( 4, 2, 4 ),
 ( 0.003406105038542847700, 0.004154793336607875600, 0.004903481634672903100 ),
 .UNSPECIFIED. ) ;
#577 = CARTESIAN_POINT ( 'NONE',  ( 1.689365699038767800, 1.911395604848375800, 27.44474999950267200 ) ) ;
#578 = LINE ( 'NONE', #764, #778 ) ;
#579 = EDGE_LOOP ( 'NONE', ( #602, #723, #904, #66 ) ) ;
#580 = CARTESIAN_POINT ( 'NONE',  ( -2.499999999999999100, -1.443375672974065000, 27.78349364905389500 ) ) ;
#581 = ORIENTED_EDGE ( 'NONE', *, *, #37, .F. ) ;
#582 = CYLINDRICAL_SURFACE ( 'NONE', #852, 5.000000000000000000 ) ;
#583 = AXIS2_PLACEMENT_3D ( 'NONE', #671, #355, #71 ) ;
#584 = DIRECTION ( 'NONE',  ( -0.0000000000000000000, -3.391274194914213300E-064, -1.000000000000000000 ) ) ;
#585 = DIRECTION ( 'NONE',  ( -0.0000000000000000000, -0.0000000000000000000, 1.000000000000000000 ) ) ;
#586 = CARTESIAN_POINT ( 'NONE',  ( 0.0000000000000000000, -1.074995549301315600E-062, -3.698868552517876400 ) ) ;
#587 = CARTESIAN_POINT ( 'NONE',  ( -8.249409542376108800E-016, 2.886751345948129500, 23.00000000000000700 ) ) ;
#588 = ORIENTED_EDGE ( 'NONE', *, *, #184, .T. ) ;
#589 = CARTESIAN_POINT ( 'NONE',  ( 0.0000000000000000000, 4.700000000000000200, 23.00000000000000700 ) ) ;
#590 = UNCERTAINTY_MEASURE_WITH_UNIT (LENGTH_MEASURE( 1.000000000000000100E-005 ), #43, 'distance_accuracy_value', 'NONE');
#591 = CIRCLE ( 'NONE', #740, 4.700000000000000200 ) ;
#592 = ORIENTED_EDGE ( 'NONE', *, *, #760, .T. ) ;
#593 = ORIENTED_EDGE ( 'NONE', *, *, #732, .T. ) ;
#594 = DIRECTION ( 'NONE',  ( 0.5000000000000001100, 0.8660254037844386000, 0.0000000000000000000 ) ) ;
#595 = EDGE_CURVE ( 'NONE', #197, #912, #348, .T. ) ;
#596 = CIRCLE ( 'NONE', #812, 2.999999999999999100 ) ;
#597 = CC_DESIGN_DATE_AND_TIME_ASSIGNMENT ( #716, #656, ( #185 ) ) ;
#598 = CARTESIAN_POINT ( 'NONE',  ( 2.500000000000000000, -5.478779088456694200E-020, 27.39674230310576800 ) ) ;
#599 = ADVANCED_FACE ( 'NONE', ( #45 ), #234, .F. ) ;
#600 = PERSON ( 'UNSPECIFIED', 'UNSPECIFIED', 'UNSPECIFIED', ('UNSPECIFIED'), ('UNSPECIFIED'), ('UNSPECIFIED') ) ;
#601 = DIRECTION ( 'NONE',  ( 0.0000000000000000000, 3.391274194914213300E-064, 1.000000000000000000 ) ) ;
#602 = ORIENTED_EDGE ( 'NONE', *, *, #903, .F. ) ;
#603 = ORIENTED_EDGE ( 'NONE', *, *, #774, .T. ) ;
#604 = CARTESIAN_POINT ( 'NONE',  ( 0.0000000000000000000, -1.899113549151959700E-062, -28.00000000000000400 ) ) ;
#605 = AXIS2_PLACEMENT_3D ( 'NONE', #804, #182, #331 ) ;
#606 = VECTOR ( 'NONE', #204, 999.9999999999998900 ) ;
#607 = B_SPLINE_CURVE_WITH_KNOTS ( 'NONE', 3,
 ( #171, #240, #940, #327, #408, #482, #544, #168, #179, #396, #941, #715 ),
 .UNSPECIFIED., .F., .F.,
 ( 4, 2, 2, 2, 2, 4 ),
 ( 2.544340436230125200E-007, 0.0007457281437449367200, 0.001118464998595593400, 0.001491201853446250000, 0.002236675563147562900, 0.002982149272848875800 ),
 .UNSPECIFIED. ) ;
#608 = EDGE_LOOP ( 'NONE', ( #493, #363, #981, #682 ) ) ;
#609 = EDGE_CURVE ( 'NONE', #39, #962, #617, .T. ) ;
#610 = CARTESIAN_POINT ( 'NONE',  ( 0.0000000000000000000, -4.700000000000000200, 22.00000000000000000 ) ) ;
#611 = FACE_OUTER_BOUND ( 'NONE', #118, .T. ) ;
#612 = VERTEX_POINT ( 'NONE', #169 ) ;
#613 = EDGE_CURVE ( 'NONE', #787, #574, #686, .T. ) ;
#614 = DIRECTION ( 'NONE',  ( 0.0000000000000000000, 1.000000000000000000, 0.0000000000000000000 ) ) ;
#615 = ORIENTED_EDGE ( 'NONE', *, *, #732, .F. ) ;
#616 = EDGE_CURVE ( 'NONE', #543, #574, #650, .T. ) ;
#617 = CIRCLE ( 'NONE', #161, 0.7499999999999997800 ) ;
#618 = ORIENTED_EDGE ( 'NONE', *, *, #903, .T. ) ;
#619 = VERTEX_POINT ( 'NONE', #859 ) ;
#620 = CARTESIAN_POINT ( 'NONE',  ( -2.499999999999999600, 1.443375672974063900, 27.78349364905389500 ) ) ;
#621 = DATE_AND_TIME ( #829, #50 ) ;
#622 = FACE_OUTER_BOUND ( 'NONE', #479, .T. ) ;
#623 = AXIS2_PLACEMENT_3D ( 'NONE', #388, #790, #614 ) ;
#624 = DIRECTION ( 'NONE',  ( 2.389167384016691500E-017, 0.1950903220161211100, 0.9807852804032317600 ) ) ;
#625 = DIRECTION ( 'NONE',  ( 0.0000000000000000000, 1.000000000000000000, 0.0000000000000000000 ) ) ;
#626 = AXIS2_PLACEMENT_3D ( 'NONE', #203, #965, #746 ) ;
#627 = DIRECTION ( 'NONE',  ( 0.0000000000000000000, 1.000000000000000000, 0.0000000000000000000 ) ) ;
#628 = CARTESIAN_POINT ( 'NONE',  ( 3.673940397442059400E-016, -2.999999999999999100, -3.698868552517876400 ) ) ;
#629 = ORIENTED_EDGE ( 'NONE', *, *, #705, .T. ) ;
#630 = CARTESIAN_POINT ( 'NONE',  ( 0.0000000000000000000, 4.700000000000000200, 22.00000000000000700 ) ) ;
#631 = CARTESIAN_POINT ( 'NONE',  ( 0.0000000000000000000, -1.899113549151959700E-062, -28.00000000000000400 ) ) ;
#632 = ORIENTED_EDGE ( 'NONE', *, *, #12, .T. ) ;
#633 = PRODUCT_DEFINITION_FORMATION_WITH_SPECIFIED_SOURCE ( 'ANY', '', #820, .NOT_KNOWN. ) ;
#634 = DIRECTION ( 'NONE',  ( -0.0000000000000000000, -3.391274194914213300E-064, -1.000000000000000000 ) ) ;
#635 = CYLINDRICAL_SURFACE ( 'NONE', #365, 3.108253175473054700 ) ;
#636 = DIRECTION ( 'NONE',  ( -1.502314598737159500E-016, 1.000000000000000000, -3.391274194914213300E-064 ) ) ;
#637 = CARTESIAN_POINT ( 'NONE',  ( 0.0000000000000000000, -1.877086577122001900E-062, -27.35048094716166400 ) ) ;
#638 = ORIENTED_EDGE ( 'NONE', *, *, #410, .F. ) ;
#639 = CIRCLE ( 'NONE', #889, 3.408253175473056300 ) ;
#640 = DIRECTION ( 'NONE',  ( -0.0000000000000000000, -3.391274194914213300E-064, -1.000000000000000000 ) ) ;
#641 = CARTESIAN_POINT ( 'NONE',  ( 0.0000000000000000000, 0.0000000000000000000, 21.69999999999999900 ) ) ;
#642 = CARTESIAN_POINT ( 'NONE',  ( 0.0000000000000000000, -1.070033513490834600E-062, -3.552550811005784800 ) ) ;
#643 = ORIENTED_EDGE ( 'NONE', *, *, #90, .T. ) ;
#644 = CARTESIAN_POINT ( 'NONE',  ( -2.499999999999999600, -0.5024865834171836600, 27.43628044913248900 ) ) ;
#645 = EDGE_CURVE ( 'NONE', #409, #964, #842, .T. ) ;
#646 = CARTESIAN_POINT ( 'NONE',  ( 2.500000000000000400, -0.9839169156888826200, 27.57346674271675400 ) ) ;
#647 = CARTESIAN_POINT ( 'NONE',  ( 0.0000000000000000000, -1.070033513490834600E-062, -3.552550811005784800 ) ) ;
#648 = AXIS2_PLACEMENT_3D ( 'NONE', #248, #869, #33 ) ;
#649 = DIRECTION ( 'NONE',  ( -0.0000000000000000000, -0.0000000000000000000, 1.000000000000000000 ) ) ;
#650 = LINE ( 'NONE', #158, #271 ) ;
#651 = ORIENTED_EDGE ( 'NONE', *, *, #874, .F. ) ;
#652 = DATE_AND_TIME ( #264, #459 ) ;
#653 = VECTOR ( 'NONE', #624, 1000.000000000000100 ) ;
#654 = EDGE_CURVE ( 'NONE', #409, #500, #223, .T. ) ;
#655 = ORIENTED_EDGE ( 'NONE', *, *, #967, .F. ) ;
#656 = DATE_TIME_ROLE ( 'creation_date' ) ;
#657 = ORIENTED_EDGE ( 'NONE', *, *, #344, .T. ) ;
#658 = CIRCLE ( 'NONE', #893, 3.408253175473056300 ) ;
#659 = ORIENTED_EDGE ( 'NONE', *, *, #705, .F. ) ;
#660 = FACE_OUTER_BOUND ( 'NONE', #911, .T. ) ;
#661 = AXIS2_PLACEMENT_3D ( 'NONE', #215, #64, #748 ) ;
#662 = EDGE_CURVE ( 'NONE', #384, #758, #328, .T. ) ;
#663 = CARTESIAN_POINT ( 'NONE',  ( 1.794611453598833100, 1.850631940122056800, 27.47208214815059400 ) ) ;
#664 = EDGE_LOOP ( 'NONE', ( #800, #188, #54, #687 ) ) ;
#665 = DIRECTION ( 'NONE',  ( 0.0000000000000000000, 1.000000000000000000, -3.391274194914213300E-064 ) ) ;
#666 = APPROVAL ( #201, 'UNSPECIFIED' ) ;
#667 = DIRECTION ( 'NONE',  ( 0.0000000000000000000, 1.000000000000000000, 0.0000000000000000000 ) ) ;
#668 = DIRECTION ( 'NONE',  ( 0.0000000000000000000, 3.391274194914213300E-064, 1.000000000000000000 ) ) ;
#669 = CARTESIAN_POINT ( 'NONE',  ( 0.0000000000000000000, -1.074995549301315600E-062, -3.698868552517876400 ) ) ;
#670 = ORIENTED_EDGE ( 'NONE', *, *, #238, .F. ) ;
#671 = CARTESIAN_POINT ( 'NONE',  ( 0.0000000000000000000, 9.495567745759798700E-063, 28.00000000000000400 ) ) ;
#672 = EDGE_CURVE ( 'NONE', #912, #803, #152, .T. ) ;
#673 = CIRCLE ( 'NONE', #358, 3.108253175473056000 ) ;
#674 = CONICAL_SURFACE ( 'NONE', #921, 4.700000000000000200, 0.7853981633974337400 ) ;
#675 = DIRECTION ( 'NONE',  ( -0.0000000000000000000, -3.391274194914213300E-064, -1.000000000000000000 ) ) ;
#676 = EDGE_CURVE ( 'NONE', #232, #743, #147, .T. ) ;
#677 = ADVANCED_FACE ( 'NONE', ( #745 ), #530, .T. ) ;
#678 = DIRECTION ( 'NONE',  ( 0.0000000000000000000, 3.391274194914213300E-064, 1.000000000000000000 ) ) ;
#679 = DIRECTION ( 'NONE',  ( -0.0000000000000000000, -3.391274194914213300E-064, -1.000000000000000000 ) ) ;
#680 = DIRECTION ( 'NONE',  ( -1.224646799147352200E-016, 1.000000000000000000, 0.0000000000000000000 ) ) ;
#681 = AXIS2_PLACEMENT_3D ( 'NONE', #63, #427, #129 ) ;
#682 = ORIENTED_EDGE ( 'NONE', *, *, #672, .T. ) ;
#683 = ORIENTED_EDGE ( 'NONE', *, *, #693, .T. ) ;
#684 = ADVANCED_FACE ( 'NONE', ( #725 ), #126, .F. ) ;
#685 = DIRECTION ( 'NONE',  ( 0.0000000000000000000, 0.0000000000000000000, 1.000000000000000000 ) ) ;
#686 = CIRCLE ( 'NONE', #313, 3.000000000000000000 ) ;
#687 = ORIENTED_EDGE ( 'NONE', *, *, #378, .F. ) ;
#688 = PERSON_AND_ORGANIZATION ( #600, #487 ) ;
#689 = CARTESIAN_POINT ( 'NONE',  ( 0.0000000000000000000, 3.749999999999999100, -3.698868552517875500 ) ) ;
#690 = ORIENTED_EDGE ( 'NONE', *, *, #860, .T. ) ;
#691 = DIRECTION ( 'NONE',  ( 0.0000000000000000000, 1.000000000000000000, 0.0000000000000000000 ) ) ;
#692 = CARTESIAN_POINT ( 'NONE',  ( 2.500000000000000400, 0.5008555480598042600, 27.43584149776522100 ) ) ;
#693 = EDGE_CURVE ( 'NONE', #46, #15, #950, .T. ) ;
#694 = EDGE_CURVE ( 'NONE', #443, #83, #831, .T. ) ;
#695 = VERTEX_POINT ( 'NONE', #40 ) ;
#696 = DIRECTION ( 'NONE',  ( -0.0000000000000000000, -3.391274194914213300E-064, -1.000000000000000000 ) ) ;
#697 = AXIS2_PLACEMENT_3D ( 'NONE', #323, #858, #868 ) ;
#698 = CIRCLE ( 'NONE', #798, 2.350480947161673200 ) ;
#699 = FACE_OUTER_BOUND ( 'NONE', #44, .T. ) ;
#700 = CARTESIAN_POINT ( 'NONE',  ( -1.689365699038767300, -1.911395604848376000, 27.44474999950267200 ) ) ;
#701 = DIRECTION ( 'NONE',  ( 0.0000000000000000000, 1.000000000000000000, 0.0000000000000000000 ) ) ;
#702 = DIRECTION ( 'NONE',  ( -0.0000000000000000000, -3.391274194914213300E-064, -1.000000000000000000 ) ) ;
#703 = DIRECTION ( 'NONE',  ( -0.0000000000000000000, -3.391274194914213300E-064, -1.000000000000000000 ) ) ;
#704 = CARTESIAN_POINT ( 'NONE',  ( 0.0000000000000000000, -3.093842135775480200, -3.153223724790474400 ) ) ;
#705 = EDGE_CURVE ( 'NONE', #516, #538, #225, .T. ) ;
#706 = PRODUCT_RELATED_PRODUCT_CATEGORY ( 'detail', '', ( #820 ) ) ;
#707 = ORIENTED_EDGE ( 'NONE', *, *, #967, .T. ) ;
#708 = CARTESIAN_POINT ( 'NONE',  ( 0.0000000000000000000, -3.000000000000000000, -27.35048094716166400 ) ) ;
#709 = ORIENTED_EDGE ( 'NONE', *, *, #514, .F. ) ;
#710 = CARTESIAN_POINT ( 'NONE',  ( 0.0000000000000000000, -5.000000000000000000, 22.30000000000000800 ) ) ;
#711 = FACE_OUTER_BOUND ( 'NONE', #727, .T. ) ;
#712 = ORIENTED_EDGE ( 'NONE', *, *, #297, .T. ) ;
#713 = DIRECTION ( 'NONE',  ( -0.0000000000000000000, -0.0000000000000000000, 1.000000000000000000 ) ) ;
#714 = CARTESIAN_POINT ( 'NONE',  ( 0.8106343009612317900, -2.418731414073819000, 27.44474999950267600 ) ) ;
#715 = CARTESIAN_POINT ( 'NONE',  ( -2.499999999999999600, 1.443375672974063900, 27.78349364905389500 ) ) ;
#716 = DATE_AND_TIME ( #741, #342 ) ;
#717 = CARTESIAN_POINT ( 'NONE',  ( -2.499999999999999600, -1.219481799861999100, 27.67154671249785700 ) ) ;
#718 = ORIENTED_EDGE ( 'NONE', *, *, #676, .F. ) ;
#719 = AXIS2_PLACEMENT_3D ( 'NONE', #212, #287, #910 ) ;
#720 = CARTESIAN_POINT ( 'NONE',  ( 0.0000000000000000000, -1.877086577122001900E-062, -27.35048094716166400 ) ) ;
#721 = CARTESIAN_POINT ( 'NONE',  ( -2.499999999999999600, -1.443375672974064800, 14.36237384174027200 ) ) ;
#722 = DIRECTION ( 'NONE',  ( -0.0000000000000000000, -3.391274194914213300E-064, -1.000000000000000000 ) ) ;
#723 = ORIENTED_EDGE ( 'NONE', *, *, #564, .T. ) ;
#724 = CARTESIAN_POINT ( 'NONE',  ( 1.473188927182532800E-015, -2.886751345948129500, 14.36237384174027200 ) ) ;
#725 = FACE_OUTER_BOUND ( 'NONE', #195, .T. ) ;
#726 = DIRECTION ( 'NONE',  ( -0.0000000000000000000, -3.391274194914213300E-064, -1.000000000000000000 ) ) ;
#727 = EDGE_LOOP ( 'NONE', ( #890, #269, #492, #593 ) ) ;
#728 = CARTESIAN_POINT ( 'NONE',  ( 0.0000000000000000000, -2.034764516948529600E-063, 22.00000000000000000 ) ) ;
#729 = FACE_OUTER_BOUND ( 'NONE', #840, .T. ) ;
#730 = FACE_OUTER_BOUND ( 'NONE', #302, .T. ) ;
#731 = CARTESIAN_POINT ( 'NONE',  ( 5.755839955992559700E-016, 4.700000000000000200, 22.00000000000000000 ) ) ;
#732 = EDGE_CURVE ( 'NONE', #46, #962, #897, .T. ) ;
#733 = EDGE_CURVE ( 'NONE', #326, #394, #524, .T. ) ;
#734 = CARTESIAN_POINT ( 'NONE',  ( 2.500000000000000400, -1.443375672974064800, 27.78349364905389500 ) ) ;
#735 = AXIS2_PLACEMENT_3D ( 'NONE', #929, #678, #400 ) ;
#736 = ORIENTED_EDGE ( 'NONE', *, *, #885, .F. ) ;
#737 = ORIENTED_EDGE ( 'NONE', *, *, #823, .T. ) ;
#738 = TOROIDAL_SURFACE ( 'NONE', #497, 3.408253175473056300, 0.3000000000000025400 ) ;
#739 = ORIENTED_EDGE ( 'NONE', *, *, #595, .T. ) ;
#740 = AXIS2_PLACEMENT_3D ( 'NONE', #756, #357, #364 ) ;
#741 = CALENDAR_DATE ( 2023, 11, 1 ) ;
#742 = APPROVAL_ROLE ( '' ) ;
#743 = VERTEX_POINT ( 'NONE', #535 ) ;
#744 = CARTESIAN_POINT ( 'NONE',  ( 0.0000000000000000000, 0.0000000000000000000, -3.006905983278382000 ) ) ;
#745 = FACE_OUTER_BOUND ( 'NONE', #579, .T. ) ;
#746 = DIRECTION ( 'NONE',  ( 0.0000000000000000000, 1.000000000000000000, 0.0000000000000000000 ) ) ;
#747 = VECTOR ( 'NONE', #360, 1000.000000000000000 ) ;
#748 = DIRECTION ( 'NONE',  ( 0.0000000000000000000, 1.000000000000000000, -3.391274194914213300E-064 ) ) ;
#749 = AXIS2_PLACEMENT_3D ( 'NONE', #878, #392, #469 ) ;
#750 = PLANE ( 'NONE',  #719 ) ;
#751 = ADVANCED_FACE ( 'NONE', ( #6, #729 ), #108, .T. ) ;
#752 = CARTESIAN_POINT ( 'NONE',  ( 0.0000000000000000000, -1.899113549151959700E-062, -28.00000000000000400 ) ) ;
#753 = PLANE ( 'NONE',  #447 ) ;
#754 = ORIENTED_EDGE ( 'NONE', *, *, #733, .F. ) ;
#755 = ORIENTED_EDGE ( 'NONE', *, *, #511, .F. ) ;
#756 = CARTESIAN_POINT ( 'NONE',  ( 0.0000000000000000000, 0.0000000000000000000, 28.00000000000000400 ) ) ;
#757 = FACE_OUTER_BOUND ( 'NONE', #211, .T. ) ;
#758 = VERTEX_POINT ( 'NONE', #106 ) ;
#759 = CARTESIAN_POINT ( 'NONE',  ( 2.500000000000000000, 1.443375672974064300, 14.36237384174027200 ) ) ;
#760 = EDGE_CURVE ( 'NONE', #466, #758, #639, .T. ) ;
#761 = CARTESIAN_POINT ( 'NONE',  ( 2.500000000000000000, 0.9849427059533884000, 27.57373325832185200 ) ) ;
#762 = ADVANCED_FACE ( 'NONE', ( #531 ), #58, .T. ) ;
#763 = ORIENTED_EDGE ( 'NONE', *, *, #329, .F. ) ;
#764 = CARTESIAN_POINT ( 'NONE',  ( 3.673940397442059400E-016, -2.999999999999999600, -28.00000000000000400 ) ) ;
#765 = VERTEX_POINT ( 'NONE', #406 ) ;
#766 = EDGE_CURVE ( 'NONE', #280, #538, #892, .T. ) ;
#767 = CARTESIAN_POINT ( 'NONE',  ( 4.173906342026880300E-016, -3.408253175473056300, 21.69999999999999900 ) ) ;
#768 = FACE_OUTER_BOUND ( 'NONE', #922, .T. ) ;
#769 = ORIENTED_EDGE ( 'NONE', *, *, #796, .F. ) ;
#770 = TOROIDAL_SURFACE ( 'NONE', #14, 3.408253175473056300, 0.3000000000000025400 ) ;
#771 = CARTESIAN_POINT ( 'NONE',  ( 4.173906342026880300E-016, -3.408253175473056300, 22.00000000000000700 ) ) ;
#772 = DATE_AND_TIME ( #59, #8 ) ;
#773 = DIRECTION ( 'NONE',  ( 0.0000000000000000000, 0.7071067811865454600, -0.7071067811865495700 ) ) ;
#774 = EDGE_CURVE ( 'NONE', #163, #516, #36, .T. ) ;
#775 = DIRECTION ( 'NONE',  ( -1.502314598737159500E-016, 1.000000000000000000, 0.0000000000000000000 ) ) ;
#776 = ORIENTED_EDGE ( 'NONE', *, *, #930, .F. ) ;
#777 = CARTESIAN_POINT ( 'NONE',  ( 1.025576057339865100, -2.294634733168524000, 27.40714235202777600 ) ) ;
#778 = VECTOR ( 'NONE', #523, 1000.000000000000000 ) ;
#779 = ORIENTED_EDGE ( 'NONE', *, *, #238, .T. ) ;
#780 = ORIENTED_EDGE ( 'NONE', *, *, #766, .T. ) ;
#781 = DIRECTION ( 'NONE',  ( -0.0000000000000000000, -3.391274194914213300E-064, -1.000000000000000000 ) ) ;
#782 = CARTESIAN_POINT ( 'NONE',  ( 0.0000000000000000000, -2.136502742795955500E-063, 21.70000000000000300 ) ) ;
#783 = CARTESIAN_POINT ( 'NONE',  ( 3.673940397442059900E-016, 3.000000000000000000, -27.35048094716166400 ) ) ;
#784 = CARTESIAN_POINT ( 'NONE',  ( 0.0000000000000000000, 2.358253175473056500, -3.006905983278382000 ) ) ;
#785 = CARTESIAN_POINT ( 'NONE',  ( -1.036359489711274900, -2.288408915586101600, 27.39621215275624500 ) ) ;
#786 = DIRECTION ( 'NONE',  ( 1.000000000000000000, 0.0000000000000000000, 0.0000000000000000000 ) ) ;
#787 = VERTEX_POINT ( 'NONE', #708 ) ;
#788 = ORIENTED_EDGE ( 'NONE', *, *, #654, .T. ) ;
#789 = AXIS2_PLACEMENT_3D ( 'NONE', #955, #112, #412 ) ;
#790 = DIRECTION ( 'NONE',  ( -0.0000000000000000000, -3.391274194914213300E-064, -1.000000000000000000 ) ) ;
#791 = TOROIDAL_SURFACE ( 'NONE', #661, 3.749999999999999100, 0.7500000000000000000 ) ;
#792 = DIRECTION ( 'NONE',  ( 0.0000000000000000000, 1.000000000000000000, 0.0000000000000000000 ) ) ;
#793 = DIRECTION ( 'NONE',  ( -1.224646799147353500E-016, 1.000000000000000000, 0.0000000000000000000 ) ) ;
#794 = CIRCLE ( 'NONE', #191, 0.7499999999999997800 ) ;
#795 = CARTESIAN_POINT ( 'NONE',  ( -2.499999999999999600, 1.443375672974064300, 23.00000000000000700 ) ) ;
#796 = EDGE_CURVE ( 'NONE', #384, #381, #476, .T. ) ;
#797 = PERSON_AND_ORGANIZATION_ROLE ( 'design_owner' ) ;
#798 = AXIS2_PLACEMENT_3D ( 'NONE', #176, #722, #480 ) ;
#799 = CARTESIAN_POINT ( 'NONE',  ( 2.500000000000000000, -0.2534697139020538100, 27.39674230310577100 ) ) ;
#800 = ORIENTED_EDGE ( 'NONE', *, *, #277, .F. ) ;
#801 = LINE ( 'NONE', #131, #175 ) ;
#802 = ORIENTED_EDGE ( 'NONE', *, *, #616, .T. ) ;
#803 = VERTEX_POINT ( 'NONE', #237 ) ;
#804 = CARTESIAN_POINT ( 'NONE',  ( 0.0000000000000000000, 9.495567745759798700E-063, 28.00000000000000400 ) ) ;
#805 = FACE_OUTER_BOUND ( 'NONE', #189, .T. ) ;
#806 = EDGE_CURVE ( 'NONE', #381, #891, #673, .T. ) ;
#807 = ORIENTED_EDGE ( 'NONE', *, *, #124, .F. ) ;
#808 = ORIENTED_EDGE ( 'NONE', *, *, #386, .F. ) ;
#809 = LINE ( 'NONE', #973, #375 ) ;
#810 = VERTEX_POINT ( 'NONE', #928 ) ;
#811 = ADVANCED_FACE ( 'NONE', ( #660 ), #305, .T. ) ;
#812 = AXIS2_PLACEMENT_3D ( 'NONE', #586, #679, #834 ) ;
#813 = ORIENTED_EDGE ( 'NONE', *, *, #337, .F. ) ;
#814 = VECTOR ( 'NONE', #562, 1000.000000000000000 ) ;
#815 = ADVANCED_FACE ( 'NONE', ( #102 ), #322, .T. ) ;
#816 = CARTESIAN_POINT ( 'NONE',  ( 2.499999999999999600, 1.443375672974064800, 27.78349364905389500 ) ) ;
#818 = EDGE_LOOP ( 'NONE', ( #813, #870, #128, #170 ) ) ;
#817 = APPROVAL_STATUS ( 'not_yet_approved' ) ;
#819 = APPROVAL ( #103, 'UNSPECIFIED' ) ;
#820 = PRODUCT ( '91290A340_NO THREADS_Alloy Steel Socket Head Screw', '91290A340_NO THREADS_Alloy Steel Socket Head Screw', '', ( #42 ) ) ;
#821 = ADVANCED_FACE ( 'NONE', ( #611, #81 ), #866, .T. ) ;
#822 = CARTESIAN_POINT ( 'NONE',  ( 2.304669858771506400, 1.556149582593182600, 27.67071973943476900 ) ) ;
#823 = EDGE_CURVE ( 'NONE', #538, #500, #839, .T. ) ;
#824 = LINE ( 'NONE', #374, #521 ) ;
#825 = EDGE_LOOP ( 'NONE', ( #788, #290, #837, #27, #882 ) ) ;
#826 = ORIENTED_EDGE ( 'NONE', *, *, #337, .T. ) ;
#827 = DIRECTION ( 'NONE',  ( 0.0000000000000000000, 1.000000000000000000, 0.0000000000000000000 ) ) ;
#828 = EDGE_CURVE ( 'NONE', #843, #197, #405, .T. ) ;
#829 = CALENDAR_DATE ( 2023, 11, 1 ) ;
#830 = CARTESIAN_POINT ( 'NONE',  ( 5.939536975864663000E-016, -4.700000000000000200, 28.00000000000000400 ) ) ;
#831 = CIRCLE ( 'NONE', #833, 4.700000000000000200 ) ;
#832 = DIRECTION ( 'NONE',  ( 1.000000000000000000, 0.0000000000000000000, 0.0000000000000000000 ) ) ;
#833 = AXIS2_PLACEMENT_3D ( 'NONE', #728, #109, #180 ) ;
#834 = DIRECTION ( 'NONE',  ( 0.0000000000000000000, 1.000000000000000000, 0.0000000000000000000 ) ) ;
#835 = CARTESIAN_POINT ( 'NONE',  ( 2.499999999999999600, 1.443375672974064800, 27.78349364905389500 ) ) ;
#836 = AXIS2_PLACEMENT_3D ( 'NONE', #4, #841, #529 ) ;
#837 = ORIENTED_EDGE ( 'NONE', *, *, #386, .T. ) ;
#838 = ADVANCED_FACE ( 'NONE', ( #113 ), #861, .F. ) ;
#839 = B_SPLINE_CURVE_WITH_KNOTS ( 'NONE', 3,
 ( #159, #309, #474, #26, #714, #777, #13, #311, #249, #94, #16, #857 ),
 .UNSPECIFIED., .F., .F.,
 ( 4, 2, 2, 2, 2, 4 ),
 ( 2.544340436230124600E-007, 0.0007457281437449360700, 0.001118464998595592500, 0.001491201853446249200, 0.002236675563147562500, 0.002982149272848876200 ),
 .UNSPECIFIED. ) ;
#840 = EDGE_LOOP ( 'NONE', ( #709, #123 ) ) ;
#841 = DIRECTION ( 'NONE',  ( 0.0000000000000000000, -3.391274194914213300E-064, -1.000000000000000000 ) ) ;
#842 = LINE ( 'NONE', #545, #867 ) ;
#843 = VERTEX_POINT ( 'NONE', #855 ) ;
#844 = DIRECTION ( 'NONE',  ( -0.0000000000000000000, -3.391274194914213300E-064, -1.000000000000000000 ) ) ;
#845 = ORIENTED_EDGE ( 'NONE', *, *, #155, .T. ) ;
#846 = VECTOR ( 'NONE', #259, 1000.000000000000000 ) ;
#847 = DIRECTION ( 'NONE',  ( 1.000000000000000000, 1.224646799147353200E-016, -4.153113087832708300E-080 ) ) ;
#848 = ORIENTED_EDGE ( 'NONE', *, *, #439, .T. ) ;
#849 = EDGE_CURVE ( 'NONE', #810, #232, #607, .T. ) ;
#850 = DIRECTION ( 'NONE',  ( 0.0000000000000000000, 1.000000000000000000, -3.391274194914213300E-064 ) ) ;
#851 = DIRECTION ( 'NONE',  ( -0.0000000000000000000, -3.391274194914213300E-064, -1.000000000000000000 ) ) ;
#852 = AXIS2_PLACEMENT_3D ( 'NONE', #559, #407, #625 ) ;
#853 = LINE ( 'NONE', #88, #470 ) ;
#854 = ORIENTED_EDGE ( 'NONE', *, *, #285, .T. ) ;
#855 = CARTESIAN_POINT ( 'NONE',  ( 0.0000000000000000000, 5.000000000000000000, 27.70000000000000300 ) ) ;
#856 = CONICAL_SURFACE ( 'NONE', #605, 3.103257696894238900, 0.7853981633974500600 ) ;
#857 = CARTESIAN_POINT ( 'NONE',  ( 2.500000000000000400, -1.443375672974064800, 27.78349364905389500 ) ) ;
#858 = DIRECTION ( 'NONE',  ( -1.000000000000000000, 0.0000000000000000000, -0.0000000000000000000 ) ) ;
#859 = CARTESIAN_POINT ( 'NONE',  ( 2.499999999999999600, 1.443375672974064800, 27.78349364905389500 ) ) ;
#860 = EDGE_CURVE ( 'NONE', #18, #695, #202, .T. ) ;
#861 = PLANE ( 'NONE',  #959 ) ;
#862 = CARTESIAN_POINT ( 'NONE',  ( 0.0000000000000000000, 9.495567745759798700E-063, 28.00000000000000400 ) ) ;
#863 = ORIENTED_EDGE ( 'NONE', *, *, #766, .F. ) ;
#864 = ORIENTED_EDGE ( 'NONE', *, *, #455, .F. ) ;
#865 = DIRECTION ( 'NONE',  ( -0.0000000000000000000, -3.391274194914213300E-064, -1.000000000000000000 ) ) ;
#866 = PLANE ( 'NONE',  #936 ) ;
#867 = VECTOR ( 'NONE', #636, 1000.000000000000000 ) ;
#868 = DIRECTION ( 'NONE',  ( -0.0000000000000000000, 0.0000000000000000000, 1.000000000000000000 ) ) ;
#869 = DIRECTION ( 'NONE',  ( -1.000000000000000000, 0.0000000000000000000, 0.0000000000000000000 ) ) ;
#870 = ORIENTED_EDGE ( 'NONE', *, *, #885, .T. ) ;
#871 = CARTESIAN_POINT ( 'NONE',  ( 0.0000000000000000000, -2.034764516948527400E-063, 22.00000000000000700 ) ) ;
#872 = CARTESIAN_POINT ( 'NONE',  ( 2.500000000000000000, 1.443375672974064300, 23.00000000000000700 ) ) ;
#873 = LOCAL_TIME ( 10, 57, 0.0000000000000000000, #549 ) ;
#874 = EDGE_CURVE ( 'NONE', #612, #394, #295, .T. ) ;
#875 = DIRECTION ( 'NONE',  ( 0.0000000000000000000, 1.000000000000000000, 0.0000000000000000000 ) ) ;
#876 = ORIENTED_EDGE ( 'NONE', *, *, #860, .F. ) ;
#877 = CARTESIAN_POINT ( 'NONE',  ( -2.499999999999999100, -1.443375672974065000, 27.78349364905389500 ) ) ;
#878 = CARTESIAN_POINT ( 'NONE',  ( 0.0000000000000000000, -1.056491237062712000E-062, -3.153223724790474400 ) ) ;
#879 = DIRECTION ( 'NONE',  ( -0.0000000000000000000, -3.391274194914213300E-064, -1.000000000000000000 ) ) ;
#880 = APPLICATION_CONTEXT ( 'configuration controlled 3d designs of mechanical parts and assemblies' ) ;
#881 = CARTESIAN_POINT ( 'NONE',  ( 0.0000000000000000000, -1.899113549151959700E-062, -28.00000000000000400 ) ) ;
#882 = ORIENTED_EDGE ( 'NONE', *, *, #645, .F. ) ;
#883 = DIRECTION ( 'NONE',  ( 0.0000000000000000000, 1.000000000000000000, 0.0000000000000000000 ) ) ;
#884 = COORDINATED_UNIVERSAL_TIME_OFFSET ( 6, 0, .BEHIND. ) ;
#885 = EDGE_CURVE ( 'NONE', #934, #384, #351, .T. ) ;
#886 = VECTOR ( 'NONE', #414, 1000.000000000000000 ) ;
#887 = CC_DESIGN_PERSON_AND_ORGANIZATION_ASSIGNMENT ( #420, #428, ( #633 ) ) ;
#888 = DIRECTION ( 'NONE',  ( -0.0000000000000000000, -3.391274194914213300E-064, -1.000000000000000000 ) ) ;
#889 = AXIS2_PLACEMENT_3D ( 'NONE', #871, #34, #558 ) ;
#890 = ORIENTED_EDGE ( 'NONE', *, *, #609, .F. ) ;
#891 = VERTEX_POINT ( 'NONE', #478 ) ;
#892 = B_SPLINE_CURVE_WITH_KNOTS ( 'NONE', 3,
 ( #877, #946, #174, #477, #700, #933, #547, #785, #156, #944, #395, #463 ),
 .UNSPECIFIED., .F., .F.,
 ( 4, 2, 2, 2, 2, 4 ),
 ( 2.544340436265468700E-007, 0.0007457281437449399700, 0.001118464998595596600, 0.001491201853446253100, 0.002236675563147565900, 0.002982149272848878800 ),
 .UNSPECIFIED. ) ;
#893 = AXIS2_PLACEMENT_3D ( 'NONE', #902, #437, #907 ) ;
#894 = VECTOR ( 'NONE', #781, 1000.000000000000000 ) ;
#895 = EDGE_LOOP ( 'NONE', ( #501, #424, #2, #200 ) ) ;
#896 = DATE_TIME_ROLE ( 'classification_date' ) ;
#897 = CIRCLE ( 'NONE', #208, 3.014411039697575000 ) ;
#898 = ADVANCED_FACE ( 'NONE', ( #905 ), #389, .F. ) ;
#899 = CARTESIAN_POINT ( 'NONE',  ( 1.474423942660134900, 2.035492285753670600, 27.40714235202777600 ) ) ;
#900 = ORIENTED_EDGE ( 'NONE', *, *, #540, .T. ) ;
#901 = DIRECTION ( 'NONE',  ( 0.8660254037844386000, 0.5000000000000002200, -1.695637097457107300E-064 ) ) ;
#902 = CARTESIAN_POINT ( 'NONE',  ( 0.0000000000000000000, -2.034764516948527400E-063, 22.00000000000000700 ) ) ;
#903 = EDGE_CURVE ( 'NONE', #891, #573, #794, .T. ) ;
#904 = ORIENTED_EDGE ( 'NONE', *, *, #37, .T. ) ;
#905 = FACE_OUTER_BOUND ( 'NONE', #963, .T. ) ;
#906 = FACE_OUTER_BOUND ( 'NONE', #373, .T. ) ;
#907 = DIRECTION ( 'NONE',  ( 0.0000000000000000000, 1.000000000000000000, 0.0000000000000000000 ) ) ;
#908 =( GEOMETRIC_REPRESENTATION_CONTEXT ( 3 ) GLOBAL_UNCERTAINTY_ASSIGNED_CONTEXT ( ( #590 ) ) GLOBAL_UNIT_ASSIGNED_CONTEXT ( ( #43, #563, #181 ) ) REPRESENTATION_CONTEXT ( 'NONE', 'WORKASPACE' ) );
#909 = CARTESIAN_POINT ( 'NONE',  ( 0.0000000000000000000, -2.034764516948529600E-063, 22.00000000000000000 ) ) ;
#910 = DIRECTION ( 'NONE',  ( -0.8660254037844383700, -0.5000000000000003300, 0.0000000000000000000 ) ) ;
#911 = EDGE_LOOP ( 'NONE', ( #29, #977, #117, #76 ) ) ;
#912 = VERTEX_POINT ( 'NONE', #710 ) ;
#913 = DIRECTION ( 'NONE',  ( -0.0000000000000000000, -0.0000000000000000000, 1.000000000000000000 ) ) ;
#914 = EDGE_CURVE ( 'NONE', #573, #15, #377, .T. ) ;
#915 = DIRECTION ( 'NONE',  ( 0.8660254037844384900, 0.5000000000000001100, 0.0000000000000000000 ) ) ;
#916 = VECTOR ( 'NONE', #773, 1000.000000000000000 ) ;
#917 = ORIENTED_EDGE ( 'NONE', *, *, #760, .F. ) ;
#918 = ADVANCED_FACE ( 'NONE', ( #178 ), #582, .T. ) ;
#919 = COORDINATED_UNIVERSAL_TIME_OFFSET ( 6, 0, .BEHIND. ) ;
#920 = ORIENTED_EDGE ( 'NONE', *, *, #540, .F. ) ;
#921 = AXIS2_PLACEMENT_3D ( 'NONE', #41, #490, #115 ) ;
#922 = EDGE_LOOP ( 'NONE', ( #779, #826, #301, #769 ) ) ;
#923 = CARTESIAN_POINT ( 'NONE',  ( 3.103257696894238900, 9.495567745759798700E-063, 28.00000000000000400 ) ) ;
#924 = VECTOR ( 'NONE', #713, 1000.000000000000000 ) ;
#925 = ORIENTED_EDGE ( 'NONE', *, *, #205, .T. ) ;
#926 = PERSON_AND_ORGANIZATION ( #600, #487 ) ;
#927 = LINE ( 'NONE', #721, #954 ) ;
#928 = CARTESIAN_POINT ( 'NONE',  ( -3.323254769572574300E-016, 2.886751345948130000, 27.78349364905389500 ) ) ;
#929 = CARTESIAN_POINT ( 'NONE',  ( 0.0000000000000000000, 2.702674056296396100E-127, 28.00000000000000400 ) ) ;
#930 = EDGE_CURVE ( 'NONE', #743, #280, #971, .T. ) ;
#931 = DIRECTION ( 'NONE',  ( 1.000000000000000000, 1.502314598737159500E-016, 0.0000000000000000000 ) ) ;
#932 = ORIENTED_EDGE ( 'NONE', *, *, #806, .T. ) ;
#933 = CARTESIAN_POINT ( 'NONE',  ( -1.474423942660134000, -2.035492285753670600, 27.40714235202777600 ) ) ;
#934 = VERTEX_POINT ( 'NONE', #325 ) ;
#935 = DIRECTION ( 'NONE',  ( 1.000000000000000000, 1.224646799147353200E-016, -4.153113087832708300E-080 ) ) ;
#936 = AXIS2_PLACEMENT_3D ( 'NONE', #630, #167, #850 ) ;
#937 = LINE ( 'NONE', #610, #980 ) ;
#938 = ORIENTED_EDGE ( 'NONE', *, *, #645, .T. ) ;
#939 = DIRECTION ( 'NONE',  ( 0.0000000000000000000, 1.000000000000000000, 0.0000000000000000000 ) ) ;
#940 = CARTESIAN_POINT ( 'NONE',  ( -0.3950665264161203300, 2.658659580573972100, 27.57483382634058300 ) ) ;
#941 = CARTESIAN_POINT ( 'NONE',  ( -2.303518737899372200, 1.556814182538578600, 27.67005513948903000 ) ) ;
#942 = AXIS2_PLACEMENT_3D ( 'NONE', #289, #601, #376 ) ;
#943 = CARTESIAN_POINT ( 'NONE',  ( -2.499999999999998700, 0.2537459923902239400, 27.39674230310576800 ) ) ;
#944 = CARTESIAN_POINT ( 'NONE',  ( -0.3987867435387261200, -2.656511712216791400, 27.57278725590574100 ) ) ;
#945 = DIRECTION ( 'NONE',  ( -0.4999999999999999400, -0.8660254037844387100, 0.0000000000000000000 ) ) ;
#946 = CARTESIAN_POINT ( 'NONE',  ( -2.304669858771507300, -1.556149582593183300, 27.67071973943478000 ) ) ;
#947 = EDGE_LOOP ( 'NONE', ( #932, #618, #143, #581 ) ) ;
#948 = CARTESIAN_POINT ( 'NONE',  ( 0.0000000000000000000, -1.017382258474281600E-064, 27.70000000000000300 ) ) ;
#949 = CARTESIAN_POINT ( 'NONE',  ( -2.499999999999999600, -1.443375672974064800, 23.00000000000000700 ) ) ;
#950 = LINE ( 'NONE', #462, #653 ) ;
#951 = DIRECTION ( 'NONE',  ( -0.0000000000000000000, -3.391274194914213300E-064, -1.000000000000000000 ) ) ;
#952 = DIRECTION ( 'NONE',  ( 0.0000000000000000000, 1.000000000000000000, 0.0000000000000000000 ) ) ;
#953 = CARTESIAN_POINT ( 'NONE',  ( 6.123233995736766300E-016, -5.000000000000000000, 27.70000000000000300 ) ) ;
#954 = VECTOR ( 'NONE', #349, 1000.000000000000000 ) ;
#955 = CARTESIAN_POINT ( 'NONE',  ( 0.0000000000000000000, 0.0000000000000000000, 0.0000000000000000000 ) ) ;
#956 = APPROVAL_DATE_TIME ( #449, #425 ) ;
#957 = CARTESIAN_POINT ( 'NONE',  ( 2.500000000000000000, -1.219481799914846800, 27.67154671252427900 ) ) ;
#958 = APPLICATION_PROTOCOL_DEFINITION ( 'international standard', 'config_control_design', 1994, #880 ) ;
#959 = AXIS2_PLACEMENT_3D ( 'NONE', #551, #931, #775 ) ;
#960 = EDGE_LOOP ( 'NONE', ( #629, #737, #537, #418 ) ) ;
#961 = CYLINDRICAL_SURFACE ( 'NONE', #55, 3.108253175473054700 ) ;
#962 = VERTEX_POINT ( 'NONE', #548 ) ;
#963 = EDGE_LOOP ( 'NONE', ( #588, #270, #137, #224, #341 ) ) ;
#964 = VERTEX_POINT ( 'NONE', #872 ) ;
#965 = DIRECTION ( 'NONE',  ( -0.0000000000000000000, -3.391274194914213300E-064, -1.000000000000000000 ) ) ;
#966 = VECTOR ( 'NONE', #299, 1000.000000000000000 ) ;
#967 = EDGE_CURVE ( 'NONE', #695, #18, #698, .T. ) ;
#968 = DIRECTION ( 'NONE',  ( -0.0000000000000000000, -3.391274194914213300E-064, -1.000000000000000000 ) ) ;
#969 = APPROVAL_ROLE ( '' ) ;
#970 = CARTESIAN_POINT ( 'NONE',  ( 1.036359489711275600, 2.288408915586100300, 27.39621215275624500 ) ) ;
#971 = B_SPLINE_CURVE_WITH_KNOTS ( 'NONE', 3,
 ( #166, #241, #644, #475, #717, #319 ),
 .UNSPECIFIED., .F., .F.,
 ( 4, 2, 4 ),
 ( 0.003025842580031335400, 0.003773179117946660500, 0.004520515655861985500 ),
 .UNSPECIFIED. ) ;
#972 = ADVANCED_FACE ( 'NONE', ( #496 ), #770, .F. ) ;
#973 = CARTESIAN_POINT ( 'NONE',  ( 2.878508968398382200E-016, 2.350480947161673200, -28.00000000000000400 ) ) ;
#974 = CARTESIAN_POINT ( 'NONE',  ( 5.939536975864663000E-016, 4.700000000000000200, 22.00000000000000000 ) ) ;
#975 = EDGE_CURVE ( 'NONE', #83, #803, #144, .T. ) ;
#976 = SECURITY_CLASSIFICATION ( '', '', #61 ) ;
#977 = ORIENTED_EDGE ( 'NONE', *, *, #247, .T. ) ;
#978 = CARTESIAN_POINT ( 'NONE',  ( 0.0000000000000000000, 5.000000000000000000, -28.00000000000000400 ) ) ;
#979 = EDGE_CURVE ( 'NONE', #962, #46, #70, .T. ) ;
#980 = VECTOR ( 'NONE', #218, 999.9999999999998900 ) ;
#981 = ORIENTED_EDGE ( 'NONE', *, *, #378, .T. ) ;
#982 = ORIENTED_EDGE ( 'NONE', *, *, #613, .F. ) ;
#983 = AXIS2_PLACEMENT_3D ( 'NONE', #631, #726, #312 ) ;
#984 = DIRECTION ( 'NONE',  ( 0.0000000000000000000, -1.000000000000000000, 0.0000000000000000000 ) ) ;
#985 = CARTESIAN_POINT ( 'NONE',  ( 2.500000000000000400, -1.443375672974064800, 23.00000000000000700 ) ) ;
ENDSEC;
END-ISO-10303-21;
