ISO-10303-21;
HEADER;
FILE_DESCRIPTION (( 'STEP AP203' ),
    '1' );
FILE_NAME ('91290A238_NO THREADS_Alloy Steel Socket Head Screw.STEP',
    '2023-01-11T17:14:22',
    ( 'Administrator' ),
    ( 'Managed by Terraform' ),
    'SwSTEP 2.0',
    'SolidWorks 2017',
    '' );
FILE_SCHEMA (( 'CONFIG_CONTROL_DESIGN' ));
ENDSEC;

DATA;
#1 = DATE_TIME_ROLE ( 'creation_date' ) ;
#2 = APPROVAL_DATE_TIME ( #621, #625 ) ;
#3 = VECTOR ( 'NONE', #438, 1000.000000000000000 ) ;
#4 =( NAMED_UNIT ( * ) PLANE_ANGLE_UNIT ( ) SI_UNIT ( $, .RADIAN. ) );
#5 = PRODUCT ( '91290A238_NO THREADS_Alloy Steel Socket Head Screw', '91290A238_NO THREADS_Alloy Steel Socket Head Screw', '', ( #116 ) ) ;
#6 = SECURITY_CLASSIFICATION ( '', '', #405 ) ;
#7 = AXIS2_PLACEMENT_3D ( 'NONE', #24, #259, #186 ) ;
#8 = VERTEX_POINT ( 'NONE', #734 ) ;
#9 = EDGE_CURVE ( 'NONE', #730, #708, #425, .T. ) ;
#10 = FACE_OUTER_BOUND ( 'NONE', #616, .T. ) ;
#11 = CLOSED_SHELL ( 'NONE', ( #773, #284, #579, #517, #339, #320, #257, #214, #780, #104, #648, #601, #345, #263, #86, #701, #593, #628, #761, #160, #165, #461, #270, #441 ) ) ;
#12 = EDGE_LOOP ( 'NONE', ( #162, #169, #246, #242, #155, #275 ) ) ;
#13 = DIRECTION ( 'NONE',  ( 0.0000000000000000000, 1.000000000000000000, 0.0000000000000000000 ) ) ;
#14 = COORDINATED_UNIVERSAL_TIME_OFFSET ( 6, 0, .BEHIND. ) ;
#15 = CARTESIAN_POINT ( 'NONE',  ( -0.8204602706418584500, 1.835708118644033200, 11.02571394647223200 ) ) ;
#16 = CARTESIAN_POINT ( 'NONE',  ( 1.366653690655839600E-015, -2.309401076758503800, 11.32679491924311300 ) ) ;
#17 = PERSON_AND_ORGANIZATION ( #296, #332 ) ;
#18 = CARTESIAN_POINT ( 'NONE',  ( 0.8204602706418600000, -1.835708118644034000, 11.02571394647223400 ) ) ;
#19 = EDGE_CURVE ( 'NONE', #539, #372, #51, .T. ) ;
#20 = PLANE ( 'NONE',  #729 ) ;
#21 = CARTESIAN_POINT ( 'NONE',  ( 2.000000000000000000, -2.794117558388960000E-020, 11.01739384248461000 ) ) ;
#22 = DIRECTION ( 'NONE',  ( -0.0000000000000000000, 5.636309005094523200E-057, -1.000000000000000000 ) ) ;
#23 = ORIENTED_EDGE ( 'NONE', *, *, #588, .T. ) ;
#24 = CARTESIAN_POINT ( 'NONE',  ( 0.0000000000000000000, 1.296351071171740300E-055, -11.50000000000000000 ) ) ;
#25 = FACE_OUTER_BOUND ( 'NONE', #726, .T. ) ;
#26 = ORIENTED_EDGE ( 'NONE', *, *, #424, .F. ) ;
#27 = ORIENTED_EDGE ( 'NONE', *, *, #351, .T. ) ;
#28 = CARTESIAN_POINT ( 'NONE',  ( 2.000000000000000000, 1.154700538379251700, 0.3898990733922115300 ) ) ;
#29 = DIRECTION ( 'NONE',  ( -0.5000000000000001100, -0.8660254037844386000, 0.0000000000000000000 ) ) ;
#30 = CARTESIAN_POINT ( 'NONE',  ( 0.0000000000000000000, 2.818154502547262400E-056, 6.499999999999999100 ) ) ;
#31 = DIRECTION ( 'NONE',  ( 0.4999999999999998300, 0.8660254037844388200, 0.0000000000000000000 ) ) ;
#32 = AXIS2_PLACEMENT_3D ( 'NONE', #440, #94, #753 ) ;
#33 = CARTESIAN_POINT ( 'NONE',  ( 1.680970813925579000, -1.338892124838666500, 11.15822987187723900 ) ) ;
#34 = CARTESIAN_POINT ( 'NONE',  ( 2.000000000000000000, -0.4019592973474094800, 11.04901648920299300 ) ) ;
#35 = ORIENTED_EDGE ( 'NONE', *, *, #357, .F. ) ;
#36 = COORDINATED_UNIVERSAL_TIME_OFFSET ( 6, 0, .BEHIND. ) ;
#37 = FACE_OUTER_BOUND ( 'NONE', #494, .T. ) ;
#38 = DIRECTION ( 'NONE',  ( -0.0000000000000000000, -0.0000000000000000000, 1.000000000000000000 ) ) ;
#39 = DIRECTION ( 'NONE',  ( 0.0000000000000000000, 1.000000000000000000, 0.0000000000000000000 ) ) ;
#40 = CC_DESIGN_DATE_AND_TIME_ASSIGNMENT ( #205, #164, ( #6 ) ) ;
#41 = ORIENTED_EDGE ( 'NONE', *, *, #653, .T. ) ;
#42 = CARTESIAN_POINT ( 'NONE',  ( -1.999999999999999600, 0.4007103340417713700, 11.04867898940217200 ) ) ;
#43 = CONICAL_SURFACE ( 'NONE', #580, 4.250000000000000000, 0.7853981633974482800 ) ;
#44 = PLANE ( 'NONE',  #530 ) ;
#45 = DIRECTION ( 'NONE',  ( 0.0000000000000000000, -5.636309005094523200E-057, 1.000000000000000000 ) ) ;
#46 = VERTEX_POINT ( 'NONE', #609 ) ;
#47 = ORIENTED_EDGE ( 'NONE', *, *, #19, .T. ) ;
#48 = CARTESIAN_POINT ( 'NONE',  ( 3.367778697655221000E-016, -2.750000000000000000, 6.249999999999998200 ) ) ;
#49 = CARTESIAN_POINT ( 'NONE',  ( 2.425271854633438900E-016, 1.980384757729336800, -11.50000000000000000 ) ) ;
#50 = EDGE_LOOP ( 'NONE', ( #428, #520, #469, #355 ) ) ;
#51 = B_SPLINE_CURVE_WITH_KNOTS ( 'NONE', 3,
 ( #612, #65, #668, #358, #617, #470, #548, #310, #676, #477, #122, #173 ),
 .UNSPECIFIED., .F., .F.,
 ( 4, 2, 2, 2, 2, 4 ),
 ( 2.544349856245422300E-007, 0.0005966331004600522300, 0.0008948224331972662300, 0.001193011765934480000, 0.001789390431408908700, 0.002385769096883337500 ),
 .UNSPECIFIED. ) ;
#52 = LINE ( 'NONE', #282, #502 ) ;
#53 = AXIS2_PLACEMENT_3D ( 'NONE', #87, #431, #677 ) ;
#54 = PERSON_AND_ORGANIZATION ( #296, #332 ) ;
#55 = CIRCLE ( 'NONE', #567, 1.980384757729336800 ) ;
#56 = PRODUCT_DEFINITION_FORMATION_WITH_SPECIFIED_SOURCE ( 'ANY', '', #5, .NOT_KNOWN. ) ;
#57 = PERSON_AND_ORGANIZATION_ROLE ( 'creator' ) ;
#58 = EDGE_CURVE ( 'NONE', #272, #97, #262, .T. ) ;
#59 = ORIENTED_EDGE ( 'NONE', *, *, #759, .T. ) ;
#60 = ORIENTED_EDGE ( 'NONE', *, *, #366, .T. ) ;
#61 = ORIENTED_EDGE ( 'NONE', *, *, #414, .T. ) ;
#62 = ORIENTED_EDGE ( 'NONE', *, *, #644, .F. ) ;
#63 = ORIENTED_EDGE ( 'NONE', *, *, #678, .T. ) ;
#64 = LINE ( 'NONE', #560, #658 ) ;
#65 = CARTESIAN_POINT ( 'NONE',  ( 1.843736237883320000, 1.244919463501901000, 11.23657599412046600 ) ) ;
#66 = CARTESIAN_POINT ( 'NONE',  ( 0.0000000000000000000, -6.481755355858701300E-056, 11.50000000000000000 ) ) ;
#67 = VERTEX_POINT ( 'NONE', #728 ) ;
#68 = LINE ( 'NONE', #84, #663 ) ;
#69 = DIRECTION ( 'NONE',  ( -0.0000000000000000000, 5.636309005094523200E-057, -1.000000000000000000 ) ) ;
#70 = PLANE ( 'NONE',  #717 ) ;
#71 = CIRCLE ( 'NONE', #153, 2.499999999999999100 ) ;
#72 = CARTESIAN_POINT ( 'NONE',  ( 0.0000000000000000000, 2.499999999999999600, -11.50000000000000000 ) ) ;
#73 = DIRECTION ( 'NONE',  ( -0.0000000000000000000, 5.636309005094523200E-057, -1.000000000000000000 ) ) ;
#74 = DIRECTION ( 'NONE',  ( -0.8660254037844383700, -0.5000000000000003300, 0.0000000000000000000 ) ) ;
#75 = ORIENTED_EDGE ( 'NONE', *, *, #336, .F. ) ;
#76 = CARTESIAN_POINT ( 'NONE',  ( 1.305041847610978800E-015, -2.309401076758503800, 7.500000000000000000 ) ) ;
#77 = DIRECTION ( 'NONE',  ( 0.0000000000000000000, 1.000000000000000000, 0.0000000000000000000 ) ) ;
#78 = ORIENTED_EDGE ( 'NONE', *, *, #528, .F. ) ;
#79 = CARTESIAN_POINT ( 'NONE',  ( -2.482606157515390600, 3.040315684344732800E-016, 11.50000000000000000 ) ) ;
#80 = PRODUCT_RELATED_PRODUCT_CATEGORY ( 'detail', '', ( #5 ) ) ;
#81 = ORIENTED_EDGE ( 'NONE', *, *, #591, .T. ) ;
#82 = ORIENTED_EDGE ( 'NONE', *, *, #176, .F. ) ;
#83 = FACE_OUTER_BOUND ( 'NONE', #457, .T. ) ;
#84 = CARTESIAN_POINT ( 'NONE',  ( 3.061616997868382600E-016, -2.499999999999999600, -11.50000000000000000 ) ) ;
#85 = AXIS2_PLACEMENT_3D ( 'NONE', #453, #158, #217 ) ;
#86 = ADVANCED_FACE ( 'NONE', ( #435 ), #43, .T. ) ;
#87 = CARTESIAN_POINT ( 'NONE',  ( 2.000000000000000000, -1.154700538379251700, 0.3898990733922115300 ) ) ;
#88 = DIRECTION ( 'NONE',  ( -0.0000000000000000000, 5.636309005094523200E-057, -1.000000000000000000 ) ) ;
#89 = PLANE ( 'NONE',  #285 ) ;
#90 = DIRECTION ( 'NONE',  ( -0.0000000000000000000, 5.636309005094523200E-057, -1.000000000000000000 ) ) ;
#91 = ORIENTED_EDGE ( 'NONE', *, *, #767, .F. ) ;
#92 = CARTESIAN_POINT ( 'NONE',  ( 2.000000000000000000, 0.4007103340417718100, 11.04867898940217700 ) ) ;
#93 = CIRCLE ( 'NONE', #400, 2.482606157515390600 ) ;
#94 = DIRECTION ( 'NONE',  ( -0.0000000000000000000, 5.636309005094523200E-057, -1.000000000000000000 ) ) ;
#95 = EDGE_CURVE ( 'NONE', #557, #452, #323, .T. ) ;
#96 = CARTESIAN_POINT ( 'NONE',  ( -1.999999999999999600, -1.154700538379251700, 7.500000000000000000 ) ) ;
#97 = VERTEX_POINT ( 'NONE', #126 ) ;
#98 = ORIENTED_EDGE ( 'NONE', *, *, #357, .T. ) ;
#99 = CONICAL_SURFACE ( 'NONE', #347, 1.980384757729336800, 0.7853981633974432800 ) ;
#100 = EDGE_CURVE ( 'NONE', #251, #655, #403, .T. ) ;
#101 = ORIENTED_EDGE ( 'NONE', *, *, #265, .F. ) ;
#102 = ORIENTED_EDGE ( 'NONE', *, *, #506, .T. ) ;
#103 = CARTESIAN_POINT ( 'NONE',  ( 0.0000000000000000000, -1.980384757729336800, -11.50000000000000000 ) ) ;
#104 = ADVANCED_FACE ( 'NONE', ( #295 ), #594, .T. ) ;
#105 = DIRECTION ( 'NONE',  ( 0.0000000000000000000, 1.000000000000000000, 0.0000000000000000000 ) ) ;
#106 = CARTESIAN_POINT ( 'NONE',  ( -1.999999999999999600, 0.7879654491844457800, 11.15899140631131900 ) ) ;
#107 = CARTESIAN_POINT ( 'NONE',  ( 0.0000000000000000000, 2.959062227674625900E-056, 6.249999999999998200 ) ) ;
#108 = AXIS2_PLACEMENT_3D ( 'NONE', #475, #69, #13 ) ;
#109 = VECTOR ( 'NONE', #486, 999.9999999999998900 ) ;
#110 = CALENDAR_DATE ( 2023, 11, 1 ) ;
#111 = LINE ( 'NONE', #685, #712 ) ;
#112 = EDGE_LOOP ( 'NONE', ( #193, #373, #341, #192, #409, #250, #427 ) ) ;
#113 = DIRECTION ( 'NONE',  ( 0.0000000000000000000, 0.0000000000000000000, 1.000000000000000000 ) ) ;
#114 = PERSON_AND_ORGANIZATION_ROLE ( 'design_supplier' ) ;
#115 = VERTEX_POINT ( 'NONE', #422 ) ;
#116 = MECHANICAL_CONTEXT ( 'NONE', #602, 'mechanical' ) ;
#117 = ORIENTED_EDGE ( 'NONE', *, *, #322, .T. ) ;
#118 = ORIENTED_EDGE ( 'NONE', *, *, #135, .F. ) ;
#119 = FACE_OUTER_BOUND ( 'NONE', #632, .T. ) ;
#120 = CC_DESIGN_PERSON_AND_ORGANIZATION_ASSIGNMENT ( #524, #57, ( #585 ) ) ;
#121 = EDGE_CURVE ( 'NONE', #67, #490, #232, .T. ) ;
#122 = CARTESIAN_POINT ( 'NONE',  ( 0.1571849286460655900, 2.218650315892143300, 11.23604415837631400 ) ) ;
#123 = CIRCLE ( 'NONE', #85, 4.250000000000000000 ) ;
#124 = VECTOR ( 'NONE', #444, 1000.000000000000000 ) ;
#125 = VERTEX_POINT ( 'NONE', #673 ) ;
#126 = CARTESIAN_POINT ( 'NONE',  ( 0.0000000000000000000, -4.000000000000000000, 6.499999999999999100 ) ) ;
#127 = DIRECTION ( 'NONE',  ( -0.5000000000000004400, 0.8660254037844384900, 0.0000000000000000000 ) ) ;
#128 = AXIS2_PLACEMENT_3D ( 'NONE', #248, #138, #77 ) ;
#129 = DIRECTION ( 'NONE',  ( -0.0000000000000000000, 5.636309005094523200E-057, -1.000000000000000000 ) ) ;
#130 = TOROIDAL_SURFACE ( 'NONE', #32, 2.750000000000000000, 0.2500000000000006700 ) ;
#131 = CARTESIAN_POINT ( 'NONE',  ( -1.179539729358141100, -1.628393496493722800, 11.02571394647223000 ) ) ;
#132 = CARTESIAN_POINT ( 'NONE',  ( 0.0000000000000000000, 2.750000000000000000, 6.249999999999998200 ) ) ;
#133 = CARTESIAN_POINT ( 'NONE',  ( -0.3160526121494186000, 2.126928016055951200, 11.15986732932250900 ) ) ;
#134 = FACE_BOUND ( 'NONE', #324, .T. ) ;
#135 = EDGE_CURVE ( 'NONE', #212, #704, #525, .T. ) ;
#136 = CARTESIAN_POINT ( 'NONE',  ( -1.999999999999999600, -1.154700538379251700, 0.3898990733922115300 ) ) ;
#137 = DIRECTION ( 'NONE',  ( -0.0000000000000000000, 0.0000000000000000000, 1.000000000000000000 ) ) ;
#138 = DIRECTION ( 'NONE',  ( -0.0000000000000000000, 5.636309005094523200E-057, -1.000000000000000000 ) ) ;
#139 = PLANE ( 'NONE',  #53 ) ;
#140 = ORIENTED_EDGE ( 'NONE', *, *, #751, .T. ) ;
#141 = PRODUCT_DEFINITION_SHAPE ( 'NONE', 'NONE',  #585 ) ;
#142 = DIRECTION ( 'NONE',  ( 0.0000000000000000000, 1.000000000000000000, 5.636309005094523200E-057 ) ) ;
#143 = CONICAL_SURFACE ( 'NONE', #236, 4.000000000000000000, 0.7853981633974482800 ) ;
#144 = CARTESIAN_POINT ( 'NONE',  ( 2.000000000000000000, 1.154700538379251700, 11.32679491924311300 ) ) ;
#145 = AXIS2_PLACEMENT_3D ( 'NONE', #768, #515, #650 ) ;
#146 = AXIS2_PLACEMENT_3D ( 'NONE', #148, #147, #569 ) ;
#147 = DIRECTION ( 'NONE',  ( -0.0000000000000000000, 5.636309005094523200E-057, -1.000000000000000000 ) ) ;
#148 = CARTESIAN_POINT ( 'NONE',  ( 0.0000000000000000000, 4.000000000000000000, 6.500000000000000000 ) ) ;
#149 = CARTESIAN_POINT ( 'NONE',  ( -1.999999999999999100, -0.7871477057689991700, 11.15877676308343800 ) ) ;
#150 = CARTESIAN_POINT ( 'NONE',  ( 2.482606157515390600, -6.481755355858701300E-056, 11.50000000000000000 ) ) ;
#151 = LINE ( 'NONE', #402, #183 ) ;
#152 = CARTESIAN_POINT ( 'NONE',  ( 3.061616997868382600E-016, 2.499999999999999600, -10.98038475772933300 ) ) ;
#153 = AXIS2_PLACEMENT_3D ( 'NONE', #107, #584, #105 ) ;
#154 = CARTESIAN_POINT ( 'NONE',  ( 0.0000000000000000000, -1.980384757729336800, -11.50000000000000000 ) ) ;
#155 = ORIENTED_EDGE ( 'NONE', *, *, #532, .T. ) ;
#156 = AXIS2_PLACEMENT_3D ( 'NONE', #209, #271, #575 ) ;
#157 = CARTESIAN_POINT ( 'NONE',  ( 0.0000000000000000000, 1.267063950479794800E-055, -10.98038475772933300 ) ) ;
#158 = DIRECTION ( 'NONE',  ( -0.0000000000000000000, 5.636309005094523200E-057, -1.000000000000000000 ) ) ;
#159 = FACE_OUTER_BOUND ( 'NONE', #662, .T. ) ;
#160 = ADVANCED_FACE ( 'NONE', ( #340 ), #20, .F. ) ;
#161 = ORIENTED_EDGE ( 'NONE', *, *, #265, .T. ) ;
#162 = ORIENTED_EDGE ( 'NONE', *, *, #121, .T. ) ;
#163 = CARTESIAN_POINT ( 'NONE',  ( -4.219002219999588900E-016, 2.309401076758502900, 7.500000000000000000 ) ) ;
#164 = DATE_TIME_ROLE ( 'classification_date' ) ;
#165 = ADVANCED_FACE ( 'NONE', ( #170 ), #89, .F. ) ;
#166 = EDGE_CURVE ( 'NONE', #722, #251, #741, .T. ) ;
#167 = LINE ( 'NONE', #484, #605 ) ;
#168 = EDGE_CURVE ( 'NONE', #563, #439, #354, .T. ) ;
#169 = ORIENTED_EDGE ( 'NONE', *, *, #207, .T. ) ;
#170 = FACE_OUTER_BOUND ( 'NONE', #218, .T. ) ;
#171 = VERTEX_POINT ( 'NONE', #570 ) ;
#172 = ORIENTED_EDGE ( 'NONE', *, *, #58, .T. ) ;
#173 = CARTESIAN_POINT ( 'NONE',  ( -1.913804328009006300E-016, 2.309401076758502900, 11.32679491924311300 ) ) ;
#174 = CC_DESIGN_PERSON_AND_ORGANIZATION_ASSIGNMENT ( #364, #719, ( #6 ) ) ;
#175 = CARTESIAN_POINT ( 'NONE',  ( 0.0000000000000000000, 2.818154502547262400E-056, 6.499999999999999100 ) ) ;
#176 = EDGE_CURVE ( 'NONE', #716, #352, #725, .T. ) ;
#177 = ORIENTED_EDGE ( 'NONE', *, *, #473, .F. ) ;
#178 = DIRECTION ( 'NONE',  ( 1.000000000000000000, 0.0000000000000000000, 0.0000000000000000000 ) ) ;
#179 = CC_DESIGN_APPROVAL ( #625, ( #585 ) ) ;
#180 = VECTOR ( 'NONE', #449, 1000.000000000000000 ) ;
#181 = DIRECTION ( 'NONE',  ( 0.0000000000000000000, 1.000000000000000000, 0.0000000000000000000 ) ) ;
#182 = CARTESIAN_POINT ( 'NONE',  ( -0.1562637621166803900, 2.219182151635854100, 11.23657599412046400 ) ) ;
#183 = VECTOR ( 'NONE', #705, 1000.000000000000000 ) ;
#184 = CARTESIAN_POINT ( 'NONE',  ( 0.3160526121494198200, -2.126928016055951600, 11.15986732932250900 ) ) ;
#185 = CARTESIAN_POINT ( 'NONE',  ( -0.1571849286460652600, -2.218650315892145100, 11.23604415837631400 ) ) ;
#186 = DIRECTION ( 'NONE',  ( 0.0000000000000000000, 1.000000000000000000, 0.0000000000000000000 ) ) ;
#187 = CARTESIAN_POINT ( 'NONE',  ( 0.5643101117206721400, -1.983596481850146400, 11.07766592540637300 ) ) ;
#188 = ORIENTED_EDGE ( 'NONE', *, *, #664, .F. ) ;
#189 = CARTESIAN_POINT ( 'NONE',  ( -1.683947387850580800, -1.337173599081803200, 11.15986732932250900 ) ) ;
#190 = CARTESIAN_POINT ( 'NONE',  ( 2.000000000000000000, -1.154700538379251700, 7.500000000000000000 ) ) ;
#191 = CARTESIAN_POINT ( 'NONE',  ( 1.342526258967434300, -1.534293179749514500, 11.04749635786750000 ) ) ;
#192 = ORIENTED_EDGE ( 'NONE', *, *, #19, .F. ) ;
#193 = ORIENTED_EDGE ( 'NONE', *, *, #537, .F. ) ;
#194 = ORIENTED_EDGE ( 'NONE', *, *, #588, .F. ) ;
#195 = DIRECTION ( 'NONE',  ( -0.8660254037844387100, 0.4999999999999997800, 0.0000000000000000000 ) ) ;
#196 = AXIS2_PLACEMENT_3D ( 'NONE', #639, #498, #582 ) ;
#197 = LOCAL_TIME ( 11, 14, 22.00000000000000000, #14 ) ;
#198 = CARTESIAN_POINT ( 'NONE',  ( 2.000000000000000000, 1.154700538379251700, 7.500000000000000000 ) ) ;
#199 = CARTESIAN_POINT ( 'NONE',  ( 0.0000000000000000000, 4.000000000000000000, 7.500000000000000000 ) ) ;
#200 = DIRECTION ( 'NONE',  ( -1.000000000000000000, 0.0000000000000000000, -0.0000000000000000000 ) ) ;
#201 = ORIENTED_EDGE ( 'NONE', *, *, #671, .F. ) ;
#202 = DIRECTION ( 'NONE',  ( 0.0000000000000000000, 1.000000000000000000, 0.0000000000000000000 ) ) ;
#203 = CIRCLE ( 'NONE', #638, 2.499999999999999600 ) ;
#204 = CARTESIAN_POINT ( 'NONE',  ( 0.0000000000000000000, 0.0000000000000000000, 6.249999999999998200 ) ) ;
#205 = DATE_AND_TIME ( #299, #458 ) ;
#206 = CARTESIAN_POINT ( 'NONE',  ( -1.999999999999999600, -0.4019592973474093700, 11.04901648920299600 ) ) ;
#207 = EDGE_CURVE ( 'NONE', #490, #125, #554, .T. ) ;
#208 = FACE_OUTER_BOUND ( 'NONE', #534, .T. ) ;
#209 = CARTESIAN_POINT ( 'NONE',  ( 0.0000000000000000000, 1.296351071171740300E-055, -11.50000000000000000 ) ) ;
#210 = CARTESIAN_POINT ( 'NONE',  ( 1.305041847610978800E-015, -2.309401076758503800, 0.3898990733922115300 ) ) ;
#211 = CARTESIAN_POINT ( 'NONE',  ( 1.305041847610978800E-015, -2.309401076758503800, 0.3898990733922115300 ) ) ;
#212 = VERTEX_POINT ( 'NONE', #377 ) ;
#213 = EDGE_CURVE ( 'NONE', #272, #743, #619, .T. ) ;
#214 = ADVANCED_FACE ( 'NONE', ( #383 ), #381, .T. ) ;
#215 = EDGE_LOOP ( 'NONE', ( #102, #738 ) ) ;
#216 = DIRECTION ( 'NONE',  ( -0.0000000000000000000, -0.0000000000000000000, 1.000000000000000000 ) ) ;
#217 = DIRECTION ( 'NONE',  ( 0.0000000000000000000, 1.000000000000000000, 0.0000000000000000000 ) ) ;
#218 = EDGE_LOOP ( 'NONE', ( #117, #727, #686, #467, #397 ) ) ;
#219 = ORIENTED_EDGE ( 'NONE', *, *, #166, .T. ) ;
#220 = FACE_OUTER_BOUND ( 'NONE', #112, .T. ) ;
#221 = CARTESIAN_POINT ( 'NONE',  ( 0.0000000000000000000, 6.353595840181922500E-113, 11.50000000000000000 ) ) ;
#222 = CARTESIAN_POINT ( 'NONE',  ( -1.999999999999999600, 1.154700538379250800, 11.32679491924311100 ) ) ;
#223 = EDGE_LOOP ( 'NONE', ( #611, #630 ) ) ;
#224 = DIRECTION ( 'NONE',  ( 0.0000000000000000000, -1.000000000000000000, -5.636309005094523200E-057 ) ) ;
#225 = ORIENTED_EDGE ( 'NONE', *, *, #253, .F. ) ;
#226 = UNCERTAINTY_MEASURE_WITH_UNIT (LENGTH_MEASURE( 1.000000000000000100E-005 ), #466, 'distance_accuracy_value', 'NONE');
#227 = APPLICATION_PROTOCOL_DEFINITION ( 'international standard', 'config_control_design', 1994, #721 ) ;
#228 = FACE_OUTER_BOUND ( 'NONE', #12, .T. ) ;
#229 = CARTESIAN_POINT ( 'NONE',  ( 0.0000000000000000000, 1.296351071171740300E-055, -11.50000000000000000 ) ) ;
#230 = DIRECTION ( 'NONE',  ( 0.0000000000000000000, -5.636309005094523200E-057, 1.000000000000000000 ) ) ;
#231 = ORIENTED_EDGE ( 'NONE', *, *, #488, .F. ) ;
#232 = LINE ( 'NONE', #76, #109 ) ;
#233 = ORIENTED_EDGE ( 'NONE', *, *, #491, .T. ) ;
#234 = VERTEX_POINT ( 'NONE', #552 ) ;
#235 = VECTOR ( 'NONE', #690, 1000.000000000000000 ) ;
#236 = AXIS2_PLACEMENT_3D ( 'NONE', #335, #45, #771 ) ;
#237 = VERTEX_POINT ( 'NONE', #562 ) ;
#238 = DIRECTION ( 'NONE',  ( 0.0000000000000000000, -1.000000000000000000, 0.0000000000000000000 ) ) ;
#239 = DIRECTION ( 'NONE',  ( -0.0000000000000000000, 5.636309005094523200E-057, -1.000000000000000000 ) ) ;
#240 = DIRECTION ( 'NONE',  ( 0.0000000000000000000, 1.000000000000000000, 0.0000000000000000000 ) ) ;
#241 = AXIS2_PLACEMENT_3D ( 'NONE', #175, #239, #181 ) ;
#242 = ORIENTED_EDGE ( 'NONE', *, *, #671, .T. ) ;
#243 = CARTESIAN_POINT ( 'NONE',  ( 0.0000000000000000000, 1.296351071171740300E-055, -11.50000000000000000 ) ) ;
#244 = CARTESIAN_POINT ( 'NONE',  ( -0.5643101117206708000, 1.983596481850145900, 11.07766592540637200 ) ) ;
#245 = APPROVAL ( #781, 'UNSPECIFIED' ) ;
#246 = ORIENTED_EDGE ( 'NONE', *, *, #253, .T. ) ;
#247 = CARTESIAN_POINT ( 'NONE',  ( -0.8290879766986539700, -1.830726910229653100, 11.01696967128637000 ) ) ;
#248 = CARTESIAN_POINT ( 'NONE',  ( 0.0000000000000000000, 1.409077251273633100E-057, 11.25000000000000000 ) ) ;
#249 = FACE_OUTER_BOUND ( 'NONE', #772, .T. ) ;
#250 = ORIENTED_EDGE ( 'NONE', *, *, #644, .T. ) ;
#251 = VERTEX_POINT ( 'NONE', #318 ) ;
#252 = FACE_OUTER_BOUND ( 'NONE', #379, .T. ) ;
#253 = EDGE_CURVE ( 'NONE', #125, #587, #707, .T. ) ;
#254 = CARTESIAN_POINT ( 'NONE',  ( 2.000000000000000000, -0.2028068474274599700, 11.01739384248461000 ) ) ;
#255 = CARTESIAN_POINT ( 'NONE',  ( -1.680970813925578800, 1.338892124838665600, 11.15822987187723900 ) ) ;
#256 = CARTESIAN_POINT ( 'NONE',  ( 0.0000000000000000000, 1.296351071171740300E-055, -11.50000000000000000 ) ) ;
#257 = ADVANCED_FACE ( 'NONE', ( #603 ), #99, .T. ) ;
#258 = DIRECTION ( 'NONE',  ( 0.0000000000000000000, -1.000000000000000000, -5.636309005094523200E-057 ) ) ;
#259 = DIRECTION ( 'NONE',  ( -0.0000000000000000000, 5.636309005094523200E-057, -1.000000000000000000 ) ) ;
#260 = CARTESIAN_POINT ( 'NONE',  ( 2.000000000000000000, -1.154700538379251700, 11.32679491924311300 ) ) ;
#261 = CC_DESIGN_APPROVAL ( #297, ( #6 ) ) ;
#262 = CIRCLE ( 'NONE', #108, 4.000000000000000000 ) ;
#263 = ADVANCED_FACE ( 'NONE', ( #393 ), #776, .T. ) ;
#264 = DIRECTION ( 'NONE',  ( 0.0000000000000000000, 1.000000000000000000, 5.636309005094523200E-057 ) ) ;
#265 = EDGE_CURVE ( 'NONE', #8, #234, #68, .T. ) ;
#266 = CARTESIAN_POINT ( 'NONE',  ( -1.999999999999999600, -1.154700538379251700, 0.3898990733922115300 ) ) ;
#267 = DATE_AND_TIME ( #496, #417 ) ;
#268 = FACE_OUTER_BOUND ( 'NONE', #509, .T. ) ;
#269 = AXIS2_PLACEMENT_3D ( 'NONE', #157, #777, #290 ) ;
#270 = ADVANCED_FACE ( 'NONE', ( #25 ), #755, .F. ) ;
#271 = DIRECTION ( 'NONE',  ( -0.0000000000000000000, 5.636309005094523200E-057, -1.000000000000000000 ) ) ;
#272 = VERTEX_POINT ( 'NONE', #326 ) ;
#273 = CARTESIAN_POINT ( 'NONE',  ( 2.000000000000000000, -1.154700538379251700, 11.32679491924311300 ) ) ;
#274 = DIRECTION ( 'NONE',  ( 0.0000000000000000000, 1.000000000000000000, 0.0000000000000000000 ) ) ;
#275 = ORIENTED_EDGE ( 'NONE', *, *, #604, .T. ) ;
#276 = ORIENTED_EDGE ( 'NONE', *, *, #659, .F. ) ;
#277 = ORIENTED_EDGE ( 'NONE', *, *, #168, .T. ) ;
#278 = DIRECTION ( 'NONE',  ( 0.0000000000000000000, 0.0000000000000000000, 1.000000000000000000 ) ) ;
#279 = CONICAL_SURFACE ( 'NONE', #749, 4.000000000000000000, 0.7853981633974482800 ) ;
#280 = CARTESIAN_POINT ( 'NONE',  ( -1.913804328009006300E-016, 2.309401076758502900, 11.32679491924311300 ) ) ;
#281 = DIRECTION ( 'NONE',  ( 1.000000000000000000, 0.0000000000000000000, 0.0000000000000000000 ) ) ;
#282 = CARTESIAN_POINT ( 'NONE',  ( -4.219002219999588900E-016, 2.309401076758502900, 0.3898990733922115300 ) ) ;
#283 = DESIGN_CONTEXT ( 'detailed design', #721, 'design' ) ;
#284 = ADVANCED_FACE ( 'NONE', ( #696 ), #445, .T. ) ;
#285 = AXIS2_PLACEMENT_3D ( 'NONE', #433, #200, #137 ) ;
#286 = DIRECTION ( 'NONE',  ( -1.224646799147353000E-016, 1.000000000000000000, 0.0000000000000000000 ) ) ;
#287 = VECTOR ( 'NONE', #511, 1000.000000000000000 ) ;
#288 = PLANE ( 'NONE',  #661 ) ;
#289 = TOROIDAL_SURFACE ( 'NONE', #331, 2.750000000000000000, 0.2500000000000006700 ) ;
#290 = DIRECTION ( 'NONE',  ( 0.0000000000000000000, 1.000000000000000000, 0.0000000000000000000 ) ) ;
#291 = ORIENTED_EDGE ( 'NONE', *, *, #390, .F. ) ;
#292 = DIRECTION ( 'NONE',  ( 1.000000000000000000, 0.0000000000000000000, 0.0000000000000000000 ) ) ;
#293 = AXIS2_PLACEMENT_3D ( 'NONE', #497, #691, #637 ) ;
#294 = PERSON_AND_ORGANIZATION_ROLE ( 'design_owner' ) ;
#295 = FACE_OUTER_BOUND ( 'NONE', #666, .T. ) ;
#296 = PERSON ( 'UNSPECIFIED', 'UNSPECIFIED', 'UNSPECIFIED', ('UNSPECIFIED'), ('UNSPECIFIED'), ('UNSPECIFIED') ) ;
#297 = APPROVAL ( #529, 'UNSPECIFIED' ) ;
#298 = APPROVAL_ROLE ( '' ) ;
#299 = CALENDAR_DATE ( 2023, 11, 1 ) ;
#300 = CIRCLE ( 'NONE', #304, 4.250000000000000000 ) ;
#301 = EDGE_CURVE ( 'NONE', #46, #212, #607, .T. ) ;
#302 = ORIENTED_EDGE ( 'NONE', *, *, #473, .T. ) ;
#303 = LINE ( 'NONE', #333, #287 ) ;
#304 = AXIS2_PLACEMENT_3D ( 'NONE', #451, #338, #39 ) ;
#305 = LOCAL_TIME ( 11, 14, 22.00000000000000000, #36 ) ;
#306 = DIRECTION ( 'NONE',  ( 0.0000000000000000000, 1.000000000000000000, 0.0000000000000000000 ) ) ;
#307 = AXIS2_PLACEMENT_3D ( 'NONE', #243, #312, #739 ) ;
#308 = CARTESIAN_POINT ( 'NONE',  ( 0.1562637621166816400, -2.219182151635855000, 11.23657599412046400 ) ) ;
#309 = CC_DESIGN_PERSON_AND_ORGANIZATION_ASSIGNMENT ( #17, #294, ( #5 ) ) ;
#310 = CARTESIAN_POINT ( 'NONE',  ( 0.8290879766986543100, 1.830726910229652600, 11.01696967128636800 ) ) ;
#311 = CARTESIAN_POINT ( 'NONE',  ( -2.482606157515390600, 3.040315684344732800E-016, 11.50000000000000000 ) ) ;
#312 = DIRECTION ( 'NONE',  ( -0.0000000000000000000, 5.636309005094523200E-057, -1.000000000000000000 ) ) ;
#313 = COORDINATED_UNIVERSAL_TIME_OFFSET ( 6, 0, .BEHIND. ) ;
#314 = CIRCLE ( 'NONE', #692, 2.750000000000000000 ) ;
#315 = CARTESIAN_POINT ( 'NONE',  ( -1.435689888279328100, -1.480505133287608900, 11.07766592540636600 ) ) ;
#316 = DIRECTION ( 'NONE',  ( -1.000000000000000000, 0.0000000000000000000, 0.0000000000000000000 ) ) ;
#317 = CARTESIAN_POINT ( 'NONE',  ( 0.0000000000000000000, 2.818154502547262400E-056, 6.499999999999999100 ) ) ;
#318 = CARTESIAN_POINT ( 'NONE',  ( 0.0000000000000000000, 2.750000000000000000, 6.499999999999999100 ) ) ;
#319 = ORIENTED_EDGE ( 'NONE', *, *, #759, .F. ) ;
#320 = ADVANCED_FACE ( 'NONE', ( #249 ), #533, .T. ) ;
#321 = CARTESIAN_POINT ( 'NONE',  ( 4.898587196589412800E-016, 4.000000000000000000, 6.499999999999999100 ) ) ;
#322 = EDGE_CURVE ( 'NONE', #115, #599, #370, .T. ) ;
#323 = CIRCLE ( 'NONE', #519, 2.482606157515390600 ) ;
#324 = EDGE_LOOP ( 'NONE', ( #571, #319 ) ) ;
#325 = ORIENTED_EDGE ( 'NONE', *, *, #537, .T. ) ;
#326 = CARTESIAN_POINT ( 'NONE',  ( 5.051668046482832700E-016, 4.000000000000000000, 6.499999999999999100 ) ) ;
#327 = CARTESIAN_POINT ( 'NONE',  ( 2.000000000000000000, -2.794117558388960000E-020, 11.01739384248461000 ) ) ;
#328 = DIRECTION ( 'NONE',  ( 0.8660254037844386000, -0.5000000000000001100, -2.818154502547261600E-057 ) ) ;
#329 = CARTESIAN_POINT ( 'NONE',  ( -1.999999999999999600, 2.449014171760785600E-016, 11.01739384248461000 ) ) ;
#330 = PLANE ( 'NONE',  #146 ) ;
#331 = AXIS2_PLACEMENT_3D ( 'NONE', #204, #643, #576 ) ;
#332 = ORGANIZATION ( 'UNSPECIFIED', 'UNSPECIFIED', '' ) ;
#333 = CARTESIAN_POINT ( 'NONE',  ( 0.0000000000000000000, -4.000000000000000000, 6.499999999999999100 ) ) ;
#334 = DIRECTION ( 'NONE',  ( -0.0000000000000000000, -0.0000000000000000000, 1.000000000000000000 ) ) ;
#335 = CARTESIAN_POINT ( 'NONE',  ( 0.0000000000000000000, 2.818154502547262400E-056, 6.499999999999999100 ) ) ;
#336 = EDGE_CURVE ( 'NONE', #97, #272, #684, .T. ) ;
#337 = ORIENTED_EDGE ( 'NONE', *, *, #443, .T. ) ;
#338 = DIRECTION ( 'NONE',  ( -0.0000000000000000000, 5.636309005094523200E-057, -1.000000000000000000 ) ) ;
#339 = ADVANCED_FACE ( 'NONE', ( #492 ), #130, .F. ) ;
#340 = FACE_OUTER_BOUND ( 'NONE', #50, .T. ) ;
#341 = ORIENTED_EDGE ( 'NONE', *, *, #491, .F. ) ;
#342 = VERTEX_POINT ( 'NONE', #521 ) ;
#343 = PERSON_AND_ORGANIZATION ( #296, #332 ) ;
#344 = APPROVAL_DATE_TIME ( #267, #245 ) ;
#345 = ADVANCED_FACE ( 'NONE', ( #10 ), #143, .T. ) ;
#346 = LOCAL_TIME ( 11, 14, 22.00000000000000000, #362 ) ;
#347 = AXIS2_PLACEMENT_3D ( 'NONE', #624, #487, #566 ) ;
#348 = ORIENTED_EDGE ( 'NONE', *, *, #629, .T. ) ;
#349 = LINE ( 'NONE', #210, #180 ) ;
#350 = APPROVAL_STATUS ( 'not_yet_approved' ) ;
#351 = EDGE_CURVE ( 'NONE', #490, #563, #649, .T. ) ;
#352 = VERTEX_POINT ( 'NONE', #765 ) ;
#353 = VECTOR ( 'NONE', #503, 1000.000000000000000 ) ;
#354 = B_SPLINE_CURVE_WITH_KNOTS ( 'NONE', 3,
 ( #378, #683, #626, #34, #254, #21 ),
 .UNSPECIFIED., .F., .F.,
 ( 4, 2, 4 ),
 ( 0.001517727176620193700, 0.002116022710546876100, 0.002714318244473558400 ),
 .UNSPECIFIED. ) ;
#355 = ORIENTED_EDGE ( 'NONE', *, *, #604, .F. ) ;
#356 = ORIENTED_EDGE ( 'NONE', *, *, #724, .F. ) ;
#357 = EDGE_CURVE ( 'NONE', #97, #171, #303, .T. ) ;
#358 = CARTESIAN_POINT ( 'NONE',  ( 1.435689888279328100, 1.480505133287608500, 11.07766592540636500 ) ) ;
#359 = ORIENTED_EDGE ( 'NONE', *, *, #659, .T. ) ;
#360 = CARTESIAN_POINT ( 'NONE',  ( 0.0000000000000000000, 1.296351071171740300E-055, -11.50000000000000000 ) ) ;
#361 = EDGE_CURVE ( 'NONE', #599, #46, #415, .T. ) ;
#362 = COORDINATED_UNIVERSAL_TIME_OFFSET ( 6, 0, .BEHIND. ) ;
#363 = DIRECTION ( 'NONE',  ( 8.659560562354931600E-017, -0.7071067811865474600, -0.7071067811865475700 ) ) ;
#364 = PERSON_AND_ORGANIZATION ( #296, #332 ) ;
#365 = FACE_OUTER_BOUND ( 'NONE', #682, .T. ) ;
#366 = EDGE_CURVE ( 'NONE', #237, #342, #123, .T. ) ;
#367 = CARTESIAN_POINT ( 'NONE',  ( 0.0000000000000000000, 2.959062227674625900E-056, 6.249999999999998200 ) ) ;
#368 = ORIENTED_EDGE ( 'NONE', *, *, #166, .F. ) ;
#369 = CARTESIAN_POINT ( 'NONE',  ( -1.090980571936515800, -1.679523149870304000, 11.01761271046850700 ) ) ;
#370 = LINE ( 'NONE', #697, #353 ) ;
#371 = EDGE_CURVE ( 'NONE', #67, #704, #349, .T. ) ;
#372 = VERTEX_POINT ( 'NONE', #280 ) ;
#373 = ORIENTED_EDGE ( 'NONE', *, *, #361, .F. ) ;
#374 = DIRECTION ( 'NONE',  ( -0.8660254037844387100, 0.4999999999999997800, 2.818154502547259900E-057 ) ) ;
#375 = DIRECTION ( 'NONE',  ( -0.0000000000000000000, 5.636309005094523200E-057, -1.000000000000000000 ) ) ;
#376 = LINE ( 'NONE', #96, #688 ) ;
#377 = CARTESIAN_POINT ( 'NONE',  ( -1.999999999999999600, -1.154700538379251700, 11.32679491924311300 ) ) ;
#378 = CARTESIAN_POINT ( 'NONE',  ( 2.000000000000000000, -1.154700538379251700, 11.32679491924311300 ) ) ;
#379 = EDGE_LOOP ( 'NONE', ( #396, #172 ) ) ;
#380 = DIRECTION ( 'NONE',  ( 0.0000000000000000000, 1.000000000000000000, 0.0000000000000000000 ) ) ;
#381 = PLANE ( 'NONE',  #710 ) ;
#382 = AXIS2_PLACEMENT_3D ( 'NONE', #28, #31, #195 ) ;
#383 = FACE_OUTER_BOUND ( 'NONE', #215, .T. ) ;
#384 = CARTESIAN_POINT ( 'NONE',  ( 1.999999999999999600, 0.7879654491844466600, 11.15899140631131400 ) ) ;
#385 = CALENDAR_DATE ( 2023, 11, 1 ) ;
#386 = CARTESIAN_POINT ( 'NONE',  ( -1.999999999999999600, -1.154700538379251700, 11.32679491924311300 ) ) ;
#387 = CC_DESIGN_PERSON_AND_ORGANIZATION_ASSIGNMENT ( #636, #114, ( #56 ) ) ;
#388 = LINE ( 'NONE', #266, #3 ) ;
#389 = CARTESIAN_POINT ( 'NONE',  ( 0.0000000000000000000, 2.677246777419899400E-056, 6.749999999999999100 ) ) ;
#390 = EDGE_CURVE ( 'NONE', #234, #412, #203, .T. ) ;
#391 = EDGE_LOOP ( 'NONE', ( #476, #359, #348, #368 ) ) ;
#392 = CARTESIAN_POINT ( 'NONE',  ( -1.999999999999999600, 2.449014171760785600E-016, 11.01739384248461000 ) ) ;
#393 = FACE_OUTER_BOUND ( 'NONE', #760, .T. ) ;
#394 = DIRECTION ( 'NONE',  ( 8.659560562354889700E-017, 0.7071067811865440200, 0.7071067811865511300 ) ) ;
#395 = CARTESIAN_POINT ( 'NONE',  ( -2.000000000000000000, 0.9759545556398356900, 11.23742192787340200 ) ) ;
#396 = ORIENTED_EDGE ( 'NONE', *, *, #336, .T. ) ;
#397 = ORIENTED_EDGE ( 'NONE', *, *, #532, .F. ) ;
#398 = CYLINDRICAL_SURFACE ( 'NONE', #156, 4.250000000000000000 ) ;
#399 = CARTESIAN_POINT ( 'NONE',  ( 0.0000000000000000000, 2.499999999999999100, 6.249999999999998200 ) ) ;
#400 = AXIS2_PLACEMENT_3D ( 'NONE', #589, #278, #774 ) ;
#401 = AXIS2_PLACEMENT_3D ( 'NONE', #640, #73, #430 ) ;
#402 = CARTESIAN_POINT ( 'NONE',  ( 0.0000000000000000000, 4.250000000000000000, 11.25000000000000000 ) ) ;
#403 = CIRCLE ( 'NONE', #241, 2.750000000000000000 ) ;
#404 = VECTOR ( 'NONE', #334, 1000.000000000000000 ) ;
#405 = SECURITY_CLASSIFICATION_LEVEL ( 'unclassified' ) ;
#406 = ORIENTED_EDGE ( 'NONE', *, *, #213, .T. ) ;
#407 = AXIS2_PLACEMENT_3D ( 'NONE', #256, #695, #202 ) ;
#408 = APPROVAL_ROLE ( '' ) ;
#409 = ORIENTED_EDGE ( 'NONE', *, *, #620, .F. ) ;
#410 = VECTOR ( 'NONE', #142, 1000.000000000000000 ) ;
#411 = EDGE_LOOP ( 'NONE', ( #709, #744, #41, #547 ) ) ;
#412 = VERTEX_POINT ( 'NONE', #152 ) ;
#413 = LINE ( 'NONE', #150, #235 ) ;
#414 = EDGE_CURVE ( 'NONE', #587, #372, #52, .T. ) ;
#415 = B_SPLINE_CURVE_WITH_KNOTS ( 'NONE', 3,
 ( #222, #395, #106, #42, #518, #392 ),
 .UNSPECIFIED., .F., .F.,
 ( 4, 2, 4 ),
 ( 0.001225093821474725900, 0.001823589445004856800, 0.002422085068534987600 ),
 .UNSPECIFIED. ) ;
#416 = ORIENTED_EDGE ( 'NONE', *, *, #58, .F. ) ;
#417 = LOCAL_TIME ( 11, 14, 22.00000000000000000, #313 ) ;
#418 = AXIS2_PLACEMENT_3D ( 'NONE', #132, #316, #689 ) ;
#419 = LINE ( 'NONE', #49, #675 ) ;
#420 = DIRECTION ( 'NONE',  ( 0.0000000000000000000, -5.636309005094523200E-057, 1.000000000000000000 ) ) ;
#421 = EDGE_LOOP ( 'NONE', ( #416, #406, #63, #35 ) ) ;
#422 = CARTESIAN_POINT ( 'NONE',  ( -1.999999999999999600, 1.154700538379250600, 7.500000000000000000 ) ) ;
#423 = CARTESIAN_POINT ( 'NONE',  ( -1.342526258967433400, 1.534293179749513400, 11.04749635786749800 ) ) ;
#424 = EDGE_CURVE ( 'NONE', #708, #234, #522, .T. ) ;
#425 = CIRCLE ( 'NONE', #307, 1.980384757729336800 ) ;
#426 = CARTESIAN_POINT ( 'NONE',  ( 0.9090194280634841300, -1.784578465267451900, 11.01761271046850900 ) ) ;
#427 = ORIENTED_EDGE ( 'NONE', *, *, #95, .T. ) ;
#428 = ORIENTED_EDGE ( 'NONE', *, *, #549, .T. ) ;
#429 = CIRCLE ( 'NONE', #459, 2.499999999999999100 ) ;
#430 = DIRECTION ( 'NONE',  ( 0.0000000000000000000, 1.000000000000000000, 0.0000000000000000000 ) ) ;
#431 = DIRECTION ( 'NONE',  ( 1.000000000000000000, -0.0000000000000000000, 0.0000000000000000000 ) ) ;
#432 = DIRECTION ( 'NONE',  ( -0.0000000000000000000, 5.636309005094523200E-057, -1.000000000000000000 ) ) ;
#433 = CARTESIAN_POINT ( 'NONE',  ( -1.999999999999999600, 1.154700538379251000, 0.3898990733922115300 ) ) ;
#434 = CARTESIAN_POINT ( 'NONE',  ( -1.999999999999999600, 1.154700538379250800, 11.32679491924311100 ) ) ;
#435 = FACE_OUTER_BOUND ( 'NONE', #411, .T. ) ;
#436 = FACE_OUTER_BOUND ( 'NONE', #472, .T. ) ;
#437 = CARTESIAN_POINT ( 'NONE',  ( -2.000000000000000000, -0.2028068474274593300, 11.01739384248461000 ) ) ;
#438 = DIRECTION ( 'NONE',  ( -0.0000000000000000000, -0.0000000000000000000, 1.000000000000000000 ) ) ;
#439 = VERTEX_POINT ( 'NONE', #750 ) ;
#440 = CARTESIAN_POINT ( 'NONE',  ( 0.0000000000000000000, 0.0000000000000000000, 6.249999999999998200 ) ) ;
#441 = ADVANCED_FACE ( 'NONE', ( #159 ), #139, .F. ) ;
#442 = CARTESIAN_POINT ( 'NONE',  ( 1.999999999999999600, 0.9759545556398379100, 11.23742192787340800 ) ) ;
#443 = EDGE_CURVE ( 'NONE', #722, #412, #733, .T. ) ;
#444 = DIRECTION ( 'NONE',  ( -0.7071067811865487900, 8.659560562354948900E-017, 0.7071067811865463500 ) ) ;
#445 = CONICAL_SURFACE ( 'NONE', #128, 4.250000000000000000, 0.7853981633974482800 ) ;
#446 = DATE_AND_TIME ( #732, #305 ) ;
#447 = LINE ( 'NONE', #79, #124 ) ;
#448 = DIRECTION ( 'NONE',  ( 1.000000000000000000, 1.224646799147353200E-016, 6.902487782094410700E-073 ) ) ;
#449 = DIRECTION ( 'NONE',  ( -0.0000000000000000000, -0.0000000000000000000, 1.000000000000000000 ) ) ;
#450 = EDGE_CURVE ( 'NONE', #8, #722, #429, .T. ) ;
#451 = CARTESIAN_POINT ( 'NONE',  ( 0.0000000000000000000, 2.677246777419899400E-056, 6.749999999999999100 ) ) ;
#452 = VERTEX_POINT ( 'NONE', #311 ) ;
#453 = CARTESIAN_POINT ( 'NONE',  ( 0.0000000000000000000, 1.409077251273633100E-057, 11.25000000000000000 ) ) ;
#454 = VECTOR ( 'NONE', #374, 1000.000000000000100 ) ;
#455 = CARTESIAN_POINT ( 'NONE',  ( 2.743444426250910300E-016, 1.980384757729336800, -11.50000000000000000 ) ) ;
#456 = ORIENTED_EDGE ( 'NONE', *, *, #713, .F. ) ;
#457 = EDGE_LOOP ( 'NONE', ( #61, #233, #531, #201 ) ) ;
#458 = LOCAL_TIME ( 11, 14, 22.00000000000000000, #596 ) ;
#459 = AXIS2_PLACEMENT_3D ( 'NONE', #367, #375, #627 ) ;
#460 = CARTESIAN_POINT ( 'NONE',  ( 5.204748896376250700E-016, 4.250000000000000000, 6.749999999999999100 ) ) ;
#461 = ADVANCED_FACE ( 'NONE', ( #83 ), #70, .F. ) ;
#462 = AXIS2_PLACEMENT_3D ( 'NONE', #229, #230, #527 ) ;
#463 =( NAMED_UNIT ( * ) SI_UNIT ( $, .STERADIAN. ) SOLID_ANGLE_UNIT ( ) );
#464 = FACE_OUTER_BOUND ( 'NONE', #421, .T. ) ;
#465 = EDGE_CURVE ( 'NONE', #716, #237, #167, .T. ) ;
#466 =( LENGTH_UNIT ( ) NAMED_UNIT ( * ) SI_UNIT ( .MILLI., .METRE. ) );
#467 = ORIENTED_EDGE ( 'NONE', *, *, #549, .F. ) ;
#468 = CC_DESIGN_APPROVAL ( #245, ( #56 ) ) ;
#469 = ORIENTED_EDGE ( 'NONE', *, *, #371, .F. ) ;
#470 = CARTESIAN_POINT ( 'NONE',  ( 1.179539729358141100, 1.628393496493722100, 11.02571394647222600 ) ) ;
#471 = ORIENTED_EDGE ( 'NONE', *, *, #713, .T. ) ;
#472 = EDGE_LOOP ( 'NONE', ( #276, #356, #219, #665 ) ) ;
#473 = EDGE_CURVE ( 'NONE', #237, #171, #561, .T. ) ;
#474 = APPROVAL_DATE_TIME ( #613, #297 ) ;
#475 = CARTESIAN_POINT ( 'NONE',  ( 0.0000000000000000000, 2.818154502547262400E-056, 6.499999999999999100 ) ) ;
#476 = ORIENTED_EDGE ( 'NONE', *, *, #450, .F. ) ;
#477 = CARTESIAN_POINT ( 'NONE',  ( 0.3190291860744207100, 2.125209490299087500, 11.15822987187723200 ) ) ;
#478 = DIRECTION ( 'NONE',  ( -0.0000000000000000000, 5.636309005094523200E-057, -1.000000000000000000 ) ) ;
#479 = DIRECTION ( 'NONE',  ( -0.0000000000000000000, 5.636309005094523200E-057, -1.000000000000000000 ) ) ;
#480 = AXIS2_PLACEMENT_3D ( 'NONE', #389, #501, #702 ) ;
#481 = CIRCLE ( 'NONE', #145, 4.000000000000000000 ) ;
#482 = CARTESIAN_POINT ( 'NONE',  ( -1.999999999999999600, -1.154700538379251700, 11.32679491924311300 ) ) ;
#483 = DIRECTION ( 'NONE',  ( -0.0000000000000000000, 5.636309005094523200E-057, -1.000000000000000000 ) ) ;
#484 = CARTESIAN_POINT ( 'NONE',  ( 5.204748896376250700E-016, -4.250000000000000000, 11.25000000000000000 ) ) ;
#485 = AXIS2_PLACEMENT_3D ( 'NONE', #660, #113, #292 ) ;
#486 = DIRECTION ( 'NONE',  ( 0.8660254037844384900, 0.5000000000000004400, 2.818154502547263300E-057 ) ) ;
#487 = DIRECTION ( 'NONE',  ( 0.0000000000000000000, -5.636309005094523200E-057, 1.000000000000000000 ) ) ;
#488 = EDGE_CURVE ( 'NONE', #342, #743, #111, .T. ) ;
#489 = CARTESIAN_POINT ( 'NONE',  ( 1.170912023301345500, -1.633374704908102400, 11.01696967128636500 ) ) ;
#490 = VERTEX_POINT ( 'NONE', #618 ) ;
#491 = EDGE_CURVE ( 'NONE', #372, #599, #667, .T. ) ;
#492 = FACE_OUTER_BOUND ( 'NONE', #391, .T. ) ;
#493 = CARTESIAN_POINT ( 'NONE',  ( -1.170912023301344100, 1.633374704908101500, 11.01696967128636800 ) ) ;
#494 = EDGE_LOOP ( 'NONE', ( #513, #325, #59, #62, #538, #78, #118 ) ) ;
#495 = ORIENTED_EDGE ( 'NONE', *, *, #724, .T. ) ;
#496 = CALENDAR_DATE ( 2023, 11, 1 ) ;
#497 = CARTESIAN_POINT ( 'NONE',  ( 0.0000000000000000000, 0.0000000000000000000, 11.50000000000000000 ) ) ;
#498 = DIRECTION ( 'NONE',  ( -0.0000000000000000000, -0.0000000000000000000, 1.000000000000000000 ) ) ;
#499 = ORIENTED_EDGE ( 'NONE', *, *, #443, .F. ) ;
#500 = AXIS2_PLACEMENT_3D ( 'NONE', #199, #505, #757 ) ;
#501 = DIRECTION ( 'NONE',  ( -0.0000000000000000000, 5.636309005094523200E-057, -1.000000000000000000 ) ) ;
#502 = VECTOR ( 'NONE', #38, 1000.000000000000000 ) ;
#503 = DIRECTION ( 'NONE',  ( -0.0000000000000000000, -0.0000000000000000000, 1.000000000000000000 ) ) ;
#504 =( GEOMETRIC_REPRESENTATION_CONTEXT ( 3 ) GLOBAL_UNCERTAINTY_ASSIGNED_CONTEXT ( ( #226 ) ) GLOBAL_UNIT_ASSIGNED_CONTEXT ( ( #466, #4, #463 ) ) REPRESENTATION_CONTEXT ( 'NONE', 'WORKASPACE' ) );
#505 = DIRECTION ( 'NONE',  ( -0.0000000000000000000, 5.636309005094523200E-057, -1.000000000000000000 ) ) ;
#506 = EDGE_CURVE ( 'NONE', #708, #730, #55, .T. ) ;
#507 = CARTESIAN_POINT ( 'NONE',  ( 2.000000000000000000, 1.154700538379251700, 0.3898990733922115300 ) ) ;
#508 = DIRECTION ( 'NONE',  ( -0.0000000000000000000, 5.636309005094523200E-057, -1.000000000000000000 ) ) ;
#509 = EDGE_LOOP ( 'NONE', ( #669, #535, #720, #581 ) ) ;
#510 = CARTESIAN_POINT ( 'NONE',  ( 0.0000000000000000000, -6.481755355858701300E-056, 11.50000000000000000 ) ) ;
#511 = DIRECTION ( 'NONE',  ( 0.0000000000000000000, -0.7071067811865474600, 0.7071067811865475700 ) ) ;
#512 = VECTOR ( 'NONE', #559, 1000.000000000000000 ) ;
#513 = ORIENTED_EDGE ( 'NONE', *, *, #301, .F. ) ;
#514 = ORIENTED_EDGE ( 'NONE', *, *, #678, .F. ) ;
#515 = DIRECTION ( 'NONE',  ( -0.0000000000000000000, 5.636309005094523200E-057, -1.000000000000000000 ) ) ;
#516 = CONICAL_SURFACE ( 'NONE', #196, 2.482606157515390600, 0.7853981633974500600 ) ;
#517 = ADVANCED_FACE ( 'NONE', ( #464 ), #279, .T. ) ;
#518 = CARTESIAN_POINT ( 'NONE',  ( -1.999999999999999600, 0.2030184786860308700, 11.01739384248461000 ) ) ;
#519 = AXIS2_PLACEMENT_3D ( 'NONE', #66, #542, #178 ) ;
#520 = ORIENTED_EDGE ( 'NONE', *, *, #135, .T. ) ;
#521 = CARTESIAN_POINT ( 'NONE',  ( 0.0000000000000000000, 4.250000000000000000, 11.25000000000000000 ) ) ;
#522 = LINE ( 'NONE', #154, #672 ) ;
#523 = PERSON_AND_ORGANIZATION_ROLE ( 'creator' ) ;
#524 = PERSON_AND_ORGANIZATION ( #296, #332 ) ;
#525 = B_SPLINE_CURVE_WITH_KNOTS ( 'NONE', 3,
 ( #482, #679, #189, #315, #742, #131, #369, #247, #556, #551, #185, #623 ),
 .UNSPECIFIED., .F., .F.,
 ( 4, 2, 2, 2, 2, 4 ),
 ( 2.544349856250056700E-007, 0.0005966331004600533100, 0.0008948224331972676400, 0.001193011765934482000, 0.001789390431408910400, 0.002385769096883338400 ),
 .UNSPECIFIED. ) ;
#526 = LINE ( 'NONE', #163, #622 ) ;
#527 = DIRECTION ( 'NONE',  ( 0.0000000000000000000, -1.000000000000000000, 0.0000000000000000000 ) ) ;
#528 = EDGE_CURVE ( 'NONE', #704, #563, #748, .T. ) ;
#529 = APPROVAL_STATUS ( 'not_yet_approved' ) ;
#530 = AXIS2_PLACEMENT_3D ( 'NONE', #211, #645, #592 ) ;
#531 = ORIENTED_EDGE ( 'NONE', *, *, #322, .F. ) ;
#532 = EDGE_CURVE ( 'NONE', #115, #652, #64, .T. ) ;
#533 = CYLINDRICAL_SURFACE ( 'NONE', #407, 2.499999999999999600 ) ;
#534 = EDGE_LOOP ( 'NONE', ( #81, #302, #514, #231 ) ) ;
#535 = ORIENTED_EDGE ( 'NONE', *, *, #528, .T. ) ;
#536 = FACE_BOUND ( 'NONE', #223, .T. ) ;
#537 = EDGE_CURVE ( 'NONE', #46, #452, #447, .T. ) ;
#538 = ORIENTED_EDGE ( 'NONE', *, *, #168, .F. ) ;
#539 = VERTEX_POINT ( 'NONE', #144 ) ;
#540 = DIRECTION ( 'NONE',  ( -0.0000000000000000000, 5.636309005094523200E-057, -1.000000000000000000 ) ) ;
#541 = ORIENTED_EDGE ( 'NONE', *, *, #450, .T. ) ;
#542 = DIRECTION ( 'NONE',  ( 0.0000000000000000000, 0.0000000000000000000, 1.000000000000000000 ) ) ;
#543 = AXIS2_PLACEMENT_3D ( 'NONE', #48, #448, #286 ) ;
#544 = CIRCLE ( 'NONE', #543, 0.2500000000000006700 ) ;
#545 = CARTESIAN_POINT ( 'NONE',  ( 0.0000000000000000000, 1.409077251273633100E-057, 11.25000000000000000 ) ) ;
#546 = CARTESIAN_POINT ( 'NONE',  ( 0.0000000000000000000, 1.296351071171740300E-055, -11.50000000000000000 ) ) ;
#547 = ORIENTED_EDGE ( 'NONE', *, *, #366, .F. ) ;
#548 = CARTESIAN_POINT ( 'NONE',  ( 1.090980571936515800, 1.679523149870303400, 11.01761271046850500 ) ) ;
#549 = EDGE_CURVE ( 'NONE', #652, #212, #388, .T. ) ;
#550 = ORIENTED_EDGE ( 'NONE', *, *, #664, .T. ) ;
#551 = CARTESIAN_POINT ( 'NONE',  ( -0.3190291860744196000, -2.125209490299088800, 11.15822987187723600 ) ) ;
#552 = CARTESIAN_POINT ( 'NONE',  ( 0.0000000000000000000, -2.499999999999999600, -10.98038475772933300 ) ) ;
#553 = CARTESIAN_POINT ( 'NONE',  ( -1.999999999999999600, 1.154700538379250800, 11.32679491924311100 ) ) ;
#554 = LINE ( 'NONE', #190, #410 ) ;
#555 = ORIENTED_EDGE ( 'NONE', *, *, #414, .F. ) ;
#556 = CARTESIAN_POINT ( 'NONE',  ( -0.6574737410325656200, -1.929808435388241600, 11.04749635786750000 ) ) ;
#557 = VERTEX_POINT ( 'NONE', #578 ) ;
#558 = ORIENTED_EDGE ( 'NONE', *, *, #620, .T. ) ;
#559 = DIRECTION ( 'NONE',  ( 8.659560562354931600E-017, 0.7071067811865474600, 0.7071067811865475700 ) ) ;
#560 = CARTESIAN_POINT ( 'NONE',  ( -1.999999999999999600, 1.154700538379251000, 7.500000000000000000 ) ) ;
#561 = LINE ( 'NONE', #680, #574 ) ;
#562 = CARTESIAN_POINT ( 'NONE',  ( 5.204748896376250700E-016, -4.250000000000000000, 11.25000000000000000 ) ) ;
#563 = VERTEX_POINT ( 'NONE', #273 ) ;
#564 = CARTESIAN_POINT ( 'NONE',  ( -0.6485067226708483000, 1.934985545853206600, 11.05580016104173800 ) ) ;
#565 = CC_DESIGN_PERSON_AND_ORGANIZATION_ASSIGNMENT ( #573, #523, ( #56 ) ) ;
#566 = DIRECTION ( 'NONE',  ( 0.0000000000000000000, -1.000000000000000000, 0.0000000000000000000 ) ) ;
#567 = AXIS2_PLACEMENT_3D ( 'NONE', #546, #22, #240 ) ;
#568 = DIRECTION ( 'NONE',  ( 0.8660254037844386000, -0.5000000000000001100, 0.0000000000000000000 ) ) ;
#569 = DIRECTION ( 'NONE',  ( 0.0000000000000000000, 1.000000000000000000, 5.636309005094523200E-057 ) ) ;
#570 = CARTESIAN_POINT ( 'NONE',  ( 0.0000000000000000000, -4.250000000000000000, 6.749999999999999100 ) ) ;
#571 = ORIENTED_EDGE ( 'NONE', *, *, #95, .F. ) ;
#572 = CARTESIAN_POINT ( 'NONE',  ( 2.000000000000000000, 1.154700538379251700, 11.32679491924311300 ) ) ;
#573 = PERSON_AND_ORGANIZATION ( #296, #332 ) ;
#574 = VECTOR ( 'NONE', #129, 1000.000000000000000 ) ;
#575 = DIRECTION ( 'NONE',  ( 0.0000000000000000000, 1.000000000000000000, 0.0000000000000000000 ) ) ;
#576 = DIRECTION ( 'NONE',  ( 0.0000000000000000000, 1.000000000000000000, 5.636309005094523200E-057 ) ) ;
#577 = ORIENTED_EDGE ( 'NONE', *, *, #465, .T. ) ;
#578 = CARTESIAN_POINT ( 'NONE',  ( 2.482606157515390600, -6.481755355858701300E-056, 11.50000000000000000 ) ) ;
#579 = ADVANCED_FACE ( 'NONE', ( #208 ), #398, .T. ) ;
#580 = AXIS2_PLACEMENT_3D ( 'NONE', #545, #731, #306 ) ;
#581 = ORIENTED_EDGE ( 'NONE', *, *, #121, .F. ) ;
#582 = DIRECTION ( 'NONE',  ( 1.000000000000000000, 0.0000000000000000000, 0.0000000000000000000 ) ) ;
#583 = EDGE_LOOP ( 'NONE', ( #615, #550, #471, #26 ) ) ;
#584 = DIRECTION ( 'NONE',  ( -0.0000000000000000000, 5.636309005094523200E-057, -1.000000000000000000 ) ) ;
#585 = PRODUCT_DEFINITION ( 'UNKNOWN', '', #56, #283 ) ;
#586 = ORIENTED_EDGE ( 'NONE', *, *, #506, .F. ) ;
#587 = VERTEX_POINT ( 'NONE', #635 ) ;
#588 = EDGE_CURVE ( 'NONE', #171, #743, #756, .T. ) ;
#589 = CARTESIAN_POINT ( 'NONE',  ( 0.0000000000000000000, -6.481755355858701300E-056, 11.50000000000000000 ) ) ;
#590 = DIRECTION ( 'NONE',  ( 0.0000000000000000000, -0.7071067811865440200, 0.7071067811865511300 ) ) ;
#591 = EDGE_CURVE ( 'NONE', #342, #237, #642, .T. ) ;
#592 = DIRECTION ( 'NONE',  ( 0.8660254037844383700, 0.5000000000000003300, 0.0000000000000000000 ) ) ;
#593 = ADVANCED_FACE ( 'NONE', ( #220 ), #516, .F. ) ;
#594 = CYLINDRICAL_SURFACE ( 'NONE', #598, 2.499999999999999600 ) ;
#595 = DIRECTION ( 'NONE',  ( 0.0000000000000000000, -5.636309005094523200E-057, 1.000000000000000000 ) ) ;
#596 = COORDINATED_UNIVERSAL_TIME_OFFSET ( 6, 0, .BEHIND. ) ;
#597 = LINE ( 'NONE', #507, #404 ) ;
#598 = AXIS2_PLACEMENT_3D ( 'NONE', #360, #540, #614 ) ;
#599 = VERTEX_POINT ( 'NONE', #434 ) ;
#600 = APPLICATION_PROTOCOL_DEFINITION ( 'international standard', 'config_control_design', 1994, #602 ) ;
#601 = ADVANCED_FACE ( 'NONE', ( #252, #536 ), #330, .T. ) ;
#602 = APPLICATION_CONTEXT ( 'configuration controlled 3d designs of mechanical parts and assemblies' ) ;
#603 = FACE_OUTER_BOUND ( 'NONE', #583, .T. ) ;
#604 = EDGE_CURVE ( 'NONE', #652, #67, #376, .T. ) ;
#605 = VECTOR ( 'NONE', #363, 1000.000000000000000 ) ;
#606 = ADVANCED_BREP_SHAPE_REPRESENTATION ( '91290A238_NO THREADS_Alloy Steel Socket Head Screw', ( #634, #485 ), #504 ) ;
#607 = B_SPLINE_CURVE_WITH_KNOTS ( 'NONE', 3,
 ( #329, #437, #206, #149, #758, #386 ),
 .UNSPECIFIED., .F., .F.,
 ( 4, 2, 4 ),
 ( 0.002422085068534987600, 0.003019956806087465700, 0.003617828543639944300 ),
 .UNSPECIFIED. ) ;
#608 = CC_DESIGN_SECURITY_CLASSIFICATION ( #6, ( #56 ) ) ;
#609 = CARTESIAN_POINT ( 'NONE',  ( -1.999999999999999600, 2.449014171760785600E-016, 11.01739384248461000 ) ) ;
#610 = AXIS2_PLACEMENT_3D ( 'NONE', #762, #90, #380 ) ;
#611 = ORIENTED_EDGE ( 'NONE', *, *, #100, .F. ) ;
#612 = CARTESIAN_POINT ( 'NONE',  ( 2.000000000000000000, 1.154700538379251700, 11.32679491924311300 ) ) ;
#613 = DATE_AND_TIME ( #385, #197 ) ;
#614 = DIRECTION ( 'NONE',  ( 0.0000000000000000000, 1.000000000000000000, 0.0000000000000000000 ) ) ;
#615 = ORIENTED_EDGE ( 'NONE', *, *, #9, .F. ) ;
#616 = EDGE_LOOP ( 'NONE', ( #779, #75, #98, #23 ) ) ;
#617 = CARTESIAN_POINT ( 'NONE',  ( 1.351493277329151000, 1.529116069284547400, 11.05580016104173600 ) ) ;
#618 = CARTESIAN_POINT ( 'NONE',  ( 2.000000000000000000, -1.154700538379251700, 7.500000000000000000 ) ) ;
#619 = LINE ( 'NONE', #321, #512 ) ;
#620 = EDGE_CURVE ( 'NONE', #439, #539, #656, .T. ) ;
#621 = DATE_AND_TIME ( #110, #346 ) ;
#622 = VECTOR ( 'NONE', #770, 1000.000000000000100 ) ;
#623 = CARTESIAN_POINT ( 'NONE',  ( 1.366653690655839600E-015, -2.309401076758503800, 11.32679491924311300 ) ) ;
#624 = CARTESIAN_POINT ( 'NONE',  ( 0.0000000000000000000, 1.296351071171740300E-055, -11.50000000000000000 ) ) ;
#625 = APPROVAL ( #350, 'UNSPECIFIED' ) ;
#626 = CARTESIAN_POINT ( 'NONE',  ( 2.000000000000000000, -0.7871477057689998400, 11.15877676308344800 ) ) ;
#627 = DIRECTION ( 'NONE',  ( 0.0000000000000000000, 1.000000000000000000, 0.0000000000000000000 ) ) ;
#628 = ADVANCED_FACE ( 'NONE', ( #228 ), #763, .F. ) ;
#629 = EDGE_CURVE ( 'NONE', #655, #251, #314, .T. ) ;
#630 = ORIENTED_EDGE ( 'NONE', *, *, #629, .F. ) ;
#631 = VECTOR ( 'NONE', #646, 1000.000000000000000 ) ;
#632 = EDGE_LOOP ( 'NONE', ( #188, #586, #633, #681 ) ) ;
#633 = ORIENTED_EDGE ( 'NONE', *, *, #424, .T. ) ;
#634 = MANIFOLD_SOLID_BREP ( 'Cut-Extrude2', #11 ) ;
#635 = CARTESIAN_POINT ( 'NONE',  ( -4.336808689942017700E-016, 2.309401076758502900, 7.500000000000000000 ) ) ;
#636 = PERSON_AND_ORGANIZATION ( #296, #332 ) ;
#637 = DIRECTION ( 'NONE',  ( 0.0000000000000000000, 1.000000000000000000, 0.0000000000000000000 ) ) ;
#638 = AXIS2_PLACEMENT_3D ( 'NONE', #703, #508, #274 ) ;
#639 = CARTESIAN_POINT ( 'NONE',  ( 0.0000000000000000000, -6.481755355858701300E-056, 11.50000000000000000 ) ) ;
#640 = CARTESIAN_POINT ( 'NONE',  ( 0.0000000000000000000, 2.818154502547262400E-056, 6.499999999999999100 ) ) ;
#641 = CARTESIAN_POINT ( 'NONE',  ( 1.842815071353934200, -1.245451299245611000, 11.23604415837631600 ) ) ;
#642 = CIRCLE ( 'NONE', #610, 4.250000000000000000 ) ;
#643 = DIRECTION ( 'NONE',  ( -0.0000000000000000000, 5.636309005094523200E-057, -1.000000000000000000 ) ) ;
#644 = EDGE_CURVE ( 'NONE', #439, #557, #413, .T. ) ;
#645 = DIRECTION ( 'NONE',  ( 0.5000000000000004400, -0.8660254037844384900, 0.0000000000000000000 ) ) ;
#646 = DIRECTION ( 'NONE',  ( -0.0000000000000000000, -0.0000000000000000000, 1.000000000000000000 ) ) ;
#647 = ORIENTED_EDGE ( 'NONE', *, *, #751, .F. ) ;
#648 = ADVANCED_FACE ( 'NONE', ( #436 ), #289, .F. ) ;
#649 = LINE ( 'NONE', #769, #631 ) ;
#650 = DIRECTION ( 'NONE',  ( 0.0000000000000000000, 1.000000000000000000, 0.0000000000000000000 ) ) ;
#651 = ORIENTED_EDGE ( 'NONE', *, *, #653, .F. ) ;
#652 = VERTEX_POINT ( 'NONE', #752 ) ;
#653 = EDGE_CURVE ( 'NONE', #352, #342, #151, .T. ) ;
#654 = CARTESIAN_POINT ( 'NONE',  ( 1.366653690655839600E-015, -2.309401076758503800, 11.32679491924311300 ) ) ;
#655 = VERTEX_POINT ( 'NONE', #715 ) ;
#656 = B_SPLINE_CURVE_WITH_KNOTS ( 'NONE', 3,
 ( #327, #698, #92, #384, #442, #572 ),
 .UNSPECIFIED., .F., .F.,
 ( 4, 2, 4 ),
 ( 0.002714318244473558400, 0.003313238106614244800, 0.003912157968754931600 ),
 .UNSPECIFIED. ) ;
#657 = APPROVAL_PERSON_ORGANIZATION ( #699, #245, #408 ) ;
#658 = VECTOR ( 'NONE', #258, 1000.000000000000000 ) ;
#659 = EDGE_CURVE ( 'NONE', #8, #655, #544, .T. ) ;
#660 = CARTESIAN_POINT ( 'NONE',  ( 0.0000000000000000000, 0.0000000000000000000, 0.0000000000000000000 ) ) ;
#661 = AXIS2_PLACEMENT_3D ( 'NONE', #221, #595, #224 ) ;
#662 = EDGE_LOOP ( 'NONE', ( #27, #277, #558, #647, #714 ) ) ;
#663 = VECTOR ( 'NONE', #432, 1000.000000000000000 ) ;
#664 = EDGE_CURVE ( 'NONE', #730, #412, #419, .T. ) ;
#665 = ORIENTED_EDGE ( 'NONE', *, *, #100, .T. ) ;
#666 = EDGE_LOOP ( 'NONE', ( #101, #541, #337, #291 ) ) ;
#667 = B_SPLINE_CURVE_WITH_KNOTS ( 'NONE', 3,
 ( #735, #182, #133, #244, #564, #15, #746, #493, #423, #255, #737, #553 ),
 .UNSPECIFIED., .F., .F.,
 ( 4, 2, 2, 2, 2, 4 ),
 ( 2.544349856246789200E-007, 0.0005966331004600519000, 0.0008948224331972658000, 0.001193011765934479800, 0.001789390431408907400, 0.002385769096883335400 ),
 .UNSPECIFIED. ) ;
#668 = CARTESIAN_POINT ( 'NONE',  ( 1.683947387850581300, 1.337173599081803200, 11.15986732932251100 ) ) ;
#669 = ORIENTED_EDGE ( 'NONE', *, *, #371, .T. ) ;
#670 = CARTESIAN_POINT ( 'NONE',  ( -4.219002219999588900E-016, 2.309401076758502900, 0.3898990733922115300 ) ) ;
#671 = EDGE_CURVE ( 'NONE', #587, #115, #526, .T. ) ;
#672 = VECTOR ( 'NONE', #590, 1000.000000000000000 ) ;
#673 = CARTESIAN_POINT ( 'NONE',  ( 2.000000000000000000, 1.154700538379251700, 7.500000000000000000 ) ) ;
#674 = SHAPE_DEFINITION_REPRESENTATION ( #141, #606 ) ;
#675 = VECTOR ( 'NONE', #394, 1000.000000000000000 ) ;
#676 = CARTESIAN_POINT ( 'NONE',  ( 0.6574737410325660600, 1.929808435388241000, 11.04749635786750200 ) ) ;
#677 = DIRECTION ( 'NONE',  ( 0.0000000000000000000, 0.0000000000000000000, -1.000000000000000000 ) ) ;
#678 = EDGE_CURVE ( 'NONE', #743, #171, #300, .T. ) ;
#679 = CARTESIAN_POINT ( 'NONE',  ( -1.843736237883318900, -1.244919463501900700, 11.23657599412046100 ) ) ;
#680 = CARTESIAN_POINT ( 'NONE',  ( 5.204748896376250700E-016, -4.250000000000000000, -11.50000000000000000 ) ) ;
#681 = ORIENTED_EDGE ( 'NONE', *, *, #390, .T. ) ;
#682 = EDGE_LOOP ( 'NONE', ( #91, #82 ) ) ;
#683 = CARTESIAN_POINT ( 'NONE',  ( 2.000000000000000000, -0.9756018502613285100, 11.23724557518414700 ) ) ;
#684 = CIRCLE ( 'NONE', #401, 4.000000000000000000 ) ;
#685 = CARTESIAN_POINT ( 'NONE',  ( 0.0000000000000000000, 4.250000000000000000, -11.50000000000000000 ) ) ;
#686 = ORIENTED_EDGE ( 'NONE', *, *, #301, .T. ) ;
#687 = ORIENTED_EDGE ( 'NONE', *, *, #767, .T. ) ;
#688 = VECTOR ( 'NONE', #328, 1000.000000000000100 ) ;
#689 = DIRECTION ( 'NONE',  ( 0.0000000000000000000, 0.0000000000000000000, 1.000000000000000000 ) ) ;
#690 = DIRECTION ( 'NONE',  ( 0.7071067811865487900, 0.0000000000000000000, 0.7071067811865463500 ) ) ;
#691 = DIRECTION ( 'NONE',  ( -0.0000000000000000000, 5.636309005094523200E-057, -1.000000000000000000 ) ) ;
#692 = AXIS2_PLACEMENT_3D ( 'NONE', #30, #88, #693 ) ;
#693 = DIRECTION ( 'NONE',  ( 0.0000000000000000000, 1.000000000000000000, 0.0000000000000000000 ) ) ;
#694 = EDGE_LOOP ( 'NONE', ( #687, #577, #736, #651 ) ) ;
#695 = DIRECTION ( 'NONE',  ( -0.0000000000000000000, 5.636309005094523200E-057, -1.000000000000000000 ) ) ;
#696 = FACE_OUTER_BOUND ( 'NONE', #694, .T. ) ;
#697 = CARTESIAN_POINT ( 'NONE',  ( -1.999999999999999600, 1.154700538379251000, 0.3898990733922115300 ) ) ;
#698 = CARTESIAN_POINT ( 'NONE',  ( 2.000000000000000000, 0.2030184786860308700, 11.01739384248461000 ) ) ;
#699 = PERSON_AND_ORGANIZATION ( #296, #332 ) ;
#700 = VECTOR ( 'NONE', #478, 1000.000000000000000 ) ;
#701 = ADVANCED_FACE ( 'NONE', ( #134, #365 ), #288, .T. ) ;
#702 = DIRECTION ( 'NONE',  ( 0.0000000000000000000, 1.000000000000000000, 0.0000000000000000000 ) ) ;
#703 = CARTESIAN_POINT ( 'NONE',  ( 0.0000000000000000000, 1.267063950479794800E-055, -10.98038475772933300 ) ) ;
#704 = VERTEX_POINT ( 'NONE', #654 ) ;
#705 = DIRECTION ( 'NONE',  ( 0.0000000000000000000, 0.7071067811865474600, -0.7071067811865475700 ) ) ;
#706 = AXIS2_PLACEMENT_3D ( 'NONE', #510, #216, #281 ) ;
#707 = LINE ( 'NONE', #198, #454 ) ;
#708 = VERTEX_POINT ( 'NONE', #103 ) ;
#709 = ORIENTED_EDGE ( 'NONE', *, *, #465, .F. ) ;
#710 = AXIS2_PLACEMENT_3D ( 'NONE', #745, #483, #264 ) ;
#711 = CARTESIAN_POINT ( 'NONE',  ( 5.051668046482832700E-016, -4.000000000000000000, 11.50000000000000000 ) ) ;
#712 = VECTOR ( 'NONE', #479, 1000.000000000000000 ) ;
#713 = EDGE_CURVE ( 'NONE', #412, #234, #766, .T. ) ;
#714 = ORIENTED_EDGE ( 'NONE', *, *, #207, .F. ) ;
#715 = CARTESIAN_POINT ( 'NONE',  ( 3.367778697655221000E-016, -2.750000000000000000, 6.499999999999999100 ) ) ;
#716 = VERTEX_POINT ( 'NONE', #711 ) ;
#717 = AXIS2_PLACEMENT_3D ( 'NONE', #670, #127, #74 ) ;
#718 = CONICAL_SURFACE ( 'NONE', #706, 2.482606157515390600, 0.7853981633974500600 ) ;
#719 = PERSON_AND_ORGANIZATION_ROLE ( 'classification_officer' ) ;
#720 = ORIENTED_EDGE ( 'NONE', *, *, #351, .F. ) ;
#721 = APPLICATION_CONTEXT ( 'configuration controlled 3d designs of mechanical parts and assemblies' ) ;
#722 = VERTEX_POINT ( 'NONE', #399 ) ;
#723 = APPROVAL_ROLE ( '' ) ;
#724 = EDGE_CURVE ( 'NONE', #722, #8, #71, .T. ) ;
#725 = CIRCLE ( 'NONE', #293, 4.000000000000000000 ) ;
#726 = EDGE_LOOP ( 'NONE', ( #140, #47, #555, #225 ) ) ;
#727 = ORIENTED_EDGE ( 'NONE', *, *, #361, .T. ) ;
#728 = CARTESIAN_POINT ( 'NONE',  ( 1.301042606982605300E-015, -2.309401076758504300, 7.500000000000000000 ) ) ;
#729 = AXIS2_PLACEMENT_3D ( 'NONE', #136, #29, #568 ) ;
#730 = VERTEX_POINT ( 'NONE', #455 ) ;
#731 = DIRECTION ( 'NONE',  ( -0.0000000000000000000, 5.636309005094523200E-057, -1.000000000000000000 ) ) ;
#732 = CALENDAR_DATE ( 2023, 11, 1 ) ;
#733 = LINE ( 'NONE', #72, #700 ) ;
#734 = CARTESIAN_POINT ( 'NONE',  ( 3.061616997868382200E-016, -2.499999999999999100, 6.249999999999998200 ) ) ;
#735 = CARTESIAN_POINT ( 'NONE',  ( -1.913804328009006300E-016, 2.309401076758502900, 11.32679491924311300 ) ) ;
#736 = ORIENTED_EDGE ( 'NONE', *, *, #591, .F. ) ;
#737 = CARTESIAN_POINT ( 'NONE',  ( -1.842815071353933300, 1.245451299245610200, 11.23604415837631400 ) ) ;
#738 = ORIENTED_EDGE ( 'NONE', *, *, #9, .T. ) ;
#739 = DIRECTION ( 'NONE',  ( 0.0000000000000000000, 1.000000000000000000, 0.0000000000000000000 ) ) ;
#740 = CARTESIAN_POINT ( 'NONE',  ( 0.6485067226708496300, -1.934985545853207000, 11.05580016104174000 ) ) ;
#741 = CIRCLE ( 'NONE', #418, 0.2500000000000002200 ) ;
#742 = CARTESIAN_POINT ( 'NONE',  ( -1.351493277329151000, -1.529116069284548200, 11.05580016104173800 ) ) ;
#743 = VERTEX_POINT ( 'NONE', #460 ) ;
#744 = ORIENTED_EDGE ( 'NONE', *, *, #176, .T. ) ;
#745 = CARTESIAN_POINT ( 'NONE',  ( 0.0000000000000000000, 1.980384757729336800, -11.50000000000000000 ) ) ;
#746 = CARTESIAN_POINT ( 'NONE',  ( -0.9090194280634830100, 1.784578465267451500, 11.01761271046850900 ) ) ;
#747 = CONICAL_SURFACE ( 'NONE', #462, 1.980384757729336800, 0.7853981633974432800 ) ;
#748 = B_SPLINE_CURVE_WITH_KNOTS ( 'NONE', 3,
 ( #16, #308, #184, #187, #740, #18, #426, #489, #191, #33, #641, #260 ),
 .UNSPECIFIED., .F., .F.,
 ( 4, 2, 2, 2, 2, 4 ),
 ( 2.544349856246788700E-007, 0.0005966331004600519000, 0.0008948224331972658000, 0.001193011765934479800, 0.001789390431408907400, 0.002385769096883335400 ),
 .UNSPECIFIED. ) ;
#749 = AXIS2_PLACEMENT_3D ( 'NONE', #317, #420, #238 ) ;
#750 = CARTESIAN_POINT ( 'NONE',  ( 2.000000000000000000, -2.794117558388960000E-020, 11.01739384248461000 ) ) ;
#751 = EDGE_CURVE ( 'NONE', #125, #539, #597, .T. ) ;
#752 = CARTESIAN_POINT ( 'NONE',  ( -1.999999999999999600, -1.154700538379251500, 7.500000000000000000 ) ) ;
#753 = DIRECTION ( 'NONE',  ( 0.0000000000000000000, 1.000000000000000000, 5.636309005094523200E-057 ) ) ;
#754 = ORIENTED_EDGE ( 'NONE', *, *, #488, .T. ) ;
#755 = PLANE ( 'NONE',  #382 ) ;
#756 = CIRCLE ( 'NONE', #480, 4.250000000000000000 ) ;
#757 = DIRECTION ( 'NONE',  ( 0.0000000000000000000, 1.000000000000000000, 5.636309005094523200E-057 ) ) ;
#758 = CARTESIAN_POINT ( 'NONE',  ( -1.999999999999999100, -0.9756018502613280600, 11.23724557518414700 ) ) ;
#759 = EDGE_CURVE ( 'NONE', #452, #557, #93, .T. ) ;
#760 = EDGE_LOOP ( 'NONE', ( #177, #60, #754, #194 ) ) ;
#761 = ADVANCED_FACE ( 'NONE', ( #268 ), #44, .F. ) ;
#762 = CARTESIAN_POINT ( 'NONE',  ( 0.0000000000000000000, 1.409077251273633100E-057, 11.25000000000000000 ) ) ;
#763 = PLANE ( 'NONE',  #500 ) ;
#764 = APPROVAL_PERSON_ORGANIZATION ( #343, #625, #298 ) ;
#765 = CARTESIAN_POINT ( 'NONE',  ( 0.0000000000000000000, 4.000000000000000000, 11.50000000000000000 ) ) ;
#766 = CIRCLE ( 'NONE', #269, 2.499999999999999600 ) ;
#767 = EDGE_CURVE ( 'NONE', #352, #716, #481, .T. ) ;
#768 = CARTESIAN_POINT ( 'NONE',  ( 0.0000000000000000000, 0.0000000000000000000, 11.50000000000000000 ) ) ;
#769 = CARTESIAN_POINT ( 'NONE',  ( 2.000000000000000000, -1.154700538379251700, 0.3898990733922115300 ) ) ;
#770 = DIRECTION ( 'NONE',  ( -0.8660254037844383700, -0.5000000000000003300, -2.818154502547262700E-057 ) ) ;
#771 = DIRECTION ( 'NONE',  ( 0.0000000000000000000, -1.000000000000000000, 0.0000000000000000000 ) ) ;
#772 = EDGE_LOOP ( 'NONE', ( #495, #161, #456, #499 ) ) ;
#773 = ADVANCED_FACE ( 'NONE', ( #37 ), #718, .F. ) ;
#774 = DIRECTION ( 'NONE',  ( 1.000000000000000000, 0.0000000000000000000, 0.0000000000000000000 ) ) ;
#775 = CC_DESIGN_DATE_AND_TIME_ASSIGNMENT ( #446, #1, ( #585 ) ) ;
#776 = CYLINDRICAL_SURFACE ( 'NONE', #7, 4.250000000000000000 ) ;
#777 = DIRECTION ( 'NONE',  ( -0.0000000000000000000, 5.636309005094523200E-057, -1.000000000000000000 ) ) ;
#778 = APPROVAL_PERSON_ORGANIZATION ( #54, #297, #723 ) ;
#779 = ORIENTED_EDGE ( 'NONE', *, *, #213, .F. ) ;
#780 = ADVANCED_FACE ( 'NONE', ( #119 ), #747, .T. ) ;
#781 = APPROVAL_STATUS ( 'not_yet_approved' ) ;
ENDSEC;
END-ISO-10303-21;
