ISO-10303-21;
HEADER;
FILE_DESCRIPTION (( 'STEP AP203' ),
    '1' );
FILE_NAME ('93475A270_18-8 Stainless Steel Washer.STEP',
    '2021-09-09T01:28:45',
    ( 'Administrator' ),
    ( 'Managed by Terraform' ),
    'SwSTEP 2.0',
    'SolidWorks 2017',
    '' );
FILE_SCHEMA (( 'CONFIG_CONTROL_DESIGN' ));
ENDSEC;

DATA;
#1 = ORIENTED_EDGE ( 'NONE', *, *, #150, .F. ) ;
#2 = DIRECTION ( 'NONE',  ( -0.0000000000000000000, -0.0000000000000000000, -1.000000000000000000 ) ) ;
#3 = APPROVAL_PERSON_ORGANIZATION ( #154, #16, #186 ) ;
#4 = ORIENTED_EDGE ( 'NONE', *, *, #177, .F. ) ;
#5 = DIRECTION ( 'NONE',  ( 1.000000000000000000, 0.0000000000000000000, 0.0000000000000000000 ) ) ;
#6 = CARTESIAN_POINT ( 'NONE',  ( 4.200000000000000200, 5.143516556418883900E-016, 0.0000000000000000000 ) ) ;
#7 = ORIENTED_EDGE ( 'NONE', *, *, #157, .T. ) ;
#8 = CARTESIAN_POINT ( 'NONE',  ( 0.0000000000000000000, 0.0000000000000000000, 0.0000000000000000000 ) ) ;
#9 = CARTESIAN_POINT ( 'NONE',  ( 8.000000000000000000, 9.797174393178825700E-016, 1.800000000000000000 ) ) ;
#10 = ORIENTED_EDGE ( 'NONE', *, *, #65, .T. ) ;
#11 = DIRECTION ( 'NONE',  ( 1.000000000000000000, 0.0000000000000000000, 0.0000000000000000000 ) ) ;
#12 = ADVANCED_FACE ( 'NONE', ( #60 ), #211, .T. ) ;
#13 = EDGE_CURVE ( 'NONE', #127, #147, #239, .T. ) ;
#14 = ORIENTED_EDGE ( 'NONE', *, *, #46, .T. ) ;
#15 = APPROVAL_STATUS ( 'not_yet_approved' ) ;
#16 = APPROVAL ( #227, 'UNSPECIFIED' ) ;
#17 = DIRECTION ( 'NONE',  ( 1.000000000000000000, 0.0000000000000000000, 0.0000000000000000000 ) ) ;
#18 = ORIENTED_EDGE ( 'NONE', *, *, #35, .F. ) ;
#19 = APPROVAL_DATE_TIME ( #194, #111 ) ;
#20 = FACE_OUTER_BOUND ( 'NONE', #80, .T. ) ;
#21 = LOCAL_TIME ( 20, 28, 45.00000000000000000, #97 ) ;
#22 = DIRECTION ( 'NONE',  ( -1.000000000000000000, 0.0000000000000000000, 0.0000000000000000000 ) ) ;
#23 = CC_DESIGN_APPROVAL ( #111, ( #192 ) ) ;
#24 = CALENDAR_DATE ( 2021, 8, 9 ) ;
#25 = FACE_OUTER_BOUND ( 'NONE', #116, .T. ) ;
#26 = DATE_AND_TIME ( #175, #21 ) ;
#27 = APPROVAL ( #15, 'UNSPECIFIED' ) ;
#28 = DIRECTION ( 'NONE',  ( 1.000000000000000000, 0.0000000000000000000, 0.0000000000000000000 ) ) ;
#29 = FACE_OUTER_BOUND ( 'NONE', #114, .T. ) ;
#30 = APPROVAL_DATE_TIME ( #248, #16 ) ;
#31 = CIRCLE ( 'NONE', #66, 8.000000000000000000 ) ;
#32 = CLOSED_SHELL ( 'NONE', ( #183, #223, #145, #91, #12, #161 ) ) ;
#33 = ADVANCED_BREP_SHAPE_REPRESENTATION ( '93475A270_18-8 Stainless Steel Washer', ( #210, #94 ), #135 ) ;
#34 = APPROVAL_STATUS ( 'not_yet_approved' ) ;
#35 = EDGE_CURVE ( 'NONE', #54, #44, #105, .T. ) ;
#36 = VERTEX_POINT ( 'NONE', #6 ) ;
#37 = CARTESIAN_POINT ( 'NONE',  ( 0.0000000000000000000, 0.0000000000000000000, 1.800000000000000000 ) ) ;
#38 = APPLICATION_PROTOCOL_DEFINITION ( 'international standard', 'config_control_design', 1994, #247 ) ;
#39 = CALENDAR_DATE ( 2021, 8, 9 ) ;
#40 = CIRCLE ( 'NONE', #228, 8.000000000000000000 ) ;
#41 = DIRECTION ( 'NONE',  ( 0.0000000000000000000, 0.0000000000000000000, 1.000000000000000000 ) ) ;
#42 = CC_DESIGN_DATE_AND_TIME_ASSIGNMENT ( #102, #188, ( #131 ) ) ;
#43 = EDGE_CURVE ( 'NONE', #56, #36, #86, .T. ) ;
#44 = VERTEX_POINT ( 'NONE', #120 ) ;
#45 = EDGE_LOOP ( 'NONE', ( #7, #14, #77, #1 ) ) ;
#46 = EDGE_CURVE ( 'NONE', #127, #36, #193, .T. ) ;
#47 = CARTESIAN_POINT ( 'NONE',  ( 0.0000000000000000000, 0.0000000000000000000, 1.800000000000000000 ) ) ;
#48 = PRODUCT ( '93475A270_18-8 Stainless Steel Washer', '93475A270_18-8 Stainless Steel Washer', '', ( #69 ) ) ;
#49 = PERSON_AND_ORGANIZATION ( #178, #243 ) ;
#50 = ORIENTED_EDGE ( 'NONE', *, *, #112, .T. ) ;
#51 = ORIENTED_EDGE ( 'NONE', *, *, #164, .F. ) ;
#52 = PRODUCT_DEFINITION_FORMATION_WITH_SPECIFIED_SOURCE ( 'ANY', '', #48, .NOT_KNOWN. ) ;
#53 = APPROVAL_ROLE ( '' ) ;
#54 = VERTEX_POINT ( 'NONE', #141 ) ;
#55 = ORIENTED_EDGE ( 'NONE', *, *, #185, .T. ) ;
#56 = VERTEX_POINT ( 'NONE', #89 ) ;
#57 = CARTESIAN_POINT ( 'NONE',  ( 0.0000000000000000000, 0.0000000000000000000, 0.0000000000000000000 ) ) ;
#58 = CARTESIAN_POINT ( 'NONE',  ( -4.200000000000000200, 0.0000000000000000000, 1.800000000000000000 ) ) ;
#59 = ORIENTED_EDGE ( 'NONE', *, *, #13, .T. ) ;
#60 = FACE_OUTER_BOUND ( 'NONE', #99, .T. ) ;
#61 = APPROVAL_DATE_TIME ( #26, #27 ) ;
#62 = DIRECTION ( 'NONE',  ( -0.0000000000000000000, -0.0000000000000000000, -1.000000000000000000 ) ) ;
#63 = DIRECTION ( 'NONE',  ( 0.0000000000000000000, 0.0000000000000000000, 1.000000000000000000 ) ) ;
#64 = PLANE ( 'NONE',  #96 ) ;
#65 = EDGE_CURVE ( 'NONE', #72, #172, #180, .T. ) ;
#66 = AXIS2_PLACEMENT_3D ( 'NONE', #57, #196, #101 ) ;
#67 = PERSON_AND_ORGANIZATION ( #178, #243 ) ;
#68 = FACE_BOUND ( 'NONE', #92, .T. ) ;
#69 = MECHANICAL_CONTEXT ( 'NONE', #189, 'mechanical' ) ;
#70 = CARTESIAN_POINT ( 'NONE',  ( 0.0000000000000000000, 0.0000000000000000000, 1.800000000000000000 ) ) ;
#71 = EDGE_CURVE ( 'NONE', #72, #54, #219, .T. ) ;
#72 = VERTEX_POINT ( 'NONE', #9 ) ;
#73 =( NAMED_UNIT ( * ) SI_UNIT ( $, .STERADIAN. ) SOLID_ANGLE_UNIT ( ) );
#74 = PERSON_AND_ORGANIZATION_ROLE ( 'classification_officer' ) ;
#75 = DIRECTION ( 'NONE',  ( -0.0000000000000000000, -0.0000000000000000000, -1.000000000000000000 ) ) ;
#76 = LOCAL_TIME ( 20, 28, 45.00000000000000000, #126 ) ;
#77 = ORIENTED_EDGE ( 'NONE', *, *, #43, .F. ) ;
#78 = UNCERTAINTY_MEASURE_WITH_UNIT (LENGTH_MEASURE( 1.000000000000000100E-005 ), #205, 'distance_accuracy_value', 'NONE');
#79 = CC_DESIGN_DATE_AND_TIME_ASSIGNMENT ( #162, #165, ( #192 ) ) ;
#80 = EDGE_LOOP ( 'NONE', ( #129, #10, #109, #18 ) ) ;
#81 = DIRECTION ( 'NONE',  ( 0.0000000000000000000, 0.0000000000000000000, 1.000000000000000000 ) ) ;
#82 = AXIS2_PLACEMENT_3D ( 'NONE', #242, #225, #199 ) ;
#83 = DIRECTION ( 'NONE',  ( 0.0000000000000000000, 0.0000000000000000000, 1.000000000000000000 ) ) ;
#84 = CARTESIAN_POINT ( 'NONE',  ( 8.000000000000000000, 9.797174393178825700E-016, 0.0000000000000000000 ) ) ;
#85 = CALENDAR_DATE ( 2021, 8, 9 ) ;
#86 = CIRCLE ( 'NONE', #108, 4.200000000000000200 ) ;
#87 = CARTESIAN_POINT ( 'NONE',  ( 4.200000000000000200, 5.143516556418883900E-016, 1.800000000000000000 ) ) ;
#88 = DIRECTION ( 'NONE',  ( -1.000000000000000000, 0.0000000000000000000, 0.0000000000000000000 ) ) ;
#89 = CARTESIAN_POINT ( 'NONE',  ( -4.200000000000000200, 0.0000000000000000000, 0.0000000000000000000 ) ) ;
#90 = CIRCLE ( 'NONE', #82, 4.200000000000000200 ) ;
#91 = ADVANCED_FACE ( 'NONE', ( #152, #246 ), #240, .F. ) ;
#92 = EDGE_LOOP ( 'NONE', ( #235, #241 ) ) ;
#93 = DIRECTION ( 'NONE',  ( 0.0000000000000000000, 0.0000000000000000000, 1.000000000000000000 ) ) ;
#94 = AXIS2_PLACEMENT_3D ( 'NONE', #95, #93, #17 ) ;
#95 = CARTESIAN_POINT ( 'NONE',  ( 0.0000000000000000000, 0.0000000000000000000, 0.0000000000000000000 ) ) ;
#96 = AXIS2_PLACEMENT_3D ( 'NONE', #221, #83, #216 ) ;
#97 = COORDINATED_UNIVERSAL_TIME_OFFSET ( 6, 0, .BEHIND. ) ;
#98 = AXIS2_PLACEMENT_3D ( 'NONE', #100, #41, #28 ) ;
#99 = EDGE_LOOP ( 'NONE', ( #236, #231, #169, #55 ) ) ;
#100 = CARTESIAN_POINT ( 'NONE',  ( 0.0000000000000000000, 0.0000000000000000000, 1.800000000000000000 ) ) ;
#101 = DIRECTION ( 'NONE',  ( 1.000000000000000000, 0.0000000000000000000, 0.0000000000000000000 ) ) ;
#102 = DATE_AND_TIME ( #24, #76 ) ;
#103 = CARTESIAN_POINT ( 'NONE',  ( 0.0000000000000000000, 0.0000000000000000000, 0.0000000000000000000 ) ) ;
#104 = DIRECTION ( 'NONE',  ( 0.0000000000000000000, 0.0000000000000000000, 1.000000000000000000 ) ) ;
#105 = LINE ( 'NONE', #139, #201 ) ;
#106 = PERSON_AND_ORGANIZATION ( #178, #243 ) ;
#107 = ORIENTED_EDGE ( 'NONE', *, *, #177, .T. ) ;
#108 = AXIS2_PLACEMENT_3D ( 'NONE', #8, #63, #198 ) ;
#109 = ORIENTED_EDGE ( 'NONE', *, *, #164, .T. ) ;
#110 = EDGE_LOOP ( 'NONE', ( #207, #51 ) ) ;
#111 = APPROVAL ( #34, 'UNSPECIFIED' ) ;
#112 = EDGE_CURVE ( 'NONE', #54, #72, #40, .T. ) ;
#113 = CYLINDRICAL_SURFACE ( 'NONE', #143, 8.000000000000000000 ) ;
#114 = EDGE_LOOP ( 'NONE', ( #214, #59, #212, #4 ) ) ;
#115 = CC_DESIGN_PERSON_AND_ORGANIZATION_ASSIGNMENT ( #173, #132, ( #52 ) ) ;
#116 = EDGE_LOOP ( 'NONE', ( #50, #184 ) ) ;
#117 = CARTESIAN_POINT ( 'NONE',  ( 0.0000000000000000000, 0.0000000000000000000, 0.0000000000000000000 ) ) ;
#118 = AXIS2_PLACEMENT_3D ( 'NONE', #117, #81, #215 ) ;
#119 = LOCAL_TIME ( 20, 28, 45.00000000000000000, #226 ) ;
#120 = CARTESIAN_POINT ( 'NONE',  ( -8.000000000000000000, 0.0000000000000000000, 0.0000000000000000000 ) ) ;
#121 = CYLINDRICAL_SURFACE ( 'NONE', #158, 4.200000000000000200 ) ;
#122 = DIRECTION ( 'NONE',  ( -0.0000000000000000000, -0.0000000000000000000, -1.000000000000000000 ) ) ;
#123 = CC_DESIGN_PERSON_AND_ORGANIZATION_ASSIGNMENT ( #67, #209, ( #192 ) ) ;
#124 = DIRECTION ( 'NONE',  ( -0.0000000000000000000, -0.0000000000000000000, -1.000000000000000000 ) ) ;
#125 = CARTESIAN_POINT ( 'NONE',  ( 0.0000000000000000000, 0.0000000000000000000, 0.0000000000000000000 ) ) ;
#126 = COORDINATED_UNIVERSAL_TIME_OFFSET ( 6, 0, .BEHIND. ) ;
#127 = VERTEX_POINT ( 'NONE', #87 ) ;
#128 = SECURITY_CLASSIFICATION_LEVEL ( 'unclassified' ) ;
#129 = ORIENTED_EDGE ( 'NONE', *, *, #71, .F. ) ;
#130 = APPROVAL_ROLE ( '' ) ;
#131 = SECURITY_CLASSIFICATION ( '', '', #128 ) ;
#132 = PERSON_AND_ORGANIZATION_ROLE ( 'design_supplier' ) ;
#133 = LOCAL_TIME ( 20, 28, 45.00000000000000000, #232 ) ;
#134 = AXIS2_PLACEMENT_3D ( 'NONE', #238, #124, #88 ) ;
#135 =( GEOMETRIC_REPRESENTATION_CONTEXT ( 3 ) GLOBAL_UNCERTAINTY_ASSIGNED_CONTEXT ( ( #78 ) ) GLOBAL_UNIT_ASSIGNED_CONTEXT ( ( #205, #244, #73 ) ) REPRESENTATION_CONTEXT ( 'NONE', 'WORKASPACE' ) );
#136 = FACE_OUTER_BOUND ( 'NONE', #45, .T. ) ;
#137 = LOCAL_TIME ( 20, 28, 45.00000000000000000, #191 ) ;
#138 = DIRECTION ( 'NONE',  ( 0.0000000000000000000, 0.0000000000000000000, 1.000000000000000000 ) ) ;
#139 = CARTESIAN_POINT ( 'NONE',  ( -8.000000000000000000, 0.0000000000000000000, 1.800000000000000000 ) ) ;
#140 = CIRCLE ( 'NONE', #118, 4.200000000000000200 ) ;
#141 = CARTESIAN_POINT ( 'NONE',  ( -8.000000000000000000, 0.0000000000000000000, 1.800000000000000000 ) ) ;
#142 = CC_DESIGN_APPROVAL ( #16, ( #52 ) ) ;
#143 = AXIS2_PLACEMENT_3D ( 'NONE', #70, #75, #22 ) ;
#144 = APPROVAL_PERSON_ORGANIZATION ( #49, #27, #130 ) ;
#145 = ADVANCED_FACE ( 'NONE', ( #25, #68 ), #64, .T. ) ;
#146 = DESIGN_CONTEXT ( 'detailed design', #247, 'design' ) ;
#147 = VERTEX_POINT ( 'NONE', #233 ) ;
#148 = DIRECTION ( 'NONE',  ( -1.000000000000000000, 0.0000000000000000000, 0.0000000000000000000 ) ) ;
#149 = PERSON_AND_ORGANIZATION_ROLE ( 'design_owner' ) ;
#150 = EDGE_CURVE ( 'NONE', #147, #56, #187, .T. ) ;
#151 = PERSON_AND_ORGANIZATION ( #178, #243 ) ;
#152 = FACE_OUTER_BOUND ( 'NONE', #110, .T. ) ;
#153 = CC_DESIGN_APPROVAL ( #27, ( #131 ) ) ;
#154 = PERSON_AND_ORGANIZATION ( #178, #243 ) ;
#155 = CC_DESIGN_PERSON_AND_ORGANIZATION_ASSIGNMENT ( #229, #208, ( #52 ) ) ;
#156 = CARTESIAN_POINT ( 'NONE',  ( 0.0000000000000000000, 0.0000000000000000000, 1.800000000000000000 ) ) ;
#157 = EDGE_CURVE ( 'NONE', #147, #127, #90, .T. ) ;
#158 = AXIS2_PLACEMENT_3D ( 'NONE', #156, #2, #234 ) ;
#159 = AXIS2_PLACEMENT_3D ( 'NONE', #47, #237, #5 ) ;
#160 = CIRCLE ( 'NONE', #224, 8.000000000000000000 ) ;
#161 = ADVANCED_FACE ( 'NONE', ( #29 ), #230, .F. ) ;
#162 = DATE_AND_TIME ( #218, #137 ) ;
#163 = APPLICATION_PROTOCOL_DEFINITION ( 'international standard', 'config_control_design', 1994, #189 ) ;
#164 = EDGE_CURVE ( 'NONE', #172, #44, #31, .T. ) ;
#165 = DATE_TIME_ROLE ( 'creation_date' ) ;
#166 = PRODUCT_RELATED_PRODUCT_CATEGORY ( 'detail', '', ( #48 ) ) ;
#167 = VECTOR ( 'NONE', #197, 1000.000000000000000 ) ;
#168 = APPROVAL_PERSON_ORGANIZATION ( #106, #111, #53 ) ;
#169 = ORIENTED_EDGE ( 'NONE', *, *, #35, .T. ) ;
#170 = CC_DESIGN_PERSON_AND_ORGANIZATION_ASSIGNMENT ( #151, #74, ( #131 ) ) ;
#171 = VECTOR ( 'NONE', #62, 1000.000000000000000 ) ;
#172 = VERTEX_POINT ( 'NONE', #84 ) ;
#173 = PERSON_AND_ORGANIZATION ( #178, #243 ) ;
#174 = DIRECTION ( 'NONE',  ( 1.000000000000000000, 0.0000000000000000000, -0.0000000000000000000 ) ) ;
#175 = CALENDAR_DATE ( 2021, 8, 9 ) ;
#176 = DIRECTION ( 'NONE',  ( 1.000000000000000000, 0.0000000000000000000, 0.0000000000000000000 ) ) ;
#177 = EDGE_CURVE ( 'NONE', #36, #56, #140, .T. ) ;
#178 = PERSON ( 'UNSPECIFIED', 'UNSPECIFIED', 'UNSPECIFIED', ('UNSPECIFIED'), ('UNSPECIFIED'), ('UNSPECIFIED') ) ;
#179 = CARTESIAN_POINT ( 'NONE',  ( 8.000000000000000000, 9.797174393178825700E-016, 1.800000000000000000 ) ) ;
#180 = LINE ( 'NONE', #179, #171 ) ;
#181 = ORIENTED_EDGE ( 'NONE', *, *, #43, .T. ) ;
#182 = SHAPE_DEFINITION_REPRESENTATION ( #204, #33 ) ;
#183 = ADVANCED_FACE ( 'NONE', ( #136 ), #121, .F. ) ;
#184 = ORIENTED_EDGE ( 'NONE', *, *, #71, .T. ) ;
#185 = EDGE_CURVE ( 'NONE', #44, #172, #160, .T. ) ;
#186 = APPROVAL_ROLE ( '' ) ;
#187 = LINE ( 'NONE', #58, #167 ) ;
#188 = DATE_TIME_ROLE ( 'classification_date' ) ;
#189 = APPLICATION_CONTEXT ( 'configuration controlled 3d designs of mechanical parts and assemblies' ) ;
#190 = AXIS2_PLACEMENT_3D ( 'NONE', #37, #245, #148 ) ;
#191 = COORDINATED_UNIVERSAL_TIME_OFFSET ( 6, 0, .BEHIND. ) ;
#192 = PRODUCT_DEFINITION ( 'UNKNOWN', '', #52, #146 ) ;
#193 = LINE ( 'NONE', #220, #222 ) ;
#194 = DATE_AND_TIME ( #39, #119 ) ;
#195 = EDGE_LOOP ( 'NONE', ( #181, #107 ) ) ;
#196 = DIRECTION ( 'NONE',  ( 0.0000000000000000000, 0.0000000000000000000, 1.000000000000000000 ) ) ;
#197 = DIRECTION ( 'NONE',  ( -0.0000000000000000000, -0.0000000000000000000, -1.000000000000000000 ) ) ;
#198 = DIRECTION ( 'NONE',  ( 1.000000000000000000, 0.0000000000000000000, 0.0000000000000000000 ) ) ;
#199 = DIRECTION ( 'NONE',  ( 1.000000000000000000, 0.0000000000000000000, 0.0000000000000000000 ) ) ;
#200 = DIRECTION ( 'NONE',  ( 0.0000000000000000000, 0.0000000000000000000, 1.000000000000000000 ) ) ;
#201 = VECTOR ( 'NONE', #122, 1000.000000000000000 ) ;
#202 = DIRECTION ( 'NONE',  ( -0.0000000000000000000, -0.0000000000000000000, -1.000000000000000000 ) ) ;
#203 = PERSON_AND_ORGANIZATION ( #178, #243 ) ;
#204 = PRODUCT_DEFINITION_SHAPE ( 'NONE', 'NONE',  #192 ) ;
#205 =( LENGTH_UNIT ( ) NAMED_UNIT ( * ) SI_UNIT ( .MILLI., .METRE. ) );
#206 = CC_DESIGN_SECURITY_CLASSIFICATION ( #131, ( #52 ) ) ;
#207 = ORIENTED_EDGE ( 'NONE', *, *, #185, .F. ) ;
#208 = PERSON_AND_ORGANIZATION_ROLE ( 'creator' ) ;
#209 = PERSON_AND_ORGANIZATION_ROLE ( 'creator' ) ;
#210 = MANIFOLD_SOLID_BREP ( 'Boss-Extrude1', #32 ) ;
#211 = CYLINDRICAL_SURFACE ( 'NONE', #190, 8.000000000000000000 ) ;
#212 = ORIENTED_EDGE ( 'NONE', *, *, #150, .T. ) ;
#213 = AXIS2_PLACEMENT_3D ( 'NONE', #125, #104, #174 ) ;
#214 = ORIENTED_EDGE ( 'NONE', *, *, #46, .F. ) ;
#215 = DIRECTION ( 'NONE',  ( 1.000000000000000000, 0.0000000000000000000, 0.0000000000000000000 ) ) ;
#216 = DIRECTION ( 'NONE',  ( 1.000000000000000000, 0.0000000000000000000, -0.0000000000000000000 ) ) ;
#217 = CARTESIAN_POINT ( 'NONE',  ( 0.0000000000000000000, 0.0000000000000000000, 1.800000000000000000 ) ) ;
#218 = CALENDAR_DATE ( 2021, 8, 9 ) ;
#219 = CIRCLE ( 'NONE', #159, 8.000000000000000000 ) ;
#220 = CARTESIAN_POINT ( 'NONE',  ( 4.200000000000000200, 5.143516556418883900E-016, 1.800000000000000000 ) ) ;
#221 = CARTESIAN_POINT ( 'NONE',  ( 0.0000000000000000000, 0.0000000000000000000, 1.800000000000000000 ) ) ;
#222 = VECTOR ( 'NONE', #202, 1000.000000000000000 ) ;
#223 = ADVANCED_FACE ( 'NONE', ( #20 ), #113, .T. ) ;
#224 = AXIS2_PLACEMENT_3D ( 'NONE', #103, #138, #11 ) ;
#225 = DIRECTION ( 'NONE',  ( 0.0000000000000000000, 0.0000000000000000000, 1.000000000000000000 ) ) ;
#226 = COORDINATED_UNIVERSAL_TIME_OFFSET ( 6, 0, .BEHIND. ) ;
#227 = APPROVAL_STATUS ( 'not_yet_approved' ) ;
#228 = AXIS2_PLACEMENT_3D ( 'NONE', #217, #200, #176 ) ;
#229 = PERSON_AND_ORGANIZATION ( #178, #243 ) ;
#230 = CYLINDRICAL_SURFACE ( 'NONE', #134, 4.200000000000000200 ) ;
#231 = ORIENTED_EDGE ( 'NONE', *, *, #112, .F. ) ;
#232 = COORDINATED_UNIVERSAL_TIME_OFFSET ( 6, 0, .BEHIND. ) ;
#233 = CARTESIAN_POINT ( 'NONE',  ( -4.200000000000000200, 0.0000000000000000000, 1.800000000000000000 ) ) ;
#234 = DIRECTION ( 'NONE',  ( -1.000000000000000000, 0.0000000000000000000, 0.0000000000000000000 ) ) ;
#235 = ORIENTED_EDGE ( 'NONE', *, *, #157, .F. ) ;
#236 = ORIENTED_EDGE ( 'NONE', *, *, #65, .F. ) ;
#237 = DIRECTION ( 'NONE',  ( 0.0000000000000000000, 0.0000000000000000000, 1.000000000000000000 ) ) ;
#238 = CARTESIAN_POINT ( 'NONE',  ( 0.0000000000000000000, 0.0000000000000000000, 1.800000000000000000 ) ) ;
#239 = CIRCLE ( 'NONE', #98, 4.200000000000000200 ) ;
#240 = PLANE ( 'NONE',  #213 ) ;
#241 = ORIENTED_EDGE ( 'NONE', *, *, #13, .F. ) ;
#242 = CARTESIAN_POINT ( 'NONE',  ( 0.0000000000000000000, 0.0000000000000000000, 1.800000000000000000 ) ) ;
#243 = ORGANIZATION ( 'UNSPECIFIED', 'UNSPECIFIED', '' ) ;
#244 =( NAMED_UNIT ( * ) PLANE_ANGLE_UNIT ( ) SI_UNIT ( $, .RADIAN. ) );
#245 = DIRECTION ( 'NONE',  ( -0.0000000000000000000, -0.0000000000000000000, -1.000000000000000000 ) ) ;
#246 = FACE_BOUND ( 'NONE', #195, .T. ) ;
#247 = APPLICATION_CONTEXT ( 'configuration controlled 3d designs of mechanical parts and assemblies' ) ;
#248 = DATE_AND_TIME ( #85, #133 ) ;
#249 = CC_DESIGN_PERSON_AND_ORGANIZATION_ASSIGNMENT ( #203, #149, ( #48 ) ) ;
ENDSEC;
END-ISO-10303-21;
