ISO-10303-21;
HEADER;
FILE_DESCRIPTION (( 'STEP AP203' ),
    '1' );
FILE_NAME ('91290A332_NO THREADS_Alloy Steel Socket Head Screw.STEP',
    '2023-01-11T17:16:58',
    ( 'Administrator' ),
    ( 'Managed by Terraform' ),
    'SwSTEP 2.0',
    'SolidWorks 2017',
    '' );
FILE_SCHEMA (( 'CONFIG_CONTROL_DESIGN' ));
ENDSEC;

DATA;
#1 = EDGE_LOOP ( 'NONE', ( #90, #722 ) ) ;
#2 = ORIENTED_EDGE ( 'NONE', *, *, #215, .T. ) ;
#3 = CARTESIAN_POINT ( 'NONE',  ( -2.101213256461273100, 1.673615306705401600, 17.57278725590573400 ) ) ;
#4 = AXIS2_PLACEMENT_3D ( 'NONE', #343, #649, #710 ) ;
#5 = CARTESIAN_POINT ( 'NONE',  ( 5.939536975864663000E-016, -4.700000000000000200, 18.00000000000000400 ) ) ;
#6 = CARTESIAN_POINT ( 'NONE',  ( -2.500000000000000000, 1.443375672974063200, 17.78349364905389200 ) ) ;
#7 = CARTESIAN_POINT ( 'NONE',  ( -0.7053885464011665500, 2.479495078800136600, 17.47208214815059400 ) ) ;
#8 = EDGE_CURVE ( 'NONE', #242, #436, #450, .T. ) ;
#9 = CYLINDRICAL_SURFACE ( 'NONE', #363, 2.999999999999999100 ) ;
#10 = VECTOR ( 'NONE', #477, 1000.000000000000000 ) ;
#11 = ORIENTED_EDGE ( 'NONE', *, *, #104, .F. ) ;
#12 = CARTESIAN_POINT ( 'NONE',  ( 2.303518737899370900, -1.556814182538578800, 17.67005513948902300 ) ) ;
#13 = DIRECTION ( 'NONE',  ( 0.0000000000000000000, 1.000000000000000000, 3.600975197699278300E-057 ) ) ;
#14 = VERTEX_POINT ( 'NONE', #422 ) ;
#15 = DATE_TIME_ROLE ( 'creation_date' ) ;
#16 = DIRECTION ( 'NONE',  ( -0.0000000000000000000, 3.600975197699278300E-057, -1.000000000000000000 ) ) ;
#17 = ADVANCED_FACE ( 'NONE', ( #299 ), #691, .T. ) ;
#18 = PERSON_AND_ORGANIZATION ( #53, #754 ) ;
#19 = DIRECTION ( 'NONE',  ( 8.659560562354908200E-017, -0.7071067811865454600, -0.7071067811865495700 ) ) ;
#20 = VECTOR ( 'NONE', #164, 1000.000000000000000 ) ;
#21 = ORIENTED_EDGE ( 'NONE', *, *, #228, .F. ) ;
#22 = ORIENTED_EDGE ( 'NONE', *, *, #705, .F. ) ;
#23 = DIRECTION ( 'NONE',  ( -0.5000000000000004400, 0.8660254037844384900, 0.0000000000000000000 ) ) ;
#24 = CARTESIAN_POINT ( 'NONE',  ( 0.0000000000000000000, 5.000000000000000000, -18.00000000000000400 ) ) ;
#25 = ORIENTED_EDGE ( 'NONE', *, *, #387, .F. ) ;
#26 = ADVANCED_FACE ( 'NONE', ( #230 ), #544, .F. ) ;
#27 = DIRECTION ( 'NONE',  ( 0.0000000000000000000, -3.600975197699278300E-057, 1.000000000000000000 ) ) ;
#28 = CIRCLE ( 'NONE', #565, 2.350480947161670600 ) ;
#29 = VECTOR ( 'NONE', #167, 1000.000000000000000 ) ;
#30 = APPROVAL ( #48, 'UNSPECIFIED' ) ;
#31 = VERTEX_POINT ( 'NONE', #478 ) ;
#32 = VERTEX_POINT ( 'NONE', #6 ) ;
#33 = CARTESIAN_POINT ( 'NONE',  ( -2.500000000000000000, -1.443375672974065200, 13.00000000000000200 ) ) ;
#34 = AXIS2_PLACEMENT_3D ( 'NONE', #541, #552, #244 ) ;
#35 = CARTESIAN_POINT ( 'NONE',  ( 0.0000000000000000000, 1.080292559309793600E-057, 17.69999999999999900 ) ) ;
#36 = CARTESIAN_POINT ( 'NONE',  ( -2.500000000000000000, -1.443375672974065200, 4.362373841740266700 ) ) ;
#37 = PERSON_AND_ORGANIZATION ( #53, #754 ) ;
#38 = FACE_OUTER_BOUND ( 'NONE', #118, .T. ) ;
#39 = ORIENTED_EDGE ( 'NONE', *, *, #527, .T. ) ;
#40 = CARTESIAN_POINT ( 'NONE',  ( 0.0000000000000000000, 2.160585118619569700E-056, 11.99999999999999600 ) ) ;
#41 = VERTEX_POINT ( 'NONE', #720 ) ;
#42 = APPLICATION_CONTEXT ( 'configuration controlled 3d designs of mechanical parts and assemblies' ) ;
#43 = DIRECTION ( 'NONE',  ( 0.0000000000000000000, 1.000000000000000000, 0.0000000000000000000 ) ) ;
#44 = AXIS2_PLACEMENT_3D ( 'NONE', #673, #558, #13 ) ;
#45 = DIRECTION ( 'NONE',  ( 0.0000000000000000000, 1.000000000000000000, 0.0000000000000000000 ) ) ;
#46 = CARTESIAN_POINT ( 'NONE',  ( 3.673940397442058400E-016, -2.999999999999998200, 11.70000000000000300 ) ) ;
#47 = LINE ( 'NONE', #109, #29 ) ;
#48 = APPROVAL_STATUS ( 'not_yet_approved' ) ;
#49 = VERTEX_POINT ( 'NONE', #420 ) ;
#50 = EDGE_CURVE ( 'NONE', #357, #203, #629, .T. ) ;
#51 = CARTESIAN_POINT ( 'NONE',  ( 1.363725120039725600, 2.099404280792537500, 17.39701585421035900 ) ) ;
#52 = CC_DESIGN_DATE_AND_TIME_ASSIGNMENT ( #697, #110, ( #391 ) ) ;
#53 = PERSON ( 'UNSPECIFIED', 'UNSPECIFIED', 'UNSPECIFIED', ('UNSPECIFIED'), ('UNSPECIFIED'), ('UNSPECIFIED') ) ;
#54 = PLANE ( 'NONE',  #736 ) ;
#55 = APPROVAL_PERSON_ORGANIZATION ( #534, #30, #218 ) ;
#56 = CONICAL_SURFACE ( 'NONE', #442, 5.000000000000000000, 0.7853981633974453900 ) ;
#57 = ORIENTED_EDGE ( 'NONE', *, *, #269, .F. ) ;
#58 = ORIENTED_EDGE ( 'NONE', *, *, #132, .F. ) ;
#59 = CARTESIAN_POINT ( 'NONE',  ( 0.1964812621006262200, 2.773312836383613700, 17.67005513948902600 ) ) ;
#60 = AXIS2_PLACEMENT_3D ( 'NONE', #308, #512, #518 ) ;
#61 = CARTESIAN_POINT ( 'NONE',  ( -2.500000000000000400, 0.9849427056166817400, 17.57373325822236200 ) ) ;
#62 = CARTESIAN_POINT ( 'NONE',  ( 0.0000000000000000000, 1.296351071171740300E-055, -18.00000000000000400 ) ) ;
#63 = CARTESIAN_POINT ( 'NONE',  ( 2.500000000000000000, 0.9849427056166832900, 17.57373325822236500 ) ) ;
#64 = DIRECTION ( 'NONE',  ( 0.0000000000000000000, 1.000000000000000000, 0.0000000000000000000 ) ) ;
#65 = EDGE_CURVE ( 'NONE', #639, #671, #116, .T. ) ;
#66 = CC_DESIGN_APPROVAL ( #30, ( #391 ) ) ;
#67 = VECTOR ( 'NONE', #78, 1000.000000000000000 ) ;
#68 = DIRECTION ( 'NONE',  ( 0.0000000000000000000, 0.0000000000000000000, 1.000000000000000000 ) ) ;
#69 = CARTESIAN_POINT ( 'NONE',  ( 0.0000000000000000000, 2.052555862688590200E-056, 12.29999999999999900 ) ) ;
#70 = EDGE_LOOP ( 'NONE', ( #774, #711, #11, #406 ) ) ;
#71 = ORIENTED_EDGE ( 'NONE', *, *, #8, .T. ) ;
#72 = CARTESIAN_POINT ( 'NONE',  ( -1.025576057339865800, 2.294634733168523100, 17.40714235202777600 ) ) ;
#73 = CC_DESIGN_PERSON_AND_ORGANIZATION_ASSIGNMENT ( #779, #353, ( #391 ) ) ;
#74 = DIRECTION ( 'NONE',  ( -0.8660254037844388200, 0.4999999999999998300, 1.800487598849638600E-057 ) ) ;
#75 = CARTESIAN_POINT ( 'NONE',  ( 2.500000000000000000, -0.2534697143641924700, 17.39674230310576400 ) ) ;
#76 = VECTOR ( 'NONE', #689, 1000.000000000000000 ) ;
#77 = ORIENTED_EDGE ( 'NONE', *, *, #765, .T. ) ;
#78 = DIRECTION ( 'NONE',  ( 8.659560562354908200E-017, 0.7071067811865454600, 0.7071067811865495700 ) ) ;
#79 = ORIENTED_EDGE ( 'NONE', *, *, #660, .F. ) ;
#80 = VERTEX_POINT ( 'NONE', #320 ) ;
#81 = EDGE_CURVE ( 'NONE', #451, #243, #172, .T. ) ;
#82 = DIRECTION ( 'NONE',  ( 0.0000000000000000000, 0.0000000000000000000, 1.000000000000000000 ) ) ;
#83 = DIRECTION ( 'NONE',  ( 0.0000000000000000000, 1.000000000000000000, 0.0000000000000000000 ) ) ;
#84 = CARTESIAN_POINT ( 'NONE',  ( 6.818105075486816300E-016, -2.886751345948130400, 17.78349364905389500 ) ) ;
#85 = DATE_AND_TIME ( #199, #446 ) ;
#86 = DIRECTION ( 'NONE',  ( 0.0000000000000000000, -1.000000000000000000, 0.0000000000000000000 ) ) ;
#87 = CONICAL_SURFACE ( 'NONE', #396, 3.103257696894238900, 0.7853981633974500600 ) ;
#88 = ADVANCED_FACE ( 'NONE', ( #415, #365 ), #374, .T. ) ;
#89 = VECTOR ( 'NONE', #659, 1000.000000000000100 ) ;
#90 = ORIENTED_EDGE ( 'NONE', *, *, #8, .F. ) ;
#91 = CARTESIAN_POINT ( 'NONE',  ( -8.673617379884035500E-016, 2.886751345948128700, 13.00000000000000200 ) ) ;
#92 = EDGE_CURVE ( 'NONE', #538, #31, #435, .T. ) ;
#93 = DIRECTION ( 'NONE',  ( -0.0000000000000000000, 3.600975197699278300E-057, -1.000000000000000000 ) ) ;
#94 = COORDINATED_UNIVERSAL_TIME_OFFSET ( 6, 0, .BEHIND. ) ;
#95 = FACE_OUTER_BOUND ( 'NONE', #366, .T. ) ;
#96 = DIRECTION ( 'NONE',  ( 0.0000000000000000000, 1.000000000000000000, 3.600975197699278300E-057 ) ) ;
#97 = ORIENTED_EDGE ( 'NONE', *, *, #593, .F. ) ;
#98 = ORIENTED_EDGE ( 'NONE', *, *, #297, .T. ) ;
#99 = ORIENTED_EDGE ( 'NONE', *, *, #411, .T. ) ;
#100 =( NAMED_UNIT ( * ) SI_UNIT ( $, .STERADIAN. ) SOLID_ANGLE_UNIT ( ) );
#101 = DIRECTION ( 'NONE',  ( -0.0000000000000000000, 3.600975197699278300E-057, -1.000000000000000000 ) ) ;
#102 = APPROVAL_DATE_TIME ( #414, #219 ) ;
#103 = CIRCLE ( 'NONE', #317, 5.000000000000000000 ) ;
#104 = EDGE_CURVE ( 'NONE', #561, #14, #588, .T. ) ;
#105 = VECTOR ( 'NONE', #294, 1000.000000000000000 ) ;
#106 = CARTESIAN_POINT ( 'NONE',  ( 0.0000000000000000000, -6.481755355858701300E-056, 18.00000000000000400 ) ) ;
#107 = ORIENTED_EDGE ( 'NONE', *, *, #50, .F. ) ;
#108 = ORIENTED_EDGE ( 'NONE', *, *, #455, .T. ) ;
#109 = CARTESIAN_POINT ( 'NONE',  ( 3.103257696894238900, -6.481755355858701300E-056, 18.00000000000000400 ) ) ;
#110 = DATE_TIME_ROLE ( 'classification_date' ) ;
#111 = DIRECTION ( 'NONE',  ( 0.0000000000000000000, 0.0000000000000000000, 1.000000000000000000 ) ) ;
#112 = ADVANCED_FACE ( 'NONE', ( #781, #670 ), #490, .T. ) ;
#113 = CARTESIAN_POINT ( 'NONE',  ( -8.555810909941606700E-016, 2.886751345948128700, 13.00000000000000200 ) ) ;
#114 = CARTESIAN_POINT ( 'NONE',  ( 6.123233995736766300E-016, -5.000000000000000000, 17.69999999999999900 ) ) ;
#115 = PERSON_AND_ORGANIZATION ( #53, #754 ) ;
#116 = CIRCLE ( 'NONE', #479, 3.000000000000000000 ) ;
#117 = CARTESIAN_POINT ( 'NONE',  ( 1.036359489711275800, 2.288408915586099400, 17.39621215275624900 ) ) ;
#118 = EDGE_LOOP ( 'NONE', ( #632, #701, #419, #292, #458, #147, #574 ) ) ;
#119 = AXIS2_PLACEMENT_3D ( 'NONE', #249, #131, #667 ) ;
#120 = EDGE_LOOP ( 'NONE', ( #672, #208, #517, #232 ) ) ;
#121 = CARTESIAN_POINT ( 'NONE',  ( 2.499999999999999600, 1.443375672974064800, 17.78349364905389200 ) ) ;
#122 = CARTESIAN_POINT ( 'NONE',  ( -1.263572594681543600E-015, 2.886751345948128200, 17.78349364905389200 ) ) ;
#123 = EDGE_CURVE ( 'NONE', #80, #663, #300, .T. ) ;
#124 = CARTESIAN_POINT ( 'NONE',  ( -1.463640510288724000, 2.041718103336091200, 17.39621215275624500 ) ) ;
#125 = DIRECTION ( 'NONE',  ( -0.0000000000000000000, 3.600975197699278300E-057, -1.000000000000000000 ) ) ;
#126 = FACE_OUTER_BOUND ( 'NONE', #312, .T. ) ;
#127 = ORIENTED_EDGE ( 'NONE', *, *, #205, .T. ) ;
#128 = EDGE_LOOP ( 'NONE', ( #380, #620, #582, #97 ) ) ;
#129 = DIRECTION ( 'NONE',  ( 0.0000000000000000000, -0.7071067811865462400, 0.7071067811865489100 ) ) ;
#130 = AXIS2_PLACEMENT_3D ( 'NONE', #379, #733, #315 ) ;
#131 = DIRECTION ( 'NONE',  ( -0.0000000000000000000, 3.600975197699278300E-057, -1.000000000000000000 ) ) ;
#132 = EDGE_CURVE ( 'NONE', #284, #357, #718, .T. ) ;
#133 = PERSON_AND_ORGANIZATION ( #53, #754 ) ;
#134 = FACE_OUTER_BOUND ( 'NONE', #519, .T. ) ;
#135 = ADVANCED_FACE ( 'NONE', ( #161 ), #250, .T. ) ;
#136 = ORIENTED_EDGE ( 'NONE', *, *, #461, .T. ) ;
#137 = ORIENTED_EDGE ( 'NONE', *, *, #215, .F. ) ;
#138 = CARTESIAN_POINT ( 'NONE',  ( 0.0000000000000000000, 1.296351071171740300E-055, -18.00000000000000400 ) ) ;
#139 = CC_DESIGN_DATE_AND_TIME_ASSIGNMENT ( #238, #15, ( #152 ) ) ;
#140 = CARTESIAN_POINT ( 'NONE',  ( 1.025576057339864900, -2.294634733168525300, 17.40714235202776900 ) ) ;
#141 = DIRECTION ( 'NONE',  ( 0.0000000000000000000, -3.600975197699278300E-057, 1.000000000000000000 ) ) ;
#142 = CARTESIAN_POINT ( 'NONE',  ( -1.474423942660134400, -2.035492285753671900, 17.40714235202777300 ) ) ;
#143 = FACE_OUTER_BOUND ( 'NONE', #654, .T. ) ;
#144 = EDGE_LOOP ( 'NONE', ( #58, #758, #163, #107 ) ) ;
#145 = CARTESIAN_POINT ( 'NONE',  ( 0.7053885464011642200, -2.479495078800139300, 17.47208214815059800 ) ) ;
#146 = CARTESIAN_POINT ( 'NONE',  ( -1.794611453598834000, -1.850631940122057900, 17.47208214815059400 ) ) ;
#147 = ORIENTED_EDGE ( 'NONE', *, *, #245, .T. ) ;
#148 = ADVANCED_FACE ( 'NONE', ( #95 ), #547, .T. ) ;
#149 = EDGE_CURVE ( 'NONE', #647, #203, #559, .T. ) ;
#150 = CARTESIAN_POINT ( 'NONE',  ( -2.500000000000000000, 1.443375672974063400, 13.00000000000000200 ) ) ;
#151 = CARTESIAN_POINT ( 'NONE',  ( -3.103257696894238900, 3.800394605430916900E-016, 18.00000000000000400 ) ) ;
#152 = PRODUCT_DEFINITION ( 'UNKNOWN', '', #623, #440 ) ;
#153 = FACE_OUTER_BOUND ( 'NONE', #617, .T. ) ;
#154 = VECTOR ( 'NONE', #310, 1000.000000000000000 ) ;
#155 = ORIENTED_EDGE ( 'NONE', *, *, #65, .F. ) ;
#156 = ORIENTED_EDGE ( 'NONE', *, *, #332, .T. ) ;
#157 = AXIS2_PLACEMENT_3D ( 'NONE', #447, #82, #371 ) ;
#158 = CARTESIAN_POINT ( 'NONE',  ( 0.0000000000000000000, -2.350480947161670600, -18.00000000000000400 ) ) ;
#159 = EDGE_CURVE ( 'NONE', #31, #313, #412, .T. ) ;
#160 = VECTOR ( 'NONE', #19, 1000.000000000000000 ) ;
#161 = FACE_OUTER_BOUND ( 'NONE', #144, .T. ) ;
#162 = ORIENTED_EDGE ( 'NONE', *, *, #92, .F. ) ;
#163 = ORIENTED_EDGE ( 'NONE', *, *, #149, .T. ) ;
#164 = DIRECTION ( 'NONE',  ( -0.0000000000000000000, -0.0000000000000000000, 1.000000000000000000 ) ) ;
#165 = AXIS2_PLACEMENT_3D ( 'NONE', #69, #533, #602 ) ;
#166 = DIRECTION ( 'NONE',  ( 0.0000000000000000000, 1.000000000000000000, 0.0000000000000000000 ) ) ;
#167 = DIRECTION ( 'NONE',  ( 0.7071067811865487900, 0.0000000000000000000, 0.7071067811865463500 ) ) ;
#168 = APPLICATION_PROTOCOL_DEFINITION ( 'international standard', 'config_control_design', 1994, #471 ) ;
#169 = CARTESIAN_POINT ( 'NONE',  ( 0.0000000000000000000, 0.0000000000000000000, 18.00000000000000400 ) ) ;
#170 = LINE ( 'NONE', #356, #780 ) ;
#171 = EDGE_CURVE ( 'NONE', #203, #357, #466, .T. ) ;
#172 = LINE ( 'NONE', #295, #404 ) ;
#173 = ORIENTED_EDGE ( 'NONE', *, *, #245, .F. ) ;
#174 = ORIENTED_EDGE ( 'NONE', *, *, #370, .T. ) ;
#175 = CARTESIAN_POINT ( 'NONE',  ( 0.0000000000000000000, -6.481755355858701300E-056, 18.00000000000000400 ) ) ;
#176 = DIRECTION ( 'NONE',  ( 0.0000000000000000000, 1.000000000000000000, 0.0000000000000000000 ) ) ;
#177 = APPROVAL ( #443, 'UNSPECIFIED' ) ;
#178 = CARTESIAN_POINT ( 'NONE',  ( 8.713609786167769200E-016, -2.886751345948130400, 4.362373841740266700 ) ) ;
#179 = APPROVAL_PERSON_ORGANIZATION ( #115, #177, #384 ) ;
#180 = LINE ( 'NONE', #699, #20 ) ;
#181 = CARTESIAN_POINT ( 'NONE',  ( 0.8218418864751631000, 2.412260711560383400, 17.43437054072093400 ) ) ;
#182 = CARTESIAN_POINT ( 'NONE',  ( 0.0000000000000000000, 0.0000000000000000000, 18.00000000000000400 ) ) ;
#183 = ORIENTED_EDGE ( 'NONE', *, *, #569, .F. ) ;
#184 = AXIS2_PLACEMENT_3D ( 'NONE', #169, #287, #236 ) ;
#185 = EDGE_LOOP ( 'NONE', ( #99, #692 ) ) ;
#186 = CARTESIAN_POINT ( 'NONE',  ( -2.500000000000000000, 3.061069118652548300E-016, 17.39674230310576400 ) ) ;
#187 = CARTESIAN_POINT ( 'NONE',  ( -2.500000000000000000, 3.061069118652548300E-016, 17.39674230310576400 ) ) ;
#188 = EDGE_CURVE ( 'NONE', #49, #451, #311, .T. ) ;
#189 = CARTESIAN_POINT ( 'NONE',  ( 0.3987867435387274500, 2.656511712216788300, 17.57278725590573000 ) ) ;
#190 = CARTESIAN_POINT ( 'NONE',  ( 2.499999999999999600, -1.219481799861997600, 17.67154671249785400 ) ) ;
#191 = VECTOR ( 'NONE', #768, 1000.000000000000000 ) ;
#192 = ORIENTED_EDGE ( 'NONE', *, *, #445, .F. ) ;
#193 = CARTESIAN_POINT ( 'NONE',  ( -0.3950665264161221100, 2.658659580573970800, 17.57483382634059100 ) ) ;
#194 = PRODUCT_RELATED_PRODUCT_CATEGORY ( 'detail', '', ( #595 ) ) ;
#195 = ADVANCED_FACE ( 'NONE', ( #267 ), #773, .T. ) ;
#196 = DIRECTION ( 'NONE',  ( -0.0000000000000000000, 3.600975197699278300E-057, -1.000000000000000000 ) ) ;
#197 = CARTESIAN_POINT ( 'NONE',  ( 2.500000000000000000, -0.5024865834171832200, 17.43628044913248200 ) ) ;
#198 = AXIS2_PLACEMENT_3D ( 'NONE', #579, #270, #327 ) ;
#199 = CALENDAR_DATE ( 2023, 11, 1 ) ;
#200 = DIRECTION ( 'NONE',  ( -0.0000000000000000000, 3.600975197699278300E-057, -1.000000000000000000 ) ) ;
#201 = LINE ( 'NONE', #151, #746 ) ;
#202 = VERTEX_POINT ( 'NONE', #469 ) ;
#203 = VERTEX_POINT ( 'NONE', #714 ) ;
#204 = ADVANCED_FACE ( 'NONE', ( #348 ), #54, .F. ) ;
#205 = EDGE_CURVE ( 'NONE', #242, #647, #637, .T. ) ;
#206 = DIRECTION ( 'NONE',  ( 0.0000000000000000000, 1.000000000000000000, 0.0000000000000000000 ) ) ;
#207 = CARTESIAN_POINT ( 'NONE',  ( -1.363725120039726500, -2.099404280792539700, 17.39701585421036600 ) ) ;
#208 = ORIENTED_EDGE ( 'NONE', *, *, #228, .T. ) ;
#209 = CARTESIAN_POINT ( 'NONE',  ( 2.101213256461272200, -1.673615306705404300, 17.57278725590573400 ) ) ;
#210 = CARTESIAN_POINT ( 'NONE',  ( -2.304669858771508200, -1.556149582593182800, 17.67071973943478700 ) ) ;
#211 = DIRECTION ( 'NONE',  ( 0.0000000000000000000, 1.000000000000000000, 0.0000000000000000000 ) ) ;
#212 = AXIS2_PLACEMENT_3D ( 'NONE', #138, #622, #678 ) ;
#213 = FACE_OUTER_BOUND ( 'NONE', #70, .T. ) ;
#214 = ORIENTED_EDGE ( 'NONE', *, *, #171, .T. ) ;
#215 = EDGE_CURVE ( 'NONE', #561, #616, #456, .T. ) ;
#216 = DIRECTION ( 'NONE',  ( 0.0000000000000000000, -3.600975197699278300E-057, 1.000000000000000000 ) ) ;
#217 = DIRECTION ( 'NONE',  ( 0.0000000000000000000, -0.7071067811865454600, 0.7071067811865495700 ) ) ;
#218 = APPROVAL_ROLE ( '' ) ;
#219 = APPROVAL ( #468, 'UNSPECIFIED' ) ;
#220 = DATE_AND_TIME ( #464, #373 ) ;
#221 = FACE_OUTER_BOUND ( 'NONE', #349, .T. ) ;
#222 = VERTEX_POINT ( 'NONE', #601 ) ;
#223 = ORIENTED_EDGE ( 'NONE', *, *, #713, .F. ) ;
#224 = AXIS2_PLACEMENT_3D ( 'NONE', #40, #706, #462 ) ;
#225 = CARTESIAN_POINT ( 'NONE',  ( 3.673940397442059900E-016, 3.000000000000000000, -17.35048094716167100 ) ) ;
#226 = DIRECTION ( 'NONE',  ( -0.5000000000000001100, -0.8660254037844386000, 0.0000000000000000000 ) ) ;
#227 = PERSON_AND_ORGANIZATION_ROLE ( 'design_supplier' ) ;
#228 = EDGE_CURVE ( 'NONE', #610, #671, #597, .T. ) ;
#229 = CIRCLE ( 'NONE', #239, 2.999999999999998200 ) ;
#230 = FACE_OUTER_BOUND ( 'NONE', #334, .T. ) ;
#231 = CARTESIAN_POINT ( 'NONE',  ( 8.713609786167769200E-016, -2.886751345948130400, 13.00000000000000200 ) ) ;
#232 = ORIENTED_EDGE ( 'NONE', *, *, #370, .F. ) ;
#233 = CARTESIAN_POINT ( 'NONE',  ( 2.499999999999999600, 1.443375672974064800, 17.78349364905389200 ) ) ;
#234 = CC_DESIGN_PERSON_AND_ORGANIZATION_ASSIGNMENT ( #133, #281, ( #595 ) ) ;
#235 = B_SPLINE_CURVE_WITH_KNOTS ( 'NONE', 3,
 ( #233, #288, #596, #655, #352, #413, #51, #117, #181, #189, #59, #122 ),
 .UNSPECIFIED., .F., .F.,
 ( 4, 2, 2, 2, 2, 4 ),
 ( 2.544340436265468700E-007, 0.0007457281437449386700, 0.001118464998595594700, 0.001491201853446250900, 0.002236675563147564200, 0.002982149272848877500 ),
 .UNSPECIFIED. ) ;
#236 = DIRECTION ( 'NONE',  ( 0.0000000000000000000, 1.000000000000000000, 0.0000000000000000000 ) ) ;
#237 = CARTESIAN_POINT ( 'NONE',  ( -2.500000000000000000, 1.443375672974063700, 4.362373841740266700 ) ) ;
#238 = DATE_AND_TIME ( #247, #338 ) ;
#239 = AXIS2_PLACEMENT_3D ( 'NONE', #497, #437, #621 ) ;
#240 = VECTOR ( 'NONE', #253, 1000.000000000000000 ) ;
#241 = ORIENTED_EDGE ( 'NONE', *, *, #569, .T. ) ;
#242 = VERTEX_POINT ( 'NONE', #410 ) ;
#243 = VERTEX_POINT ( 'NONE', #121 ) ;
#244 = DIRECTION ( 'NONE',  ( 0.0000000000000000000, 0.0000000000000000000, -1.000000000000000000 ) ) ;
#245 = EDGE_CURVE ( 'NONE', #663, #41, #47, .T. ) ;
#246 = PLANE ( 'NONE',  #407 ) ;
#247 = CALENDAR_DATE ( 2023, 11, 1 ) ;
#248 = VECTOR ( 'NONE', #769, 1000.000000000000000 ) ;
#249 = CARTESIAN_POINT ( 'NONE',  ( 0.0000000000000000000, 0.0000000000000000000, 11.70000000000000100 ) ) ;
#250 = CYLINDRICAL_SURFACE ( 'NONE', #212, 5.000000000000000000 ) ;
#251 = ORIENTED_EDGE ( 'NONE', *, *, #542, .F. ) ;
#252 = CARTESIAN_POINT ( 'NONE',  ( -2.500000000000000000, 0.5008555483124551600, 17.43584149784076600 ) ) ;
#253 = DIRECTION ( 'NONE',  ( -0.0000000000000000000, 3.600975197699278300E-057, -1.000000000000000000 ) ) ;
#254 = CARTESIAN_POINT ( 'NONE',  ( -2.303518737899373600, 1.556814182538577700, 17.67005513948903300 ) ) ;
#255 = EDGE_CURVE ( 'NONE', #41, #467, #526, .T. ) ;
#256 = CARTESIAN_POINT ( 'NONE',  ( 8.673617379884035500E-016, -2.886751345948130400, 13.00000000000000200 ) ) ;
#257 = COORDINATED_UNIVERSAL_TIME_OFFSET ( 6, 0, .BEHIND. ) ;
#258 = ORIENTED_EDGE ( 'NONE', *, *, #123, .F. ) ;
#259 = ORIENTED_EDGE ( 'NONE', *, *, #269, .T. ) ;
#260 = CARTESIAN_POINT ( 'NONE',  ( 0.8106343009612310100, -2.418731414073819000, 17.44474999950267600 ) ) ;
#261 = ORIENTED_EDGE ( 'NONE', *, *, #345, .T. ) ;
#262 = ADVANCED_FACE ( 'NONE', ( #134 ), #418, .T. ) ;
#263 = CARTESIAN_POINT ( 'NONE',  ( 0.0000000000000000000, 2.160585118619569700E-056, 11.99999999999999600 ) ) ;
#264 = CARTESIAN_POINT ( 'NONE',  ( -0.1964812621006259700, -2.773312836383615900, 17.67005513948903300 ) ) ;
#265 = AXIS2_PLACEMENT_3D ( 'NONE', #36, #226, #337 ) ;
#266 = LINE ( 'NONE', #316, #643 ) ;
#267 = FACE_OUTER_BOUND ( 'NONE', #340, .T. ) ;
#268 = EDGE_LOOP ( 'NONE', ( #510, #376, #223, #57 ) ) ;
#269 = EDGE_CURVE ( 'NONE', #502, #49, #728, .T. ) ;
#270 = DIRECTION ( 'NONE',  ( -0.0000000000000000000, 3.600975197699278300E-057, -1.000000000000000000 ) ) ;
#271 = CARTESIAN_POINT ( 'NONE',  ( 0.0000000000000000000, 2.160585118619569700E-056, 11.99999999999999600 ) ) ;
#272 = ADVANCED_FACE ( 'NONE', ( #330 ), #715, .F. ) ;
#273 = DIRECTION ( 'NONE',  ( -0.0000000000000000000, 3.600975197699278300E-057, -1.000000000000000000 ) ) ;
#274 = ORIENTED_EDGE ( 'NONE', *, *, #289, .F. ) ;
#275 = EDGE_LOOP ( 'NONE', ( #324, #304 ) ) ;
#276 = VERTEX_POINT ( 'NONE', #46 ) ;
#277 = AXIS2_PLACEMENT_3D ( 'NONE', #271, #27, #86 ) ;
#278 = CARTESIAN_POINT ( 'NONE',  ( -2.499999999999999600, -1.443375672974065700, 17.78349364905389200 ) ) ;
#279 = CARTESIAN_POINT ( 'NONE',  ( -2.500000000000000400, -0.5024865834171835500, 17.43628044913248900 ) ) ;
#280 = EDGE_CURVE ( 'NONE', #502, #313, #652, .T. ) ;
#281 = PERSON_AND_ORGANIZATION_ROLE ( 'design_owner' ) ;
#282 = CONICAL_SURFACE ( 'NONE', #277, 4.700000000000000200, 0.7853981633974453900 ) ;
#283 = ORIENTED_EDGE ( 'NONE', *, *, #765, .F. ) ;
#284 = VERTEX_POINT ( 'NONE', #114 ) ;
#285 = AXIS2_PLACEMENT_3D ( 'NONE', #389, #392, #453 ) ;
#286 = CARTESIAN_POINT ( 'NONE',  ( -2.499999999999999100, -0.9839169155414024800, 17.57346674265852500 ) ) ;
#287 = DIRECTION ( 'NONE',  ( -0.0000000000000000000, 3.600975197699278300E-057, -1.000000000000000000 ) ) ;
#288 = CARTESIAN_POINT ( 'NONE',  ( 2.304669858771507300, 1.556149582593182400, 17.67071973943477700 ) ) ;
#289 = EDGE_CURVE ( 'NONE', #616, #32, #755, .T. ) ;
#290 = VERTEX_POINT ( 'NONE', #719 ) ;
#291 = B_SPLINE_CURVE_WITH_KNOTS ( 'NONE', 3,
 ( #503, #618, #368, #145, #260, #140, #562, #570, #500, #209, #12, #631 ),
 .UNSPECIFIED., .F., .F.,
 ( 4, 2, 2, 2, 2, 4 ),
 ( 2.544340436247588900E-007, 0.0007457281437449380200, 0.001118464998595594700, 0.001491201853446251100, 0.002236675563147564200, 0.002982149272848876600 ),
 .UNSPECIFIED. ) ;
#292 = ORIENTED_EDGE ( 'NONE', *, *, #306, .F. ) ;
#293 = EDGE_LOOP ( 'NONE', ( #529, #261, #274, #137 ) ) ;
#294 = DIRECTION ( 'NONE',  ( 8.659560562354915600E-017, 0.7071067811865462400, 0.7071067811865489100 ) ) ;
#295 = CARTESIAN_POINT ( 'NONE',  ( 2.500000000000000000, 1.443375672974064300, 4.362373841740266700 ) ) ;
#296 = DIRECTION ( 'NONE',  ( -0.0000000000000000000, -0.0000000000000000000, 1.000000000000000000 ) ) ;
#297 = EDGE_CURVE ( 'NONE', #436, #242, #508, .T. ) ;
#298 = LINE ( 'NONE', #557, #67 ) ;
#299 = FACE_OUTER_BOUND ( 'NONE', #664, .T. ) ;
#300 = B_SPLINE_CURVE_WITH_KNOTS ( 'NONE', 3,
 ( #369, #190, #432, #197, #75, #735 ),
 .UNSPECIFIED., .F., .F.,
 ( 4, 2, 4 ),
 ( 0.001910358731447124700, 0.002658231859415363600, 0.003406104987383602500 ),
 .UNSPECIFIED. ) ;
#301 = ORIENTED_EDGE ( 'NONE', *, *, #423, .F. ) ;
#302 = CARTESIAN_POINT ( 'NONE',  ( 2.499999999999999600, 0.2537459923902238800, 17.39674230310576400 ) ) ;
#303 = DIRECTION ( 'NONE',  ( -0.0000000000000000000, 3.600975197699278300E-057, -1.000000000000000000 ) ) ;
#304 = ORIENTED_EDGE ( 'NONE', *, *, #455, .F. ) ;
#305 = CARTESIAN_POINT ( 'NONE',  ( 0.0000000000000000000, 3.299999999999998000, 11.70000000000000100 ) ) ;
#306 = EDGE_CURVE ( 'NONE', #243, #14, #235, .T. ) ;
#307 = CARTESIAN_POINT ( 'NONE',  ( -2.500000000000000000, 0.2537459923902233800, 17.39674230310576400 ) ) ;
#308 = CARTESIAN_POINT ( 'NONE',  ( 0.0000000000000000000, 1.296351071171740300E-055, -18.00000000000000400 ) ) ;
#309 = LINE ( 'NONE', #732, #160 ) ;
#310 = DIRECTION ( 'NONE',  ( -0.0000000000000000000, -0.0000000000000000000, 1.000000000000000000 ) ) ;
#311 = LINE ( 'NONE', #383, #426 ) ;
#312 = EDGE_LOOP ( 'NONE', ( #350, #739, #763, #750, #416 ) ) ;
#313 = VERTEX_POINT ( 'NONE', #405 ) ;
#314 = DIRECTION ( 'NONE',  ( 0.0000000000000000000, -1.000000000000000000, -3.600975197699278300E-057 ) ) ;
#315 = DIRECTION ( 'NONE',  ( 0.0000000000000000000, -1.000000000000000000, -3.600975197699278300E-057 ) ) ;
#316 = CARTESIAN_POINT ( 'NONE',  ( 2.500000000000000000, 1.443375672974064300, 13.00000000000000200 ) ) ;
#317 = AXIS2_PLACEMENT_3D ( 'NONE', #682, #319, #742 ) ;
#318 = ADVANCED_FACE ( 'NONE', ( #213 ), #246, .F. ) ;
#319 = DIRECTION ( 'NONE',  ( -0.0000000000000000000, 3.600975197699278300E-057, -1.000000000000000000 ) ) ;
#320 = CARTESIAN_POINT ( 'NONE',  ( 2.500000000000000000, -1.443375672974064800, 17.78349364905389200 ) ) ;
#321 = LINE ( 'NONE', #33, #525 ) ;
#322 = ORIENTED_EDGE ( 'NONE', *, *, #387, .T. ) ;
#323 = CARTESIAN_POINT ( 'NONE',  ( -1.036359489711275300, -2.288408915586100700, 17.39621215275624200 ) ) ;
#324 = ORIENTED_EDGE ( 'NONE', *, *, #255, .F. ) ;
#325 = CARTESIAN_POINT ( 'NONE',  ( 0.0000000000000000000, 1.296351071171740300E-055, -18.00000000000000400 ) ) ;
#326 = ADVANCED_FACE ( 'NONE', ( #515 ), #375, .F. ) ;
#327 = DIRECTION ( 'NONE',  ( 0.0000000000000000000, 1.000000000000000000, 0.0000000000000000000 ) ) ;
#328 = AXIS2_PLACEMENT_3D ( 'NONE', #577, #273, #96 ) ;
#329 = CIRCLE ( 'NONE', #157, 3.103257696894238900 ) ;
#330 = FACE_OUTER_BOUND ( 'NONE', #268, .T. ) ;
#331 = VERTEX_POINT ( 'NONE', #187 ) ;
#332 = EDGE_CURVE ( 'NONE', #32, #331, #599, .T. ) ;
#333 = CARTESIAN_POINT ( 'NONE',  ( 0.0000000000000000000, 1.296351071171740300E-055, -18.00000000000000400 ) ) ;
#334 = EDGE_LOOP ( 'NONE', ( #259, #492, #737, #2, #600, #630 ) ) ;
#335 = CARTESIAN_POINT ( 'NONE',  ( 0.0000000000000000000, -3.000000000000000000, -17.35048094716167100 ) ) ;
#336 = PRODUCT_DEFINITION_SHAPE ( 'NONE', 'NONE',  #152 ) ;
#337 = DIRECTION ( 'NONE',  ( 0.8660254037844386000, -0.5000000000000001100, 0.0000000000000000000 ) ) ;
#338 = LOCAL_TIME ( 11, 16, 58.00000000000000000, #257 ) ;
#339 = FACE_OUTER_BOUND ( 'NONE', #293, .T. ) ;
#340 = EDGE_LOOP ( 'NONE', ( #21, #377, #174, #417 ) ) ;
#341 = ORIENTED_EDGE ( 'NONE', *, *, #171, .F. ) ;
#342 =( GEOMETRIC_REPRESENTATION_CONTEXT ( 3 ) GLOBAL_UNCERTAINTY_ASSIGNED_CONTEXT ( ( #590 ) ) GLOBAL_UNIT_ASSIGNED_CONTEXT ( ( #648, #463, #100 ) ) REPRESENTATION_CONTEXT ( 'NONE', 'WORKASPACE' ) );
#343 = CARTESIAN_POINT ( 'NONE',  ( 0.0000000000000000000, 1.080292559309793600E-057, 17.69999999999999900 ) ) ;
#344 = ADVANCED_FACE ( 'NONE', ( #126 ), #480, .F. ) ;
#345 = EDGE_CURVE ( 'NONE', #14, #32, #551, .T. ) ;
#346 = CARTESIAN_POINT ( 'NONE',  ( 0.0000000000000000000, 2.350480947161670600, -18.00000000000000400 ) ) ;
#347 = CIRCLE ( 'NONE', #4, 5.000000000000000000 ) ;
#348 = FACE_OUTER_BOUND ( 'NONE', #609, .T. ) ;
#349 = EDGE_LOOP ( 'NONE', ( #482, #491, #474, #398 ) ) ;
#350 = ORIENTED_EDGE ( 'NONE', *, *, #713, .T. ) ;
#351 = DIRECTION ( 'NONE',  ( 0.0000000000000000000, 0.0000000000000000000, 1.000000000000000000 ) ) ;
#352 = CARTESIAN_POINT ( 'NONE',  ( 1.689365699038767500, 1.911395604848375300, 17.44474999950266500 ) ) ;
#353 = PERSON_AND_ORGANIZATION_ROLE ( 'classification_officer' ) ;
#354 = AXIS2_PLACEMENT_3D ( 'NONE', #687, #216, #513 ) ;
#355 = CYLINDRICAL_SURFACE ( 'NONE', #613, 5.000000000000000000 ) ;
#356 = CARTESIAN_POINT ( 'NONE',  ( 0.0000000000000000000, -2.350480947161670600, -18.00000000000000400 ) ) ;
#357 = VERTEX_POINT ( 'NONE', #724 ) ;
#358 = ORIENTED_EDGE ( 'NONE', *, *, #149, .F. ) ;
#359 = CARTESIAN_POINT ( 'NONE',  ( -1.263572594681543600E-015, 2.886751345948128200, 17.78349364905389200 ) ) ;
#360 = EDGE_CURVE ( 'NONE', #663, #243, #771, .T. ) ;
#361 = CARTESIAN_POINT ( 'NONE',  ( 0.0000000000000000000, -6.481755355858701300E-056, 18.00000000000000400 ) ) ;
#362 = DIRECTION ( 'NONE',  ( 0.0000000000000000000, 1.000000000000000000, 3.600975197699278300E-057 ) ) ;
#363 = AXIS2_PLACEMENT_3D ( 'NONE', #325, #93, #757 ) ;
#364 = LINE ( 'NONE', #696, #248 ) ;
#365 = FACE_BOUND ( 'NONE', #483, .T. ) ;
#366 = EDGE_LOOP ( 'NONE', ( #548, #388, #214, #581 ) ) ;
#367 = DIRECTION ( 'NONE',  ( -0.8660254037844387100, 0.4999999999999997800, 0.0000000000000000000 ) ) ;
#368 = CARTESIAN_POINT ( 'NONE',  ( 0.3950665264161199500, -2.658659580573973400, 17.57483382634059400 ) ) ;
#369 = CARTESIAN_POINT ( 'NONE',  ( 2.500000000000000000, -1.443375672974064800, 17.78349364905389200 ) ) ;
#370 = EDGE_CURVE ( 'NONE', #731, #639, #170, .T. ) ;
#371 = DIRECTION ( 'NONE',  ( 1.000000000000000000, 0.0000000000000000000, 0.0000000000000000000 ) ) ;
#372 = CARTESIAN_POINT ( 'NONE',  ( -2.499999999999999600, -1.443375672974065700, 17.78349364905389200 ) ) ;
#373 = LOCAL_TIME ( 11, 16, 58.00000000000000000, #580 ) ;
#374 = PLANE ( 'NONE',  #44 ) ;
#375 = CONICAL_SURFACE ( 'NONE', #776, 3.103257696894238900, 0.7853981633974500600 ) ;
#376 = ORIENTED_EDGE ( 'NONE', *, *, #496, .T. ) ;
#377 = ORIENTED_EDGE ( 'NONE', *, *, #693, .F. ) ;
#378 = DIRECTION ( 'NONE',  ( -0.0000000000000000000, 3.600975197699278300E-057, -1.000000000000000000 ) ) ;
#379 = CARTESIAN_POINT ( 'NONE',  ( 0.0000000000000000000, 3.047250257994659100E-113, 18.00000000000000400 ) ) ;
#380 = ORIENTED_EDGE ( 'NONE', *, *, #92, .T. ) ;
#381 = ADVANCED_FACE ( 'NONE', ( #698 ), #606, .F. ) ;
#382 = CARTESIAN_POINT ( 'NONE',  ( 2.500000000000000000, 1.443375672974064300, 12.99999999999999800 ) ) ;
#383 = CARTESIAN_POINT ( 'NONE',  ( 2.500000000000000000, -1.443375672974064800, 13.00000000000000200 ) ) ;
#384 = APPROVAL_ROLE ( '' ) ;
#385 = DIRECTION ( 'NONE',  ( -0.0000000000000000000, 3.600975197699278300E-057, -1.000000000000000000 ) ) ;
#386 = VECTOR ( 'NONE', #217, 1000.000000000000000 ) ;
#387 = EDGE_CURVE ( 'NONE', #439, #202, #636, .T. ) ;
#388 = ORIENTED_EDGE ( 'NONE', *, *, #494, .T. ) ;
#389 = CARTESIAN_POINT ( 'NONE',  ( 0.0000000000000000000, 1.080292559309793600E-057, 17.69999999999999900 ) ) ;
#390 = EDGE_LOOP ( 'NONE', ( #22, #598, #108, #173, #258, #764, #459 ) ) ;
#391 = SECURITY_CLASSIFICATION ( '', '', #707 ) ;
#392 = DIRECTION ( 'NONE',  ( -0.0000000000000000000, 3.600975197699278300E-057, -1.000000000000000000 ) ) ;
#393 = APPROVAL_PERSON_ORGANIZATION ( #514, #219, #657 ) ;
#394 = VECTOR ( 'NONE', #486, 1000.000000000000000 ) ;
#395 = ORIENTED_EDGE ( 'NONE', *, *, #445, .T. ) ;
#396 = AXIS2_PLACEMENT_3D ( 'NONE', #106, #761, #703 ) ;
#397 = CARTESIAN_POINT ( 'NONE',  ( -2.500000000000000000, -0.2534697143641929100, 17.39674230310576400 ) ) ;
#398 = ORIENTED_EDGE ( 'NONE', *, *, #50, .T. ) ;
#399 = EDGE_CURVE ( 'NONE', #202, #681, #651, .T. ) ;
#400 = CARTESIAN_POINT ( 'NONE',  ( 2.500000000000000000, -5.478738698778346900E-020, 17.39674230310576400 ) ) ;
#401 = CALENDAR_DATE ( 2023, 11, 1 ) ;
#402 = FACE_OUTER_BOUND ( 'NONE', #721, .T. ) ;
#403 = PLANE ( 'NONE',  #265 ) ;
#404 = VECTOR ( 'NONE', #615, 1000.000000000000000 ) ;
#405 = CARTESIAN_POINT ( 'NONE',  ( 6.818105075486816300E-016, -2.886751345948130400, 17.78349364905389500 ) ) ;
#406 = ORIENTED_EDGE ( 'NONE', *, *, #470, .F. ) ;
#407 = AXIS2_PLACEMENT_3D ( 'NONE', #543, #549, #367 ) ;
#408 = CARTESIAN_POINT ( 'NONE',  ( 0.0000000000000000000, 1.296351071171740300E-055, -18.00000000000000400 ) ) ;
#409 = DIRECTION ( 'NONE',  ( -0.0000000000000000000, 3.600975197699278300E-057, -1.000000000000000000 ) ) ;
#410 = CARTESIAN_POINT ( 'NONE',  ( 0.0000000000000000000, 4.700000000000000200, 18.00000000000000400 ) ) ;
#411 = EDGE_CURVE ( 'NONE', #222, #290, #587, .T. ) ;
#412 = B_SPLINE_CURVE_WITH_KNOTS ( 'NONE', 3,
 ( #372, #210, #501, #146, #568, #142, #207, #323, #626, #745, #264, #84 ),
 .UNSPECIFIED., .F., .F.,
 ( 4, 2, 2, 2, 2, 4 ),
 ( 2.544340436250826700E-007, 0.0007457281437449386700, 0.001118464998595596000, 0.001491201853446252600, 0.002236675563147565900, 0.002982149272848878800 ),
 .UNSPECIFIED. ) ;
#413 = CARTESIAN_POINT ( 'NONE',  ( 1.474423942660134200, 2.035492285753669700, 17.40714235202776500 ) ) ;
#414 = DATE_AND_TIME ( #401, #434 ) ;
#415 = FACE_OUTER_BOUND ( 'NONE', #185, .T. ) ;
#416 = ORIENTED_EDGE ( 'NONE', *, *, #188, .F. ) ;
#417 = ORIENTED_EDGE ( 'NONE', *, *, #65, .T. ) ;
#418 = PLANE ( 'NONE',  #749 ) ;
#419 = ORIENTED_EDGE ( 'NONE', *, *, #345, .F. ) ;
#420 = CARTESIAN_POINT ( 'NONE',  ( 2.500000000000000000, -1.443375672974064800, 13.00000000000000200 ) ) ;
#421 = CARTESIAN_POINT ( 'NONE',  ( -0.1953301412284940700, 2.773977436329011100, 17.67071973943477300 ) ) ;
#422 = CARTESIAN_POINT ( 'NONE',  ( -1.263572594681543600E-015, 2.886751345948128200, 17.78349364905389200 ) ) ;
#423 = EDGE_CURVE ( 'NONE', #439, #276, #229, .T. ) ;
#424 = CIRCLE ( 'NONE', #578, 2.350480947161670600 ) ;
#425 = CARTESIAN_POINT ( 'NONE',  ( 2.500000000000000400, 0.5008555483124560400, 17.43584149784076900 ) ) ;
#426 = VECTOR ( 'NONE', #686, 1000.000000000000000 ) ;
#427 = ORIENTED_EDGE ( 'NONE', *, *, #693, .T. ) ;
#428 = DIRECTION ( 'NONE',  ( -1.000000000000000000, 0.0000000000000000000, 0.0000000000000000000 ) ) ;
#429 = EDGE_CURVE ( 'NONE', #616, #538, #535, .T. ) ;
#430 = CARTESIAN_POINT ( 'NONE',  ( -2.500000000000000000, 1.443375672974063200, 17.78349364905389200 ) ) ;
#431 = CARTESIAN_POINT ( 'NONE',  ( 0.0000000000000000000, -4.700000000000000200, 11.99999999999999600 ) ) ;
#432 = CARTESIAN_POINT ( 'NONE',  ( 2.500000000000000400, -0.9839169155414022600, 17.57346674265853200 ) ) ;
#433 = CARTESIAN_POINT ( 'NONE',  ( 0.0000000000000000000, 2.052555862688590200E-056, 12.29999999999999900 ) ) ;
#434 = LOCAL_TIME ( 11, 16, 58.00000000000000000, #734 ) ;
#435 = LINE ( 'NONE', #554, #394 ) ;
#436 = VERTEX_POINT ( 'NONE', #5 ) ;
#437 = DIRECTION ( 'NONE',  ( -0.0000000000000000000, 3.600975197699278300E-057, -1.000000000000000000 ) ) ;
#438 = CARTESIAN_POINT ( 'NONE',  ( 6.123233995736766300E-016, -5.000000000000000000, -18.00000000000000400 ) ) ;
#439 = VERTEX_POINT ( 'NONE', #567 ) ;
#440 = DESIGN_CONTEXT ( 'detailed design', #42, 'design' ) ;
#441 = CARTESIAN_POINT ( 'NONE',  ( -3.103257696894238900, 3.800394605430916900E-016, 18.00000000000000400 ) ) ;
#442 = AXIS2_PLACEMENT_3D ( 'NONE', #35, #460, #211 ) ;
#443 = APPROVAL_STATUS ( 'not_yet_approved' ) ;
#444 = ADVANCED_FACE ( 'NONE', ( #339 ), #677, .F. ) ;
#445 = EDGE_CURVE ( 'NONE', #436, #284, #309, .T. ) ;
#446 = LOCAL_TIME ( 11, 16, 58.00000000000000000, #94 ) ;
#447 = CARTESIAN_POINT ( 'NONE',  ( 0.0000000000000000000, -6.481755355858701300E-056, 18.00000000000000400 ) ) ;
#448 = DIRECTION ( 'NONE',  ( -0.0000000000000000000, 3.600975197699278300E-057, -1.000000000000000000 ) ) ;
#449 = CIRCLE ( 'NONE', #656, 0.2999999999999999300 ) ;
#450 = CIRCLE ( 'NONE', #633, 4.700000000000000200 ) ;
#451 = VERTEX_POINT ( 'NONE', #382 ) ;
#452 = ADVANCED_BREP_SHAPE_REPRESENTATION ( '91290A332_NO THREADS_Alloy Steel Socket Head Screw', ( #504, #675 ), #342 ) ;
#453 = DIRECTION ( 'NONE',  ( 0.0000000000000000000, 1.000000000000000000, 0.0000000000000000000 ) ) ;
#454 = LOCAL_TIME ( 11, 16, 58.00000000000000000, #556 ) ;
#455 = EDGE_CURVE ( 'NONE', #467, #41, #329, .T. ) ;
#456 = LINE ( 'NONE', #113, #89 ) ;
#457 = DIRECTION ( 'NONE',  ( 0.0000000000000000000, 1.000000000000000000, 0.0000000000000000000 ) ) ;
#458 = ORIENTED_EDGE ( 'NONE', *, *, #360, .F. ) ;
#459 = ORIENTED_EDGE ( 'NONE', *, *, #159, .F. ) ;
#460 = DIRECTION ( 'NONE',  ( -0.0000000000000000000, 3.600975197699278300E-057, -1.000000000000000000 ) ) ;
#461 = EDGE_CURVE ( 'NONE', #681, #202, #662, .T. ) ;
#462 = DIRECTION ( 'NONE',  ( 0.0000000000000000000, 1.000000000000000000, 0.0000000000000000000 ) ) ;
#463 =( NAMED_UNIT ( * ) PLANE_ANGLE_UNIT ( ) SI_UNIT ( $, .RADIAN. ) );
#464 = CALENDAR_DATE ( 2023, 11, 1 ) ;
#465 = CONICAL_SURFACE ( 'NONE', #354, 2.350480947161670600, 0.7853981633974463900 ) ;
#466 = CIRCLE ( 'NONE', #666, 5.000000000000000000 ) ;
#467 = VERTEX_POINT ( 'NONE', #441 ) ;
#468 = APPROVAL_STATUS ( 'not_yet_approved' ) ;
#469 = CARTESIAN_POINT ( 'NONE',  ( 0.0000000000000000000, 3.299999999999998000, 12.00000000000000000 ) ) ;
#470 = EDGE_CURVE ( 'NONE', #451, #561, #266, .T. ) ;
#471 = APPLICATION_CONTEXT ( 'configuration controlled 3d designs of mechanical parts and assemblies' ) ;
#472 = TOROIDAL_SURFACE ( 'NONE', #328, 3.299999999999998000, 0.2999999999999997100 ) ;
#473 = DIRECTION ( 'NONE',  ( 0.5000000000000004400, -0.8660254037844383700, 0.0000000000000000000 ) ) ;
#474 = ORIENTED_EDGE ( 'NONE', *, *, #550, .T. ) ;
#475 = ORIENTED_EDGE ( 'NONE', *, *, #461, .F. ) ;
#476 = DIRECTION ( 'NONE',  ( 0.0000000000000000000, 0.7071067811865454600, -0.7071067811865495700 ) ) ;
#477 = DIRECTION ( 'NONE',  ( -0.0000000000000000000, -0.0000000000000000000, 1.000000000000000000 ) ) ;
#478 = CARTESIAN_POINT ( 'NONE',  ( -2.499999999999999600, -1.443375672974065700, 17.78349364905389200 ) ) ;
#479 = AXIS2_PLACEMENT_3D ( 'NONE', #553, #16, #683 ) ;
#480 = PLANE ( 'NONE',  #34 ) ;
#481 = LINE ( 'NONE', #431, #386 ) ;
#482 = ORIENTED_EDGE ( 'NONE', *, *, #494, .F. ) ;
#483 = EDGE_LOOP ( 'NONE', ( #709, #475 ) ) ;
#484 = CARTESIAN_POINT ( 'NONE',  ( 0.0000000000000000000, 4.700000000000000200, 13.00000000000000200 ) ) ;
#485 = CARTESIAN_POINT ( 'NONE',  ( -2.499999999999999600, 1.219935688843693200, 17.67177365698870900 ) ) ;
#486 = DIRECTION ( 'NONE',  ( -0.0000000000000000000, -0.0000000000000000000, 1.000000000000000000 ) ) ;
#487 = AXIS2_PLACEMENT_3D ( 'NONE', #305, #428, #68 ) ;
#488 = CIRCLE ( 'NONE', #198, 2.999999999999998200 ) ;
#489 = CARTESIAN_POINT ( 'NONE',  ( -1.136274879960274000, 2.230722738129655300, 17.39701585421036300 ) ) ;
#490 = PLANE ( 'NONE',  #130 ) ;
#491 = ORIENTED_EDGE ( 'NONE', *, *, #411, .F. ) ;
#492 = ORIENTED_EDGE ( 'NONE', *, *, #188, .T. ) ;
#493 = DIRECTION ( 'NONE',  ( 0.0000000000000000000, 1.000000000000000000, 0.0000000000000000000 ) ) ;
#494 = EDGE_CURVE ( 'NONE', #290, #203, #298, .T. ) ;
#495 = CARTESIAN_POINT ( 'NONE',  ( -2.500000000000000000, 1.443375672974063700, 13.00000000000000200 ) ) ;
#496 = EDGE_CURVE ( 'NONE', #313, #80, #291, .T. ) ;
#497 = CARTESIAN_POINT ( 'NONE',  ( 0.0000000000000000000, 2.268614374550545500E-056, 11.70000000000000300 ) ) ;
#498 = CARTESIAN_POINT ( 'NONE',  ( 0.0000000000000000000, 2.160585118619569700E-056, 11.99999999999999600 ) ) ;
#499 = ORIENTED_EDGE ( 'NONE', *, *, #741, .F. ) ;
#500 = CARTESIAN_POINT ( 'NONE',  ( 1.678158113524836500, -1.917866307361811000, 17.43437054072093800 ) ) ;
#501 = CARTESIAN_POINT ( 'NONE',  ( -2.104933473583879200, -1.671467438348223100, 17.57483382634058700 ) ) ;
#502 = VERTEX_POINT ( 'NONE', #256 ) ;
#503 = CARTESIAN_POINT ( 'NONE',  ( 6.818105075486816300E-016, -2.886751345948130400, 17.78349364905389500 ) ) ;
#504 = MANIFOLD_SOLID_BREP ( 'Cut-Extrude2', #700 ) ;
#505 = CARTESIAN_POINT ( 'NONE',  ( 4.041334437186263500E-016, -3.299999999999998000, 11.70000000000000100 ) ) ;
#506 = CARTESIAN_POINT ( 'NONE',  ( 0.0000000000000000000, 2.999999999999999100, -18.00000000000000400 ) ) ;
#507 = LINE ( 'NONE', #506, #76 ) ;
#508 = CIRCLE ( 'NONE', #184, 4.700000000000000200 ) ;
#509 = ORIENTED_EDGE ( 'NONE', *, *, #521, .F. ) ;
#510 = ORIENTED_EDGE ( 'NONE', *, *, #280, .T. ) ;
#511 = DIRECTION ( 'NONE',  ( -0.7071067811865487900, 8.659560562354948900E-017, 0.7071067811865463500 ) ) ;
#512 = DIRECTION ( 'NONE',  ( 0.0000000000000000000, -3.600975197699278300E-057, 1.000000000000000000 ) ) ;
#513 = DIRECTION ( 'NONE',  ( 0.0000000000000000000, -1.000000000000000000, 0.0000000000000000000 ) ) ;
#514 = PERSON_AND_ORGANIZATION ( #53, #754 ) ;
#515 = FACE_OUTER_BOUND ( 'NONE', #390, .T. ) ;
#516 = CARTESIAN_POINT ( 'NONE',  ( 4.041334437186263500E-016, -3.299999999999998000, 12.00000000000000000 ) ) ;
#517 = ORIENTED_EDGE ( 'NONE', *, *, #741, .T. ) ;
#518 = DIRECTION ( 'NONE',  ( 0.0000000000000000000, -1.000000000000000000, 0.0000000000000000000 ) ) ;
#519 = EDGE_LOOP ( 'NONE', ( #427, #39 ) ) ;
#520 = CARTESIAN_POINT ( 'NONE',  ( -2.499999999999999600, -1.219481799861998000, 17.67154671249785700 ) ) ;
#521 = EDGE_CURVE ( 'NONE', #284, #647, #103, .T. ) ;
#522 = APPLICATION_PROTOCOL_DEFINITION ( 'international standard', 'config_control_design', 1994, #42 ) ;
#523 = CARTESIAN_POINT ( 'NONE',  ( 0.0000000000000000000, 1.272962051174700600E-055, -17.35048094716167100 ) ) ;
#524 = CARTESIAN_POINT ( 'NONE',  ( 8.713609786167769200E-016, -2.886751345948130400, 4.362373841740266700 ) ) ;
#525 = VECTOR ( 'NONE', #640, 1000.000000000000000 ) ;
#526 = CIRCLE ( 'NONE', #604, 3.103257696894238900 ) ;
#527 = EDGE_CURVE ( 'NONE', #610, #731, #424, .T. ) ;
#528 = DIRECTION ( 'NONE',  ( 1.000000000000000000, 0.0000000000000000000, 0.0000000000000000000 ) ) ;
#529 = ORIENTED_EDGE ( 'NONE', *, *, #104, .T. ) ;
#530 = DIRECTION ( 'NONE',  ( 1.000000000000000000, 0.0000000000000000000, 0.0000000000000000000 ) ) ;
#531 = AXIS2_PLACEMENT_3D ( 'NONE', #674, #200, #493 ) ;
#532 = DIRECTION ( 'NONE',  ( -0.0000000000000000000, -0.0000000000000000000, 1.000000000000000000 ) ) ;
#533 = DIRECTION ( 'NONE',  ( -0.0000000000000000000, 3.600975197699278300E-057, -1.000000000000000000 ) ) ;
#534 = PERSON_AND_ORGANIZATION ( #53, #754 ) ;
#535 = LINE ( 'NONE', #495, #708 ) ;
#536 = CARTESIAN_POINT ( 'NONE',  ( 2.878508968398378800E-016, 2.350480947161670600, -18.00000000000000400 ) ) ;
#537 = EDGE_CURVE ( 'NONE', #276, #439, #488, .T. ) ;
#538 = VERTEX_POINT ( 'NONE', #752 ) ;
#539 = ORIENTED_EDGE ( 'NONE', *, *, #542, .T. ) ;
#540 = ORIENTED_EDGE ( 'NONE', *, *, #423, .T. ) ;
#541 = CARTESIAN_POINT ( 'NONE',  ( 2.500000000000000000, -1.443375672974064800, 4.362373841740266700 ) ) ;
#542 = EDGE_CURVE ( 'NONE', #439, #671, #507, .T. ) ;
#543 = CARTESIAN_POINT ( 'NONE',  ( 2.500000000000000000, 1.443375672974064300, 4.362373841740266700 ) ) ;
#544 = PLANE ( 'NONE',  #760 ) ;
#545 = APPROVAL_DATE_TIME ( #85, #177 ) ;
#546 = FACE_OUTER_BOUND ( 'NONE', #128, .T. ) ;
#547 = CONICAL_SURFACE ( 'NONE', #695, 4.700000000000000200, 0.7853981633974453900 ) ;
#548 = ORIENTED_EDGE ( 'NONE', *, *, #751, .F. ) ;
#549 = DIRECTION ( 'NONE',  ( 0.4999999999999998300, 0.8660254037844388200, 0.0000000000000000000 ) ) ;
#550 = EDGE_CURVE ( 'NONE', #222, #357, #481, .T. ) ;
#551 = B_SPLINE_CURVE_WITH_KNOTS ( 'NONE', 3,
 ( #359, #421, #193, #7, #605, #72, #489, #124, #665, #3, #254, #614 ),
 .UNSPECIFIED., .F., .F.,
 ( 4, 2, 2, 2, 2, 4 ),
 ( 2.544340436264508900E-007, 0.0007457281437449392100, 0.001118464998595595500, 0.001491201853446252000, 0.002236675563147564200, 0.002982149272848876600 ),
 .UNSPECIFIED. ) ;
#552 = DIRECTION ( 'NONE',  ( 1.000000000000000000, -0.0000000000000000000, 0.0000000000000000000 ) ) ;
#553 = CARTESIAN_POINT ( 'NONE',  ( 0.0000000000000000000, 1.272962051174700600E-055, -17.35048094716167100 ) ) ;
#554 = CARTESIAN_POINT ( 'NONE',  ( -2.500000000000000000, -1.443375672974065200, 4.362373841740266700 ) ) ;
#555 = ADVANCED_FACE ( 'NONE', ( #221 ), #282, .T. ) ;
#556 = COORDINATED_UNIVERSAL_TIME_OFFSET ( 6, 0, .BEHIND. ) ;
#557 = CARTESIAN_POINT ( 'NONE',  ( 5.755839955992559700E-016, 4.700000000000000200, 11.99999999999999600 ) ) ;
#558 = DIRECTION ( 'NONE',  ( -0.0000000000000000000, 3.600975197699278300E-057, -1.000000000000000000 ) ) ;
#559 = LINE ( 'NONE', #24, #748 ) ;
#560 = ORIENTED_EDGE ( 'NONE', *, *, #705, .T. ) ;
#561 = VERTEX_POINT ( 'NONE', #91 ) ;
#562 = CARTESIAN_POINT ( 'NONE',  ( 1.136274879960272200, -2.230722738129656600, 17.39701585421036300 ) ) ;
#563 = DIRECTION ( 'NONE',  ( 0.0000000000000000000, -1.000000000000000000, 0.0000000000000000000 ) ) ;
#564 = EDGE_LOOP ( 'NONE', ( #183, #301, #322, #589 ) ) ;
#565 = AXIS2_PLACEMENT_3D ( 'NONE', #408, #101, #45 ) ;
#566 = ADVANCED_FACE ( 'NONE', ( #143 ), #9, .T. ) ;
#567 = CARTESIAN_POINT ( 'NONE',  ( 0.0000000000000000000, 2.999999999999998200, 11.70000000000000300 ) ) ;
#568 = CARTESIAN_POINT ( 'NONE',  ( -1.689365699038767800, -1.911395604848376500, 17.44474999950267200 ) ) ;
#569 = EDGE_CURVE ( 'NONE', #276, #681, #449, .T. ) ;
#570 = CARTESIAN_POINT ( 'NONE',  ( 1.463640510288723100, -2.041718103336094700, 17.39621215275624500 ) ) ;
#571 = CC_DESIGN_SECURITY_CLASSIFICATION ( #391, ( #623 ) ) ;
#572 = FACE_OUTER_BOUND ( 'NONE', #584, .T. ) ;
#573 = VECTOR ( 'NONE', #476, 1000.000000000000000 ) ;
#574 = ORIENTED_EDGE ( 'NONE', *, *, #255, .T. ) ;
#575 = DIRECTION ( 'NONE',  ( 1.000000000000000000, 1.224646799147353200E-016, 4.409922749671428700E-073 ) ) ;
#576 = AXIS2_PLACEMENT_3D ( 'NONE', #744, #196, #83 ) ;
#577 = CARTESIAN_POINT ( 'NONE',  ( 0.0000000000000000000, 0.0000000000000000000, 11.70000000000000100 ) ) ;
#578 = AXIS2_PLACEMENT_3D ( 'NONE', #694, #385, #753 ) ;
#579 = CARTESIAN_POINT ( 'NONE',  ( 0.0000000000000000000, 2.268614374550545500E-056, 11.70000000000000300 ) ) ;
#580 = COORDINATED_UNIVERSAL_TIME_OFFSET ( 6, 0, .BEHIND. ) ;
#581 = ORIENTED_EDGE ( 'NONE', *, *, #550, .F. ) ;
#582 = ORIENTED_EDGE ( 'NONE', *, *, #280, .F. ) ;
#583 = DIRECTION ( 'NONE',  ( -1.224646799147351700E-016, 1.000000000000000000, 0.0000000000000000000 ) ) ;
#584 = EDGE_LOOP ( 'NONE', ( #729, #241, #136, #25 ) ) ;
#585 = ADVANCED_FACE ( 'NONE', ( #153 ), #56, .T. ) ;
#586 = DIRECTION ( 'NONE',  ( -0.0000000000000000000, 3.600975197699278300E-057, -1.000000000000000000 ) ) ;
#587 = CIRCLE ( 'NONE', #619, 4.700000000000000200 ) ;
#588 = LINE ( 'NONE', #743, #154 ) ;
#589 = ORIENTED_EDGE ( 'NONE', *, *, #399, .T. ) ;
#590 = UNCERTAINTY_MEASURE_WITH_UNIT (LENGTH_MEASURE( 1.000000000000000100E-005 ), #648, 'distance_accuracy_value', 'NONE');
#591 = ADVANCED_FACE ( 'NONE', ( #726 ), #690, .T. ) ;
#592 = ORIENTED_EDGE ( 'NONE', *, *, #537, .T. ) ;
#593 = EDGE_CURVE ( 'NONE', #538, #502, #321, .T. ) ;
#594 = CARTESIAN_POINT ( 'NONE',  ( 0.0000000000000000000, 5.000000000000000000, 17.69999999999999900 ) ) ;
#595 = PRODUCT ( '91290A332_NO THREADS_Alloy Steel Socket Head Screw', '91290A332_NO THREADS_Alloy Steel Socket Head Screw', '', ( #646 ) ) ;
#596 = CARTESIAN_POINT ( 'NONE',  ( 2.104933473583878700, 1.671467438348222400, 17.57483382634058700 ) ) ;
#597 = LINE ( 'NONE', #536, #105 ) ;
#598 = ORIENTED_EDGE ( 'NONE', *, *, #608, .T. ) ;
#599 = B_SPLINE_CURVE_WITH_KNOTS ( 'NONE', 3,
 ( #430, #485, #61, #252, #307, #186 ),
 .UNSPECIFIED., .F., .F.,
 ( 4, 2, 4 ),
 ( 0.001529540333915057500, 0.002277691456973194600, 0.003025842580031331900 ),
 .UNSPECIFIED. ) ;
#600 = ORIENTED_EDGE ( 'NONE', *, *, #429, .T. ) ;
#601 = CARTESIAN_POINT ( 'NONE',  ( 0.0000000000000000000, -4.700000000000000200, 11.99999999999999600 ) ) ;
#602 = DIRECTION ( 'NONE',  ( 0.0000000000000000000, 1.000000000000000000, 0.0000000000000000000 ) ) ;
#603 = DIRECTION ( 'NONE',  ( 0.0000000000000000000, 1.000000000000000000, 3.600975197699278300E-057 ) ) ;
#604 = AXIS2_PLACEMENT_3D ( 'NONE', #175, #351, #530 ) ;
#605 = CARTESIAN_POINT ( 'NONE',  ( -0.8106343009612326800, 2.418731414073817200, 17.44474999950266900 ) ) ;
#606 = TOROIDAL_SURFACE ( 'NONE', #119, 3.299999999999998000, 0.2999999999999997100 ) ;
#607 = CARTESIAN_POINT ( 'NONE',  ( 2.500000000000000000, -5.478738698778346900E-020, 17.39674230310576400 ) ) ;
#608 = EDGE_CURVE ( 'NONE', #331, #467, #201, .T. ) ;
#609 = EDGE_LOOP ( 'NONE', ( #738, #156, #560, #162, #685 ) ) ;
#610 = VERTEX_POINT ( 'NONE', #635 ) ;
#611 = CC_DESIGN_PERSON_AND_ORGANIZATION_ASSIGNMENT ( #18, #227, ( #623 ) ) ;
#612 = DIRECTION ( 'NONE',  ( 1.000000000000000000, 0.0000000000000000000, 0.0000000000000000000 ) ) ;
#613 = AXIS2_PLACEMENT_3D ( 'NONE', #333, #641, #457 ) ;
#614 = CARTESIAN_POINT ( 'NONE',  ( -2.500000000000000000, 1.443375672974063200, 17.78349364905389200 ) ) ;
#615 = DIRECTION ( 'NONE',  ( -0.0000000000000000000, -0.0000000000000000000, 1.000000000000000000 ) ) ;
#616 = VERTEX_POINT ( 'NONE', #150 ) ;
#617 = EDGE_LOOP ( 'NONE', ( #71, #395, #283, #644 ) ) ;
#618 = CARTESIAN_POINT ( 'NONE',  ( 0.1953301412284916300, -2.773977436329014200, 17.67071973943478400 ) ) ;
#619 = AXIS2_PLACEMENT_3D ( 'NONE', #263, #378, #206 ) ;
#620 = ORIENTED_EDGE ( 'NONE', *, *, #159, .T. ) ;
#621 = DIRECTION ( 'NONE',  ( 0.0000000000000000000, 1.000000000000000000, 0.0000000000000000000 ) ) ;
#622 = DIRECTION ( 'NONE',  ( -0.0000000000000000000, 3.600975197699278300E-057, -1.000000000000000000 ) ) ;
#623 = PRODUCT_DEFINITION_FORMATION_WITH_SPECIFIED_SOURCE ( 'ANY', '', #595, .NOT_KNOWN. ) ;
#624 = CALENDAR_DATE ( 2023, 11, 1 ) ;
#625 = DIRECTION ( 'NONE',  ( -0.8660254037844383700, -0.5000000000000003300, 0.0000000000000000000 ) ) ;
#626 = CARTESIAN_POINT ( 'NONE',  ( -0.8218418864751622100, -2.412260711560385100, 17.43437054072093100 ) ) ;
#627 = CIRCLE ( 'NONE', #650, 3.000000000000000000 ) ;
#628 = ADVANCED_FACE ( 'NONE', ( #572 ), #472, .F. ) ;
#629 = CIRCLE ( 'NONE', #165, 5.000000000000000000 ) ;
#630 = ORIENTED_EDGE ( 'NONE', *, *, #593, .T. ) ;
#631 = CARTESIAN_POINT ( 'NONE',  ( 2.500000000000000000, -1.443375672974064800, 17.78349364905389200 ) ) ;
#632 = ORIENTED_EDGE ( 'NONE', *, *, #608, .F. ) ;
#633 = AXIS2_PLACEMENT_3D ( 'NONE', #182, #125, #176 ) ;
#634 = ADVANCED_FACE ( 'NONE', ( #402 ), #355, .T. ) ;
#635 = CARTESIAN_POINT ( 'NONE',  ( 3.276224682920219100E-016, 2.350480947161670600, -18.00000000000000400 ) ) ;
#636 = CIRCLE ( 'NONE', #487, 0.2999999999999999300 ) ;
#637 = LINE ( 'NONE', #777, #573 ) ;
#638 = ORIENTED_EDGE ( 'NONE', *, *, #660, .T. ) ;
#639 = VERTEX_POINT ( 'NONE', #335 ) ;
#640 = DIRECTION ( 'NONE',  ( 0.8660254037844386000, -0.5000000000000001100, -1.800487598849639400E-057 ) ) ;
#641 = DIRECTION ( 'NONE',  ( -0.0000000000000000000, 3.600975197699278300E-057, -1.000000000000000000 ) ) ;
#642 = AXIS2_PLACEMENT_3D ( 'NONE', #524, #473, #772 ) ;
#643 = VECTOR ( 'NONE', #74, 999.9999999999998900 ) ;
#644 = ORIENTED_EDGE ( 'NONE', *, *, #205, .F. ) ;
#645 = ADVANCED_FACE ( 'NONE', ( #680 ), #465, .T. ) ;
#646 = MECHANICAL_CONTEXT ( 'NONE', #471, 'mechanical' ) ;
#647 = VERTEX_POINT ( 'NONE', #594 ) ;
#648 =( LENGTH_UNIT ( ) NAMED_UNIT ( * ) SI_UNIT ( .MILLI., .METRE. ) );
#649 = DIRECTION ( 'NONE',  ( -0.0000000000000000000, 3.600975197699278300E-057, -1.000000000000000000 ) ) ;
#650 = AXIS2_PLACEMENT_3D ( 'NONE', #523, #586, #166 ) ;
#651 = CIRCLE ( 'NONE', #531, 3.299999999999998000 ) ;
#652 = LINE ( 'NONE', #178, #10 ) ;
#653 = CARTESIAN_POINT ( 'NONE',  ( -2.500000000000000000, 1.443375672974063700, 4.362373841740266700 ) ) ;
#654 = EDGE_LOOP ( 'NONE', ( #79, #592, #539, #155 ) ) ;
#655 = CARTESIAN_POINT ( 'NONE',  ( 1.794611453598833600, 1.850631940122055700, 17.47208214815059100 ) ) ;
#656 = AXIS2_PLACEMENT_3D ( 'NONE', #505, #575, #583 ) ;
#657 = APPROVAL_ROLE ( '' ) ;
#658 = B_SPLINE_CURVE_WITH_KNOTS ( 'NONE', 3,
 ( #766, #397, #279, #286, #520, #278 ),
 .UNSPECIFIED., .F., .F.,
 ( 4, 2, 4 ),
 ( 0.003025842580031331900, 0.003773179117946656600, 0.004520515655861981200 ),
 .UNSPECIFIED. ) ;
#659 = DIRECTION ( 'NONE',  ( -0.8660254037844383700, -0.5000000000000003300, -1.800487598849640000E-057 ) ) ;
#660 = EDGE_CURVE ( 'NONE', #276, #639, #364, .T. ) ;
#661 = SHAPE_DEFINITION_REPRESENTATION ( #336, #452 ) ;
#662 = CIRCLE ( 'NONE', #576, 3.299999999999998000 ) ;
#663 = VERTEX_POINT ( 'NONE', #400 ) ;
#664 = EDGE_LOOP ( 'NONE', ( #540, #638, #499, #251 ) ) ;
#665 = CARTESIAN_POINT ( 'NONE',  ( -1.678158113524837300, 1.917866307361808500, 17.43437054072093100 ) ) ;
#666 = AXIS2_PLACEMENT_3D ( 'NONE', #433, #676, #43 ) ;
#667 = DIRECTION ( 'NONE',  ( 0.0000000000000000000, 1.000000000000000000, 3.600975197699278300E-057 ) ) ;
#668 = DIRECTION ( 'NONE',  ( -0.0000000000000000000, 3.600975197699278300E-057, -1.000000000000000000 ) ) ;
#669 = CIRCLE ( 'NONE', #224, 4.700000000000000200 ) ;
#670 = FACE_OUTER_BOUND ( 'NONE', #1, .T. ) ;
#671 = VERTEX_POINT ( 'NONE', #225 ) ;
#672 = ORIENTED_EDGE ( 'NONE', *, *, #527, .F. ) ;
#673 = CARTESIAN_POINT ( 'NONE',  ( 0.0000000000000000000, 4.700000000000000200, 12.00000000000000000 ) ) ;
#674 = CARTESIAN_POINT ( 'NONE',  ( 0.0000000000000000000, 2.160585118619567900E-056, 12.00000000000000000 ) ) ;
#675 = AXIS2_PLACEMENT_3D ( 'NONE', #702, #111, #528 ) ;
#676 = DIRECTION ( 'NONE',  ( -0.0000000000000000000, 3.600975197699278300E-057, -1.000000000000000000 ) ) ;
#677 = PLANE ( 'NONE',  #723 ) ;
#678 = DIRECTION ( 'NONE',  ( 0.0000000000000000000, 1.000000000000000000, 0.0000000000000000000 ) ) ;
#679 = APPROVAL_DATE_TIME ( #220, #30 ) ;
#680 = FACE_OUTER_BOUND ( 'NONE', #120, .T. ) ;
#681 = VERTEX_POINT ( 'NONE', #516 ) ;
#682 = CARTESIAN_POINT ( 'NONE',  ( 0.0000000000000000000, 1.080292559309793600E-057, 17.69999999999999900 ) ) ;
#683 = DIRECTION ( 'NONE',  ( 0.0000000000000000000, 1.000000000000000000, 0.0000000000000000000 ) ) ;
#684 = AXIS2_PLACEMENT_3D ( 'NONE', #62, #668, #64 ) ;
#685 = ORIENTED_EDGE ( 'NONE', *, *, #429, .F. ) ;
#686 = DIRECTION ( 'NONE',  ( 0.0000000000000000000, 1.000000000000000000, 3.600975197699278300E-057 ) ) ;
#687 = CARTESIAN_POINT ( 'NONE',  ( 0.0000000000000000000, 1.296351071171740300E-055, -18.00000000000000400 ) ) ;
#688 = ADVANCED_FACE ( 'NONE', ( #38 ), #87, .F. ) ;
#689 = DIRECTION ( 'NONE',  ( -0.0000000000000000000, 3.600975197699278300E-057, -1.000000000000000000 ) ) ;
#690 = CONICAL_SURFACE ( 'NONE', #285, 5.000000000000000000, 0.7853981633974453900 ) ;
#691 = CYLINDRICAL_SURFACE ( 'NONE', #684, 2.999999999999999100 ) ;
#692 = ORIENTED_EDGE ( 'NONE', *, *, #751, .T. ) ;
#693 = EDGE_CURVE ( 'NONE', #731, #610, #28, .T. ) ;
#694 = CARTESIAN_POINT ( 'NONE',  ( 0.0000000000000000000, 1.296351071171740300E-055, -18.00000000000000400 ) ) ;
#695 = AXIS2_PLACEMENT_3D ( 'NONE', #498, #141, #563 ) ;
#696 = CARTESIAN_POINT ( 'NONE',  ( 3.673940397442058900E-016, -2.999999999999999100, -18.00000000000000400 ) ) ;
#697 = DATE_AND_TIME ( #624, #454 ) ;
#698 = FACE_OUTER_BOUND ( 'NONE', #564, .T. ) ;
#699 = CARTESIAN_POINT ( 'NONE',  ( 2.500000000000000000, -1.443375672974064800, 4.362373841740266700 ) ) ;
#700 = CLOSED_SHELL ( 'NONE', ( #326, #585, #634, #148, #628, #17, #645, #262, #195, #566, #381, #88, #555, #135, #591, #112, #688, #26, #272, #747, #204, #444, #318, #344 ) ) ;
#701 = ORIENTED_EDGE ( 'NONE', *, *, #332, .F. ) ;
#702 = CARTESIAN_POINT ( 'NONE',  ( 0.0000000000000000000, 0.0000000000000000000, 0.0000000000000000000 ) ) ;
#703 = DIRECTION ( 'NONE',  ( 1.000000000000000000, 0.0000000000000000000, 0.0000000000000000000 ) ) ;
#704 = PERSON_AND_ORGANIZATION_ROLE ( 'creator' ) ;
#705 = EDGE_CURVE ( 'NONE', #331, #31, #658, .T. ) ;
#706 = DIRECTION ( 'NONE',  ( -0.0000000000000000000, 3.600975197699278300E-057, -1.000000000000000000 ) ) ;
#707 = SECURITY_CLASSIFICATION_LEVEL ( 'unclassified' ) ;
#708 = VECTOR ( 'NONE', #314, 1000.000000000000000 ) ;
#709 = ORIENTED_EDGE ( 'NONE', *, *, #399, .F. ) ;
#710 = DIRECTION ( 'NONE',  ( 0.0000000000000000000, 1.000000000000000000, 0.0000000000000000000 ) ) ;
#711 = ORIENTED_EDGE ( 'NONE', *, *, #306, .T. ) ;
#712 = DIRECTION ( 'NONE',  ( -1.000000000000000000, 0.0000000000000000000, -0.0000000000000000000 ) ) ;
#713 = EDGE_CURVE ( 'NONE', #49, #80, #180, .T. ) ;
#714 = CARTESIAN_POINT ( 'NONE',  ( 6.123233995736766300E-016, 5.000000000000000000, 12.29999999999999900 ) ) ;
#715 = PLANE ( 'NONE',  #642 ) ;
#716 = CC_DESIGN_APPROVAL ( #219, ( #152 ) ) ;
#717 = PERSON_AND_ORGANIZATION ( #53, #754 ) ;
#718 = LINE ( 'NONE', #438, #240 ) ;
#719 = CARTESIAN_POINT ( 'NONE',  ( 5.939536975864663000E-016, 4.700000000000000200, 11.99999999999999600 ) ) ;
#720 = CARTESIAN_POINT ( 'NONE',  ( 3.103257696894238900, -6.481755355858701300E-056, 18.00000000000000400 ) ) ;
#721 = EDGE_LOOP ( 'NONE', ( #77, #775, #341, #358 ) ) ;
#722 = ORIENTED_EDGE ( 'NONE', *, *, #297, .F. ) ;
#723 = AXIS2_PLACEMENT_3D ( 'NONE', #740, #23, #625 ) ;
#724 = CARTESIAN_POINT ( 'NONE',  ( 0.0000000000000000000, -5.000000000000000000, 12.29999999999999900 ) ) ;
#725 = CARTESIAN_POINT ( 'NONE',  ( 2.499999999999999600, 1.443375672974064800, 17.78349364905389200 ) ) ;
#726 = FACE_OUTER_BOUND ( 'NONE', #756, .T. ) ;
#727 = PERSON_AND_ORGANIZATION_ROLE ( 'creator' ) ;
#728 = LINE ( 'NONE', #231, #191 ) ;
#729 = ORIENTED_EDGE ( 'NONE', *, *, #537, .F. ) ;
#730 = CARTESIAN_POINT ( 'NONE',  ( 2.500000000000000000, 1.219935688843697200, 17.67177365698871200 ) ) ;
#731 = VERTEX_POINT ( 'NONE', #158 ) ;
#732 = CARTESIAN_POINT ( 'NONE',  ( 6.123233995736766300E-016, -5.000000000000000000, 17.69999999999999900 ) ) ;
#733 = DIRECTION ( 'NONE',  ( 0.0000000000000000000, -3.600975197699278300E-057, 1.000000000000000000 ) ) ;
#734 = COORDINATED_UNIVERSAL_TIME_OFFSET ( 6, 0, .BEHIND. ) ;
#735 = CARTESIAN_POINT ( 'NONE',  ( 2.500000000000000000, -5.478738698778346900E-020, 17.39674230310576400 ) ) ;
#736 = AXIS2_PLACEMENT_3D ( 'NONE', #237, #712, #770 ) ;
#737 = ORIENTED_EDGE ( 'NONE', *, *, #470, .T. ) ;
#738 = ORIENTED_EDGE ( 'NONE', *, *, #289, .T. ) ;
#739 = ORIENTED_EDGE ( 'NONE', *, *, #123, .T. ) ;
#740 = CARTESIAN_POINT ( 'NONE',  ( -8.555810909941606700E-016, 2.886751345948128700, 4.362373841740266700 ) ) ;
#741 = EDGE_CURVE ( 'NONE', #671, #639, #627, .T. ) ;
#742 = DIRECTION ( 'NONE',  ( 0.0000000000000000000, 1.000000000000000000, 0.0000000000000000000 ) ) ;
#743 = CARTESIAN_POINT ( 'NONE',  ( -8.555810909941606700E-016, 2.886751345948128700, 4.362373841740266700 ) ) ;
#744 = CARTESIAN_POINT ( 'NONE',  ( 0.0000000000000000000, 2.160585118619567900E-056, 12.00000000000000000 ) ) ;
#745 = CARTESIAN_POINT ( 'NONE',  ( -0.3987867435387262300, -2.656511712216793200, 17.57278725590573400 ) ) ;
#746 = VECTOR ( 'NONE', #511, 1000.000000000000000 ) ;
#747 = ADVANCED_FACE ( 'NONE', ( #546 ), #403, .F. ) ;
#748 = VECTOR ( 'NONE', #448, 1000.000000000000000 ) ;
#749 = AXIS2_PLACEMENT_3D ( 'NONE', #346, #409, #603 ) ;
#750 = ORIENTED_EDGE ( 'NONE', *, *, #81, .F. ) ;
#751 = EDGE_CURVE ( 'NONE', #290, #222, #669, .T. ) ;
#752 = CARTESIAN_POINT ( 'NONE',  ( -2.500000000000000000, -1.443375672974065000, 13.00000000000000200 ) ) ;
#753 = DIRECTION ( 'NONE',  ( 0.0000000000000000000, 1.000000000000000000, 0.0000000000000000000 ) ) ;
#754 = ORGANIZATION ( 'UNSPECIFIED', 'UNSPECIFIED', '' ) ;
#755 = LINE ( 'NONE', #653, #762 ) ;
#756 = EDGE_LOOP ( 'NONE', ( #192, #98, #127, #509 ) ) ;
#757 = DIRECTION ( 'NONE',  ( 0.0000000000000000000, 1.000000000000000000, 0.0000000000000000000 ) ) ;
#758 = ORIENTED_EDGE ( 'NONE', *, *, #521, .T. ) ;
#759 = CC_DESIGN_APPROVAL ( #177, ( #623 ) ) ;
#760 = AXIS2_PLACEMENT_3D ( 'NONE', #484, #303, #362 ) ;
#761 = DIRECTION ( 'NONE',  ( -0.0000000000000000000, -0.0000000000000000000, 1.000000000000000000 ) ) ;
#762 = VECTOR ( 'NONE', #532, 1000.000000000000000 ) ;
#763 = ORIENTED_EDGE ( 'NONE', *, *, #360, .T. ) ;
#764 = ORIENTED_EDGE ( 'NONE', *, *, #496, .F. ) ;
#765 = EDGE_CURVE ( 'NONE', #647, #284, #347, .T. ) ;
#766 = CARTESIAN_POINT ( 'NONE',  ( -2.500000000000000000, 3.061069118652548300E-016, 17.39674230310576400 ) ) ;
#767 = CC_DESIGN_PERSON_AND_ORGANIZATION_ASSIGNMENT ( #717, #704, ( #623 ) ) ;
#768 = DIRECTION ( 'NONE',  ( 0.8660254037844383700, 0.5000000000000004400, 1.800487598849640800E-057 ) ) ;
#769 = DIRECTION ( 'NONE',  ( -0.0000000000000000000, 3.600975197699278300E-057, -1.000000000000000000 ) ) ;
#770 = DIRECTION ( 'NONE',  ( -0.0000000000000000000, 0.0000000000000000000, 1.000000000000000000 ) ) ;
#771 = B_SPLINE_CURVE_WITH_KNOTS ( 'NONE', 3,
 ( #607, #302, #425, #63, #730, #725 ),
 .UNSPECIFIED., .F., .F.,
 ( 4, 2, 4 ),
 ( 0.003406104987383602500, 0.004154793285369425500, 0.004903481583355249000 ),
 .UNSPECIFIED. ) ;
#772 = DIRECTION ( 'NONE',  ( 0.8660254037844383700, 0.5000000000000004400, 0.0000000000000000000 ) ) ;
#773 = CONICAL_SURFACE ( 'NONE', #60, 2.350480947161670600, 0.7853981633974463900 ) ;
#774 = ORIENTED_EDGE ( 'NONE', *, *, #81, .T. ) ;
#775 = ORIENTED_EDGE ( 'NONE', *, *, #132, .T. ) ;
#776 = AXIS2_PLACEMENT_3D ( 'NONE', #361, #296, #612 ) ;
#777 = CARTESIAN_POINT ( 'NONE',  ( 0.0000000000000000000, 5.000000000000000000, 17.69999999999999900 ) ) ;
#778 = CC_DESIGN_PERSON_AND_ORGANIZATION_ASSIGNMENT ( #37, #727, ( #152 ) ) ;
#779 = PERSON_AND_ORGANIZATION ( #53, #754 ) ;
#780 = VECTOR ( 'NONE', #129, 1000.000000000000000 ) ;
#781 = FACE_BOUND ( 'NONE', #275, .T. ) ;
ENDSEC;
END-ISO-10303-21;
