ISO-10303-21;
HEADER;
FILE_DESCRIPTION (( 'STEP AP203' ),
    '1' );
FILE_NAME ('93475A310_18-8 Stainless Steel Washer.STEP',
    '2021-09-09T01:13:37',
    ( 'Administrator' ),
    ( 'Managed by Terraform' ),
    'SwSTEP 2.0',
    'SolidWorks 2017',
    '' );
FILE_SCHEMA (( 'CONFIG_CONTROL_DESIGN' ));
ENDSEC;

DATA;
#1 = APPLICATION_CONTEXT ( 'configuration controlled 3d designs of mechanical parts and assemblies' ) ;
#2 = DIRECTION ( 'NONE',  ( 0.0000000000000000000, 0.0000000000000000000, 1.000000000000000000 ) ) ;
#3 = APPROVAL_PERSON_ORGANIZATION ( #228, #85, #230 ) ;
#4 = CALENDAR_DATE ( 2021, 8, 9 ) ;
#5 = ORIENTED_EDGE ( 'NONE', *, *, #220, .T. ) ;
#6 = PERSON_AND_ORGANIZATION_ROLE ( 'creator' ) ;
#7 = PLANE ( 'NONE',  #237 ) ;
#8 = LINE ( 'NONE', #153, #202 ) ;
#9 = AXIS2_PLACEMENT_3D ( 'NONE', #183, #207, #246 ) ;
#10 = DIRECTION ( 'NONE',  ( -0.0000000000000000000, -0.0000000000000000000, -1.000000000000000000 ) ) ;
#11 = FACE_OUTER_BOUND ( 'NONE', #160, .T. ) ;
#12 = ORIENTED_EDGE ( 'NONE', *, *, #76, .T. ) ;
#13 = ADVANCED_FACE ( 'NONE', ( #144, #154 ), #7, .F. ) ;
#14 = DATE_AND_TIME ( #98, #140 ) ;
#15 = EDGE_LOOP ( 'NONE', ( #120, #247 ) ) ;
#16 = DIRECTION ( 'NONE',  ( -0.0000000000000000000, -0.0000000000000000000, -1.000000000000000000 ) ) ;
#17 = CARTESIAN_POINT ( 'NONE',  ( -8.500000000000000000, 0.0000000000000000000, 0.0000000000000000000 ) ) ;
#18 = CYLINDRICAL_SURFACE ( 'NONE', #28, 8.500000000000000000 ) ;
#19 = EDGE_LOOP ( 'NONE', ( #180, #5 ) ) ;
#20 = PERSON_AND_ORGANIZATION_ROLE ( 'design_supplier' ) ;
#21 = CARTESIAN_POINT ( 'NONE',  ( 0.0000000000000000000, 0.0000000000000000000, 0.0000000000000000000 ) ) ;
#22 = CC_DESIGN_APPROVAL ( #63, ( #156 ) ) ;
#23 = COORDINATED_UNIVERSAL_TIME_OFFSET ( 6, 0, .BEHIND. ) ;
#24 = ORIENTED_EDGE ( 'NONE', *, *, #243, .T. ) ;
#25 = PERSON ( 'UNSPECIFIED', 'UNSPECIFIED', 'UNSPECIFIED', ('UNSPECIFIED'), ('UNSPECIFIED'), ('UNSPECIFIED') ) ;
#26 = DATE_TIME_ROLE ( 'creation_date' ) ;
#27 = CARTESIAN_POINT ( 'NONE',  ( -8.500000000000000000, 0.0000000000000000000, 3.299999999999999800 ) ) ;
#28 = AXIS2_PLACEMENT_3D ( 'NONE', #92, #94, #72 ) ;
#29 = APPROVAL_PERSON_ORGANIZATION ( #105, #166, #44 ) ;
#30 = VERTEX_POINT ( 'NONE', #27 ) ;
#31 = CARTESIAN_POINT ( 'NONE',  ( 0.0000000000000000000, 0.0000000000000000000, 3.299999999999999800 ) ) ;
#32 = CALENDAR_DATE ( 2021, 8, 9 ) ;
#33 = VERTEX_POINT ( 'NONE', #212 ) ;
#34 = DESIGN_CONTEXT ( 'detailed design', #1, 'design' ) ;
#35 = LOCAL_TIME ( 20, 13, 37.00000000000000000, #129 ) ;
#36 = CARTESIAN_POINT ( 'NONE',  ( 0.0000000000000000000, 0.0000000000000000000, 3.299999999999999800 ) ) ;
#37 = DIRECTION ( 'NONE',  ( 1.000000000000000000, 0.0000000000000000000, 0.0000000000000000000 ) ) ;
#38 = APPROVAL_DATE_TIME ( #99, #166 ) ;
#39 = PERSON_AND_ORGANIZATION_ROLE ( 'classification_officer' ) ;
#40 = ORIENTED_EDGE ( 'NONE', *, *, #66, .T. ) ;
#41 = CARTESIAN_POINT ( 'NONE',  ( 8.500000000000000000, 1.040949779275250100E-015, 0.0000000000000000000 ) ) ;
#42 = AXIS2_PLACEMENT_3D ( 'NONE', #31, #102, #177 ) ;
#43 = PERSON_AND_ORGANIZATION_ROLE ( 'creator' ) ;
#44 = APPROVAL_ROLE ( '' ) ;
#45 = CIRCLE ( 'NONE', #104, 15.00000000000000000 ) ;
#46 = CARTESIAN_POINT ( 'NONE',  ( 0.0000000000000000000, 0.0000000000000000000, 3.299999999999999800 ) ) ;
#47 = EDGE_CURVE ( 'NONE', #53, #224, #117, .T. ) ;
#48 = ORIENTED_EDGE ( 'NONE', *, *, #220, .F. ) ;
#49 = PERSON_AND_ORGANIZATION ( #25, #80 ) ;
#50 = CARTESIAN_POINT ( 'NONE',  ( 0.0000000000000000000, 0.0000000000000000000, 0.0000000000000000000 ) ) ;
#51 = EDGE_CURVE ( 'NONE', #30, #33, #123, .T. ) ;
#52 =( GEOMETRIC_REPRESENTATION_CONTEXT ( 3 ) GLOBAL_UNCERTAINTY_ASSIGNED_CONTEXT ( ( #67 ) ) GLOBAL_UNIT_ASSIGNED_CONTEXT ( ( #169, #248, #141 ) ) REPRESENTATION_CONTEXT ( 'NONE', 'WORKASPACE' ) );
#53 = VERTEX_POINT ( 'NONE', #101 ) ;
#54 = DIRECTION ( 'NONE',  ( 0.0000000000000000000, 0.0000000000000000000, 1.000000000000000000 ) ) ;
#55 = PRODUCT_RELATED_PRODUCT_CATEGORY ( 'detail', '', ( #213 ) ) ;
#56 = SECURITY_CLASSIFICATION_LEVEL ( 'unclassified' ) ;
#57 = APPLICATION_PROTOCOL_DEFINITION ( 'international standard', 'config_control_design', 1994, #109 ) ;
#58 = DATE_AND_TIME ( #4, #245 ) ;
#59 = APPLICATION_PROTOCOL_DEFINITION ( 'international standard', 'config_control_design', 1994, #1 ) ;
#60 = CARTESIAN_POINT ( 'NONE',  ( 0.0000000000000000000, 0.0000000000000000000, 3.299999999999999800 ) ) ;
#61 = DIRECTION ( 'NONE',  ( 0.0000000000000000000, 0.0000000000000000000, 1.000000000000000000 ) ) ;
#62 = DIRECTION ( 'NONE',  ( -0.0000000000000000000, -0.0000000000000000000, -1.000000000000000000 ) ) ;
#63 = APPROVAL ( #79, 'UNSPECIFIED' ) ;
#64 = CIRCLE ( 'NONE', #145, 15.00000000000000000 ) ;
#65 = ORIENTED_EDGE ( 'NONE', *, *, #159, .F. ) ;
#66 = EDGE_CURVE ( 'NONE', #33, #171, #8, .T. ) ;
#67 = UNCERTAINTY_MEASURE_WITH_UNIT (LENGTH_MEASURE( 1.000000000000000100E-005 ), #169, 'distance_accuracy_value', 'NONE');
#68 = AXIS2_PLACEMENT_3D ( 'NONE', #190, #77, #216 ) ;
#69 = EDGE_CURVE ( 'NONE', #211, #249, #64, .T. ) ;
#70 = LINE ( 'NONE', #83, #96 ) ;
#71 = ORIENTED_EDGE ( 'NONE', *, *, #243, .F. ) ;
#72 = DIRECTION ( 'NONE',  ( -1.000000000000000000, 0.0000000000000000000, 0.0000000000000000000 ) ) ;
#73 = EDGE_LOOP ( 'NONE', ( #114, #185, #12, #215 ) ) ;
#74 = AXIS2_PLACEMENT_3D ( 'NONE', #195, #172, #218 ) ;
#75 = FACE_BOUND ( 'NONE', #107, .T. ) ;
#76 = EDGE_CURVE ( 'NONE', #53, #211, #146, .T. ) ;
#77 = DIRECTION ( 'NONE',  ( 0.0000000000000000000, 0.0000000000000000000, 1.000000000000000000 ) ) ;
#78 = MANIFOLD_SOLID_BREP ( 'Boss-Extrude1', #103 ) ;
#79 = APPROVAL_STATUS ( 'not_yet_approved' ) ;
#80 = ORGANIZATION ( 'UNSPECIFIED', 'UNSPECIFIED', '' ) ;
#81 = EDGE_LOOP ( 'NONE', ( #100, #24 ) ) ;
#82 = APPROVAL_PERSON_ORGANIZATION ( #157, #63, #192 ) ;
#83 = CARTESIAN_POINT ( 'NONE',  ( -8.500000000000000000, 0.0000000000000000000, 3.299999999999999800 ) ) ;
#84 = DIRECTION ( 'NONE',  ( 1.000000000000000000, 0.0000000000000000000, 0.0000000000000000000 ) ) ;
#85 = APPROVAL ( #165, 'UNSPECIFIED' ) ;
#86 = PERSON_AND_ORGANIZATION ( #25, #80 ) ;
#87 = EDGE_CURVE ( 'NONE', #249, #211, #163, .T. ) ;
#88 = CC_DESIGN_DATE_AND_TIME_ASSIGNMENT ( #178, #26, ( #156 ) ) ;
#89 = AXIS2_PLACEMENT_3D ( 'NONE', #46, #61, #148 ) ;
#90 = AXIS2_PLACEMENT_3D ( 'NONE', #21, #204, #231 ) ;
#91 = CYLINDRICAL_SURFACE ( 'NONE', #74, 8.500000000000000000 ) ;
#92 = CARTESIAN_POINT ( 'NONE',  ( 0.0000000000000000000, 0.0000000000000000000, 3.299999999999999800 ) ) ;
#93 = CARTESIAN_POINT ( 'NONE',  ( 0.0000000000000000000, 0.0000000000000000000, 3.299999999999999800 ) ) ;
#94 = DIRECTION ( 'NONE',  ( -0.0000000000000000000, -0.0000000000000000000, -1.000000000000000000 ) ) ;
#95 = DIRECTION ( 'NONE',  ( 0.0000000000000000000, 0.0000000000000000000, 1.000000000000000000 ) ) ;
#96 = VECTOR ( 'NONE', #106, 1000.000000000000000 ) ;
#97 = CC_DESIGN_PERSON_AND_ORGANIZATION_ASSIGNMENT ( #191, #6, ( #156 ) ) ;
#98 = CALENDAR_DATE ( 2021, 8, 9 ) ;
#99 = DATE_AND_TIME ( #125, #179 ) ;
#100 = ORIENTED_EDGE ( 'NONE', *, *, #47, .T. ) ;
#101 = CARTESIAN_POINT ( 'NONE',  ( -15.00000000000000000, 0.0000000000000000000, 3.299999999999999800 ) ) ;
#102 = DIRECTION ( 'NONE',  ( -0.0000000000000000000, -0.0000000000000000000, -1.000000000000000000 ) ) ;
#103 = CLOSED_SHELL ( 'NONE', ( #118, #226, #223, #13, #135, #197 ) ) ;
#104 = AXIS2_PLACEMENT_3D ( 'NONE', #60, #152, #189 ) ;
#105 = PERSON_AND_ORGANIZATION ( #25, #80 ) ;
#106 = DIRECTION ( 'NONE',  ( -0.0000000000000000000, -0.0000000000000000000, -1.000000000000000000 ) ) ;
#107 = EDGE_LOOP ( 'NONE', ( #158, #193 ) ) ;
#108 = CARTESIAN_POINT ( 'NONE',  ( -15.00000000000000000, 0.0000000000000000000, 0.0000000000000000000 ) ) ;
#109 = APPLICATION_CONTEXT ( 'configuration controlled 3d designs of mechanical parts and assemblies' ) ;
#110 = CC_DESIGN_PERSON_AND_ORGANIZATION_ASSIGNMENT ( #49, #115, ( #213 ) ) ;
#111 = DIRECTION ( 'NONE',  ( 0.0000000000000000000, 0.0000000000000000000, 1.000000000000000000 ) ) ;
#112 = VECTOR ( 'NONE', #62, 1000.000000000000000 ) ;
#113 = MECHANICAL_CONTEXT ( 'NONE', #109, 'mechanical' ) ;
#114 = ORIENTED_EDGE ( 'NONE', *, *, #227, .F. ) ;
#115 = PERSON_AND_ORGANIZATION_ROLE ( 'design_owner' ) ;
#116 = DIRECTION ( 'NONE',  ( 1.000000000000000000, 0.0000000000000000000, -0.0000000000000000000 ) ) ;
#117 = CIRCLE ( 'NONE', #89, 15.00000000000000000 ) ;
#118 = ADVANCED_FACE ( 'NONE', ( #170 ), #91, .F. ) ;
#119 = FACE_OUTER_BOUND ( 'NONE', #201, .T. ) ;
#120 = ORIENTED_EDGE ( 'NONE', *, *, #69, .F. ) ;
#121 = CARTESIAN_POINT ( 'NONE',  ( 0.0000000000000000000, 0.0000000000000000000, 3.299999999999999800 ) ) ;
#122 = FACE_OUTER_BOUND ( 'NONE', #81, .T. ) ;
#123 = CIRCLE ( 'NONE', #68, 8.500000000000000000 ) ;
#124 = CC_DESIGN_PERSON_AND_ORGANIZATION_ASSIGNMENT ( #184, #20, ( #221 ) ) ;
#125 = CALENDAR_DATE ( 2021, 8, 9 ) ;
#126 = DATE_TIME_ROLE ( 'classification_date' ) ;
#127 = LOCAL_TIME ( 20, 13, 37.00000000000000000, #238 ) ;
#128 = DIRECTION ( 'NONE',  ( 1.000000000000000000, 0.0000000000000000000, 0.0000000000000000000 ) ) ;
#129 = COORDINATED_UNIVERSAL_TIME_OFFSET ( 6, 0, .BEHIND. ) ;
#130 = DIRECTION ( 'NONE',  ( -0.0000000000000000000, -0.0000000000000000000, -1.000000000000000000 ) ) ;
#131 = CYLINDRICAL_SURFACE ( 'NONE', #182, 15.00000000000000000 ) ;
#132 = DIRECTION ( 'NONE',  ( 1.000000000000000000, 0.0000000000000000000, 0.0000000000000000000 ) ) ;
#133 = CC_DESIGN_APPROVAL ( #166, ( #221 ) ) ;
#134 = VECTOR ( 'NONE', #10, 1000.000000000000000 ) ;
#135 = ADVANCED_FACE ( 'NONE', ( #181 ), #131, .T. ) ;
#136 = ORIENTED_EDGE ( 'NONE', *, *, #227, .T. ) ;
#137 = AXIS2_PLACEMENT_3D ( 'NONE', #36, #111, #187 ) ;
#138 = CYLINDRICAL_SURFACE ( 'NONE', #42, 15.00000000000000000 ) ;
#139 = CARTESIAN_POINT ( 'NONE',  ( 15.00000000000000000, 1.836970198721029600E-015, 3.299999999999999800 ) ) ;
#140 = LOCAL_TIME ( 20, 13, 37.00000000000000000, #210 ) ;
#141 =( NAMED_UNIT ( * ) SI_UNIT ( $, .STERADIAN. ) SOLID_ANGLE_UNIT ( ) );
#142 = DIRECTION ( 'NONE',  ( -1.000000000000000000, 0.0000000000000000000, 0.0000000000000000000 ) ) ;
#143 = COORDINATED_UNIVERSAL_TIME_OFFSET ( 6, 0, .BEHIND. ) ;
#144 = FACE_OUTER_BOUND ( 'NONE', #15, .T. ) ;
#145 = AXIS2_PLACEMENT_3D ( 'NONE', #236, #2, #132 ) ;
#146 = LINE ( 'NONE', #174, #112 ) ;
#147 = CC_DESIGN_PERSON_AND_ORGANIZATION_ASSIGNMENT ( #86, #39, ( #173 ) ) ;
#148 = DIRECTION ( 'NONE',  ( 1.000000000000000000, 0.0000000000000000000, 0.0000000000000000000 ) ) ;
#149 = ORIENTED_EDGE ( 'NONE', *, *, #51, .T. ) ;
#150 = CC_DESIGN_PERSON_AND_ORGANIZATION_ASSIGNMENT ( #241, #43, ( #221 ) ) ;
#151 = APPROVAL_STATUS ( 'not_yet_approved' ) ;
#152 = DIRECTION ( 'NONE',  ( 0.0000000000000000000, 0.0000000000000000000, 1.000000000000000000 ) ) ;
#153 = CARTESIAN_POINT ( 'NONE',  ( 8.500000000000000000, 1.040949779275250100E-015, 3.299999999999999800 ) ) ;
#154 = FACE_BOUND ( 'NONE', #19, .T. ) ;
#155 = PRODUCT_DEFINITION_SHAPE ( 'NONE', 'NONE',  #156 ) ;
#156 = PRODUCT_DEFINITION ( 'UNKNOWN', '', #221, #34 ) ;
#157 = PERSON_AND_ORGANIZATION ( #25, #80 ) ;
#158 = ORIENTED_EDGE ( 'NONE', *, *, #51, .F. ) ;
#159 = EDGE_CURVE ( 'NONE', #206, #171, #222, .T. ) ;
#160 = EDGE_LOOP ( 'NONE', ( #71, #136, #229, #164 ) ) ;
#161 = EDGE_CURVE ( 'NONE', #33, #30, #235, .T. ) ;
#162 = CC_DESIGN_APPROVAL ( #85, ( #173 ) ) ;
#163 = CIRCLE ( 'NONE', #188, 15.00000000000000000 ) ;
#164 = ORIENTED_EDGE ( 'NONE', *, *, #76, .F. ) ;
#165 = APPROVAL_STATUS ( 'not_yet_approved' ) ;
#166 = APPROVAL ( #151, 'UNSPECIFIED' ) ;
#167 = CALENDAR_DATE ( 2021, 8, 9 ) ;
#168 = ORIENTED_EDGE ( 'NONE', *, *, #244, .F. ) ;
#169 =( LENGTH_UNIT ( ) NAMED_UNIT ( * ) SI_UNIT ( .MILLI., .METRE. ) );
#170 = FACE_OUTER_BOUND ( 'NONE', #176, .T. ) ;
#171 = VERTEX_POINT ( 'NONE', #41 ) ;
#172 = DIRECTION ( 'NONE',  ( -0.0000000000000000000, -0.0000000000000000000, -1.000000000000000000 ) ) ;
#173 = SECURITY_CLASSIFICATION ( '', '', #56 ) ;
#174 = CARTESIAN_POINT ( 'NONE',  ( -15.00000000000000000, 0.0000000000000000000, 3.299999999999999800 ) ) ;
#175 = LINE ( 'NONE', #217, #134 ) ;
#176 = EDGE_LOOP ( 'NONE', ( #149, #40, #65, #168 ) ) ;
#177 = DIRECTION ( 'NONE',  ( -1.000000000000000000, 0.0000000000000000000, 0.0000000000000000000 ) ) ;
#178 = DATE_AND_TIME ( #167, #35 ) ;
#179 = LOCAL_TIME ( 20, 13, 37.00000000000000000, #143 ) ;
#180 = ORIENTED_EDGE ( 'NONE', *, *, #159, .T. ) ;
#181 = FACE_OUTER_BOUND ( 'NONE', #73, .T. ) ;
#182 = AXIS2_PLACEMENT_3D ( 'NONE', #121, #16, #142 ) ;
#183 = CARTESIAN_POINT ( 'NONE',  ( 0.0000000000000000000, 0.0000000000000000000, 0.0000000000000000000 ) ) ;
#184 = PERSON_AND_ORGANIZATION ( #25, #80 ) ;
#185 = ORIENTED_EDGE ( 'NONE', *, *, #47, .F. ) ;
#186 = APPROVAL_DATE_TIME ( #14, #85 ) ;
#187 = DIRECTION ( 'NONE',  ( 1.000000000000000000, 0.0000000000000000000, -0.0000000000000000000 ) ) ;
#188 = AXIS2_PLACEMENT_3D ( 'NONE', #50, #198, #84 ) ;
#189 = DIRECTION ( 'NONE',  ( 1.000000000000000000, 0.0000000000000000000, 0.0000000000000000000 ) ) ;
#190 = CARTESIAN_POINT ( 'NONE',  ( 0.0000000000000000000, 0.0000000000000000000, 3.299999999999999800 ) ) ;
#191 = PERSON_AND_ORGANIZATION ( #25, #80 ) ;
#192 = APPROVAL_ROLE ( '' ) ;
#193 = ORIENTED_EDGE ( 'NONE', *, *, #161, .F. ) ;
#194 = DIRECTION ( 'NONE',  ( 0.0000000000000000000, 0.0000000000000000000, 1.000000000000000000 ) ) ;
#195 = CARTESIAN_POINT ( 'NONE',  ( 0.0000000000000000000, 0.0000000000000000000, 3.299999999999999800 ) ) ;
#196 = CARTESIAN_POINT ( 'NONE',  ( 0.0000000000000000000, 0.0000000000000000000, 0.0000000000000000000 ) ) ;
#197 = ADVANCED_FACE ( 'NONE', ( #119 ), #18, .F. ) ;
#198 = DIRECTION ( 'NONE',  ( 0.0000000000000000000, 0.0000000000000000000, 1.000000000000000000 ) ) ;
#199 = CC_DESIGN_SECURITY_CLASSIFICATION ( #173, ( #221 ) ) ;
#200 = APPROVAL_DATE_TIME ( #58, #63 ) ;
#201 = EDGE_LOOP ( 'NONE', ( #239, #219, #242, #48 ) ) ;
#202 = VECTOR ( 'NONE', #130, 1000.000000000000000 ) ;
#203 = CARTESIAN_POINT ( 'NONE',  ( 0.0000000000000000000, 0.0000000000000000000, 0.0000000000000000000 ) ) ;
#204 = DIRECTION ( 'NONE',  ( 0.0000000000000000000, 0.0000000000000000000, 1.000000000000000000 ) ) ;
#205 = CIRCLE ( 'NONE', #240, 8.500000000000000000 ) ;
#206 = VERTEX_POINT ( 'NONE', #17 ) ;
#207 = DIRECTION ( 'NONE',  ( 0.0000000000000000000, 0.0000000000000000000, 1.000000000000000000 ) ) ;
#208 = PLANE ( 'NONE',  #137 ) ;
#209 = AXIS2_PLACEMENT_3D ( 'NONE', #93, #54, #37 ) ;
#210 = COORDINATED_UNIVERSAL_TIME_OFFSET ( 6, 0, .BEHIND. ) ;
#211 = VERTEX_POINT ( 'NONE', #108 ) ;
#212 = CARTESIAN_POINT ( 'NONE',  ( 8.500000000000000000, 1.040949779275250100E-015, 3.299999999999999800 ) ) ;
#213 = PRODUCT ( '93475A310_18-8 Stainless Steel Washer', '93475A310_18-8 Stainless Steel Washer', '', ( #113 ) ) ;
#214 = CARTESIAN_POINT ( 'NONE',  ( 15.00000000000000000, 1.836970198721029600E-015, 0.0000000000000000000 ) ) ;
#215 = ORIENTED_EDGE ( 'NONE', *, *, #69, .T. ) ;
#216 = DIRECTION ( 'NONE',  ( 1.000000000000000000, 0.0000000000000000000, 0.0000000000000000000 ) ) ;
#217 = CARTESIAN_POINT ( 'NONE',  ( 15.00000000000000000, 1.836970198721029600E-015, 3.299999999999999800 ) ) ;
#218 = DIRECTION ( 'NONE',  ( -1.000000000000000000, 0.0000000000000000000, 0.0000000000000000000 ) ) ;
#219 = ORIENTED_EDGE ( 'NONE', *, *, #161, .T. ) ;
#220 = EDGE_CURVE ( 'NONE', #171, #206, #205, .T. ) ;
#221 = PRODUCT_DEFINITION_FORMATION_WITH_SPECIFIED_SOURCE ( 'ANY', '', #213, .NOT_KNOWN. ) ;
#222 = CIRCLE ( 'NONE', #90, 8.500000000000000000 ) ;
#223 = ADVANCED_FACE ( 'NONE', ( #122, #75 ), #208, .T. ) ;
#224 = VERTEX_POINT ( 'NONE', #139 ) ;
#225 = ADVANCED_BREP_SHAPE_REPRESENTATION ( '93475A310_18-8 Stainless Steel Washer', ( #78, #9 ), #52 ) ;
#226 = ADVANCED_FACE ( 'NONE', ( #11 ), #138, .T. ) ;
#227 = EDGE_CURVE ( 'NONE', #224, #249, #175, .T. ) ;
#228 = PERSON_AND_ORGANIZATION ( #25, #80 ) ;
#229 = ORIENTED_EDGE ( 'NONE', *, *, #87, .T. ) ;
#230 = APPROVAL_ROLE ( '' ) ;
#231 = DIRECTION ( 'NONE',  ( 1.000000000000000000, 0.0000000000000000000, 0.0000000000000000000 ) ) ;
#232 = SHAPE_DEFINITION_REPRESENTATION ( #155, #225 ) ;
#233 = DATE_AND_TIME ( #32, #127 ) ;
#234 = CC_DESIGN_DATE_AND_TIME_ASSIGNMENT ( #233, #126, ( #173 ) ) ;
#235 = CIRCLE ( 'NONE', #209, 8.500000000000000000 ) ;
#236 = CARTESIAN_POINT ( 'NONE',  ( 0.0000000000000000000, 0.0000000000000000000, 0.0000000000000000000 ) ) ;
#237 = AXIS2_PLACEMENT_3D ( 'NONE', #196, #194, #116 ) ;
#238 = COORDINATED_UNIVERSAL_TIME_OFFSET ( 6, 0, .BEHIND. ) ;
#239 = ORIENTED_EDGE ( 'NONE', *, *, #66, .F. ) ;
#240 = AXIS2_PLACEMENT_3D ( 'NONE', #203, #95, #128 ) ;
#241 = PERSON_AND_ORGANIZATION ( #25, #80 ) ;
#242 = ORIENTED_EDGE ( 'NONE', *, *, #244, .T. ) ;
#243 = EDGE_CURVE ( 'NONE', #224, #53, #45, .T. ) ;
#244 = EDGE_CURVE ( 'NONE', #30, #206, #70, .T. ) ;
#245 = LOCAL_TIME ( 20, 13, 37.00000000000000000, #23 ) ;
#246 = DIRECTION ( 'NONE',  ( 1.000000000000000000, 0.0000000000000000000, 0.0000000000000000000 ) ) ;
#247 = ORIENTED_EDGE ( 'NONE', *, *, #87, .F. ) ;
#248 =( NAMED_UNIT ( * ) PLANE_ANGLE_UNIT ( ) SI_UNIT ( $, .RADIAN. ) );
#249 = VERTEX_POINT ( 'NONE', #214 ) ;
ENDSEC;
END-ISO-10303-21;
