ISO-10303-21;
HEADER;
FILE_DESCRIPTION (( 'STEP AP203' ),
    '1' );
FILE_NAME ('91828A251_NO THREADS_18-8 Stainless Steel Hex Nut.STEP',
    '2023-01-31T18:38:24',
    ( 'Administrator' ),
    ( 'Managed by Terraform' ),
    'SwSTEP 2.0',
    'SolidWorks 2017',
    '' );
FILE_SCHEMA (( 'CONFIG_CONTROL_DESIGN' ));
ENDSEC;

DATA;
#1 = CARTESIAN_POINT ( 'NONE',  ( 4.097519195914132200, 3.407798881125573500, 2.343552472763231500 ) ) ;
#2 = AXIS2_PLACEMENT_3D ( 'NONE', #92, #683, #750 ) ;
#3 = CARTESIAN_POINT ( 'NONE',  ( 4.999999999999996400, 2.298266298006408800, 2.217609435185956100 ) ) ;
#4 = ORIENTED_EDGE ( 'NONE', *, *, #803, .T. ) ;
#5 = LOCAL_TIME ( 12, 38, 24.00000000000000000, #57 ) ;
#6 = B_SPLINE_CURVE_WITH_KNOTS ( 'NONE', 3,
 ( #182, #489, #50, #943, #272, #639 ),
 .UNSPECIFIED., .F., .F.,
 ( 4, 2, 4 ),
 ( 4.365806116929381300E-016, 0.0001318968453454085000, 0.0002637936906903803900 ),
 .UNSPECIFIED. ) ;
#7 = EDGE_CURVE ( 'NONE', #859, #397, #321, .T. ) ;
#8 = DIRECTION ( 'NONE',  ( 0.0000000000000000000, 0.0000000000000000000, 1.000000000000000000 ) ) ;
#9 = CARTESIAN_POINT ( 'NONE',  ( 4.874999999991249700, -2.958920129601875400, -2.094293635094537400 ) ) ;
#10 = CARTESIAN_POINT ( 'NONE',  ( 4.999999999999996400, 2.298266298006408800, -2.217609435185956100 ) ) ;
#11 = VECTOR ( 'NONE', #135, 1000.000000000000000 ) ;
#12 = DIRECTION ( 'NONE',  ( 0.0000000000000000000, 0.0000000000000000000, -1.000000000000000000 ) ) ;
#13 = VERTEX_POINT ( 'NONE', #349 ) ;
#14 = CARTESIAN_POINT ( 'NONE',  ( 4.912177767335817800, -2.937455535617621300, 2.082374515002244600 ) ) ;
#15 = ORIENTED_EDGE ( 'NONE', *, *, #898, .F. ) ;
#16 = AXIS2_PLACEMENT_3D ( 'NONE', #852, #254, #628 ) ;
#17 = CARTESIAN_POINT ( 'NONE',  ( 1.694885762720601100, 4.794959940543858300, -2.461540575954684700 ) ) ;
#18 = CARTESIAN_POINT ( 'NONE',  ( 5.000000000000000900, -1.201851678989727400E-014, -2.500000000000000000 ) ) ;
#19 = EDGE_LOOP ( 'NONE', ( #651, #488, #361, #440, #365, #291 ) ) ;
#20 = CARTESIAN_POINT ( 'NONE',  ( 0.1250000000087416500, 5.701333908242514100, -2.094293635094528500 ) ) ;
#21 = UNCERTAINTY_MEASURE_WITH_UNIT (LENGTH_MEASURE( 1.000000000000000100E-005 ), #56, 'distance_accuracy_value', 'NONE');
#22 = B_SPLINE_CURVE_WITH_KNOTS ( 'NONE', 3,
 ( #271, #497, #342, #346 ),
 .UNSPECIFIED., .F., .F.,
 ( 4, 4 ),
 ( 0.0001489213604350445100, 0.002921158011986696000 ),
 .UNSPECIFIED. ) ;
#23 = CARTESIAN_POINT ( 'NONE',  ( 4.912177767335882600, 2.937455535617588900, -2.082374514999297600 ) ) ;
#24 = ORIENTED_EDGE ( 'NONE', *, *, #155, .T. ) ;
#25 = DIRECTION ( 'NONE',  ( 0.0000000000000000000, 0.0000000000000000000, 1.000000000000000000 ) ) ;
#26 = COORDINATED_UNIVERSAL_TIME_OFFSET ( 6, 0, .BEHIND. ) ;
#27 = CIRCLE ( 'NONE', #144, 5.000000000000000900 ) ;
#28 = VERTEX_POINT ( 'NONE', #779 ) ;
#29 = B_SPLINE_CURVE_WITH_KNOTS ( 'NONE', 3,
 ( #867, #644, #717, #492 ),
 .UNSPECIFIED., .F., .F.,
 ( 4, 4 ),
 ( 0.0001489213604345989300, 0.002921158011986732000 ),
 .UNSPECIFIED. ) ;
#30 = CARTESIAN_POINT ( 'NONE',  ( 0.0000000000000000000, 0.0000000000000000000, -2.500000000000000000 ) ) ;
#31 = EDGE_CURVE ( 'NONE', #407, #75, #159, .T. ) ;
#32 = B_SPLINE_CURVE_WITH_KNOTS ( 'NONE', 3,
 ( #623, #176, #37, #854, #178, #914 ),
 .UNSPECIFIED., .F., .F.,
 ( 4, 2, 4 ),
 ( 0.01871963442727071400, 0.02010551048878760800, 0.02149138655030450500 ),
 .UNSPECIFIED. ) ;
#33 = CARTESIAN_POINT ( 'NONE',  ( -2.999999999999999100, 3.673940397442058900E-016, 2.500000000000000000 ) ) ;
#34 = CC_DESIGN_PERSON_AND_ORGANIZATION_ASSIGNMENT ( #276, #886, ( #480 ) ) ;
#35 = CALENDAR_DATE ( 2023, 31, 1 ) ;
#36 = CIRCLE ( 'NONE', #678, 2.999999999999999100 ) ;
#37 = CARTESIAN_POINT ( 'NONE',  ( -5.000000000000008000, -0.9239451284780942900, -2.462168926621246100 ) ) ;
#38 = ORIENTED_EDGE ( 'NONE', *, *, #843, .T. ) ;
#39 = VERTEX_POINT ( 'NONE', #166 ) ;
#40 = CARTESIAN_POINT ( 'NONE',  ( 0.08782223266417718600, 5.722798502226770400, 2.082374515002236100 ) ) ;
#41 = ORIENTED_EDGE ( 'NONE', *, *, #300, .T. ) ;
#42 = CARTESIAN_POINT ( 'NONE',  ( 4.999999999999984000, -2.294323821397029800, 2.218704048301261400 ) ) ;
#43 = EDGE_CURVE ( 'NONE', #620, #298, #486, .T. ) ;
#44 = LINE ( 'NONE', #487, #539 ) ;
#45 = ADVANCED_FACE ( 'NONE', ( #60 ), #824, .T. ) ;
#46 = CONICAL_SURFACE ( 'NONE', #788, 5.000000000000000900, 1.047197551196600100 ) ;
#47 = CARTESIAN_POINT ( 'NONE',  ( 0.5128066470263428200, 5.477433636193374900, 2.218623693880393200 ) ) ;
#48 = VERTEX_POINT ( 'NONE', #82 ) ;
#49 = DIRECTION ( 'NONE',  ( 0.0000000000000000000, 0.0000000000000000000, -1.000000000000000000 ) ) ;
#50 = CARTESIAN_POINT ( 'NONE',  ( -0.04427490999035383500, 5.734787838016020900, -2.075769044245846700 ) ) ;
#51 = ORIENTED_EDGE ( 'NONE', *, *, #602, .F. ) ;
#52 = AXIS2_PLACEMENT_3D ( 'NONE', #656, #653, #798 ) ;
#53 = CARTESIAN_POINT ( 'NONE',  ( -4.749999999999997300, 2.742413778650734100, 2.500000000000000000 ) ) ;
#54 = CARTESIAN_POINT ( 'NONE',  ( 4.999999999999987600, -0.9239451285083678500, 2.462168926618068200 ) ) ;
#55 = ADVANCED_FACE ( 'NONE', ( #716 ), #535, .F. ) ;
#56 =( LENGTH_UNIT ( ) NAMED_UNIT ( * ) SI_UNIT ( .MILLI., .METRE. ) );
#57 = COORDINATED_UNIVERSAL_TIME_OFFSET ( 6, 0, .BEHIND. ) ;
#58 = CARTESIAN_POINT ( 'NONE',  ( -4.999999999999997300, 2.742413778650732300, -2.094293635091728100 ) ) ;
#59 = EDGE_CURVE ( 'NONE', #540, #415, #701, .T. ) ;
#60 = FACE_OUTER_BOUND ( 'NONE', #428, .T. ) ;
#61 = DIRECTION ( 'NONE',  ( 0.0000000000000000000, 0.0000000000000000000, -1.000000000000000000 ) ) ;
#62 = ORIENTED_EDGE ( 'NONE', *, *, #490, .T. ) ;
#63 = DIRECTION ( 'NONE',  ( 1.000000000000000000, 0.0000000000000000000, 0.0000000000000000000 ) ) ;
#64 = CC_DESIGN_PERSON_AND_ORGANIZATION_ASSIGNMENT ( #847, #516, ( #532 ) ) ;
#65 = CARTESIAN_POINT ( 'NONE',  ( 2.499999999999990700, -4.330127018922199900, -2.500000000000000000 ) ) ;
#66 = ORIENTED_EDGE ( 'NONE', *, *, #900, .T. ) ;
#67 = DIRECTION ( 'NONE',  ( 0.0000000000000000000, 0.0000000000000000000, -1.000000000000000000 ) ) ;
#68 = DIRECTION ( 'NONE',  ( 1.000000000000000000, 0.0000000000000000000, 0.0000000000000000000 ) ) ;
#69 = CARTESIAN_POINT ( 'NONE',  ( 2.500000000000006700, 4.330127018922191000, 2.500000000000000000 ) ) ;
#70 = APPROVAL_STATUS ( 'not_yet_approved' ) ;
#71 = APPROVAL_PERSON_ORGANIZATION ( #496, #377, #665 ) ;
#72 = DIRECTION ( 'NONE',  ( -0.0000000000000000000, -0.0000000000000000000, 1.000000000000000000 ) ) ;
#73 = CIRCLE ( 'NONE', #668, 2.999999999999999100 ) ;
#74 = CARTESIAN_POINT ( 'NONE',  ( 4.988609408032102600, 2.829050722202418800, 2.075769044246377000 ) ) ;
#75 = VERTEX_POINT ( 'NONE', #600 ) ;
#76 = DIRECTION ( 'NONE',  ( 1.000000000000000000, 0.0000000000000000000, 0.0000000000000000000 ) ) ;
#77 = DIRECTION ( 'NONE',  ( 1.000000000000000000, 0.0000000000000000000, -0.0000000000000000000 ) ) ;
#78 = ORIENTED_EDGE ( 'NONE', *, *, #898, .T. ) ;
#79 = EDGE_CURVE ( 'NONE', #13, #800, #27, .T. ) ;
#80 = DIRECTION ( 'NONE',  ( 0.0000000000000000000, 0.0000000000000000000, -1.000000000000000000 ) ) ;
#81 = ORIENTED_EDGE ( 'NONE', *, *, #917, .F. ) ;
#82 = CARTESIAN_POINT ( 'NONE',  ( -4.874999999991264800, 2.958920129601885700, -2.094293635094527200 ) ) ;
#83 = LOCAL_TIME ( 12, 38, 24.00000000000000000, #663 ) ;
#84 = FACE_OUTER_BOUND ( 'NONE', #427, .T. ) ;
#85 = ORIENTED_EDGE ( 'NONE', *, *, #324, .F. ) ;
#86 = CARTESIAN_POINT ( 'NONE',  ( -5.000000000000000900, 1.201851678989730900E-014, -2.500000000000000000 ) ) ;
#87 = ORIENTED_EDGE ( 'NONE', *, *, #866, .F. ) ;
#88 = CARTESIAN_POINT ( 'NONE',  ( 4.999999999999993800, 0.9335570433344900800, -2.461162168310316200 ) ) ;
#89 = CARTESIAN_POINT ( 'NONE',  ( 9.814638822943567300E-015, 5.773502691896259100, 2.500000000000000000 ) ) ;
#90 = CARTESIAN_POINT ( 'NONE',  ( -4.750000000000011500, -2.742413778650695900, 2.500000000000000000 ) ) ;
#91 = CARTESIAN_POINT ( 'NONE',  ( -4.875000000000025800, -2.958920129596796400, 2.094293635091727600 ) ) ;
#92 = CARTESIAN_POINT ( 'NONE',  ( 0.0000000000000000000, 0.0000000000000000000, -2.500000000000000000 ) ) ;
#93 = ORIENTED_EDGE ( 'NONE', *, *, #337, .F. ) ;
#94 = CARTESIAN_POINT ( 'NONE',  ( -0.5128066470263390500, -5.477433636193354400, 2.218623693880404700 ) ) ;
#95 = DIRECTION ( 'NONE',  ( -0.5000000000000012200, -0.8660254037844380400, 0.0000000000000000000 ) ) ;
#96 = CARTESIAN_POINT ( 'NONE',  ( -5.000000000000008900, -1.838139485056790700, 2.321645086322202900 ) ) ;
#97 = SHAPE_DEFINITION_REPRESENTATION ( #630, #804 ) ;
#98 = PLANE ( 'NONE',  #696 ) ;
#99 = B_SPLINE_CURVE_WITH_KNOTS ( 'NONE', 3,
 ( #193, #198, #578, #65 ),
 .UNSPECIFIED., .F., .F.,
 ( 4, 4 ),
 ( 0.0001489213604345988300, 0.002921158011986695600 ),
 .UNSPECIFIED. ) ;
#100 = ORIENTED_EDGE ( 'NONE', *, *, #527, .T. ) ;
#101 = AXIS2_PLACEMENT_3D ( 'NONE', #612, #908, #158 ) ;
#102 = CARTESIAN_POINT ( 'NONE',  ( 8.998878031629686800E-015, 5.484827557301446000, 2.500000000000000000 ) ) ;
#103 = B_SPLINE_CURVE_WITH_KNOTS ( 'NONE', 3,
 ( #18, #319, #88, #840, #10, #613 ),
 .UNSPECIFIED., .F., .F.,
 ( 4, 2, 4 ),
 ( 0.008363737192522044700, 0.009751280766415470300, 0.01113882434030889800 ),
 .UNSPECIFIED. ) ;
#104 = CARTESIAN_POINT ( 'NONE',  ( -6.288372600415925700E-015, -5.484827557301424700, 2.500000000000000000 ) ) ;
#105 = AXIS2_PLACEMENT_3D ( 'NONE', #545, #837, #160 ) ;
#106 = CARTESIAN_POINT ( 'NONE',  ( -0.1249999999996006100, 5.701333908247781000, -2.094293635091603700 ) ) ;
#107 = CALENDAR_DATE ( 2023, 31, 1 ) ;
#108 = CYLINDRICAL_SURFACE ( 'NONE', #425, 0.2500000000000000000 ) ;
#109 = ADVANCED_FACE ( 'NONE', ( #625, #636 ), #98, .T. ) ;
#110 = ORIENTED_EDGE ( 'NONE', *, *, #202, .F. ) ;
#111 = B_SPLINE_CURVE_WITH_KNOTS ( 'NONE', 3,
 ( #203, #431, #723, #289, #133, #643 ),
 .UNSPECIFIED., .F., .F.,
 ( 4, 2, 4 ),
 ( 2.211347213673310800E-018, 0.0001318968453451931800, 0.0002637936906903841300 ),
 .UNSPECIFIED. ) ;
#112 = DIRECTION ( 'NONE',  ( 1.000000000000000000, 0.0000000000000000000, 0.0000000000000000000 ) ) ;
#113 = EDGE_CURVE ( 'NONE', #860, #216, #834, .T. ) ;
#114 = DIRECTION ( 'NONE',  ( 0.0000000000000000000, 0.0000000000000000000, 1.000000000000000000 ) ) ;
#115 = DIRECTION ( 'NONE',  ( 1.000000000000000000, 0.0000000000000000000, -0.0000000000000000000 ) ) ;
#116 = CC_DESIGN_PERSON_AND_ORGANIZATION_ASSIGNMENT ( #963, #364, ( #185 ) ) ;
#117 = CARTESIAN_POINT ( 'NONE',  ( 0.0000000000000000000, 0.0000000000000000000, 2.500000000000000000 ) ) ;
#118 = CYLINDRICAL_SURFACE ( 'NONE', #965, 0.2500000000000002200 ) ;
#119 = DIRECTION ( 'NONE',  ( -1.000000000000000000, 0.0000000000000000000, 0.0000000000000000000 ) ) ;
#120 = VERTEX_POINT ( 'NONE', #219 ) ;
#121 = EDGE_CURVE ( 'NONE', #120, #873, #152, .T. ) ;
#122 = ORIENTED_EDGE ( 'NONE', *, *, #557, .T. ) ;
#123 = VERTEX_POINT ( 'NONE', #594 ) ;
#124 = CARTESIAN_POINT ( 'NONE',  ( 4.999999999999986700, -1.838139485088561500, 2.321645086315864900 ) ) ;
#125 = MANIFOLD_SOLID_BREP ( 'Fillet2', #637 ) ;
#126 = ORIENTED_EDGE ( 'NONE', *, *, #602, .T. ) ;
#127 = CARTESIAN_POINT ( 'NONE',  ( 0.0000000000000000000, 0.0000000000000000000, -2.500000000000000000 ) ) ;
#128 = EDGE_CURVE ( 'NONE', #555, #123, #685, .T. ) ;
#129 = CARTESIAN_POINT ( 'NONE',  ( -2.499999999999991100, 4.330127018922199900, 2.500000000000000000 ) ) ;
#130 = APPLICATION_PROTOCOL_DEFINITION ( 'international standard', 'config_control_design', 1994, #494 ) ;
#131 = VECTOR ( 'NONE', #448, 1000.000000000000000 ) ;
#132 = ORIENTED_EDGE ( 'NONE', *, *, #355, .F. ) ;
#133 = CARTESIAN_POINT ( 'NONE',  ( -4.912191381697276400, 2.937447675362495000, -2.082370150261533900 ) ) ;
#134 = AXIS2_PLACEMENT_3D ( 'NONE', #554, #114, #481 ) ;
#135 = DIRECTION ( 'NONE',  ( -0.0000000000000000000, -0.0000000000000000000, 1.000000000000000000 ) ) ;
#136 = DIRECTION ( 'NONE',  ( -1.000000000000000000, 0.0000000000000000000, 0.0000000000000000000 ) ) ;
#137 =( NAMED_UNIT ( * ) PLANE_ANGLE_UNIT ( ) SI_UNIT ( $, .RADIAN. ) );
#138 = CARTESIAN_POINT ( 'NONE',  ( 2.500000000000006700, 4.330127018922191000, -2.500000000000000000 ) ) ;
#139 = CIRCLE ( 'NONE', #16, 5.000000000000000900 ) ;
#140 = ORIENTED_EDGE ( 'NONE', *, *, #187, .F. ) ;
#141 = ORIENTED_EDGE ( 'NONE', *, *, #574, .T. ) ;
#142 = CARTESIAN_POINT ( 'NONE',  ( 0.0000000000000000000, 0.0000000000000000000, 2.500000000000000000 ) ) ;
#143 = APPROVAL_STATUS ( 'not_yet_approved' ) ;
#144 = AXIS2_PLACEMENT_3D ( 'NONE', #117, #633, #112 ) ;
#145 = CARTESIAN_POINT ( 'NONE',  ( 4.999999999999984000, -2.742413778650734100, 2.094293635091739600 ) ) ;
#146 = CARTESIAN_POINT ( 'NONE',  ( 4.875000000000012400, 2.958920129596822600, 2.094293635091726700 ) ) ;
#147 = PERSON_AND_ORGANIZATION_ROLE ( 'creator' ) ;
#148 = CARTESIAN_POINT ( 'NONE',  ( -0.5128066470333416700, -5.477433636189311400, -2.218623693882313800 ) ) ;
#149 = CC_DESIGN_APPROVAL ( #377, ( #480 ) ) ;
#150 = VECTOR ( 'NONE', #67, 1000.000000000000000 ) ;
#151 = CARTESIAN_POINT ( 'NONE',  ( -5.000000000000003600, 0.4639686512353304300, -2.499999999999997800 ) ) ;
#152 = LINE ( 'NONE', #826, #569 ) ;
#153 = VERTEX_POINT ( 'NONE', #801 ) ;
#154 = CARTESIAN_POINT ( 'NONE',  ( 0.0000000000000000000, 0.0000000000000000000, 2.500000000000000000 ) ) ;
#155 = EDGE_CURVE ( 'NONE', #922, #690, #238, .T. ) ;
#156 = DIRECTION ( 'NONE',  ( 1.000000000000000000, 0.0000000000000000000, 0.0000000000000000000 ) ) ;
#157 = CARTESIAN_POINT ( 'NONE',  ( -5.000000000000000900, 1.201851678989730900E-014, -2.500000000000000000 ) ) ;
#158 = DIRECTION ( 'NONE',  ( -2.403703357979454500E-015, -1.000000000000000000, 0.0000000000000000000 ) ) ;
#159 = B_SPLINE_CURVE_WITH_KNOTS ( 'NONE', 3,
 ( #615, #692, #913, #201, #901, #9 ),
 .UNSPECIFIED., .F., .F.,
 ( 4, 2, 4 ),
 ( 0.002921158011986696000, 0.004301918286211094800, 0.005682678560435493200 ),
 .UNSPECIFIED. ) ;
#160 = DIRECTION ( 'NONE',  ( 1.000000000000000000, 0.0000000000000000000, 0.0000000000000000000 ) ) ;
#161 = CYLINDRICAL_SURFACE ( 'NONE', #598, 0.2500000000000002200 ) ;
#162 = CC_DESIGN_DATE_AND_TIME_ASSIGNMENT ( #624, #439, ( #532 ) ) ;
#163 = ORIENTED_EDGE ( 'NONE', *, *, #957, .F. ) ;
#164 = CARTESIAN_POINT ( 'NONE',  ( 2.097316833882060500, 4.562616253278521100, -2.500000000000002200 ) ) ;
#165 = ORIENTED_EDGE ( 'NONE', *, *, #735, .T. ) ;
#166 = CARTESIAN_POINT ( 'NONE',  ( 0.1250000000087416500, 5.701333908242514100, -2.094293635094528500 ) ) ;
#167 = FACE_OUTER_BOUND ( 'NONE', #320, .T. ) ;
#168 = B_SPLINE_CURVE_WITH_KNOTS ( 'NONE', 3,
 ( #758, #23, #610, #691, #245, #912 ),
 .UNSPECIFIED., .F., .F.,
 ( 4, 2, 4 ),
 ( 4.360004960050770200E-016, 0.0001318968453402459400, 0.0002637936906800558600 ),
 .UNSPECIFIED. ) ;
#169 = VECTOR ( 'NONE', #752, 1000.000000000000000 ) ;
#170 = CARTESIAN_POINT ( 'NONE',  ( -2.500000000000004000, -4.330127018922192800, 2.500000000000000000 ) ) ;
#171 = ORIENTED_EDGE ( 'NONE', *, *, #527, .F. ) ;
#172 = EDGE_CURVE ( 'NONE', #751, #853, #29, .T. ) ;
#173 = ORIENTED_EDGE ( 'NONE', *, *, #59, .T. ) ;
#174 = CARTESIAN_POINT ( 'NONE',  ( 4.999999999999997300, 2.742413778650720300, 2.094293635091732100 ) ) ;
#175 = VERTEX_POINT ( 'NONE', #261 ) ;
#176 = CARTESIAN_POINT ( 'NONE',  ( -5.000000000000006200, -0.4637686117031748500, -2.499999999999997800 ) ) ;
#177 = ORIENTED_EDGE ( 'NONE', *, *, #441, .F. ) ;
#178 = CARTESIAN_POINT ( 'NONE',  ( -5.000000000000010700, -2.294323821375003500, -2.218704048307365500 ) ) ;
#179 = FACE_OUTER_BOUND ( 'NONE', #19, .T. ) ;
#180 = EDGE_LOOP ( 'NONE', ( #838, #224, #567, #234 ) ) ;
#181 = EDGE_LOOP ( 'NONE', ( #850, #444, #693, #140 ) ) ;
#182 = CARTESIAN_POINT ( 'NONE',  ( -0.1249999999996006100, 5.701333908247781000, -2.094293635091603700 ) ) ;
#183 = EDGE_LOOP ( 'NONE', ( #884, #318, #749, #394, #235, #258 ) ) ;
#184 = ADVANCED_FACE ( 'NONE', ( #424 ), #411, .T. ) ;
#185 = PRODUCT ( '91828A251_NO THREADS_18-8 Stainless Steel Hex Nut', '91828A251_NO THREADS_18-8 Stainless Steel Hex Nut', '', ( #728 ) ) ;
#186 = CARTESIAN_POINT ( 'NONE',  ( -4.912191381696287900, -2.937447675362921300, 2.082370150261891400 ) ) ;
#187 = EDGE_CURVE ( 'NONE', #221, #476, #836, .T. ) ;
#188 = APPROVAL_PERSON_ORGANIZATION ( #707, #742, #588 ) ;
#189 = CARTESIAN_POINT ( 'NONE',  ( -0.1250000000003905800, -5.701333908247313800, 2.094293635091864400 ) ) ;
#190 = FACE_OUTER_BOUND ( 'NONE', #676, .T. ) ;
#191 = EDGE_LOOP ( 'NONE', ( #808, #942, #797, #132 ) ) ;
#192 = AXIS2_PLACEMENT_3D ( 'NONE', #958, #582, #68 ) ;
#193 = CARTESIAN_POINT ( 'NONE',  ( 0.1249999999996032300, -5.701333908247760500, -2.094293635091615700 ) ) ;
#194 = CARTESIAN_POINT ( 'NONE',  ( -3.305114237282273000, 3.865294097298879200, 2.461540575954403600 ) ) ;
#195 = ORIENTED_EDGE ( 'NONE', *, *, #59, .F. ) ;
#196 = CARTESIAN_POINT ( 'NONE',  ( 0.0000000000000000000, 0.0000000000000000000, -2.500000000000000000 ) ) ;
#197 = CARTESIAN_POINT ( 'NONE',  ( 0.0000000000000000000, 0.0000000000000000000, 2.500000000000000000 ) ) ;
#198 = CARTESIAN_POINT ( 'NONE',  ( 0.9024808040856039400, -5.252455156718943000, -2.343552472763189300 ) ) ;
#199 = VERTEX_POINT ( 'NONE', #531 ) ;
#200 = DIRECTION ( 'NONE',  ( -0.0000000000000000000, -0.0000000000000000000, -1.000000000000000000 ) ) ;
#201 = CARTESIAN_POINT ( 'NONE',  ( 4.096183824205305700, -3.408569858341122100, -2.320626431802350200 ) ) ;
#202 = EDGE_CURVE ( 'NONE', #199, #860, #544, .T. ) ;
#203 = CARTESIAN_POINT ( 'NONE',  ( -4.999999999999997300, 2.742413778650732300, -2.094293635091728100 ) ) ;
#204 = VECTOR ( 'NONE', #711, 1000.000000000000000 ) ;
#205 = CARTESIAN_POINT ( 'NONE',  ( -2.097316833882050300, -4.562616253278505100, -2.500000000000013300 ) ) ;
#206 = ORIENTED_EDGE ( 'NONE', *, *, #337, .T. ) ;
#207 = CARTESIAN_POINT ( 'NONE',  ( 4.944627966067979900, 2.905387286969255600, 2.075725291386873600 ) ) ;
#208 = ORIENTED_EDGE ( 'NONE', *, *, #292, .T. ) ;
#209 = ADVANCED_FACE ( 'NONE', ( #769 ), #586, .F. ) ;
#210 = DIRECTION ( 'NONE',  ( 1.000000000000000000, 0.0000000000000000000, 0.0000000000000000000 ) ) ;
#211 = AXIS2_PLACEMENT_3D ( 'NONE', #893, #679, #737 ) ;
#212 = ORIENTED_EDGE ( 'NONE', *, *, #121, .F. ) ;
#213 = APPLICATION_PROTOCOL_DEFINITION ( 'international standard', 'config_control_design', 1994, #280 ) ;
#214 = PLANE ( 'NONE',  #294 ) ;
#215 = ADVANCED_FACE ( 'NONE', ( #794 ), #402, .T. ) ;
#216 = VERTEX_POINT ( 'NONE', #961 ) ;
#217 = APPROVAL_ROLE ( '' ) ;
#218 = DIRECTION ( 'NONE',  ( -0.4999999999999979500, 0.8660254037844398200, 0.0000000000000000000 ) ) ;
#219 = CARTESIAN_POINT ( 'NONE',  ( -2.999999999999999100, 3.673940397442058900E-016, -2.500000000000000000 ) ) ;
#220 = VECTOR ( 'NONE', #313, 1000.000000000000000 ) ;
#221 = VERTEX_POINT ( 'NONE', #669 ) ;
#222 = CARTESIAN_POINT ( 'NONE',  ( 4.875000000000387200, 2.958920129596606300, -2.094293635091605900 ) ) ;
#223 = CARTESIAN_POINT ( 'NONE',  ( -4.912177767335832000, 2.937455535617630600, 2.082374515002233500 ) ) ;
#224 = ORIENTED_EDGE ( 'NONE', *, *, #128, .T. ) ;
#225 = CARTESIAN_POINT ( 'NONE',  ( -4.487193352973663200, 3.182820401651023100, 2.218623693880391400 ) ) ;
#226 = EDGE_CURVE ( 'NONE', #298, #555, #819, .T. ) ;
#227 = EDGE_LOOP ( 'NONE', ( #398, #543, #243, #293 ) ) ;
#228 = CARTESIAN_POINT ( 'NONE',  ( 4.999999999999993800, 0.9335570433344900800, 2.461162168310316200 ) ) ;
#229 = VERTEX_POINT ( 'NONE', #736 ) ;
#230 = CARTESIAN_POINT ( 'NONE',  ( 4.097519195914385300, 3.407798881125427400, -2.343552472763180000 ) ) ;
#231 = DIRECTION ( 'NONE',  ( 0.0000000000000000000, 0.0000000000000000000, 1.000000000000000000 ) ) ;
#232 = LOCAL_TIME ( 12, 38, 24.00000000000000000, #422 ) ;
#233 = LINE ( 'NONE', #416, #380 ) ;
#234 = ORIENTED_EDGE ( 'NONE', *, *, #719, .F. ) ;
#235 = ORIENTED_EDGE ( 'NONE', *, *, #917, .T. ) ;
#236 = CARTESIAN_POINT ( 'NONE',  ( 5.000000000000000900, -1.201851678989727400E-014, -2.500000000000000000 ) ) ;
#237 = EDGE_CURVE ( 'NONE', #48, #555, #233, .T. ) ;
#238 = B_SPLINE_CURVE_WITH_KNOTS ( 'NONE', 3,
 ( #671, #815, #363, #285, #432, #495 ),
 .UNSPECIFIED., .F., .F.,
 ( 4, 2, 4 ),
 ( 4.366053508821533800E-016, 0.0001318968453454081200, 0.0002637936906903796300 ),
 .UNSPECIFIED. ) ;
#239 = CARTESIAN_POINT ( 'NONE',  ( -0.1249999999996006100, 5.701333908247781000, -2.094293635091603700 ) ) ;
#240 = CARTESIAN_POINT ( 'NONE',  ( -5.000000000000011500, -2.785342966609243300, 2.082374514999379800 ) ) ;
#241 = CARTESIAN_POINT ( 'NONE',  ( -4.875000000000011500, -2.958920129596804800, 2.500000000000000000 ) ) ;
#242 = DIRECTION ( 'NONE',  ( -1.000000000000000000, 0.0000000000000000000, 0.0000000000000000000 ) ) ;
#243 = ORIENTED_EDGE ( 'NONE', *, *, #735, .F. ) ;
#244 = ORIENTED_EDGE ( 'NONE', *, *, #155, .F. ) ;
#245 = CARTESIAN_POINT ( 'NONE',  ( 4.999999999999997300, 2.785358687118385700, -2.082370150261915400 ) ) ;
#246 = CYLINDRICAL_SURFACE ( 'NONE', #897, 0.2500000000000000000 ) ;
#247 = EDGE_CURVE ( 'NONE', #216, #620, #895, .T. ) ;
#248 = FACE_OUTER_BOUND ( 'NONE', #862, .T. ) ;
#249 = ORIENTED_EDGE ( 'NONE', *, *, #622, .F. ) ;
#250 = PLANE ( 'NONE',  #263 ) ;
#251 = B_SPLINE_CURVE_WITH_KNOTS ( 'NONE', 3,
 ( #755, #14, #695, #457, #831, #904 ),
 .UNSPECIFIED., .F., .F.,
 ( 4, 2, 4 ),
 ( 9.981539940999808800E-017, 0.0001318968453401113900, 0.0002637936906801229200 ),
 .UNSPECIFIED. ) ;
#252 = CARTESIAN_POINT ( 'NONE',  ( -2.500000000000004000, -4.330127018922192800, -2.500000000000000000 ) ) ;
#253 = CC_DESIGN_PERSON_AND_ORGANIZATION_ASSIGNMENT ( #673, #806, ( #480 ) ) ;
#254 = DIRECTION ( 'NONE',  ( -0.0000000000000000000, -0.0000000000000000000, -1.000000000000000000 ) ) ;
#255 = VECTOR ( 'NONE', #507, 1000.000000000000000 ) ;
#256 = B_SPLINE_CURVE_WITH_KNOTS ( 'NONE', 3,
 ( #538, #164, #17, #684, #906, #20 ),
 .UNSPECIFIED., .F., .F.,
 ( 4, 2, 4 ),
 ( 0.002921158011986703800, 0.004301918286211103500, 0.005682678560435503600 ),
 .UNSPECIFIED. ) ;
#257 = CONICAL_SURFACE ( 'NONE', #705, 5.000000000000000900, 1.047197551196600100 ) ;
#258 = ORIENTED_EDGE ( 'NONE', *, *, #654, .T. ) ;
#259 = EDGE_CURVE ( 'NONE', #873, #415, #604, .T. ) ;
#260 = ORIENTED_EDGE ( 'NONE', *, *, #300, .F. ) ;
#261 = CARTESIAN_POINT ( 'NONE',  ( 0.1249999999999782100, -5.701333908247543800, 2.094293635091736000 ) ) ;
#262 = CARTESIAN_POINT ( 'NONE',  ( -5.000000000000003600, 0.4639686512353304300, 2.499999999999997800 ) ) ;
#263 = AXIS2_PLACEMENT_3D ( 'NONE', #910, #95, #754 ) ;
#264 = EDGE_CURVE ( 'NONE', #28, #710, #923, .T. ) ;
#265 = CARTESIAN_POINT ( 'NONE',  ( 1.694885762717730100, 4.794959940545516600, 2.461540575954404500 ) ) ;
#266 = ORIENTED_EDGE ( 'NONE', *, *, #744, .F. ) ;
#267 = DATE_AND_TIME ( #700, #83 ) ;
#268 = CIRCLE ( 'NONE', #192, 5.000000000000000900 ) ;
#269 = CARTESIAN_POINT ( 'NONE',  ( -1.691508437116557400, 4.796909840390490000, 2.500000000000002200 ) ) ;
#270 = ORIENTED_EDGE ( 'NONE', *, *, #490, .F. ) ;
#271 = CARTESIAN_POINT ( 'NONE',  ( 0.1249999999999782100, -5.701333908247543800, 2.094293635091736000 ) ) ;
#272 = CARTESIAN_POINT ( 'NONE',  ( 0.08780861830289031500, 5.722806362482030500, -2.082370150261557000 ) ) ;
#273 = EDGE_CURVE ( 'NONE', #849, #39, #6, .T. ) ;
#274 = ADVANCED_FACE ( 'NONE', ( #278 ), #593, .T. ) ;
#275 = DIRECTION ( 'NONE',  ( 0.0000000000000000000, 0.0000000000000000000, -1.000000000000000000 ) ) ;
#276 = PERSON_AND_ORGANIZATION ( #934, #892 ) ;
#277 = CARTESIAN_POINT ( 'NONE',  ( 5.000000000000000900, -1.201851678989727400E-014, -2.500000000000000000 ) ) ;
#278 = FACE_OUTER_BOUND ( 'NONE', #332, .T. ) ;
#279 = ORIENTED_EDGE ( 'NONE', *, *, #957, .T. ) ;
#280 = APPLICATION_CONTEXT ( 'configuration controlled 3d designs of mechanical parts and assemblies' ) ;
#281 = VERTEX_POINT ( 'NONE', #277 ) ;
#282 = AXIS2_PLACEMENT_3D ( 'NONE', #310, #382, #468 ) ;
#283 = CARTESIAN_POINT ( 'NONE',  ( 0.0000000000000000000, 0.0000000000000000000, 2.500000000000000000 ) ) ;
#284 = DIRECTION ( 'NONE',  ( 1.000000000000000000, -2.664535259100375700E-015, 0.0000000000000000000 ) ) ;
#285 = CARTESIAN_POINT ( 'NONE',  ( -0.04382521532089169600, -5.734867074361512000, -2.075725291387407400 ) ) ;
#286 = ORIENTED_EDGE ( 'NONE', *, *, #128, .F. ) ;
#287 = CARTESIAN_POINT ( 'NONE',  ( -4.999999999999998200, 2.785358687118584700, 2.082370150261860800 ) ) ;
#288 = ADVANCED_FACE ( 'NONE', ( #525 ), #257, .T. ) ;
#289 = CARTESIAN_POINT ( 'NONE',  ( -4.944627966063700700, 2.905387286974870300, -2.075725291387371400 ) ) ;
#290 = APPROVAL_DATE_TIME ( #484, #742 ) ;
#291 = ORIENTED_EDGE ( 'NONE', *, *, #7, .F. ) ;
#292 = EDGE_CURVE ( 'NONE', #786, #298, #616, .T. ) ;
#293 = ORIENTED_EDGE ( 'NONE', *, *, #843, .F. ) ;
#294 = AXIS2_PLACEMENT_3D ( 'NONE', #358, #218, #426 ) ;
#295 = CARTESIAN_POINT ( 'NONE',  ( -4.999999999999999100, 1.848661140046615100, -2.319546572517207700 ) ) ;
#296 = LINE ( 'NONE', #875, #150 ) ;
#297 = CIRCLE ( 'NONE', #759, 5.000000000000000900 ) ;
#298 = VERTEX_POINT ( 'NONE', #410 ) ;
#299 = DIRECTION ( 'NONE',  ( 2.403703357979461200E-015, 1.000000000000000000, 0.0000000000000000000 ) ) ;
#300 = EDGE_CURVE ( 'NONE', #620, #795, #452, .T. ) ;
#301 = CARTESIAN_POINT ( 'NONE',  ( 3.308491562883568300, 3.863344197453824500, -2.500000000000002200 ) ) ;
#302 = CARTESIAN_POINT ( 'NONE',  ( -5.000000000000011500, -2.742413778650707500, 2.094293635091733400 ) ) ;
#303 = EDGE_LOOP ( 'NONE', ( #682, #447, #618, #734 ) ) ;
#304 = CARTESIAN_POINT ( 'NONE',  ( -4.874999999999613600, 2.958920129597065500, 2.094293635091849700 ) ) ;
#305 = CARTESIAN_POINT ( 'NONE',  ( 0.0000000000000000000, 0.0000000000000000000, 2.500000000000000000 ) ) ;
#306 = EDGE_CURVE ( 'NONE', #772, #175, #395, .T. ) ;
#307 = B_SPLINE_CURVE_WITH_KNOTS ( 'NONE', 3,
 ( #517, #948, #354, #725, #731, #882 ),
 .UNSPECIFIED., .F., .F.,
 ( 4, 2, 4 ),
 ( 8.907049137072118000E-017, 0.0001318968453452370100, 0.0002637936906903849400 ),
 .UNSPECIFIED. ) ;
#308 = CARTESIAN_POINT ( 'NONE',  ( 0.0000000000000000000, 0.0000000000000000000, -2.500000000000000000 ) ) ;
#309 = AXIS2_PLACEMENT_3D ( 'NONE', #308, #537, #609 ) ;
#310 = CARTESIAN_POINT ( 'NONE',  ( 0.0000000000000000000, 0.0000000000000000000, -2.500000000000000000 ) ) ;
#311 = LINE ( 'NONE', #789, #255 ) ;
#312 = CARTESIAN_POINT ( 'NONE',  ( 3.308491562883438200, 3.863344197453899600, 2.500000000000002200 ) ) ;
#313 = DIRECTION ( 'NONE',  ( -0.0000000000000000000, -0.0000000000000000000, 1.000000000000000000 ) ) ;
#314 = ORIENTED_EDGE ( 'NONE', *, *, #273, .F. ) ;
#315 = DIRECTION ( 'NONE',  ( 0.0000000000000000000, 0.0000000000000000000, -1.000000000000000000 ) ) ;
#316 = EDGE_CURVE ( 'NONE', #175, #859, #22, .T. ) ;
#317 = ORIENTED_EDGE ( 'NONE', *, *, #699, .T. ) ;
#318 = ORIENTED_EDGE ( 'NONE', *, *, #237, .T. ) ;
#319 = CARTESIAN_POINT ( 'NONE',  ( 4.999999999999992000, 0.4639686512922514000, -2.500000000000006200 ) ) ;
#320 = EDGE_LOOP ( 'NONE', ( #832, #825, #937, #195 ) ) ;
#321 = B_SPLINE_CURVE_WITH_KNOTS ( 'NONE', 3,
 ( #933, #485, #409, #341, #420, #568 ),
 .UNSPECIFIED., .F., .F.,
 ( 4, 2, 4 ),
 ( 0.002921158011986696000, 0.004301918286216048300, 0.005682678560445401100 ),
 .UNSPECIFIED. ) ;
#322 = CARTESIAN_POINT ( 'NONE',  ( 2.499999999999990700, -4.330127018922199900, 2.500000000000000000 ) ) ;
#323 = ADVANCED_FACE ( 'NONE', ( #715 ), #393, .T. ) ;
#324 = EDGE_CURVE ( 'NONE', #75, #397, #649, .T. ) ;
#325 = FACE_OUTER_BOUND ( 'NONE', #469, .T. ) ;
#326 = ORIENTED_EDGE ( 'NONE', *, *, #911, .F. ) ;
#327 = CARTESIAN_POINT ( 'NONE',  ( 0.1250000000003930200, 5.701333908247334200, 2.094293635091852000 ) ) ;
#328 = AXIS2_PLACEMENT_3D ( 'NONE', #877, #949, #659 ) ;
#329 = CARTESIAN_POINT ( 'NONE',  ( -5.000000000000001800, 0.9335570432874895600, 2.461162168316521500 ) ) ;
#330 = LINE ( 'NONE', #796, #463 ) ;
#331 = CARTESIAN_POINT ( 'NONE',  ( -0.1249999999999755800, 5.701333908247564300, 2.094293635091724100 ) ) ;
#332 = EDGE_LOOP ( 'NONE', ( #905, #688, #206, #627 ) ) ;
#333 = ORIENTED_EDGE ( 'NONE', *, *, #574, .F. ) ;
#334 = ORIENTED_EDGE ( 'NONE', *, *, #790, .F. ) ;
#335 = DATE_AND_TIME ( #375, #5 ) ;
#336 = DIRECTION ( 'NONE',  ( 0.0000000000000000000, 0.0000000000000000000, -1.000000000000000000 ) ) ;
#337 = EDGE_CURVE ( 'NONE', #453, #199, #603, .T. ) ;
#338 = EDGE_CURVE ( 'NONE', #922, #407, #99, .T. ) ;
#339 = ORIENTED_EDGE ( 'NONE', *, *, #889, .T. ) ;
#340 = ORIENTED_EDGE ( 'NONE', *, *, #418, .T. ) ;
#341 = CARTESIAN_POINT ( 'NONE',  ( 4.096183824210948300, -3.408569858337863900, 2.320626431801112900 ) ) ;
#342 = CARTESIAN_POINT ( 'NONE',  ( 1.691508437116551600, -4.796909840390474900, 2.500000000000011500 ) ) ;
#343 = VECTOR ( 'NONE', #802, 1000.000000000000000 ) ;
#344 = CIRCLE ( 'NONE', #761, 5.000000000000000900 ) ;
#345 = AXIS2_PLACEMENT_3D ( 'NONE', #142, #667, #63 ) ;
#346 = CARTESIAN_POINT ( 'NONE',  ( 2.499999999999990700, -4.330127018922199900, 2.500000000000000000 ) ) ;
#347 = ORIENTED_EDGE ( 'NONE', *, *, #441, .T. ) ;
#348 = CARTESIAN_POINT ( 'NONE',  ( -2.902683166117942200, 4.097637784565875100, -2.500000000000003100 ) ) ;
#349 = CARTESIAN_POINT ( 'NONE',  ( -5.000000000000000900, 1.201851678989730900E-014, 2.500000000000000000 ) ) ;
#350 = CARTESIAN_POINT ( 'NONE',  ( 0.0000000000000000000, 0.0000000000000000000, -2.500000000000000000 ) ) ;
#351 = ADVANCED_FACE ( 'NONE', ( #359 ), #451, .F. ) ;
#352 = CARTESIAN_POINT ( 'NONE',  ( -4.096183824210962500, 3.408569858337875400, 2.320626431801101400 ) ) ;
#353 = DIRECTION ( 'NONE',  ( -1.000000000000000000, 0.0000000000000000000, 0.0000000000000000000 ) ) ;
#354 = CARTESIAN_POINT ( 'NONE',  ( 4.988609408031171800, -2.829050722205858300, -2.075769044245872900 ) ) ;
#355 = EDGE_CURVE ( 'NONE', #199, #620, #344, .T. ) ;
#356 = ORIENTED_EDGE ( 'NONE', *, *, #591, .F. ) ;
#357 = CARTESIAN_POINT ( 'NONE',  ( -4.096183824205319000, 3.408569858341134100, -2.320626431802338600 ) ) ;
#358 = CARTESIAN_POINT ( 'NONE',  ( -7.212728060499675100E-015, -5.773502691896237800, 2.500000000000000000 ) ) ;
#359 = FACE_OUTER_BOUND ( 'NONE', #466, .T. ) ;
#360 = ORIENTED_EDGE ( 'NONE', *, *, #172, .F. ) ;
#361 = ORIENTED_EDGE ( 'NONE', *, *, #338, .T. ) ;
#362 = CARTESIAN_POINT ( 'NONE',  ( 4.875000000000387200, 2.958920129596606300, -2.094293635091605900 ) ) ;
#363 = CARTESIAN_POINT ( 'NONE',  ( 0.04427490999035676300, -5.734787838016000400, -2.075769044245859200 ) ) ;
#364 = PERSON_AND_ORGANIZATION_ROLE ( 'design_owner' ) ;
#365 = ORIENTED_EDGE ( 'NONE', *, *, #324, .T. ) ;
#366 = DATE_TIME_ROLE ( 'creation_date' ) ;
#367 = CARTESIAN_POINT ( 'NONE',  ( -5.000000000000011500, -2.742413778650707500, 2.094293635091733400 ) ) ;
#368 = LINE ( 'NONE', #423, #343 ) ;
#369 = DIRECTION ( 'NONE',  ( 1.000000000000000000, 0.0000000000000000000, 0.0000000000000000000 ) ) ;
#370 = LINE ( 'NONE', #650, #11 ) ;
#371 = ORIENTED_EDGE ( 'NONE', *, *, #462, .F. ) ;
#372 = EDGE_CURVE ( 'NONE', #896, #28, #370, .T. ) ;
#373 = DIRECTION ( 'NONE',  ( 1.000000000000000000, -2.403703357979461200E-015, 0.0000000000000000000 ) ) ;
#374 = DIRECTION ( 'NONE',  ( 0.0000000000000000000, 0.0000000000000000000, 1.000000000000000000 ) ) ;
#375 = CALENDAR_DATE ( 2023, 31, 1 ) ;
#376 = ORIENTED_EDGE ( 'NONE', *, *, #744, .T. ) ;
#377 = APPROVAL ( #143, 'UNSPECIFIED' ) ;
#378 = CARTESIAN_POINT ( 'NONE',  ( 4.999999999999986700, -1.838139485088617500, -2.321645086315854200 ) ) ;
#379 = CARTESIAN_POINT ( 'NONE',  ( -2.499999999999991100, 4.330127018922199900, -2.500000000000000000 ) ) ;
#380 = VECTOR ( 'NONE', #509, 1000.000000000000000 ) ;
#381 = ORIENTED_EDGE ( 'NONE', *, *, #247, .F. ) ;
#382 = DIRECTION ( 'NONE',  ( 0.0000000000000000000, 0.0000000000000000000, 1.000000000000000000 ) ) ;
#383 = VERTEX_POINT ( 'NONE', #362 ) ;
#384 = DIRECTION ( 'NONE',  ( 1.000000000000000000, 0.0000000000000000000, 0.0000000000000000000 ) ) ;
#385 = CARTESIAN_POINT ( 'NONE',  ( -2.500000000000004000, -4.330127018922192800, 2.500000000000000000 ) ) ;
#386 = CARTESIAN_POINT ( 'NONE',  ( -0.9038161757890356100, -5.251684179506503900, 2.320626431801112900 ) ) ;
#387 = CARTESIAN_POINT ( 'NONE',  ( 0.0000000000000000000, 0.0000000000000000000, 2.500000000000000000 ) ) ;
#388 = ORIENTED_EDGE ( 'NONE', *, *, #472, .T. ) ;
#389 = B_SPLINE_CURVE_WITH_KNOTS ( 'NONE', 3,
 ( #512, #872, #421, #576, #955, #503 ),
 .UNSPECIFIED., .F., .F.,
 ( 4, 2, 4 ),
 ( 4.357353363080936500E-016, 0.0001318968453401978500, 0.0002637936906799599600 ),
 .UNSPECIFIED. ) ;
#390 = CARTESIAN_POINT ( 'NONE',  ( -4.875000000000400600, -2.958920129596580100, -2.094293635091606800 ) ) ;
#391 = EDGE_CURVE ( 'NONE', #415, #873, #579, .T. ) ;
#392 = FACE_OUTER_BOUND ( 'NONE', #657, .T. ) ;
#393 = CYLINDRICAL_SURFACE ( 'NONE', #858, 0.2500000000000002200 ) ;
#394 = ORIENTED_EDGE ( 'NONE', *, *, #292, .F. ) ;
#395 = B_SPLINE_CURVE_WITH_KNOTS ( 'NONE', 3,
 ( #189, #868, #565, #414, #781, #713 ),
 .UNSPECIFIED., .F., .F.,
 ( 4, 2, 4 ),
 ( 1.005022409220481500E-016, 0.0001318968453401071300, 0.0002637936906801137600 ),
 .UNSPECIFIED. ) ;
#396 = AXIS2_PLACEMENT_3D ( 'NONE', #721, #946, #504 ) ;
#397 = VERTEX_POINT ( 'NONE', #793 ) ;
#398 = ORIENTED_EDGE ( 'NONE', *, *, #113, .F. ) ;
#399 = DIRECTION ( 'NONE',  ( 0.0000000000000000000, 0.0000000000000000000, 1.000000000000000000 ) ) ;
#400 = ADVANCED_FACE ( 'NONE', ( #179 ), #214, .F. ) ;
#401 = AXIS2_PLACEMENT_3D ( 'NONE', #733, #662, #810 ) ;
#402 = CONICAL_SURFACE ( 'NONE', #783, 5.000000000000000900, 1.047197551196600100 ) ;
#403 = ORIENTED_EDGE ( 'NONE', *, *, #719, .T. ) ;
#404 = CARTESIAN_POINT ( 'NONE',  ( -4.999999999999997300, 2.742413778650734500, 2.500000000000000000 ) ) ;
#405 = ORIENTED_EDGE ( 'NONE', *, *, #79, .T. ) ;
#406 = PRODUCT_DEFINITION ( 'UNKNOWN', '', #480, #879 ) ;
#407 = VERTEX_POINT ( 'NONE', #880 ) ;
#408 = CARTESIAN_POINT ( 'NONE',  ( 4.999999999999984000, -2.742413778650734100, 2.094293635091739600 ) ) ;
#409 = CARTESIAN_POINT ( 'NONE',  ( 3.305114237282259300, -3.865294097298866700, 2.461540575954414200 ) ) ;
#410 = CARTESIAN_POINT ( 'NONE',  ( -2.499999999999991100, 4.330127018922199900, 2.500000000000000000 ) ) ;
#411 = CONICAL_SURFACE ( 'NONE', #820, 5.000000000000000900, 1.047197551196600100 ) ;
#412 = ORIENTED_EDGE ( 'NONE', *, *, #890, .F. ) ;
#413 = ORIENTED_EDGE ( 'NONE', *, *, #699, .F. ) ;
#414 = CARTESIAN_POINT ( 'NONE',  ( 0.04382521531349036600, -5.734867074362518300, 2.075725291386851400 ) ) ;
#415 = VERTEX_POINT ( 'NONE', #435 ) ;
#416 = CARTESIAN_POINT ( 'NONE',  ( -4.874999999999997300, 2.958920129596844400, 2.500000000000000000 ) ) ;
#417 = CARTESIAN_POINT ( 'NONE',  ( -0.9024808040858592900, 5.252455156718814200, 2.343552472763229800 ) ) ;
#418 = EDGE_CURVE ( 'NONE', #120, #540, #36, .T. ) ;
#419 = CARTESIAN_POINT ( 'NONE',  ( -4.874999999991264800, 2.958920129601885700, -2.094293635094527200 ) ) ;
#420 = CARTESIAN_POINT ( 'NONE',  ( 4.487193352973647200, -3.182820401651012900, 2.218623693880401600 ) ) ;
#421 = CARTESIAN_POINT ( 'NONE',  ( -4.944334498038244000, -2.905737115812388400, -2.075769044246359200 ) ) ;
#422 = COORDINATED_UNIVERSAL_TIME_OFFSET ( 6, 0, .BEHIND. ) ;
#423 = CARTESIAN_POINT ( 'NONE',  ( -0.1250000000000061900, -5.701333908247535800, 2.500000000000000000 ) ) ;
#424 = FACE_OUTER_BOUND ( 'NONE', #303, .T. ) ;
#425 = AXIS2_PLACEMENT_3D ( 'NONE', #102, #315, #542 ) ;
#426 = DIRECTION ( 'NONE',  ( -0.8660254037844398200, -0.4999999999999979500, 0.0000000000000000000 ) ) ;
#427 = EDGE_LOOP ( 'NONE', ( #266, #465, #141, #4, #703, #605 ) ) ;
#428 = EDGE_LOOP ( 'NONE', ( #526, #642, #966, #249 ) ) ;
#429 = CARTESIAN_POINT ( 'NONE',  ( 4.749999999999997300, 2.742413778650722100, 2.500000000000000000 ) ) ;
#430 = EDGE_LOOP ( 'NONE', ( #595, #339, #951, #629, #533, #885 ) ) ;
#431 = CARTESIAN_POINT ( 'NONE',  ( -4.999999999999997300, 2.785342966610965500, -2.082374514998934300 ) ) ;
#432 = CARTESIAN_POINT ( 'NONE',  ( -0.08780861830288730400, -5.722806362482009100, -2.082370150261569000 ) ) ;
#433 = CARTESIAN_POINT ( 'NONE',  ( 0.1249999999996032300, -5.701333908247760500, -2.094293635091615700 ) ) ;
#434 = DIRECTION ( 'NONE',  ( 0.0000000000000000000, 0.0000000000000000000, 1.000000000000000000 ) ) ;
#435 = CARTESIAN_POINT ( 'NONE',  ( 2.999999999999999100, 0.0000000000000000000, 2.500000000000000000 ) ) ;
#436 = ADVANCED_FACE ( 'NONE', ( #549 ), #950, .T. ) ;
#437 = DATE_AND_TIME ( #107, #835 ) ;
#438 = CIRCLE ( 'NONE', #712, 5.000000000000000900 ) ;
#439 = DATE_TIME_ROLE ( 'classification_date' ) ;
#440 = ORIENTED_EDGE ( 'NONE', *, *, #31, .T. ) ;
#441 = EDGE_CURVE ( 'NONE', #800, #859, #268, .T. ) ;
#442 = CARTESIAN_POINT ( 'NONE',  ( -5.000000000000006200, -0.4637686117031609200, 2.499999999999997300 ) ) ;
#443 = CARTESIAN_POINT ( 'NONE',  ( -4.999999999999997300, 2.742413778650735400, 2.094293635091727200 ) ) ;
#444 = ORIENTED_EDGE ( 'NONE', *, *, #273, .T. ) ;
#445 = CARTESIAN_POINT ( 'NONE',  ( -0.9038161757946795400, -5.251684179503246100, -2.320626431802350600 ) ) ;
#446 = CC_DESIGN_DATE_AND_TIME_ASSIGNMENT ( #267, #366, ( #406 ) ) ;
#447 = ORIENTED_EDGE ( 'NONE', *, *, #264, .T. ) ;
#448 = DIRECTION ( 'NONE',  ( 0.0000000000000000000, 0.0000000000000000000, -1.000000000000000000 ) ) ;
#449 = FACE_OUTER_BOUND ( 'NONE', #227, .T. ) ;
#450 = CARTESIAN_POINT ( 'NONE',  ( -2.500000000000004000, -4.330127018922192800, 2.500000000000000000 ) ) ;
#451 = CYLINDRICAL_SURFACE ( 'NONE', #846, 2.999999999999999100 ) ;
#452 = B_SPLINE_CURVE_WITH_KNOTS ( 'NONE', 3,
 ( #935, #635, #265, #785, #47, #718 ),
 .UNSPECIFIED., .F., .F.,
 ( 4, 2, 4 ),
 ( 0.002921158011986703800, 0.004301918286216057900, 0.005682678560445412300 ),
 .UNSPECIFIED. ) ;
#453 = VERTEX_POINT ( 'NONE', #145 ) ;
#454 = CARTESIAN_POINT ( 'NONE',  ( -4.874999999999613600, 2.958920129597065500, 2.094293635091849700 ) ) ;
#455 = ORIENTED_EDGE ( 'NONE', *, *, #355, .T. ) ;
#456 = AXIS2_PLACEMENT_3D ( 'NONE', #861, #336, #564 ) ;
#457 = CARTESIAN_POINT ( 'NONE',  ( 4.988453181381634000, -2.829479787393454100, 2.075725291386848700 ) ) ;
#458 = CARTESIAN_POINT ( 'NONE',  ( 2.999999999999999100, 0.0000000000000000000, -2.500000000000000000 ) ) ;
#459 = CARTESIAN_POINT ( 'NONE',  ( -1.691508437116427300, 4.796909840390565400, -2.500000000000002200 ) ) ;
#460 = AXIS2_PLACEMENT_3D ( 'NONE', #740, #601, #156 ) ;
#461 = DIRECTION ( 'NONE',  ( 0.0000000000000000000, 0.0000000000000000000, -1.000000000000000000 ) ) ;
#462 = EDGE_CURVE ( 'NONE', #153, #75, #307, .T. ) ;
#463 = VECTOR ( 'NONE', #275, 1000.000000000000000 ) ;
#464 = ORIENTED_EDGE ( 'NONE', *, *, #316, .T. ) ;
#465 = ORIENTED_EDGE ( 'NONE', *, *, #956, .T. ) ;
#466 = EDGE_LOOP ( 'NONE', ( #212, #171, #173, #664 ) ) ;
#467 = B_SPLINE_CURVE_WITH_KNOTS ( 'NONE', 3,
 ( #720, #205, #809, #445, #148, #891 ),
 .UNSPECIFIED., .F., .F.,
 ( 4, 2, 4 ),
 ( 0.002921158011986732000, 0.004301918286211127800, 0.005682678560435523500 ),
 .UNSPECIFIED. ) ;
#468 = DIRECTION ( 'NONE',  ( 1.000000000000000000, 0.0000000000000000000, 0.0000000000000000000 ) ) ;
#469 = EDGE_LOOP ( 'NONE', ( #334, #15, #314, #81 ) ) ;
#470 = B_SPLINE_CURVE_WITH_KNOTS ( 'NONE', 3,
 ( #327, #40, #552, #845, #927, #331 ),
 .UNSPECIFIED., .F., .F.,
 ( 4, 2, 4 ),
 ( 1.013066153947027000E-016, 0.0001318968453401077800, 0.0002637936906801142400 ),
 .UNSPECIFIED. ) ;
#471 = CARTESIAN_POINT ( 'NONE',  ( -4.875000000000025800, -2.958920129596796400, 2.094293635091727600 ) ) ;
#472 = EDGE_CURVE ( 'NONE', #751, #896, #389, .T. ) ;
#473 = VECTOR ( 'NONE', #765, 1000.000000000000000 ) ;
#474 = FACE_OUTER_BOUND ( 'NONE', #191, .T. ) ;
#475 = CARTESIAN_POINT ( 'NONE',  ( -5.000000000000000900, 1.201851678989730900E-014, 2.500000000000000000 ) ) ;
#476 = VERTEX_POINT ( 'NONE', #138 ) ;
#477 = ORIENTED_EDGE ( 'NONE', *, *, #766, .F. ) ;
#478 = B_SPLINE_CURVE_WITH_KNOTS ( 'NONE', 3,
 ( #222, #230, #301, #522 ),
 .UNSPECIFIED., .F., .F.,
 ( 4, 4 ),
 ( 0.0001489213604345988800, 0.002921158011986703800 ),
 .UNSPECIFIED. ) ;
#479 = CARTESIAN_POINT ( 'NONE',  ( -5.000000000000011500, -2.742413778650787400, -2.094293635091705900 ) ) ;
#480 = PRODUCT_DEFINITION_FORMATION_WITH_SPECIFIED_SOURCE ( 'ANY', '', #185, .NOT_KNOWN. ) ;
#481 = DIRECTION ( 'NONE',  ( 1.000000000000000000, 0.0000000000000000000, 0.0000000000000000000 ) ) ;
#482 = EDGE_LOOP ( 'NONE', ( #514, #550, #774, #87 ) ) ;
#483 = CARTESIAN_POINT ( 'NONE',  ( -4.875000000000025800, -2.958920129596796400, 2.094293635091727600 ) ) ;
#484 = DATE_AND_TIME ( #778, #724 ) ;
#485 = CARTESIAN_POINT ( 'NONE',  ( 2.902683166119373000, -4.097637784565026900, 2.500000000000011500 ) ) ;
#486 = CIRCLE ( 'NONE', #940, 5.000000000000000900 ) ;
#487 = CARTESIAN_POINT ( 'NONE',  ( 0.1250000000000096600, 5.701333908247555400, 2.500000000000000000 ) ) ;
#488 = ORIENTED_EDGE ( 'NONE', *, *, #506, .T. ) ;
#489 = CARTESIAN_POINT ( 'NONE',  ( -0.08782223266265035100, 5.722798502227639100, -2.082374514998828600 ) ) ;
#490 = EDGE_CURVE ( 'NONE', #853, #690, #467, .T. ) ;
#491 = APPROVAL_DATE_TIME ( #335, #702 ) ;
#492 = CARTESIAN_POINT ( 'NONE',  ( -2.500000000000004000, -4.330127018922192800, -2.500000000000000000 ) ) ;
#493 = DIRECTION ( 'NONE',  ( 0.0000000000000000000, 0.0000000000000000000, -1.000000000000000000 ) ) ;
#494 = APPLICATION_CONTEXT ( 'configuration controlled 3d designs of mechanical parts and assemblies' ) ;
#495 = CARTESIAN_POINT ( 'NONE',  ( -0.1250000000087377900, -5.701333908242493600, -2.094293635094540500 ) ) ;
#496 = PERSON_AND_ORGANIZATION ( #934, #892 ) ;
#497 = CARTESIAN_POINT ( 'NONE',  ( 0.9024808040858576200, -5.252455156718796500, 2.343552472763240000 ) ) ;
#498 = ADVANCED_FACE ( 'NONE', ( #748 ), #661, .F. ) ;
#499 = LINE ( 'NONE', #241, #169 ) ;
#500 = CARTESIAN_POINT ( 'NONE',  ( -2.902683166119385000, 4.097637784565038500, 2.500000000000002200 ) ) ;
#501 = ORIENTED_EDGE ( 'NONE', *, *, #909, .T. ) ;
#502 = EDGE_CURVE ( 'NONE', #383, #476, #478, .T. ) ;
#503 = CARTESIAN_POINT ( 'NONE',  ( -5.000000000000011500, -2.742413778650787400, -2.094293635091705900 ) ) ;
#504 = DIRECTION ( 'NONE',  ( 1.000000000000000000, 0.0000000000000000000, 0.0000000000000000000 ) ) ;
#505 = DIRECTION ( 'NONE',  ( 0.0000000000000000000, 0.0000000000000000000, 1.000000000000000000 ) ) ;
#506 = EDGE_CURVE ( 'NONE', #175, #922, #919, .T. ) ;
#507 = DIRECTION ( 'NONE',  ( -0.0000000000000000000, -0.0000000000000000000, 1.000000000000000000 ) ) ;
#508 = DIRECTION ( 'NONE',  ( 1.000000000000000000, 0.0000000000000000000, 0.0000000000000000000 ) ) ;
#509 = DIRECTION ( 'NONE',  ( -0.0000000000000000000, -0.0000000000000000000, 1.000000000000000000 ) ) ;
#510 = CONICAL_SURFACE ( 'NONE', #134, 5.000000000000000900, 1.047197551196600100 ) ;
#511 = CC_DESIGN_SECURITY_CLASSIFICATION ( #532, ( #480 ) ) ;
#512 = CARTESIAN_POINT ( 'NONE',  ( -4.875000000000400600, -2.958920129596580100, -2.094293635091606800 ) ) ;
#513 = EDGE_LOOP ( 'NONE', ( #381, #38, #581, #680, #78, #260 ) ) ;
#514 = ORIENTED_EDGE ( 'NONE', *, *, #546, .F. ) ;
#515 = ORIENTED_EDGE ( 'NONE', *, *, #306, .F. ) ;
#516 = PERSON_AND_ORGANIZATION_ROLE ( 'classification_officer' ) ;
#517 = CARTESIAN_POINT ( 'NONE',  ( 4.999999999999984000, -2.742413778650815800, -2.094293635091712100 ) ) ;
#518 = CARTESIAN_POINT ( 'NONE',  ( 4.875000000000012400, 2.958920129596822600, 2.094293635091726700 ) ) ;
#519 = ORIENTED_EDGE ( 'NONE', *, *, #803, .F. ) ;
#520 = SECURITY_CLASSIFICATION_LEVEL ( 'unclassified' ) ;
#521 =( GEOMETRIC_REPRESENTATION_CONTEXT ( 3 ) GLOBAL_UNCERTAINTY_ASSIGNED_CONTEXT ( ( #21 ) ) GLOBAL_UNIT_ASSIGNED_CONTEXT ( ( #56, #137, #575 ) ) REPRESENTATION_CONTEXT ( 'NONE', 'WORKASPACE' ) );
#522 = CARTESIAN_POINT ( 'NONE',  ( 2.500000000000006700, 4.330127018922191000, -2.500000000000000000 ) ) ;
#523 = CARTESIAN_POINT ( 'NONE',  ( -5.000000000000001800, 0.9335570432874895600, -2.461162168316521500 ) ) ;
#524 = CARTESIAN_POINT ( 'NONE',  ( 4.999999999999997300, 2.742413778650720300, 2.094293635091732100 ) ) ;
#525 = FACE_OUTER_BOUND ( 'NONE', #708, .T. ) ;
#526 = ORIENTED_EDGE ( 'NONE', *, *, #264, .F. ) ;
#527 = EDGE_CURVE ( 'NONE', #540, #120, #73, .T. ) ;
#528 = CARTESIAN_POINT ( 'NONE',  ( -4.999999999999997300, 2.886751345948141500, 2.500000000000000000 ) ) ;
#529 = CARTESIAN_POINT ( 'NONE',  ( -1.694885762717721600, -4.794959940545500600, 2.461540575954414200 ) ) ;
#530 = CARTESIAN_POINT ( 'NONE',  ( -0.9024808040856058300, 5.252455156718960800, -2.343552472763179100 ) ) ;
#531 = CARTESIAN_POINT ( 'NONE',  ( 4.999999999999990200, -1.201851678989724900E-014, 2.500000000000000000 ) ) ;
#532 = SECURITY_CLASSIFICATION ( '', '', #520 ) ;
#533 = ORIENTED_EDGE ( 'NONE', *, *, #372, .T. ) ;
#534 = PLANE ( 'NONE',  #829 ) ;
#535 = PLANE ( 'NONE',  #101 ) ;
#536 = EDGE_LOOP ( 'NONE', ( #356, #907, #560, #727 ) ) ;
#537 = DIRECTION ( 'NONE',  ( -0.0000000000000000000, -0.0000000000000000000, 1.000000000000000000 ) ) ;
#538 = CARTESIAN_POINT ( 'NONE',  ( 2.500000000000006700, 4.330127018922191000, -2.500000000000000000 ) ) ;
#539 = VECTOR ( 'NONE', #547, 1000.000000000000000 ) ;
#540 = VERTEX_POINT ( 'NONE', #967 ) ;
#541 = ORIENTED_EDGE ( 'NONE', *, *, #502, .F. ) ;
#542 = DIRECTION ( 'NONE',  ( -1.000000000000000000, 0.0000000000000000000, 0.0000000000000000000 ) ) ;
#543 = ORIENTED_EDGE ( 'NONE', *, *, #909, .F. ) ;
#544 = B_SPLINE_CURVE_WITH_KNOTS ( 'NONE', 3,
 ( #756, #743, #228, #741, #3, #524 ),
 .UNSPECIFIED., .F., .F.,
 ( 4, 2, 4 ),
 ( 0.008363737192522044700, 0.009751280766415470300, 0.01113882434030889800 ),
 .UNSPECIFIED. ) ;
#545 = CARTESIAN_POINT ( 'NONE',  ( 0.0000000000000000000, 0.0000000000000000000, 2.500000000000000000 ) ) ;
#546 = EDGE_CURVE ( 'NONE', #229, #689, #746, .T. ) ;
#547 = DIRECTION ( 'NONE',  ( -0.0000000000000000000, -0.0000000000000000000, 1.000000000000000000 ) ) ;
#548 = DIRECTION ( 'NONE',  ( 0.0000000000000000000, 0.0000000000000000000, -1.000000000000000000 ) ) ;
#549 = FACE_OUTER_BOUND ( 'NONE', #180, .T. ) ;
#550 = ORIENTED_EDGE ( 'NONE', *, *, #911, .T. ) ;
#551 = B_SPLINE_CURVE_WITH_KNOTS ( 'NONE', 3,
 ( #471, #559, #773, #170 ),
 .UNSPECIFIED., .F., .F.,
 ( 4, 4 ),
 ( 0.0001489213604350441400, 0.002921158011986732000 ),
 .UNSPECIFIED. ) ;
#552 = CARTESIAN_POINT ( 'NONE',  ( 0.04427490999448525200, 5.734787838015003900, 2.075769044246407600 ) ) ;
#553 = DIRECTION ( 'NONE',  ( -0.0000000000000000000, -0.0000000000000000000, 1.000000000000000000 ) ) ;
#554 = CARTESIAN_POINT ( 'NONE',  ( 0.0000000000000000000, 0.0000000000000000000, -2.500000000000000000 ) ) ;
#555 = VERTEX_POINT ( 'NONE', #304 ) ;
#556 = CARTESIAN_POINT ( 'NONE',  ( -4.999999999999999100, 1.848661140046615100, 2.319546572517207700 ) ) ;
#557 = EDGE_CURVE ( 'NONE', #859, #199, #438, .T. ) ;
#558 = CIRCLE ( 'NONE', #211, 5.000000000000000900 ) ;
#559 = CARTESIAN_POINT ( 'NONE',  ( -4.097519195914138400, -3.407798881125550800, 2.343552472763236900 ) ) ;
#560 = ORIENTED_EDGE ( 'NONE', *, *, #31, .F. ) ;
#561 = ORIENTED_EDGE ( 'NONE', *, *, #506, .F. ) ;
#562 = CARTESIAN_POINT ( 'NONE',  ( -2.499999999999991100, 4.330127018922199900, 2.500000000000000000 ) ) ;
#563 = CC_DESIGN_PERSON_AND_ORGANIZATION_ASSIGNMENT ( #856, #147, ( #406 ) ) ;
#564 = DIRECTION ( 'NONE',  ( 1.000000000000000000, 0.0000000000000000000, 0.0000000000000000000 ) ) ;
#565 = CARTESIAN_POINT ( 'NONE',  ( -0.04427490999448285100, -5.734787838014982600, 2.075769044246419200 ) ) ;
#566 = CIRCLE ( 'NONE', #928, 5.000000000000000900 ) ;
#567 = ORIENTED_EDGE ( 'NONE', *, *, #855, .T. ) ;
#568 = CARTESIAN_POINT ( 'NONE',  ( 4.874999999999598500, -2.958920129597055700, 2.094293635091861300 ) ) ;
#569 = VECTOR ( 'NONE', #553, 1000.000000000000000 ) ;
#570 = DIRECTION ( 'NONE',  ( 1.000000000000000000, 0.0000000000000000000, 0.0000000000000000000 ) ) ;
#571 = EDGE_LOOP ( 'NONE', ( #541, #165, #413, #376 ) ) ;
#572 = ADVANCED_FACE ( 'NONE', ( #190 ), #46, .T. ) ;
#573 = DIRECTION ( 'NONE',  ( 0.0000000000000000000, 0.0000000000000000000, 1.000000000000000000 ) ) ;
#574 = EDGE_CURVE ( 'NONE', #407, #853, #558, .T. ) ;
#575 =( NAMED_UNIT ( * ) SI_UNIT ( $, .STERADIAN. ) SOLID_ANGLE_UNIT ( ) );
#576 = CARTESIAN_POINT ( 'NONE',  ( -4.988453181381752100, -2.829479787393086400, -2.075725291386894000 ) ) ;
#577 = ADVANCED_FACE ( 'NONE', ( #964 ), #894, .T. ) ;
#578 = CARTESIAN_POINT ( 'NONE',  ( 1.691508437116421700, -4.796909840390550400, -2.500000000000011500 ) ) ;
#579 = CIRCLE ( 'NONE', #52, 2.999999999999999100 ) ;
#580 = ORIENTED_EDGE ( 'NONE', *, *, #900, .F. ) ;
#581 = ORIENTED_EDGE ( 'NONE', *, *, #502, .T. ) ;
#582 = DIRECTION ( 'NONE',  ( 0.0000000000000000000, 0.0000000000000000000, 1.000000000000000000 ) ) ;
#583 = CARTESIAN_POINT ( 'NONE',  ( 4.912191381696274600, 2.937447675362947500, 2.082370150261889700 ) ) ;
#584 = DIRECTION ( 'NONE',  ( 1.000000000000000000, 0.0000000000000000000, 0.0000000000000000000 ) ) ;
#585 = ADVANCED_FACE ( 'NONE', ( #811 ), #534, .F. ) ;
#586 = PLANE ( 'NONE',  #401 ) ;
#587 = ORIENTED_EDGE ( 'NONE', *, *, #591, .T. ) ;
#588 = APPROVAL_ROLE ( '' ) ;
#589 = CARTESIAN_POINT ( 'NONE',  ( 0.0000000000000000000, 0.0000000000000000000, -2.500000000000000000 ) ) ;
#590 = LINE ( 'NONE', #404, #473 ) ;
#591 = EDGE_CURVE ( 'NONE', #153, #281, #827, .T. ) ;
#592 = CARTESIAN_POINT ( 'NONE',  ( 4.999999999999984000, -2.294323821397100000, -2.218704048301244600 ) ) ;
#593 = CONICAL_SURFACE ( 'NONE', #456, 5.000000000000000900, 1.047197551196600100 ) ;
#594 = CARTESIAN_POINT ( 'NONE',  ( -4.999999999999997300, 2.742413778650735400, 2.094293635091727200 ) ) ;
#595 = ORIENTED_EDGE ( 'NONE', *, *, #855, .F. ) ;
#596 = CARTESIAN_POINT ( 'NONE',  ( -4.999999999999998200, 2.298266298013523100, -2.217609435183979900 ) ) ;
#597 = B_SPLINE_CURVE_WITH_KNOTS ( 'NONE', 3,
 ( #787, #348, #870, #357, #954, #419 ),
 .UNSPECIFIED., .F., .F.,
 ( 4, 2, 4 ),
 ( 0.002921158011986711200, 0.004301918286211113900, 0.005682678560435515700 ),
 .UNSPECIFIED. ) ;
#598 = AXIS2_PLACEMENT_3D ( 'NONE', #53, #655, #353 ) ;
#599 = CARTESIAN_POINT ( 'NONE',  ( 0.0000000000000000000, 0.0000000000000000000, -2.500000000000000000 ) ) ;
#600 = CARTESIAN_POINT ( 'NONE',  ( 4.874999999991249700, -2.958920129601875400, -2.094293635094537400 ) ) ;
#601 = DIRECTION ( 'NONE',  ( 0.0000000000000000000, 0.0000000000000000000, 1.000000000000000000 ) ) ;
#602 = EDGE_CURVE ( 'NONE', #800, #772, #694, .T. ) ;
#603 = B_SPLINE_CURVE_WITH_KNOTS ( 'NONE', 3,
 ( #408, #42, #124, #54, #777, #939 ),
 .UNSPECIFIED., .F., .F.,
 ( 4, 2, 4 ),
 ( 0.005589846520475599100, 0.006976791856498821900, 0.008363737192522044700 ),
 .UNSPECIFIED. ) ;
#604 = CIRCLE ( 'NONE', #841, 2.999999999999999100 ) ;
#605 = ORIENTED_EDGE ( 'NONE', *, *, #187, .T. ) ;
#606 = EDGE_CURVE ( 'NONE', #476, #39, #256, .T. ) ;
#607 = CARTESIAN_POINT ( 'NONE',  ( 4.999999999999988500, -0.4637686117237954700, -2.500000000000006200 ) ) ;
#608 = EDGE_LOOP ( 'NONE', ( #100, #340 ) ) ;
#609 = DIRECTION ( 'NONE',  ( 1.000000000000000000, 0.0000000000000000000, 0.0000000000000000000 ) ) ;
#610 = CARTESIAN_POINT ( 'NONE',  ( 4.944334498038253800, 2.905737115812391000, -2.075769044246353400 ) ) ;
#611 = CC_DESIGN_APPROVAL ( #702, ( #532 ) ) ;
#612 = CARTESIAN_POINT ( 'NONE',  ( 4.999999999999984000, -2.886751345948131300, 2.500000000000000000 ) ) ;
#613 = CARTESIAN_POINT ( 'NONE',  ( 4.999999999999997300, 2.742413778650720300, -2.094293635091732100 ) ) ;
#614 = FACE_OUTER_BOUND ( 'NONE', #181, .T. ) ;
#615 = CARTESIAN_POINT ( 'NONE',  ( 2.499999999999990700, -4.330127018922199900, -2.500000000000000000 ) ) ;
#616 = B_SPLINE_CURVE_WITH_KNOTS ( 'NONE', 3,
 ( #930, #417, #269, #562 ),
 .UNSPECIFIED., .F., .F.,
 ( 4, 4 ),
 ( 0.0001489213604350446000, 0.002921158011986711200 ),
 .UNSPECIFIED. ) ;
#617 = FACE_OUTER_BOUND ( 'NONE', #513, .T. ) ;
#618 = ORIENTED_EDGE ( 'NONE', *, *, #816, .T. ) ;
#619 = CARTESIAN_POINT ( 'NONE',  ( 0.1250000000003930200, 5.701333908247334200, 2.094293635091852000 ) ) ;
#620 = VERTEX_POINT ( 'NONE', #887 ) ;
#621 = CARTESIAN_POINT ( 'NONE',  ( -4.999999999999998200, 2.298266298013523100, 2.217609435183979900 ) ) ;
#622 = EDGE_CURVE ( 'NONE', #710, #751, #499, .T. ) ;
#623 = CARTESIAN_POINT ( 'NONE',  ( -5.000000000000000900, 1.201851678989730900E-014, -2.500000000000000000 ) ) ;
#624 = DATE_AND_TIME ( #35, #232 ) ;
#625 = FACE_BOUND ( 'NONE', #916, .T. ) ;
#626 = EDGE_CURVE ( 'NONE', #13, #28, #757, .T. ) ;
#627 = ORIENTED_EDGE ( 'NONE', *, *, #557, .F. ) ;
#628 = DIRECTION ( 'NONE',  ( 1.000000000000000000, 0.0000000000000000000, 0.0000000000000000000 ) ) ;
#629 = ORIENTED_EDGE ( 'NONE', *, *, #890, .T. ) ;
#630 = PRODUCT_DEFINITION_SHAPE ( 'NONE', 'NONE',  #406 ) ;
#631 = CARTESIAN_POINT ( 'NONE',  ( 0.0000000000000000000, 0.0000000000000000000, -2.500000000000000000 ) ) ;
#632 = ORIENTED_EDGE ( 'NONE', *, *, #237, .F. ) ;
#633 = DIRECTION ( 'NONE',  ( 0.0000000000000000000, 0.0000000000000000000, 1.000000000000000000 ) ) ;
#634 = CARTESIAN_POINT ( 'NONE',  ( -4.988609408032113300, -2.829050722202400600, 2.075769044246377400 ) ) ;
#635 = CARTESIAN_POINT ( 'NONE',  ( 2.097316833880615000, 4.562616253279352400, 2.500000000000002200 ) ) ;
#636 = FACE_OUTER_BOUND ( 'NONE', #776, .T. ) ;
#637 = CLOSED_SHELL ( 'NONE', ( #959, #844, #641, #498, #585, #209, #400, #55, #109, #351, #274, #572, #184, #436, #658, #647, #215, #936, #577, #288, #863, #638, #932, #45, #784, #323, #921, #730 ) ) ;
#638 = ADVANCED_FACE ( 'NONE', ( #739 ), #760, .T. ) ;
#639 = CARTESIAN_POINT ( 'NONE',  ( 0.1250000000087416500, 5.701333908242514100, -2.094293635094528500 ) ) ;
#640 = ORIENTED_EDGE ( 'NONE', *, *, #43, .T. ) ;
#641 = ADVANCED_FACE ( 'NONE', ( #617 ), #250, .F. ) ;
#642 = ORIENTED_EDGE ( 'NONE', *, *, #372, .F. ) ;
#643 = CARTESIAN_POINT ( 'NONE',  ( -4.874999999991264800, 2.958920129601885700, -2.094293635094527200 ) ) ;
#644 = CARTESIAN_POINT ( 'NONE',  ( -4.097519195914391500, -3.407798881125405200, -2.343552472763186200 ) ) ;
#645 = CARTESIAN_POINT ( 'NONE',  ( 4.874999999999982200, -2.958920129596834100, 2.500000000000000000 ) ) ;
#646 = FACE_BOUND ( 'NONE', #608, .T. ) ;
#647 = ADVANCED_FACE ( 'NONE', ( #474 ), #941, .T. ) ;
#648 = CARTESIAN_POINT ( 'NONE',  ( 0.0000000000000000000, 0.0000000000000000000, -2.500000000000000000 ) ) ;
#649 = LINE ( 'NONE', #645, #204 ) ;
#650 = CARTESIAN_POINT ( 'NONE',  ( -5.000000000000011500, -2.742413778650695000, 2.500000000000000000 ) ) ;
#651 = ORIENTED_EDGE ( 'NONE', *, *, #316, .F. ) ;
#652 = EDGE_LOOP ( 'NONE', ( #515, #580, #244, #561 ) ) ;
#653 = DIRECTION ( 'NONE',  ( 0.0000000000000000000, 0.0000000000000000000, 1.000000000000000000 ) ) ;
#654 = EDGE_CURVE ( 'NONE', #849, #221, #839, .T. ) ;
#655 = DIRECTION ( 'NONE',  ( 0.0000000000000000000, 0.0000000000000000000, -1.000000000000000000 ) ) ;
#656 = CARTESIAN_POINT ( 'NONE',  ( 0.0000000000000000000, 0.0000000000000000000, 2.500000000000000000 ) ) ;
#657 = EDGE_LOOP ( 'NONE', ( #286, #632, #326, #926 ) ) ;
#658 = ADVANCED_FACE ( 'NONE', ( #248 ), #675, .T. ) ;
#659 = DIRECTION ( 'NONE',  ( 1.000000000000000000, 0.0000000000000000000, 0.0000000000000000000 ) ) ;
#660 = PRODUCT_RELATED_PRODUCT_CATEGORY ( 'detail', '', ( #185 ) ) ;
#661 = PLANE ( 'NONE',  #722 ) ;
#662 = DIRECTION ( 'NONE',  ( 0.5000000000000006700, 0.8660254037844382600, -0.0000000000000000000 ) ) ;
#663 = COORDINATED_UNIVERSAL_TIME_OFFSET ( 6, 0, .BEHIND. ) ;
#664 = ORIENTED_EDGE ( 'NONE', *, *, #391, .T. ) ;
#665 = APPROVAL_ROLE ( '' ) ;
#666 = ORIENTED_EDGE ( 'NONE', *, *, #816, .F. ) ;
#667 = DIRECTION ( 'NONE',  ( 0.0000000000000000000, 0.0000000000000000000, -1.000000000000000000 ) ) ;
#668 = AXIS2_PLACEMENT_3D ( 'NONE', #599, #8, #369 ) ;
#669 = CARTESIAN_POINT ( 'NONE',  ( -2.499999999999991100, 4.330127018922199900, -2.500000000000000000 ) ) ;
#670 = DIRECTION ( 'NONE',  ( 0.8660254037844397100, 0.4999999999999979500, 0.0000000000000000000 ) ) ;
#671 = CARTESIAN_POINT ( 'NONE',  ( 0.1249999999996032300, -5.701333908247760500, -2.094293635091615700 ) ) ;
#672 = DIRECTION ( 'NONE',  ( 0.0000000000000000000, 0.0000000000000000000, 1.000000000000000000 ) ) ;
#673 = PERSON_AND_ORGANIZATION ( #934, #892 ) ;
#674 = CARTESIAN_POINT ( 'NONE',  ( 0.0000000000000000000, 0.0000000000000000000, 2.500000000000000000 ) ) ;
#675 = CONICAL_SURFACE ( 'NONE', #813, 5.000000000000000900, 1.047197551196600100 ) ;
#676 = EDGE_LOOP ( 'NONE', ( #126, #931, #464, #177 ) ) ;
#677 = DIRECTION ( 'NONE',  ( 0.4999999999999980000, -0.8660254037844398200, 0.0000000000000000000 ) ) ;
#678 = AXIS2_PLACEMENT_3D ( 'NONE', #589, #729, #876 ) ;
#679 = DIRECTION ( 'NONE',  ( -0.0000000000000000000, -0.0000000000000000000, -1.000000000000000000 ) ) ;
#680 = ORIENTED_EDGE ( 'NONE', *, *, #606, .T. ) ;
#681 = CARTESIAN_POINT ( 'NONE',  ( -0.1250000000087377900, -5.701333908242493600, -2.094293635094540500 ) ) ;
#682 = ORIENTED_EDGE ( 'NONE', *, *, #626, .T. ) ;
#683 = DIRECTION ( 'NONE',  ( -0.0000000000000000000, -0.0000000000000000000, -1.000000000000000000 ) ) ;
#684 = CARTESIAN_POINT ( 'NONE',  ( 0.9038161757946855400, 5.251684179503262900, -2.320626431802339500 ) ) ;
#685 = B_SPLINE_CURVE_WITH_KNOTS ( 'NONE', 3,
 ( #732, #223, #738, #888, #287, #443 ),
 .UNSPECIFIED., .F., .F.,
 ( 4, 2, 4 ),
 ( 1.016748126079980800E-016, 0.0001318968453401162400, 0.0002637936906801308300 ),
 .UNSPECIFIED. ) ;
#686 = CARTESIAN_POINT ( 'NONE',  ( 0.0000000000000000000, 0.0000000000000000000, 2.500000000000000000 ) ) ;
#687 = COORDINATED_UNIVERSAL_TIME_OFFSET ( 6, 0, .BEHIND. ) ;
#688 = ORIENTED_EDGE ( 'NONE', *, *, #766, .T. ) ;
#689 = VERTEX_POINT ( 'NONE', #157 ) ;
#690 = VERTEX_POINT ( 'NONE', #681 ) ;
#691 = CARTESIAN_POINT ( 'NONE',  ( 4.988453181381763600, 2.829479787393051700, -2.075725291386897100 ) ) ;
#692 = CARTESIAN_POINT ( 'NONE',  ( 2.902683166117928400, -4.097637784565861800, -2.500000000000011500 ) ) ;
#693 = ORIENTED_EDGE ( 'NONE', *, *, #606, .F. ) ;
#694 = B_SPLINE_CURVE_WITH_KNOTS ( 'NONE', 3,
 ( #450, #962, #529, #386, #94, #830 ),
 .UNSPECIFIED., .F., .F.,
 ( 4, 2, 4 ),
 ( 0.002921158011986732000, 0.004301918286216082100, 0.005682678560445431400 ),
 .UNSPECIFIED. ) ;
#695 = CARTESIAN_POINT ( 'NONE',  ( 4.944334498037778600, -2.905737115812986500, 2.075769044246416500 ) ) ;
#696 = AXIS2_PLACEMENT_3D ( 'NONE', #305, #851, #77 ) ;
#697 = CARTESIAN_POINT ( 'NONE',  ( 0.0000000000000000000, 0.0000000000000000000, 2.500000000000000000 ) ) ;
#698 = CARTESIAN_POINT ( 'NONE',  ( -0.1249999999999755800, 5.701333908247564300, 2.094293635091724100 ) ) ;
#699 = EDGE_CURVE ( 'NONE', #281, #812, #103, .T. ) ;
#700 = CALENDAR_DATE ( 2023, 31, 1 ) ;
#701 = LINE ( 'NONE', #458, #220 ) ;
#702 = APPROVAL ( #960, 'UNSPECIFIED' ) ;
#703 = ORIENTED_EDGE ( 'NONE', *, *, #866, .T. ) ;
#704 = PLANE ( 'NONE',  #878 ) ;
#705 = AXIS2_PLACEMENT_3D ( 'NONE', #350, #709, #857 ) ;
#706 = DIRECTION ( 'NONE',  ( -1.000000000000000000, 0.0000000000000000000, 0.0000000000000000000 ) ) ;
#707 = PERSON_AND_ORGANIZATION ( #934, #892 ) ;
#708 = EDGE_LOOP ( 'NONE', ( #360, #388, #412, #519 ) ) ;
#709 = DIRECTION ( 'NONE',  ( 0.0000000000000000000, 0.0000000000000000000, 1.000000000000000000 ) ) ;
#710 = VERTEX_POINT ( 'NONE', #91 ) ;
#711 = DIRECTION ( 'NONE',  ( -0.0000000000000000000, -0.0000000000000000000, 1.000000000000000000 ) ) ;
#712 = AXIS2_PLACEMENT_3D ( 'NONE', #674, #672, #76 ) ;
#713 = CARTESIAN_POINT ( 'NONE',  ( 0.1249999999999782100, -5.701333908247543800, 2.094293635091736000 ) ) ;
#714 = CARTESIAN_POINT ( 'NONE',  ( -4.944627966067992400, -2.905387286969232100, 2.075725291386875300 ) ) ;
#715 = FACE_OUTER_BOUND ( 'NONE', #726, .T. ) ;
#716 = FACE_OUTER_BOUND ( 'NONE', #763, .T. ) ;
#717 = CARTESIAN_POINT ( 'NONE',  ( -3.308491562883566100, -3.863344197453806300, -2.500000000000012900 ) ) ;
#718 = CARTESIAN_POINT ( 'NONE',  ( 0.1250000000003930200, 5.701333908247334200, 2.094293635091852000 ) ) ;
#719 = EDGE_CURVE ( 'NONE', #298, #13, #297, .T. ) ;
#720 = CARTESIAN_POINT ( 'NONE',  ( -2.500000000000004000, -4.330127018922192800, -2.500000000000000000 ) ) ;
#721 = CARTESIAN_POINT ( 'NONE',  ( 0.0000000000000000000, 0.0000000000000000000, -2.500000000000000000 ) ) ;
#722 = AXIS2_PLACEMENT_3D ( 'NONE', #89, #677, #670 ) ;
#723 = CARTESIAN_POINT ( 'NONE',  ( -4.988609408031210000, 2.829050722205810300, -2.075769044245867600 ) ) ;
#724 = LOCAL_TIME ( 12, 38, 24.00000000000000000, #687 ) ;
#725 = CARTESIAN_POINT ( 'NONE',  ( 4.944627966063660700, -2.905387286974884000, -2.075725291387385200 ) ) ;
#726 = EDGE_LOOP ( 'NONE', ( #477, #85, #371, #163 ) ) ;
#727 = ORIENTED_EDGE ( 'NONE', *, *, #956, .F. ) ;
#728 = MECHANICAL_CONTEXT ( 'NONE', #280, 'mechanical' ) ;
#729 = DIRECTION ( 'NONE',  ( 0.0000000000000000000, 0.0000000000000000000, 1.000000000000000000 ) ) ;
#730 = ADVANCED_FACE ( 'NONE', ( #325 ), #108, .T. ) ;
#731 = CARTESIAN_POINT ( 'NONE',  ( 4.912191381697248000, -2.937447675362492300, -2.082370150261548100 ) ) ;
#732 = CARTESIAN_POINT ( 'NONE',  ( -4.874999999999613600, 2.958920129597065500, 2.094293635091849700 ) ) ;
#733 = CARTESIAN_POINT ( 'NONE',  ( -5.000000000000011500, -2.886751345948101600, 2.500000000000000000 ) ) ;
#734 = ORIENTED_EDGE ( 'NONE', *, *, #79, .F. ) ;
#735 = EDGE_CURVE ( 'NONE', #383, #812, #168, .T. ) ;
#736 = CARTESIAN_POINT ( 'NONE',  ( -4.999999999999997300, 2.742413778650732300, -2.094293635091728100 ) ) ;
#737 = DIRECTION ( 'NONE',  ( 1.000000000000000000, 0.0000000000000000000, 0.0000000000000000000 ) ) ;
#738 = CARTESIAN_POINT ( 'NONE',  ( -4.944334498037796300, 2.905737115812995900, 2.075769044246405400 ) ) ;
#739 = FACE_OUTER_BOUND ( 'NONE', #536, .T. ) ;
#740 = CARTESIAN_POINT ( 'NONE',  ( 0.0000000000000000000, 0.0000000000000000000, -2.500000000000000000 ) ) ;
#741 = CARTESIAN_POINT ( 'NONE',  ( 4.999999999999992900, 1.848661140044566100, 2.319546572516465700 ) ) ;
#742 = APPROVAL ( #70, 'UNSPECIFIED' ) ;
#743 = CARTESIAN_POINT ( 'NONE',  ( 4.999999999999992000, 0.4639686512922514000, 2.500000000000006200 ) ) ;
#744 = EDGE_CURVE ( 'NONE', #281, #476, #780, .T. ) ;
#745 = CARTESIAN_POINT ( 'NONE',  ( 4.999999999999984000, -2.742413778650815800, -2.094293635091712100 ) ) ;
#746 = B_SPLINE_CURVE_WITH_KNOTS ( 'NONE', 3,
 ( #58, #596, #295, #523, #151, #86 ),
 .UNSPECIFIED., .F., .F.,
 ( 4, 2, 4 ),
 ( 0.01594668675114453700, 0.01733316058920762700, 0.01871963442727071400 ),
 .UNSPECIFIED. ) ;
#747 = DIRECTION ( 'NONE',  ( 1.000000000000000000, 0.0000000000000000000, 0.0000000000000000000 ) ) ;
#748 = FACE_OUTER_BOUND ( 'NONE', #183, .T. ) ;
#749 = ORIENTED_EDGE ( 'NONE', *, *, #226, .F. ) ;
#750 = DIRECTION ( 'NONE',  ( 1.000000000000000000, 8.881784197001252300E-016, 0.0000000000000000000 ) ) ;
#751 = VERTEX_POINT ( 'NONE', #390 ) ;
#752 = DIRECTION ( 'NONE',  ( 0.0000000000000000000, 0.0000000000000000000, -1.000000000000000000 ) ) ;
#753 = CARTESIAN_POINT ( 'NONE',  ( 0.0000000000000000000, 0.0000000000000000000, 2.500000000000000000 ) ) ;
#754 = DIRECTION ( 'NONE',  ( 0.8660254037844380400, -0.5000000000000012200, 0.0000000000000000000 ) ) ;
#755 = CARTESIAN_POINT ( 'NONE',  ( 4.874999999999598500, -2.958920129597055700, 2.094293635091861300 ) ) ;
#756 = CARTESIAN_POINT ( 'NONE',  ( 4.999999999999990200, -1.201851678989724900E-014, 2.500000000000000000 ) ) ;
#757 = B_SPLINE_CURVE_WITH_KNOTS ( 'NONE', 3,
 ( #821, #442, #833, #96, #903, #302 ),
 .UNSPECIFIED., .F., .F.,
 ( 4, 2, 4 ),
 ( 0.01871963442727071400, 0.02010551048878756600, 0.02149138655030442100 ),
 .UNSPECIFIED. ) ;
#758 = CARTESIAN_POINT ( 'NONE',  ( 4.875000000000387200, 2.958920129596606300, -2.094293635091605900 ) ) ;
#759 = AXIS2_PLACEMENT_3D ( 'NONE', #387, #25, #747 ) ;
#760 = CONICAL_SURFACE ( 'NONE', #282, 5.000000000000000900, 1.047197551196600100 ) ;
#761 = AXIS2_PLACEMENT_3D ( 'NONE', #283, #505, #584 ) ;
#762 = ORIENTED_EDGE ( 'NONE', *, *, #790, .T. ) ;
#763 = EDGE_LOOP ( 'NONE', ( #93, #279, #587, #317, #501, #110 ) ) ;
#764 = B_SPLINE_CURVE_WITH_KNOTS ( 'NONE', 3,
 ( #925, #621, #556, #329, #262, #475 ),
 .UNSPECIFIED., .F., .F.,
 ( 4, 2, 4 ),
 ( 0.01594668675114453700, 0.01733316058920762700, 0.01871963442727071400 ),
 .UNSPECIFIED. ) ;
#765 = DIRECTION ( 'NONE',  ( 0.0000000000000000000, 0.0000000000000000000, -1.000000000000000000 ) ) ;
#766 = EDGE_CURVE ( 'NONE', #397, #453, #251, .T. ) ;
#767 = EDGE_LOOP ( 'NONE', ( #782, #24, #270, #333 ) ) ;
#768 = CARTESIAN_POINT ( 'NONE',  ( 4.999999999999997300, 2.742413778650720300, -2.094293635091732100 ) ) ;
#769 = FACE_OUTER_BOUND ( 'NONE', #929, .T. ) ;
#770 = CARTESIAN_POINT ( 'NONE',  ( 4.874999999999997300, 2.958920129596831500, 2.500000000000000000 ) ) ;
#771 = ORIENTED_EDGE ( 'NONE', *, *, #391, .F. ) ;
#772 = VERTEX_POINT ( 'NONE', #902 ) ;
#773 = CARTESIAN_POINT ( 'NONE',  ( -3.308491562883436400, -3.863344197453881400, 2.500000000000012900 ) ) ;
#774 = ORIENTED_EDGE ( 'NONE', *, *, #945, .F. ) ;
#775 = ORIENTED_EDGE ( 'NONE', *, *, #259, .F. ) ;
#776 = EDGE_LOOP ( 'NONE', ( #122, #455, #640, #403, #405, #347 ) ) ;
#777 = CARTESIAN_POINT ( 'NONE',  ( 4.999999999999988500, -0.4637686117237810900, 2.500000000000006700 ) ) ;
#778 = CALENDAR_DATE ( 2023, 31, 1 ) ;
#779 = CARTESIAN_POINT ( 'NONE',  ( -5.000000000000011500, -2.742413778650707500, 2.094293635091733400 ) ) ;
#780 = CIRCLE ( 'NONE', #309, 5.000000000000000900 ) ;
#781 = CARTESIAN_POINT ( 'NONE',  ( 0.08780861830361678900, -5.722806362481467300, 2.082370150261869700 ) ) ;
#782 = ORIENTED_EDGE ( 'NONE', *, *, #338, .F. ) ;
#783 = AXIS2_PLACEMENT_3D ( 'NONE', #799, #231, #944 ) ;
#784 = ADVANCED_FACE ( 'NONE', ( #871 ), #246, .T. ) ;
#785 = CARTESIAN_POINT ( 'NONE',  ( 0.9038161757890409400, 5.251684179506520800, 2.320626431801103200 ) ) ;
#786 = VERTEX_POINT ( 'NONE', #698 ) ;
#787 = CARTESIAN_POINT ( 'NONE',  ( -2.499999999999991100, 4.330127018922199900, -2.500000000000000000 ) ) ;
#788 = AXIS2_PLACEMENT_3D ( 'NONE', #154, #80, #818 ) ;
#789 = CARTESIAN_POINT ( 'NONE',  ( 4.999999999999997300, 2.742413778650721200, 2.500000000000000000 ) ) ;
#790 = EDGE_CURVE ( 'NONE', #795, #786, #470, .T. ) ;
#791 = DIRECTION ( 'NONE',  ( 1.000000000000000000, 0.0000000000000000000, 0.0000000000000000000 ) ) ;
#792 = APPROVAL_PERSON_ORGANIZATION ( #822, #702, #217 ) ;
#793 = CARTESIAN_POINT ( 'NONE',  ( 4.874999999999598500, -2.958920129597055700, 2.094293635091861300 ) ) ;
#794 = FACE_OUTER_BOUND ( 'NONE', #571, .T. ) ;
#795 = VERTEX_POINT ( 'NONE', #619 ) ;
#796 = CARTESIAN_POINT ( 'NONE',  ( -0.1249999999999906700, 5.701333908247555400, 2.500000000000000000 ) ) ;
#797 = ORIENTED_EDGE ( 'NONE', *, *, #247, .T. ) ;
#798 = DIRECTION ( 'NONE',  ( 1.000000000000000000, 0.0000000000000000000, 0.0000000000000000000 ) ) ;
#799 = CARTESIAN_POINT ( 'NONE',  ( 0.0000000000000000000, 0.0000000000000000000, -2.500000000000000000 ) ) ;
#800 = VERTEX_POINT ( 'NONE', #385 ) ;
#801 = CARTESIAN_POINT ( 'NONE',  ( 4.999999999999984000, -2.742413778650815800, -2.094293635091712100 ) ) ;
#802 = DIRECTION ( 'NONE',  ( -0.0000000000000000000, -0.0000000000000000000, 1.000000000000000000 ) ) ;
#803 = EDGE_CURVE ( 'NONE', #853, #689, #848, .T. ) ;
#804 = ADVANCED_BREP_SHAPE_REPRESENTATION ( '91828A251_NO THREADS_18-8 Stainless Steel Hex Nut', ( #125, #328 ), #521 ) ;
#805 = CARTESIAN_POINT ( 'NONE',  ( 4.999999999999998200, 2.785342966609269900, 2.082374514999405500 ) ) ;
#806 = PERSON_AND_ORGANIZATION_ROLE ( 'creator' ) ;
#807 = CONICAL_SURFACE ( 'NONE', #915, 5.000000000000000900, 1.047197551196600100 ) ;
#808 = ORIENTED_EDGE ( 'NONE', *, *, #202, .T. ) ;
#809 = CARTESIAN_POINT ( 'NONE',  ( -1.694885762720592900, -4.794959940543842300, -2.461540575954694400 ) ) ;
#810 = DIRECTION ( 'NONE',  ( -0.8660254037844382600, 0.5000000000000006700, 0.0000000000000000000 ) ) ;
#811 = FACE_OUTER_BOUND ( 'NONE', #430, .T. ) ;
#812 = VERTEX_POINT ( 'NONE', #768 ) ;
#813 = AXIS2_PLACEMENT_3D ( 'NONE', #686, #461, #828 ) ;
#814 = CARTESIAN_POINT ( 'NONE',  ( 0.1249999999999933100, -5.701333908247534900, 2.500000000000000000 ) ) ;
#815 = CARTESIAN_POINT ( 'NONE',  ( 0.08782223266265315500, -5.722798502227617800, -2.082374514998840600 ) ) ;
#816 = EDGE_CURVE ( 'NONE', #710, #800, #551, .T. ) ;
#817 = ORIENTED_EDGE ( 'NONE', *, *, #622, .T. ) ;
#818 = DIRECTION ( 'NONE',  ( 1.000000000000000000, 0.0000000000000000000, 0.0000000000000000000 ) ) ;
#819 = B_SPLINE_CURVE_WITH_KNOTS ( 'NONE', 3,
 ( #129, #500, #194, #352, #225, #454 ),
 .UNSPECIFIED., .F., .F.,
 ( 4, 2, 4 ),
 ( 0.002921158011986711200, 0.004301918286216067400, 0.005682678560445423600 ),
 .UNSPECIFIED. ) ;
#820 = AXIS2_PLACEMENT_3D ( 'NONE', #197, #49, #570 ) ;
#821 = CARTESIAN_POINT ( 'NONE',  ( -5.000000000000000900, 1.201851678989730900E-014, 2.500000000000000000 ) ) ;
#822 = PERSON_AND_ORGANIZATION ( #934, #892 ) ;
#823 = LINE ( 'NONE', #770, #918 ) ;
#824 = CYLINDRICAL_SURFACE ( 'NONE', #874, 0.2500000000000002200 ) ;
#825 = ORIENTED_EDGE ( 'NONE', *, *, #121, .T. ) ;
#826 = CARTESIAN_POINT ( 'NONE',  ( -2.999999999999999100, 3.673940397442058900E-016, -2.500000000000000000 ) ) ;
#827 = B_SPLINE_CURVE_WITH_KNOTS ( 'NONE', 3,
 ( #745, #592, #378, #899, #607, #236 ),
 .UNSPECIFIED., .F., .F.,
 ( 4, 2, 4 ),
 ( 0.005589846520475513300, 0.006976791856498779400, 0.008363737192522044700 ),
 .UNSPECIFIED. ) ;
#828 = DIRECTION ( 'NONE',  ( 1.000000000000000000, 0.0000000000000000000, 0.0000000000000000000 ) ) ;
#829 = AXIS2_PLACEMENT_3D ( 'NONE', #528, #373, #299 ) ;
#830 = CARTESIAN_POINT ( 'NONE',  ( -0.1250000000003905800, -5.701333908247313800, 2.094293635091864400 ) ) ;
#831 = CARTESIAN_POINT ( 'NONE',  ( 4.999999999999984000, -2.785358687118577100, 2.082370150261869700 ) ) ;
#832 = ORIENTED_EDGE ( 'NONE', *, *, #418, .F. ) ;
#833 = CARTESIAN_POINT ( 'NONE',  ( -5.000000000000008000, -0.9239451284780668700, 2.462168926621249200 ) ) ;
#834 = B_SPLINE_CURVE_WITH_KNOTS ( 'NONE', 3,
 ( #952, #805, #74, #207, #583, #146 ),
 .UNSPECIFIED., .F., .F.,
 ( 4, 2, 4 ),
 ( 1.371419323662773900E-018, 0.0001318968453400211500, 0.0002637936906800409000 ),
 .UNSPECIFIED. ) ;
#835 = LOCAL_TIME ( 12, 38, 24.00000000000000000, #26 ) ;
#836 = CIRCLE ( 'NONE', #2, 5.000000000000000900 ) ;
#837 = DIRECTION ( 'NONE',  ( 0.0000000000000000000, 0.0000000000000000000, -1.000000000000000000 ) ) ;
#838 = ORIENTED_EDGE ( 'NONE', *, *, #226, .T. ) ;
#839 = B_SPLINE_CURVE_WITH_KNOTS ( 'NONE', 3,
 ( #239, #530, #459, #379 ),
 .UNSPECIFIED., .F., .F.,
 ( 4, 4 ),
 ( 0.0001489213604345988000, 0.002921158011986711200 ),
 .UNSPECIFIED. ) ;
#840 = CARTESIAN_POINT ( 'NONE',  ( 4.999999999999992900, 1.848661140044566100, -2.319546572516465700 ) ) ;
#841 = AXIS2_PLACEMENT_3D ( 'NONE', #697, #434, #791 ) ;
#842 = DIRECTION ( 'NONE',  ( 1.000000000000000000, 0.0000000000000000000, 0.0000000000000000000 ) ) ;
#843 = EDGE_CURVE ( 'NONE', #216, #383, #823, .T. ) ;
#844 = ADVANCED_FACE ( 'NONE', ( #646, #84 ), #704, .F. ) ;
#845 = CARTESIAN_POINT ( 'NONE',  ( -0.04382521531348788200, 5.734867074362538700, 2.075725291386839400 ) ) ;
#846 = AXIS2_PLACEMENT_3D ( 'NONE', #127, #72, #508 ) ;
#847 = PERSON_AND_ORGANIZATION ( #934, #892 ) ;
#848 = CIRCLE ( 'NONE', #864, 5.000000000000000900 ) ;
#849 = VERTEX_POINT ( 'NONE', #106 ) ;
#850 = ORIENTED_EDGE ( 'NONE', *, *, #654, .F. ) ;
#851 = DIRECTION ( 'NONE',  ( 0.0000000000000000000, 0.0000000000000000000, 1.000000000000000000 ) ) ;
#852 = CARTESIAN_POINT ( 'NONE',  ( 0.0000000000000000000, 0.0000000000000000000, -2.500000000000000000 ) ) ;
#853 = VERTEX_POINT ( 'NONE', #252 ) ;
#854 = CARTESIAN_POINT ( 'NONE',  ( -5.000000000000008900, -1.838139485056845500, -2.321645086322193100 ) ) ;
#855 = EDGE_CURVE ( 'NONE', #123, #13, #764, .T. ) ;
#856 = PERSON_AND_ORGANIZATION ( #934, #892 ) ;
#857 = DIRECTION ( 'NONE',  ( 1.000000000000000000, 0.0000000000000000000, 0.0000000000000000000 ) ) ;
#858 = AXIS2_PLACEMENT_3D ( 'NONE', #865, #493, #119 ) ;
#859 = VERTEX_POINT ( 'NONE', #322 ) ;
#860 = VERTEX_POINT ( 'NONE', #174 ) ;
#861 = CARTESIAN_POINT ( 'NONE',  ( 0.0000000000000000000, 0.0000000000000000000, 2.500000000000000000 ) ) ;
#862 = EDGE_LOOP ( 'NONE', ( #41, #762, #208, #881 ) ) ;
#863 = ADVANCED_FACE ( 'NONE', ( #883 ), #510, .T. ) ;
#864 = AXIS2_PLACEMENT_3D ( 'NONE', #30, #924, #842 ) ;
#865 = CARTESIAN_POINT ( 'NONE',  ( 4.749999999999983100, -2.742413778650723400, 2.500000000000000000 ) ) ;
#866 = EDGE_CURVE ( 'NONE', #689, #221, #139, .T. ) ;
#867 = CARTESIAN_POINT ( 'NONE',  ( -4.875000000000400600, -2.958920129596580100, -2.094293635091606800 ) ) ;
#868 = CARTESIAN_POINT ( 'NONE',  ( -0.08782223266417403500, -5.722798502226748200, 2.082374515002248600 ) ) ;
#869 = APPROVAL_DATE_TIME ( #437, #377 ) ;
#870 = CARTESIAN_POINT ( 'NONE',  ( -3.305114237279400200, 3.865294097300536500, -2.461540575954682900 ) ) ;
#871 = FACE_OUTER_BOUND ( 'NONE', #652, .T. ) ;
#872 = CARTESIAN_POINT ( 'NONE',  ( -4.912177767335881700, -2.937455535617570700, -2.082374514999302500 ) ) ;
#873 = VERTEX_POINT ( 'NONE', #33 ) ;
#874 = AXIS2_PLACEMENT_3D ( 'NONE', #90, #12, #242 ) ;
#875 = CARTESIAN_POINT ( 'NONE',  ( 4.999999999999984000, -2.742413778650723900, 2.500000000000000000 ) ) ;
#876 = DIRECTION ( 'NONE',  ( 1.000000000000000000, 0.0000000000000000000, 0.0000000000000000000 ) ) ;
#877 = CARTESIAN_POINT ( 'NONE',  ( 0.0000000000000000000, 0.0000000000000000000, 0.0000000000000000000 ) ) ;
#878 = AXIS2_PLACEMENT_3D ( 'NONE', #631, #399, #115 ) ;
#879 = DESIGN_CONTEXT ( 'detailed design', #494, 'design' ) ;
#880 = CARTESIAN_POINT ( 'NONE',  ( 2.499999999999990700, -4.330127018922199900, -2.500000000000000000 ) ) ;
#881 = ORIENTED_EDGE ( 'NONE', *, *, #43, .F. ) ;
#882 = CARTESIAN_POINT ( 'NONE',  ( 4.874999999991249700, -2.958920129601875400, -2.094293635094537400 ) ) ;
#883 = FACE_OUTER_BOUND ( 'NONE', #767, .T. ) ;
#884 = ORIENTED_EDGE ( 'NONE', *, *, #945, .T. ) ;
#885 = ORIENTED_EDGE ( 'NONE', *, *, #626, .F. ) ;
#886 = PERSON_AND_ORGANIZATION_ROLE ( 'design_supplier' ) ;
#887 = CARTESIAN_POINT ( 'NONE',  ( 2.500000000000006700, 4.330127018922191000, 2.500000000000000000 ) ) ;
#888 = CARTESIAN_POINT ( 'NONE',  ( -4.988453181381651700, 2.829479787393459000, 2.075725291386838900 ) ) ;
#889 = EDGE_CURVE ( 'NONE', #123, #229, #590, .T. ) ;
#890 = EDGE_CURVE ( 'NONE', #689, #896, #32, .T. ) ;
#891 = CARTESIAN_POINT ( 'NONE',  ( -0.1250000000087377900, -5.701333908242493600, -2.094293635094540500 ) ) ;
#892 = ORGANIZATION ( 'UNSPECIFIED', 'UNSPECIFIED', '' ) ;
#893 = CARTESIAN_POINT ( 'NONE',  ( 0.0000000000000000000, 0.0000000000000000000, -2.500000000000000000 ) ) ;
#894 = CONICAL_SURFACE ( 'NONE', #460, 5.000000000000000900, 1.047197551196600100 ) ;
#895 = B_SPLINE_CURVE_WITH_KNOTS ( 'NONE', 3,
 ( #518, #1, #312, #69 ),
 .UNSPECIFIED., .F., .F.,
 ( 4, 4 ),
 ( 0.0001489213604350440800, 0.002921158011986703800 ),
 .UNSPECIFIED. ) ;
#896 = VERTEX_POINT ( 'NONE', #479 ) ;
#897 = AXIS2_PLACEMENT_3D ( 'NONE', #104, #548, #706 ) ;
#898 = EDGE_CURVE ( 'NONE', #39, #795, #44, .T. ) ;
#899 = CARTESIAN_POINT ( 'NONE',  ( 4.999999999999987600, -0.9239451285083956100, -2.462168926618066400 ) ) ;
#900 = EDGE_CURVE ( 'NONE', #690, #772, #368, .T. ) ;
#901 = CARTESIAN_POINT ( 'NONE',  ( 4.487193352966646600, -3.182820401655056300, -2.218623693882311200 ) ) ;
#902 = CARTESIAN_POINT ( 'NONE',  ( -0.1250000000003905800, -5.701333908247313800, 2.094293635091864400 ) ) ;
#903 = CARTESIAN_POINT ( 'NONE',  ( -5.000000000000010700, -2.294323821374935500, 2.218704048307382300 ) ) ;
#904 = CARTESIAN_POINT ( 'NONE',  ( 4.999999999999984000, -2.742413778650734100, 2.094293635091739600 ) ) ;
#905 = ORIENTED_EDGE ( 'NONE', *, *, #7, .T. ) ;
#906 = CARTESIAN_POINT ( 'NONE',  ( 0.5128066470333460000, 5.477433636189333700, -2.218623693882302300 ) ) ;
#907 = ORIENTED_EDGE ( 'NONE', *, *, #462, .T. ) ;
#908 = DIRECTION ( 'NONE',  ( -1.000000000000000000, 2.403703357979454500E-015, 0.0000000000000000000 ) ) ;
#909 = EDGE_CURVE ( 'NONE', #812, #860, #311, .T. ) ;
#910 = CARTESIAN_POINT ( 'NONE',  ( 4.999999999999997300, 2.886751345948127800, 2.500000000000000000 ) ) ;
#911 = EDGE_CURVE ( 'NONE', #229, #48, #111, .T. ) ;
#912 = CARTESIAN_POINT ( 'NONE',  ( 4.999999999999997300, 2.742413778650720300, -2.094293635091732100 ) ) ;
#913 = CARTESIAN_POINT ( 'NONE',  ( 3.305114237279390000, -3.865294097300525400, -2.461540575954693600 ) ) ;
#914 = CARTESIAN_POINT ( 'NONE',  ( -5.000000000000011500, -2.742413778650787400, -2.094293635091705900 ) ) ;
#915 = AXIS2_PLACEMENT_3D ( 'NONE', #196, #573, #210 ) ;
#916 = EDGE_LOOP ( 'NONE', ( #771, #775 ) ) ;
#917 = EDGE_CURVE ( 'NONE', #786, #849, #330, .T. ) ;
#918 = VECTOR ( 'NONE', #920, 1000.000000000000000 ) ;
#919 = LINE ( 'NONE', #814, #131 ) ;
#920 = DIRECTION ( 'NONE',  ( 0.0000000000000000000, 0.0000000000000000000, -1.000000000000000000 ) ) ;
#921 = ADVANCED_FACE ( 'NONE', ( #449 ), #118, .T. ) ;
#922 = VERTEX_POINT ( 'NONE', #433 ) ;
#923 = B_SPLINE_CURVE_WITH_KNOTS ( 'NONE', 3,
 ( #367, #240, #634, #714, #186, #483 ),
 .UNSPECIFIED., .F., .F.,
 ( 4, 2, 4 ),
 ( 5.850674789795191200E-018, 0.0001318968453400226700, 0.0002637936906800394900 ),
 .UNSPECIFIED. ) ;
#924 = DIRECTION ( 'NONE',  ( -0.0000000000000000000, -0.0000000000000000000, -1.000000000000000000 ) ) ;
#925 = CARTESIAN_POINT ( 'NONE',  ( -4.999999999999997300, 2.742413778650735400, 2.094293635091727200 ) ) ;
#926 = ORIENTED_EDGE ( 'NONE', *, *, #889, .F. ) ;
#927 = CARTESIAN_POINT ( 'NONE',  ( -0.08780861830361384700, 5.722806362481487800, 2.082370150261857700 ) ) ;
#928 = AXIS2_PLACEMENT_3D ( 'NONE', #648, #200, #284 ) ;
#929 = EDGE_LOOP ( 'NONE', ( #666, #817, #953, #62, #66, #51 ) ) ;
#930 = CARTESIAN_POINT ( 'NONE',  ( -0.1249999999999755800, 5.701333908247564300, 2.094293635091724100 ) ) ;
#931 = ORIENTED_EDGE ( 'NONE', *, *, #306, .T. ) ;
#932 = ADVANCED_FACE ( 'NONE', ( #392 ), #161, .T. ) ;
#933 = CARTESIAN_POINT ( 'NONE',  ( 2.499999999999990700, -4.330127018922199900, 2.500000000000000000 ) ) ;
#934 = PERSON ( 'UNSPECIFIED', 'UNSPECIFIED', 'UNSPECIFIED', ('UNSPECIFIED'), ('UNSPECIFIED'), ('UNSPECIFIED') ) ;
#935 = CARTESIAN_POINT ( 'NONE',  ( 2.500000000000006700, 4.330127018922191000, 2.500000000000000000 ) ) ;
#936 = ADVANCED_FACE ( 'NONE', ( #614 ), #807, .T. ) ;
#937 = ORIENTED_EDGE ( 'NONE', *, *, #259, .T. ) ;
#938 = CYLINDRICAL_SURFACE ( 'NONE', #396, 2.999999999999999100 ) ;
#939 = CARTESIAN_POINT ( 'NONE',  ( 4.999999999999990200, -1.201851678989724900E-014, 2.500000000000000000 ) ) ;
#940 = AXIS2_PLACEMENT_3D ( 'NONE', #753, #374, #384 ) ;
#941 = CONICAL_SURFACE ( 'NONE', #105, 5.000000000000000900, 1.047197551196600100 ) ;
#942 = ORIENTED_EDGE ( 'NONE', *, *, #113, .T. ) ;
#943 = CARTESIAN_POINT ( 'NONE',  ( 0.04382521532089486700, 5.734867074361531500, -2.075725291387395400 ) ) ;
#944 = DIRECTION ( 'NONE',  ( 1.000000000000000000, 0.0000000000000000000, 0.0000000000000000000 ) ) ;
#945 = EDGE_CURVE ( 'NONE', #221, #48, #597, .T. ) ;
#946 = DIRECTION ( 'NONE',  ( -0.0000000000000000000, -0.0000000000000000000, 1.000000000000000000 ) ) ;
#947 = CC_DESIGN_APPROVAL ( #742, ( #406 ) ) ;
#948 = CARTESIAN_POINT ( 'NONE',  ( 4.999999999999984000, -2.785342966610941900, -2.082374514998921900 ) ) ;
#949 = DIRECTION ( 'NONE',  ( 0.0000000000000000000, 0.0000000000000000000, 1.000000000000000000 ) ) ;
#950 = CONICAL_SURFACE ( 'NONE', #345, 5.000000000000000900, 1.047197551196600100 ) ;
#951 = ORIENTED_EDGE ( 'NONE', *, *, #546, .T. ) ;
#952 = CARTESIAN_POINT ( 'NONE',  ( 4.999999999999997300, 2.742413778650720300, 2.094293635091732100 ) ) ;
#953 = ORIENTED_EDGE ( 'NONE', *, *, #172, .T. ) ;
#954 = CARTESIAN_POINT ( 'NONE',  ( -4.487193352966659000, 3.182820401655066500, -2.218623693882301000 ) ) ;
#955 = CARTESIAN_POINT ( 'NONE',  ( -5.000000000000010700, -2.785358687118349300, -2.082370150261919400 ) ) ;
#956 = EDGE_CURVE ( 'NONE', #281, #407, #566, .T. ) ;
#957 = EDGE_CURVE ( 'NONE', #453, #153, #296, .T. ) ;
#958 = CARTESIAN_POINT ( 'NONE',  ( 0.0000000000000000000, 0.0000000000000000000, 2.500000000000000000 ) ) ;
#959 = ADVANCED_FACE ( 'NONE', ( #167 ), #938, .F. ) ;
#960 = APPROVAL_STATUS ( 'not_yet_approved' ) ;
#961 = CARTESIAN_POINT ( 'NONE',  ( 4.875000000000012400, 2.958920129596822600, 2.094293635091726700 ) ) ;
#962 = CARTESIAN_POINT ( 'NONE',  ( -2.097316833880605600, -4.562616253279340000, 2.500000000000013300 ) ) ;
#963 = PERSON_AND_ORGANIZATION ( #934, #892 ) ;
#964 = FACE_OUTER_BOUND ( 'NONE', #482, .T. ) ;
#965 = AXIS2_PLACEMENT_3D ( 'NONE', #429, #61, #136 ) ;
#966 = ORIENTED_EDGE ( 'NONE', *, *, #472, .F. ) ;
#967 = CARTESIAN_POINT ( 'NONE',  ( 2.999999999999999100, 0.0000000000000000000, -2.500000000000000000 ) ) ;
ENDSEC;
END-ISO-10303-21;
