ISO-10303-21;
HEADER;
FILE_DESCRIPTION (( 'STEP AP203' ),
    '1' );
FILE_NAME ('91290A330_NO THREADS_Alloy Steel Socket Head Screw.STEP',
    '2023-01-11T17:17:53',
    ( 'Administrator' ),
    ( 'Managed by Terraform' ),
    'SwSTEP 2.0',
    'SolidWorks 2017',
    '' );
FILE_SCHEMA (( 'CONFIG_CONTROL_DESIGN' ));
ENDSEC;

DATA;
#1 = ORIENTED_EDGE ( 'NONE', *, *, #701, .F. ) ;
#2 = ORIENTED_EDGE ( 'NONE', *, *, #95, .F. ) ;
#3 = ORIENTED_EDGE ( 'NONE', *, *, #291, .F. ) ;
#4 = B_SPLINE_CURVE_WITH_KNOTS ( 'NONE', 3,
 ( #240, #377, #253, #84, #617, #736, #367, #26, #485, #544, #19, #191 ),
 .UNSPECIFIED., .F., .F.,
 ( 4, 2, 2, 2, 2, 4 ),
 ( 2.544340436249185500E-007, 0.0007457281437449389900, 0.001118464998595595800, 0.001491201853446252400, 0.002236675563147565100, 0.002982149272848877500 ),
 .UNSPECIFIED. ) ;
#5 = AXIS2_PLACEMENT_3D ( 'NONE', #588, #47, #773 ) ;
#6 = CARTESIAN_POINT ( 'NONE',  ( -1.794611453598834400, -1.850631940122057000, 14.97208214815059800 ) ) ;
#7 = VECTOR ( 'NONE', #192, 1000.000000000000000 ) ;
#8 = EDGE_CURVE ( 'NONE', #596, #681, #347, .T. ) ;
#9 = CARTESIAN_POINT ( 'NONE',  ( -1.689365699038768400, -1.911395604848376500, 14.94474999950267400 ) ) ;
#10 = VECTOR ( 'NONE', #297, 1000.000000000000000 ) ;
#11 = CC_DESIGN_APPROVAL ( #166, ( #591 ) ) ;
#12 = DIRECTION ( 'NONE',  ( -0.0000000000000000000, 4.181777648941097500E-057, -1.000000000000000000 ) ) ;
#13 = VERTEX_POINT ( 'NONE', #281 ) ;
#14 = AXIS2_PLACEMENT_3D ( 'NONE', #125, #680, #303 ) ;
#15 = CARTESIAN_POINT ( 'NONE',  ( 5.939536975864663000E-016, -4.700000000000000200, 15.50000000000000200 ) ) ;
#16 = ADVANCED_FACE ( 'NONE', ( #273 ), #510, .T. ) ;
#17 = CARTESIAN_POINT ( 'NONE',  ( 3.673940397442059900E-016, 3.000000000000000000, -14.85048094716166700 ) ) ;
#18 = CONICAL_SURFACE ( 'NONE', #437, 5.000000000000000000, 0.7853981633974511700 ) ;
#19 = CARTESIAN_POINT ( 'NONE',  ( -2.303518737899374000, 1.556814182538577700, 15.17005513948903200 ) ) ;
#20 = CARTESIAN_POINT ( 'NONE',  ( 0.0000000000000000000, 0.0000000000000000000, 9.200000000000002800 ) ) ;
#21 = DIRECTION ( 'NONE',  ( 0.0000000000000000000, 1.000000000000000000, 0.0000000000000000000 ) ) ;
#22 = CIRCLE ( 'NONE', #283, 4.700000000000000200 ) ;
#23 = ADVANCED_FACE ( 'NONE', ( #184 ), #404, .T. ) ;
#24 = ORIENTED_EDGE ( 'NONE', *, *, #670, .F. ) ;
#25 = EDGE_CURVE ( 'NONE', #65, #310, #41, .T. ) ;
#26 = CARTESIAN_POINT ( 'NONE',  ( -1.463640510288723300, 2.041718103336092500, 14.89621215275624200 ) ) ;
#27 = CARTESIAN_POINT ( 'NONE',  ( 2.500000000000000000, -0.5024865834171834400, 14.93628044913247900 ) ) ;
#28 = ORIENTED_EDGE ( 'NONE', *, *, #644, .T. ) ;
#29 = CARTESIAN_POINT ( 'NONE',  ( -2.500000000000000400, 0.9849427056166839600, 15.07373325822236500 ) ) ;
#30 = DATE_TIME_ROLE ( 'creation_date' ) ;
#31 = CARTESIAN_POINT ( 'NONE',  ( 5.755839955992559700E-016, 4.700000000000000200, 9.500000000000000000 ) ) ;
#32 =( NAMED_UNIT ( * ) SI_UNIT ( $, .STERADIAN. ) SOLID_ANGLE_UNIT ( ) );
#33 = CIRCLE ( 'NONE', #14, 0.2999999999999999300 ) ;
#34 = ORIENTED_EDGE ( 'NONE', *, *, #597, .F. ) ;
#35 = CARTESIAN_POINT ( 'NONE',  ( -2.500000000000000000, -1.443375672974065200, 1.862373841740270000 ) ) ;
#36 = ORIENTED_EDGE ( 'NONE', *, *, #524, .F. ) ;
#37 = CYLINDRICAL_SURFACE ( 'NONE', #455, 5.000000000000000000 ) ;
#38 = VERTEX_POINT ( 'NONE', #220 ) ;
#39 = CARTESIAN_POINT ( 'NONE',  ( -6.717598212430812200E-016, 2.886751345948128700, 15.28349364905389300 ) ) ;
#40 = VECTOR ( 'NONE', #565, 1000.000000000000000 ) ;
#41 = CIRCLE ( 'NONE', #403, 3.000000000000000000 ) ;
#42 = ORIENTED_EDGE ( 'NONE', *, *, #291, .T. ) ;
#43 = VERTEX_POINT ( 'NONE', #399 ) ;
#44 = DIRECTION ( 'NONE',  ( 0.5000000000000004400, -0.8660254037844383700, 0.0000000000000000000 ) ) ;
#45 = AXIS2_PLACEMENT_3D ( 'NONE', #500, #697, #255 ) ;
#46 = AXIS2_PLACEMENT_3D ( 'NONE', #447, #765, #272 ) ;
#47 = DIRECTION ( 'NONE',  ( -0.0000000000000000000, 4.181777648941097500E-057, -1.000000000000000000 ) ) ;
#48 = PRODUCT_DEFINITION_SHAPE ( 'NONE', 'NONE',  #505 ) ;
#49 = FACE_OUTER_BOUND ( 'NONE', #640, .T. ) ;
#50 = ORIENTED_EDGE ( 'NONE', *, *, #549, .F. ) ;
#51 = DIRECTION ( 'NONE',  ( 1.000000000000000000, 0.0000000000000000000, 0.0000000000000000000 ) ) ;
#52 = CIRCLE ( 'NONE', #495, 3.000000000000000000 ) ;
#53 = CALENDAR_DATE ( 2023, 11, 1 ) ;
#54 = DIRECTION ( 'NONE',  ( 0.0000000000000000000, -1.000000000000000000, 0.0000000000000000000 ) ) ;
#55 = ORIENTED_EDGE ( 'NONE', *, *, #95, .T. ) ;
#56 = VECTOR ( 'NONE', #754, 1000.000000000000100 ) ;
#57 = AXIS2_PLACEMENT_3D ( 'NONE', #503, #567, #757 ) ;
#58 = VERTEX_POINT ( 'NONE', #592 ) ;
#59 = ORIENTED_EDGE ( 'NONE', *, *, #419, .F. ) ;
#60 = APPROVAL ( #122, 'UNSPECIFIED' ) ;
#61 = ORIENTED_EDGE ( 'NONE', *, *, #370, .T. ) ;
#62 = B_SPLINE_CURVE_WITH_KNOTS ( 'NONE', 3,
 ( #618, #739, #368, #27, #499, #492 ),
 .UNSPECIFIED., .F., .F.,
 ( 4, 2, 4 ),
 ( 0.001910358731447126200, 0.002658231859415366600, 0.003406104987383606800 ),
 .UNSPECIFIED. ) ;
#63 = LINE ( 'NONE', #422, #498 ) ;
#64 = MANIFOLD_SOLID_BREP ( 'Cut-Extrude2', #768 ) ;
#65 = VERTEX_POINT ( 'NONE', #652 ) ;
#66 = LINE ( 'NONE', #742, #439 ) ;
#67 = CARTESIAN_POINT ( 'NONE',  ( 2.104933473583879200, 1.671467438348222200, 15.07483382634058500 ) ) ;
#68 = CIRCLE ( 'NONE', #45, 3.103257696894238900 ) ;
#69 = ADVANCED_FACE ( 'NONE', ( #329 ), #307, .F. ) ;
#70 = DIRECTION ( 'NONE',  ( 0.4999999999999998300, 0.8660254037844388200, 0.0000000000000000000 ) ) ;
#71 = VERTEX_POINT ( 'NONE', #395 ) ;
#72 = DIRECTION ( 'NONE',  ( -0.7071067811865487900, 8.659560562354948900E-017, 0.7071067811865463500 ) ) ;
#73 = DIRECTION ( 'NONE',  ( -0.0000000000000000000, 4.181777648941097500E-057, -1.000000000000000000 ) ) ;
#74 = DIRECTION ( 'NONE',  ( 8.659560562354903300E-017, 0.7071067811865451300, 0.7071067811865499000 ) ) ;
#75 = ADVANCED_FACE ( 'NONE', ( #391 ), #771, .F. ) ;
#76 = PERSON_AND_ORGANIZATION_ROLE ( 'creator' ) ;
#77 = DIRECTION ( 'NONE',  ( -0.0000000000000000000, 0.0000000000000000000, 1.000000000000000000 ) ) ;
#78 = ORIENTED_EDGE ( 'NONE', *, *, #214, .T. ) ;
#79 = DIRECTION ( 'NONE',  ( -0.8660254037844387100, 0.4999999999999997800, 0.0000000000000000000 ) ) ;
#80 = PLANE ( 'NONE',  #340 ) ;
#81 = APPLICATION_CONTEXT ( 'configuration controlled 3d designs of mechanical parts and assemblies' ) ;
#82 = CARTESIAN_POINT ( 'NONE',  ( 0.3987867435387264500, 2.656511712216789600, 15.07278725590573400 ) ) ;
#83 = ORIENTED_EDGE ( 'NONE', *, *, #385, .T. ) ;
#84 = CARTESIAN_POINT ( 'NONE',  ( -0.7053885464011655500, 2.479495078800137500, 14.97208214815060100 ) ) ;
#85 = CARTESIAN_POINT ( 'NONE',  ( -2.500000000000000000, 0.2537459923902233300, 14.89674230310576100 ) ) ;
#86 = ORIENTED_EDGE ( 'NONE', *, *, #397, .F. ) ;
#87 = VERTEX_POINT ( 'NONE', #778 ) ;
#88 = EDGE_CURVE ( 'NONE', #533, #117, #467, .T. ) ;
#89 = CARTESIAN_POINT ( 'NONE',  ( 0.0000000000000000000, 4.700000000000000200, 9.500000000000001800 ) ) ;
#90 = CARTESIAN_POINT ( 'NONE',  ( 1.678158113524836900, -1.917866307361811000, 14.93437054072093600 ) ) ;
#91 = CARTESIAN_POINT ( 'NONE',  ( -2.500000000000000000, -1.443375672974065000, 10.50000000000000200 ) ) ;
#92 = DIRECTION ( 'NONE',  ( 0.0000000000000000000, 1.000000000000000000, 4.181777648941097500E-057 ) ) ;
#93 = AXIS2_PLACEMENT_3D ( 'NONE', #146, #382, #442 ) ;
#94 = ORIENTED_EDGE ( 'NONE', *, *, #170, .T. ) ;
#95 = EDGE_CURVE ( 'NONE', #13, #200, #286, .T. ) ;
#96 = CARTESIAN_POINT ( 'NONE',  ( 3.673940397442059400E-016, -2.999999999999999100, 9.200000000000004600 ) ) ;
#97 = PLANE ( 'NONE',  #198 ) ;
#98 = LINE ( 'NONE', #326, #560 ) ;
#99 = VERTEX_POINT ( 'NONE', #39 ) ;
#100 = ORIENTED_EDGE ( 'NONE', *, *, #639, .T. ) ;
#101 = CARTESIAN_POINT ( 'NONE',  ( 0.0000000000000000000, 1.269189628594533100E-055, -14.85048094716166700 ) ) ;
#102 = CARTESIAN_POINT ( 'NONE',  ( 2.500000000000000400, 0.5008555483124559300, 14.93584149784076800 ) ) ;
#103 = ORIENTED_EDGE ( 'NONE', *, *, #223, .T. ) ;
#104 = AXIS2_PLACEMENT_3D ( 'NONE', #136, #559, #315 ) ;
#105 = CARTESIAN_POINT ( 'NONE',  ( 0.0000000000000000000, 2.509066589364658800E-056, 9.500000000000000000 ) ) ;
#106 = TOROIDAL_SURFACE ( 'NONE', #383, 3.299999999999998900, 0.2999999999999999300 ) ;
#107 = VECTOR ( 'NONE', #72, 1000.000000000000000 ) ;
#108 = EDGE_CURVE ( 'NONE', #581, #623, #22, .T. ) ;
#109 = COORDINATED_UNIVERSAL_TIME_OFFSET ( 6, 0, .BEHIND. ) ;
#110 = ORIENTED_EDGE ( 'NONE', *, *, #779, .F. ) ;
#111 = TOROIDAL_SURFACE ( 'NONE', #124, 3.299999999999998900, 0.2999999999999999300 ) ;
#112 = VERTEX_POINT ( 'NONE', #575 ) ;
#113 = ORIENTED_EDGE ( 'NONE', *, *, #456, .F. ) ;
#114 = ORIENTED_EDGE ( 'NONE', *, *, #108, .F. ) ;
#115 = LOCAL_TIME ( 11, 17, 53.00000000000000000, #751 ) ;
#116 = AXIS2_PLACEMENT_3D ( 'NONE', #333, #445, #508 ) ;
#117 = VERTEX_POINT ( 'NONE', #763 ) ;
#118 = CARTESIAN_POINT ( 'NONE',  ( -0.1964812621006258600, -2.773312836383616400, 15.17005513948903200 ) ) ;
#119 = LINE ( 'NONE', #31, #458 ) ;
#120 = CARTESIAN_POINT ( 'NONE',  ( 1.689365699038768400, 1.911395604848374900, 14.94474999950267100 ) ) ;
#121 = DATE_AND_TIME ( #463, #449 ) ;
#122 = APPROVAL_STATUS ( 'not_yet_approved' ) ;
#123 = CARTESIAN_POINT ( 'NONE',  ( -1.363725120039726700, -2.099404280792539300, 14.89701585421036400 ) ) ;
#124 = AXIS2_PLACEMENT_3D ( 'NONE', #271, #708, #153 ) ;
#125 = CARTESIAN_POINT ( 'NONE',  ( 4.041334437186264500E-016, -3.299999999999998900, 9.200000000000002800 ) ) ;
#126 = CARTESIAN_POINT ( 'NONE',  ( 2.500000000000000000, -5.478779088456694200E-020, 14.89674230310576600 ) ) ;
#127 = CARTESIAN_POINT ( 'NONE',  ( -2.304669858771507800, -1.556149582593182800, 15.17071973943477700 ) ) ;
#128 = ADVANCED_FACE ( 'NONE', ( #167 ), #111, .F. ) ;
#129 = AXIS2_PLACEMENT_3D ( 'NONE', #35, #421, #317 ) ;
#130 = CARTESIAN_POINT ( 'NONE',  ( 2.500000000000000000, 1.443375672974064300, 15.28349364905389300 ) ) ;
#131 = ORIENTED_EDGE ( 'NONE', *, *, #701, .T. ) ;
#132 = DIRECTION ( 'NONE',  ( 0.0000000000000000000, -1.000000000000000000, 0.0000000000000000000 ) ) ;
#133 = CARTESIAN_POINT ( 'NONE',  ( 6.875397087013434300E-016, -2.886751345948130400, 15.28349364905389500 ) ) ;
#134 = ORIENTED_EDGE ( 'NONE', *, *, #181, .T. ) ;
#135 = VERTEX_POINT ( 'NONE', #148 ) ;
#136 = CARTESIAN_POINT ( 'NONE',  ( 0.0000000000000000000, 1.296351071171740300E-055, -15.50000000000000200 ) ) ;
#137 = ORIENTED_EDGE ( 'NONE', *, *, #302, .F. ) ;
#138 = PERSON_AND_ORGANIZATION_ROLE ( 'creator' ) ;
#139 = DIRECTION ( 'NONE',  ( -0.0000000000000000000, 4.181777648941097500E-057, -1.000000000000000000 ) ) ;
#140 = CARTESIAN_POINT ( 'NONE',  ( -2.499999999999999600, 1.219935688843695900, 15.17177365698870700 ) ) ;
#141 = CARTESIAN_POINT ( 'NONE',  ( 2.500000000000000000, 1.443375672974064300, 1.862373841740270000 ) ) ;
#142 = VECTOR ( 'NONE', #182, 1000.000000000000000 ) ;
#143 = DIRECTION ( 'NONE',  ( -0.0000000000000000000, 4.181777648941097500E-057, -1.000000000000000000 ) ) ;
#144 = AXIS2_PLACEMENT_3D ( 'NONE', #219, #378, #561 ) ;
#145 = FACE_OUTER_BOUND ( 'NONE', #268, .T. ) ;
#146 = CARTESIAN_POINT ( 'NONE',  ( 2.500000000000000000, -1.443375672974064800, 1.862373841740270000 ) ) ;
#147 = ORIENTED_EDGE ( 'NONE', *, *, #8, .T. ) ;
#148 = CARTESIAN_POINT ( 'NONE',  ( 0.0000000000000000000, -2.350480947161670600, -15.50000000000000200 ) ) ;
#149 = CARTESIAN_POINT ( 'NONE',  ( 0.0000000000000000000, 2.383613259896424900E-056, 9.800000000000000700 ) ) ;
#150 = PERSON_AND_ORGANIZATION ( #290, #305 ) ;
#151 = CARTESIAN_POINT ( 'NONE',  ( 0.0000000000000000000, 2.509066589364658800E-056, 9.500000000000000000 ) ) ;
#152 = ORIENTED_EDGE ( 'NONE', *, *, #443, .T. ) ;
#153 = DIRECTION ( 'NONE',  ( 0.0000000000000000000, 1.000000000000000000, 4.181777648941097500E-057 ) ) ;
#154 = EDGE_LOOP ( 'NONE', ( #599, #662 ) ) ;
#155 = VERTEX_POINT ( 'NONE', #325 ) ;
#156 = PLANE ( 'NONE',  #296 ) ;
#157 = AXIS2_PLACEMENT_3D ( 'NONE', #151, #577, #769 ) ;
#158 = DIRECTION ( 'NONE',  ( 0.0000000000000000000, -4.181777648941097500E-057, 1.000000000000000000 ) ) ;
#159 = CIRCLE ( 'NONE', #328, 2.999999999999999100 ) ;
#160 = CARTESIAN_POINT ( 'NONE',  ( 2.499999999999999600, 0.2537459923902235000, 14.89674230310576400 ) ) ;
#161 = CARTESIAN_POINT ( 'NONE',  ( -2.500000000000000000, -1.443375672974065200, 15.28349364905389300 ) ) ;
#162 = CIRCLE ( 'NONE', #750, 3.103257696894238900 ) ;
#163 = ORIENTED_EDGE ( 'NONE', *, *, #88, .T. ) ;
#164 = APPROVAL ( #687, 'UNSPECIFIED' ) ;
#165 = AXIS2_PLACEMENT_3D ( 'NONE', #365, #174, #77 ) ;
#166 = APPROVAL ( #493, 'UNSPECIFIED' ) ;
#167 = FACE_OUTER_BOUND ( 'NONE', #461, .T. ) ;
#168 = ORIENTED_EDGE ( 'NONE', *, *, #456, .T. ) ;
#169 = EDGE_LOOP ( 'NONE', ( #501, #1 ) ) ;
#170 = EDGE_CURVE ( 'NONE', #38, #112, #427, .T. ) ;
#171 = VECTOR ( 'NONE', #195, 1000.000000000000100 ) ;
#172 = EDGE_LOOP ( 'NONE', ( #379, #402 ) ) ;
#173 = ADVANCED_FACE ( 'NONE', ( #250 ), #766, .T. ) ;
#174 = DIRECTION ( 'NONE',  ( -1.000000000000000000, 0.0000000000000000000, -0.0000000000000000000 ) ) ;
#175 = VECTOR ( 'NONE', #648, 1000.000000000000000 ) ;
#176 = APPROVAL_PERSON_ORGANIZATION ( #366, #166, #729 ) ;
#177 = CARTESIAN_POINT ( 'NONE',  ( 8.673617379884035500E-016, -2.886751345948130400, 10.50000000000000200 ) ) ;
#178 = ORIENTED_EDGE ( 'NONE', *, *, #764, .T. ) ;
#179 = CARTESIAN_POINT ( 'NONE',  ( 0.0000000000000000000, 2.383613259896424900E-056, 9.800000000000000700 ) ) ;
#180 = CARTESIAN_POINT ( 'NONE',  ( 0.0000000000000000000, 1.269189628594533100E-055, -14.85048094716166700 ) ) ;
#181 = EDGE_CURVE ( 'NONE', #87, #13, #98, .T. ) ;
#182 = DIRECTION ( 'NONE',  ( -0.0000000000000000000, -0.0000000000000000000, 1.000000000000000000 ) ) ;
#183 = CARTESIAN_POINT ( 'NONE',  ( 0.8106343009612311200, -2.418731414073819400, 14.94474999950267400 ) ) ;
#184 = FACE_OUTER_BOUND ( 'NONE', #256, .T. ) ;
#185 = ORIENTED_EDGE ( 'NONE', *, *, #731, .T. ) ;
#186 = CARTESIAN_POINT ( 'NONE',  ( 0.0000000000000000000, 4.700000000000000200, 15.50000000000000200 ) ) ;
#187 = CARTESIAN_POINT ( 'NONE',  ( 2.500000000000000000, -1.443375672974064800, 15.28349364905389300 ) ) ;
#188 = EDGE_LOOP ( 'NONE', ( #537, #137 ) ) ;
#189 = DIRECTION ( 'NONE',  ( -0.0000000000000000000, 4.181777648941097500E-057, -1.000000000000000000 ) ) ;
#190 = ADVANCED_FACE ( 'NONE', ( #743 ), #265, .T. ) ;
#191 = CARTESIAN_POINT ( 'NONE',  ( -2.500000000000000000, 1.443375672974063900, 15.28349364905389300 ) ) ;
#192 = DIRECTION ( 'NONE',  ( 0.7071067811865487900, 0.0000000000000000000, 0.7071067811865463500 ) ) ;
#193 = AXIS2_PLACEMENT_3D ( 'NONE', #638, #635, #262 ) ;
#194 = CARTESIAN_POINT ( 'NONE',  ( 0.0000000000000000000, 2.634519918832889600E-056, 9.200000000000004600 ) ) ;
#195 = DIRECTION ( 'NONE',  ( 0.8660254037844386000, -0.5000000000000001100, -2.090888824470549000E-057 ) ) ;
#196 = DATE_TIME_ROLE ( 'classification_date' ) ;
#197 = FACE_OUTER_BOUND ( 'NONE', #522, .T. ) ;
#198 = AXIS2_PLACEMENT_3D ( 'NONE', #207, #704, #642 ) ;
#199 = PLANE ( 'NONE',  #413 ) ;
#200 = VERTEX_POINT ( 'NONE', #760 ) ;
#201 = FACE_BOUND ( 'NONE', #172, .T. ) ;
#202 = CARTESIAN_POINT ( 'NONE',  ( 0.0000000000000000000, 2.634519918832889600E-056, 9.200000000000004600 ) ) ;
#203 = CARTESIAN_POINT ( 'NONE',  ( 0.0000000000000000000, 2.509066589364657000E-056, 9.500000000000003600 ) ) ;
#204 = ORIENTED_EDGE ( 'NONE', *, *, #229, .T. ) ;
#205 = CARTESIAN_POINT ( 'NONE',  ( -2.500000000000000000, -1.443375672974065200, 10.50000000000000200 ) ) ;
#206 = LINE ( 'NONE', #630, #398 ) ;
#207 = CARTESIAN_POINT ( 'NONE',  ( 0.0000000000000000000, 4.109507111718083200E-113, 15.50000000000000200 ) ) ;
#208 = EDGE_CURVE ( 'NONE', #289, #65, #460, .T. ) ;
#209 = EDGE_LOOP ( 'NONE', ( #299, #134, #55, #222, #78, #185 ) ) ;
#210 = ORIENTED_EDGE ( 'NONE', *, *, #571, .T. ) ;
#211 = SHAPE_DEFINITION_REPRESENTATION ( #48, #441 ) ;
#212 = DIRECTION ( 'NONE',  ( 0.0000000000000000000, 1.000000000000000000, 0.0000000000000000000 ) ) ;
#213 = CIRCLE ( 'NONE', #394, 2.999999999999999100 ) ;
#214 = EDGE_CURVE ( 'NONE', #583, #452, #572, .T. ) ;
#215 = ORIENTED_EDGE ( 'NONE', *, *, #401, .F. ) ;
#216 = DIRECTION ( 'NONE',  ( -0.0000000000000000000, 4.181777648941097500E-057, -1.000000000000000000 ) ) ;
#217 = VECTOR ( 'NONE', #706, 1000.000000000000000 ) ;
#218 = UNCERTAINTY_MEASURE_WITH_UNIT (LENGTH_MEASURE( 1.000000000000000100E-005 ), #260, 'distance_accuracy_value', 'NONE');
#219 = CARTESIAN_POINT ( 'NONE',  ( 0.0000000000000000000, 3.299999999999998900, 9.200000000000002800 ) ) ;
#220 = CARTESIAN_POINT ( 'NONE',  ( 0.0000000000000000000, -5.000000000000000000, 9.800000000000000700 ) ) ;
#221 = LINE ( 'NONE', #319, #56 ) ;
#222 = ORIENTED_EDGE ( 'NONE', *, *, #670, .T. ) ;
#223 = EDGE_CURVE ( 'NONE', #155, #58, #162, .T. ) ;
#224 = PERSON_AND_ORGANIZATION ( #290, #305 ) ;
#225 = EDGE_LOOP ( 'NONE', ( #710, #506, #722, #243 ) ) ;
#226 = CC_DESIGN_DATE_AND_TIME_ASSIGNMENT ( #587, #30, ( #505 ) ) ;
#227 = ORIENTED_EDGE ( 'NONE', *, *, #660, .T. ) ;
#228 = ORIENTED_EDGE ( 'NONE', *, *, #597, .T. ) ;
#229 = EDGE_CURVE ( 'NONE', #530, #71, #607, .T. ) ;
#230 = DIRECTION ( 'NONE',  ( -0.0000000000000000000, 4.181777648941097500E-057, -1.000000000000000000 ) ) ;
#231 = CARTESIAN_POINT ( 'NONE',  ( 0.0000000000000000000, 1.296351071171740300E-055, -15.50000000000000200 ) ) ;
#232 = EDGE_CURVE ( 'NONE', #200, #99, #353, .T. ) ;
#233 = CARTESIAN_POINT ( 'NONE',  ( 3.276224682920219100E-016, 2.350480947161670600, -15.50000000000000200 ) ) ;
#234 = FACE_OUTER_BOUND ( 'NONE', #721, .T. ) ;
#235 = CARTESIAN_POINT ( 'NONE',  ( -2.500000000000000000, -1.443375672974065200, 1.862373841740270000 ) ) ;
#236 = DIRECTION ( 'NONE',  ( -0.0000000000000000000, 4.181777648941097500E-057, -1.000000000000000000 ) ) ;
#237 = LINE ( 'NONE', #675, #10 ) ;
#238 = ADVANCED_FACE ( 'NONE', ( #201, #656 ), #97, .T. ) ;
#239 = EDGE_CURVE ( 'NONE', #71, #112, #295, .T. ) ;
#240 = CARTESIAN_POINT ( 'NONE',  ( -6.717598212430812200E-016, 2.886751345948128700, 15.28349364905389300 ) ) ;
#241 = APPROVAL_ROLE ( '' ) ;
#242 = CARTESIAN_POINT ( 'NONE',  ( -1.036359489711275800, -2.288408915586101200, 14.89621215275624300 ) ) ;
#243 = ORIENTED_EDGE ( 'NONE', *, *, #229, .F. ) ;
#244 = CC_DESIGN_PERSON_AND_ORGANIZATION_ASSIGNMENT ( #408, #138, ( #505 ) ) ;
#245 = CARTESIAN_POINT ( 'NONE',  ( -2.500000000000000000, 3.061069118652548300E-016, 14.89674230310576600 ) ) ;
#246 = ADVANCED_FACE ( 'NONE', ( #444 ), #282, .F. ) ;
#247 = DIRECTION ( 'NONE',  ( 0.0000000000000000000, 1.000000000000000000, 0.0000000000000000000 ) ) ;
#248 = CARTESIAN_POINT ( 'NONE',  ( 0.0000000000000000000, 3.299999999999998900, 9.500000000000003600 ) ) ;
#249 = CARTESIAN_POINT ( 'NONE',  ( 0.1964812621006260000, 2.773312836383615000, 15.17005513948903300 ) ) ;
#250 = FACE_OUTER_BOUND ( 'NONE', #659, .T. ) ;
#251 = EDGE_LOOP ( 'NONE', ( #168, #252, #564, #86 ) ) ;
#252 = ORIENTED_EDGE ( 'NONE', *, *, #632, .T. ) ;
#253 = CARTESIAN_POINT ( 'NONE',  ( -0.3950665264161210000, 2.658659580573970800, 15.07483382634058700 ) ) ;
#254 = CARTESIAN_POINT ( 'NONE',  ( 0.3950665264161212800, -2.658659580573973000, 15.07483382634059100 ) ) ;
#255 = DIRECTION ( 'NONE',  ( 1.000000000000000000, 0.0000000000000000000, 0.0000000000000000000 ) ) ;
#256 = EDGE_LOOP ( 'NONE', ( #343, #228, #359, #110 ) ) ;
#257 = CALENDAR_DATE ( 2023, 11, 1 ) ;
#258 = EDGE_CURVE ( 'NONE', #623, #581, #636, .T. ) ;
#259 = DIRECTION ( 'NONE',  ( -0.0000000000000000000, 4.181777648941097500E-057, -1.000000000000000000 ) ) ;
#260 =( LENGTH_UNIT ( ) NAMED_UNIT ( * ) SI_UNIT ( .MILLI., .METRE. ) );
#261 = DIRECTION ( 'NONE',  ( -0.0000000000000000000, -0.0000000000000000000, 1.000000000000000000 ) ) ;
#262 = DIRECTION ( 'NONE',  ( 0.0000000000000000000, 1.000000000000000000, 0.0000000000000000000 ) ) ;
#263 = FACE_OUTER_BOUND ( 'NONE', #738, .T. ) ;
#264 = AXIS2_PLACEMENT_3D ( 'NONE', #203, #143, #322 ) ;
#265 = CONICAL_SURFACE ( 'NONE', #116, 4.700000000000000200, 0.7853981633974453900 ) ;
#266 = COORDINATED_UNIVERSAL_TIME_OFFSET ( 6, 0, .BEHIND. ) ;
#267 = DIRECTION ( 'NONE',  ( -0.0000000000000000000, 4.181777648941097500E-057, -1.000000000000000000 ) ) ;
#268 = EDGE_LOOP ( 'NONE', ( #320, #61 ) ) ;
#269 = DIRECTION ( 'NONE',  ( 0.0000000000000000000, 1.000000000000000000, 0.0000000000000000000 ) ) ;
#270 = DIRECTION ( 'NONE',  ( -0.0000000000000000000, 4.181777648941097500E-057, -1.000000000000000000 ) ) ;
#271 = CARTESIAN_POINT ( 'NONE',  ( 0.0000000000000000000, 0.0000000000000000000, 9.200000000000002800 ) ) ;
#272 = DIRECTION ( 'NONE',  ( 1.000000000000000000, 0.0000000000000000000, 0.0000000000000000000 ) ) ;
#273 = FACE_OUTER_BOUND ( 'NONE', #350, .T. ) ;
#274 = ORIENTED_EDGE ( 'NONE', *, *, #644, .F. ) ;
#275 = EDGE_LOOP ( 'NONE', ( #529, #429, #673, #767 ) ) ;
#276 = ORIENTED_EDGE ( 'NONE', *, *, #584, .F. ) ;
#277 = CC_DESIGN_APPROVAL ( #60, ( #580 ) ) ;
#278 = APPROVAL_DATE_TIME ( #121, #164 ) ;
#279 = DIRECTION ( 'NONE',  ( -0.0000000000000000000, -0.0000000000000000000, 1.000000000000000000 ) ) ;
#280 = FACE_OUTER_BOUND ( 'NONE', #225, .T. ) ;
#281 = CARTESIAN_POINT ( 'NONE',  ( 2.500000000000000000, 1.443375672974064300, 10.50000000000000200 ) ) ;
#282 = CONICAL_SURFACE ( 'NONE', #46, 3.103257696894238900, 0.7853981633974500600 ) ;
#283 = AXIS2_PLACEMENT_3D ( 'NONE', #643, #705, #446 ) ;
#284 = APPROVAL_PERSON_ORGANIZATION ( #150, #164, #734 ) ;
#285 = CC_DESIGN_PERSON_AND_ORGANIZATION_ASSIGNMENT ( #298, #562, ( #591 ) ) ;
#286 = LINE ( 'NONE', #605, #598 ) ;
#287 = VERTEX_POINT ( 'NONE', #514 ) ;
#288 = VERTEX_POINT ( 'NONE', #389 ) ;
#289 = VERTEX_POINT ( 'NONE', #96 ) ;
#290 = PERSON ( 'UNSPECIFIED', 'UNSPECIFIED', 'UNSPECIFIED', ('UNSPECIFIED'), ('UNSPECIFIED'), ('UNSPECIFIED') ) ;
#291 = EDGE_CURVE ( 'NONE', #288, #38, #473, .T. ) ;
#292 = CARTESIAN_POINT ( 'NONE',  ( 6.875397087013434300E-016, -2.886751345948130400, 15.28349364905389500 ) ) ;
#293 = VECTOR ( 'NONE', #557, 1000.000000000000000 ) ;
#294 = ADVANCED_FACE ( 'NONE', ( #338 ), #156, .F. ) ;
#295 = LINE ( 'NONE', #519, #593 ) ;
#296 = AXIS2_PLACEMENT_3D ( 'NONE', #579, #44, #645 ) ;
#297 = DIRECTION ( 'NONE',  ( 0.0000000000000000000, -0.7071067811865454600, 0.7071067811865495700 ) ) ;
#298 = PERSON_AND_ORGANIZATION ( #290, #305 ) ;
#299 = ORIENTED_EDGE ( 'NONE', *, *, #397, .T. ) ;
#300 = ADVANCED_FACE ( 'NONE', ( #416 ), #37, .T. ) ;
#301 = CARTESIAN_POINT ( 'NONE',  ( 0.0000000000000000000, 0.0000000000000000000, 15.50000000000000200 ) ) ;
#302 = EDGE_CURVE ( 'NONE', #477, #530, #523, .T. ) ;
#303 = DIRECTION ( 'NONE',  ( -1.224646799147353200E-016, 1.000000000000000000, 0.0000000000000000000 ) ) ;
#304 = CARTESIAN_POINT ( 'NONE',  ( 6.123233995736766300E-016, -5.000000000000000000, 15.20000000000000300 ) ) ;
#305 = ORGANIZATION ( 'UNSPECIFIED', 'UNSPECIFIED', '' ) ;
#306 = ADVANCED_FACE ( 'NONE', ( #145 ), #735, .T. ) ;
#307 = CONICAL_SURFACE ( 'NONE', #448, 3.103257696894238900, 0.7853981633974500600 ) ;
#308 = CARTESIAN_POINT ( 'NONE',  ( 0.0000000000000000000, 1.254533294682323300E-057, 15.20000000000000300 ) ) ;
#309 = CARTESIAN_POINT ( 'NONE',  ( 3.103257696894238900, -6.481755355858701300E-056, 15.50000000000000200 ) ) ;
#310 = VERTEX_POINT ( 'NONE', #17 ) ;
#311 = CARTESIAN_POINT ( 'NONE',  ( -6.717598212430812200E-016, 2.886751345948128700, 15.28349364905389300 ) ) ;
#312 = VERTEX_POINT ( 'NONE', #177 ) ;
#313 = DATE_AND_TIME ( #346, #595 ) ;
#314 = CARTESIAN_POINT ( 'NONE',  ( -2.500000000000000000, 1.443375672974063900, 15.28349364905389300 ) ) ;
#315 = DIRECTION ( 'NONE',  ( 0.0000000000000000000, 1.000000000000000000, 0.0000000000000000000 ) ) ;
#316 = CC_DESIGN_SECURITY_CLASSIFICATION ( #591, ( #580 ) ) ;
#317 = DIRECTION ( 'NONE',  ( 0.8660254037844386000, -0.5000000000000001100, 0.0000000000000000000 ) ) ;
#318 = VECTOR ( 'NONE', #261, 1000.000000000000000 ) ;
#319 = CARTESIAN_POINT ( 'NONE',  ( 0.0000000000000000000, -2.350480947161670600, -15.50000000000000200 ) ) ;
#320 = ORIENTED_EDGE ( 'NONE', *, *, #401, .T. ) ;
#321 = LINE ( 'NONE', #304, #695 ) ;
#322 = DIRECTION ( 'NONE',  ( 0.0000000000000000000, 1.000000000000000000, 0.0000000000000000000 ) ) ;
#323 = EDGE_CURVE ( 'NONE', #117, #287, #465, .T. ) ;
#324 = VERTEX_POINT ( 'NONE', #233 ) ;
#325 = CARTESIAN_POINT ( 'NONE',  ( 3.103257696894238900, -6.481755355858701300E-056, 15.50000000000000200 ) ) ;
#326 = CARTESIAN_POINT ( 'NONE',  ( 2.500000000000000000, -1.443375672974064800, 10.50000000000000200 ) ) ;
#327 = CARTESIAN_POINT ( 'NONE',  ( 0.0000000000000000000, -6.481755355858701300E-056, 15.50000000000000200 ) ) ;
#328 = AXIS2_PLACEMENT_3D ( 'NONE', #194, #434, #418 ) ;
#329 = FACE_OUTER_BOUND ( 'NONE', #707, .T. ) ;
#330 = ORIENTED_EDGE ( 'NONE', *, *, #355, .F. ) ;
#331 = DIRECTION ( 'NONE',  ( 1.000000000000000000, 0.0000000000000000000, 0.0000000000000000000 ) ) ;
#332 = ORIENTED_EDGE ( 'NONE', *, *, #513, .T. ) ;
#333 = CARTESIAN_POINT ( 'NONE',  ( 0.0000000000000000000, 2.509066589364658800E-056, 9.500000000000000000 ) ) ;
#334 = EDGE_CURVE ( 'NONE', #477, #288, #321, .T. ) ;
#335 = LINE ( 'NONE', #205, #171 ) ;
#336 = CARTESIAN_POINT ( 'NONE',  ( -2.500000000000000000, 3.061069118652548300E-016, 14.89674230310576600 ) ) ;
#337 = ORIENTED_EDGE ( 'NONE', *, *, #524, .T. ) ;
#338 = FACE_OUTER_BOUND ( 'NONE', #251, .T. ) ;
#339 = CALENDAR_DATE ( 2023, 11, 1 ) ;
#340 = AXIS2_PLACEMENT_3D ( 'NONE', #696, #686, #546 ) ;
#341 = ORIENTED_EDGE ( 'NONE', *, *, #676, .T. ) ;
#342 = EDGE_CURVE ( 'NONE', #533, #58, #759, .T. ) ;
#343 = ORIENTED_EDGE ( 'NONE', *, *, #370, .F. ) ;
#344 = ORIENTED_EDGE ( 'NONE', *, *, #342, .T. ) ;
#345 = ORIENTED_EDGE ( 'NONE', *, *, #566, .F. ) ;
#346 = CALENDAR_DATE ( 2023, 11, 1 ) ;
#347 = B_SPLINE_CURVE_WITH_KNOTS ( 'NONE', 3,
 ( #521, #160, #102, #459, #714, #776 ),
 .UNSPECIFIED., .F., .F.,
 ( 4, 2, 4 ),
 ( 0.003406104987383606800, 0.004154793285369429900, 0.004903481583355253300 ),
 .UNSPECIFIED. ) ;
#348 = ORIENTED_EDGE ( 'NONE', *, *, #532, .T. ) ;
#349 = CONICAL_SURFACE ( 'NONE', #711, 2.350480947161670600, 0.7853981633974449500 ) ;
#350 = EDGE_LOOP ( 'NONE', ( #274, #114, #780, #94 ) ) ;
#351 = AXIS2_PLACEMENT_3D ( 'NONE', #554, #479, #727 ) ;
#352 = CARTESIAN_POINT ( 'NONE',  ( -0.3987867435387255600, -2.656511712216792700, 15.07278725590573600 ) ) ;
#353 = LINE ( 'NONE', #574, #217 ) ;
#354 = DIRECTION ( 'NONE',  ( 0.0000000000000000000, 1.000000000000000000, 0.0000000000000000000 ) ) ;
#355 = EDGE_CURVE ( 'NONE', #581, #38, #237, .T. ) ;
#356 = CARTESIAN_POINT ( 'NONE',  ( -3.103257696894238900, 3.800394605430916900E-016, 15.50000000000000200 ) ) ;
#357 = CYLINDRICAL_SURFACE ( 'NONE', #665, 5.000000000000000000 ) ;
#358 = DIRECTION ( 'NONE',  ( 0.0000000000000000000, 1.000000000000000000, 0.0000000000000000000 ) ) ;
#359 = ORIENTED_EDGE ( 'NONE', *, *, #360, .T. ) ;
#360 = EDGE_CURVE ( 'NONE', #310, #65, #52, .T. ) ;
#361 = DIRECTION ( 'NONE',  ( -0.0000000000000000000, -0.0000000000000000000, 1.000000000000000000 ) ) ;
#362 = CARTESIAN_POINT ( 'NONE',  ( 5.939536975864663000E-016, 4.700000000000000200, 9.500000000000000000 ) ) ;
#363 = ADVANCED_FACE ( 'NONE', ( #732 ), #415, .F. ) ;
#364 = ORIENTED_EDGE ( 'NONE', *, *, #549, .T. ) ;
#365 = CARTESIAN_POINT ( 'NONE',  ( -2.500000000000000000, 1.443375672974063700, 1.862373841740270000 ) ) ;
#366 = PERSON_AND_ORGANIZATION ( #290, #305 ) ;
#367 = CARTESIAN_POINT ( 'NONE',  ( -1.136274879960272900, 2.230722738129655700, 14.89701585421036600 ) ) ;
#368 = CARTESIAN_POINT ( 'NONE',  ( 2.500000000000000400, -0.9839169155414040400, 15.07346674265852800 ) ) ;
#369 = CARTESIAN_POINT ( 'NONE',  ( 1.363725120039726700, 2.099404280792537500, 14.89701585421036600 ) ) ;
#370 = EDGE_CURVE ( 'NONE', #324, #135, #400, .T. ) ;
#371 = DIRECTION ( 'NONE',  ( -0.0000000000000000000, 4.181777648941097500E-057, -1.000000000000000000 ) ) ;
#372 = CARTESIAN_POINT ( 'NONE',  ( 2.500000000000000000, 1.443375672974064300, 15.28349364905389300 ) ) ;
#373 = MECHANICAL_CONTEXT ( 'NONE', #81, 'mechanical' ) ;
#374 = DIRECTION ( 'NONE',  ( 0.8660254037844383700, 0.5000000000000004400, 2.090888824470550400E-057 ) ) ;
#375 = ORIENTED_EDGE ( 'NONE', *, *, #476, .T. ) ;
#376 = CIRCLE ( 'NONE', #104, 2.350480947161670600 ) ;
#377 = CARTESIAN_POINT ( 'NONE',  ( -0.1953301412284926000, 2.773977436329011900, 15.17071973943478400 ) ) ;
#378 = DIRECTION ( 'NONE',  ( -1.000000000000000000, 0.0000000000000000000, 0.0000000000000000000 ) ) ;
#379 = ORIENTED_EDGE ( 'NONE', *, *, #223, .F. ) ;
#380 = EDGE_CURVE ( 'NONE', #530, #477, #646, .T. ) ;
#381 = DIRECTION ( 'NONE',  ( 0.0000000000000000000, 0.0000000000000000000, 1.000000000000000000 ) ) ;
#382 = DIRECTION ( 'NONE',  ( 1.000000000000000000, -0.0000000000000000000, 0.0000000000000000000 ) ) ;
#383 = AXIS2_PLACEMENT_3D ( 'NONE', #20, #425, #737 ) ;
#384 = VECTOR ( 'NONE', #436, 1000.000000000000000 ) ;
#385 = EDGE_CURVE ( 'NONE', #681, #99, #719, .T. ) ;
#386 = DIRECTION ( 'NONE',  ( -0.0000000000000000000, 4.181777648941097500E-057, -1.000000000000000000 ) ) ;
#387 = ORIENTED_EDGE ( 'NONE', *, *, #214, .F. ) ;
#388 = DIRECTION ( 'NONE',  ( 0.0000000000000000000, 0.7071067811865495700, -0.7071067811865454600 ) ) ;
#389 = CARTESIAN_POINT ( 'NONE',  ( 6.123233995736766300E-016, -5.000000000000000000, 15.20000000000000300 ) ) ;
#390 = CONICAL_SURFACE ( 'NONE', #626, 5.000000000000000000, 0.7853981633974511700 ) ;
#391 = FACE_OUTER_BOUND ( 'NONE', #209, .T. ) ;
#392 = ORIENTED_EDGE ( 'NONE', *, *, #25, .F. ) ;
#393 = DIRECTION ( 'NONE',  ( 0.0000000000000000000, -4.181777648941097500E-057, 1.000000000000000000 ) ) ;
#394 = AXIS2_PLACEMENT_3D ( 'NONE', #202, #139, #629 ) ;
#395 = CARTESIAN_POINT ( 'NONE',  ( 0.0000000000000000000, 5.000000000000000000, 15.20000000000000300 ) ) ;
#396 = ORIENTED_EDGE ( 'NONE', *, *, #342, .F. ) ;
#397 = EDGE_CURVE ( 'NONE', #312, #87, #66, .T. ) ;
#398 = VECTOR ( 'NONE', #622, 1000.000000000000000 ) ;
#399 = CARTESIAN_POINT ( 'NONE',  ( -2.500000000000000000, 1.443375672974063900, 15.28349364905389300 ) ) ;
#400 = CIRCLE ( 'NONE', #351, 2.350480947161670600 ) ;
#401 = EDGE_CURVE ( 'NONE', #135, #324, #376, .T. ) ;
#402 = ORIENTED_EDGE ( 'NONE', *, *, #764, .F. ) ;
#403 = AXIS2_PLACEMENT_3D ( 'NONE', #101, #216, #715 ) ;
#404 = CONICAL_SURFACE ( 'NONE', #717, 2.350480947161670600, 0.7853981633974449500 ) ;
#405 = EDGE_LOOP ( 'NONE', ( #647, #42, #36, #664 ) ) ;
#406 = ORIENTED_EDGE ( 'NONE', *, *, #443, .F. ) ;
#407 = EDGE_LOOP ( 'NONE', ( #396, #723, #762, #600, #649, #227, #103 ) ) ;
#408 = PERSON_AND_ORGANIZATION ( #290, #305 ) ;
#409 = DIRECTION ( 'NONE',  ( 0.0000000000000000000, 1.000000000000000000, 0.0000000000000000000 ) ) ;
#410 = ADVANCED_FACE ( 'NONE', ( #234 ), #390, .T. ) ;
#411 = DIRECTION ( 'NONE',  ( 8.659560562354957500E-017, -0.7071067811865495700, -0.7071067811865454600 ) ) ;
#412 = LINE ( 'NONE', #235, #142 ) ;
#413 = AXIS2_PLACEMENT_3D ( 'NONE', #141, #70, #79 ) ;
#414 = ADVANCED_FACE ( 'NONE', ( #520 ), #357, .T. ) ;
#415 = PLANE ( 'NONE',  #165 ) ;
#416 = FACE_OUTER_BOUND ( 'NONE', #679, .T. ) ;
#417 = LOCAL_TIME ( 11, 17, 53.00000000000000000, #625 ) ;
#418 = DIRECTION ( 'NONE',  ( 0.0000000000000000000, 1.000000000000000000, 0.0000000000000000000 ) ) ;
#419 = EDGE_CURVE ( 'NONE', #13, #681, #702, .T. ) ;
#420 = ORIENTED_EDGE ( 'NONE', *, *, #334, .F. ) ;
#421 = DIRECTION ( 'NONE',  ( -0.5000000000000001100, -0.8660254037844386000, 0.0000000000000000000 ) ) ;
#422 = CARTESIAN_POINT ( 'NONE',  ( 2.878508968398378800E-016, 2.350480947161670600, -15.50000000000000200 ) ) ;
#423 = CARTESIAN_POINT ( 'NONE',  ( -0.8218418864751618800, -2.412260711560385100, 14.93437054072092900 ) ) ;
#424 = DIRECTION ( 'NONE',  ( 0.0000000000000000000, -4.181777648941097500E-057, 1.000000000000000000 ) ) ;
#425 = DIRECTION ( 'NONE',  ( -0.0000000000000000000, 4.181777648941097500E-057, -1.000000000000000000 ) ) ;
#426 = SECURITY_CLASSIFICATION_LEVEL ( 'unclassified' ) ;
#427 = CIRCLE ( 'NONE', #655, 5.000000000000000000 ) ;
#428 = ORIENTED_EDGE ( 'NONE', *, *, #208, .F. ) ;
#429 = ORIENTED_EDGE ( 'NONE', *, *, #208, .T. ) ;
#430 = CARTESIAN_POINT ( 'NONE',  ( -2.500000000000000000, 0.5008555483124559300, 14.93584149784076900 ) ) ;
#431 = ORIENTED_EDGE ( 'NONE', *, *, #566, .T. ) ;
#432 = PERSON_AND_ORGANIZATION ( #290, #305 ) ;
#433 = AXIS2_PLACEMENT_3D ( 'NONE', #752, #381, #558 ) ;
#434 = DIRECTION ( 'NONE',  ( -0.0000000000000000000, 4.181777648941097500E-057, -1.000000000000000000 ) ) ;
#435 = CARTESIAN_POINT ( 'NONE',  ( 2.101213256461272700, -1.673615306705404300, 15.07278725590573600 ) ) ;
#436 = DIRECTION ( 'NONE',  ( -0.0000000000000000000, -0.0000000000000000000, 1.000000000000000000 ) ) ;
#437 = AXIS2_PLACEMENT_3D ( 'NONE', #699, #259, #694 ) ;
#438 = CARTESIAN_POINT ( 'NONE',  ( 8.713609786167769200E-016, -2.886751345948130400, 1.862373841740270000 ) ) ;
#439 = VECTOR ( 'NONE', #374, 1000.000000000000100 ) ;
#440 = LINE ( 'NONE', #480, #666 ) ;
#441 = ADVANCED_BREP_SHAPE_REPRESENTATION ( '91290A330_NO THREADS_Alloy Steel Socket Head Screw', ( #64, #433 ), #535 ) ;
#442 = DIRECTION ( 'NONE',  ( 0.0000000000000000000, 0.0000000000000000000, -1.000000000000000000 ) ) ;
#443 = EDGE_CURVE ( 'NONE', #289, #770, #213, .T. ) ;
#444 = FACE_OUTER_BOUND ( 'NONE', #407, .T. ) ;
#445 = DIRECTION ( 'NONE',  ( 0.0000000000000000000, -4.181777648941097500E-057, 1.000000000000000000 ) ) ;
#446 = DIRECTION ( 'NONE',  ( 0.0000000000000000000, 1.000000000000000000, 0.0000000000000000000 ) ) ;
#447 = CARTESIAN_POINT ( 'NONE',  ( 0.0000000000000000000, -6.481755355858701300E-056, 15.50000000000000200 ) ) ;
#448 = AXIS2_PLACEMENT_3D ( 'NONE', #658, #279, #51 ) ;
#449 = LOCAL_TIME ( 11, 17, 53.00000000000000000, #781 ) ;
#450 = DIRECTION ( 'NONE',  ( 0.0000000000000000000, -1.000000000000000000, -4.181777648941097500E-057 ) ) ;
#451 = DIRECTION ( 'NONE',  ( 0.0000000000000000000, 1.000000000000000000, 0.0000000000000000000 ) ) ;
#452 = VERTEX_POINT ( 'NONE', #91 ) ;
#453 = EDGE_LOOP ( 'NONE', ( #364, #555, #113, #683 ) ) ;
#454 = ORIENTED_EDGE ( 'NONE', *, *, #639, .F. ) ;
#455 = AXIS2_PLACEMENT_3D ( 'NONE', #517, #267, #451 ) ;
#456 = EDGE_CURVE ( 'NONE', #312, #287, #774, .T. ) ;
#457 = CARTESIAN_POINT ( 'NONE',  ( -2.500000000000000000, -0.2534697143641935800, 14.89674230310576100 ) ) ;
#458 = VECTOR ( 'NONE', #745, 1000.000000000000000 ) ;
#459 = CARTESIAN_POINT ( 'NONE',  ( 2.500000000000000000, 0.9849427056166839600, 15.07373325822236200 ) ) ;
#460 = LINE ( 'NONE', #511, #175 ) ;
#461 = EDGE_LOOP ( 'NONE', ( #749, #746, #747, #332 ) ) ;
#462 = CARTESIAN_POINT ( 'NONE',  ( -2.500000000000000400, -0.5024865834171836600, 14.93628044913248400 ) ) ;
#463 = CALENDAR_DATE ( 2023, 11, 1 ) ;
#464 = ORIENTED_EDGE ( 'NONE', *, *, #419, .T. ) ;
#465 = B_SPLINE_CURVE_WITH_KNOTS ( 'NONE', 3,
 ( #471, #127, #547, #6, #9, #614, #123, #242, #423, #352, #118, #292 ),
 .UNSPECIFIED., .F., .F.,
 ( 4, 2, 2, 2, 2, 4 ),
 ( 2.544340436255830500E-007, 0.0007457281437449392100, 0.001118464998595596000, 0.001491201853446252400, 0.002236675563147565900, 0.002982149272848879300 ),
 .UNSPECIFIED. ) ;
#466 = ORIENTED_EDGE ( 'NONE', *, *, #181, .F. ) ;
#467 = B_SPLINE_CURVE_WITH_KNOTS ( 'NONE', 3,
 ( #336, #457, #462, #531, #526, #161 ),
 .UNSPECIFIED., .F., .F.,
 ( 4, 2, 4 ),
 ( 0.003025842580031339300, 0.003773179117946664800, 0.004520515655861989800 ),
 .UNSPECIFIED. ) ;
#468 = LINE ( 'NONE', #631, #384 ) ;
#469 = AXIS2_PLACEMENT_3D ( 'NONE', #179, #621, #358 ) ;
#470 = ORIENTED_EDGE ( 'NONE', *, *, #323, .F. ) ;
#471 = CARTESIAN_POINT ( 'NONE',  ( -2.500000000000000000, -1.443375672974065200, 15.28349364905389300 ) ) ;
#472 = ORIENTED_EDGE ( 'NONE', *, *, #660, .F. ) ;
#473 = LINE ( 'NONE', #709, #777 ) ;
#474 = CARTESIAN_POINT ( 'NONE',  ( 1.794611453598834200, 1.850631940122055900, 14.97208214815059400 ) ) ;
#475 = ADVANCED_FACE ( 'NONE', ( #280 ), #18, .T. ) ;
#476 = EDGE_CURVE ( 'NONE', #288, #71, #569, .T. ) ;
#477 = VERTEX_POINT ( 'NONE', #15 ) ;
#478 = PERSON_AND_ORGANIZATION_ROLE ( 'design_owner' ) ;
#479 = DIRECTION ( 'NONE',  ( -0.0000000000000000000, 4.181777648941097500E-057, -1.000000000000000000 ) ) ;
#480 = CARTESIAN_POINT ( 'NONE',  ( -2.500000000000000000, 1.443375672974063700, 1.862373841740270000 ) ) ;
#481 = DIRECTION ( 'NONE',  ( 0.0000000000000000000, 1.000000000000000000, 4.181777648941097500E-057 ) ) ;
#482 = LINE ( 'NONE', #684, #293 ) ;
#483 = ORIENTED_EDGE ( 'NONE', *, *, #88, .F. ) ;
#484 = AXIS2_PLACEMENT_3D ( 'NONE', #89, #556, #677 ) ;
#485 = CARTESIAN_POINT ( 'NONE',  ( -1.678158113524836700, 1.917866307361808300, 14.93437054072092900 ) ) ;
#486 = CARTESIAN_POINT ( 'NONE',  ( 0.1953301412284926500, -2.773977436329013700, 15.17071973943477800 ) ) ;
#487 = ORIENTED_EDGE ( 'NONE', *, *, #779, .T. ) ;
#488 = ADVANCED_FACE ( 'NONE', ( #197 ), #199, .F. ) ;
#489 = ORIENTED_EDGE ( 'NONE', *, *, #302, .T. ) ;
#490 = CC_DESIGN_PERSON_AND_ORGANIZATION_ASSIGNMENT ( #224, #553, ( #580 ) ) ;
#491 = CARTESIAN_POINT ( 'NONE',  ( 0.0000000000000000000, 2.509066589364657000E-056, 9.500000000000003600 ) ) ;
#492 = CARTESIAN_POINT ( 'NONE',  ( 2.500000000000000000, -5.478779088456694200E-020, 14.89674230310576600 ) ) ;
#493 = APPROVAL_STATUS ( 'not_yet_approved' ) ;
#494 = CARTESIAN_POINT ( 'NONE',  ( 0.8218418864751622100, 2.412260711560382900, 14.93437054072092700 ) ) ;
#495 = AXIS2_PLACEMENT_3D ( 'NONE', #180, #682, #21 ) ;
#496 = CARTESIAN_POINT ( 'NONE',  ( 0.0000000000000000000, -4.700000000000000200, 9.500000000000000000 ) ) ;
#497 = CARTESIAN_POINT ( 'NONE',  ( 0.7053885464011657700, -2.479495078800138900, 14.97208214815059800 ) ) ;
#498 = VECTOR ( 'NONE', #74, 1000.000000000000100 ) ;
#499 = CARTESIAN_POINT ( 'NONE',  ( 2.500000000000000000, -0.2534697143641935800, 14.89674230310576200 ) ) ;
#500 = CARTESIAN_POINT ( 'NONE',  ( 0.0000000000000000000, -6.481755355858701300E-056, 15.50000000000000200 ) ) ;
#501 = ORIENTED_EDGE ( 'NONE', *, *, #513, .F. ) ;
#502 = VECTOR ( 'NONE', #450, 1000.000000000000000 ) ;
#503 = CARTESIAN_POINT ( 'NONE',  ( 0.0000000000000000000, 1.254533294682323300E-057, 15.20000000000000300 ) ) ;
#504 = DATE_AND_TIME ( #53, #417 ) ;
#505 = PRODUCT_DEFINITION ( 'UNKNOWN', '', #580, #528 ) ;
#506 = ORIENTED_EDGE ( 'NONE', *, *, #334, .T. ) ;
#507 = AXIS2_PLACEMENT_3D ( 'NONE', #606, #12, #354 ) ;
#508 = DIRECTION ( 'NONE',  ( 0.0000000000000000000, -1.000000000000000000, 0.0000000000000000000 ) ) ;
#509 = FACE_OUTER_BOUND ( 'NONE', #515, .T. ) ;
#510 = CONICAL_SURFACE ( 'NONE', #603, 4.700000000000000200, 0.7853981633974453900 ) ;
#511 = CARTESIAN_POINT ( 'NONE',  ( 3.673940397442059400E-016, -2.999999999999999600, -15.50000000000000200 ) ) ;
#512 = ORIENTED_EDGE ( 'NONE', *, *, #239, .T. ) ;
#513 = EDGE_CURVE ( 'NONE', #669, #568, #527, .T. ) ;
#514 = CARTESIAN_POINT ( 'NONE',  ( 6.875397087013434300E-016, -2.886751345948130400, 15.28349364905389500 ) ) ;
#515 = EDGE_LOOP ( 'NONE', ( #406, #210, #131, #276 ) ) ;
#516 = APPROVAL_DATE_TIME ( #504, #166 ) ;
#517 = CARTESIAN_POINT ( 'NONE',  ( 0.0000000000000000000, 1.296351071171740300E-055, -15.50000000000000200 ) ) ;
#518 = DIRECTION ( 'NONE',  ( 0.0000000000000000000, 0.0000000000000000000, 1.000000000000000000 ) ) ;
#519 = CARTESIAN_POINT ( 'NONE',  ( 0.0000000000000000000, 5.000000000000000000, -15.50000000000000200 ) ) ;
#520 = FACE_OUTER_BOUND ( 'NONE', #405, .T. ) ;
#521 = CARTESIAN_POINT ( 'NONE',  ( 2.500000000000000000, -5.478779088456694200E-020, 14.89674230310576600 ) ) ;
#522 = EDGE_LOOP ( 'NONE', ( #464, #83, #620, #2 ) ) ;
#523 = CIRCLE ( 'NONE', #507, 4.700000000000000200 ) ;
#524 = EDGE_CURVE ( 'NONE', #112, #38, #728, .T. ) ;
#525 = CARTESIAN_POINT ( 'NONE',  ( 0.0000000000000000000, 1.296351071171740300E-055, -15.50000000000000200 ) ) ;
#526 = CARTESIAN_POINT ( 'NONE',  ( -2.499999999999999600, -1.219481799861999300, 15.17154671249785400 ) ) ;
#527 = CIRCLE ( 'NONE', #594, 3.299999999999998900 ) ;
#528 = DESIGN_CONTEXT ( 'detailed design', #678, 'design' ) ;
#529 = ORIENTED_EDGE ( 'NONE', *, *, #536, .T. ) ;
#530 = VERTEX_POINT ( 'NONE', #186 ) ;
#531 = CARTESIAN_POINT ( 'NONE',  ( -2.500000000000000000, -0.9839169155414038100, 15.07346674265852600 ) ) ;
#532 = EDGE_CURVE ( 'NONE', #99, #43, #4, .T. ) ;
#533 = VERTEX_POINT ( 'NONE', #245 ) ;
#534 = B_SPLINE_CURVE_WITH_KNOTS ( 'NONE', 3,
 ( #133, #486, #254, #497, #183, #627, #551, #612, #90, #435, #753, #187 ),
 .UNSPECIFIED., .F., .F.,
 ( 4, 2, 2, 2, 2, 4 ),
 ( 2.544340436249185500E-007, 0.0007457281437449383400, 0.001118464998595595100, 0.001491201853446251500, 0.002236675563147564200, 0.002982149272848877100 ),
 .UNSPECIFIED. ) ;
#535 =( GEOMETRIC_REPRESENTATION_CONTEXT ( 3 ) GLOBAL_UNCERTAINTY_ASSIGNED_CONTEXT ( ( #218 ) ) GLOBAL_UNIT_ASSIGNED_CONTEXT ( ( #260, #628, #32 ) ) REPRESENTATION_CONTEXT ( 'NONE', 'WORKASPACE' ) );
#536 = EDGE_CURVE ( 'NONE', #770, #289, #159, .T. ) ;
#537 = ORIENTED_EDGE ( 'NONE', *, *, #380, .F. ) ;
#538 = B_SPLINE_CURVE_WITH_KNOTS ( 'NONE', 3,
 ( #314, #140, #29, #430, #85, #691 ),
 .UNSPECIFIED., .F., .F.,
 ( 4, 2, 4 ),
 ( 0.001529540333915060300, 0.002277691456973199800, 0.003025842580031339300 ),
 .UNSPECIFIED. ) ;
#539 = CC_DESIGN_PERSON_AND_ORGANIZATION_ASSIGNMENT ( #657, #76, ( #580 ) ) ;
#540 = ADVANCED_FACE ( 'NONE', ( #661 ), #349, .T. ) ;
#541 = CARTESIAN_POINT ( 'NONE',  ( 1.474423942660134700, 2.035492285753670100, 14.90714235202776900 ) ) ;
#542 = CYLINDRICAL_SURFACE ( 'NONE', #193, 2.999999999999999600 ) ;
#543 = AXIS2_PLACEMENT_3D ( 'NONE', #301, #230, #409 ) ;
#544 = CARTESIAN_POINT ( 'NONE',  ( -2.101213256461272200, 1.673615306705403400, 15.07278725590573600 ) ) ;
#545 = CARTESIAN_POINT ( 'NONE',  ( -2.500000000000000000, 1.443375672974063900, 10.50000000000000200 ) ) ;
#546 = DIRECTION ( 'NONE',  ( -0.8660254037844384900, -0.5000000000000002200, 0.0000000000000000000 ) ) ;
#547 = CARTESIAN_POINT ( 'NONE',  ( -2.104933473583879200, -1.671467438348222900, 15.07483382634058700 ) ) ;
#548 = APPROVAL_DATE_TIME ( #651, #60 ) ;
#549 = EDGE_CURVE ( 'NONE', #452, #117, #412, .T. ) ;
#550 = DIRECTION ( 'NONE',  ( 0.0000000000000000000, 1.000000000000000000, 0.0000000000000000000 ) ) ;
#551 = CARTESIAN_POINT ( 'NONE',  ( 1.136274879960273300, -2.230722738129656600, 14.89701585421036600 ) ) ;
#552 = ADVANCED_FACE ( 'NONE', ( #756, #604 ), #744, .T. ) ;
#553 = PERSON_AND_ORGANIZATION_ROLE ( 'design_supplier' ) ;
#554 = CARTESIAN_POINT ( 'NONE',  ( 0.0000000000000000000, 1.296351071171740300E-055, -15.50000000000000200 ) ) ;
#555 = ORIENTED_EDGE ( 'NONE', *, *, #323, .T. ) ;
#556 = DIRECTION ( 'NONE',  ( -0.0000000000000000000, 4.181777648941097500E-057, -1.000000000000000000 ) ) ;
#557 = DIRECTION ( 'NONE',  ( -0.8660254037844384900, -0.5000000000000002200, -2.090888824470549600E-057 ) ) ;
#558 = DIRECTION ( 'NONE',  ( 1.000000000000000000, 0.0000000000000000000, 0.0000000000000000000 ) ) ;
#559 = DIRECTION ( 'NONE',  ( -0.0000000000000000000, 4.181777648941097500E-057, -1.000000000000000000 ) ) ;
#560 = VECTOR ( 'NONE', #92, 1000.000000000000000 ) ;
#561 = DIRECTION ( 'NONE',  ( 0.0000000000000000000, 0.0000000000000000000, 1.000000000000000000 ) ) ;
#562 = PERSON_AND_ORGANIZATION_ROLE ( 'classification_officer' ) ;
#563 = ORIENTED_EDGE ( 'NONE', *, *, #170, .F. ) ;
#564 = ORIENTED_EDGE ( 'NONE', *, *, #755, .F. ) ;
#565 = DIRECTION ( 'NONE',  ( -0.0000000000000000000, -0.0000000000000000000, 1.000000000000000000 ) ) ;
#566 = EDGE_CURVE ( 'NONE', #583, #43, #440, .T. ) ;
#567 = DIRECTION ( 'NONE',  ( -0.0000000000000000000, 4.181777648941097500E-057, -1.000000000000000000 ) ) ;
#568 = VERTEX_POINT ( 'NONE', #733 ) ;
#569 = CIRCLE ( 'NONE', #775, 5.000000000000000000 ) ;
#570 = PLANE ( 'NONE',  #129 ) ;
#571 = EDGE_CURVE ( 'NONE', #289, #568, #33, .T. ) ;
#572 = LINE ( 'NONE', #573, #502 ) ;
#573 = CARTESIAN_POINT ( 'NONE',  ( -2.500000000000000000, 1.443375672974063700, 10.50000000000000200 ) ) ;
#574 = CARTESIAN_POINT ( 'NONE',  ( -8.555810909941606700E-016, 2.886751345948128700, 1.862373841740270000 ) ) ;
#575 = CARTESIAN_POINT ( 'NONE',  ( 6.123233995736766300E-016, 5.000000000000000000, 9.800000000000000700 ) ) ;
#576 = ORIENTED_EDGE ( 'NONE', *, *, #232, .T. ) ;
#577 = DIRECTION ( 'NONE',  ( -0.0000000000000000000, 4.181777648941097500E-057, -1.000000000000000000 ) ) ;
#578 = CARTESIAN_POINT ( 'NONE',  ( 0.0000000000000000000, 1.296351071171740300E-055, -15.50000000000000200 ) ) ;
#579 = CARTESIAN_POINT ( 'NONE',  ( 8.713609786167769200E-016, -2.886751345948130400, 1.862373841740270000 ) ) ;
#580 = PRODUCT_DEFINITION_FORMATION_WITH_SPECIFIED_SOURCE ( 'ANY', '', #667, .NOT_KNOWN. ) ;
#581 = VERTEX_POINT ( 'NONE', #496 ) ;
#582 = VERTEX_POINT ( 'NONE', #608 ) ;
#583 = VERTEX_POINT ( 'NONE', #545 ) ;
#584 = EDGE_CURVE ( 'NONE', #770, #669, #633, .T. ) ;
#585 = CARTESIAN_POINT ( 'NONE',  ( 0.0000000000000000000, 5.000000000000000000, 15.20000000000000300 ) ) ;
#586 = ORIENTED_EDGE ( 'NONE', *, *, #258, .F. ) ;
#587 = DATE_AND_TIME ( #257, #115 ) ;
#588 = CARTESIAN_POINT ( 'NONE',  ( 0.0000000000000000000, 4.700000000000000200, 10.50000000000000200 ) ) ;
#589 = DIRECTION ( 'NONE',  ( 0.0000000000000000000, -1.000000000000000000, 0.0000000000000000000 ) ) ;
#590 = LINE ( 'NONE', #309, #7 ) ;
#591 = SECURITY_CLASSIFICATION ( '', '', #426 ) ;
#592 = CARTESIAN_POINT ( 'NONE',  ( -3.103257696894238900, 3.800394605430916900E-016, 15.50000000000000200 ) ) ;
#593 = VECTOR ( 'NONE', #650, 1000.000000000000000 ) ;
#594 = AXIS2_PLACEMENT_3D ( 'NONE', #491, #73, #550 ) ;
#595 = LOCAL_TIME ( 11, 17, 53.00000000000000000, #266 ) ;
#596 = VERTEX_POINT ( 'NONE', #126 ) ;
#597 = EDGE_CURVE ( 'NONE', #324, #310, #63, .T. ) ;
#598 = VECTOR ( 'NONE', #674, 1000.000000000000100 ) ;
#599 = ORIENTED_EDGE ( 'NONE', *, *, #108, .T. ) ;
#600 = ORIENTED_EDGE ( 'NONE', *, *, #385, .F. ) ;
#601 = ORIENTED_EDGE ( 'NONE', *, *, #698, .T. ) ;
#602 = APPROVAL_PERSON_ORGANIZATION ( #432, #60, #241 ) ;
#603 = AXIS2_PLACEMENT_3D ( 'NONE', #105, #393, #54 ) ;
#604 = FACE_BOUND ( 'NONE', #169, .T. ) ;
#605 = CARTESIAN_POINT ( 'NONE',  ( 2.500000000000000000, 1.443375672974064300, 10.50000000000000200 ) ) ;
#606 = CARTESIAN_POINT ( 'NONE',  ( 0.0000000000000000000, 0.0000000000000000000, 15.50000000000000200 ) ) ;
#607 = LINE ( 'NONE', #585, #671 ) ;
#608 = CARTESIAN_POINT ( 'NONE',  ( 2.500000000000000000, -1.443375672974064800, 15.28349364905389300 ) ) ;
#609 = ADVANCED_FACE ( 'NONE', ( #263 ), #80, .F. ) ;
#610 = CARTESIAN_POINT ( 'NONE',  ( 0.0000000000000000000, 2.350480947161670600, -15.50000000000000200 ) ) ;
#611 = CARTESIAN_POINT ( 'NONE',  ( 0.0000000000000000000, 1.296351071171740300E-055, -15.50000000000000200 ) ) ;
#612 = CARTESIAN_POINT ( 'NONE',  ( 1.463640510288723800, -2.041718103336094700, 14.89621215275624300 ) ) ;
#613 = APPLICATION_PROTOCOL_DEFINITION ( 'international standard', 'config_control_design', 1994, #678 ) ;
#614 = CARTESIAN_POINT ( 'NONE',  ( -1.474423942660134900, -2.035492285753671500, 14.90714235202777100 ) ) ;
#615 = ADVANCED_FACE ( 'NONE', ( #509 ), #106, .F. ) ;
#616 = PERSON_AND_ORGANIZATION ( #290, #305 ) ;
#617 = CARTESIAN_POINT ( 'NONE',  ( -0.8106343009612316800, 2.418731414073817600, 14.94474999950267400 ) ) ;
#618 = CARTESIAN_POINT ( 'NONE',  ( 2.500000000000000000, -1.443375672974064800, 15.28349364905389300 ) ) ;
#619 = EDGE_LOOP ( 'NONE', ( #431, #601, #163, #50, #387 ) ) ;
#620 = ORIENTED_EDGE ( 'NONE', *, *, #232, .F. ) ;
#621 = DIRECTION ( 'NONE',  ( -0.0000000000000000000, 4.181777648941097500E-057, -1.000000000000000000 ) ) ;
#622 = DIRECTION ( 'NONE',  ( -0.0000000000000000000, 4.181777648941097500E-057, -1.000000000000000000 ) ) ;
#623 = VERTEX_POINT ( 'NONE', #362 ) ;
#624 = CARTESIAN_POINT ( 'NONE',  ( 0.0000000000000000000, 1.254533294682323300E-057, 15.20000000000000300 ) ) ;
#625 = COORDINATED_UNIVERSAL_TIME_OFFSET ( 6, 0, .BEHIND. ) ;
#626 = AXIS2_PLACEMENT_3D ( 'NONE', #624, #688, #748 ) ;
#627 = CARTESIAN_POINT ( 'NONE',  ( 1.025576057339864500, -2.294634733168525300, 14.90714235202776900 ) ) ;
#628 =( NAMED_UNIT ( * ) PLANE_ANGLE_UNIT ( ) SI_UNIT ( $, .RADIAN. ) );
#629 = DIRECTION ( 'NONE',  ( 0.0000000000000000000, 1.000000000000000000, 0.0000000000000000000 ) ) ;
#630 = CARTESIAN_POINT ( 'NONE',  ( 0.0000000000000000000, 2.999999999999999600, -15.50000000000000200 ) ) ;
#631 = CARTESIAN_POINT ( 'NONE',  ( 2.500000000000000000, -1.443375672974064800, 1.862373841740270000 ) ) ;
#632 = EDGE_CURVE ( 'NONE', #287, #582, #534, .T. ) ;
#633 = CIRCLE ( 'NONE', #144, 0.2999999999999999300 ) ;
#634 = CARTESIAN_POINT ( 'NONE',  ( 2.500000000000000000, 1.443375672974064300, 1.862373841740270000 ) ) ;
#635 = DIRECTION ( 'NONE',  ( -0.0000000000000000000, 4.181777648941097500E-057, -1.000000000000000000 ) ) ;
#636 = CIRCLE ( 'NONE', #157, 4.700000000000000200 ) ;
#637 = PRODUCT_RELATED_PRODUCT_CATEGORY ( 'detail', '', ( #667 ) ) ;
#638 = CARTESIAN_POINT ( 'NONE',  ( 0.0000000000000000000, 1.296351071171740300E-055, -15.50000000000000200 ) ) ;
#639 = EDGE_CURVE ( 'NONE', #582, #596, #62, .T. ) ;
#640 = EDGE_LOOP ( 'NONE', ( #712, #100, #147, #59, #466 ) ) ;
#641 = DIRECTION ( 'NONE',  ( -0.0000000000000000000, 4.181777648941097500E-057, -1.000000000000000000 ) ) ;
#642 = DIRECTION ( 'NONE',  ( 0.0000000000000000000, -1.000000000000000000, -4.181777648941097500E-057 ) ) ;
#643 = CARTESIAN_POINT ( 'NONE',  ( 0.0000000000000000000, 2.509066589364658800E-056, 9.500000000000000000 ) ) ;
#644 = EDGE_CURVE ( 'NONE', #623, #112, #119, .T. ) ;
#645 = DIRECTION ( 'NONE',  ( 0.8660254037844383700, 0.5000000000000004400, 0.0000000000000000000 ) ) ;
#646 = CIRCLE ( 'NONE', #543, 4.700000000000000200 ) ;
#647 = ORIENTED_EDGE ( 'NONE', *, *, #713, .T. ) ;
#648 = DIRECTION ( 'NONE',  ( -0.0000000000000000000, 4.181777648941097500E-057, -1.000000000000000000 ) ) ;
#649 = ORIENTED_EDGE ( 'NONE', *, *, #8, .F. ) ;
#650 = DIRECTION ( 'NONE',  ( -0.0000000000000000000, 4.181777648941097500E-057, -1.000000000000000000 ) ) ;
#651 = DATE_AND_TIME ( #339, #672 ) ;
#652 = CARTESIAN_POINT ( 'NONE',  ( 0.0000000000000000000, -3.000000000000000000, -14.85048094716166700 ) ) ;
#653 = FACE_OUTER_BOUND ( 'NONE', #453, .T. ) ;
#654 = ORIENTED_EDGE ( 'NONE', *, *, #25, .T. ) ;
#655 = AXIS2_PLACEMENT_3D ( 'NONE', #149, #641, #212 ) ;
#656 = FACE_OUTER_BOUND ( 'NONE', #188, .T. ) ;
#657 = PERSON_AND_ORGANIZATION ( #290, #305 ) ;
#658 = CARTESIAN_POINT ( 'NONE',  ( 0.0000000000000000000, -6.481755355858701300E-056, 15.50000000000000200 ) ) ;
#659 = EDGE_LOOP ( 'NONE', ( #428, #152, #341, #392 ) ) ;
#660 = EDGE_CURVE ( 'NONE', #596, #155, #590, .T. ) ;
#661 = FACE_OUTER_BOUND ( 'NONE', #718, .T. ) ;
#662 = ORIENTED_EDGE ( 'NONE', *, *, #258, .T. ) ;
#663 = ORIENTED_EDGE ( 'NONE', *, *, #476, .F. ) ;
#664 = ORIENTED_EDGE ( 'NONE', *, *, #239, .F. ) ;
#665 = AXIS2_PLACEMENT_3D ( 'NONE', #231, #236, #247 ) ;
#666 = VECTOR ( 'NONE', #361, 1000.000000000000000 ) ;
#667 = PRODUCT ( '91290A330_NO THREADS_Alloy Steel Socket Head Screw', '91290A330_NO THREADS_Alloy Steel Socket Head Screw', '', ( #373 ) ) ;
#668 = CARTESIAN_POINT ( 'NONE',  ( 2.304669858771507800, 1.556149582593181500, 15.17071973943477700 ) ) ;
#669 = VERTEX_POINT ( 'NONE', #248 ) ;
#670 = EDGE_CURVE ( 'NONE', #200, #583, #482, .T. ) ;
#671 = VECTOR ( 'NONE', #388, 1000.000000000000000 ) ;
#672 = LOCAL_TIME ( 11, 17, 53.00000000000000000, #109 ) ;
#673 = ORIENTED_EDGE ( 'NONE', *, *, #360, .F. ) ;
#674 = DIRECTION ( 'NONE',  ( -0.8660254037844387100, 0.4999999999999997800, 2.090888824470547900E-057 ) ) ;
#675 = CARTESIAN_POINT ( 'NONE',  ( 0.0000000000000000000, -4.700000000000000200, 9.500000000000000000 ) ) ;
#676 = EDGE_CURVE ( 'NONE', #770, #310, #206, .T. ) ;
#677 = DIRECTION ( 'NONE',  ( 0.0000000000000000000, 1.000000000000000000, 4.181777648941097500E-057 ) ) ;
#678 = APPLICATION_CONTEXT ( 'configuration controlled 3d designs of mechanical parts and assemblies' ) ;
#679 = EDGE_LOOP ( 'NONE', ( #3, #375, #512, #563 ) ) ;
#680 = DIRECTION ( 'NONE',  ( 1.000000000000000000, 1.224646799147353200E-016, 5.121200612521658900E-073 ) ) ;
#681 = VERTEX_POINT ( 'NONE', #372 ) ;
#682 = DIRECTION ( 'NONE',  ( -0.0000000000000000000, 4.181777648941097500E-057, -1.000000000000000000 ) ) ;
#683 = ORIENTED_EDGE ( 'NONE', *, *, #731, .F. ) ;
#684 = CARTESIAN_POINT ( 'NONE',  ( -8.555810909941606700E-016, 2.886751345948128700, 10.50000000000000200 ) ) ;
#685 = CARTESIAN_POINT ( 'NONE',  ( 1.036359489711276000, 2.288408915586099800, 14.89621215275624200 ) ) ;
#686 = DIRECTION ( 'NONE',  ( -0.5000000000000003300, 0.8660254037844386000, 0.0000000000000000000 ) ) ;
#687 = APPROVAL_STATUS ( 'not_yet_approved' ) ;
#688 = DIRECTION ( 'NONE',  ( -0.0000000000000000000, 4.181777648941097500E-057, -1.000000000000000000 ) ) ;
#689 = DIRECTION ( 'NONE',  ( 0.0000000000000000000, 1.000000000000000000, 0.0000000000000000000 ) ) ;
#690 = CIRCLE ( 'NONE', #264, 3.299999999999998900 ) ;
#691 = CARTESIAN_POINT ( 'NONE',  ( -2.500000000000000000, 3.061069118652548300E-016, 14.89674230310576600 ) ) ;
#692 = CARTESIAN_POINT ( 'NONE',  ( 0.0000000000000000000, 2.999999999999999100, 9.200000000000004600 ) ) ;
#693 = EDGE_LOOP ( 'NONE', ( #586, #28, #337, #330 ) ) ;
#694 = DIRECTION ( 'NONE',  ( 0.0000000000000000000, 1.000000000000000000, 0.0000000000000000000 ) ) ;
#695 = VECTOR ( 'NONE', #411, 1000.000000000000000 ) ;
#696 = CARTESIAN_POINT ( 'NONE',  ( -8.555810909941606700E-016, 2.886751345948128700, 1.862373841740270000 ) ) ;
#697 = DIRECTION ( 'NONE',  ( 0.0000000000000000000, 0.0000000000000000000, 1.000000000000000000 ) ) ;
#698 = EDGE_CURVE ( 'NONE', #43, #533, #538, .T. ) ;
#699 = CARTESIAN_POINT ( 'NONE',  ( 0.0000000000000000000, 1.254533294682323300E-057, 15.20000000000000300 ) ) ;
#700 = PLANE ( 'NONE',  #93 ) ;
#701 = EDGE_CURVE ( 'NONE', #568, #669, #690, .T. ) ;
#702 = LINE ( 'NONE', #634, #318 ) ;
#703 = ORIENTED_EDGE ( 'NONE', *, *, #632, .F. ) ;
#704 = DIRECTION ( 'NONE',  ( 0.0000000000000000000, -4.181777648941097500E-057, 1.000000000000000000 ) ) ;
#705 = DIRECTION ( 'NONE',  ( -0.0000000000000000000, 4.181777648941097500E-057, -1.000000000000000000 ) ) ;
#706 = DIRECTION ( 'NONE',  ( -0.0000000000000000000, -0.0000000000000000000, 1.000000000000000000 ) ) ;
#707 = EDGE_LOOP ( 'NONE', ( #483, #344, #178, #472, #454, #703, #470 ) ) ;
#708 = DIRECTION ( 'NONE',  ( -0.0000000000000000000, 4.181777648941097500E-057, -1.000000000000000000 ) ) ;
#709 = CARTESIAN_POINT ( 'NONE',  ( 6.123233995736766300E-016, -5.000000000000000000, -15.50000000000000200 ) ) ;
#710 = ORIENTED_EDGE ( 'NONE', *, *, #380, .T. ) ;
#711 = AXIS2_PLACEMENT_3D ( 'NONE', #611, #424, #132 ) ;
#712 = ORIENTED_EDGE ( 'NONE', *, *, #755, .T. ) ;
#713 = EDGE_CURVE ( 'NONE', #71, #288, #716, .T. ) ;
#714 = CARTESIAN_POINT ( 'NONE',  ( 2.500000000000000000, 1.219935688843696300, 15.17177365698871000 ) ) ;
#715 = DIRECTION ( 'NONE',  ( 0.0000000000000000000, 1.000000000000000000, 0.0000000000000000000 ) ) ;
#716 = CIRCLE ( 'NONE', #57, 5.000000000000000000 ) ;
#717 = AXIS2_PLACEMENT_3D ( 'NONE', #525, #158, #589 ) ;
#718 = EDGE_LOOP ( 'NONE', ( #34, #215, #487, #654 ) ) ;
#719 = B_SPLINE_CURVE_WITH_KNOTS ( 'NONE', 3,
 ( #130, #668, #67, #474, #120, #541, #369, #685, #494, #82, #249, #311 ),
 .UNSPECIFIED., .F., .F.,
 ( 4, 2, 2, 2, 2, 4 ),
 ( 2.544340436251196200E-007, 0.0007457281437449388800, 0.001118464998595595800, 0.001491201853446252200, 0.002236675563147565500, 0.002982149272848879300 ),
 .UNSPECIFIED. ) ;
#720 = FACE_OUTER_BOUND ( 'NONE', #275, .T. ) ;
#721 = EDGE_LOOP ( 'NONE', ( #420, #489, #204, #663 ) ) ;
#722 = ORIENTED_EDGE ( 'NONE', *, *, #713, .F. ) ;
#723 = ORIENTED_EDGE ( 'NONE', *, *, #698, .F. ) ;
#724 = CC_DESIGN_APPROVAL ( #164, ( #505 ) ) ;
#725 = ADVANCED_FACE ( 'NONE', ( #720 ), #542, .T. ) ;
#726 = AXIS2_PLACEMENT_3D ( 'NONE', #578, #386, #269 ) ;
#727 = DIRECTION ( 'NONE',  ( 0.0000000000000000000, 1.000000000000000000, 0.0000000000000000000 ) ) ;
#728 = CIRCLE ( 'NONE', #469, 5.000000000000000000 ) ;
#729 = APPROVAL_ROLE ( '' ) ;
#730 = ADVANCED_FACE ( 'NONE', ( #49 ), #700, .F. ) ;
#731 = EDGE_CURVE ( 'NONE', #452, #312, #335, .T. ) ;
#732 = FACE_OUTER_BOUND ( 'NONE', #619, .T. ) ;
#733 = CARTESIAN_POINT ( 'NONE',  ( 4.041334437186264500E-016, -3.299999999999998900, 9.500000000000003600 ) ) ;
#734 = APPROVAL_ROLE ( '' ) ;
#735 = PLANE ( 'NONE',  #761 ) ;
#736 = CARTESIAN_POINT ( 'NONE',  ( -1.025576057339865100, 2.294634733168523100, 14.90714235202777300 ) ) ;
#737 = DIRECTION ( 'NONE',  ( 0.0000000000000000000, 1.000000000000000000, 4.181777648941097500E-057 ) ) ;
#738 = EDGE_LOOP ( 'NONE', ( #576, #348, #345, #24 ) ) ;
#739 = CARTESIAN_POINT ( 'NONE',  ( 2.499999999999999600, -1.219481799861998900, 15.17154671249785200 ) ) ;
#740 = ADVANCED_FACE ( 'NONE', ( #653 ), #570, .F. ) ;
#741 = APPLICATION_PROTOCOL_DEFINITION ( 'international standard', 'config_control_design', 1994, #81 ) ;
#742 = CARTESIAN_POINT ( 'NONE',  ( 8.713609786167769200E-016, -2.886751345948130400, 10.50000000000000200 ) ) ;
#743 = FACE_OUTER_BOUND ( 'NONE', #693, .T. ) ;
#744 = PLANE ( 'NONE',  #484 ) ;
#745 = DIRECTION ( 'NONE',  ( 8.659560562354908200E-017, 0.7071067811865454600, 0.7071067811865495700 ) ) ;
#746 = ORIENTED_EDGE ( 'NONE', *, *, #536, .F. ) ;
#747 = ORIENTED_EDGE ( 'NONE', *, *, #584, .T. ) ;
#748 = DIRECTION ( 'NONE',  ( 0.0000000000000000000, 1.000000000000000000, 0.0000000000000000000 ) ) ;
#749 = ORIENTED_EDGE ( 'NONE', *, *, #571, .F. ) ;
#750 = AXIS2_PLACEMENT_3D ( 'NONE', #327, #518, #331 ) ;
#751 = COORDINATED_UNIVERSAL_TIME_OFFSET ( 6, 0, .BEHIND. ) ;
#752 = CARTESIAN_POINT ( 'NONE',  ( 0.0000000000000000000, 0.0000000000000000000, 0.0000000000000000000 ) ) ;
#753 = CARTESIAN_POINT ( 'NONE',  ( 2.303518737899372200, -1.556814182538579100, 15.17005513948902300 ) ) ;
#754 = DIRECTION ( 'NONE',  ( 0.0000000000000000000, -0.7071067811865451300, 0.7071067811865499000 ) ) ;
#755 = EDGE_CURVE ( 'NONE', #87, #582, #468, .T. ) ;
#756 = FACE_OUTER_BOUND ( 'NONE', #154, .T. ) ;
#757 = DIRECTION ( 'NONE',  ( 0.0000000000000000000, 1.000000000000000000, 0.0000000000000000000 ) ) ;
#758 = CC_DESIGN_PERSON_AND_ORGANIZATION_ASSIGNMENT ( #616, #478, ( #667 ) ) ;
#759 = LINE ( 'NONE', #356, #107 ) ;
#760 = CARTESIAN_POINT ( 'NONE',  ( -8.673617379884035500E-016, 2.886751345948128700, 10.50000000000000200 ) ) ;
#761 = AXIS2_PLACEMENT_3D ( 'NONE', #610, #189, #481 ) ;
#762 = ORIENTED_EDGE ( 'NONE', *, *, #532, .F. ) ;
#763 = CARTESIAN_POINT ( 'NONE',  ( -2.500000000000000000, -1.443375672974065200, 15.28349364905389300 ) ) ;
#764 = EDGE_CURVE ( 'NONE', #58, #155, #68, .T. ) ;
#765 = DIRECTION ( 'NONE',  ( -0.0000000000000000000, -0.0000000000000000000, 1.000000000000000000 ) ) ;
#766 = CYLINDRICAL_SURFACE ( 'NONE', #726, 2.999999999999999600 ) ;
#767 = ORIENTED_EDGE ( 'NONE', *, *, #676, .F. ) ;
#768 = CLOSED_SHELL ( 'NONE', ( #69, #475, #414, #190, #615, #725, #23, #306, #540, #173, #128, #552, #16, #300, #410, #238, #246, #75, #294, #740, #363, #609, #488, #730 ) ) ;
#769 = DIRECTION ( 'NONE',  ( 0.0000000000000000000, 1.000000000000000000, 0.0000000000000000000 ) ) ;
#770 = VERTEX_POINT ( 'NONE', #692 ) ;
#771 = PLANE ( 'NONE',  #5 ) ;
#772 = CC_DESIGN_DATE_AND_TIME_ASSIGNMENT ( #313, #196, ( #591 ) ) ;
#773 = DIRECTION ( 'NONE',  ( 0.0000000000000000000, 1.000000000000000000, 4.181777648941097500E-057 ) ) ;
#774 = LINE ( 'NONE', #438, #40 ) ;
#775 = AXIS2_PLACEMENT_3D ( 'NONE', #308, #371, #689 ) ;
#776 = CARTESIAN_POINT ( 'NONE',  ( 2.500000000000000000, 1.443375672974064300, 15.28349364905389300 ) ) ;
#777 = VECTOR ( 'NONE', #270, 1000.000000000000000 ) ;
#778 = CARTESIAN_POINT ( 'NONE',  ( 2.500000000000000000, -1.443375672974064800, 10.50000000000000200 ) ) ;
#779 = EDGE_CURVE ( 'NONE', #135, #65, #221, .T. ) ;
#780 = ORIENTED_EDGE ( 'NONE', *, *, #355, .T. ) ;
#781 = COORDINATED_UNIVERSAL_TIME_OFFSET ( 6, 0, .BEHIND. ) ;
ENDSEC;
END-ISO-10303-21;
