ISO-10303-21;
HEADER;
FILE_DESCRIPTION (( 'STEP AP203' ),
    '1' );
FILE_NAME ('90447A270_NO THREADS_High-Strength Class 10.9 Steel Hex Head Screw.STEP',
    '2022-11-29T19:39:19',
    ( 'Administrator' ),
    ( 'Managed by Terraform' ),
    'SwSTEP 2.0',
    'SolidWorks 2017',
    '' );
FILE_SCHEMA (( 'CONFIG_CONTROL_DESIGN' ));
ENDSEC;

DATA;
#1 = ADVANCED_FACE ( 'NONE', ( #1116, #1062 ), #122, .F. ) ;
#2 = CARTESIAN_POINT ( 'NONE',  ( -6.150000000000001200, 0.0000000000000000000, 0.0000000000000000000 ) ) ;
#3 = DIRECTION ( 'NONE',  ( -1.000000000000000000, -0.0000000000000000000, -0.0000000000000000000 ) ) ;
#4 = DIRECTION ( 'NONE',  ( 0.0000000000000000000, 0.0000000000000000000, 1.000000000000000000 ) ) ;
#5 = ADVANCED_FACE ( 'NONE', ( #261 ), #353, .F. ) ;
#6 = CARTESIAN_POINT ( 'NONE',  ( -5.958199546428340400, 1.475866517749462500, -8.500000000000001800 ) ) ;
#7 = LINE ( 'NONE', #56, #1145 ) ;
#8 = DIRECTION ( 'NONE',  ( 1.000000000000000000, 1.224646799147353200E-016, -0.0000000000000000000 ) ) ;
#9 = FACE_OUTER_BOUND ( 'NONE', #896, .T. ) ;
#10 = CARTESIAN_POINT ( 'NONE',  ( -0.1269999999999985900, 4.416729559300638800, -8.500000000000000000 ) ) ;
#11 = ORIENTED_EDGE ( 'NONE', *, *, #1193, .F. ) ;
#12 = CARTESIAN_POINT ( 'NONE',  ( -5.783382776408206600, 8.840661067610891900, -1.687525858401828700 ) ) ;
#13 = CARTESIAN_POINT ( 'NONE',  ( -6.300000000000000700, 4.286263797015736600E-016, -3.500000000000000000 ) ) ;
#14 = ADVANCED_FACE ( 'NONE', ( #1175 ), #121, .T. ) ;
#15 = CARTESIAN_POINT ( 'NONE',  ( -0.1269999999999989700, -1.555301434917125900E-017, 0.0000000000000000000 ) ) ;
#16 = ORIENTED_EDGE ( 'NONE', *, *, #152, .F. ) ;
#17 = ORIENTED_EDGE ( 'NONE', *, *, #1177, .F. ) ;
#18 = CARTESIAN_POINT ( 'NONE',  ( 28.00000000000000000, 0.0000000000000000000, 0.0000000000000000000 ) ) ;
#19 = CARTESIAN_POINT ( 'NONE',  ( -5.959731803925761200, -6.631803377032088800, 5.513379605173568600 ) ) ;
#20 = EDGE_CURVE ( 'NONE', #525, #613, #1188, .T. ) ;
#21 = CARTESIAN_POINT ( 'NONE',  ( -6.400000000000001200, -9.814954576223639600, 7.001184156089723300E-016 ) ) ;
#22 = CARTESIAN_POINT ( 'NONE',  ( -5.500486223337259300, -4.416729559300647700, 8.500000000000000000 ) ) ;
#23 = DIRECTION ( 'NONE',  ( 0.0000000000000000000, 0.0000000000000000000, 1.000000000000000000 ) ) ;
#24 = DIRECTION ( 'NONE',  ( 0.4226182617406972200, -1.109906930436755800E-016, -0.9063077870366510500 ) ) ;
#25 = AXIS2_PLACEMENT_3D ( 'NONE', #221, #683, #870 ) ;
#26 = DIRECTION ( 'NONE',  ( 1.000000000000000000, -0.0000000000000000000, 0.0000000000000000000 ) ) ;
#27 = CIRCLE ( 'NONE', #742, 7.650000000000000400 ) ;
#28 = CARTESIAN_POINT ( 'NONE',  ( -5.451828539449615500, -9.683350746210765100, -0.1494527854352471500 ) ) ;
#29 = CIRCLE ( 'NONE', #550, 3.400000000000000400 ) ;
#30 = ORIENTED_EDGE ( 'NONE', *, *, #1087, .F. ) ;
#31 = CARTESIAN_POINT ( 'NONE',  ( 28.00000000000000000, 0.0000000000000000000, 3.875000000000003600 ) ) ;
#32 = ORIENTED_EDGE ( 'NONE', *, *, #970, .T. ) ;
#33 = CARTESIAN_POINT ( 'NONE',  ( -0.1269999999999986400, 4.416729559300637900, -7.650000000000000400 ) ) ;
#34 = DIRECTION ( 'NONE',  ( 0.0000000000000000000, 0.0000000000000000000, 1.000000000000000000 ) ) ;
#35 = DIRECTION ( 'NONE',  ( 0.0000000000000000000, 0.0000000000000000000, 1.000000000000000000 ) ) ;
#36 = EDGE_LOOP ( 'NONE', ( #290, #341 ) ) ;
#37 = CARTESIAN_POINT ( 'NONE',  ( -5.451736532357712100, 9.683567042200230900, -0.1482175157979958900 ) ) ;
#38 = ORIENTED_EDGE ( 'NONE', *, *, #438, .T. ) ;
#39 = VERTEX_POINT ( 'NONE', #1063 ) ;
#40 = DIRECTION ( 'NONE',  ( 6.123233995736764800E-017, -0.4999999999999998900, 0.8660254037844387100 ) ) ;
#41 = FACE_OUTER_BOUND ( 'NONE', #565, .T. ) ;
#42 = AXIS2_PLACEMENT_3D ( 'NONE', #362, #927, #172 ) ;
#43 = CIRCLE ( 'NONE', #987, 5.500000000000000000 ) ;
#44 = DIRECTION ( 'NONE',  ( 1.000000000000000000, 1.224646799147353200E-016, -0.0000000000000000000 ) ) ;
#45 = EDGE_CURVE ( 'NONE', #219, #403, #549, .T. ) ;
#46 = LINE ( 'NONE', #784, #340 ) ;
#47 = CARTESIAN_POINT ( 'NONE',  ( -0.1269999999999999200, 8.500000000000000000, 0.0000000000000000000 ) ) ;
#48 = VERTEX_POINT ( 'NONE', #524 ) ;
#49 = B_SPLINE_CURVE_WITH_KNOTS ( 'NONE', 3,
 ( #440, #801, #806, #624, #812, #892 ),
 .UNSPECIFIED., .F., .F.,
 ( 4, 2, 4 ),
 ( 0.0000000000000000000, 0.0004461255435837041100, 0.0008922510871674082100 ),
 .UNSPECIFIED. ) ;
#50 = PERSON ( 'UNSPECIFIED', 'UNSPECIFIED', 'UNSPECIFIED', ('UNSPECIFIED'), ('UNSPECIFIED'), ('UNSPECIFIED') ) ;
#51 = DIRECTION ( 'NONE',  ( 1.275531967630005000E-016, -1.000000000000000000, -1.020425574104004000E-015 ) ) ;
#52 = DIRECTION ( 'NONE',  ( -1.000000000000000000, -0.0000000000000000000, -0.0000000000000000000 ) ) ;
#53 = VERTEX_POINT ( 'NONE', #133 ) ;
#54 = CARTESIAN_POINT ( 'NONE',  ( -6.250000000000000900, 4.163799117101001100E-016, -3.400000000000000400 ) ) ;
#55 = ORIENTED_EDGE ( 'NONE', *, *, #1016, .F. ) ;
#56 = CARTESIAN_POINT ( 'NONE',  ( -0.1269999999999995000, 9.814954576223639600, -1.622856877788896800E-016 ) ) ;
#57 = CARTESIAN_POINT ( 'NONE',  ( -6.004456976286816100, -7.720049442604483200, -3.628482128465245500 ) ) ;
#58 = LOCAL_TIME ( 13, 39, 19.00000000000000000, #431 ) ;
#59 = CARTESIAN_POINT ( 'NONE',  ( -6.250000000000000900, 0.0000000000000000000, 0.0000000000000000000 ) ) ;
#60 = CYLINDRICAL_SURFACE ( 'NONE', #25, 0.8500000000000000900 ) ;
#61 = AXIS2_PLACEMENT_3D ( 'NONE', #873, #1040, #687 ) ;
#62 = ORIENTED_EDGE ( 'NONE', *, *, #45, .T. ) ;
#63 = EDGE_CURVE ( 'NONE', #219, #613, #235, .T. ) ;
#64 = ORIENTED_EDGE ( 'NONE', *, *, #1142, .T. ) ;
#65 = CARTESIAN_POINT ( 'NONE',  ( -6.400000000000001200, -9.569580711818048300, -0.4250000000000000400 ) ) ;
#66 = EDGE_CURVE ( 'NONE', #659, #839, #486, .T. ) ;
#67 = ORIENTED_EDGE ( 'NONE', *, *, #282, .T. ) ;
#68 = CARTESIAN_POINT ( 'NONE',  ( -0.1269999999999980600, -7.361215932167729300, -4.249999999999999100 ) ) ;
#69 = AXIS2_PLACEMENT_3D ( 'NONE', #526, #8, #509 ) ;
#70 = CARTESIAN_POINT ( 'NONE',  ( -0.1269999999999999200, 8.500000000000000000, 0.0000000000000000000 ) ) ;
#71 = VERTEX_POINT ( 'NONE', #1053 ) ;
#72 = VECTOR ( 'NONE', #198, 1000.000000000000000 ) ;
#73 = FACE_OUTER_BOUND ( 'NONE', #1069, .T. ) ;
#74 = DIRECTION ( 'NONE',  ( -0.7071067811865466800, 8.659560562354942700E-017, -0.7071067811865483500 ) ) ;
#75 = CIRCLE ( 'NONE', #89, 7.650000000000000400 ) ;
#76 = ADVANCED_FACE ( 'NONE', ( #692 ), #86, .T. ) ;
#77 = ORIENTED_EDGE ( 'NONE', *, *, #625, .T. ) ;
#78 = VERTEX_POINT ( 'NONE', #321 ) ;
#79 = EDGE_LOOP ( 'NONE', ( #638, #111 ) ) ;
#80 = ADVANCED_FACE ( 'NONE', ( #473 ), #1029, .T. ) ;
#81 = DIRECTION ( 'NONE',  ( 0.0000000000000000000, 1.000000000000000000, 1.224646799147353200E-016 ) ) ;
#82 = CARTESIAN_POINT ( 'NONE',  ( -5.656996158936401300, 5.516815922050426500, 7.444594527003720200 ) ) ;
#83 = EDGE_CURVE ( 'NONE', #278, #280, #383, .T. ) ;
#84 = PERSON_AND_ORGANIZATION ( #50, #1003 ) ;
#85 = DIRECTION ( 'NONE',  ( 0.0000000000000000000, 0.0000000000000000000, -1.000000000000000000 ) ) ;
#86 = CYLINDRICAL_SURFACE ( 'NONE', #379, 0.8500000000000000900 ) ;
#87 = CARTESIAN_POINT ( 'NONE',  ( -6.400000000000001200, 8.833459118601274100, 5.963111948670274400E-016 ) ) ;
#88 = EDGE_LOOP ( 'NONE', ( #986, #895, #665, #699 ) ) ;
#89 = AXIS2_PLACEMENT_3D ( 'NONE', #1160, #614, #816 ) ;
#90 = CARTESIAN_POINT ( 'NONE',  ( -0.1269999999999986400, 4.907477288111821600, 8.500000000000000000 ) ) ;
#91 = VERTEX_POINT ( 'NONE', #639 ) ;
#92 = DIRECTION ( 'NONE',  ( 0.0000000000000000000, 0.0000000000000000000, -1.000000000000000000 ) ) ;
#93 = ORIENTED_EDGE ( 'NONE', *, *, #83, .T. ) ;
#94 = DIRECTION ( 'NONE',  ( 1.000000000000000000, 0.0000000000000000000, -0.0000000000000000000 ) ) ;
#95 = CARTESIAN_POINT ( 'NONE',  ( -6.300000000000000700, 0.0000000000000000000, 3.400000000000000400 ) ) ;
#96 = CARTESIAN_POINT ( 'NONE',  ( 26.87500000000000700, 0.0000000000000000000, 0.0000000000000000000 ) ) ;
#97 = CARTESIAN_POINT ( 'NONE',  ( -5.500486223337395200, 5.152851152517724700, -8.074999999999457500 ) ) ;
#98 = AXIS2_PLACEMENT_3D ( 'NONE', #763, #104, #317 ) ;
#99 = CARTESIAN_POINT ( 'NONE',  ( 28.00000000000000000, 0.0000000000000000000, 5.000000000000000000 ) ) ;
#100 = APPROVAL_DATE_TIME ( #641, #1156 ) ;
#101 =( NAMED_UNIT ( * ) PLANE_ANGLE_UNIT ( ) SI_UNIT ( $, .RADIAN. ) );
#102 = PLANE ( 'NONE',  #475 ) ;
#103 = VECTOR ( 'NONE', #727, 1000.000000000000000 ) ;
#104 = DIRECTION ( 'NONE',  ( 1.000000000000000000, -0.0000000000000000000, 0.0000000000000000000 ) ) ;
#105 = CIRCLE ( 'NONE', #69, 0.8500000000000000900 ) ;
#106 = ORIENTED_EDGE ( 'NONE', *, *, #83, .F. ) ;
#107 = AXIS2_PLACEMENT_3D ( 'NONE', #1170, #1000, #154 ) ;
#108 = CARTESIAN_POINT ( 'NONE',  ( -5.958199546428339500, 1.475866517749462100, 8.499999999999998200 ) ) ;
#109 = ORIENTED_EDGE ( 'NONE', *, *, #441, .T. ) ;
#110 = EDGE_CURVE ( 'NONE', #454, #711, #950, .T. ) ;
#111 = ORIENTED_EDGE ( 'NONE', *, *, #716, .T. ) ;
#112 = VERTEX_POINT ( 'NONE', #904 ) ;
#113 = CARTESIAN_POINT ( 'NONE',  ( -0.1269999999999986400, 4.907477288111821600, 8.500000000000000000 ) ) ;
#114 = CARTESIAN_POINT ( 'NONE',  ( -6.004456976286819600, 7.002382421731024200, -4.871517871534675400 ) ) ;
#115 = DIRECTION ( 'NONE',  ( -1.000000000000000000, -0.0000000000000000000, -0.0000000000000000000 ) ) ;
#116 = CARTESIAN_POINT ( 'NONE',  ( 0.5000000000000004400, 0.0000000000000000000, 5.500000000000000000 ) ) ;
#117 = DIRECTION ( 'NONE',  ( 1.000000000000000000, 1.224646799147353200E-016, -0.0000000000000000000 ) ) ;
#118 = ORIENTED_EDGE ( 'NONE', *, *, #478, .T. ) ;
#119 = TOROIDAL_SURFACE ( 'NONE', #1183, 3.500000000000000000, 0.1000000000000000100 ) ;
#120 = DIRECTION ( 'NONE',  ( -1.000000000000000000, 0.0000000000000000000, -0.0000000000000000000 ) ) ;
#121 = CONICAL_SURFACE ( 'NONE', #930, 7.650000000000000400, 1.134464013796316700 ) ;
#122 = PLANE ( 'NONE',  #915 ) ;
#123 = CARTESIAN_POINT ( 'NONE',  ( -5.500486223337262000, -9.569580711818048300, 0.4250000000000001000 ) ) ;
#124 = CARTESIAN_POINT ( 'NONE',  ( -5.785681667021977500, 8.834567236150546100, 1.698080684103905800 ) ) ;
#125 = ORIENTED_EDGE ( 'NONE', *, *, #243, .F. ) ;
#126 = DIRECTION ( 'NONE',  ( 0.0000000000000000000, 0.0000000000000000000, 1.000000000000000000 ) ) ;
#127 = VERTEX_POINT ( 'NONE', #807 ) ;
#128 = ORIENTED_EDGE ( 'NONE', *, *, #1097, .F. ) ;
#129 = DIRECTION ( 'NONE',  ( 1.224646799147353200E-016, -1.000000000000000000, 0.0000000000000000000 ) ) ;
#130 = EDGE_CURVE ( 'NONE', #711, #219, #992, .T. ) ;
#131 = EDGE_CURVE ( 'NONE', #493, #737, #822, .T. ) ;
#132 = DIRECTION ( 'NONE',  ( 1.000000000000000000, 1.224646799147353200E-016, -0.0000000000000000000 ) ) ;
#133 = CARTESIAN_POINT ( 'NONE',  ( -5.500486223337309100, 5.152851152517522200, 8.074999999999809200 ) ) ;
#134 = AXIS2_PLACEMENT_3D ( 'NONE', #450, #724, #151 ) ;
#135 = CARTESIAN_POINT ( 'NONE',  ( -6.300000000000000700, 0.0000000000000000000, 0.0000000000000000000 ) ) ;
#136 = APPROVAL_PERSON_ORGANIZATION ( #1131, #256, #1219 ) ;
#137 = CARTESIAN_POINT ( 'NONE',  ( -6.400000000000001200, 9.814954576223641400, 1.177308829131366700E-015 ) ) ;
#138 = EDGE_CURVE ( 'NONE', #681, #1007, #1174, .T. ) ;
#139 = VECTOR ( 'NONE', #920, 1000.000000000000000 ) ;
#140 = LINE ( 'NONE', #240, #619 ) ;
#141 = ORIENTED_EDGE ( 'NONE', *, *, #849, .F. ) ;
#142 = CARTESIAN_POINT ( 'NONE',  ( 2.660869411217594100E-015, 3.258625207396728900E-031, 0.0000000000000000000 ) ) ;
#143 = EDGE_LOOP ( 'NONE', ( #425, #966 ) ) ;
#144 = ORIENTED_EDGE ( 'NONE', *, *, #393, .F. ) ;
#145 = CARTESIAN_POINT ( 'NONE',  ( -0.1269999999999986400, 4.416729559300639700, 8.500000000000000000 ) ) ;
#146 = CARTESIAN_POINT ( 'NONE',  ( -5.451736532357712100, 4.713423387133230100, -8.460323815694136900 ) ) ;
#147 = DIRECTION ( 'NONE',  ( -1.224646799147353000E-016, 1.000000000000000000, 0.0000000000000000000 ) ) ;
#148 = EDGE_CURVE ( 'NONE', #155, #219, #690, .T. ) ;
#149 = DIRECTION ( 'NONE',  ( -1.000000000000000000, -0.0000000000000000000, -0.0000000000000000000 ) ) ;
#150 = FACE_OUTER_BOUND ( 'NONE', #662, .T. ) ;
#151 = DIRECTION ( 'NONE',  ( 0.0000000000000000000, 0.0000000000000000000, -1.000000000000000000 ) ) ;
#152 = EDGE_CURVE ( 'NONE', #890, #681, #861, .T. ) ;
#153 = FACE_OUTER_BOUND ( 'NONE', #328, .T. ) ;
#154 = DIRECTION ( 'NONE',  ( 1.211755369248505100E-016, -1.000000000000000000, 0.0000000000000000000 ) ) ;
#155 = VERTEX_POINT ( 'NONE', #10 ) ;
#156 = ORIENTED_EDGE ( 'NONE', *, *, #743, .F. ) ;
#157 = DIRECTION ( 'NONE',  ( 0.4226182617406972200, 0.0000000000000000000, 0.9063077870366510500 ) ) ;
#158 = VERTEX_POINT ( 'NONE', #871 ) ;
#159 = ORIENTED_EDGE ( 'NONE', *, *, #1159, .T. ) ;
#160 = AXIS2_PLACEMENT_3D ( 'NONE', #1061, #882, #786 ) ;
#161 = CARTESIAN_POINT ( 'NONE',  ( -6.150000000000001200, 0.0000000000000000000, 0.0000000000000000000 ) ) ;
#162 = CIRCLE ( 'NONE', #913, 3.400000000000000400 ) ;
#163 = PLANE ( 'NONE',  #427 ) ;
#164 = ADVANCED_FACE ( 'NONE', ( #153 ), #548, .T. ) ;
#165 = VECTOR ( 'NONE', #1038, 1000.000000000000000 ) ;
#166 = VERTEX_POINT ( 'NONE', #333 ) ;
#167 = CARTESIAN_POINT ( 'NONE',  ( -6.400000000000001200, -5.152851152517412100, 8.075000000000001100 ) ) ;
#168 = ORIENTED_EDGE ( 'NONE', *, *, #1196, .F. ) ;
#169 = CARTESIAN_POINT ( 'NONE',  ( -6.400000000000001200, 4.907477288111822500, -8.500000000000000000 ) ) ;
#170 = ADVANCED_FACE ( 'NONE', ( #1115, #931 ), #767, .T. ) ;
#171 = VERTEX_POINT ( 'NONE', #31 ) ;
#172 = DIRECTION ( 'NONE',  ( 0.0000000000000000000, -1.224646799147351500E-016, 1.000000000000000000 ) ) ;
#173 = AXIS2_PLACEMENT_3D ( 'NONE', #423, #874, #515 ) ;
#174 = EDGE_CURVE ( 'NONE', #659, #525, #1005, .T. ) ;
#175 = ADVANCED_FACE ( 'NONE', ( #793 ), #879, .T. ) ;
#176 = LINE ( 'NONE', #818, #189 ) ;
#177 = VECTOR ( 'NONE', #52, 1000.000000000000000 ) ;
#178 = ORIENTED_EDGE ( 'NONE', *, *, #213, .T. ) ;
#179 = APPROVAL_STATUS ( 'not_yet_approved' ) ;
#180 = ORIENTED_EDGE ( 'NONE', *, *, #704, .F. ) ;
#181 = EDGE_LOOP ( 'NONE', ( #596, #386, #650, #237 ) ) ;
#182 = MECHANICAL_CONTEXT ( 'NONE', #753, 'mechanical' ) ;
#183 = AXIS2_PLACEMENT_3D ( 'NONE', #889, #518, #322 ) ;
#184 = ADVANCED_FACE ( 'NONE', ( #1199 ), #446, .F. ) ;
#185 = EDGE_CURVE ( 'NONE', #711, #556, #46, .T. ) ;
#186 = CARTESIAN_POINT ( 'NONE',  ( 26.87500000000000700, 0.0000000000000000000, 5.000000000000000000 ) ) ;
#187 = DIRECTION ( 'NONE',  ( -1.211755369248505100E-016, 1.000000000000000000, 0.0000000000000000000 ) ) ;
#188 = LINE ( 'NONE', #674, #944 ) ;
#189 = VECTOR ( 'NONE', #442, 1000.000000000000000 ) ;
#190 = ADVANCED_FACE ( 'NONE', ( #630 ), #289, .T. ) ;
#191 = ORIENTED_EDGE ( 'NONE', *, *, #1018, .F. ) ;
#192 = AXIS2_PLACEMENT_3D ( 'NONE', #676, #698, #34 ) ;
#193 = CARTESIAN_POINT ( 'NONE',  ( -5.451828539449581800, -4.712245464252615300, -8.460754132690951200 ) ) ;
#194 = ORIENTED_EDGE ( 'NONE', *, *, #961, .T. ) ;
#195 = CARTESIAN_POINT ( 'NONE',  ( -6.003638490568255800, 0.7373634456535854700, 8.500000000000000000 ) ) ;
#196 = EDGE_CURVE ( 'NONE', #525, #39, #105, .T. ) ;
#197 = UNCERTAINTY_MEASURE_WITH_UNIT (LENGTH_MEASURE( 1.000000000000000100E-005 ), #583, 'distance_accuracy_value', 'NONE');
#198 = DIRECTION ( 'NONE',  ( -1.224646799147353200E-016, 1.000000000000000000, 0.0000000000000000000 ) ) ;
#199 = CLOSED_SHELL ( 'NONE', ( #570, #1004, #80, #952, #184, #254, #294, #14, #853, #590, #776, #934, #208, #827, #576, #170, #5, #1143, #497, #581, #164, #318, #457, #1202, #190, #76, #1014, #1046, #751, #378, #653, #300, #597, #837, #175, #864, #1, #479 ) ) ;
#200 = DIRECTION ( 'NONE',  ( 0.0000000000000000000, -0.4999999999999998900, 0.8660254037844387100 ) ) ;
#201 = ORIENTED_EDGE ( 'NONE', *, *, #1177, .T. ) ;
#202 = CARTESIAN_POINT ( 'NONE',  ( -0.1269999999999980600, -7.361215932167729300, 4.249999999999999100 ) ) ;
#203 = ORIENTED_EDGE ( 'NONE', *, *, #663, .F. ) ;
#204 = CARTESIAN_POINT ( 'NONE',  ( -5.578247774632298000, 4.055059675695076700, -8.500000000000000000 ) ) ;
#205 = ORIENTED_EDGE ( 'NONE', *, *, #1011, .T. ) ;
#206 = CARTESIAN_POINT ( 'NONE',  ( -5.468795768682581700, -5.079154815080755700, 8.202645800772032200 ) ) ;
#207 = CARTESIAN_POINT ( 'NONE',  ( -6.003638490568253200, -0.7385423633419987400, -8.500000000000000000 ) ) ;
#208 = ADVANCED_FACE ( 'NONE', ( #1060 ), #602, .F. ) ;
#209 = VECTOR ( 'NONE', #1093, 1000.000000000000000 ) ;
#210 = DIRECTION ( 'NONE',  ( -0.0000000000000000000, -1.000000000000000000, 0.0000000000000000000 ) ) ;
#211 = PLANE ( 'NONE',  #1026 ) ;
#212 = TOROIDAL_SURFACE ( 'NONE', #449, 3.500000000000000000, 0.1000000000000000100 ) ;
#213 = EDGE_CURVE ( 'NONE', #613, #91, #1148, .T. ) ;
#214 = EDGE_LOOP ( 'NONE', ( #106, #488, #77, #925 ) ) ;
#215 = DIRECTION ( 'NONE',  ( 0.0000000000000000000, 0.0000000000000000000, -1.000000000000000000 ) ) ;
#216 = CARTESIAN_POINT ( 'NONE',  ( -5.468789700454054000, -9.643291160947178800, 0.2973297570596230600 ) ) ;
#217 = CARTESIAN_POINT ( 'NONE',  ( -5.500486223337396100, 9.569580711817733800, 0.4250000000005445500 ) ) ;
#218 = EDGE_CURVE ( 'NONE', #171, #752, #382, .T. ) ;
#219 = VERTEX_POINT ( 'NONE', #831 ) ;
#220 = ORIENTED_EDGE ( 'NONE', *, *, #835, .F. ) ;
#221 = CARTESIAN_POINT ( 'NONE',  ( -6.400000000000001200, -4.416729559300638800, -7.650000000000000400 ) ) ;
#222 = CARTESIAN_POINT ( 'NONE',  ( -6.400000000000001200, -8.833459118601274100, -3.794707603699265500E-016 ) ) ;
#223 = CARTESIAN_POINT ( 'NONE',  ( -6.002796958142190500, 7.740545859665809700, -3.592981292741909800 ) ) ;
#224 = CARTESIAN_POINT ( 'NONE',  ( -5.656996158936363100, -9.205615942285133400, 1.055405472996104900 ) ) ;
#225 = AXIS2_PLACEMENT_3D ( 'NONE', #59, #997, #447 ) ;
#226 = ORIENTED_EDGE ( 'NONE', *, *, #110, .T. ) ;
#227 = CARTESIAN_POINT ( 'NONE',  ( -5.500486223337261100, 4.416729559300638800, -8.500000000000000000 ) ) ;
#228 = CARTESIAN_POINT ( 'NONE',  ( -5.956482091478085800, -8.108132564333516300, 2.956302444070625100 ) ) ;
#229 = LOCAL_TIME ( 13, 39, 19.00000000000000000, #519 ) ;
#230 = APPROVAL_PERSON_ORGANIZATION ( #484, #1156, #394 ) ;
#231 = CARTESIAN_POINT ( 'NONE',  ( -6.400000000000001200, 9.569580711818048300, -0.4249999999999998800 ) ) ;
#232 = CIRCLE ( 'NONE', #319, 3.400000000000000400 ) ;
#233 = CARTESIAN_POINT ( 'NONE',  ( -5.500486223337259300, -4.416729559300647700, -8.500000000000000000 ) ) ;
#234 = DIRECTION ( 'NONE',  ( 0.0000000000000000000, 0.0000000000000000000, -1.000000000000000000 ) ) ;
#235 = CIRCLE ( 'NONE', #1113, 8.500000000000000000 ) ;
#236 = DIRECTION ( 'NONE',  ( -1.211755369248505100E-016, 1.000000000000000000, 0.0000000000000000000 ) ) ;
#237 = ORIENTED_EDGE ( 'NONE', *, *, #785, .F. ) ;
#238 = PRODUCT_DEFINITION_FORMATION_WITH_SPECIFIED_SOURCE ( 'ANY', '', #1066, .NOT_KNOWN. ) ;
#239 = EDGE_LOOP ( 'NONE', ( #848, #310 ) ) ;
#240 = CARTESIAN_POINT ( 'NONE',  ( -0.1269999999999977800, -4.907477288111821600, -8.500000000000000000 ) ) ;
#241 = AXIS2_PLACEMENT_3D ( 'NONE', #116, #210, #781 ) ;
#242 = CARTESIAN_POINT ( 'NONE',  ( -5.500486223337262000, 9.569580711818048300, -0.4249999999999998800 ) ) ;
#243 = EDGE_CURVE ( 'NONE', #682, #1065, #778, .T. ) ;
#244 = CIRCLE ( 'NONE', #42, 0.5000000000000004400 ) ;
#245 = CIRCLE ( 'NONE', #938, 0.09999999999999982500 ) ;
#246 = ORIENTED_EDGE ( 'NONE', *, *, #218, .F. ) ;
#247 = CARTESIAN_POINT ( 'NONE',  ( -0.1269999999999977800, -8.833459118601274100, -3.794707603699265500E-016 ) ) ;
#248 = VERTEX_POINT ( 'NONE', #252 ) ;
#249 = ORIENTED_EDGE ( 'NONE', *, *, #791, .T. ) ;
#250 = CARTESIAN_POINT ( 'NONE',  ( -6.150000000000001200, 4.163799117101001100E-016, -3.400000000000000400 ) ) ;
#251 = CARTESIAN_POINT ( 'NONE',  ( -6.004456976286813400, 7.720049442604480600, 3.628482128465247800 ) ) ;
#252 = CARTESIAN_POINT ( 'NONE',  ( -5.500486223337309100, -5.152851152517522200, -8.074999999999809200 ) ) ;
#253 = CARTESIAN_POINT ( 'NONE',  ( -6.400000000000001200, 9.814954576223639600, -4.949351114049567400E-016 ) ) ;
#254 = ADVANCED_FACE ( 'NONE', ( #573 ), #119, .T. ) ;
#255 = CALENDAR_DATE ( 2022, 29, 11 ) ;
#256 = APPROVAL ( #941, 'UNSPECIFIED' ) ;
#257 = DATE_AND_TIME ( #520, #1027 ) ;
#258 = EDGE_CURVE ( 'NONE', #612, #91, #591, .T. ) ;
#259 = VECTOR ( 'NONE', #1037, 1000.000000000000000 ) ;
#260 = DIRECTION ( 'NONE',  ( 1.000000000000000000, 1.224646799147353200E-016, -0.0000000000000000000 ) ) ;
#261 = FACE_OUTER_BOUND ( 'NONE', #1031, .T. ) ;
#262 = EDGE_CURVE ( 'NONE', #53, #158, #640, .T. ) ;
#263 = ORIENTED_EDGE ( 'NONE', *, *, #785, .T. ) ;
#264 = DIRECTION ( 'NONE',  ( -1.211755369248505100E-016, 1.000000000000000000, 0.0000000000000000000 ) ) ;
#265 = CARTESIAN_POINT ( 'NONE',  ( -5.657421811501217600, -3.686820305182537000, 8.500000000000000000 ) ) ;
#266 = AXIS2_PLACEMENT_3D ( 'NONE', #161, #734, #823 ) ;
#267 = DIRECTION ( 'NONE',  ( -0.4226182617406961100, 0.9063077870366516000, 1.109906930436756400E-016 ) ) ;
#268 = ORIENTED_EDGE ( 'NONE', *, *, #258, .T. ) ;
#269 = ORIENTED_EDGE ( 'NONE', *, *, #466, .F. ) ;
#270 = EDGE_CURVE ( 'NONE', #626, #908, #656, .T. ) ;
#271 = ORIENTED_EDGE ( 'NONE', *, *, #560, .F. ) ;
#272 = CARTESIAN_POINT ( 'NONE',  ( 0.5000000000000004400, 0.0000000000000000000, 0.0000000000000000000 ) ) ;
#273 = ORIENTED_EDGE ( 'NONE', *, *, #607, .T. ) ;
#274 = VECTOR ( 'NONE', #1152, 1000.000000000000000 ) ;
#275 = CARTESIAN_POINT ( 'NONE',  ( -6.250000000000000900, 4.041334437186266000E-016, -3.300000000000000300 ) ) ;
#276 = LINE ( 'NONE', #250, #209 ) ;
#277 = CIRCLE ( 'NONE', #1195, 3.400000000000000400 ) ;
#278 = VERTEX_POINT ( 'NONE', #648 ) ;
#279 = VERTEX_POINT ( 'NONE', #744 ) ;
#280 = VERTEX_POINT ( 'NONE', #202 ) ;
#281 = ORIENTED_EDGE ( 'NONE', *, *, #185, .F. ) ;
#282 = EDGE_CURVE ( 'NONE', #1006, #538, #277, .T. ) ;
#283 = PERSON_AND_ORGANIZATION_ROLE ( 'classification_officer' ) ;
#284 = CARTESIAN_POINT ( 'NONE',  ( 28.00000000000000000, 0.0000000000000000000, 0.0000000000000000000 ) ) ;
#285 = CALENDAR_DATE ( 2022, 29, 11 ) ;
#286 = DIRECTION ( 'NONE',  ( -1.224646799147353000E-016, 1.000000000000000000, 0.0000000000000000000 ) ) ;
#287 = AXIS2_PLACEMENT_3D ( 'NONE', #933, #381, #1121 ) ;
#288 = DIRECTION ( 'NONE',  ( 0.0000000000000000000, 0.4999999999999998900, -0.8660254037844387100 ) ) ;
#289 = CYLINDRICAL_SURFACE ( 'NONE', #373, 0.8500000000000000900 ) ;
#290 = ORIENTED_EDGE ( 'NONE', *, *, #466, .T. ) ;
#291 = ORIENTED_EDGE ( 'NONE', *, *, #688, .T. ) ;
#292 = CARTESIAN_POINT ( 'NONE',  ( -6.250000000000000900, 0.0000000000000000000, 0.0000000000000000000 ) ) ;
#293 = CARTESIAN_POINT ( 'NONE',  ( -5.500486223337259300, -4.416729559300647700, -8.500000000000000000 ) ) ;
#294 = ADVANCED_FACE ( 'NONE', ( #846 ), #759, .F. ) ;
#295 = DIRECTION ( 'NONE',  ( -1.000000000000000000, -1.224646799147353200E-016, 0.0000000000000000000 ) ) ;
#296 = ORIENTED_EDGE ( 'NONE', *, *, #270, .T. ) ;
#297 = CARTESIAN_POINT ( 'NONE',  ( -0.1269999999999989500, 5.152851152517411200, -8.075000000000002800 ) ) ;
#298 = CARTESIAN_POINT ( 'NONE',  ( -6.400000000000001200, 4.907477288111821600, 8.500000000000000000 ) ) ;
#299 = PRODUCT_RELATED_PRODUCT_CATEGORY ( 'detail', '', ( #1066 ) ) ;
#300 = ADVANCED_FACE ( 'NONE', ( #9 ), #424, .F. ) ;
#301 = DIRECTION ( 'NONE',  ( 1.000000000000000000, -0.0000000000000000000, -0.0000000000000000000 ) ) ;
#302 = CARTESIAN_POINT ( 'NONE',  ( 28.00000000000000000, 0.0000000000000000000, 3.875000000000003600 ) ) ;
#303 = CARTESIAN_POINT ( 'NONE',  ( -5.773792728517323200, 2.956243275575066100, 8.500000000000000000 ) ) ;
#304 = CIRCLE ( 'NONE', #456, 8.227647621095281100 ) ;
#305 = EDGE_CURVE ( 'NONE', #1140, #279, #608, .T. ) ;
#306 = FACE_OUTER_BOUND ( 'NONE', #852, .T. ) ;
#307 = FACE_OUTER_BOUND ( 'NONE', #994, .T. ) ;
#308 = AXIS2_PLACEMENT_3D ( 'NONE', #222, #883, #234 ) ;
#309 = DIRECTION ( 'NONE',  ( -1.000000000000000000, 0.0000000000000000000, -0.0000000000000000000 ) ) ;
#310 = ORIENTED_EDGE ( 'NONE', *, *, #506, .T. ) ;
#311 = DIRECTION ( 'NONE',  ( -0.4226182617406959400, -0.9063077870366517100, 0.0000000000000000000 ) ) ;
#312 = EDGE_CURVE ( 'NONE', #1065, #127, #567, .T. ) ;
#313 = CARTESIAN_POINT ( 'NONE',  ( -0.1269999999999977800, -4.416729559300643300, -8.500000000000000000 ) ) ;
#314 = ORIENTED_EDGE ( 'NONE', *, *, #1210, .T. ) ;
#315 = ORIENTED_EDGE ( 'NONE', *, *, #1213, .T. ) ;
#316 = CARTESIAN_POINT ( 'NONE',  ( -5.657871685585494200, 5.518851964387558900, -7.441067998229449600 ) ) ;
#317 = DIRECTION ( 'NONE',  ( 0.0000000000000000000, 0.0000000000000000000, 1.000000000000000000 ) ) ;
#318 = ADVANCED_FACE ( 'NONE', ( #307 ), #60, .T. ) ;
#319 = AXIS2_PLACEMENT_3D ( 'NONE', #1191, #924, #741 ) ;
#320 = DIRECTION ( 'NONE',  ( 1.224646799147353200E-016, -1.000000000000000000, 0.0000000000000000000 ) ) ;
#321 = CARTESIAN_POINT ( 'NONE',  ( -0.1269999999999969200, -9.569580711818048300, 0.4250000000000000400 ) ) ;
#322 = DIRECTION ( 'NONE',  ( 1.275531967630005000E-016, -1.000000000000000000, 0.0000000000000000000 ) ) ;
#323 = COORDINATED_UNIVERSAL_TIME_OFFSET ( 6, 0, .BEHIND. ) ;
#324 = CARTESIAN_POINT ( 'NONE',  ( -5.783382776408206600, -8.840661067610891900, 1.687525858401828400 ) ) ;
#325 = CIRCLE ( 'NONE', #439, 8.500000000000000000 ) ;
#326 = ORIENTED_EDGE ( 'NONE', *, *, #842, .T. ) ;
#327 = CC_DESIGN_PERSON_AND_ORGANIZATION_ASSIGNMENT ( #84, #487, ( #238 ) ) ;
#328 = EDGE_LOOP ( 'NONE', ( #435, #1123, #756, #865 ) ) ;
#329 = DIRECTION ( 'NONE',  ( 0.0000000000000000000, 0.0000000000000000000, 1.000000000000000000 ) ) ;
#330 = EDGE_CURVE ( 'NONE', #91, #863, #325, .T. ) ;
#331 = EDGE_LOOP ( 'NONE', ( #1033, #1190, #118, #281, #388 ) ) ;
#332 = CARTESIAN_POINT ( 'NONE',  ( -6.300000000000000700, 0.0000000000000000000, 3.500000000000000000 ) ) ;
#333 = CARTESIAN_POINT ( 'NONE',  ( -5.500486223337395200, -9.569580711817733800, -0.4250000000005436700 ) ) ;
#334 = AXIS2_PLACEMENT_3D ( 'NONE', #545, #260, #360 ) ;
#335 = CARTESIAN_POINT ( 'NONE',  ( -6.400000000000001200, -1.062379491810126000E-015, -7.650000000000000400 ) ) ;
#336 = EDGE_CURVE ( 'NONE', #434, #635, #351, .T. ) ;
#337 = CYLINDRICAL_SURFACE ( 'NONE', #637, 0.8500000000000000900 ) ;
#338 = CIRCLE ( 'NONE', #334, 0.8500000000000000900 ) ;
#339 = DIRECTION ( 'NONE',  ( 1.000000000000000000, 1.224646799147353200E-016, -0.0000000000000000000 ) ) ;
#340 = VECTOR ( 'NONE', #969, 1000.000000000000000 ) ;
#341 = ORIENTED_EDGE ( 'NONE', *, *, #1207, .T. ) ;
#342 = DIRECTION ( 'NONE',  ( 1.000000000000000000, 0.0000000000000000000, -0.0000000000000000000 ) ) ;
#343 = ORIENTED_EDGE ( 'NONE', *, *, #814, .T. ) ;
#344 = PLANE ( 'NONE',  #1162 ) ;
#345 = ORIENTED_EDGE ( 'NONE', *, *, #835, .T. ) ;
#346 = CARTESIAN_POINT ( 'NONE',  ( -5.500486223337395200, 5.152851152517724700, -8.074999999999457500 ) ) ;
#347 = CARTESIAN_POINT ( 'NONE',  ( -6.002796958142194900, -6.981886004669716400, -4.907018707257979200 ) ) ;
#348 = DIRECTION ( 'NONE',  ( -1.211755369248505100E-016, 1.000000000000000000, 0.0000000000000000000 ) ) ;
#349 = EDGE_CURVE ( 'NONE', #863, #39, #507, .T. ) ;
#350 = LINE ( 'NONE', #701, #274 ) ;
#351 = CIRCLE ( 'NONE', #695, 3.500000000000000000 ) ;
#352 = B_SPLINE_CURVE_WITH_KNOTS ( 'NONE', 3,
 ( #599, #204, #498, #868, #593, #6, #420, #1058 ),
 .UNSPECIFIED., .F., .F.,
 ( 4, 2, 2, 4 ),
 ( 0.02160672760192165100, 0.02270583890351262500, 0.02380495020510359900, 0.02600317280828554800 ),
 .UNSPECIFIED. ) ;
#353 = CYLINDRICAL_SURFACE ( 'NONE', #996, 3.400000000000000400 ) ;
#354 = DIRECTION ( 'NONE',  ( 1.000000000000000000, 1.224646799147353200E-016, -0.0000000000000000000 ) ) ;
#355 = ORIENTED_EDGE ( 'NONE', *, *, #1124, .T. ) ;
#356 = DIRECTION ( 'NONE',  ( 0.0000000000000000000, -0.4999999999999998900, -0.8660254037844387100 ) ) ;
#357 = AXIS2_PLACEMENT_3D ( 'NONE', #253, #718, #356 ) ;
#358 = ORIENTED_EDGE ( 'NONE', *, *, #897, .F. ) ;
#359 = ORIENTED_EDGE ( 'NONE', *, *, #312, .F. ) ;
#360 = DIRECTION ( 'NONE',  ( 1.275531967630005000E-016, -1.000000000000000000, -3.061276722312012200E-015 ) ) ;
#361 = B_SPLINE_CURVE_WITH_KNOTS ( 'NONE', 3,
 ( #346, #1181, #459, #146, #808, #1182 ),
 .UNSPECIFIED., .F., .F.,
 ( 4, 2, 4 ),
 ( 8.364983378631891600E-017, 0.0004461255435836646400, 0.0008922510871672456900 ),
 .UNSPECIFIED. ) ;
#362 = CARTESIAN_POINT ( 'NONE',  ( 0.5000000000000004400, 6.735557395310442000E-016, -5.500000000000000000 ) ) ;
#363 = CARTESIAN_POINT ( 'NONE',  ( -5.956482091478097400, 6.614299300002017800, 5.543697555929247400 ) ) ;
#364 = DATE_AND_TIME ( #546, #229 ) ;
#365 = CC_DESIGN_DATE_AND_TIME_ASSIGNMENT ( #364, #1118, ( #1112 ) ) ;
#366 = VECTOR ( 'NONE', #790, 1000.000000000000000 ) ;
#367 = DIRECTION ( 'NONE',  ( -1.000000000000000000, -0.0000000000000000000, -0.0000000000000000000 ) ) ;
#368 = CIRCLE ( 'NONE', #134, 0.09999999999999982500 ) ;
#369 = DIRECTION ( 'NONE',  ( 0.0000000000000000000, 0.0000000000000000000, 1.000000000000000000 ) ) ;
#370 = FACE_OUTER_BOUND ( 'NONE', #1217, .T. ) ;
#371 = ORIENTED_EDGE ( 'NONE', *, *, #1018, .T. ) ;
#372 = CARTESIAN_POINT ( 'NONE',  ( 0.0000000000000000000, 0.0000000000000000000, 0.0000000000000000000 ) ) ;
#373 = AXIS2_PLACEMENT_3D ( 'NONE', #964, #1072, #513 ) ;
#374 = VERTEX_POINT ( 'NONE', #227 ) ;
#375 = ORIENTED_EDGE ( 'NONE', *, *, #916, .T. ) ;
#376 = EDGE_CURVE ( 'NONE', #538, #1006, #29, .T. ) ;
#377 = CARTESIAN_POINT ( 'NONE',  ( 28.00000000000000000, 0.0000000000000000000, 0.0000000000000000000 ) ) ;
#378 = ADVANCED_FACE ( 'NONE', ( #534 ), #888, .F. ) ;
#379 = AXIS2_PLACEMENT_3D ( 'NONE', #700, #1057, #215 ) ;
#380 = CARTESIAN_POINT ( 'NONE',  ( -5.500486223337259300, -4.416729559300647700, 8.500000000000000000 ) ) ;
#381 = DIRECTION ( 'NONE',  ( 1.000000000000000000, 1.224646799147353200E-016, -0.0000000000000000000 ) ) ;
#382 = CIRCLE ( 'NONE', #1138, 3.875000000000003600 ) ;
#383 = CIRCLE ( 'NONE', #287, 8.500000000000000000 ) ;
#384 = ORIENTED_EDGE ( 'NONE', *, *, #646, .T. ) ;
#385 = CARTESIAN_POINT ( 'NONE',  ( 28.00000000000000000, 0.0000000000000000000, 0.0000000000000000000 ) ) ;
#386 = ORIENTED_EDGE ( 'NONE', *, *, #305, .F. ) ;
#387 = CARTESIAN_POINT ( 'NONE',  ( -6.400000000000001200, 9.569580711818048300, 0.4250000000000000400 ) ) ;
#388 = ORIENTED_EDGE ( 'NONE', *, *, #110, .F. ) ;
#389 = CARTESIAN_POINT ( 'NONE',  ( -5.468789700454156100, -5.079140703388697300, -8.202670242939857900 ) ) ;
#390 = APPROVAL ( #572, 'UNSPECIFIED' ) ;
#391 = CARTESIAN_POINT ( 'NONE',  ( 0.5000000000000004400, 0.0000000000000000000, 5.000000000000000000 ) ) ;
#392 = MANIFOLD_SOLID_BREP ( 'Fillet4', #199 ) ;
#393 = EDGE_CURVE ( 'NONE', #635, #434, #402, .T. ) ;
#394 = APPROVAL_ROLE ( '' ) ;
#395 = CARTESIAN_POINT ( 'NONE',  ( -0.1269999999999989700, -1.555301434917125900E-017, 0.0000000000000000000 ) ) ;
#396 = CARTESIAN_POINT ( 'NONE',  ( -0.1269999999999977800, -4.907477288111820700, 8.500000000000000000 ) ) ;
#397 = DIRECTION ( 'NONE',  ( 1.000000000000000000, 0.0000000000000000000, 0.0000000000000000000 ) ) ;
#398 = AXIS2_PLACEMENT_3D ( 'NONE', #561, #651, #504 ) ;
#399 = DIRECTION ( 'NONE',  ( 1.000000000000000000, 1.224646799147353200E-016, -0.0000000000000000000 ) ) ;
#400 = VECTOR ( 'NONE', #1101, 1000.000000000000000 ) ;
#401 = EDGE_CURVE ( 'NONE', #158, #659, #412, .T. ) ;
#402 = CIRCLE ( 'NONE', #670, 3.500000000000000000 ) ;
#403 = VERTEX_POINT ( 'NONE', #313 ) ;
#404 = APPLICATION_PROTOCOL_DEFINITION ( 'international standard', 'config_control_design', 1994, #1204 ) ;
#405 = CARTESIAN_POINT ( 'NONE',  ( -6.400000000000001200, -4.907477288111821600, 8.500000000000000000 ) ) ;
#406 = CARTESIAN_POINT ( 'NONE',  ( -5.500486223337395200, -5.152851152517724700, 8.074999999999457500 ) ) ;
#407 = VERTEX_POINT ( 'NONE', #1052 ) ;
#408 = CARTESIAN_POINT ( 'NONE',  ( -6.400000000000001200, 0.0000000000000000000, 0.0000000000000000000 ) ) ;
#409 = CARTESIAN_POINT ( 'NONE',  ( -6.003638490568254900, -7.528878382009749800E-020, 8.500000000000000000 ) ) ;
#410 = CARTESIAN_POINT ( 'NONE',  ( -6.300000000000000700, 0.0000000000000000000, 0.0000000000000000000 ) ) ;
#411 = CARTESIAN_POINT ( 'NONE',  ( -6.004456976286819600, -7.002382421731024200, 4.871517871534675400 ) ) ;
#412 = B_SPLINE_CURVE_WITH_KNOTS ( 'NONE', 3,
 ( #601, #496, #788, #37, #989, #242 ),
 .UNSPECIFIED., .F., .F.,
 ( 4, 2, 4 ),
 ( 8.410476041503264700E-017, 0.0004461255435836651300, 0.0008922510871672462300 ),
 .UNSPECIFIED. ) ;
#413 = EDGE_CURVE ( 'NONE', #645, #493, #644, .T. ) ;
#414 = FACE_OUTER_BOUND ( 'NONE', #553, .T. ) ;
#415 = VECTOR ( 'NONE', #877, 1000.000000000000000 ) ;
#416 = AXIS2_PLACEMENT_3D ( 'NONE', #857, #399, #666 ) ;
#417 = CARTESIAN_POINT ( 'NONE',  ( -6.150000000000001200, 0.0000000000000000000, 0.0000000000000000000 ) ) ;
#418 = VECTOR ( 'NONE', #983, 1000.000000000000000 ) ;
#419 = DIRECTION ( 'NONE',  ( -1.000000000000000000, 0.0000000000000000000, 0.0000000000000000000 ) ) ;
#420 = CARTESIAN_POINT ( 'NONE',  ( -6.003638490568255800, 0.7373634456535830300, -8.500000000000000000 ) ) ;
#421 = EDGE_CURVE ( 'NONE', #448, #711, #140, .T. ) ;
#422 = EDGE_LOOP ( 'NONE', ( #180, #246, #1168, #168 ) ) ;
#423 = CARTESIAN_POINT ( 'NONE',  ( 28.00000000000000000, 0.0000000000000000000, 0.0000000000000000000 ) ) ;
#424 = PLANE ( 'NONE',  #528 ) ;
#425 = ORIENTED_EDGE ( 'NONE', *, *, #749, .T. ) ;
#426 = ORIENTED_EDGE ( 'NONE', *, *, #970, .F. ) ;
#427 = AXIS2_PLACEMENT_3D ( 'NONE', #70, #469, #1108 ) ;
#428 = CARTESIAN_POINT ( 'NONE',  ( -5.500486223337262000, 9.569580711818048300, -0.4249999999999998800 ) ) ;
#429 = PLANE ( 'NONE',  #494 ) ;
#430 = ORIENTED_EDGE ( 'NONE', *, *, #349, .F. ) ;
#431 = COORDINATED_UNIVERSAL_TIME_OFFSET ( 6, 0, .BEHIND. ) ;
#432 = CARTESIAN_POINT ( 'NONE',  ( -0.1269999999999977500, -5.152851152517412100, -8.075000000000001100 ) ) ;
#433 = LINE ( 'NONE', #396, #165 ) ;
#434 = VERTEX_POINT ( 'NONE', #901 ) ;
#435 = ORIENTED_EDGE ( 'NONE', *, *, #478, .F. ) ;
#436 = ORIENTED_EDGE ( 'NONE', *, *, #413, .F. ) ;
#437 = DIRECTION ( 'NONE',  ( 1.000000000000000000, 1.224646799147353200E-016, -0.0000000000000000000 ) ) ;
#438 = EDGE_CURVE ( 'NONE', #635, #1006, #245, .T. ) ;
#439 = AXIS2_PLACEMENT_3D ( 'NONE', #15, #685, #691 ) ;
#440 = CARTESIAN_POINT ( 'NONE',  ( -5.500486223337261100, 4.416729559300638800, 8.500000000000000000 ) ) ;
#441 = EDGE_CURVE ( 'NONE', #155, #1164, #965, .T. ) ;
#442 = DIRECTION ( 'NONE',  ( -1.000000000000000000, -0.0000000000000000000, -0.0000000000000000000 ) ) ;
#443 = DIRECTION ( 'NONE',  ( 0.0000000000000000000, 0.4999999999999998900, 0.8660254037844387100 ) ) ;
#444 = FACE_OUTER_BOUND ( 'NONE', #79, .T. ) ;
#445 = CARTESIAN_POINT ( 'NONE',  ( -5.783382776408233300, -5.881770796724660900, -6.812474141598015000 ) ) ;
#446 = TOROIDAL_SURFACE ( 'NONE', #464, 3.300000000000000300, 0.1000000000000000100 ) ;
#447 = DIRECTION ( 'NONE',  ( 0.0000000000000000000, 0.0000000000000000000, 1.000000000000000000 ) ) ;
#448 = VERTEX_POINT ( 'NONE', #432 ) ;
#449 = AXIS2_PLACEMENT_3D ( 'NONE', #135, #529, #617 ) ;
#450 = CARTESIAN_POINT ( 'NONE',  ( -6.250000000000000900, 0.0000000000000000000, 3.300000000000000300 ) ) ;
#451 = DIRECTION ( 'NONE',  ( 1.000000000000000000, 0.0000000000000000000, 0.0000000000000000000 ) ) ;
#452 = ORIENTED_EDGE ( 'NONE', *, *, #979, .F. ) ;
#453 = CARTESIAN_POINT ( 'NONE',  ( 1.653273178848927100E-015, 8.227647621095281100, 1.024273005821958600E-015 ) ) ;
#454 = VERTEX_POINT ( 'NONE', #717 ) ;
#455 = DIRECTION ( 'NONE',  ( 0.0000000000000000000, 0.0000000000000000000, 1.000000000000000000 ) ) ;
#456 = AXIS2_PLACEMENT_3D ( 'NONE', #577, #1212, #286 ) ;
#457 = ADVANCED_FACE ( 'NONE', ( #1106 ), #747, .T. ) ;
#458 = CALENDAR_DATE ( 2022, 29, 11 ) ;
#459 = CARTESIAN_POINT ( 'NONE',  ( -5.451828539449617300, 4.971105281958652500, -8.311301347255902500 ) ) ;
#460 = FACE_OUTER_BOUND ( 'NONE', #1100, .T. ) ;
#461 = ORIENTED_EDGE ( 'NONE', *, *, #560, .T. ) ;
#462 = VERTEX_POINT ( 'NONE', #335 ) ;
#463 = CARTESIAN_POINT ( 'NONE',  ( -6.003638490568254900, -7.528878382009749800E-020, 8.500000000000000000 ) ) ;
#464 = AXIS2_PLACEMENT_3D ( 'NONE', #600, #780, #869 ) ;
#465 = VERTEX_POINT ( 'NONE', #233 ) ;
#466 = EDGE_CURVE ( 'NONE', #48, #612, #559, .T. ) ;
#467 = ORIENTED_EDGE ( 'NONE', *, *, #1028, .F. ) ;
#468 = EDGE_LOOP ( 'NONE', ( #988, #910, #836, #11 ) ) ;
#469 = DIRECTION ( 'NONE',  ( -1.000000000000000000, -1.224646799147353200E-016, 0.0000000000000000000 ) ) ;
#470 = TOROIDAL_SURFACE ( 'NONE', #225, 3.300000000000000300, 0.1000000000000000100 ) ;
#471 = CARTESIAN_POINT ( 'NONE',  ( 28.00000000000000000, 5.434370171216381100E-016, -3.875000000000003600 ) ) ;
#472 = VECTOR ( 'NONE', #1155, 1000.000000000000000 ) ;
#473 = FACE_OUTER_BOUND ( 'NONE', #972, .T. ) ;
#474 = DIRECTION ( 'NONE',  ( -1.000000000000000000, -1.224646799147353200E-016, 0.0000000000000000000 ) ) ;
#475 = AXIS2_PLACEMENT_3D ( 'NONE', #298, #939, #288 ) ;
#476 = EDGE_LOOP ( 'NONE', ( #508, #838, #722, #1180 ) ) ;
#477 = ORIENTED_EDGE ( 'NONE', *, *, #66, .F. ) ;
#478 = EDGE_CURVE ( 'NONE', #78, #556, #1076, .T. ) ;
#479 = ADVANCED_FACE ( 'NONE', ( #370 ), #804, .F. ) ;
#480 = DIRECTION ( 'NONE',  ( -1.000000000000000000, -0.0000000000000000000, -0.0000000000000000000 ) ) ;
#481 = DIRECTION ( 'NONE',  ( -1.000000000000000000, 0.0000000000000000000, 0.0000000000000000000 ) ) ;
#482 = AXIS2_PLACEMENT_3D ( 'NONE', #1150, #830, #264 ) ;
#483 = DIRECTION ( 'NONE',  ( 0.0000000000000000000, 0.0000000000000000000, -1.000000000000000000 ) ) ;
#484 = PERSON_AND_ORGANIZATION ( #50, #1003 ) ;
#485 = VECTOR ( 'NONE', #94, 1000.000000000000000 ) ;
#486 = B_SPLINE_CURVE_WITH_KNOTS ( 'NONE', 3,
 ( #428, #598, #12, #686, #223, #114, #884, #872, #316, #967 ),
 .UNSPECIFIED., .F., .F.,
 ( 4, 2, 2, 2, 4 ),
 ( 0.0004971416465356898800, 0.002707025978966494700, 0.004916910311397299500, 0.007126794643828104200, 0.009336678976258908100 ),
 .UNSPECIFIED. ) ;
#487 = PERSON_AND_ORGANIZATION_ROLE ( 'creator' ) ;
#488 = ORIENTED_EDGE ( 'NONE', *, *, #1213, .F. ) ;
#489 = ORIENTED_EDGE ( 'NONE', *, *, #564, .F. ) ;
#490 = CARTESIAN_POINT ( 'NONE',  ( -5.785097247444428900, -2.948688353749373500, -8.500000000000000000 ) ) ;
#491 = DIRECTION ( 'NONE',  ( 0.0000000000000000000, 0.0000000000000000000, 1.000000000000000000 ) ) ;
#492 = CARTESIAN_POINT ( 'NONE',  ( 0.5000000000000004400, 6.123233995736766300E-016, -5.000000000000000000 ) ) ;
#493 = VERTEX_POINT ( 'NONE', #145 ) ;
#494 = AXIS2_PLACEMENT_3D ( 'NONE', #2, #481, #1125 ) ;
#495 = DIRECTION ( 'NONE',  ( -1.000000000000000000, -1.224646799147353200E-016, 0.0000000000000000000 ) ) ;
#496 = CARTESIAN_POINT ( 'NONE',  ( -5.468795768682581700, 9.643277049254704600, 0.2973541992279705200 ) ) ;
#497 = ADVANCED_FACE ( 'NONE', ( #721 ), #212, .T. ) ;
#498 = CARTESIAN_POINT ( 'NONE',  ( -5.649050542651297100, 3.690843980221689200, -8.500000000000000000 ) ) ;
#499 = EDGE_CURVE ( 'NONE', #737, #53, #49, .T. ) ;
#500 = ORIENTED_EDGE ( 'NONE', *, *, #625, .F. ) ;
#501 = LINE ( 'NONE', #974, #366 ) ;
#502 = DIRECTION ( 'NONE',  ( 1.000000000000000000, -0.0000000000000000000, 0.0000000000000000000 ) ) ;
#503 = VECTOR ( 'NONE', #1104, 1000.000000000000000 ) ;
#504 = DIRECTION ( 'NONE',  ( -1.211755369248505100E-016, 1.000000000000000000, 0.0000000000000000000 ) ) ;
#505 = CARTESIAN_POINT ( 'NONE',  ( -5.657421811501216700, -3.686820305182536100, -8.500000000000000000 ) ) ;
#506 = EDGE_CURVE ( 'NONE', #462, #626, #75, .T. ) ;
#507 = LINE ( 'NONE', #113, #1020 ) ;
#508 = ORIENTED_EDGE ( 'NONE', *, *, #130, .F. ) ;
#509 = DIRECTION ( 'NONE',  ( 1.275531967630005000E-016, -1.000000000000000000, 3.552713678800500900E-015 ) ) ;
#510 = CARTESIAN_POINT ( 'NONE',  ( -5.468789700454053100, -4.564150457558905100, 8.500000000000001800 ) ) ;
#511 = ORIENTED_EDGE ( 'NONE', *, *, #20, .T. ) ;
#512 = ORIENTED_EDGE ( 'NONE', *, *, #961, .F. ) ;
#513 = DIRECTION ( 'NONE',  ( 0.0000000000000000000, 0.0000000000000000000, -1.000000000000000000 ) ) ;
#514 = CARTESIAN_POINT ( 'NONE',  ( -6.150000000000001200, 0.0000000000000000000, 3.300000000000000300 ) ) ;
#515 = DIRECTION ( 'NONE',  ( 0.0000000000000000000, 0.0000000000000000000, 1.000000000000000000 ) ) ;
#516 = DIRECTION ( 'NONE',  ( 0.0000000000000000000, 0.0000000000000000000, 1.000000000000000000 ) ) ;
#517 = DIRECTION ( 'NONE',  ( -0.0000000000000000000, 0.0000000000000000000, 1.000000000000000000 ) ) ;
#518 = DIRECTION ( 'NONE',  ( 1.000000000000000000, 1.224646799147353200E-016, -0.0000000000000000000 ) ) ;
#519 = COORDINATED_UNIVERSAL_TIME_OFFSET ( 6, 0, .BEHIND. ) ;
#520 = CALENDAR_DATE ( 2022, 29, 11 ) ;
#521 = CYLINDRICAL_SURFACE ( 'NONE', #542, 5.000000000000000000 ) ;
#522 = CC_DESIGN_SECURITY_CLASSIFICATION ( #1112, ( #238 ) ) ;
#523 = ORIENTED_EDGE ( 'NONE', *, *, #330, .T. ) ;
#524 = CARTESIAN_POINT ( 'NONE',  ( 3.668465643586261300E-015, -8.227647621095281100, 0.0000000000000000000 ) ) ;
#525 = VERTEX_POINT ( 'NONE', #1068 ) ;
#526 = CARTESIAN_POINT ( 'NONE',  ( -0.1269999999999995000, 8.833459118601274100, 5.963111948670274400E-016 ) ) ;
#527 = B_SPLINE_CURVE_WITH_KNOTS ( 'NONE', 3,
 ( #293, #1208, #193, #671, #389, #578 ),
 .UNSPECIFIED., .F., .F.,
 ( 4, 2, 4 ),
 ( 4.422694427346621600E-018, 0.0004461255435837062200, 0.0008922510871674080000 ),
 .UNSPECIFIED. ) ;
#528 = AXIS2_PLACEMENT_3D ( 'NONE', #981, #594, #320 ) ;
#529 = DIRECTION ( 'NONE',  ( -1.000000000000000000, 0.0000000000000000000, -0.0000000000000000000 ) ) ;
#530 = EDGE_CURVE ( 'NONE', #248, #166, #817, .T. ) ;
#531 = VECTOR ( 'NONE', #3, 1000.000000000000000 ) ;
#532 = LINE ( 'NONE', #959, #259 ) ;
#533 = DIRECTION ( 'NONE',  ( 6.123233995736764800E-017, -0.4999999999999998900, -0.8660254037844387100 ) ) ;
#534 = FACE_OUTER_BOUND ( 'NONE', #214, .T. ) ;
#535 = ORIENTED_EDGE ( 'NONE', *, *, #1142, .F. ) ;
#536 = DIRECTION ( 'NONE',  ( 1.224646799147353200E-016, -1.000000000000000000, 0.0000000000000000000 ) ) ;
#537 = ORIENTED_EDGE ( 'NONE', *, *, #743, .T. ) ;
#538 = VERTEX_POINT ( 'NONE', #1176 ) ;
#539 = CARTESIAN_POINT ( 'NONE',  ( -5.956482091478095600, -6.614299300002017800, -5.543697555929246500 ) ) ;
#540 = EDGE_CURVE ( 'NONE', #1140, #1122, #368, .T. ) ;
#541 = CARTESIAN_POINT ( 'NONE',  ( -6.400000000000001200, -5.152851152517412100, -8.075000000000001100 ) ) ;
#542 = AXIS2_PLACEMENT_3D ( 'NONE', #385, #480, #1129 ) ;
#543 = CARTESIAN_POINT ( 'NONE',  ( -5.500486223337395200, -9.569580711817733800, -0.4250000000005436700 ) ) ;
#544 = EDGE_CURVE ( 'NONE', #839, #374, #361, .T. ) ;
#545 = CARTESIAN_POINT ( 'NONE',  ( -0.1269999999999977800, -4.416729559300637900, 7.650000000000000400 ) ) ;
#546 = CALENDAR_DATE ( 2022, 29, 11 ) ;
#547 = LINE ( 'NONE', #936, #72 ) ;
#548 = CYLINDRICAL_SURFACE ( 'NONE', #308, 0.8500000000000000900 ) ;
#549 = LINE ( 'NONE', #703, #760 ) ;
#550 = AXIS2_PLACEMENT_3D ( 'NONE', #410, #120, #516 ) ;
#551 = CARTESIAN_POINT ( 'NONE',  ( -5.959731803925755000, 8.090628487303408900, 2.986620394826369200 ) ) ;
#552 = EDGE_LOOP ( 'NONE', ( #1117, #511, #973, #899, #477 ) ) ;
#553 = EDGE_LOOP ( 'NONE', ( #16, #537, #191, #715 ) ) ;
#554 = DIRECTION ( 'NONE',  ( 1.000000000000000000, -0.0000000000000000000, 0.0000000000000000000 ) ) ;
#555 = ORIENTED_EDGE ( 'NONE', *, *, #791, .F. ) ;
#556 = VERTEX_POINT ( 'NONE', #631 ) ;
#557 = VECTOR ( 'NONE', #24, 1000.000000000000000 ) ;
#558 = VECTOR ( 'NONE', #758, 1000.000000000000000 ) ;
#559 = CIRCLE ( 'NONE', #1013, 8.227647621095281100 ) ;
#560 = EDGE_CURVE ( 'NONE', #279, #1140, #1075, .T. ) ;
#561 = CARTESIAN_POINT ( 'NONE',  ( -0.1269999999999989700, -1.555301434917125900E-017, 0.0000000000000000000 ) ) ;
#562 = ORIENTED_EDGE ( 'NONE', *, *, #336, .T. ) ;
#563 = AXIS2_PLACEMENT_3D ( 'NONE', #169, #643, #841 ) ;
#564 = EDGE_CURVE ( 'NONE', #613, #1164, #7, .T. ) ;
#565 = EDGE_LOOP ( 'NONE', ( #345, #697, #249, #923 ) ) ;
#566 = CARTESIAN_POINT ( 'NONE',  ( -5.958077078027932800, -1.475942028686450200, 8.500000000000000000 ) ) ;
#567 = B_SPLINE_CURVE_WITH_KNOTS ( 'NONE', 3,
 ( #1151, #206, #702, #1157, #510, #22 ),
 .UNSPECIFIED., .F., .F.,
 ( 4, 2, 4 ),
 ( 8.364983378631891600E-017, 0.0004461255435836603000, 0.0008922510871672370200 ),
 .UNSPECIFIED. ) ;
#568 = AXIS2_PLACEMENT_3D ( 'NONE', #875, #115, #126 ) ;
#569 = DIRECTION ( 'NONE',  ( 1.211755369248505100E-016, -1.000000000000000000, 0.0000000000000000000 ) ) ;
#570 = ADVANCED_FACE ( 'NONE', ( #414 ), #1187, .F. ) ;
#571 = PERSON_AND_ORGANIZATION ( #50, #1003 ) ;
#572 = APPROVAL_STATUS ( 'not_yet_approved' ) ;
#573 = FACE_OUTER_BOUND ( 'NONE', #88, .T. ) ;
#574 = ORIENTED_EDGE ( 'NONE', *, *, #421, .T. ) ;
#575 = ORIENTED_EDGE ( 'NONE', *, *, #1080, .T. ) ;
#576 = ADVANCED_FACE ( 'NONE', ( #990 ), #905, .T. ) ;
#577 = CARTESIAN_POINT ( 'NONE',  ( 2.660869411217594100E-015, 3.258625207396728900E-031, 0.0000000000000000000 ) ) ;
#578 = CARTESIAN_POINT ( 'NONE',  ( -5.500486223337309100, -5.152851152517522200, -8.074999999999809200 ) ) ;
#579 = PLANE ( 'NONE',  #661 ) ;
#580 = DIRECTION ( 'NONE',  ( 0.0000000000000000000, 0.0000000000000000000, -1.000000000000000000 ) ) ;
#581 = ADVANCED_FACE ( 'NONE', ( #589 ), #470, .F. ) ;
#582 = DIRECTION ( 'NONE',  ( 0.0000000000000000000, -1.224646799147353500E-016, 1.000000000000000000 ) ) ;
#583 =( LENGTH_UNIT ( ) NAMED_UNIT ( * ) SI_UNIT ( .MILLI., .METRE. ) );
#584 = AXIS2_PLACEMENT_3D ( 'NONE', #1169, #132, #51 ) ;
#585 = DESIGN_CONTEXT ( 'detailed design', #1204, 'design' ) ;
#586 = CARTESIAN_POINT ( 'NONE',  ( -5.827735127259316500, 2.585183784749681500, 8.500000000000000000 ) ) ;
#587 = CONICAL_SURFACE ( 'NONE', #847, 8.500000000000000000, 1.134464013796318000 ) ;
#588 = EDGE_CURVE ( 'NONE', #248, #448, #834, .T. ) ;
#589 = FACE_OUTER_BOUND ( 'NONE', #181, .T. ) ;
#590 = ADVANCED_FACE ( 'NONE', ( #655 ), #731, .F. ) ;
#591 = LINE ( 'NONE', #750, #1044 ) ;
#592 = VERTEX_POINT ( 'NONE', #54 ) ;
#593 = CARTESIAN_POINT ( 'NONE',  ( -5.827735127259316500, 2.585183784749682800, -8.500000000000000000 ) ) ;
#594 = DIRECTION ( 'NONE',  ( -1.000000000000000000, -1.224646799147353200E-016, 0.0000000000000000000 ) ) ;
#595 = ORIENTED_EDGE ( 'NONE', *, *, #1028, .T. ) ;
#596 = ORIENTED_EDGE ( 'NONE', *, *, #725, .F. ) ;
#597 = ADVANCED_FACE ( 'NONE', ( #947 ), #1114, .T. ) ;
#598 = CARTESIAN_POINT ( 'NONE',  ( -5.656996158936363100, 9.205615942285133400, -1.055405472996105100 ) ) ;
#599 = CARTESIAN_POINT ( 'NONE',  ( -5.500486223337261100, 4.416729559300638800, -8.500000000000000000 ) ) ;
#600 = CARTESIAN_POINT ( 'NONE',  ( -6.250000000000000900, 0.0000000000000000000, 0.0000000000000000000 ) ) ;
#601 = CARTESIAN_POINT ( 'NONE',  ( -5.500486223337396100, 9.569580711817733800, 0.4250000000005445500 ) ) ;
#602 = PLANE ( 'NONE',  #713 ) ;
#603 = DIRECTION ( 'NONE',  ( 0.0000000000000000000, 0.0000000000000000000, 1.000000000000000000 ) ) ;
#604 = PERSON_AND_ORGANIZATION ( #50, #1003 ) ;
#605 = CARTESIAN_POINT ( 'NONE',  ( 0.0000000000000000000, 9.814954576223641400, 1.177308829131366700E-015 ) ) ;
#606 = CARTESIAN_POINT ( 'NONE',  ( -5.451736532357712100, -9.683567042200232700, 0.1482175157979961600 ) ) ;
#607 = EDGE_CURVE ( 'NONE', #556, #166, #963, .T. ) ;
#608 = CIRCLE ( 'NONE', #629, 3.300000000000000300 ) ;
#609 = EDGE_LOOP ( 'NONE', ( #271, #764, #17, #900 ) ) ;
#610 = ORIENTED_EDGE ( 'NONE', *, *, #138, .T. ) ;
#611 = DIRECTION ( 'NONE',  ( -1.000000000000000000, -0.0000000000000000000, -0.0000000000000000000 ) ) ;
#612 = VERTEX_POINT ( 'NONE', #453 ) ;
#613 = VERTEX_POINT ( 'NONE', #1178 ) ;
#614 = DIRECTION ( 'NONE',  ( -1.000000000000000000, 0.0000000000000000000, 0.0000000000000000000 ) ) ;
#615 = APPROVAL_DATE_TIME ( #843, #256 ) ;
#616 = FACE_OUTER_BOUND ( 'NONE', #748, .T. ) ;
#617 = DIRECTION ( 'NONE',  ( 0.0000000000000000000, 0.0000000000000000000, 1.000000000000000000 ) ) ;
#618 = DIRECTION ( 'NONE',  ( -1.000000000000000000, 0.0000000000000000000, -0.0000000000000000000 ) ) ;
#619 = VECTOR ( 'NONE', #40, 1000.000000000000000 ) ;
#620 = ORIENTED_EDGE ( 'NONE', *, *, #66, .T. ) ;
#621 = CARTESIAN_POINT ( 'NONE',  ( 0.5000000000000004400, 0.0000000000000000000, 0.0000000000000000000 ) ) ;
#622 = CARTESIAN_POINT ( 'NONE',  ( -6.400000000000001200, 0.0000000000000000000, 3.500000000000000000 ) ) ;
#623 = ORIENTED_EDGE ( 'NONE', *, *, #270, .F. ) ;
#624 = CARTESIAN_POINT ( 'NONE',  ( -5.451736532357744000, 4.970143655067302800, 8.312106299895877000 ) ) ;
#625 = EDGE_CURVE ( 'NONE', #407, #682, #338, .T. ) ;
#626 = VERTEX_POINT ( 'NONE', #826 ) ;
#627 = VECTOR ( 'NONE', #1206, 1000.000000000000000 ) ;
#628 = CARTESIAN_POINT ( 'NONE',  ( -0.1269999999999977000, -5.152851152517567500, 8.074999999999729300 ) ) ;
#629 = AXIS2_PLACEMENT_3D ( 'NONE', #417, #962, #4 ) ;
#630 = FACE_OUTER_BOUND ( 'NONE', #976, .T. ) ;
#631 = CARTESIAN_POINT ( 'NONE',  ( -0.1269999999999977000, -9.569580711817891900, -0.4250000000002706100 ) ) ;
#632 = ORIENTED_EDGE ( 'NONE', *, *, #657, .T. ) ;
#633 = CARTESIAN_POINT ( 'NONE',  ( 0.5000000000000004400, 0.0000000000000000000, 0.0000000000000000000 ) ) ;
#634 = ORIENTED_EDGE ( 'NONE', *, *, #1097, .T. ) ;
#635 = VERTEX_POINT ( 'NONE', #622 ) ;
#636 = CARTESIAN_POINT ( 'NONE',  ( -6.400000000000001200, 0.0000000000000000000, 7.650000000000000400 ) ) ;
#637 = AXIS2_PLACEMENT_3D ( 'NONE', #87, #856, #92 ) ;
#638 = ORIENTED_EDGE ( 'NONE', *, *, #218, .T. ) ;
#639 = CARTESIAN_POINT ( 'NONE',  ( -0.1270000000000000000, 8.500000000000000000, 1.040949779275250100E-015 ) ) ;
#640 = B_SPLINE_CURVE_WITH_KNOTS ( 'NONE', 3,
 ( #1021, #82, #922, #363, #926, #251, #551, #124, #1147, #217 ),
 .UNSPECIFIED., .F., .F.,
 ( 4, 2, 2, 2, 4 ),
 ( 0.0004971416465359139900, 0.002707025978966662100, 0.004916910311397409600, 0.007126794643828157100, 0.009336678976258906300 ),
 .UNSPECIFIED. ) ;
#641 = DATE_AND_TIME ( #458, #893 ) ;
#642 = CIRCLE ( 'NONE', #798, 3.875000000000003600 ) ;
#643 = DIRECTION ( 'NONE',  ( 0.0000000000000000000, 0.0000000000000000000, 1.000000000000000000 ) ) ;
#644 = CIRCLE ( 'NONE', #584, 0.8500000000000000900 ) ;
#645 = VERTEX_POINT ( 'NONE', #993 ) ;
#646 = EDGE_CURVE ( 'NONE', #1122, #1006, #176, .T. ) ;
#647 = DIRECTION ( 'NONE',  ( 1.000000000000000000, 0.0000000000000000000, 0.0000000000000000000 ) ) ;
#648 = CARTESIAN_POINT ( 'NONE',  ( -0.1269999999999989700, -1.555301434917125900E-017, 8.500000000000000000 ) ) ;
#649 = ORIENTED_EDGE ( 'NONE', *, *, #749, .F. ) ;
#650 = ORIENTED_EDGE ( 'NONE', *, *, #540, .T. ) ;
#651 = DIRECTION ( 'NONE',  ( 1.000000000000000000, 1.224646799147353200E-016, -0.0000000000000000000 ) ) ;
#652 = CARTESIAN_POINT ( 'NONE',  ( -5.500486223337261100, 4.416729559300638800, 8.500000000000000000 ) ) ;
#653 = ADVANCED_FACE ( 'NONE', ( #73 ), #344, .F. ) ;
#654 = DIRECTION ( 'NONE',  ( 0.0000000000000000000, -1.224646799147353500E-016, 1.000000000000000000 ) ) ;
#655 = FACE_OUTER_BOUND ( 'NONE', #552, .T. ) ;
#656 = LINE ( 'NONE', #636, #1092 ) ;
#657 = EDGE_CURVE ( 'NONE', #592, #538, #276, .T. ) ;
#658 = PERSON_AND_ORGANIZATION_ROLE ( 'creator' ) ;
#659 = VERTEX_POINT ( 'NONE', #1173 ) ;
#660 = DIRECTION ( 'NONE',  ( 1.000000000000000000, 0.0000000000000000000, 0.0000000000000000000 ) ) ;
#661 = AXIS2_PLACEMENT_3D ( 'NONE', #1216, #295, #1043 ) ;
#662 = EDGE_LOOP ( 'NONE', ( #375, #1009, #62, #634, #55, #1218 ) ) ;
#663 = EDGE_CURVE ( 'NONE', #127, #908, #1067, .T. ) ;
#664 = ORIENTED_EDGE ( 'NONE', *, *, #243, .T. ) ;
#665 = ORIENTED_EDGE ( 'NONE', *, *, #282, .F. ) ;
#666 = DIRECTION ( 'NONE',  ( -1.211755369248505100E-016, 1.000000000000000000, 0.0000000000000000000 ) ) ;
#667 = ORIENTED_EDGE ( 'NONE', *, *, #196, .F. ) ;
#668 = EDGE_LOOP ( 'NONE', ( #783, #269, #595, #226, #1184, #779, #178 ) ) ;
#669 = DIRECTION ( 'NONE',  ( -1.000000000000000000, 0.0000000000000000000, 0.0000000000000000000 ) ) ;
#670 = AXIS2_PLACEMENT_3D ( 'NONE', #977, #26, #329 ) ;
#671 = CARTESIAN_POINT ( 'NONE',  ( -5.451736532357745800, -4.970143655067305500, -8.312106299895869900 ) ) ;
#672 = DIRECTION ( 'NONE',  ( 0.0000000000000000000, 1.000000000000000000, 1.224646799147353200E-016 ) ) ;
#673 = PERSON_AND_ORGANIZATION ( #50, #1003 ) ;
#674 = CARTESIAN_POINT ( 'NONE',  ( -6.400000000000001200, 5.152851152517412100, -8.075000000000001100 ) ) ;
#675 = PLANE ( 'NONE',  #1102 ) ;
#676 = CARTESIAN_POINT ( 'NONE',  ( 0.0000000000000000000, 0.0000000000000000000, 0.0000000000000000000 ) ) ;
#677 = CARTESIAN_POINT ( 'NONE',  ( -6.003638490568254900, -1.041025067988298600E-015, -8.500000000000000000 ) ) ;
#678 = ORIENTED_EDGE ( 'NONE', *, *, #499, .T. ) ;
#679 = ORIENTED_EDGE ( 'NONE', *, *, #1080, .F. ) ;
#680 = DIRECTION ( 'NONE',  ( -1.000000000000000000, -0.0000000000000000000, -0.0000000000000000000 ) ) ;
#681 = VERTEX_POINT ( 'NONE', #815 ) ;
#682 = VERTEX_POINT ( 'NONE', #628 ) ;
#683 = DIRECTION ( 'NONE',  ( 1.000000000000000000, 0.0000000000000000000, 0.0000000000000000000 ) ) ;
#684 = CARTESIAN_POINT ( 'NONE',  ( -0.1269999999999989700, -1.555301434917125900E-017, 0.0000000000000000000 ) ) ;
#685 = DIRECTION ( 'NONE',  ( 1.000000000000000000, 1.224646799147353200E-016, -0.0000000000000000000 ) ) ;
#686 = CARTESIAN_POINT ( 'NONE',  ( -5.956482091478085800, 8.108132564333516300, -2.956302444070624700 ) ) ;
#687 = DIRECTION ( 'NONE',  ( 0.0000000000000000000, 0.0000000000000000000, 1.000000000000000000 ) ) ;
#688 = EDGE_CURVE ( 'NONE', #53, #645, #1042, .T. ) ;
#689 = LINE ( 'NONE', #746, #1172 ) ;
#690 = LINE ( 'NONE', #1222, #415 ) ;
#691 = DIRECTION ( 'NONE',  ( -1.211755369248505100E-016, 1.000000000000000000, 0.0000000000000000000 ) ) ;
#692 = FACE_OUTER_BOUND ( 'NONE', #1098, .T. ) ;
#693 = CARTESIAN_POINT ( 'NONE',  ( -5.785681667021984600, -5.887864628184933800, 6.801919315896065600 ) ) ;
#694 = DIRECTION ( 'NONE',  ( 0.0000000000000000000, 0.8660254037844387100, -0.4999999999999998900 ) ) ;
#695 = AXIS2_PLACEMENT_3D ( 'NONE', #1056, #502, #1144 ) ;
#696 = CARTESIAN_POINT ( 'NONE',  ( -6.300000000000000700, 0.0000000000000000000, 0.0000000000000000000 ) ) ;
#697 = ORIENTED_EDGE ( 'NONE', *, *, #897, .T. ) ;
#698 = DIRECTION ( 'NONE',  ( -1.000000000000000000, 0.0000000000000000000, -0.0000000000000000000 ) ) ;
#699 = ORIENTED_EDGE ( 'NONE', *, *, #438, .F. ) ;
#700 = CARTESIAN_POINT ( 'NONE',  ( -6.400000000000001200, 4.416729559300638800, 7.650000000000000400 ) ) ;
#701 = CARTESIAN_POINT ( 'NONE',  ( -6.400000000000001200, -4.416729559300638800, -8.500000000000000000 ) ) ;
#702 = CARTESIAN_POINT ( 'NONE',  ( -5.451828539449617300, -4.971105281958656100, 8.311301347255897200 ) ) ;
#703 = CARTESIAN_POINT ( 'NONE',  ( -0.1269999999999986400, 4.907477288111823400, -8.500000000000000000 ) ) ;
#704 = EDGE_CURVE ( 'NONE', #752, #112, #689, .T. ) ;
#705 = AXIS2_PLACEMENT_3D ( 'NONE', #13, #672, #582 ) ;
#706 = DIRECTION ( 'NONE',  ( 0.0000000000000000000, 0.0000000000000000000, -1.000000000000000000 ) ) ;
#707 = VECTOR ( 'NONE', #311, 999.9999999999998900 ) ;
#708 = DIRECTION ( 'NONE',  ( -1.000000000000000000, 0.0000000000000000000, -0.0000000000000000000 ) ) ;
#709 = VECTOR ( 'NONE', #149, 1000.000000000000000 ) ;
#710 = EDGE_LOOP ( 'NONE', ( #1154, #562 ) ) ;
#711 = VERTEX_POINT ( 'NONE', #68 ) ;
#712 = DIRECTION ( 'NONE',  ( 0.0000000000000000000, 0.0000000000000000000, 1.000000000000000000 ) ) ;
#713 = AXIS2_PLACEMENT_3D ( 'NONE', #21, #694, #443 ) ;
#714 = ORIENTED_EDGE ( 'NONE', *, *, #63, .F. ) ;
#715 = ORIENTED_EDGE ( 'NONE', *, *, #138, .F. ) ;
#716 = EDGE_CURVE ( 'NONE', #752, #171, #642, .T. ) ;
#717 = CARTESIAN_POINT ( 'NONE',  ( -0.1269999999999979500, -8.500000000000000000, 0.0000000000000000000 ) ) ;
#718 = DIRECTION ( 'NONE',  ( 0.0000000000000000000, -0.8660254037844387100, 0.4999999999999998900 ) ) ;
#719 = LINE ( 'NONE', #739, #503 ) ;
#720 = DIRECTION ( 'NONE',  ( -0.0000000000000000000, -1.000000000000000000, 0.0000000000000000000 ) ) ;
#721 = FACE_OUTER_BOUND ( 'NONE', #805, .T. ) ;
#722 = ORIENTED_EDGE ( 'NONE', *, *, #1087, .T. ) ;
#723 = B_SPLINE_CURVE_WITH_KNOTS ( 'NONE', 3,
 ( #123, #224, #324, #228, #968, #411, #19, #693, #787, #1054 ),
 .UNSPECIFIED., .F., .F.,
 ( 4, 2, 2, 2, 4 ),
 ( 0.0004971416465356898800, 0.002707025978966494700, 0.004916910311397299500, 0.007126794643828104200, 0.009336678976258908100 ),
 .UNSPECIFIED. ) ;
#724 = DIRECTION ( 'NONE',  ( 0.0000000000000000000, -1.000000000000000000, 0.0000000000000000000 ) ) ;
#725 = EDGE_CURVE ( 'NONE', #279, #592, #803, .T. ) ;
#726 = ORIENTED_EDGE ( 'NONE', *, *, #401, .F. ) ;
#727 = DIRECTION ( 'NONE',  ( 1.000000000000000000, 0.0000000000000000000, -0.0000000000000000000 ) ) ;
#728 = EDGE_LOOP ( 'NONE', ( #201, #632, #824, #1070 ) ) ;
#729 = CC_DESIGN_PERSON_AND_ORGANIZATION_ASSIGNMENT ( #604, #658, ( #891 ) ) ;
#730 = CARTESIAN_POINT ( 'NONE',  ( 28.00000000000000000, 0.0000000000000000000, 0.0000000000000000000 ) ) ;
#731 = PLANE ( 'NONE',  #357 ) ;
#732 = DIRECTION ( 'NONE',  ( -1.000000000000000000, 0.0000000000000000000, -0.0000000000000000000 ) ) ;
#733 = FACE_OUTER_BOUND ( 'NONE', #1179, .T. ) ;
#734 = DIRECTION ( 'NONE',  ( -1.000000000000000000, 0.0000000000000000000, 0.0000000000000000000 ) ) ;
#735 = AXIS2_PLACEMENT_3D ( 'NONE', #633, #1099, #1086 ) ;
#736 = LINE ( 'NONE', #1126, #485 ) ;
#737 = VERTEX_POINT ( 'NONE', #652 ) ;
#738 = ORIENTED_EDGE ( 'NONE', *, *, #213, .F. ) ;
#739 = CARTESIAN_POINT ( 'NONE',  ( -6.400000000000001200, -9.569580711818048300, 0.4250000000000001000 ) ) ;
#740 = ORIENTED_EDGE ( 'NONE', *, *, #1207, .F. ) ;
#741 = DIRECTION ( 'NONE',  ( 0.0000000000000000000, 0.0000000000000000000, 1.000000000000000000 ) ) ;
#742 = AXIS2_PLACEMENT_3D ( 'NONE', #878, #885, #984 ) ;
#743 = EDGE_CURVE ( 'NONE', #890, #880, #244, .T. ) ;
#744 = CARTESIAN_POINT ( 'NONE',  ( -6.150000000000001200, 4.102566777143633300E-016, -3.300000000000000300 ) ) ;
#745 = FACE_OUTER_BOUND ( 'NONE', #1024, .T. ) ;
#746 = CARTESIAN_POINT ( 'NONE',  ( 28.00000000000000000, 4.745506346695997800E-016, -3.875000000000003600 ) ) ;
#747 = CYLINDRICAL_SURFACE ( 'NONE', #1036, 0.8500000000000000900 ) ;
#748 = EDGE_LOOP ( 'NONE', ( #358, #998, #1167, #371 ) ) ;
#749 = EDGE_CURVE ( 'NONE', #681, #890, #43, .T. ) ;
#750 = CARTESIAN_POINT ( 'NONE',  ( -0.1270000000000000000, 8.500000000000000000, 1.040949779275250100E-015 ) ) ;
#751 = ADVANCED_FACE ( 'NONE', ( #860 ), #163, .F. ) ;
#752 = VERTEX_POINT ( 'NONE', #471 ) ;
#753 = APPLICATION_CONTEXT ( 'configuration controlled 3d designs of mechanical parts and assemblies' ) ;
#754 = AXIS2_PLACEMENT_3D ( 'NONE', #272, #554, #369 ) ;
#755 = DIRECTION ( 'NONE',  ( -1.000000000000000000, 0.0000000000000000000, -0.0000000000000000000 ) ) ;
#756 = ORIENTED_EDGE ( 'NONE', *, *, #1124, .F. ) ;
#757 = DIRECTION ( 'NONE',  ( 0.0000000000000000000, 0.0000000000000000000, 1.000000000000000000 ) ) ;
#758 = DIRECTION ( 'NONE',  ( -6.123233995736764800E-017, 0.4999999999999998900, -0.8660254037844387100 ) ) ;
#759 = CYLINDRICAL_SURFACE ( 'NONE', #568, 3.400000000000000400 ) ;
#760 = VECTOR ( 'NONE', #129, 1000.000000000000000 ) ;
#761 = CARTESIAN_POINT ( 'NONE',  ( -6.400000000000001200, -4.907477288111821600, -8.500000000000000000 ) ) ;
#762 = ORIENTED_EDGE ( 'NONE', *, *, #688, .F. ) ;
#763 = CARTESIAN_POINT ( 'NONE',  ( 0.5000000000000004400, 0.0000000000000000000, 0.0000000000000000000 ) ) ;
#764 = ORIENTED_EDGE ( 'NONE', *, *, #725, .T. ) ;
#765 = DIRECTION ( 'NONE',  ( -1.000000000000000000, -0.0000000000000000000, -0.0000000000000000000 ) ) ;
#766 = CARTESIAN_POINT ( 'NONE',  ( -0.1269999999999968900, -9.814954576223639600, 1.032767839235039600E-015 ) ) ;
#767 = PLANE ( 'NONE',  #918 ) ;
#768 = B_SPLINE_CURVE_WITH_KNOTS ( 'NONE', 3,
 ( #409, #195, #108, #586, #303, #777, #1048, #1223 ),
 .UNSPECIFIED., .F., .F.,
 ( 4, 2, 2, 4 ),
 ( 0.01371710387471666300, 0.01594306472334277400, 0.01705604514765583100, 0.01816902557196888700 ),
 .UNSPECIFIED. ) ;
#769 =( NAMED_UNIT ( * ) SI_UNIT ( $, .STERADIAN. ) SOLID_ANGLE_UNIT ( ) );
#770 = AXIS2_PLACEMENT_3D ( 'NONE', #813, #354, #348 ) ;
#771 = DIRECTION ( 'NONE',  ( 0.0000000000000000000, 0.8660254037844387100, 0.4999999999999998900 ) ) ;
#772 = CARTESIAN_POINT ( 'NONE',  ( -0.1269999999999999200, 8.500000000000000000, 0.0000000000000000000 ) ) ;
#773 = EDGE_CURVE ( 'NONE', #1134, #78, #719, .T. ) ;
#774 = FACE_OUTER_BOUND ( 'NONE', #476, .T. ) ;
#775 = VECTOR ( 'NONE', #1214, 1000.000000000000000 ) ;
#776 = ADVANCED_FACE ( 'NONE', ( #150 ), #1201, .F. ) ;
#777 = CARTESIAN_POINT ( 'NONE',  ( -5.649050542651296200, 3.690843980221687500, 8.500000000000000000 ) ) ;
#778 = LINE ( 'NONE', #167, #906 ) ;
#779 = ORIENTED_EDGE ( 'NONE', *, *, #63, .T. ) ;
#780 = DIRECTION ( 'NONE',  ( -1.000000000000000000, 0.0000000000000000000, 0.0000000000000000000 ) ) ;
#781 = DIRECTION ( 'NONE',  ( 0.0000000000000000000, 0.0000000000000000000, -1.000000000000000000 ) ) ;
#782 = ORIENTED_EDGE ( 'NONE', *, *, #262, .T. ) ;
#783 = ORIENTED_EDGE ( 'NONE', *, *, #258, .F. ) ;
#784 = CARTESIAN_POINT ( 'NONE',  ( -0.1269999999999977800, -4.907477288111821600, -8.500000000000000000 ) ) ;
#785 = EDGE_CURVE ( 'NONE', #592, #1122, #232, .T. ) ;
#786 = DIRECTION ( 'NONE',  ( 1.224646799147353200E-016, -1.000000000000000000, 0.0000000000000000000 ) ) ;
#787 = CARTESIAN_POINT ( 'NONE',  ( -5.657871685585494200, -5.518851964387558900, 7.441067998229449600 ) ) ;
#788 = CARTESIAN_POINT ( 'NONE',  ( -5.451828539449617300, 9.683350746210765100, 0.1494527854352474800 ) ) ;
#789 = DIRECTION ( 'NONE',  ( 1.000000000000000000, 0.0000000000000000000, 0.0000000000000000000 ) ) ;
#790 = DIRECTION ( 'NONE',  ( -6.123233995736764800E-017, 0.4999999999999998900, 0.8660254037844387100 ) ) ;
#791 = EDGE_CURVE ( 'NONE', #880, #1007, #929, .T. ) ;
#792 = SHAPE_DEFINITION_REPRESENTATION ( #855, #1120 ) ;
#793 = FACE_OUTER_BOUND ( 'NONE', #422, .T. ) ;
#794 = ORIENTED_EDGE ( 'NONE', *, *, #499, .F. ) ;
#795 = CARTESIAN_POINT ( 'NONE',  ( -0.1269999999999989700, -1.555301434917125900E-017, 0.0000000000000000000 ) ) ;
#796 = CARTESIAN_POINT ( 'NONE',  ( -5.500486223337262000, -9.569580711818048300, 0.4250000000000001000 ) ) ;
#797 = ORIENTED_EDGE ( 'NONE', *, *, #663, .T. ) ;
#798 = AXIS2_PLACEMENT_3D ( 'NONE', #377, #647, #840 ) ;
#799 = B_SPLINE_CURVE_WITH_KNOTS ( 'NONE', 3,
 ( #677, #207, #954, #490, #505, #1136 ),
 .UNSPECIFIED., .F., .F.,
 ( 4, 2, 4 ),
 ( 0.02600317280828554800, 0.02820490999240479400, 0.03040664717652404000 ),
 .UNSPECIFIED. ) ;
#800 = CC_DESIGN_APPROVAL ( #256, ( #891 ) ) ;
#801 = CARTESIAN_POINT ( 'NONE',  ( -5.468795768678926800, 4.564122234174119400, 8.500000000000001800 ) ) ;
#802 = LINE ( 'NONE', #949, #707 ) ;
#803 = CIRCLE ( 'NONE', #958, 0.09999999999999982500 ) ;
#804 = TOROIDAL_SURFACE ( 'NONE', #1001, 5.500000000000000000, 0.5000000000000000000 ) ;
#805 = EDGE_LOOP ( 'NONE', ( #452, #144, #38, #1045 ) ) ;
#806 = CARTESIAN_POINT ( 'NONE',  ( -5.451828539449580000, 4.712245464252607300, 8.460754132690956600 ) ) ;
#807 = CARTESIAN_POINT ( 'NONE',  ( -5.500486223337259300, -4.416729559300647700, 8.500000000000000000 ) ) ;
#808 = CARTESIAN_POINT ( 'NONE',  ( -5.468789700454054000, 4.564150457558900700, -8.500000000000000000 ) ) ;
#809 =( GEOMETRIC_REPRESENTATION_CONTEXT ( 3 ) GLOBAL_UNCERTAINTY_ASSIGNED_CONTEXT ( ( #197 ) ) GLOBAL_UNIT_ASSIGNED_CONTEXT ( ( #583, #101, #769 ) ) REPRESENTATION_CONTEXT ( 'NONE', 'WORKASPACE' ) );
#810 = ORIENTED_EDGE ( 'NONE', *, *, #196, .T. ) ;
#811 = ORIENTED_EDGE ( 'NONE', *, *, #174, .F. ) ;
#812 = CARTESIAN_POINT ( 'NONE',  ( -5.468789700454157900, 5.079140703388697300, 8.202670242939857900 ) ) ;
#813 = CARTESIAN_POINT ( 'NONE',  ( -0.1269999999999989700, -1.555301434917125900E-017, 0.0000000000000000000 ) ) ;
#814 = EDGE_CURVE ( 'NONE', #127, #407, #876, .T. ) ;
#815 = CARTESIAN_POINT ( 'NONE',  ( 2.168404344971008900E-016, 0.0000000000000000000, 5.500000000000000000 ) ) ;
#816 = DIRECTION ( 'NONE',  ( 0.0000000000000000000, 0.0000000000000000000, 1.000000000000000000 ) ) ;
#817 = B_SPLINE_CURVE_WITH_KNOTS ( 'NONE', 3,
 ( #909, #1085, #445, #539, #347, #57, #995, #1090, #999, #543 ),
 .UNSPECIFIED., .F., .F.,
 ( 4, 2, 2, 2, 4 ),
 ( 0.0004971416465359139900, 0.002707025978966662100, 0.004916910311397410500, 0.007126794643828158900, 0.009336678976258908100 ),
 .UNSPECIFIED. ) ;
#818 = CARTESIAN_POINT ( 'NONE',  ( -6.150000000000001200, 0.0000000000000000000, 3.400000000000000400 ) ) ;
#819 = PERSON_AND_ORGANIZATION ( #50, #1003 ) ;
#820 = LINE ( 'NONE', #387, #1074 ) ;
#821 = CARTESIAN_POINT ( 'NONE',  ( -6.300000000000000700, 0.0000000000000000000, 0.0000000000000000000 ) ) ;
#822 = LINE ( 'NONE', #1171, #177 ) ;
#823 = DIRECTION ( 'NONE',  ( 0.0000000000000000000, 0.0000000000000000000, 1.000000000000000000 ) ) ;
#824 = ORIENTED_EDGE ( 'NONE', *, *, #376, .T. ) ;
#825 = ORIENTED_EDGE ( 'NONE', *, *, #349, .T. ) ;
#826 = CARTESIAN_POINT ( 'NONE',  ( -6.400000000000001200, 0.0000000000000000000, 7.650000000000000400 ) ) ;
#827 = ADVANCED_FACE ( 'NONE', ( #460 ), #675, .F. ) ;
#828 = AXIS2_PLACEMENT_3D ( 'NONE', #1041, #757, #397 ) ;
#829 = DIRECTION ( 'NONE',  ( -0.0000000000000000000, 0.0000000000000000000, 1.000000000000000000 ) ) ;
#830 = DIRECTION ( 'NONE',  ( 1.000000000000000000, 1.224646799147353200E-016, -0.0000000000000000000 ) ) ;
#831 = CARTESIAN_POINT ( 'NONE',  ( -0.1269999999999989700, -1.555301434917125900E-017, -8.500000000000000000 ) ) ;
#832 = FACE_OUTER_BOUND ( 'NONE', #898, .T. ) ;
#833 = AXIS2_PLACEMENT_3D ( 'NONE', #33, #44, #991 ) ;
#834 = LINE ( 'NONE', #541, #103 ) ;
#835 = EDGE_CURVE ( 'NONE', #886, #112, #1198, .T. ) ;
#836 = ORIENTED_EDGE ( 'NONE', *, *, #544, .F. ) ;
#837 = ADVANCED_FACE ( 'NONE', ( #444 ), #845, .T. ) ;
#838 = ORIENTED_EDGE ( 'NONE', *, *, #421, .F. ) ;
#839 = VERTEX_POINT ( 'NONE', #97 ) ;
#840 = DIRECTION ( 'NONE',  ( 0.0000000000000000000, 0.0000000000000000000, -1.000000000000000000 ) ) ;
#841 = DIRECTION ( 'NONE',  ( 1.000000000000000000, 0.0000000000000000000, -0.0000000000000000000 ) ) ;
#842 = EDGE_CURVE ( 'NONE', #280, #454, #1105, .T. ) ;
#843 = DATE_AND_TIME ( #285, #1103 ) ;
#844 = SECURITY_CLASSIFICATION_LEVEL ( 'unclassified' ) ;
#845 = PLANE ( 'NONE',  #975 ) ;
#846 = FACE_OUTER_BOUND ( 'NONE', #728, .T. ) ;
#847 = AXIS2_PLACEMENT_3D ( 'NONE', #395, #474, #569 ) ;
#848 = ORIENTED_EDGE ( 'NONE', *, *, #1137, .T. ) ;
#849 = EDGE_CURVE ( 'NONE', #171, #886, #1163, .T. ) ;
#850 = ORIENTED_EDGE ( 'NONE', *, *, #907, .T. ) ;
#851 = ORIENTED_EDGE ( 'NONE', *, *, #1137, .F. ) ;
#852 = EDGE_LOOP ( 'NONE', ( #291, #850, #825, #314, #1023 ) ) ;
#853 = ADVANCED_FACE ( 'NONE', ( #306 ), #102, .F. ) ;
#854 = AXIS2_PLACEMENT_3D ( 'NONE', #18, #419, #1071 ) ;
#855 = PRODUCT_DEFINITION_SHAPE ( 'NONE', 'NONE',  #891 ) ;
#856 = DIRECTION ( 'NONE',  ( 1.000000000000000000, 0.0000000000000000000, 0.0000000000000000000 ) ) ;
#857 = CARTESIAN_POINT ( 'NONE',  ( -0.1269999999999989700, -1.555301434917125900E-017, 0.0000000000000000000 ) ) ;
#858 = DIRECTION ( 'NONE',  ( 1.224646799147353200E-016, -1.000000000000000000, 0.0000000000000000000 ) ) ;
#859 = CYLINDRICAL_SURFACE ( 'NONE', #61, 5.000000000000000000 ) ;
#860 = FACE_OUTER_BOUND ( 'NONE', #331, .T. ) ;
#861 = CIRCLE ( 'NONE', #192, 5.500000000000000000 ) ;
#862 = AXIS2_PLACEMENT_3D ( 'NONE', #96, #669, #1133 ) ;
#863 = VERTEX_POINT ( 'NONE', #1221 ) ;
#864 = ADVANCED_FACE ( 'NONE', ( #616 ), #521, .T. ) ;
#865 = ORIENTED_EDGE ( 'NONE', *, *, #607, .F. ) ;
#866 = EDGE_CURVE ( 'NONE', #280, #682, #1017, .T. ) ;
#867 = ORIENTED_EDGE ( 'NONE', *, *, #401, .T. ) ;
#868 = CARTESIAN_POINT ( 'NONE',  ( -5.773792728517322300, 2.956243275575066900, -8.500000000000000000 ) ) ;
#869 = DIRECTION ( 'NONE',  ( 0.0000000000000000000, 0.0000000000000000000, 1.000000000000000000 ) ) ;
#870 = DIRECTION ( 'NONE',  ( 0.0000000000000000000, 0.0000000000000000000, -1.000000000000000000 ) ) ;
#871 = CARTESIAN_POINT ( 'NONE',  ( -5.500486223337396100, 9.569580711817733800, 0.4250000000005445500 ) ) ;
#872 = CARTESIAN_POINT ( 'NONE',  ( -5.785681667021984600, 5.887864628184933800, -6.801919315896065600 ) ) ;
#873 = CARTESIAN_POINT ( 'NONE',  ( 28.00000000000000000, 0.0000000000000000000, 0.0000000000000000000 ) ) ;
#874 = DIRECTION ( 'NONE',  ( -1.000000000000000000, 0.0000000000000000000, 0.0000000000000000000 ) ) ;
#875 = CARTESIAN_POINT ( 'NONE',  ( -6.150000000000001200, 0.0000000000000000000, 0.0000000000000000000 ) ) ;
#876 = LINE ( 'NONE', #1012, #400 ) ;
#877 = DIRECTION ( 'NONE',  ( 1.224646799147353200E-016, -1.000000000000000000, 0.0000000000000000000 ) ) ;
#878 = CARTESIAN_POINT ( 'NONE',  ( -6.400000000000001200, 0.0000000000000000000, 0.0000000000000000000 ) ) ;
#879 = CONICAL_SURFACE ( 'NONE', #173, 3.875000000000003600, 0.7853981633974495000 ) ;
#880 = VERTEX_POINT ( 'NONE', #492 ) ;
#881 = ORIENTED_EDGE ( 'NONE', *, *, #866, .T. ) ;
#882 = DIRECTION ( 'NONE',  ( -1.000000000000000000, -1.224646799147353200E-016, 0.0000000000000000000 ) ) ;
#883 = DIRECTION ( 'NONE',  ( 1.000000000000000000, -0.0000000000000000000, 0.0000000000000000000 ) ) ;
#884 = CARTESIAN_POINT ( 'NONE',  ( -5.959731803925761200, 6.631803377032088800, -5.513379605173568600 ) ) ;
#885 = DIRECTION ( 'NONE',  ( -1.000000000000000000, 0.0000000000000000000, 0.0000000000000000000 ) ) ;
#886 = VERTEX_POINT ( 'NONE', #186 ) ;
#887 = ORIENTED_EDGE ( 'NONE', *, *, #716, .F. ) ;
#888 = PLANE ( 'NONE',  #160 ) ;
#889 = CARTESIAN_POINT ( 'NONE',  ( -0.1269999999999977800, -4.416729559300638800, -7.650000000000000400 ) ) ;
#890 = VERTEX_POINT ( 'NONE', #953 ) ;
#891 = PRODUCT_DEFINITION ( 'UNKNOWN', '', #238, #585 ) ;
#892 = CARTESIAN_POINT ( 'NONE',  ( -5.500486223337309100, 5.152851152517522200, 8.074999999999809200 ) ) ;
#893 = LOCAL_TIME ( 13, 39, 19.00000000000000000, #1186 ) ;
#894 = CIRCLE ( 'NONE', #705, 0.09999999999999982500 ) ;
#895 = ORIENTED_EDGE ( 'NONE', *, *, #979, .T. ) ;
#896 = EDGE_LOOP ( 'NONE', ( #109, #489, #714, #1200 ) ) ;
#897 = EDGE_CURVE ( 'NONE', #112, #880, #532, .T. ) ;
#898 = EDGE_LOOP ( 'NONE', ( #667, #811, #726, #1081 ) ) ;
#899 = ORIENTED_EDGE ( 'NONE', *, *, #1193, .T. ) ;
#900 = ORIENTED_EDGE ( 'NONE', *, *, #540, .F. ) ;
#901 = CARTESIAN_POINT ( 'NONE',  ( -6.400000000000001200, 4.286263797015736600E-016, -3.500000000000000000 ) ) ;
#902 = DIRECTION ( 'NONE',  ( 1.275531967630005000E-016, -1.000000000000000000, 0.0000000000000000000 ) ) ;
#903 = APPROVAL_DATE_TIME ( #1002, #390 ) ;
#904 = CARTESIAN_POINT ( 'NONE',  ( 26.87500000000000700, 6.123233995736766300E-016, -5.000000000000000000 ) ) ;
#905 = CONICAL_SURFACE ( 'NONE', #1077, 7.650000000000000400, 1.134464013796316700 ) ;
#906 = VECTOR ( 'NONE', #367, 1000.000000000000000 ) ;
#907 = EDGE_CURVE ( 'NONE', #645, #863, #1215, .T. ) ;
#908 = VERTEX_POINT ( 'NONE', #942 ) ;
#909 = CARTESIAN_POINT ( 'NONE',  ( -5.500486223337309100, -5.152851152517522200, -8.074999999999809200 ) ) ;
#910 = ORIENTED_EDGE ( 'NONE', *, *, #916, .F. ) ;
#911 = EDGE_CURVE ( 'NONE', #465, #248, #527, .T. ) ;
#912 = CARTESIAN_POINT ( 'NONE',  ( -6.400000000000001200, 0.0000000000000000000, 0.0000000000000000000 ) ) ;
#913 = AXIS2_PLACEMENT_3D ( 'NONE', #292, #301, #491 ) ;
#914 = ORIENTED_EDGE ( 'NONE', *, *, #185, .T. ) ;
#915 = AXIS2_PLACEMENT_3D ( 'NONE', #605, #708, #517 ) ;
#916 = EDGE_CURVE ( 'NONE', #374, #155, #736, .T. ) ;
#917 = DIRECTION ( 'NONE',  ( 1.000000000000000000, 0.0000000000000000000, 0.0000000000000000000 ) ) ;
#918 = AXIS2_PLACEMENT_3D ( 'NONE', #137, #618, #829 ) ;
#919 = CIRCLE ( 'NONE', #1209, 8.500000000000000000 ) ;
#920 = DIRECTION ( 'NONE',  ( 1.000000000000000000, 0.0000000000000000000, 0.0000000000000000000 ) ) ;
#921 = ORIENTED_EDGE ( 'NONE', *, *, #1016, .T. ) ;
#922 = CARTESIAN_POINT ( 'NONE',  ( -5.783382776408233300, 5.881770796724660900, 6.812474141598015000 ) ) ;
#923 = ORIENTED_EDGE ( 'NONE', *, *, #1032, .F. ) ;
#924 = DIRECTION ( 'NONE',  ( 1.000000000000000000, -0.0000000000000000000, -0.0000000000000000000 ) ) ;
#925 = ORIENTED_EDGE ( 'NONE', *, *, #866, .F. ) ;
#926 = CARTESIAN_POINT ( 'NONE',  ( -6.002796958142194100, 6.981886004669716400, 4.907018707257981800 ) ) ;
#927 = DIRECTION ( 'NONE',  ( 0.0000000000000000000, 1.000000000000000000, 1.224646799147353200E-016 ) ) ;
#928 = CC_DESIGN_PERSON_AND_ORGANIZATION_ASSIGNMENT ( #571, #945, ( #1066 ) ) ;
#929 = CIRCLE ( 'NONE', #754, 5.000000000000000000 ) ;
#930 = AXIS2_PLACEMENT_3D ( 'NONE', #408, #789, #23 ) ;
#931 = FACE_OUTER_BOUND ( 'NONE', #239, .T. ) ;
#932 = ORIENTED_EDGE ( 'NONE', *, *, #588, .F. ) ;
#933 = CARTESIAN_POINT ( 'NONE',  ( -0.1269999999999989700, -1.555301434917125900E-017, 0.0000000000000000000 ) ) ;
#934 = ADVANCED_FACE ( 'NONE', ( #1132 ), #946, .F. ) ;
#935 = ORIENTED_EDGE ( 'NONE', *, *, #530, .T. ) ;
#936 = CARTESIAN_POINT ( 'NONE',  ( -0.1269999999999977800, -4.907477288111820700, 8.500000000000000000 ) ) ;
#937 = ORIENTED_EDGE ( 'NONE', *, *, #131, .T. ) ;
#938 = AXIS2_PLACEMENT_3D ( 'NONE', #332, #720, #706 ) ;
#939 = DIRECTION ( 'NONE',  ( 0.0000000000000000000, -0.8660254037844387100, -0.4999999999999998900 ) ) ;
#940 = EDGE_LOOP ( 'NONE', ( #679, #851, #296, #205, #678, #782, #867, #620, #1165, #1135 ) ) ;
#941 = APPROVAL_STATUS ( 'not_yet_approved' ) ;
#942 = CARTESIAN_POINT ( 'NONE',  ( -6.003638490568254900, -7.528878382009749800E-020, 8.500000000000000000 ) ) ;
#943 = APPROVAL_PERSON_ORGANIZATION ( #673, #390, #1128 ) ;
#944 = VECTOR ( 'NONE', #765, 1000.000000000000000 ) ;
#945 = PERSON_AND_ORGANIZATION_ROLE ( 'design_owner' ) ;
#946 = PLANE ( 'NONE',  #1189 ) ;
#947 = FACE_OUTER_BOUND ( 'NONE', #668, .T. ) ;
#948 = CC_DESIGN_APPROVAL ( #1156, ( #238 ) ) ;
#949 = CARTESIAN_POINT ( 'NONE',  ( -0.1269999999999979500, -8.500000000000000000, 0.0000000000000000000 ) ) ;
#950 = CIRCLE ( 'NONE', #770, 8.500000000000000000 ) ;
#951 = ORIENTED_EDGE ( 'NONE', *, *, #773, .T. ) ;
#952 = ADVANCED_FACE ( 'NONE', ( #985 ), #587, .T. ) ;
#953 = CARTESIAN_POINT ( 'NONE',  ( 2.168404344971008900E-016, 6.735557395310442000E-016, -5.500000000000000000 ) ) ;
#954 = CARTESIAN_POINT ( 'NONE',  ( -5.958077078027932800, -1.475942028686452200, -8.500000000000000000 ) ) ;
#955 = EDGE_LOOP ( 'NONE', ( #740, #268, #523, #194, #93, #326, #467 ) ) ;
#956 = ORIENTED_EDGE ( 'NONE', *, *, #911, .F. ) ;
#957 = APPLICATION_PROTOCOL_DEFINITION ( 'international standard', 'config_control_design', 1994, #753 ) ;
#958 = AXIS2_PLACEMENT_3D ( 'NONE', #275, #81, #654 ) ;
#959 = CARTESIAN_POINT ( 'NONE',  ( 28.00000000000000000, 6.123233995736766300E-016, -5.000000000000000000 ) ) ;
#960 = CARTESIAN_POINT ( 'NONE',  ( -6.400000000000001200, -9.368548013477252200E-016, -7.650000000000000400 ) ) ;
#961 = EDGE_CURVE ( 'NONE', #863, #278, #919, .T. ) ;
#962 = DIRECTION ( 'NONE',  ( -1.000000000000000000, 0.0000000000000000000, 0.0000000000000000000 ) ) ;
#963 = LINE ( 'NONE', #65, #709 ) ;
#964 = CARTESIAN_POINT ( 'NONE',  ( -6.400000000000001200, -4.416729559300637900, 7.650000000000000400 ) ) ;
#965 = CIRCLE ( 'NONE', #833, 0.8500000000000000900 ) ;
#966 = ORIENTED_EDGE ( 'NONE', *, *, #152, .T. ) ;
#967 = CARTESIAN_POINT ( 'NONE',  ( -5.500486223337395200, 5.152851152517724700, -8.074999999999457500 ) ) ;
#968 = CARTESIAN_POINT ( 'NONE',  ( -6.002796958142190500, -7.740545859665809700, 3.592981292741909800 ) ) ;
#969 = DIRECTION ( 'NONE',  ( 6.123233995736764800E-017, -0.4999999999999998900, 0.8660254037844387100 ) ) ;
#970 = EDGE_CURVE ( 'NONE', #278, #493, #433, .T. ) ;
#971 = DIRECTION ( 'NONE',  ( -6.123233995736764800E-017, 0.4999999999999998900, -0.8660254037844387100 ) ) ;
#972 = EDGE_LOOP ( 'NONE', ( #887, #1022, #220, #141 ) ) ;
#973 = ORIENTED_EDGE ( 'NONE', *, *, #564, .T. ) ;
#974 = CARTESIAN_POINT ( 'NONE',  ( -0.1269999999999968900, -9.814954576223639600, 1.032767839235039600E-015 ) ) ;
#975 = AXIS2_PLACEMENT_3D ( 'NONE', #284, #660, #580 ) ;
#976 = EDGE_LOOP ( 'NONE', ( #500, #1192, #359, #125 ) ) ;
#977 = CARTESIAN_POINT ( 'NONE',  ( -6.400000000000001200, 0.0000000000000000000, 0.0000000000000000000 ) ) ;
#978 = CARTESIAN_POINT ( 'NONE',  ( -5.468795768682579000, -9.643277049254704600, -0.2973541992279703500 ) ) ;
#979 = EDGE_CURVE ( 'NONE', #434, #538, #894, .T. ) ;
#980 = PERSON_AND_ORGANIZATION ( #50, #1003 ) ;
#981 = CARTESIAN_POINT ( 'NONE',  ( -0.1269999999999999200, 8.500000000000000000, 0.0000000000000000000 ) ) ;
#982 = CIRCLE ( 'NONE', #183, 0.8500000000000000900 ) ;
#983 = DIRECTION ( 'NONE',  ( 6.123233995736764800E-017, -0.4999999999999998900, -0.8660254037844387100 ) ) ;
#984 = DIRECTION ( 'NONE',  ( 0.0000000000000000000, 0.0000000000000000000, 1.000000000000000000 ) ) ;
#985 = FACE_OUTER_BOUND ( 'NONE', #955, .T. ) ;
#986 = ORIENTED_EDGE ( 'NONE', *, *, #336, .F. ) ;
#987 = AXIS2_PLACEMENT_3D ( 'NONE', #372, #1019, #1010 ) ;
#988 = ORIENTED_EDGE ( 'NONE', *, *, #441, .F. ) ;
#989 = CARTESIAN_POINT ( 'NONE',  ( -5.468789700454054000, 9.643291160947180500, -0.2973297570596230600 ) ) ;
#990 = FACE_OUTER_BOUND ( 'NONE', #940, .T. ) ;
#991 = DIRECTION ( 'NONE',  ( 1.275531967630005000E-016, -1.000000000000000000, 1.020425574104004000E-015 ) ) ;
#992 = CIRCLE ( 'NONE', #398, 8.500000000000000000 ) ;
#993 = CARTESIAN_POINT ( 'NONE',  ( -0.1269999999999986400, 5.152851152517412100, 8.075000000000001100 ) ) ;
#994 = EDGE_LOOP ( 'NONE', ( #30, #932, #956, #128 ) ) ;
#995 = CARTESIAN_POINT ( 'NONE',  ( -5.959731803925754100, -8.090628487303408900, -2.986620394826367900 ) ) ;
#996 = AXIS2_PLACEMENT_3D ( 'NONE', #1158, #611, #35 ) ;
#997 = DIRECTION ( 'NONE',  ( -1.000000000000000000, 0.0000000000000000000, 0.0000000000000000000 ) ) ;
#998 = ORIENTED_EDGE ( 'NONE', *, *, #1196, .T. ) ;
#999 = CARTESIAN_POINT ( 'NONE',  ( -5.657871685585490700, -9.203579899947911300, -1.058932001770535900 ) ) ;
#1000 = DIRECTION ( 'NONE',  ( -1.000000000000000000, -1.224646799147353200E-016, 0.0000000000000000000 ) ) ;
#1001 = AXIS2_PLACEMENT_3D ( 'NONE', #621, #1166, #712 ) ;
#1002 = DATE_AND_TIME ( #255, #58 ) ;
#1003 = ORGANIZATION ( 'UNSPECIFIED', 'UNSPECIFIED', '' ) ;
#1004 = ADVANCED_FACE ( 'NONE', ( #41 ), #859, .T. ) ;
#1005 = LINE ( 'NONE', #231, #472 ) ;
#1006 = VERTEX_POINT ( 'NONE', #95 ) ;
#1007 = VERTEX_POINT ( 'NONE', #391 ) ;
#1008 = CC_DESIGN_PERSON_AND_ORGANIZATION_ASSIGNMENT ( #819, #283, ( #1112 ) ) ;
#1009 = ORIENTED_EDGE ( 'NONE', *, *, #148, .T. ) ;
#1010 = DIRECTION ( 'NONE',  ( 0.0000000000000000000, 0.0000000000000000000, 1.000000000000000000 ) ) ;
#1011 = EDGE_CURVE ( 'NONE', #908, #737, #768, .T. ) ;
#1012 = CARTESIAN_POINT ( 'NONE',  ( -6.400000000000001200, -4.416729559300637900, 8.500000000000000000 ) ) ;
#1013 = AXIS2_PLACEMENT_3D ( 'NONE', #142, #339, #147 ) ;
#1014 = ADVANCED_FACE ( 'NONE', ( #774 ), #211, .F. ) ;
#1015 = CIRCLE ( 'NONE', #98, 5.000000000000000000 ) ;
#1016 = EDGE_CURVE ( 'NONE', #71, #465, #799, .T. ) ;
#1017 = LINE ( 'NONE', #766, #627 ) ;
#1018 = EDGE_CURVE ( 'NONE', #1007, #880, #1015, .T. ) ;
#1019 = DIRECTION ( 'NONE',  ( -1.000000000000000000, 0.0000000000000000000, -0.0000000000000000000 ) ) ;
#1020 = VECTOR ( 'NONE', #971, 1000.000000000000000 ) ;
#1021 = CARTESIAN_POINT ( 'NONE',  ( -5.500486223337309100, 5.152851152517522200, 8.074999999999809200 ) ) ;
#1022 = ORIENTED_EDGE ( 'NONE', *, *, #704, .T. ) ;
#1023 = ORIENTED_EDGE ( 'NONE', *, *, #262, .F. ) ;
#1024 = EDGE_LOOP ( 'NONE', ( #1050, #461 ) ) ;
#1025 = DIRECTION ( 'NONE',  ( -1.000000000000000000, 0.0000000000000000000, 0.0000000000000000000 ) ) ;
#1026 = AXIS2_PLACEMENT_3D ( 'NONE', #772, #495, #858 ) ;
#1027 = LOCAL_TIME ( 13, 39, 19.00000000000000000, #323 ) ;
#1028 = EDGE_CURVE ( 'NONE', #48, #454, #802, .T. ) ;
#1029 = CONICAL_SURFACE ( 'NONE', #854, 3.875000000000003600, 0.7853981633974495000 ) ;
#1030 = DATE_TIME_ROLE ( 'creation_date' ) ;
#1031 = EDGE_LOOP ( 'NONE', ( #1139, #263, #384, #67 ) ) ;
#1032 = EDGE_CURVE ( 'NONE', #886, #1007, #1059, .T. ) ;
#1033 = ORIENTED_EDGE ( 'NONE', *, *, #842, .F. ) ;
#1034 = ORIENTED_EDGE ( 'NONE', *, *, #588, .T. ) ;
#1035 = PERSON_AND_ORGANIZATION_ROLE ( 'design_supplier' ) ;
#1036 = AXIS2_PLACEMENT_3D ( 'NONE', #1079, #342, #1073 ) ;
#1037 = DIRECTION ( 'NONE',  ( -1.000000000000000000, -0.0000000000000000000, -0.0000000000000000000 ) ) ;
#1038 = DIRECTION ( 'NONE',  ( -1.224646799147353200E-016, 1.000000000000000000, 0.0000000000000000000 ) ) ;
#1039 = CARTESIAN_POINT ( 'NONE',  ( 26.87500000000000700, 0.0000000000000000000, 0.0000000000000000000 ) ) ;
#1040 = DIRECTION ( 'NONE',  ( -1.000000000000000000, -0.0000000000000000000, -0.0000000000000000000 ) ) ;
#1041 = CARTESIAN_POINT ( 'NONE',  ( 0.0000000000000000000, 0.0000000000000000000, 0.0000000000000000000 ) ) ;
#1042 = LINE ( 'NONE', #1197, #139 ) ;
#1043 = DIRECTION ( 'NONE',  ( 1.224646799147353200E-016, -1.000000000000000000, 0.0000000000000000000 ) ) ;
#1044 = VECTOR ( 'NONE', #267, 1000.000000000000000 ) ;
#1045 = ORIENTED_EDGE ( 'NONE', *, *, #376, .F. ) ;
#1046 = ADVANCED_FACE ( 'NONE', ( #733 ), #579, .F. ) ;
#1047 = CARTESIAN_POINT ( 'NONE',  ( -0.1269999999999995000, 9.814954576223639600, -1.622856877788896800E-016 ) ) ;
#1048 = CARTESIAN_POINT ( 'NONE',  ( -5.578247774632299800, 4.055059675695075900, 8.500000000000000000 ) ) ;
#1049 = ORIENTED_EDGE ( 'NONE', *, *, #20, .F. ) ;
#1050 = ORIENTED_EDGE ( 'NONE', *, *, #305, .T. ) ;
#1051 = CC_DESIGN_PERSON_AND_ORGANIZATION_ASSIGNMENT ( #980, #1035, ( #238 ) ) ;
#1052 = CARTESIAN_POINT ( 'NONE',  ( -0.1269999999999978400, -4.416729559300647700, 8.500000000000000000 ) ) ;
#1053 = CARTESIAN_POINT ( 'NONE',  ( -6.003638490568254900, -1.041025067988298600E-015, -8.500000000000000000 ) ) ;
#1054 = CARTESIAN_POINT ( 'NONE',  ( -5.500486223337395200, -5.152851152517724700, 8.074999999999457500 ) ) ;
#1055 = EDGE_CURVE ( 'NONE', #374, #71, #352, .T. ) ;
#1056 = CARTESIAN_POINT ( 'NONE',  ( -6.400000000000001200, 0.0000000000000000000, 0.0000000000000000000 ) ) ;
#1057 = DIRECTION ( 'NONE',  ( 1.000000000000000000, 0.0000000000000000000, 0.0000000000000000000 ) ) ;
#1058 = CARTESIAN_POINT ( 'NONE',  ( -6.003638490568254900, -1.041025067988298600E-015, -8.500000000000000000 ) ) ;
#1059 = LINE ( 'NONE', #99, #531 ) ;
#1060 = FACE_OUTER_BOUND ( 'NONE', #1205, .T. ) ;
#1061 = CARTESIAN_POINT ( 'NONE',  ( -0.1269999999999999200, 8.500000000000000000, 0.0000000000000000000 ) ) ;
#1062 = FACE_OUTER_BOUND ( 'NONE', #36, .T. ) ;
#1063 = CARTESIAN_POINT ( 'NONE',  ( -0.1269999999999992200, 9.569580711818050000, 0.4249999999999982700 ) ) ;
#1064 = CARTESIAN_POINT ( 'NONE',  ( -5.500486223337262000, -9.569580711818048300, 0.4250000000000001000 ) ) ;
#1065 = VERTEX_POINT ( 'NONE', #406 ) ;
#1066 = PRODUCT ( '90447A270_NO THREADS_High-Strength Class 10.9 Steel Hex Head Screw', '90447A270_NO THREADS_High-Strength Class 10.9 Steel Hex Head Screw', '', ( #182 ) ) ;
#1067 = B_SPLINE_CURVE_WITH_KNOTS ( 'NONE', 3,
 ( #380, #265, #1194, #566, #1111, #463 ),
 .UNSPECIFIED., .F., .F.,
 ( 4, 2, 4 ),
 ( 0.009258064318195374400, 0.01148758409645601900, 0.01371710387471666300 ),
 .UNSPECIFIED. ) ;
#1068 = CARTESIAN_POINT ( 'NONE',  ( -0.1269999999999995900, 9.569580711818048300, -0.4249999999999994900 ) ) ;
#1069 = EDGE_LOOP ( 'NONE', ( #1082, #426, #512, #1096 ) ) ;
#1070 = ORIENTED_EDGE ( 'NONE', *, *, #646, .F. ) ;
#1071 = DIRECTION ( 'NONE',  ( 0.0000000000000000000, 0.0000000000000000000, 1.000000000000000000 ) ) ;
#1072 = DIRECTION ( 'NONE',  ( 1.000000000000000000, 0.0000000000000000000, 0.0000000000000000000 ) ) ;
#1073 = DIRECTION ( 'NONE',  ( 0.0000000000000000000, 0.0000000000000000000, -1.000000000000000000 ) ) ;
#1074 = VECTOR ( 'NONE', #680, 1000.000000000000000 ) ;
#1075 = CIRCLE ( 'NONE', #266, 3.300000000000000300 ) ;
#1076 = CIRCLE ( 'NONE', #1220, 0.8500000000000000900 ) ;
#1077 = AXIS2_PLACEMENT_3D ( 'NONE', #912, #917, #1185 ) ;
#1078 = EDGE_LOOP ( 'NONE', ( #1034, #574, #914, #273, #1153 ) ) ;
#1079 = CARTESIAN_POINT ( 'NONE',  ( -6.400000000000001200, 4.416729559300637900, -7.650000000000000400 ) ) ;
#1080 = EDGE_CURVE ( 'NONE', #462, #71, #1211, .T. ) ;
#1081 = ORIENTED_EDGE ( 'NONE', *, *, #1210, .F. ) ;
#1082 = ORIENTED_EDGE ( 'NONE', *, *, #413, .T. ) ;
#1083 = ORIENTED_EDGE ( 'NONE', *, *, #1011, .F. ) ;
#1084 = DIRECTION ( 'NONE',  ( -1.000000000000000000, -1.224646799147353200E-016, 0.0000000000000000000 ) ) ;
#1085 = CARTESIAN_POINT ( 'NONE',  ( -5.656996158936401300, -5.516815922050426500, -7.444594527003720200 ) ) ;
#1086 = DIRECTION ( 'NONE',  ( 0.0000000000000000000, 0.0000000000000000000, 1.000000000000000000 ) ) ;
#1087 = EDGE_CURVE ( 'NONE', #448, #403, #982, .T. ) ;
#1088 = COORDINATED_UNIVERSAL_TIME_OFFSET ( 6, 0, .BEHIND. ) ;
#1089 = B_SPLINE_CURVE_WITH_KNOTS ( 'NONE', 3,
 ( #1146, #978, #28, #606, #216, #796 ),
 .UNSPECIFIED., .F., .F.,
 ( 4, 2, 4 ),
 ( 8.375438975577653100E-017, 0.0004461255435836650200, 0.0008922510871672462300 ),
 .UNSPECIFIED. ) ;
#1090 = CARTESIAN_POINT ( 'NONE',  ( -5.785681667021979300, -8.834567236150547800, -1.698080684103903800 ) ) ;
#1091 = DIRECTION ( 'NONE',  ( 0.0000000000000000000, 0.0000000000000000000, -1.000000000000000000 ) ) ;
#1092 = VECTOR ( 'NONE', #157, 1000.000000000000000 ) ;
#1093 = DIRECTION ( 'NONE',  ( -1.000000000000000000, -0.0000000000000000000, -0.0000000000000000000 ) ) ;
#1094 = EDGE_LOOP ( 'NONE', ( #1109, #575, #921, #1203, #935, #355, #64, #1149, #797, #623 ) ) ;
#1095 = CC_DESIGN_DATE_AND_TIME_ASSIGNMENT ( #257, #1030, ( #891 ) ) ;
#1096 = ORIENTED_EDGE ( 'NONE', *, *, #907, .F. ) ;
#1097 = EDGE_CURVE ( 'NONE', #403, #465, #350, .T. ) ;
#1098 = EDGE_LOOP ( 'NONE', ( #436, #762, #794, #1107 ) ) ;
#1099 = DIRECTION ( 'NONE',  ( -1.000000000000000000, 0.0000000000000000000, -0.0000000000000000000 ) ) ;
#1100 = EDGE_LOOP ( 'NONE', ( #343, #315, #32, #937, #1083, #203 ) ) ;
#1101 = DIRECTION ( 'NONE',  ( 1.000000000000000000, 0.0000000000000000000, 0.0000000000000000000 ) ) ;
#1102 = AXIS2_PLACEMENT_3D ( 'NONE', #405, #85, #755 ) ;
#1103 = LOCAL_TIME ( 13, 39, 19.00000000000000000, #1088 ) ;
#1104 = DIRECTION ( 'NONE',  ( 1.000000000000000000, -0.0000000000000000000, 0.0000000000000000000 ) ) ;
#1105 = CIRCLE ( 'NONE', #416, 8.500000000000000000 ) ;
#1106 = FACE_OUTER_BOUND ( 'NONE', #468, .T. ) ;
#1107 = ORIENTED_EDGE ( 'NONE', *, *, #131, .F. ) ;
#1108 = DIRECTION ( 'NONE',  ( 1.224646799147353200E-016, -1.000000000000000000, 0.0000000000000000000 ) ) ;
#1109 = ORIENTED_EDGE ( 'NONE', *, *, #506, .F. ) ;
#1110 = ORIENTED_EDGE ( 'NONE', *, *, #330, .F. ) ;
#1111 = CARTESIAN_POINT ( 'NONE',  ( -6.003638490568254900, -0.7385423633419968500, 8.500000000000000000 ) ) ;
#1112 = SECURITY_CLASSIFICATION ( '', '', #844 ) ;
#1113 = AXIS2_PLACEMENT_3D ( 'NONE', #795, #117, #236 ) ;
#1114 = CONICAL_SURFACE ( 'NONE', #107, 8.500000000000000000, 1.134464013796318000 ) ;
#1115 = FACE_BOUND ( 'NONE', #710, .T. ) ;
#1116 = FACE_BOUND ( 'NONE', #143, .T. ) ;
#1117 = ORIENTED_EDGE ( 'NONE', *, *, #174, .T. ) ;
#1118 = DATE_TIME_ROLE ( 'classification_date' ) ;
#1119 = AXIS2_PLACEMENT_3D ( 'NONE', #1039, #1025, #483 ) ;
#1120 = ADVANCED_BREP_SHAPE_REPRESENTATION ( '90447A270_NO THREADS_High-Strength Class 10.9 Steel Hex Head Screw', ( #392, #828 ), #809 ) ;
#1121 = DIRECTION ( 'NONE',  ( -1.211755369248505100E-016, 1.000000000000000000, 0.0000000000000000000 ) ) ;
#1122 = VERTEX_POINT ( 'NONE', #1127 ) ;
#1123 = ORIENTED_EDGE ( 'NONE', *, *, #773, .F. ) ;
#1124 = EDGE_CURVE ( 'NONE', #166, #1134, #1089, .T. ) ;
#1125 = DIRECTION ( 'NONE',  ( 0.0000000000000000000, 0.0000000000000000000, 1.000000000000000000 ) ) ;
#1126 = CARTESIAN_POINT ( 'NONE',  ( -6.400000000000001200, 4.416729559300637900, -8.500000000000000000 ) ) ;
#1127 = CARTESIAN_POINT ( 'NONE',  ( -6.250000000000000900, 0.0000000000000000000, 3.400000000000000400 ) ) ;
#1128 = APPROVAL_ROLE ( '' ) ;
#1129 = DIRECTION ( 'NONE',  ( 0.0000000000000000000, 0.0000000000000000000, 1.000000000000000000 ) ) ;
#1130 = CC_DESIGN_APPROVAL ( #390, ( #1112 ) ) ;
#1131 = PERSON_AND_ORGANIZATION ( #50, #1003 ) ;
#1132 = FACE_OUTER_BOUND ( 'NONE', #1078, .T. ) ;
#1133 = DIRECTION ( 'NONE',  ( 0.0000000000000000000, 0.0000000000000000000, -1.000000000000000000 ) ) ;
#1134 = VERTEX_POINT ( 'NONE', #1064 ) ;
#1135 = ORIENTED_EDGE ( 'NONE', *, *, #1055, .T. ) ;
#1136 = CARTESIAN_POINT ( 'NONE',  ( -5.500486223337259300, -4.416729559300647700, -8.500000000000000000 ) ) ;
#1137 = EDGE_CURVE ( 'NONE', #626, #462, #27, .T. ) ;
#1138 = AXIS2_PLACEMENT_3D ( 'NONE', #730, #451, #1091 ) ;
#1139 = ORIENTED_EDGE ( 'NONE', *, *, #657, .F. ) ;
#1140 = VERTEX_POINT ( 'NONE', #514 ) ;
#1141 = DIRECTION ( 'NONE',  ( 1.000000000000000000, 1.224646799147353200E-016, -0.0000000000000000000 ) ) ;
#1142 = EDGE_CURVE ( 'NONE', #1134, #1065, #723, .T. ) ;
#1143 = ADVANCED_FACE ( 'NONE', ( #745 ), #429, .T. ) ;
#1144 = DIRECTION ( 'NONE',  ( 0.0000000000000000000, 0.0000000000000000000, 1.000000000000000000 ) ) ;
#1145 = VECTOR ( 'NONE', #533, 1000.000000000000000 ) ;
#1146 = CARTESIAN_POINT ( 'NONE',  ( -5.500486223337395200, -9.569580711817733800, -0.4250000000005436700 ) ) ;
#1147 = CARTESIAN_POINT ( 'NONE',  ( -5.657871685585490700, 9.203579899947909500, 1.058932001770536800 ) ) ;
#1148 = CIRCLE ( 'NONE', #482, 8.500000000000000000 ) ;
#1149 = ORIENTED_EDGE ( 'NONE', *, *, #312, .T. ) ;
#1150 = CARTESIAN_POINT ( 'NONE',  ( -0.1269999999999989700, -1.555301434917125900E-017, 0.0000000000000000000 ) ) ;
#1151 = CARTESIAN_POINT ( 'NONE',  ( -5.500486223337395200, -5.152851152517724700, 8.074999999999457500 ) ) ;
#1152 = DIRECTION ( 'NONE',  ( -1.000000000000000000, -0.0000000000000000000, 0.0000000000000000000 ) ) ;
#1153 = ORIENTED_EDGE ( 'NONE', *, *, #530, .F. ) ;
#1154 = ORIENTED_EDGE ( 'NONE', *, *, #393, .T. ) ;
#1155 = DIRECTION ( 'NONE',  ( 1.000000000000000000, 0.0000000000000000000, 0.0000000000000000000 ) ) ;
#1156 = APPROVAL ( #179, 'UNSPECIFIED' ) ;
#1157 = CARTESIAN_POINT ( 'NONE',  ( -5.451736532357712100, -4.713423387133237200, 8.460323815694133400 ) ) ;
#1158 = CARTESIAN_POINT ( 'NONE',  ( -6.150000000000001200, 0.0000000000000000000, 0.0000000000000000000 ) ) ;
#1159 = EDGE_CURVE ( 'NONE', #78, #280, #501, .T. ) ;
#1160 = CARTESIAN_POINT ( 'NONE',  ( -6.400000000000001200, 0.0000000000000000000, 0.0000000000000000000 ) ) ;
#1161 = CIRCLE ( 'NONE', #862, 5.000000000000000000 ) ;
#1162 = AXIS2_PLACEMENT_3D ( 'NONE', #47, #1084, #536 ) ;
#1163 = LINE ( 'NONE', #302, #775 ) ;
#1164 = VERTEX_POINT ( 'NONE', #297 ) ;
#1165 = ORIENTED_EDGE ( 'NONE', *, *, #544, .T. ) ;
#1166 = DIRECTION ( 'NONE',  ( -1.000000000000000000, 0.0000000000000000000, -0.0000000000000000000 ) ) ;
#1167 = ORIENTED_EDGE ( 'NONE', *, *, #1032, .T. ) ;
#1168 = ORIENTED_EDGE ( 'NONE', *, *, #849, .T. ) ;
#1169 = CARTESIAN_POINT ( 'NONE',  ( -0.1269999999999986400, 4.416729559300638800, 7.650000000000000400 ) ) ;
#1170 = CARTESIAN_POINT ( 'NONE',  ( -0.1269999999999989700, -1.555301434917125900E-017, 0.0000000000000000000 ) ) ;
#1171 = CARTESIAN_POINT ( 'NONE',  ( -6.400000000000001200, 4.416729559300639700, 8.500000000000000000 ) ) ;
#1172 = VECTOR ( 'NONE', #74, 1000.000000000000000 ) ;
#1173 = CARTESIAN_POINT ( 'NONE',  ( -5.500486223337262000, 9.569580711818048300, -0.4249999999999998800 ) ) ;
#1174 = CIRCLE ( 'NONE', #241, 0.5000000000000004400 ) ;
#1175 = FACE_OUTER_BOUND ( 'NONE', #1094, .T. ) ;
#1176 = CARTESIAN_POINT ( 'NONE',  ( -6.300000000000000700, 4.163799117101001100E-016, -3.400000000000000400 ) ) ;
#1177 = EDGE_CURVE ( 'NONE', #1122, #592, #162, .T. ) ;
#1178 = CARTESIAN_POINT ( 'NONE',  ( -0.1269999999999998600, 7.361215932167729300, -4.249999999999999100 ) ) ;
#1179 = EDGE_LOOP ( 'NONE', ( #810, #430, #1110, #738, #1049 ) ) ;
#1180 = ORIENTED_EDGE ( 'NONE', *, *, #45, .F. ) ;
#1181 = CARTESIAN_POINT ( 'NONE',  ( -5.468795768682581700, 5.079154815080754800, -8.202645800772030400 ) ) ;
#1182 = CARTESIAN_POINT ( 'NONE',  ( -5.500486223337261100, 4.416729559300638800, -8.500000000000000000 ) ) ;
#1183 = AXIS2_PLACEMENT_3D ( 'NONE', #821, #732, #455 ) ;
#1184 = ORIENTED_EDGE ( 'NONE', *, *, #130, .T. ) ;
#1185 = DIRECTION ( 'NONE',  ( 0.0000000000000000000, 0.0000000000000000000, 1.000000000000000000 ) ) ;
#1186 = COORDINATED_UNIVERSAL_TIME_OFFSET ( 6, 0, .BEHIND. ) ;
#1187 = TOROIDAL_SURFACE ( 'NONE', #735, 5.500000000000000000, 0.5000000000000000000 ) ;
#1188 = LINE ( 'NONE', #1047, #418 ) ;
#1189 = AXIS2_PLACEMENT_3D ( 'NONE', #761, #771, #200 ) ;
#1190 = ORIENTED_EDGE ( 'NONE', *, *, #1159, .F. ) ;
#1191 = CARTESIAN_POINT ( 'NONE',  ( -6.250000000000000900, 0.0000000000000000000, 0.0000000000000000000 ) ) ;
#1192 = ORIENTED_EDGE ( 'NONE', *, *, #814, .F. ) ;
#1193 = EDGE_CURVE ( 'NONE', #1164, #839, #188, .T. ) ;
#1194 = CARTESIAN_POINT ( 'NONE',  ( -5.785097247444432400, -2.948688353749374900, 8.500000000000000000 ) ) ;
#1195 = AXIS2_PLACEMENT_3D ( 'NONE', #696, #309, #603 ) ;
#1196 = EDGE_CURVE ( 'NONE', #112, #886, #1161, .T. ) ;
#1197 = CARTESIAN_POINT ( 'NONE',  ( -6.400000000000001200, 5.152851152517412100, 8.075000000000001100 ) ) ;
#1198 = CIRCLE ( 'NONE', #1119, 5.000000000000000000 ) ;
#1199 = FACE_OUTER_BOUND ( 'NONE', #609, .T. ) ;
#1200 = ORIENTED_EDGE ( 'NONE', *, *, #148, .F. ) ;
#1201 = PLANE ( 'NONE',  #563 ) ;
#1202 = ADVANCED_FACE ( 'NONE', ( #832 ), #337, .T. ) ;
#1203 = ORIENTED_EDGE ( 'NONE', *, *, #911, .T. ) ;
#1204 = APPLICATION_CONTEXT ( 'configuration controlled 3d designs of mechanical parts and assemblies' ) ;
#1205 = EDGE_LOOP ( 'NONE', ( #951, #159, #881, #664, #535 ) ) ;
#1206 = DIRECTION ( 'NONE',  ( -6.123233995736764800E-017, 0.4999999999999998900, 0.8660254037844387100 ) ) ;
#1207 = EDGE_CURVE ( 'NONE', #612, #48, #304, .T. ) ;
#1208 = CARTESIAN_POINT ( 'NONE',  ( -5.468795768678896600, -4.564122234174119400, -8.500000000000000000 ) ) ;
#1209 = AXIS2_PLACEMENT_3D ( 'NONE', #684, #1141, #187 ) ;
#1210 = EDGE_CURVE ( 'NONE', #39, #158, #820, .T. ) ;
#1211 = LINE ( 'NONE', #960, #557 ) ;
#1212 = DIRECTION ( 'NONE',  ( 1.000000000000000000, 1.224646799147353200E-016, -0.0000000000000000000 ) ) ;
#1213 = EDGE_CURVE ( 'NONE', #407, #278, #547, .T. ) ;
#1214 = DIRECTION ( 'NONE',  ( -0.7071067811865466800, 0.0000000000000000000, 0.7071067811865483500 ) ) ;
#1215 = LINE ( 'NONE', #90, #558 ) ;
#1216 = CARTESIAN_POINT ( 'NONE',  ( -0.1269999999999999200, 8.500000000000000000, 0.0000000000000000000 ) ) ;
#1217 = EDGE_LOOP ( 'NONE', ( #156, #649, #610, #555 ) ) ;
#1218 = ORIENTED_EDGE ( 'NONE', *, *, #1055, .F. ) ;
#1219 = APPROVAL_ROLE ( '' ) ;
#1220 = AXIS2_PLACEMENT_3D ( 'NONE', #247, #437, #902 ) ;
#1221 = CARTESIAN_POINT ( 'NONE',  ( -0.1269999999999998600, 7.361215932167729300, 4.249999999999999100 ) ) ;
#1222 = CARTESIAN_POINT ( 'NONE',  ( -0.1269999999999986400, 4.907477288111823400, -8.500000000000000000 ) ) ;
#1223 = CARTESIAN_POINT ( 'NONE',  ( -5.500486223337261100, 4.416729559300638800, 8.500000000000000000 ) ) ;
ENDSEC;
END-ISO-10303-21;
