ISO-10303-21;
HEADER;
FILE_DESCRIPTION (( 'STEP AP203' ),
    '1' );
FILE_NAME ('93475A280_18-8 Stainless Steel Washer.STEP',
    '2021-09-09T01:14:52',
    ( 'Administrator' ),
    ( 'Managed by Terraform' ),
    'SwSTEP 2.0',
    'SolidWorks 2017',
    '' );
FILE_SCHEMA (( 'CONFIG_CONTROL_DESIGN' ));
ENDSEC;

DATA;
#1 = DIRECTION ( 'NONE',  ( -1.000000000000000000, 0.0000000000000000000, 0.0000000000000000000 ) ) ;
#2 = VERTEX_POINT ( 'NONE', #116 ) ;
#3 = CARTESIAN_POINT ( 'NONE',  ( 10.00000000000000000, 1.224646799147353300E-015, 2.200000000000000200 ) ) ;
#4 = DATE_TIME_ROLE ( 'creation_date' ) ;
#5 = PERSON ( 'UNSPECIFIED', 'UNSPECIFIED', 'UNSPECIFIED', ('UNSPECIFIED'), ('UNSPECIFIED'), ('UNSPECIFIED') ) ;
#6 = EDGE_CURVE ( 'NONE', #22, #46, #93, .T. ) ;
#7 = ORIENTED_EDGE ( 'NONE', *, *, #248, .T. ) ;
#8 = PERSON_AND_ORGANIZATION_ROLE ( 'creator' ) ;
#9 = CC_DESIGN_APPROVAL ( #213, ( #63 ) ) ;
#10 = ORIENTED_EDGE ( 'NONE', *, *, #118, .F. ) ;
#11 = ADVANCED_FACE ( 'NONE', ( #221 ), #161, .T. ) ;
#12 = UNCERTAINTY_MEASURE_WITH_UNIT (LENGTH_MEASURE( 1.000000000000000100E-005 ), #143, 'distance_accuracy_value', 'NONE');
#13 = FACE_OUTER_BOUND ( 'NONE', #131, .T. ) ;
#14 = ORIENTED_EDGE ( 'NONE', *, *, #107, .T. ) ;
#15 = ORIENTED_EDGE ( 'NONE', *, *, #130, .F. ) ;
#16 = EDGE_CURVE ( 'NONE', #22, #208, #209, .T. ) ;
#17 = DIRECTION ( 'NONE',  ( 0.0000000000000000000, 0.0000000000000000000, 1.000000000000000000 ) ) ;
#18 = PERSON_AND_ORGANIZATION ( #5, #192 ) ;
#19 = DIRECTION ( 'NONE',  ( -0.0000000000000000000, -0.0000000000000000000, -1.000000000000000000 ) ) ;
#20 = LOCAL_TIME ( 20, 14, 52.00000000000000000, #215 ) ;
#21 = CARTESIAN_POINT ( 'NONE',  ( 0.0000000000000000000, 0.0000000000000000000, 2.200000000000000200 ) ) ;
#22 = VERTEX_POINT ( 'NONE', #138 ) ;
#23 = AXIS2_PLACEMENT_3D ( 'NONE', #39, #178, #195 ) ;
#24 = APPROVAL_ROLE ( '' ) ;
#25 = FACE_OUTER_BOUND ( 'NONE', #71, .T. ) ;
#26 = APPLICATION_PROTOCOL_DEFINITION ( 'international standard', 'config_control_design', 1994, #158 ) ;
#27 = PERSON_AND_ORGANIZATION_ROLE ( 'creator' ) ;
#28 = PERSON_AND_ORGANIZATION ( #5, #192 ) ;
#29 = DIRECTION ( 'NONE',  ( 1.000000000000000000, 0.0000000000000000000, -0.0000000000000000000 ) ) ;
#30 = CC_DESIGN_DATE_AND_TIME_ASSIGNMENT ( #181, #4, ( #63 ) ) ;
#31 = LINE ( 'NONE', #194, #225 ) ;
#32 = EDGE_LOOP ( 'NONE', ( #203, #10 ) ) ;
#33 = AXIS2_PLACEMENT_3D ( 'NONE', #134, #156, #100 ) ;
#34 = DATE_AND_TIME ( #70, #84 ) ;
#35 = PRODUCT_DEFINITION_FORMATION_WITH_SPECIFIED_SOURCE ( 'ANY', '', #62, .NOT_KNOWN. ) ;
#36 = CIRCLE ( 'NONE', #95, 5.250000000000000000 ) ;
#37 = CARTESIAN_POINT ( 'NONE',  ( -10.00000000000000000, 0.0000000000000000000, 0.0000000000000000000 ) ) ;
#38 = CARTESIAN_POINT ( 'NONE',  ( 0.0000000000000000000, 0.0000000000000000000, 2.200000000000000200 ) ) ;
#39 = CARTESIAN_POINT ( 'NONE',  ( 0.0000000000000000000, 0.0000000000000000000, 0.0000000000000000000 ) ) ;
#40 = ORIENTED_EDGE ( 'NONE', *, *, #16, .T. ) ;
#41 = CARTESIAN_POINT ( 'NONE',  ( 0.0000000000000000000, 0.0000000000000000000, 0.0000000000000000000 ) ) ;
#42 = AXIS2_PLACEMENT_3D ( 'NONE', #212, #152, #247 ) ;
#43 = DATE_TIME_ROLE ( 'classification_date' ) ;
#44 = CALENDAR_DATE ( 2021, 8, 9 ) ;
#45 = APPROVAL_ROLE ( '' ) ;
#46 = VERTEX_POINT ( 'NONE', #37 ) ;
#47 = CC_DESIGN_DATE_AND_TIME_ASSIGNMENT ( #189, #43, ( #113 ) ) ;
#48 = PERSON_AND_ORGANIZATION ( #5, #192 ) ;
#49 = ORIENTED_EDGE ( 'NONE', *, *, #170, .T. ) ;
#50 = ORIENTED_EDGE ( 'NONE', *, *, #16, .F. ) ;
#51 = PLANE ( 'NONE',  #33 ) ;
#52 = DIRECTION ( 'NONE',  ( 1.000000000000000000, 0.0000000000000000000, 0.0000000000000000000 ) ) ;
#53 = DIRECTION ( 'NONE',  ( -1.000000000000000000, 0.0000000000000000000, 0.0000000000000000000 ) ) ;
#54 = LOCAL_TIME ( 20, 14, 52.00000000000000000, #214 ) ;
#55 = APPROVAL_PERSON_ORGANIZATION ( #210, #57, #24 ) ;
#56 = DESIGN_CONTEXT ( 'detailed design', #140, 'design' ) ;
#57 = APPROVAL ( #240, 'UNSPECIFIED' ) ;
#58 = APPROVAL ( #200, 'UNSPECIFIED' ) ;
#59 = DIRECTION ( 'NONE',  ( 0.0000000000000000000, 0.0000000000000000000, 1.000000000000000000 ) ) ;
#60 = VECTOR ( 'NONE', #98, 1000.000000000000000 ) ;
#61 = CARTESIAN_POINT ( 'NONE',  ( 0.0000000000000000000, 0.0000000000000000000, 2.200000000000000200 ) ) ;
#62 = PRODUCT ( '93475A280_18-8 Stainless Steel Washer', '93475A280_18-8 Stainless Steel Washer', '', ( #106 ) ) ;
#63 = PRODUCT_DEFINITION ( 'UNKNOWN', '', #35, #56 ) ;
#64 = FACE_BOUND ( 'NONE', #244, .T. ) ;
#65 = FACE_OUTER_BOUND ( 'NONE', #108, .T. ) ;
#66 = ORIENTED_EDGE ( 'NONE', *, *, #107, .F. ) ;
#67 = CIRCLE ( 'NONE', #226, 5.250000000000000000 ) ;
#68 = ORIENTED_EDGE ( 'NONE', *, *, #85, .T. ) ;
#69 = CC_DESIGN_PERSON_AND_ORGANIZATION_ASSIGNMENT ( #171, #8, ( #35 ) ) ;
#70 = CALENDAR_DATE ( 2021, 8, 9 ) ;
#71 = EDGE_LOOP ( 'NONE', ( #157, #126, #218, #109 ) ) ;
#72 = CARTESIAN_POINT ( 'NONE',  ( 0.0000000000000000000, 0.0000000000000000000, 2.200000000000000200 ) ) ;
#73 = APPROVAL_DATE_TIME ( #34, #57 ) ;
#74 = DIRECTION ( 'NONE',  ( 1.000000000000000000, 0.0000000000000000000, 0.0000000000000000000 ) ) ;
#75 = CALENDAR_DATE ( 2021, 8, 9 ) ;
#76 = CARTESIAN_POINT ( 'NONE',  ( 0.0000000000000000000, 0.0000000000000000000, 0.0000000000000000000 ) ) ;
#77 = VECTOR ( 'NONE', #136, 1000.000000000000000 ) ;
#78 = EDGE_CURVE ( 'NONE', #230, #191, #129, .T. ) ;
#79 = CARTESIAN_POINT ( 'NONE',  ( -5.250000000000000000, 0.0000000000000000000, 0.0000000000000000000 ) ) ;
#80 = DIRECTION ( 'NONE',  ( 0.0000000000000000000, 0.0000000000000000000, 1.000000000000000000 ) ) ;
#81 = PLANE ( 'NONE',  #222 ) ;
#82 = ORIENTED_EDGE ( 'NONE', *, *, #6, .T. ) ;
#83 = ADVANCED_BREP_SHAPE_REPRESENTATION ( '93475A280_18-8 Stainless Steel Washer', ( #186, #148 ), #135 ) ;
#84 = LOCAL_TIME ( 20, 14, 52.00000000000000000, #179 ) ;
#85 = EDGE_CURVE ( 'NONE', #119, #180, #31, .T. ) ;
#86 = CARTESIAN_POINT ( 'NONE',  ( 0.0000000000000000000, 0.0000000000000000000, 0.0000000000000000000 ) ) ;
#87 = COORDINATED_UNIVERSAL_TIME_OFFSET ( 6, 0, .BEHIND. ) ;
#88 = CIRCLE ( 'NONE', #150, 5.250000000000000000 ) ;
#89 = CC_DESIGN_PERSON_AND_ORGANIZATION_ASSIGNMENT ( #18, #162, ( #113 ) ) ;
#90 = ADVANCED_FACE ( 'NONE', ( #25 ), #141, .F. ) ;
#91 = APPROVAL_PERSON_ORGANIZATION ( #151, #58, #187 ) ;
#92 = CYLINDRICAL_SURFACE ( 'NONE', #207, 10.00000000000000000 ) ;
#93 = LINE ( 'NONE', #246, #60 ) ;
#94 = CARTESIAN_POINT ( 'NONE',  ( 0.0000000000000000000, 0.0000000000000000000, 2.200000000000000200 ) ) ;
#95 = AXIS2_PLACEMENT_3D ( 'NONE', #72, #139, #154 ) ;
#96 = LOCAL_TIME ( 20, 14, 52.00000000000000000, #147 ) ;
#97 = CARTESIAN_POINT ( 'NONE',  ( 0.0000000000000000000, 0.0000000000000000000, 2.200000000000000200 ) ) ;
#98 = DIRECTION ( 'NONE',  ( -0.0000000000000000000, -0.0000000000000000000, -1.000000000000000000 ) ) ;
#99 = CARTESIAN_POINT ( 'NONE',  ( 0.0000000000000000000, 0.0000000000000000000, 0.0000000000000000000 ) ) ;
#100 = DIRECTION ( 'NONE',  ( 1.000000000000000000, 0.0000000000000000000, -0.0000000000000000000 ) ) ;
#101 = EDGE_LOOP ( 'NONE', ( #197, #7, #68, #206 ) ) ;
#102 = CC_DESIGN_PERSON_AND_ORGANIZATION_ASSIGNMENT ( #28, #144, ( #35 ) ) ;
#103 = DIRECTION ( 'NONE',  ( 1.000000000000000000, 0.0000000000000000000, 0.0000000000000000000 ) ) ;
#104 = SHAPE_DEFINITION_REPRESENTATION ( #199, #83 ) ;
#105 = CYLINDRICAL_SURFACE ( 'NONE', #42, 5.250000000000000000 ) ;
#106 = MECHANICAL_CONTEXT ( 'NONE', #158, 'mechanical' ) ;
#107 = EDGE_CURVE ( 'NONE', #208, #22, #153, .T. ) ;
#108 = EDGE_LOOP ( 'NONE', ( #40, #14 ) ) ;
#109 = ORIENTED_EDGE ( 'NONE', *, *, #85, .F. ) ;
#110 = AXIS2_PLACEMENT_3D ( 'NONE', #94, #174, #1 ) ;
#111 = APPROVAL_DATE_TIME ( #127, #58 ) ;
#112 = LINE ( 'NONE', #3, #124 ) ;
#113 = SECURITY_CLASSIFICATION ( '', '', #159 ) ;
#114 = AXIS2_PLACEMENT_3D ( 'NONE', #38, #19, #53 ) ;
#115 = ORIENTED_EDGE ( 'NONE', *, *, #205, .F. ) ;
#116 = CARTESIAN_POINT ( 'NONE',  ( 10.00000000000000000, 1.224646799147353300E-015, 0.0000000000000000000 ) ) ;
#117 = DIRECTION ( 'NONE',  ( -1.000000000000000000, 0.0000000000000000000, 0.0000000000000000000 ) ) ;
#118 = EDGE_CURVE ( 'NONE', #2, #46, #165, .T. ) ;
#119 = VERTEX_POINT ( 'NONE', #245 ) ;
#120 = CARTESIAN_POINT ( 'NONE',  ( 5.250000000000000000, 6.429395695523604200E-016, 0.0000000000000000000 ) ) ;
#121 = APPLICATION_PROTOCOL_DEFINITION ( 'international standard', 'config_control_design', 1994, #140 ) ;
#122 = CC_DESIGN_APPROVAL ( #58, ( #113 ) ) ;
#123 = DIRECTION ( 'NONE',  ( 0.0000000000000000000, 0.0000000000000000000, 1.000000000000000000 ) ) ;
#124 = VECTOR ( 'NONE', #238, 1000.000000000000000 ) ;
#125 = ORIENTED_EDGE ( 'NONE', *, *, #118, .T. ) ;
#126 = ORIENTED_EDGE ( 'NONE', *, *, #78, .T. ) ;
#127 = DATE_AND_TIME ( #185, #20 ) ;
#128 = PERSON_AND_ORGANIZATION ( #5, #192 ) ;
#129 = LINE ( 'NONE', #173, #77 ) ;
#130 = EDGE_CURVE ( 'NONE', #119, #230, #36, .T. ) ;
#131 = EDGE_LOOP ( 'NONE', ( #115, #50, #82, #232 ) ) ;
#132 = CC_DESIGN_SECURITY_CLASSIFICATION ( #113, ( #35 ) ) ;
#133 = CARTESIAN_POINT ( 'NONE',  ( 5.250000000000000000, 6.429395695523604200E-016, 2.200000000000000200 ) ) ;
#134 = CARTESIAN_POINT ( 'NONE',  ( 0.0000000000000000000, 0.0000000000000000000, 2.200000000000000200 ) ) ;
#135 =( GEOMETRIC_REPRESENTATION_CONTEXT ( 3 ) GLOBAL_UNCERTAINTY_ASSIGNED_CONTEXT ( ( #12 ) ) GLOBAL_UNIT_ASSIGNED_CONTEXT ( ( #143, #183, #237 ) ) REPRESENTATION_CONTEXT ( 'NONE', 'WORKASPACE' ) );
#136 = DIRECTION ( 'NONE',  ( -0.0000000000000000000, -0.0000000000000000000, -1.000000000000000000 ) ) ;
#137 = CALENDAR_DATE ( 2021, 8, 9 ) ;
#138 = CARTESIAN_POINT ( 'NONE',  ( -10.00000000000000000, 0.0000000000000000000, 2.200000000000000200 ) ) ;
#139 = DIRECTION ( 'NONE',  ( 0.0000000000000000000, 0.0000000000000000000, 1.000000000000000000 ) ) ;
#140 = APPLICATION_CONTEXT ( 'configuration controlled 3d designs of mechanical parts and assemblies' ) ;
#141 = CYLINDRICAL_SURFACE ( 'NONE', #110, 5.250000000000000000 ) ;
#142 = AXIS2_PLACEMENT_3D ( 'NONE', #21, #80, #177 ) ;
#143 =( LENGTH_UNIT ( ) NAMED_UNIT ( * ) SI_UNIT ( .MILLI., .METRE. ) );
#144 = PERSON_AND_ORGANIZATION_ROLE ( 'design_supplier' ) ;
#145 = EDGE_CURVE ( 'NONE', #46, #2, #169, .T. ) ;
#146 = ORIENTED_EDGE ( 'NONE', *, *, #205, .T. ) ;
#147 = COORDINATED_UNIVERSAL_TIME_OFFSET ( 6, 0, .BEHIND. ) ;
#148 = AXIS2_PLACEMENT_3D ( 'NONE', #86, #59, #223 ) ;
#149 = FACE_BOUND ( 'NONE', #176, .T. ) ;
#150 = AXIS2_PLACEMENT_3D ( 'NONE', #99, #172, #249 ) ;
#151 = PERSON_AND_ORGANIZATION ( #5, #192 ) ;
#152 = DIRECTION ( 'NONE',  ( -0.0000000000000000000, -0.0000000000000000000, -1.000000000000000000 ) ) ;
#153 = CIRCLE ( 'NONE', #142, 10.00000000000000000 ) ;
#154 = DIRECTION ( 'NONE',  ( 1.000000000000000000, 0.0000000000000000000, 0.0000000000000000000 ) ) ;
#155 = AXIS2_PLACEMENT_3D ( 'NONE', #216, #17, #52 ) ;
#156 = DIRECTION ( 'NONE',  ( 0.0000000000000000000, 0.0000000000000000000, 1.000000000000000000 ) ) ;
#157 = ORIENTED_EDGE ( 'NONE', *, *, #130, .T. ) ;
#158 = APPLICATION_CONTEXT ( 'configuration controlled 3d designs of mechanical parts and assemblies' ) ;
#159 = SECURITY_CLASSIFICATION_LEVEL ( 'unclassified' ) ;
#160 = PRODUCT_RELATED_PRODUCT_CATEGORY ( 'detail', '', ( #62 ) ) ;
#161 = CYLINDRICAL_SURFACE ( 'NONE', #114, 10.00000000000000000 ) ;
#162 = PERSON_AND_ORGANIZATION_ROLE ( 'classification_officer' ) ;
#163 = AXIS2_PLACEMENT_3D ( 'NONE', #76, #217, #74 ) ;
#164 = APPROVAL_STATUS ( 'not_yet_approved' ) ;
#165 = CIRCLE ( 'NONE', #155, 10.00000000000000000 ) ;
#166 = ADVANCED_FACE ( 'NONE', ( #65, #149 ), #51, .T. ) ;
#167 = ORIENTED_EDGE ( 'NONE', *, *, #182, .T. ) ;
#168 = FACE_OUTER_BOUND ( 'NONE', #101, .T. ) ;
#169 = CIRCLE ( 'NONE', #163, 10.00000000000000000 ) ;
#170 = EDGE_CURVE ( 'NONE', #191, #180, #235, .T. ) ;
#171 = PERSON_AND_ORGANIZATION ( #5, #192 ) ;
#172 = DIRECTION ( 'NONE',  ( 0.0000000000000000000, 0.0000000000000000000, 1.000000000000000000 ) ) ;
#173 = CARTESIAN_POINT ( 'NONE',  ( 5.250000000000000000, 6.429395695523604200E-016, 2.200000000000000200 ) ) ;
#174 = DIRECTION ( 'NONE',  ( -0.0000000000000000000, -0.0000000000000000000, -1.000000000000000000 ) ) ;
#175 = DATE_AND_TIME ( #44, #96 ) ;
#176 = EDGE_LOOP ( 'NONE', ( #15, #243 ) ) ;
#177 = DIRECTION ( 'NONE',  ( 1.000000000000000000, 0.0000000000000000000, 0.0000000000000000000 ) ) ;
#178 = DIRECTION ( 'NONE',  ( 0.0000000000000000000, 0.0000000000000000000, 1.000000000000000000 ) ) ;
#179 = COORDINATED_UNIVERSAL_TIME_OFFSET ( 6, 0, .BEHIND. ) ;
#180 = VERTEX_POINT ( 'NONE', #79 ) ;
#181 = DATE_AND_TIME ( #137, #229 ) ;
#182 = EDGE_CURVE ( 'NONE', #180, #191, #88, .T. ) ;
#183 =( NAMED_UNIT ( * ) PLANE_ANGLE_UNIT ( ) SI_UNIT ( $, .RADIAN. ) );
#184 = CARTESIAN_POINT ( 'NONE',  ( 10.00000000000000000, 1.224646799147353300E-015, 2.200000000000000200 ) ) ;
#185 = CALENDAR_DATE ( 2021, 8, 9 ) ;
#186 = MANIFOLD_SOLID_BREP ( 'Boss-Extrude1', #193 ) ;
#187 = APPROVAL_ROLE ( '' ) ;
#188 = APPROVAL_PERSON_ORGANIZATION ( #201, #213, #45 ) ;
#189 = DATE_AND_TIME ( #75, #54 ) ;
#190 = ADVANCED_FACE ( 'NONE', ( #13 ), #92, .T. ) ;
#191 = VERTEX_POINT ( 'NONE', #120 ) ;
#192 = ORGANIZATION ( 'UNSPECIFIED', 'UNSPECIFIED', '' ) ;
#193 = CLOSED_SHELL ( 'NONE', ( #90, #11, #166, #231, #190, #204 ) ) ;
#194 = CARTESIAN_POINT ( 'NONE',  ( -5.250000000000000000, 0.0000000000000000000, 2.200000000000000200 ) ) ;
#195 = DIRECTION ( 'NONE',  ( 1.000000000000000000, 0.0000000000000000000, 0.0000000000000000000 ) ) ;
#196 = DIRECTION ( 'NONE',  ( 0.0000000000000000000, 0.0000000000000000000, 1.000000000000000000 ) ) ;
#197 = ORIENTED_EDGE ( 'NONE', *, *, #78, .F. ) ;
#198 = PERSON_AND_ORGANIZATION_ROLE ( 'design_owner' ) ;
#199 = PRODUCT_DEFINITION_SHAPE ( 'NONE', 'NONE',  #63 ) ;
#200 = APPROVAL_STATUS ( 'not_yet_approved' ) ;
#201 = PERSON_AND_ORGANIZATION ( #5, #192 ) ;
#202 = CC_DESIGN_PERSON_AND_ORGANIZATION_ASSIGNMENT ( #48, #198, ( #62 ) ) ;
#203 = ORIENTED_EDGE ( 'NONE', *, *, #145, .F. ) ;
#204 = ADVANCED_FACE ( 'NONE', ( #168 ), #105, .F. ) ;
#205 = EDGE_CURVE ( 'NONE', #208, #2, #112, .T. ) ;
#206 = ORIENTED_EDGE ( 'NONE', *, *, #170, .F. ) ;
#207 = AXIS2_PLACEMENT_3D ( 'NONE', #97, #234, #117 ) ;
#208 = VERTEX_POINT ( 'NONE', #184 ) ;
#209 = CIRCLE ( 'NONE', #236, 10.00000000000000000 ) ;
#210 = PERSON_AND_ORGANIZATION ( #5, #192 ) ;
#211 = CARTESIAN_POINT ( 'NONE',  ( 0.0000000000000000000, 0.0000000000000000000, 2.200000000000000200 ) ) ;
#212 = CARTESIAN_POINT ( 'NONE',  ( 0.0000000000000000000, 0.0000000000000000000, 2.200000000000000200 ) ) ;
#213 = APPROVAL ( #164, 'UNSPECIFIED' ) ;
#214 = COORDINATED_UNIVERSAL_TIME_OFFSET ( 6, 0, .BEHIND. ) ;
#215 = COORDINATED_UNIVERSAL_TIME_OFFSET ( 6, 0, .BEHIND. ) ;
#216 = CARTESIAN_POINT ( 'NONE',  ( 0.0000000000000000000, 0.0000000000000000000, 0.0000000000000000000 ) ) ;
#217 = DIRECTION ( 'NONE',  ( 0.0000000000000000000, 0.0000000000000000000, 1.000000000000000000 ) ) ;
#218 = ORIENTED_EDGE ( 'NONE', *, *, #182, .F. ) ;
#219 = DIRECTION ( 'NONE',  ( 1.000000000000000000, 0.0000000000000000000, 0.0000000000000000000 ) ) ;
#220 = DIRECTION ( 'NONE',  ( 0.0000000000000000000, 0.0000000000000000000, 1.000000000000000000 ) ) ;
#221 = FACE_OUTER_BOUND ( 'NONE', #239, .T. ) ;
#222 = AXIS2_PLACEMENT_3D ( 'NONE', #41, #123, #29 ) ;
#223 = DIRECTION ( 'NONE',  ( 1.000000000000000000, 0.0000000000000000000, 0.0000000000000000000 ) ) ;
#224 = FACE_OUTER_BOUND ( 'NONE', #32, .T. ) ;
#225 = VECTOR ( 'NONE', #233, 1000.000000000000000 ) ;
#226 = AXIS2_PLACEMENT_3D ( 'NONE', #61, #220, #103 ) ;
#227 = ORIENTED_EDGE ( 'NONE', *, *, #6, .F. ) ;
#228 = CC_DESIGN_PERSON_AND_ORGANIZATION_ASSIGNMENT ( #128, #27, ( #63 ) ) ;
#229 = LOCAL_TIME ( 20, 14, 52.00000000000000000, #87 ) ;
#230 = VERTEX_POINT ( 'NONE', #133 ) ;
#231 = ADVANCED_FACE ( 'NONE', ( #224, #64 ), #81, .F. ) ;
#232 = ORIENTED_EDGE ( 'NONE', *, *, #145, .T. ) ;
#233 = DIRECTION ( 'NONE',  ( -0.0000000000000000000, -0.0000000000000000000, -1.000000000000000000 ) ) ;
#234 = DIRECTION ( 'NONE',  ( -0.0000000000000000000, -0.0000000000000000000, -1.000000000000000000 ) ) ;
#235 = CIRCLE ( 'NONE', #23, 5.250000000000000000 ) ;
#236 = AXIS2_PLACEMENT_3D ( 'NONE', #211, #196, #219 ) ;
#237 =( NAMED_UNIT ( * ) SI_UNIT ( $, .STERADIAN. ) SOLID_ANGLE_UNIT ( ) );
#238 = DIRECTION ( 'NONE',  ( -0.0000000000000000000, -0.0000000000000000000, -1.000000000000000000 ) ) ;
#239 = EDGE_LOOP ( 'NONE', ( #66, #146, #125, #227 ) ) ;
#240 = APPROVAL_STATUS ( 'not_yet_approved' ) ;
#241 = APPROVAL_DATE_TIME ( #175, #213 ) ;
#242 = CC_DESIGN_APPROVAL ( #57, ( #35 ) ) ;
#243 = ORIENTED_EDGE ( 'NONE', *, *, #248, .F. ) ;
#244 = EDGE_LOOP ( 'NONE', ( #167, #49 ) ) ;
#245 = CARTESIAN_POINT ( 'NONE',  ( -5.250000000000000000, 0.0000000000000000000, 2.200000000000000200 ) ) ;
#246 = CARTESIAN_POINT ( 'NONE',  ( -10.00000000000000000, 0.0000000000000000000, 2.200000000000000200 ) ) ;
#247 = DIRECTION ( 'NONE',  ( -1.000000000000000000, 0.0000000000000000000, 0.0000000000000000000 ) ) ;
#248 = EDGE_CURVE ( 'NONE', #230, #119, #67, .T. ) ;
#249 = DIRECTION ( 'NONE',  ( 1.000000000000000000, 0.0000000000000000000, 0.0000000000000000000 ) ) ;
ENDSEC;
END-ISO-10303-21;
